%TF.GenerationSoftware,KiCad,Pcbnew,(5.1.9)-1*%
%TF.CreationDate,2021-10-17T18:23:48-04:00*%
%TF.ProjectId,Baja_Pi_Expansion,42616a61-5f50-4695-9f45-7870616e7369,rev?*%
%TF.SameCoordinates,Original*%
%TF.FileFunction,Copper,L3,Inr*%
%TF.FilePolarity,Positive*%
%FSLAX46Y46*%
G04 Gerber Fmt 4.6, Leading zero omitted, Abs format (unit mm)*
G04 Created by KiCad (PCBNEW (5.1.9)-1) date 2021-10-17 18:23:48*
%MOMM*%
%LPD*%
G01*
G04 APERTURE LIST*
%TA.AperFunction,ComponentPad*%
%ADD10C,2.000000*%
%TD*%
%TA.AperFunction,ComponentPad*%
%ADD11R,1.700000X1.700000*%
%TD*%
%TA.AperFunction,ComponentPad*%
%ADD12O,1.700000X1.700000*%
%TD*%
%TA.AperFunction,ComponentPad*%
%ADD13R,1.600000X1.600000*%
%TD*%
%TA.AperFunction,ComponentPad*%
%ADD14C,1.600000*%
%TD*%
%TA.AperFunction,ViaPad*%
%ADD15C,0.800000*%
%TD*%
%TA.AperFunction,Conductor*%
%ADD16C,0.250000*%
%TD*%
G04 APERTURE END LIST*
D10*
%TO.N,/gnd*%
%TO.C,J3*%
X222562000Y-121550000D03*
%TO.N,/vcc*%
X219062000Y-121550000D03*
%TO.N,/gnd*%
X215562000Y-121550000D03*
%TO.N,/vcc*%
X212062000Y-121550000D03*
%TD*%
%TO.N,/brakes*%
%TO.C,J6*%
X204614000Y-121292000D03*
%TO.N,/gnd*%
X201114000Y-117042000D03*
%TO.N,/analog_in*%
X197614000Y-121292000D03*
%TO.N,/5v*%
X194114000Y-117042000D03*
%TO.N,/gnd*%
X190614000Y-121292000D03*
%TO.N,/5v*%
X183614000Y-121292000D03*
%TO.N,/dig_in*%
X187114000Y-117042000D03*
%TD*%
D11*
%TO.N,/3v3*%
%TO.C,J1*%
X163000000Y-86570000D03*
D12*
%TO.N,/5v*%
X165540000Y-86570000D03*
%TO.N,/sda2*%
X163000000Y-89110000D03*
%TO.N,/5v*%
X165540000Y-89110000D03*
%TO.N,/scl2*%
X163000000Y-91650000D03*
%TO.N,/gnd*%
X165540000Y-91650000D03*
%TO.N,/gpio1*%
X163000000Y-94190000D03*
%TO.N,/uart_tx*%
X165540000Y-94190000D03*
%TO.N,/gnd*%
X163000000Y-96730000D03*
%TO.N,/uart_rx*%
X165540000Y-96730000D03*
%TO.N,/spi2_ce1*%
X163000000Y-99270000D03*
%TO.N,/spi2_ce0*%
X165540000Y-99270000D03*
%TO.N,/gpio11*%
X163000000Y-101810000D03*
%TO.N,/gnd*%
X165540000Y-101810000D03*
%TO.N,/gpio6*%
X163000000Y-104350000D03*
%TO.N,/gpio7*%
X165540000Y-104350000D03*
%TO.N,/3v3*%
X163000000Y-106890000D03*
%TO.N,/gpio8*%
X165540000Y-106890000D03*
%TO.N,/mosi*%
X163000000Y-109430000D03*
%TO.N,/gnd*%
X165540000Y-109430000D03*
%TD*%
D11*
%TO.N,/miso*%
%TO.C,J2*%
X239500000Y-84030000D03*
D12*
%TO.N,/gpio9*%
X242040000Y-84030000D03*
%TO.N,/sclk*%
X239500000Y-86570000D03*
%TO.N,/spi_ce0*%
X242040000Y-86570000D03*
%TO.N,/gnd*%
X239500000Y-89110000D03*
%TO.N,/spi_ce1*%
X242040000Y-89110000D03*
%TO.N,/sda*%
X239500000Y-91650000D03*
%TO.N,/scl*%
X242040000Y-91650000D03*
%TO.N,/analog_in*%
X239500000Y-94190000D03*
%TO.N,/gnd*%
X242040000Y-94190000D03*
%TO.N,/dig_in*%
X239500000Y-96730000D03*
%TO.N,/gpio4*%
X242040000Y-96730000D03*
%TO.N,/gpio5*%
X239500000Y-99270000D03*
%TO.N,/gnd*%
X242040000Y-99270000D03*
%TO.N,/miso2_pwm*%
X239500000Y-101810000D03*
%TO.N,/reset*%
X242040000Y-101810000D03*
%TO.N,/gpio10*%
X239500000Y-104350000D03*
%TO.N,/miso2*%
X242040000Y-104350000D03*
%TO.N,/gnd*%
X239500000Y-106890000D03*
%TO.N,/sclk2*%
X242040000Y-106890000D03*
%TO.N,Net-(J2-Pad21)*%
X239500000Y-109430000D03*
%TO.N,/reset*%
X242040000Y-109430000D03*
%TO.N,/vcc*%
X239500000Y-111970000D03*
X242040000Y-111970000D03*
%TD*%
D11*
%TO.N,/3v3*%
%TO.C,J4*%
X168370000Y-74770000D03*
D12*
%TO.N,/5v*%
X168370000Y-72230000D03*
%TO.N,/sda2*%
X170910000Y-74770000D03*
%TO.N,/5v*%
X170910000Y-72230000D03*
%TO.N,/scl2*%
X173450000Y-74770000D03*
%TO.N,/gnd*%
X173450000Y-72230000D03*
%TO.N,/gpio1*%
X175990000Y-74770000D03*
%TO.N,/uart_tx*%
X175990000Y-72230000D03*
%TO.N,/gnd*%
X178530000Y-74770000D03*
%TO.N,/uart_rx*%
X178530000Y-72230000D03*
%TO.N,/spi2_ce1*%
X181070000Y-74770000D03*
%TO.N,/spi2_ce0*%
X181070000Y-72230000D03*
%TO.N,/gpio11*%
X183610000Y-74770000D03*
%TO.N,/gnd*%
X183610000Y-72230000D03*
%TO.N,/gpio6*%
X186150000Y-74770000D03*
%TO.N,/gpio7*%
X186150000Y-72230000D03*
%TO.N,/3v3*%
X188690000Y-74770000D03*
%TO.N,/gpio8*%
X188690000Y-72230000D03*
%TO.N,/mosi*%
X191230000Y-74770000D03*
%TO.N,/gnd*%
X191230000Y-72230000D03*
%TO.N,/miso*%
X193770000Y-74770000D03*
%TO.N,/gpio9*%
X193770000Y-72230000D03*
%TO.N,/sclk*%
X196310000Y-74770000D03*
%TO.N,/spi_ce0*%
X196310000Y-72230000D03*
%TO.N,/gnd*%
X198850000Y-74770000D03*
%TO.N,/spi_ce1*%
X198850000Y-72230000D03*
%TO.N,/sda*%
X201390000Y-74770000D03*
%TO.N,/scl*%
X201390000Y-72230000D03*
%TO.N,/analog_in*%
X203930000Y-74770000D03*
%TO.N,/gnd*%
X203930000Y-72230000D03*
%TO.N,/dig_in*%
X206470000Y-74770000D03*
%TO.N,/gpio4*%
X206470000Y-72230000D03*
%TO.N,/gpio5*%
X209010000Y-74770000D03*
%TO.N,/gnd*%
X209010000Y-72230000D03*
%TO.N,/miso2_pwm*%
X211550000Y-74770000D03*
%TO.N,/reset*%
X211550000Y-72230000D03*
%TO.N,/gpio10*%
X214090000Y-74770000D03*
%TO.N,/miso2*%
X214090000Y-72230000D03*
%TO.N,/gnd*%
X216630000Y-74770000D03*
%TO.N,/sclk2*%
X216630000Y-72230000D03*
%TD*%
D11*
%TO.N,Net-(J5-Pad1)*%
%TO.C,J5*%
X187000000Y-109000000D03*
D12*
%TO.N,/dig_in*%
X189540000Y-109000000D03*
%TO.N,Net-(J5-Pad3)*%
X192080000Y-109000000D03*
%TD*%
D13*
%TO.N,/gnd*%
%TO.C,U1*%
X225140000Y-77510000D03*
D14*
%TO.N,/gpio6*%
X227680000Y-77510000D03*
%TO.N,/gpio5*%
X230220000Y-77510000D03*
%TO.N,/gpio7*%
X232760000Y-77510000D03*
%TO.N,/gpio8*%
X235300000Y-77510000D03*
%TO.N,/gnd*%
X235300000Y-72430000D03*
%TO.N,/gpio4*%
X232760000Y-72430000D03*
%TO.N,/gpio9*%
X230220000Y-72430000D03*
%TO.N,/gpio10*%
X227680000Y-72430000D03*
%TO.N,/gpio11*%
X225140000Y-72430000D03*
%TD*%
D15*
%TO.N,/gnd*%
X175000000Y-102610000D03*
X185000000Y-98464000D03*
X215069000Y-95700000D03*
X230632000Y-98044000D03*
X234061000Y-121666000D03*
%TO.N,/5v*%
X216863500Y-99128500D03*
%TO.N,/gpio7*%
X200779600Y-76382000D03*
%TO.N,/sclk*%
X212106800Y-81633100D03*
%TD*%
D16*
%TO.N,/5v*%
X165540000Y-86570000D02*
X165540000Y-85394700D01*
X165540000Y-85394700D02*
X166715300Y-84219400D01*
X166715300Y-84219400D02*
X166715300Y-74185200D01*
X166715300Y-74185200D02*
X168100700Y-72799800D01*
X168100700Y-72799800D02*
X168370000Y-72799800D01*
X165540000Y-89110000D02*
X165540000Y-86570000D01*
X170910000Y-72230000D02*
X169734700Y-72230000D01*
X168370000Y-72799800D02*
X169164900Y-72799800D01*
X169164900Y-72799800D02*
X169734700Y-72230000D01*
X168370000Y-72230000D02*
X168370000Y-72799800D01*
X183614000Y-121292000D02*
X184939400Y-119966600D01*
X184939400Y-119966600D02*
X191189400Y-119966600D01*
X191189400Y-119966600D02*
X194114000Y-117042000D01*
%TO.N,/3v3*%
X168370000Y-74770000D02*
X169545300Y-74770000D01*
X188690000Y-74770000D02*
X187514700Y-74770000D01*
X187514700Y-74770000D02*
X187514700Y-74402700D01*
X187514700Y-74402700D02*
X186706700Y-73594700D01*
X186706700Y-73594700D02*
X170353200Y-73594700D01*
X170353200Y-73594700D02*
X169545300Y-74402600D01*
X169545300Y-74402600D02*
X169545300Y-74770000D01*
X163000000Y-106890000D02*
X163000000Y-105714700D01*
X163000000Y-86570000D02*
X163000000Y-87745300D01*
X163000000Y-87745300D02*
X162632700Y-87745300D01*
X162632700Y-87745300D02*
X161824700Y-88553300D01*
X161824700Y-88553300D02*
X161824700Y-104906800D01*
X161824700Y-104906800D02*
X162632600Y-105714700D01*
X162632600Y-105714700D02*
X163000000Y-105714700D01*
%TO.N,/gpio1*%
X163000000Y-94190000D02*
X163000000Y-93014700D01*
X175990000Y-74770000D02*
X175990000Y-80342300D01*
X175990000Y-80342300D02*
X165857700Y-90474600D01*
X165857700Y-90474600D02*
X165014400Y-90474600D01*
X165014400Y-90474600D02*
X164175300Y-91313700D01*
X164175300Y-91313700D02*
X164175300Y-92206800D01*
X164175300Y-92206800D02*
X163367400Y-93014700D01*
X163367400Y-93014700D02*
X163000000Y-93014700D01*
%TO.N,/spi2_ce1*%
X163000000Y-99270000D02*
X163000000Y-98094700D01*
X181070000Y-74770000D02*
X181070000Y-80384500D01*
X181070000Y-80384500D02*
X165899900Y-95554600D01*
X165899900Y-95554600D02*
X165014400Y-95554600D01*
X165014400Y-95554600D02*
X164175300Y-96393700D01*
X164175300Y-96393700D02*
X164175300Y-97286800D01*
X164175300Y-97286800D02*
X163367400Y-98094700D01*
X163367400Y-98094700D02*
X163000000Y-98094700D01*
%TO.N,/gpio6*%
X163000000Y-104350000D02*
X163000000Y-103174700D01*
X186150000Y-74770000D02*
X186150000Y-80322400D01*
X186150000Y-80322400D02*
X165837800Y-100634600D01*
X165837800Y-100634600D02*
X165014400Y-100634600D01*
X165014400Y-100634600D02*
X164175300Y-101473700D01*
X164175300Y-101473700D02*
X164175300Y-102366800D01*
X164175300Y-102366800D02*
X163367400Y-103174700D01*
X163367400Y-103174700D02*
X163000000Y-103174700D01*
%TO.N,/gpio7*%
X186150000Y-72230000D02*
X187325300Y-72230000D01*
X187325300Y-72230000D02*
X187325300Y-72597400D01*
X187325300Y-72597400D02*
X188133200Y-73405300D01*
X188133200Y-73405300D02*
X199233800Y-73405300D01*
X199233800Y-73405300D02*
X200120000Y-74291500D01*
X200120000Y-74291500D02*
X200120000Y-75722400D01*
X200120000Y-75722400D02*
X200779600Y-76382000D01*
%TO.N,/mosi*%
X163000000Y-109430000D02*
X163000000Y-108254700D01*
X191230000Y-74770000D02*
X191230000Y-80322400D01*
X191230000Y-80322400D02*
X165837800Y-105714600D01*
X165837800Y-105714600D02*
X165014400Y-105714600D01*
X165014400Y-105714600D02*
X164175300Y-106553700D01*
X164175300Y-106553700D02*
X164175300Y-107446800D01*
X164175300Y-107446800D02*
X163367400Y-108254700D01*
X163367400Y-108254700D02*
X163000000Y-108254700D01*
%TO.N,/gpio9*%
X193770000Y-72230000D02*
X194945300Y-72230000D01*
X230220000Y-72430000D02*
X228381000Y-70591000D01*
X228381000Y-70591000D02*
X196217000Y-70591000D01*
X196217000Y-70591000D02*
X194945300Y-71862700D01*
X194945300Y-71862700D02*
X194945300Y-72230000D01*
%TO.N,/sclk*%
X212106800Y-81633100D02*
X217043700Y-86570000D01*
X217043700Y-86570000D02*
X239500000Y-86570000D01*
%TO.N,/spi_ce0*%
X242040000Y-86570000D02*
X240864700Y-86570000D01*
X196310000Y-72230000D02*
X197485300Y-72230000D01*
X197485300Y-72230000D02*
X197485300Y-71862700D01*
X197485300Y-71862700D02*
X198306600Y-71041400D01*
X198306600Y-71041400D02*
X204465900Y-71041400D01*
X204465900Y-71041400D02*
X205105300Y-71680800D01*
X205105300Y-71680800D02*
X205105300Y-72529600D01*
X205105300Y-72529600D02*
X206170300Y-73594600D01*
X206170300Y-73594600D02*
X206995600Y-73594600D01*
X206995600Y-73594600D02*
X207740000Y-74339000D01*
X207740000Y-74339000D02*
X207740000Y-75180800D01*
X207740000Y-75180800D02*
X217953900Y-85394700D01*
X217953900Y-85394700D02*
X240056800Y-85394700D01*
X240056800Y-85394700D02*
X240864700Y-86202600D01*
X240864700Y-86202600D02*
X240864700Y-86570000D01*
%TO.N,/sda*%
X239500000Y-91650000D02*
X238324700Y-91650000D01*
X238324700Y-91650000D02*
X217094700Y-91650000D01*
X217094700Y-91650000D02*
X201390000Y-75945300D01*
X201390000Y-74770000D02*
X201390000Y-75945300D01*
%TO.N,/scl*%
X242040000Y-91650000D02*
X240864700Y-91650000D01*
X201390000Y-72230000D02*
X201390000Y-73405300D01*
X201390000Y-73405300D02*
X201757400Y-73405300D01*
X201757400Y-73405300D02*
X202565300Y-74213200D01*
X202565300Y-74213200D02*
X202565300Y-75084200D01*
X202565300Y-75084200D02*
X217955800Y-90474700D01*
X217955800Y-90474700D02*
X240056800Y-90474700D01*
X240056800Y-90474700D02*
X240864700Y-91282600D01*
X240864700Y-91282600D02*
X240864700Y-91650000D01*
%TO.N,/analog_in*%
X205105300Y-74770000D02*
X205105300Y-75657300D01*
X205105300Y-75657300D02*
X217288100Y-87840100D01*
X217288100Y-87840100D02*
X242450200Y-87840100D01*
X242450200Y-87840100D02*
X243221000Y-88610900D01*
X243221000Y-88610900D02*
X243221000Y-92158400D01*
X243221000Y-92158400D02*
X242364700Y-93014700D01*
X242364700Y-93014700D02*
X241483200Y-93014700D01*
X241483200Y-93014700D02*
X240675300Y-93822600D01*
X240675300Y-93822600D02*
X240675300Y-94190000D01*
X203930000Y-74770000D02*
X205105300Y-74770000D01*
X240675300Y-94190000D02*
X240675300Y-97255700D01*
X240675300Y-97255700D02*
X239931000Y-98000000D01*
X239931000Y-98000000D02*
X236800500Y-98000000D01*
X236800500Y-98000000D02*
X216433100Y-118367400D01*
X216433100Y-118367400D02*
X200538600Y-118367400D01*
X200538600Y-118367400D02*
X197614000Y-121292000D01*
X239500000Y-94190000D02*
X240675300Y-94190000D01*
%TO.N,/dig_in*%
X238324700Y-96730000D02*
X237433600Y-96730000D01*
X237433600Y-96730000D02*
X226338900Y-107824700D01*
X226338900Y-107824700D02*
X191523200Y-107824700D01*
X191523200Y-107824700D02*
X190715300Y-108632600D01*
X190715300Y-108632600D02*
X190715300Y-109000000D01*
X189540000Y-109000000D02*
X190715300Y-109000000D01*
X239500000Y-96730000D02*
X238324700Y-96730000D01*
%TO.N,/gpio5*%
X209010000Y-74770000D02*
X210185300Y-74770000D01*
X230220000Y-77510000D02*
X228655300Y-75945300D01*
X228655300Y-75945300D02*
X210993200Y-75945300D01*
X210993200Y-75945300D02*
X210185300Y-75137400D01*
X210185300Y-75137400D02*
X210185300Y-74770000D01*
%TO.N,/miso2_pwm*%
X239500000Y-101810000D02*
X239500000Y-100634700D01*
X211550000Y-74770000D02*
X211550000Y-73594700D01*
X211550000Y-73594700D02*
X211917400Y-73594700D01*
X211917400Y-73594700D02*
X212725300Y-72786800D01*
X212725300Y-72786800D02*
X212725300Y-71913400D01*
X212725300Y-71913400D02*
X213597300Y-71041400D01*
X213597300Y-71041400D02*
X227884500Y-71041400D01*
X227884500Y-71041400D02*
X228950000Y-72106900D01*
X228950000Y-72106900D02*
X228950000Y-72831200D01*
X228950000Y-72831200D02*
X232314200Y-76195400D01*
X232314200Y-76195400D02*
X235935000Y-76195400D01*
X235935000Y-76195400D02*
X243716500Y-83976900D01*
X243716500Y-83976900D02*
X243716500Y-96790600D01*
X243716500Y-96790600D02*
X242601800Y-97905300D01*
X242601800Y-97905300D02*
X241740400Y-97905300D01*
X241740400Y-97905300D02*
X240675300Y-98970400D01*
X240675300Y-98970400D02*
X240675300Y-99826800D01*
X240675300Y-99826800D02*
X239867400Y-100634700D01*
X239867400Y-100634700D02*
X239500000Y-100634700D01*
%TO.N,/reset*%
X242040000Y-101810000D02*
X242040000Y-102985300D01*
X242040000Y-109430000D02*
X242040000Y-108254700D01*
X242040000Y-108254700D02*
X242407300Y-108254700D01*
X242407300Y-108254700D02*
X243215300Y-107446700D01*
X243215300Y-107446700D02*
X243215300Y-103793200D01*
X243215300Y-103793200D02*
X242407400Y-102985300D01*
X242407400Y-102985300D02*
X242040000Y-102985300D01*
%TO.N,/gpio10*%
X214090000Y-74770000D02*
X215265300Y-74770000D01*
X227680000Y-72430000D02*
X226515300Y-73594700D01*
X226515300Y-73594700D02*
X216073200Y-73594700D01*
X216073200Y-73594700D02*
X215265300Y-74402600D01*
X215265300Y-74402600D02*
X215265300Y-74770000D01*
%TD*%
M02*
