%TF.GenerationSoftware,KiCad,Pcbnew,(5.1.9)-1*%
%TF.CreationDate,2021-10-12T14:35:24-04:00*%
%TF.ProjectId,Baja_Pi_Expansion,42616a61-5f50-4695-9f45-7870616e7369,rev?*%
%TF.SameCoordinates,Original*%
%TF.FileFunction,Copper,L3,Inr*%
%TF.FilePolarity,Positive*%
%FSLAX46Y46*%
G04 Gerber Fmt 4.6, Leading zero omitted, Abs format (unit mm)*
G04 Created by KiCad (PCBNEW (5.1.9)-1) date 2021-10-12 14:35:24*
%MOMM*%
%LPD*%
G01*
G04 APERTURE LIST*
%TA.AperFunction,ComponentPad*%
%ADD10R,1.700000X1.700000*%
%TD*%
%TA.AperFunction,ComponentPad*%
%ADD11O,1.700000X1.700000*%
%TD*%
%TA.AperFunction,ComponentPad*%
%ADD12R,1.600000X1.600000*%
%TD*%
%TA.AperFunction,ComponentPad*%
%ADD13C,1.600000*%
%TD*%
%TA.AperFunction,ViaPad*%
%ADD14C,0.800000*%
%TD*%
%TA.AperFunction,Conductor*%
%ADD15C,0.250000*%
%TD*%
G04 APERTURE END LIST*
D10*
%TO.N,/3v3*%
%TO.C,J1*%
X163000000Y-86570000D03*
D11*
%TO.N,/5v*%
X165540000Y-86570000D03*
%TO.N,/sda2*%
X163000000Y-89110000D03*
%TO.N,/5v*%
X165540000Y-89110000D03*
%TO.N,/scl2*%
X163000000Y-91650000D03*
%TO.N,/gnd*%
X165540000Y-91650000D03*
%TO.N,/gpio1*%
X163000000Y-94190000D03*
%TO.N,/uart_tx*%
X165540000Y-94190000D03*
%TO.N,/gnd*%
X163000000Y-96730000D03*
%TO.N,/uart_rx*%
X165540000Y-96730000D03*
%TO.N,/spi2_ce1*%
X163000000Y-99270000D03*
%TO.N,/spi2_ce0*%
X165540000Y-99270000D03*
%TO.N,/gpio11*%
X163000000Y-101810000D03*
%TO.N,/gnd*%
X165540000Y-101810000D03*
%TO.N,/gpio6*%
X163000000Y-104350000D03*
%TO.N,/gpio7*%
X165540000Y-104350000D03*
%TO.N,/3v3*%
X163000000Y-106890000D03*
%TO.N,/gpio8*%
X165540000Y-106890000D03*
%TO.N,/mosi*%
X163000000Y-109430000D03*
%TO.N,/gnd*%
X165540000Y-109430000D03*
%TD*%
D10*
%TO.N,/miso*%
%TO.C,J2*%
X239500000Y-84030000D03*
D11*
%TO.N,/gpio9*%
X242040000Y-84030000D03*
%TO.N,/sclk*%
X239500000Y-86570000D03*
%TO.N,/spi_ce0*%
X242040000Y-86570000D03*
%TO.N,/gnd*%
X239500000Y-89110000D03*
%TO.N,/spi_ce1*%
X242040000Y-89110000D03*
%TO.N,/sda*%
X239500000Y-91650000D03*
%TO.N,/scl*%
X242040000Y-91650000D03*
%TO.N,/analog_in*%
X239500000Y-94190000D03*
%TO.N,/gnd*%
X242040000Y-94190000D03*
%TO.N,/dig_in*%
X239500000Y-96730000D03*
%TO.N,/gpio4*%
X242040000Y-96730000D03*
%TO.N,/gpio5*%
X239500000Y-99270000D03*
%TO.N,/gnd*%
X242040000Y-99270000D03*
%TO.N,/miso2_pwm*%
X239500000Y-101810000D03*
%TO.N,/reset*%
X242040000Y-101810000D03*
%TO.N,/gpio10*%
X239500000Y-104350000D03*
%TO.N,/miso2*%
X242040000Y-104350000D03*
%TO.N,/gnd*%
X239500000Y-106890000D03*
%TO.N,/sclk2*%
X242040000Y-106890000D03*
%TO.N,Net-(J2-Pad21)*%
X239500000Y-109430000D03*
%TO.N,/reset*%
X242040000Y-109430000D03*
%TO.N,/vcc*%
X239500000Y-111970000D03*
X242040000Y-111970000D03*
%TD*%
D10*
%TO.N,/vcc*%
%TO.C,J3*%
X211000000Y-122000000D03*
D11*
%TO.N,/gnd*%
X213540000Y-122000000D03*
%TO.N,/vcc*%
X216080000Y-122000000D03*
%TO.N,/gnd*%
X218620000Y-122000000D03*
%TD*%
D10*
%TO.N,/3v3*%
%TO.C,J4*%
X168370000Y-74770000D03*
D11*
%TO.N,/5v*%
X168370000Y-72230000D03*
%TO.N,/sda2*%
X170910000Y-74770000D03*
%TO.N,/5v*%
X170910000Y-72230000D03*
%TO.N,/scl2*%
X173450000Y-74770000D03*
%TO.N,/gnd*%
X173450000Y-72230000D03*
%TO.N,/gpio1*%
X175990000Y-74770000D03*
%TO.N,/uart_tx*%
X175990000Y-72230000D03*
%TO.N,/gnd*%
X178530000Y-74770000D03*
%TO.N,/uart_rx*%
X178530000Y-72230000D03*
%TO.N,/spi2_ce1*%
X181070000Y-74770000D03*
%TO.N,/spi2_ce0*%
X181070000Y-72230000D03*
%TO.N,/gpio11*%
X183610000Y-74770000D03*
%TO.N,/gnd*%
X183610000Y-72230000D03*
%TO.N,/gpio6*%
X186150000Y-74770000D03*
%TO.N,/gpio7*%
X186150000Y-72230000D03*
%TO.N,/3v3*%
X188690000Y-74770000D03*
%TO.N,/gpio8*%
X188690000Y-72230000D03*
%TO.N,/mosi*%
X191230000Y-74770000D03*
%TO.N,/gnd*%
X191230000Y-72230000D03*
%TO.N,/miso*%
X193770000Y-74770000D03*
%TO.N,/gpio9*%
X193770000Y-72230000D03*
%TO.N,/sclk*%
X196310000Y-74770000D03*
%TO.N,/spi_ce0*%
X196310000Y-72230000D03*
%TO.N,/gnd*%
X198850000Y-74770000D03*
%TO.N,/spi_ce1*%
X198850000Y-72230000D03*
%TO.N,/sda*%
X201390000Y-74770000D03*
%TO.N,/scl*%
X201390000Y-72230000D03*
%TO.N,/analog_in*%
X203930000Y-74770000D03*
%TO.N,/gnd*%
X203930000Y-72230000D03*
%TO.N,/dig_in*%
X206470000Y-74770000D03*
%TO.N,/gpio4*%
X206470000Y-72230000D03*
%TO.N,/gpio5*%
X209010000Y-74770000D03*
%TO.N,/gnd*%
X209010000Y-72230000D03*
%TO.N,/miso2_pwm*%
X211550000Y-74770000D03*
%TO.N,/reset*%
X211550000Y-72230000D03*
%TO.N,/gpio10*%
X214090000Y-74770000D03*
%TO.N,/miso2*%
X214090000Y-72230000D03*
%TO.N,/gnd*%
X216630000Y-74770000D03*
%TO.N,/sclk2*%
X216630000Y-72230000D03*
%TD*%
D10*
%TO.N,Net-(J5-Pad1)*%
%TO.C,J5*%
X187000000Y-109000000D03*
D11*
%TO.N,/dig_in*%
X189540000Y-109000000D03*
%TO.N,Net-(J5-Pad3)*%
X192080000Y-109000000D03*
%TD*%
D10*
%TO.N,/5v*%
%TO.C,J6*%
X187000000Y-122000000D03*
D11*
%TO.N,/dig_in*%
X189540000Y-122000000D03*
%TO.N,/gnd*%
X192080000Y-122000000D03*
%TO.N,/5v*%
X194620000Y-122000000D03*
%TO.N,/analog_in*%
X197160000Y-122000000D03*
%TO.N,/gnd*%
X199700000Y-122000000D03*
%TO.N,/brakes*%
X202240000Y-122000000D03*
%TD*%
D12*
%TO.N,/gnd*%
%TO.C,U1*%
X225140000Y-77510000D03*
D13*
%TO.N,/gpio6*%
X227680000Y-77510000D03*
%TO.N,/gpio5*%
X230220000Y-77510000D03*
%TO.N,/gpio7*%
X232760000Y-77510000D03*
%TO.N,/gpio8*%
X235300000Y-77510000D03*
%TO.N,/gnd*%
X235300000Y-72430000D03*
%TO.N,/gpio4*%
X232760000Y-72430000D03*
%TO.N,/gpio9*%
X230220000Y-72430000D03*
%TO.N,/gpio10*%
X227680000Y-72430000D03*
%TO.N,/gpio11*%
X225140000Y-72430000D03*
%TD*%
D14*
%TO.N,/gnd*%
X175006000Y-102489000D03*
X185039000Y-98425000D03*
X214884000Y-96266000D03*
X228473000Y-94488000D03*
X228600000Y-101473000D03*
X230378000Y-98044000D03*
X232664000Y-123444000D03*
%TO.N,/analog_in*%
X212182800Y-93487400D03*
%TO.N,/miso2_pwm*%
X230633800Y-95103000D03*
%TO.N,/miso2*%
X235133100Y-99264200D03*
%TD*%
D15*
%TO.N,/5v*%
X165540000Y-86570000D02*
X165540000Y-85394700D01*
X165540000Y-85394700D02*
X166715300Y-84219400D01*
X166715300Y-84219400D02*
X166715300Y-74185200D01*
X166715300Y-74185200D02*
X168100700Y-72799800D01*
X168100700Y-72799800D02*
X168370000Y-72799800D01*
X165540000Y-89110000D02*
X165540000Y-86570000D01*
X170910000Y-72230000D02*
X169734700Y-72230000D01*
X168370000Y-72799800D02*
X169164900Y-72799800D01*
X169164900Y-72799800D02*
X169734700Y-72230000D01*
X168370000Y-72230000D02*
X168370000Y-72799800D01*
X194620000Y-122000000D02*
X193444700Y-122000000D01*
X187000000Y-122000000D02*
X188175300Y-122000000D01*
X193444700Y-122000000D02*
X193444700Y-122367300D01*
X193444700Y-122367300D02*
X192636700Y-123175300D01*
X192636700Y-123175300D02*
X188983200Y-123175300D01*
X188983200Y-123175300D02*
X188175300Y-122367400D01*
X188175300Y-122367400D02*
X188175300Y-122000000D01*
%TO.N,/3v3*%
X163000000Y-106890000D02*
X163000000Y-105714700D01*
X163000000Y-86570000D02*
X163000000Y-87745300D01*
X163000000Y-87745300D02*
X162632700Y-87745300D01*
X162632700Y-87745300D02*
X161824700Y-88553300D01*
X161824700Y-88553300D02*
X161824700Y-104906800D01*
X161824700Y-104906800D02*
X162632600Y-105714700D01*
X162632600Y-105714700D02*
X163000000Y-105714700D01*
X168370000Y-74770000D02*
X169545300Y-74770000D01*
X188690000Y-74770000D02*
X187514700Y-74770000D01*
X187514700Y-74770000D02*
X187514700Y-74402700D01*
X187514700Y-74402700D02*
X186706700Y-73594700D01*
X186706700Y-73594700D02*
X170353200Y-73594700D01*
X170353200Y-73594700D02*
X169545300Y-74402600D01*
X169545300Y-74402600D02*
X169545300Y-74770000D01*
%TO.N,/gpio1*%
X163000000Y-94190000D02*
X164175300Y-94190000D01*
X164175300Y-94190000D02*
X164175300Y-93822600D01*
X164175300Y-93822600D02*
X164983200Y-93014700D01*
X164983200Y-93014700D02*
X165856100Y-93014700D01*
X165856100Y-93014700D02*
X175990000Y-82880800D01*
X175990000Y-82880800D02*
X175990000Y-74770000D01*
%TO.N,/spi2_ce1*%
X181070000Y-74770000D02*
X181070000Y-80395800D01*
X181070000Y-80395800D02*
X165911200Y-95554600D01*
X165911200Y-95554600D02*
X165014400Y-95554600D01*
X165014400Y-95554600D02*
X164175300Y-96393700D01*
X164175300Y-96393700D02*
X164175300Y-97286800D01*
X164175300Y-97286800D02*
X163367400Y-98094700D01*
X163367400Y-98094700D02*
X163000000Y-98094700D01*
X163000000Y-99270000D02*
X163000000Y-98094700D01*
%TO.N,/gpio11*%
X163000000Y-101810000D02*
X164175300Y-101810000D01*
X183610000Y-74770000D02*
X183610000Y-82865300D01*
X183610000Y-82865300D02*
X165840600Y-100634700D01*
X165840600Y-100634700D02*
X164983200Y-100634700D01*
X164983200Y-100634700D02*
X164175300Y-101442600D01*
X164175300Y-101442600D02*
X164175300Y-101810000D01*
%TO.N,/gpio6*%
X163000000Y-104350000D02*
X164175300Y-104350000D01*
X186150000Y-74770000D02*
X186150000Y-82877500D01*
X186150000Y-82877500D02*
X165852800Y-103174700D01*
X165852800Y-103174700D02*
X164983200Y-103174700D01*
X164983200Y-103174700D02*
X164175300Y-103982600D01*
X164175300Y-103982600D02*
X164175300Y-104350000D01*
%TO.N,/gpio7*%
X186150000Y-72230000D02*
X187325300Y-72230000D01*
X187325300Y-72230000D02*
X187325300Y-71862700D01*
X187325300Y-71862700D02*
X188605000Y-70583000D01*
X188605000Y-70583000D02*
X232516300Y-70583000D01*
X232516300Y-70583000D02*
X233885400Y-71952100D01*
X233885400Y-71952100D02*
X233885400Y-76384600D01*
X233885400Y-76384600D02*
X232760000Y-77510000D01*
%TO.N,/miso*%
X193770000Y-74770000D02*
X194945300Y-74770000D01*
X194945300Y-74770000D02*
X194945300Y-74402700D01*
X194945300Y-74402700D02*
X195763200Y-73584800D01*
X195763200Y-73584800D02*
X199349000Y-73584800D01*
X199349000Y-73584800D02*
X200120000Y-74355800D01*
X200120000Y-74355800D02*
X200120000Y-75181900D01*
X200120000Y-75181900D02*
X208968100Y-84030000D01*
X208968100Y-84030000D02*
X239500000Y-84030000D01*
%TO.N,/sclk*%
X196310000Y-74770000D02*
X197485300Y-74770000D01*
X197485300Y-74770000D02*
X197485300Y-75137300D01*
X197485300Y-75137300D02*
X208918000Y-86570000D01*
X208918000Y-86570000D02*
X239500000Y-86570000D01*
%TO.N,/spi_ce1*%
X242040000Y-89110000D02*
X242040000Y-87934700D01*
X198850000Y-72230000D02*
X200025300Y-72230000D01*
X200025300Y-72230000D02*
X200025300Y-72597400D01*
X200025300Y-72597400D02*
X200833200Y-73405300D01*
X200833200Y-73405300D02*
X204257200Y-73405300D01*
X204257200Y-73405300D02*
X205200000Y-74348100D01*
X205200000Y-74348100D02*
X205200000Y-75177300D01*
X205200000Y-75177300D02*
X211600600Y-81577900D01*
X211600600Y-81577900D02*
X241277800Y-81577900D01*
X241277800Y-81577900D02*
X243215300Y-83515400D01*
X243215300Y-83515400D02*
X243215300Y-87126800D01*
X243215300Y-87126800D02*
X242407400Y-87934700D01*
X242407400Y-87934700D02*
X242040000Y-87934700D01*
%TO.N,/sda*%
X239500000Y-91650000D02*
X239500000Y-90474700D01*
X201390000Y-74770000D02*
X202565300Y-74770000D01*
X202565300Y-74770000D02*
X202565300Y-75137300D01*
X202565300Y-75137300D02*
X209550900Y-82122900D01*
X209550900Y-82122900D02*
X239757600Y-82122900D01*
X239757600Y-82122900D02*
X240675300Y-83040600D01*
X240675300Y-83040600D02*
X240675300Y-89666800D01*
X240675300Y-89666800D02*
X239867400Y-90474700D01*
X239867400Y-90474700D02*
X239500000Y-90474700D01*
%TO.N,/scl*%
X242040000Y-91650000D02*
X242040000Y-90474700D01*
X201390000Y-72230000D02*
X202565300Y-72230000D01*
X202565300Y-72230000D02*
X202565300Y-71862700D01*
X202565300Y-71862700D02*
X203394600Y-71033400D01*
X203394600Y-71033400D02*
X204397600Y-71033400D01*
X204397600Y-71033400D02*
X205294600Y-71930400D01*
X205294600Y-71930400D02*
X205294600Y-72755600D01*
X205294600Y-72755600D02*
X206133600Y-73594600D01*
X206133600Y-73594600D02*
X206995600Y-73594600D01*
X206995600Y-73594600D02*
X207740000Y-74339000D01*
X207740000Y-74339000D02*
X207740000Y-75179900D01*
X207740000Y-75179900D02*
X212447700Y-79887600D01*
X212447700Y-79887600D02*
X240234700Y-79887600D01*
X240234700Y-79887600D02*
X243716500Y-83369400D01*
X243716500Y-83369400D02*
X243716500Y-89165500D01*
X243716500Y-89165500D02*
X242407300Y-90474700D01*
X242407300Y-90474700D02*
X242040000Y-90474700D01*
%TO.N,/analog_in*%
X239500000Y-94190000D02*
X238324700Y-94190000D01*
X212182800Y-93487400D02*
X237622100Y-93487400D01*
X237622100Y-93487400D02*
X238324700Y-94190000D01*
%TO.N,/dig_in*%
X239500000Y-96730000D02*
X238324700Y-96730000D01*
X189540000Y-109000000D02*
X190715300Y-109000000D01*
X190715300Y-109000000D02*
X190715300Y-108632600D01*
X190715300Y-108632600D02*
X191523200Y-107824700D01*
X191523200Y-107824700D02*
X216217000Y-107824700D01*
X216217000Y-107824700D02*
X229677800Y-94363900D01*
X229677800Y-94363900D02*
X235958600Y-94363900D01*
X235958600Y-94363900D02*
X238324700Y-96730000D01*
%TO.N,/gpio4*%
X206470000Y-72230000D02*
X207645300Y-72230000D01*
X232760000Y-72430000D02*
X231384700Y-71054700D01*
X231384700Y-71054700D02*
X208453200Y-71054700D01*
X208453200Y-71054700D02*
X207645300Y-71862600D01*
X207645300Y-71862600D02*
X207645300Y-72230000D01*
%TO.N,/gpio5*%
X230220000Y-77510000D02*
X228655300Y-75945300D01*
X228655300Y-75945300D02*
X210993200Y-75945300D01*
X210993200Y-75945300D02*
X210185300Y-75137400D01*
X210185300Y-75137400D02*
X210185300Y-74770000D01*
X209010000Y-74770000D02*
X210185300Y-74770000D01*
%TO.N,/miso2_pwm*%
X239500000Y-101810000D02*
X238324700Y-101810000D01*
X230633800Y-95103000D02*
X232058400Y-95103000D01*
X232058400Y-95103000D02*
X238324700Y-101369300D01*
X238324700Y-101369300D02*
X238324700Y-101810000D01*
%TO.N,/gpio10*%
X214090000Y-74770000D02*
X215265300Y-74770000D01*
X227680000Y-72430000D02*
X226515300Y-73594700D01*
X226515300Y-73594700D02*
X216073200Y-73594700D01*
X216073200Y-73594700D02*
X215265300Y-74402600D01*
X215265300Y-74402600D02*
X215265300Y-74770000D01*
%TO.N,/miso2*%
X242040000Y-104350000D02*
X240864700Y-104350000D01*
X235133100Y-99264200D02*
X239043600Y-103174700D01*
X239043600Y-103174700D02*
X240056800Y-103174700D01*
X240056800Y-103174700D02*
X240864700Y-103982600D01*
X240864700Y-103982600D02*
X240864700Y-104350000D01*
%TD*%
M02*
