%TF.GenerationSoftware,KiCad,Pcbnew,(5.1.9)-1*%
%TF.CreationDate,2021-10-17T18:23:48-04:00*%
%TF.ProjectId,Baja_Pi_Expansion,42616a61-5f50-4695-9f45-7870616e7369,rev?*%
%TF.SameCoordinates,Original*%
%TF.FileFunction,Copper,L1,Top*%
%TF.FilePolarity,Positive*%
%FSLAX46Y46*%
G04 Gerber Fmt 4.6, Leading zero omitted, Abs format (unit mm)*
G04 Created by KiCad (PCBNEW (5.1.9)-1) date 2021-10-17 18:23:48*
%MOMM*%
%LPD*%
G01*
G04 APERTURE LIST*
%TA.AperFunction,ComponentPad*%
%ADD10C,2.000000*%
%TD*%
%TA.AperFunction,ComponentPad*%
%ADD11R,1.700000X1.700000*%
%TD*%
%TA.AperFunction,ComponentPad*%
%ADD12O,1.700000X1.700000*%
%TD*%
%TA.AperFunction,ComponentPad*%
%ADD13R,1.600000X1.600000*%
%TD*%
%TA.AperFunction,ComponentPad*%
%ADD14C,1.600000*%
%TD*%
%TA.AperFunction,SMDPad,CuDef*%
%ADD15R,1.840000X0.930000*%
%TD*%
%TA.AperFunction,SMDPad,CuDef*%
%ADD16R,1.840000X3.190000*%
%TD*%
%TA.AperFunction,ViaPad*%
%ADD17C,0.800000*%
%TD*%
%TA.AperFunction,Conductor*%
%ADD18C,1.016000*%
%TD*%
%TA.AperFunction,Conductor*%
%ADD19C,0.250000*%
%TD*%
%TA.AperFunction,Conductor*%
%ADD20C,0.254000*%
%TD*%
%TA.AperFunction,Conductor*%
%ADD21C,0.100000*%
%TD*%
G04 APERTURE END LIST*
D10*
%TO.P,J3,4*%
%TO.N,/gnd*%
X222562000Y-121550000D03*
%TO.P,J3,3*%
%TO.N,/vcc*%
X219062000Y-121550000D03*
%TO.P,J3,2*%
%TO.N,/gnd*%
X215562000Y-121550000D03*
%TO.P,J3,1*%
%TO.N,/vcc*%
X212062000Y-121550000D03*
%TD*%
%TO.P,J6,7*%
%TO.N,/brakes*%
X204614000Y-121292000D03*
%TO.P,J6,6*%
%TO.N,/gnd*%
X201114000Y-117042000D03*
%TO.P,J6,5*%
%TO.N,/analog_in*%
X197614000Y-121292000D03*
%TO.P,J6,4*%
%TO.N,/5v*%
X194114000Y-117042000D03*
%TO.P,J6,3*%
%TO.N,/gnd*%
X190614000Y-121292000D03*
%TO.P,J6,1*%
%TO.N,/5v*%
X183614000Y-121292000D03*
%TO.P,J6,2*%
%TO.N,/dig_in*%
X187114000Y-117042000D03*
%TD*%
%TO.P,D1,2*%
%TO.N,Net-(D1-Pad2)*%
%TA.AperFunction,SMDPad,CuDef*%
G36*
G01*
X235450000Y-123956250D02*
X235450000Y-123043750D01*
G75*
G02*
X235693750Y-122800000I243750J0D01*
G01*
X236181250Y-122800000D01*
G75*
G02*
X236425000Y-123043750I0J-243750D01*
G01*
X236425000Y-123956250D01*
G75*
G02*
X236181250Y-124200000I-243750J0D01*
G01*
X235693750Y-124200000D01*
G75*
G02*
X235450000Y-123956250I0J243750D01*
G01*
G37*
%TD.AperFunction*%
%TO.P,D1,1*%
%TO.N,/gnd*%
%TA.AperFunction,SMDPad,CuDef*%
G36*
G01*
X233575000Y-123956250D02*
X233575000Y-123043750D01*
G75*
G02*
X233818750Y-122800000I243750J0D01*
G01*
X234306250Y-122800000D01*
G75*
G02*
X234550000Y-123043750I0J-243750D01*
G01*
X234550000Y-123956250D01*
G75*
G02*
X234306250Y-124200000I-243750J0D01*
G01*
X233818750Y-124200000D01*
G75*
G02*
X233575000Y-123956250I0J243750D01*
G01*
G37*
%TD.AperFunction*%
%TD*%
%TO.P,C1,1*%
%TO.N,/vcc*%
%TA.AperFunction,SMDPad,CuDef*%
G36*
G01*
X213750000Y-99225000D02*
X213250000Y-99225000D01*
G75*
G02*
X213025000Y-99000000I0J225000D01*
G01*
X213025000Y-98550000D01*
G75*
G02*
X213250000Y-98325000I225000J0D01*
G01*
X213750000Y-98325000D01*
G75*
G02*
X213975000Y-98550000I0J-225000D01*
G01*
X213975000Y-99000000D01*
G75*
G02*
X213750000Y-99225000I-225000J0D01*
G01*
G37*
%TD.AperFunction*%
%TO.P,C1,2*%
%TO.N,/gnd*%
%TA.AperFunction,SMDPad,CuDef*%
G36*
G01*
X213750000Y-97675000D02*
X213250000Y-97675000D01*
G75*
G02*
X213025000Y-97450000I0J225000D01*
G01*
X213025000Y-97000000D01*
G75*
G02*
X213250000Y-96775000I225000J0D01*
G01*
X213750000Y-96775000D01*
G75*
G02*
X213975000Y-97000000I0J-225000D01*
G01*
X213975000Y-97450000D01*
G75*
G02*
X213750000Y-97675000I-225000J0D01*
G01*
G37*
%TD.AperFunction*%
%TD*%
%TO.P,C2,2*%
%TO.N,/gnd*%
%TA.AperFunction,SMDPad,CuDef*%
G36*
G01*
X226825000Y-101750000D02*
X226825000Y-101250000D01*
G75*
G02*
X227050000Y-101025000I225000J0D01*
G01*
X227500000Y-101025000D01*
G75*
G02*
X227725000Y-101250000I0J-225000D01*
G01*
X227725000Y-101750000D01*
G75*
G02*
X227500000Y-101975000I-225000J0D01*
G01*
X227050000Y-101975000D01*
G75*
G02*
X226825000Y-101750000I0J225000D01*
G01*
G37*
%TD.AperFunction*%
%TO.P,C2,1*%
%TO.N,/5v*%
%TA.AperFunction,SMDPad,CuDef*%
G36*
G01*
X225275000Y-101750000D02*
X225275000Y-101250000D01*
G75*
G02*
X225500000Y-101025000I225000J0D01*
G01*
X225950000Y-101025000D01*
G75*
G02*
X226175000Y-101250000I0J-225000D01*
G01*
X226175000Y-101750000D01*
G75*
G02*
X225950000Y-101975000I-225000J0D01*
G01*
X225500000Y-101975000D01*
G75*
G02*
X225275000Y-101750000I0J225000D01*
G01*
G37*
%TD.AperFunction*%
%TD*%
%TO.P,C3,1*%
%TO.N,/5v*%
%TA.AperFunction,SMDPad,CuDef*%
G36*
G01*
X225275000Y-94750000D02*
X225275000Y-94250000D01*
G75*
G02*
X225500000Y-94025000I225000J0D01*
G01*
X225950000Y-94025000D01*
G75*
G02*
X226175000Y-94250000I0J-225000D01*
G01*
X226175000Y-94750000D01*
G75*
G02*
X225950000Y-94975000I-225000J0D01*
G01*
X225500000Y-94975000D01*
G75*
G02*
X225275000Y-94750000I0J225000D01*
G01*
G37*
%TD.AperFunction*%
%TO.P,C3,2*%
%TO.N,/gnd*%
%TA.AperFunction,SMDPad,CuDef*%
G36*
G01*
X226825000Y-94750000D02*
X226825000Y-94250000D01*
G75*
G02*
X227050000Y-94025000I225000J0D01*
G01*
X227500000Y-94025000D01*
G75*
G02*
X227725000Y-94250000I0J-225000D01*
G01*
X227725000Y-94750000D01*
G75*
G02*
X227500000Y-94975000I-225000J0D01*
G01*
X227050000Y-94975000D01*
G75*
G02*
X226825000Y-94750000I0J225000D01*
G01*
G37*
%TD.AperFunction*%
%TD*%
%TO.P,C4,1*%
%TO.N,/5v*%
%TA.AperFunction,SMDPad,CuDef*%
G36*
G01*
X225340000Y-98425001D02*
X225340000Y-97574999D01*
G75*
G02*
X225589999Y-97325000I249999J0D01*
G01*
X226490001Y-97325000D01*
G75*
G02*
X226740000Y-97574999I0J-249999D01*
G01*
X226740000Y-98425001D01*
G75*
G02*
X226490001Y-98675000I-249999J0D01*
G01*
X225589999Y-98675000D01*
G75*
G02*
X225340000Y-98425001I0J249999D01*
G01*
G37*
%TD.AperFunction*%
%TO.P,C4,2*%
%TO.N,/gnd*%
%TA.AperFunction,SMDPad,CuDef*%
G36*
G01*
X228040000Y-98425001D02*
X228040000Y-97574999D01*
G75*
G02*
X228289999Y-97325000I249999J0D01*
G01*
X229190001Y-97325000D01*
G75*
G02*
X229440000Y-97574999I0J-249999D01*
G01*
X229440000Y-98425001D01*
G75*
G02*
X229190001Y-98675000I-249999J0D01*
G01*
X228289999Y-98675000D01*
G75*
G02*
X228040000Y-98425001I0J249999D01*
G01*
G37*
%TD.AperFunction*%
%TD*%
D11*
%TO.P,J1,1*%
%TO.N,/3v3*%
X163000000Y-86570000D03*
D12*
%TO.P,J1,2*%
%TO.N,/5v*%
X165540000Y-86570000D03*
%TO.P,J1,3*%
%TO.N,/sda2*%
X163000000Y-89110000D03*
%TO.P,J1,4*%
%TO.N,/5v*%
X165540000Y-89110000D03*
%TO.P,J1,5*%
%TO.N,/scl2*%
X163000000Y-91650000D03*
%TO.P,J1,6*%
%TO.N,/gnd*%
X165540000Y-91650000D03*
%TO.P,J1,7*%
%TO.N,/gpio1*%
X163000000Y-94190000D03*
%TO.P,J1,8*%
%TO.N,/uart_tx*%
X165540000Y-94190000D03*
%TO.P,J1,9*%
%TO.N,/gnd*%
X163000000Y-96730000D03*
%TO.P,J1,10*%
%TO.N,/uart_rx*%
X165540000Y-96730000D03*
%TO.P,J1,11*%
%TO.N,/spi2_ce1*%
X163000000Y-99270000D03*
%TO.P,J1,12*%
%TO.N,/spi2_ce0*%
X165540000Y-99270000D03*
%TO.P,J1,13*%
%TO.N,/gpio11*%
X163000000Y-101810000D03*
%TO.P,J1,14*%
%TO.N,/gnd*%
X165540000Y-101810000D03*
%TO.P,J1,15*%
%TO.N,/gpio6*%
X163000000Y-104350000D03*
%TO.P,J1,16*%
%TO.N,/gpio7*%
X165540000Y-104350000D03*
%TO.P,J1,17*%
%TO.N,/3v3*%
X163000000Y-106890000D03*
%TO.P,J1,18*%
%TO.N,/gpio8*%
X165540000Y-106890000D03*
%TO.P,J1,19*%
%TO.N,/mosi*%
X163000000Y-109430000D03*
%TO.P,J1,20*%
%TO.N,/gnd*%
X165540000Y-109430000D03*
%TD*%
D11*
%TO.P,J2,1*%
%TO.N,/miso*%
X239500000Y-84030000D03*
D12*
%TO.P,J2,2*%
%TO.N,/gpio9*%
X242040000Y-84030000D03*
%TO.P,J2,3*%
%TO.N,/sclk*%
X239500000Y-86570000D03*
%TO.P,J2,4*%
%TO.N,/spi_ce0*%
X242040000Y-86570000D03*
%TO.P,J2,5*%
%TO.N,/gnd*%
X239500000Y-89110000D03*
%TO.P,J2,6*%
%TO.N,/spi_ce1*%
X242040000Y-89110000D03*
%TO.P,J2,7*%
%TO.N,/sda*%
X239500000Y-91650000D03*
%TO.P,J2,8*%
%TO.N,/scl*%
X242040000Y-91650000D03*
%TO.P,J2,9*%
%TO.N,/analog_in*%
X239500000Y-94190000D03*
%TO.P,J2,10*%
%TO.N,/gnd*%
X242040000Y-94190000D03*
%TO.P,J2,11*%
%TO.N,/dig_in*%
X239500000Y-96730000D03*
%TO.P,J2,12*%
%TO.N,/gpio4*%
X242040000Y-96730000D03*
%TO.P,J2,13*%
%TO.N,/gpio5*%
X239500000Y-99270000D03*
%TO.P,J2,14*%
%TO.N,/gnd*%
X242040000Y-99270000D03*
%TO.P,J2,15*%
%TO.N,/miso2_pwm*%
X239500000Y-101810000D03*
%TO.P,J2,16*%
%TO.N,/reset*%
X242040000Y-101810000D03*
%TO.P,J2,17*%
%TO.N,/gpio10*%
X239500000Y-104350000D03*
%TO.P,J2,18*%
%TO.N,/miso2*%
X242040000Y-104350000D03*
%TO.P,J2,19*%
%TO.N,/gnd*%
X239500000Y-106890000D03*
%TO.P,J2,20*%
%TO.N,/sclk2*%
X242040000Y-106890000D03*
%TO.P,J2,21*%
%TO.N,Net-(J2-Pad21)*%
X239500000Y-109430000D03*
%TO.P,J2,22*%
%TO.N,/reset*%
X242040000Y-109430000D03*
%TO.P,J2,23*%
%TO.N,/vcc*%
X239500000Y-111970000D03*
%TO.P,J2,24*%
X242040000Y-111970000D03*
%TD*%
D11*
%TO.P,J4,1*%
%TO.N,/3v3*%
X168370000Y-74770000D03*
D12*
%TO.P,J4,2*%
%TO.N,/5v*%
X168370000Y-72230000D03*
%TO.P,J4,3*%
%TO.N,/sda2*%
X170910000Y-74770000D03*
%TO.P,J4,4*%
%TO.N,/5v*%
X170910000Y-72230000D03*
%TO.P,J4,5*%
%TO.N,/scl2*%
X173450000Y-74770000D03*
%TO.P,J4,6*%
%TO.N,/gnd*%
X173450000Y-72230000D03*
%TO.P,J4,7*%
%TO.N,/gpio1*%
X175990000Y-74770000D03*
%TO.P,J4,8*%
%TO.N,/uart_tx*%
X175990000Y-72230000D03*
%TO.P,J4,9*%
%TO.N,/gnd*%
X178530000Y-74770000D03*
%TO.P,J4,10*%
%TO.N,/uart_rx*%
X178530000Y-72230000D03*
%TO.P,J4,11*%
%TO.N,/spi2_ce1*%
X181070000Y-74770000D03*
%TO.P,J4,12*%
%TO.N,/spi2_ce0*%
X181070000Y-72230000D03*
%TO.P,J4,13*%
%TO.N,/gpio11*%
X183610000Y-74770000D03*
%TO.P,J4,14*%
%TO.N,/gnd*%
X183610000Y-72230000D03*
%TO.P,J4,15*%
%TO.N,/gpio6*%
X186150000Y-74770000D03*
%TO.P,J4,16*%
%TO.N,/gpio7*%
X186150000Y-72230000D03*
%TO.P,J4,17*%
%TO.N,/3v3*%
X188690000Y-74770000D03*
%TO.P,J4,18*%
%TO.N,/gpio8*%
X188690000Y-72230000D03*
%TO.P,J4,19*%
%TO.N,/mosi*%
X191230000Y-74770000D03*
%TO.P,J4,20*%
%TO.N,/gnd*%
X191230000Y-72230000D03*
%TO.P,J4,21*%
%TO.N,/miso*%
X193770000Y-74770000D03*
%TO.P,J4,22*%
%TO.N,/gpio9*%
X193770000Y-72230000D03*
%TO.P,J4,23*%
%TO.N,/sclk*%
X196310000Y-74770000D03*
%TO.P,J4,24*%
%TO.N,/spi_ce0*%
X196310000Y-72230000D03*
%TO.P,J4,25*%
%TO.N,/gnd*%
X198850000Y-74770000D03*
%TO.P,J4,26*%
%TO.N,/spi_ce1*%
X198850000Y-72230000D03*
%TO.P,J4,27*%
%TO.N,/sda*%
X201390000Y-74770000D03*
%TO.P,J4,28*%
%TO.N,/scl*%
X201390000Y-72230000D03*
%TO.P,J4,29*%
%TO.N,/analog_in*%
X203930000Y-74770000D03*
%TO.P,J4,30*%
%TO.N,/gnd*%
X203930000Y-72230000D03*
%TO.P,J4,31*%
%TO.N,/dig_in*%
X206470000Y-74770000D03*
%TO.P,J4,32*%
%TO.N,/gpio4*%
X206470000Y-72230000D03*
%TO.P,J4,33*%
%TO.N,/gpio5*%
X209010000Y-74770000D03*
%TO.P,J4,34*%
%TO.N,/gnd*%
X209010000Y-72230000D03*
%TO.P,J4,35*%
%TO.N,/miso2_pwm*%
X211550000Y-74770000D03*
%TO.P,J4,36*%
%TO.N,/reset*%
X211550000Y-72230000D03*
%TO.P,J4,37*%
%TO.N,/gpio10*%
X214090000Y-74770000D03*
%TO.P,J4,38*%
%TO.N,/miso2*%
X214090000Y-72230000D03*
%TO.P,J4,39*%
%TO.N,/gnd*%
X216630000Y-74770000D03*
%TO.P,J4,40*%
%TO.N,/sclk2*%
X216630000Y-72230000D03*
%TD*%
D11*
%TO.P,J5,1*%
%TO.N,Net-(J5-Pad1)*%
X187000000Y-109000000D03*
D12*
%TO.P,J5,2*%
%TO.N,/dig_in*%
X189540000Y-109000000D03*
%TO.P,J5,3*%
%TO.N,Net-(J5-Pad3)*%
X192080000Y-109000000D03*
%TD*%
%TO.P,R1,1*%
%TO.N,/5v*%
%TA.AperFunction,SMDPad,CuDef*%
G36*
G01*
X175275000Y-96725000D02*
X174725000Y-96725000D01*
G75*
G02*
X174525000Y-96525000I0J200000D01*
G01*
X174525000Y-96125000D01*
G75*
G02*
X174725000Y-95925000I200000J0D01*
G01*
X175275000Y-95925000D01*
G75*
G02*
X175475000Y-96125000I0J-200000D01*
G01*
X175475000Y-96525000D01*
G75*
G02*
X175275000Y-96725000I-200000J0D01*
G01*
G37*
%TD.AperFunction*%
%TO.P,R1,2*%
%TO.N,/sda2*%
%TA.AperFunction,SMDPad,CuDef*%
G36*
G01*
X175275000Y-95075000D02*
X174725000Y-95075000D01*
G75*
G02*
X174525000Y-94875000I0J200000D01*
G01*
X174525000Y-94475000D01*
G75*
G02*
X174725000Y-94275000I200000J0D01*
G01*
X175275000Y-94275000D01*
G75*
G02*
X175475000Y-94475000I0J-200000D01*
G01*
X175475000Y-94875000D01*
G75*
G02*
X175275000Y-95075000I-200000J0D01*
G01*
G37*
%TD.AperFunction*%
%TD*%
%TO.P,R2,2*%
%TO.N,/5v*%
%TA.AperFunction,SMDPad,CuDef*%
G36*
G01*
X180275000Y-95075000D02*
X179725000Y-95075000D01*
G75*
G02*
X179525000Y-94875000I0J200000D01*
G01*
X179525000Y-94475000D01*
G75*
G02*
X179725000Y-94275000I200000J0D01*
G01*
X180275000Y-94275000D01*
G75*
G02*
X180475000Y-94475000I0J-200000D01*
G01*
X180475000Y-94875000D01*
G75*
G02*
X180275000Y-95075000I-200000J0D01*
G01*
G37*
%TD.AperFunction*%
%TO.P,R2,1*%
%TO.N,/scl2*%
%TA.AperFunction,SMDPad,CuDef*%
G36*
G01*
X180275000Y-96725000D02*
X179725000Y-96725000D01*
G75*
G02*
X179525000Y-96525000I0J200000D01*
G01*
X179525000Y-96125000D01*
G75*
G02*
X179725000Y-95925000I200000J0D01*
G01*
X180275000Y-95925000D01*
G75*
G02*
X180475000Y-96125000I0J-200000D01*
G01*
X180475000Y-96525000D01*
G75*
G02*
X180275000Y-96725000I-200000J0D01*
G01*
G37*
%TD.AperFunction*%
%TD*%
%TO.P,R3,1*%
%TO.N,/brakes*%
%TA.AperFunction,SMDPad,CuDef*%
G36*
G01*
X185275000Y-96725000D02*
X184725000Y-96725000D01*
G75*
G02*
X184525000Y-96525000I0J200000D01*
G01*
X184525000Y-96125000D01*
G75*
G02*
X184725000Y-95925000I200000J0D01*
G01*
X185275000Y-95925000D01*
G75*
G02*
X185475000Y-96125000I0J-200000D01*
G01*
X185475000Y-96525000D01*
G75*
G02*
X185275000Y-96725000I-200000J0D01*
G01*
G37*
%TD.AperFunction*%
%TO.P,R3,2*%
%TO.N,/gpio1*%
%TA.AperFunction,SMDPad,CuDef*%
G36*
G01*
X185275000Y-95075000D02*
X184725000Y-95075000D01*
G75*
G02*
X184525000Y-94875000I0J200000D01*
G01*
X184525000Y-94475000D01*
G75*
G02*
X184725000Y-94275000I200000J0D01*
G01*
X185275000Y-94275000D01*
G75*
G02*
X185475000Y-94475000I0J-200000D01*
G01*
X185475000Y-94875000D01*
G75*
G02*
X185275000Y-95075000I-200000J0D01*
G01*
G37*
%TD.AperFunction*%
%TD*%
%TO.P,R4,2*%
%TO.N,/gnd*%
%TA.AperFunction,SMDPad,CuDef*%
G36*
G01*
X174725000Y-100925000D02*
X175275000Y-100925000D01*
G75*
G02*
X175475000Y-101125000I0J-200000D01*
G01*
X175475000Y-101525000D01*
G75*
G02*
X175275000Y-101725000I-200000J0D01*
G01*
X174725000Y-101725000D01*
G75*
G02*
X174525000Y-101525000I0J200000D01*
G01*
X174525000Y-101125000D01*
G75*
G02*
X174725000Y-100925000I200000J0D01*
G01*
G37*
%TD.AperFunction*%
%TO.P,R4,1*%
%TO.N,/gpio1*%
%TA.AperFunction,SMDPad,CuDef*%
G36*
G01*
X174725000Y-99275000D02*
X175275000Y-99275000D01*
G75*
G02*
X175475000Y-99475000I0J-200000D01*
G01*
X175475000Y-99875000D01*
G75*
G02*
X175275000Y-100075000I-200000J0D01*
G01*
X174725000Y-100075000D01*
G75*
G02*
X174525000Y-99875000I0J200000D01*
G01*
X174525000Y-99475000D01*
G75*
G02*
X174725000Y-99275000I200000J0D01*
G01*
G37*
%TD.AperFunction*%
%TD*%
%TO.P,R5,1*%
%TO.N,Net-(J5-Pad1)*%
%TA.AperFunction,SMDPad,CuDef*%
G36*
G01*
X179725000Y-99275000D02*
X180275000Y-99275000D01*
G75*
G02*
X180475000Y-99475000I0J-200000D01*
G01*
X180475000Y-99875000D01*
G75*
G02*
X180275000Y-100075000I-200000J0D01*
G01*
X179725000Y-100075000D01*
G75*
G02*
X179525000Y-99875000I0J200000D01*
G01*
X179525000Y-99475000D01*
G75*
G02*
X179725000Y-99275000I200000J0D01*
G01*
G37*
%TD.AperFunction*%
%TO.P,R5,2*%
%TO.N,/5v*%
%TA.AperFunction,SMDPad,CuDef*%
G36*
G01*
X179725000Y-100925000D02*
X180275000Y-100925000D01*
G75*
G02*
X180475000Y-101125000I0J-200000D01*
G01*
X180475000Y-101525000D01*
G75*
G02*
X180275000Y-101725000I-200000J0D01*
G01*
X179725000Y-101725000D01*
G75*
G02*
X179525000Y-101525000I0J200000D01*
G01*
X179525000Y-101125000D01*
G75*
G02*
X179725000Y-100925000I200000J0D01*
G01*
G37*
%TD.AperFunction*%
%TD*%
%TO.P,R6,1*%
%TO.N,/gnd*%
%TA.AperFunction,SMDPad,CuDef*%
G36*
G01*
X184725000Y-99275000D02*
X185275000Y-99275000D01*
G75*
G02*
X185475000Y-99475000I0J-200000D01*
G01*
X185475000Y-99875000D01*
G75*
G02*
X185275000Y-100075000I-200000J0D01*
G01*
X184725000Y-100075000D01*
G75*
G02*
X184525000Y-99875000I0J200000D01*
G01*
X184525000Y-99475000D01*
G75*
G02*
X184725000Y-99275000I200000J0D01*
G01*
G37*
%TD.AperFunction*%
%TO.P,R6,2*%
%TO.N,Net-(J5-Pad3)*%
%TA.AperFunction,SMDPad,CuDef*%
G36*
G01*
X184725000Y-100925000D02*
X185275000Y-100925000D01*
G75*
G02*
X185475000Y-101125000I0J-200000D01*
G01*
X185475000Y-101525000D01*
G75*
G02*
X185275000Y-101725000I-200000J0D01*
G01*
X184725000Y-101725000D01*
G75*
G02*
X184525000Y-101525000I0J200000D01*
G01*
X184525000Y-101125000D01*
G75*
G02*
X184725000Y-100925000I200000J0D01*
G01*
G37*
%TD.AperFunction*%
%TD*%
%TO.P,R7,1*%
%TO.N,/vcc*%
%TA.AperFunction,SMDPad,CuDef*%
G36*
G01*
X190275000Y-99225000D02*
X189725000Y-99225000D01*
G75*
G02*
X189525000Y-99025000I0J200000D01*
G01*
X189525000Y-98625000D01*
G75*
G02*
X189725000Y-98425000I200000J0D01*
G01*
X190275000Y-98425000D01*
G75*
G02*
X190475000Y-98625000I0J-200000D01*
G01*
X190475000Y-99025000D01*
G75*
G02*
X190275000Y-99225000I-200000J0D01*
G01*
G37*
%TD.AperFunction*%
%TO.P,R7,2*%
%TO.N,Net-(D1-Pad2)*%
%TA.AperFunction,SMDPad,CuDef*%
G36*
G01*
X190275000Y-97575000D02*
X189725000Y-97575000D01*
G75*
G02*
X189525000Y-97375000I0J200000D01*
G01*
X189525000Y-96975000D01*
G75*
G02*
X189725000Y-96775000I200000J0D01*
G01*
X190275000Y-96775000D01*
G75*
G02*
X190475000Y-96975000I0J-200000D01*
G01*
X190475000Y-97375000D01*
G75*
G02*
X190275000Y-97575000I-200000J0D01*
G01*
G37*
%TD.AperFunction*%
%TD*%
D13*
%TO.P,U1,1*%
%TO.N,/gnd*%
X225140000Y-77510000D03*
D14*
%TO.P,U1,2*%
%TO.N,/gpio6*%
X227680000Y-77510000D03*
%TO.P,U1,3*%
%TO.N,/gpio5*%
X230220000Y-77510000D03*
%TO.P,U1,4*%
%TO.N,/gpio7*%
X232760000Y-77510000D03*
%TO.P,U1,5*%
%TO.N,/gpio8*%
X235300000Y-77510000D03*
%TO.P,U1,6*%
%TO.N,/gnd*%
X235300000Y-72430000D03*
%TO.P,U1,7*%
%TO.N,/gpio4*%
X232760000Y-72430000D03*
%TO.P,U1,8*%
%TO.N,/gpio9*%
X230220000Y-72430000D03*
%TO.P,U1,9*%
%TO.N,/gpio10*%
X227680000Y-72430000D03*
%TO.P,U1,10*%
%TO.N,/gpio11*%
X225140000Y-72430000D03*
%TD*%
D15*
%TO.P,VR1,1*%
%TO.N,/gnd*%
X216655000Y-95700000D03*
%TO.P,VR1,2*%
%TO.N,/5v*%
X216655000Y-98000000D03*
%TO.P,VR1,3*%
%TO.N,/vcc*%
X216655000Y-100300000D03*
D16*
%TO.P,VR1,4*%
%TO.N,/5v*%
X222825000Y-98000000D03*
%TD*%
D17*
%TO.N,/gnd*%
X175000000Y-102610000D03*
X185000000Y-98464000D03*
X215069000Y-95700000D03*
X230632000Y-98044000D03*
X234061000Y-121666000D03*
%TO.N,/5v*%
X216863500Y-99128500D03*
%TO.N,/gpio7*%
X200779600Y-76382000D03*
%TO.N,/sclk*%
X212106800Y-81633100D03*
%TD*%
D18*
%TO.N,/vcc*%
X213500000Y-98775000D02*
X215025000Y-100300000D01*
X215025000Y-100300000D02*
X216655000Y-100300000D01*
X239500000Y-111970000D02*
X242040000Y-111970000D01*
X219062000Y-121550000D02*
X220770000Y-123258000D01*
X220770000Y-123258000D02*
X228212000Y-123258000D01*
X228212000Y-123258000D02*
X239500000Y-111970000D01*
X212062000Y-121550000D02*
X213770000Y-119842000D01*
X213770000Y-119842000D02*
X217354000Y-119842000D01*
X217354000Y-119842000D02*
X219062000Y-121550000D01*
%TO.N,/gnd*%
X234061500Y-123499000D02*
X234062000Y-123500000D01*
X234061000Y-121666000D02*
X234061000Y-123498000D01*
X234061000Y-123498000D02*
X234061500Y-123499000D01*
D19*
X234061500Y-123499000D02*
X234062500Y-123500000D01*
D18*
X175000000Y-101325000D02*
X175000000Y-102610000D01*
X185000000Y-99675000D02*
X185000000Y-98464000D01*
X215069000Y-95700000D02*
X216655000Y-95700000D01*
X213500000Y-97225000D02*
X215025000Y-95700000D01*
X215025000Y-95700000D02*
X215069000Y-95700000D01*
X230632000Y-98044000D02*
X228784000Y-98044000D01*
X228784000Y-98044000D02*
X228740000Y-98000000D01*
X227275000Y-94500000D02*
X227275000Y-96535000D01*
X227275000Y-96535000D02*
X228740000Y-98000000D01*
X227275000Y-101500000D02*
X227275000Y-99465000D01*
X227275000Y-99465000D02*
X228740000Y-98000000D01*
D19*
%TO.N,/5v*%
X225725000Y-97759900D02*
X225799900Y-97759900D01*
X225799900Y-97759900D02*
X226040000Y-98000000D01*
X222825000Y-97759900D02*
X225725000Y-97759900D01*
X225725000Y-97759900D02*
X225725000Y-94500000D01*
X222825000Y-97759900D02*
X222825000Y-97519900D01*
X222825000Y-98000000D02*
X222825000Y-97759900D01*
X222825000Y-97519900D02*
X217343600Y-97519900D01*
X217343600Y-97519900D02*
X216863500Y-98000000D01*
X216655000Y-98000000D02*
X216863500Y-98000000D01*
X216863500Y-99128500D02*
X216863500Y-98000000D01*
X179196500Y-98839900D02*
X179196500Y-100521500D01*
X179196500Y-100521500D02*
X180000000Y-101325000D01*
X180000000Y-94675000D02*
X180840000Y-95515000D01*
X180840000Y-95515000D02*
X180840000Y-97196400D01*
X180840000Y-97196400D02*
X179196500Y-98839900D01*
X179196500Y-98839900D02*
X177514900Y-98839900D01*
X177514900Y-98839900D02*
X175000000Y-96325000D01*
X165540000Y-89110000D02*
X174435000Y-89110000D01*
X174435000Y-89110000D02*
X180000000Y-94675000D01*
X183614000Y-121292000D02*
X183614000Y-104939000D01*
X183614000Y-104939000D02*
X180000000Y-101325000D01*
X226040000Y-98000000D02*
X226040000Y-101185000D01*
X226040000Y-101185000D02*
X225725000Y-101500000D01*
%TO.N,Net-(D1-Pad2)*%
X190000000Y-97175000D02*
X209180400Y-116355400D01*
X209180400Y-116355400D02*
X209180400Y-120575300D01*
X209180400Y-120575300D02*
X213143000Y-124537900D01*
X213143000Y-124537900D02*
X234899600Y-124537900D01*
X234899600Y-124537900D02*
X235937500Y-123500000D01*
%TO.N,/sda2*%
X163000000Y-89110000D02*
X164175300Y-89110000D01*
X175000000Y-94675000D02*
X170610300Y-90285300D01*
X170610300Y-90285300D02*
X164983200Y-90285300D01*
X164983200Y-90285300D02*
X164175300Y-89477400D01*
X164175300Y-89477400D02*
X164175300Y-89110000D01*
%TO.N,/scl2*%
X163000000Y-91650000D02*
X164175300Y-91650000D01*
X180000000Y-96325000D02*
X179175000Y-95500000D01*
X179175000Y-95500000D02*
X170359900Y-95500000D01*
X170359900Y-95500000D02*
X167685200Y-92825300D01*
X167685200Y-92825300D02*
X164983200Y-92825300D01*
X164983200Y-92825300D02*
X164175300Y-92017400D01*
X164175300Y-92017400D02*
X164175300Y-91650000D01*
%TO.N,/gpio1*%
X175990000Y-74770000D02*
X175990000Y-85665000D01*
X175990000Y-85665000D02*
X185000000Y-94675000D01*
X163000000Y-95365300D02*
X163367400Y-95365300D01*
X163367400Y-95365300D02*
X164175300Y-96173200D01*
X164175300Y-96173200D02*
X164175300Y-97066300D01*
X164175300Y-97066300D02*
X165014400Y-97905400D01*
X165014400Y-97905400D02*
X173230400Y-97905400D01*
X173230400Y-97905400D02*
X175000000Y-99675000D01*
X163000000Y-94190000D02*
X163000000Y-95365300D01*
%TO.N,/gpio11*%
X183610000Y-74770000D02*
X184785300Y-74770000D01*
X225140000Y-72430000D02*
X223975300Y-73594700D01*
X223975300Y-73594700D02*
X185593200Y-73594700D01*
X185593200Y-73594700D02*
X184785300Y-74402600D01*
X184785300Y-74402600D02*
X184785300Y-74770000D01*
%TO.N,/gpio6*%
X186150000Y-74770000D02*
X187325300Y-74770000D01*
X227680000Y-77510000D02*
X226546400Y-78643600D01*
X226546400Y-78643600D02*
X190831600Y-78643600D01*
X190831600Y-78643600D02*
X187325300Y-75137300D01*
X187325300Y-75137300D02*
X187325300Y-74770000D01*
%TO.N,/gpio7*%
X232760000Y-77510000D02*
X231632000Y-76382000D01*
X231632000Y-76382000D02*
X200779600Y-76382000D01*
%TO.N,/gpio8*%
X188690000Y-72230000D02*
X189865300Y-72230000D01*
X235300000Y-77510000D02*
X234030000Y-76240000D01*
X234030000Y-76240000D02*
X234030000Y-72056700D01*
X234030000Y-72056700D02*
X232509000Y-70535700D01*
X232509000Y-70535700D02*
X191192300Y-70535700D01*
X191192300Y-70535700D02*
X189865300Y-71862700D01*
X189865300Y-71862700D02*
X189865300Y-72230000D01*
%TO.N,/gpio4*%
X206470000Y-72230000D02*
X207645300Y-72230000D01*
X232760000Y-72430000D02*
X231367700Y-71037700D01*
X231367700Y-71037700D02*
X208472300Y-71037700D01*
X208472300Y-71037700D02*
X207645300Y-71864700D01*
X207645300Y-71864700D02*
X207645300Y-72230000D01*
%TO.N,/brakes*%
X185000000Y-96325000D02*
X204614000Y-115939000D01*
X204614000Y-115939000D02*
X204614000Y-121292000D01*
%TO.N,Net-(J5-Pad1)*%
X180000000Y-99675000D02*
X187000000Y-106675000D01*
X187000000Y-106675000D02*
X187000000Y-109000000D01*
%TO.N,Net-(J5-Pad3)*%
X192080000Y-109000000D02*
X192080000Y-107824700D01*
X185000000Y-101325000D02*
X191499700Y-107824700D01*
X191499700Y-107824700D02*
X192080000Y-107824700D01*
%TD*%
D20*
%TO.N,/vcc*%
X189600690Y-71052509D02*
X189393411Y-70914010D01*
X189123158Y-70802068D01*
X188836260Y-70745000D01*
X188543740Y-70745000D01*
X188256842Y-70802068D01*
X187986589Y-70914010D01*
X187743368Y-71076525D01*
X187536525Y-71283368D01*
X187420000Y-71457760D01*
X187303475Y-71283368D01*
X187096632Y-71076525D01*
X186853411Y-70914010D01*
X186583158Y-70802068D01*
X186296260Y-70745000D01*
X186003740Y-70745000D01*
X185716842Y-70802068D01*
X185446589Y-70914010D01*
X185203368Y-71076525D01*
X184996525Y-71283368D01*
X184880000Y-71457760D01*
X184763475Y-71283368D01*
X184556632Y-71076525D01*
X184313411Y-70914010D01*
X184043158Y-70802068D01*
X183756260Y-70745000D01*
X183463740Y-70745000D01*
X183176842Y-70802068D01*
X182906589Y-70914010D01*
X182663368Y-71076525D01*
X182456525Y-71283368D01*
X182340000Y-71457760D01*
X182223475Y-71283368D01*
X182016632Y-71076525D01*
X181773411Y-70914010D01*
X181503158Y-70802068D01*
X181216260Y-70745000D01*
X180923740Y-70745000D01*
X180636842Y-70802068D01*
X180366589Y-70914010D01*
X180123368Y-71076525D01*
X179916525Y-71283368D01*
X179800000Y-71457760D01*
X179683475Y-71283368D01*
X179476632Y-71076525D01*
X179233411Y-70914010D01*
X178963158Y-70802068D01*
X178676260Y-70745000D01*
X178383740Y-70745000D01*
X178096842Y-70802068D01*
X177826589Y-70914010D01*
X177583368Y-71076525D01*
X177376525Y-71283368D01*
X177260000Y-71457760D01*
X177143475Y-71283368D01*
X176936632Y-71076525D01*
X176693411Y-70914010D01*
X176423158Y-70802068D01*
X176136260Y-70745000D01*
X175843740Y-70745000D01*
X175556842Y-70802068D01*
X175286589Y-70914010D01*
X175043368Y-71076525D01*
X174836525Y-71283368D01*
X174720000Y-71457760D01*
X174603475Y-71283368D01*
X174396632Y-71076525D01*
X174153411Y-70914010D01*
X173883158Y-70802068D01*
X173596260Y-70745000D01*
X173303740Y-70745000D01*
X173016842Y-70802068D01*
X172746589Y-70914010D01*
X172503368Y-71076525D01*
X172296525Y-71283368D01*
X172180000Y-71457760D01*
X172063475Y-71283368D01*
X171856632Y-71076525D01*
X171613411Y-70914010D01*
X171343158Y-70802068D01*
X171056260Y-70745000D01*
X170763740Y-70745000D01*
X170476842Y-70802068D01*
X170206589Y-70914010D01*
X169963368Y-71076525D01*
X169756525Y-71283368D01*
X169640000Y-71457760D01*
X169523475Y-71283368D01*
X169316632Y-71076525D01*
X169073411Y-70914010D01*
X168803158Y-70802068D01*
X168516260Y-70745000D01*
X168223740Y-70745000D01*
X167936842Y-70802068D01*
X167666589Y-70914010D01*
X167423368Y-71076525D01*
X167216525Y-71283368D01*
X167054010Y-71526589D01*
X166942068Y-71796842D01*
X166885000Y-72083740D01*
X166885000Y-72376260D01*
X166942068Y-72663158D01*
X167054010Y-72933411D01*
X167216525Y-73176632D01*
X167348380Y-73308487D01*
X167275820Y-73330498D01*
X167165506Y-73389463D01*
X167068815Y-73468815D01*
X166989463Y-73565506D01*
X166930498Y-73675820D01*
X166894188Y-73795518D01*
X166881928Y-73920000D01*
X166881928Y-75620000D01*
X166894188Y-75744482D01*
X166930498Y-75864180D01*
X166989463Y-75974494D01*
X167068815Y-76071185D01*
X167165506Y-76150537D01*
X167275820Y-76209502D01*
X167395518Y-76245812D01*
X167520000Y-76258072D01*
X169220000Y-76258072D01*
X169344482Y-76245812D01*
X169464180Y-76209502D01*
X169574494Y-76150537D01*
X169671185Y-76071185D01*
X169750537Y-75974494D01*
X169809502Y-75864180D01*
X169831513Y-75791620D01*
X169963368Y-75923475D01*
X170206589Y-76085990D01*
X170476842Y-76197932D01*
X170763740Y-76255000D01*
X171056260Y-76255000D01*
X171343158Y-76197932D01*
X171613411Y-76085990D01*
X171856632Y-75923475D01*
X172063475Y-75716632D01*
X172180000Y-75542240D01*
X172296525Y-75716632D01*
X172503368Y-75923475D01*
X172746589Y-76085990D01*
X173016842Y-76197932D01*
X173303740Y-76255000D01*
X173596260Y-76255000D01*
X173883158Y-76197932D01*
X174153411Y-76085990D01*
X174396632Y-75923475D01*
X174603475Y-75716632D01*
X174720000Y-75542240D01*
X174836525Y-75716632D01*
X175043368Y-75923475D01*
X175230000Y-76048179D01*
X175230001Y-85627668D01*
X175226324Y-85665000D01*
X175240998Y-85813985D01*
X175284454Y-85957246D01*
X175355026Y-86089276D01*
X175394063Y-86136842D01*
X175450000Y-86205001D01*
X175478998Y-86228799D01*
X183886928Y-94636730D01*
X183886928Y-94875000D01*
X183903031Y-95038500D01*
X183950722Y-95195716D01*
X184028169Y-95340608D01*
X184132394Y-95467606D01*
X184171866Y-95500000D01*
X184132394Y-95532394D01*
X184028169Y-95659392D01*
X183950722Y-95804284D01*
X183903031Y-95961500D01*
X183886928Y-96125000D01*
X183886928Y-96525000D01*
X183903031Y-96688500D01*
X183950722Y-96845716D01*
X184028169Y-96990608D01*
X184132394Y-97117606D01*
X184259392Y-97221831D01*
X184404284Y-97299278D01*
X184561500Y-97346969D01*
X184699909Y-97360601D01*
X184560478Y-97402897D01*
X184361912Y-97509032D01*
X184187868Y-97651867D01*
X184045033Y-97825911D01*
X183938897Y-98024477D01*
X183873539Y-98239933D01*
X183857000Y-98407854D01*
X183857000Y-99731145D01*
X183873539Y-99899066D01*
X183896875Y-99975994D01*
X183903031Y-100038500D01*
X183950722Y-100195716D01*
X184028169Y-100340608D01*
X184132394Y-100467606D01*
X184171866Y-100500000D01*
X184132394Y-100532394D01*
X184028169Y-100659392D01*
X183950722Y-100804284D01*
X183903031Y-100961500D01*
X183886928Y-101125000D01*
X183886928Y-101525000D01*
X183903031Y-101688500D01*
X183950722Y-101845716D01*
X184028169Y-101990608D01*
X184132394Y-102117606D01*
X184259392Y-102221831D01*
X184404284Y-102299278D01*
X184561500Y-102346969D01*
X184725000Y-102363072D01*
X184963271Y-102363072D01*
X190366360Y-107766162D01*
X190243411Y-107684010D01*
X189973158Y-107572068D01*
X189686260Y-107515000D01*
X189393740Y-107515000D01*
X189106842Y-107572068D01*
X188836589Y-107684010D01*
X188593368Y-107846525D01*
X188461513Y-107978380D01*
X188439502Y-107905820D01*
X188380537Y-107795506D01*
X188301185Y-107698815D01*
X188204494Y-107619463D01*
X188094180Y-107560498D01*
X187974482Y-107524188D01*
X187850000Y-107511928D01*
X187760000Y-107511928D01*
X187760000Y-106712323D01*
X187763676Y-106675000D01*
X187760000Y-106637677D01*
X187760000Y-106637667D01*
X187749003Y-106526014D01*
X187705546Y-106382753D01*
X187634975Y-106250725D01*
X187634974Y-106250723D01*
X187563799Y-106163997D01*
X187540001Y-106134999D01*
X187511004Y-106111202D01*
X181113072Y-99713271D01*
X181113072Y-99475000D01*
X181096969Y-99311500D01*
X181049278Y-99154284D01*
X180971831Y-99009392D01*
X180867606Y-98882394D01*
X180740608Y-98778169D01*
X180595716Y-98700722D01*
X180453592Y-98657609D01*
X181351003Y-97760199D01*
X181380001Y-97736401D01*
X181418081Y-97690000D01*
X181474974Y-97620677D01*
X181545546Y-97488647D01*
X181557552Y-97449067D01*
X181589003Y-97345386D01*
X181600000Y-97233733D01*
X181600000Y-97233723D01*
X181603676Y-97196400D01*
X181600000Y-97159078D01*
X181600000Y-95552322D01*
X181603676Y-95514999D01*
X181600000Y-95477676D01*
X181600000Y-95477667D01*
X181589003Y-95366014D01*
X181545546Y-95222753D01*
X181474974Y-95090724D01*
X181451328Y-95061911D01*
X181403799Y-95003996D01*
X181403795Y-95003992D01*
X181380001Y-94974999D01*
X181351009Y-94951206D01*
X181113072Y-94713270D01*
X181113072Y-94475000D01*
X181096969Y-94311500D01*
X181049278Y-94154284D01*
X180971831Y-94009392D01*
X180867606Y-93882394D01*
X180740608Y-93778169D01*
X180595716Y-93700722D01*
X180438500Y-93653031D01*
X180275000Y-93636928D01*
X180036731Y-93636928D01*
X174998804Y-88599003D01*
X174975001Y-88569999D01*
X174859276Y-88475026D01*
X174727247Y-88404454D01*
X174583986Y-88360997D01*
X174472333Y-88350000D01*
X174472322Y-88350000D01*
X174435000Y-88346324D01*
X174397678Y-88350000D01*
X166818178Y-88350000D01*
X166693475Y-88163368D01*
X166486632Y-87956525D01*
X166312240Y-87840000D01*
X166486632Y-87723475D01*
X166693475Y-87516632D01*
X166855990Y-87273411D01*
X166967932Y-87003158D01*
X167025000Y-86716260D01*
X167025000Y-86423740D01*
X166967932Y-86136842D01*
X166855990Y-85866589D01*
X166693475Y-85623368D01*
X166486632Y-85416525D01*
X166243411Y-85254010D01*
X165973158Y-85142068D01*
X165686260Y-85085000D01*
X165393740Y-85085000D01*
X165106842Y-85142068D01*
X164836589Y-85254010D01*
X164593368Y-85416525D01*
X164461513Y-85548380D01*
X164439502Y-85475820D01*
X164380537Y-85365506D01*
X164301185Y-85268815D01*
X164204494Y-85189463D01*
X164094180Y-85130498D01*
X163974482Y-85094188D01*
X163850000Y-85081928D01*
X162150000Y-85081928D01*
X162025518Y-85094188D01*
X161905820Y-85130498D01*
X161795506Y-85189463D01*
X161698815Y-85268815D01*
X161619463Y-85365506D01*
X161560498Y-85475820D01*
X161524188Y-85595518D01*
X161511928Y-85720000D01*
X161511928Y-87420000D01*
X161524188Y-87544482D01*
X161560498Y-87664180D01*
X161619463Y-87774494D01*
X161698815Y-87871185D01*
X161795506Y-87950537D01*
X161905820Y-88009502D01*
X161978380Y-88031513D01*
X161846525Y-88163368D01*
X161684010Y-88406589D01*
X161572068Y-88676842D01*
X161515000Y-88963740D01*
X161515000Y-89256260D01*
X161572068Y-89543158D01*
X161684010Y-89813411D01*
X161846525Y-90056632D01*
X162053368Y-90263475D01*
X162227760Y-90380000D01*
X162053368Y-90496525D01*
X161846525Y-90703368D01*
X161684010Y-90946589D01*
X161572068Y-91216842D01*
X161515000Y-91503740D01*
X161515000Y-91796260D01*
X161572068Y-92083158D01*
X161684010Y-92353411D01*
X161846525Y-92596632D01*
X162053368Y-92803475D01*
X162227760Y-92920000D01*
X162053368Y-93036525D01*
X161846525Y-93243368D01*
X161684010Y-93486589D01*
X161572068Y-93756842D01*
X161515000Y-94043740D01*
X161515000Y-94336260D01*
X161572068Y-94623158D01*
X161684010Y-94893411D01*
X161846525Y-95136632D01*
X162053368Y-95343475D01*
X162227760Y-95460000D01*
X162053368Y-95576525D01*
X161846525Y-95783368D01*
X161684010Y-96026589D01*
X161572068Y-96296842D01*
X161515000Y-96583740D01*
X161515000Y-96876260D01*
X161572068Y-97163158D01*
X161684010Y-97433411D01*
X161846525Y-97676632D01*
X162053368Y-97883475D01*
X162227760Y-98000000D01*
X162053368Y-98116525D01*
X161846525Y-98323368D01*
X161684010Y-98566589D01*
X161572068Y-98836842D01*
X161515000Y-99123740D01*
X161515000Y-99416260D01*
X161572068Y-99703158D01*
X161684010Y-99973411D01*
X161846525Y-100216632D01*
X162053368Y-100423475D01*
X162227760Y-100540000D01*
X162053368Y-100656525D01*
X161846525Y-100863368D01*
X161684010Y-101106589D01*
X161572068Y-101376842D01*
X161515000Y-101663740D01*
X161515000Y-101956260D01*
X161572068Y-102243158D01*
X161684010Y-102513411D01*
X161846525Y-102756632D01*
X162053368Y-102963475D01*
X162227760Y-103080000D01*
X162053368Y-103196525D01*
X161846525Y-103403368D01*
X161684010Y-103646589D01*
X161572068Y-103916842D01*
X161515000Y-104203740D01*
X161515000Y-104496260D01*
X161572068Y-104783158D01*
X161684010Y-105053411D01*
X161846525Y-105296632D01*
X162053368Y-105503475D01*
X162227760Y-105620000D01*
X162053368Y-105736525D01*
X161846525Y-105943368D01*
X161684010Y-106186589D01*
X161572068Y-106456842D01*
X161515000Y-106743740D01*
X161515000Y-107036260D01*
X161572068Y-107323158D01*
X161684010Y-107593411D01*
X161846525Y-107836632D01*
X162053368Y-108043475D01*
X162227760Y-108160000D01*
X162053368Y-108276525D01*
X161846525Y-108483368D01*
X161684010Y-108726589D01*
X161572068Y-108996842D01*
X161515000Y-109283740D01*
X161515000Y-109576260D01*
X161572068Y-109863158D01*
X161684010Y-110133411D01*
X161846525Y-110376632D01*
X162053368Y-110583475D01*
X162296589Y-110745990D01*
X162566842Y-110857932D01*
X162853740Y-110915000D01*
X163146260Y-110915000D01*
X163433158Y-110857932D01*
X163703411Y-110745990D01*
X163946632Y-110583475D01*
X164153475Y-110376632D01*
X164270000Y-110202240D01*
X164386525Y-110376632D01*
X164593368Y-110583475D01*
X164836589Y-110745990D01*
X165106842Y-110857932D01*
X165393740Y-110915000D01*
X165686260Y-110915000D01*
X165973158Y-110857932D01*
X166243411Y-110745990D01*
X166486632Y-110583475D01*
X166693475Y-110376632D01*
X166855990Y-110133411D01*
X166967932Y-109863158D01*
X167025000Y-109576260D01*
X167025000Y-109283740D01*
X166967932Y-108996842D01*
X166855990Y-108726589D01*
X166693475Y-108483368D01*
X166486632Y-108276525D01*
X166312240Y-108160000D01*
X166486632Y-108043475D01*
X166693475Y-107836632D01*
X166855990Y-107593411D01*
X166967932Y-107323158D01*
X167025000Y-107036260D01*
X167025000Y-106743740D01*
X166967932Y-106456842D01*
X166855990Y-106186589D01*
X166693475Y-105943368D01*
X166486632Y-105736525D01*
X166312240Y-105620000D01*
X166486632Y-105503475D01*
X166693475Y-105296632D01*
X166855990Y-105053411D01*
X166967932Y-104783158D01*
X167025000Y-104496260D01*
X167025000Y-104203740D01*
X166967932Y-103916842D01*
X166855990Y-103646589D01*
X166693475Y-103403368D01*
X166486632Y-103196525D01*
X166312240Y-103080000D01*
X166486632Y-102963475D01*
X166693475Y-102756632D01*
X166855990Y-102513411D01*
X166967932Y-102243158D01*
X167025000Y-101956260D01*
X167025000Y-101663740D01*
X166967932Y-101376842D01*
X166855990Y-101106589D01*
X166693475Y-100863368D01*
X166486632Y-100656525D01*
X166312240Y-100540000D01*
X166486632Y-100423475D01*
X166693475Y-100216632D01*
X166855990Y-99973411D01*
X166967932Y-99703158D01*
X167025000Y-99416260D01*
X167025000Y-99123740D01*
X166967932Y-98836842D01*
X166896919Y-98665400D01*
X172915599Y-98665400D01*
X173886928Y-99636730D01*
X173886928Y-99875000D01*
X173903031Y-100038500D01*
X173950722Y-100195716D01*
X174028169Y-100340608D01*
X174132394Y-100467606D01*
X174171866Y-100500000D01*
X174132394Y-100532394D01*
X174028169Y-100659392D01*
X173950722Y-100804284D01*
X173903031Y-100961500D01*
X173896875Y-101024006D01*
X173873539Y-101100934D01*
X173857000Y-101268855D01*
X173857000Y-102666146D01*
X173873539Y-102834067D01*
X173938897Y-103049523D01*
X174045033Y-103248089D01*
X174187868Y-103422133D01*
X174361912Y-103564968D01*
X174560478Y-103671103D01*
X174775934Y-103736461D01*
X175000000Y-103758530D01*
X175224067Y-103736461D01*
X175439523Y-103671103D01*
X175638089Y-103564968D01*
X175812133Y-103422133D01*
X175954968Y-103248089D01*
X176061103Y-103049523D01*
X176126461Y-102834067D01*
X176143000Y-102666146D01*
X176143000Y-101268854D01*
X176126461Y-101100933D01*
X176103125Y-101024005D01*
X176096969Y-100961500D01*
X176049278Y-100804284D01*
X175971831Y-100659392D01*
X175867606Y-100532394D01*
X175828134Y-100500000D01*
X175867606Y-100467606D01*
X175971831Y-100340608D01*
X176049278Y-100195716D01*
X176096969Y-100038500D01*
X176113072Y-99875000D01*
X176113072Y-99475000D01*
X176096969Y-99311500D01*
X176049278Y-99154284D01*
X175971831Y-99009392D01*
X175867606Y-98882394D01*
X175740608Y-98778169D01*
X175595716Y-98700722D01*
X175438500Y-98653031D01*
X175275000Y-98636928D01*
X175036730Y-98636928D01*
X173794204Y-97394403D01*
X173770401Y-97365399D01*
X173654676Y-97270426D01*
X173522647Y-97199854D01*
X173379386Y-97156397D01*
X173267733Y-97145400D01*
X173267722Y-97145400D01*
X173230400Y-97141724D01*
X173193078Y-97145400D01*
X166971464Y-97145400D01*
X167025000Y-96876260D01*
X167025000Y-96583740D01*
X166967932Y-96296842D01*
X166855990Y-96026589D01*
X166693475Y-95783368D01*
X166486632Y-95576525D01*
X166312240Y-95460000D01*
X166486632Y-95343475D01*
X166693475Y-95136632D01*
X166855990Y-94893411D01*
X166967932Y-94623158D01*
X167025000Y-94336260D01*
X167025000Y-94043740D01*
X166967932Y-93756842D01*
X166896877Y-93585300D01*
X167370399Y-93585300D01*
X169796100Y-96011002D01*
X169819899Y-96040001D01*
X169848897Y-96063799D01*
X169935623Y-96134974D01*
X170012401Y-96176013D01*
X170067653Y-96205546D01*
X170210914Y-96249003D01*
X170322567Y-96260000D01*
X170322577Y-96260000D01*
X170359899Y-96263676D01*
X170397222Y-96260000D01*
X173886928Y-96260000D01*
X173886928Y-96525000D01*
X173903031Y-96688500D01*
X173950722Y-96845716D01*
X174028169Y-96990608D01*
X174132394Y-97117606D01*
X174259392Y-97221831D01*
X174404284Y-97299278D01*
X174561500Y-97346969D01*
X174725000Y-97363072D01*
X174963271Y-97363072D01*
X176951101Y-99350903D01*
X176974899Y-99379901D01*
X177090624Y-99474874D01*
X177222653Y-99545446D01*
X177365914Y-99588903D01*
X177477567Y-99599900D01*
X177477575Y-99599900D01*
X177514900Y-99603576D01*
X177552225Y-99599900D01*
X178436500Y-99599900D01*
X178436501Y-100484168D01*
X178432824Y-100521500D01*
X178436501Y-100558833D01*
X178447498Y-100670486D01*
X178455824Y-100697932D01*
X178490954Y-100813746D01*
X178561526Y-100945776D01*
X178613561Y-101009180D01*
X178656500Y-101061501D01*
X178685498Y-101085299D01*
X178886928Y-101286729D01*
X178886928Y-101525000D01*
X178903031Y-101688500D01*
X178950722Y-101845716D01*
X179028169Y-101990608D01*
X179132394Y-102117606D01*
X179259392Y-102221831D01*
X179404284Y-102299278D01*
X179561500Y-102346969D01*
X179725000Y-102363072D01*
X179963271Y-102363072D01*
X182854001Y-105253803D01*
X182854000Y-119837091D01*
X182839537Y-119843082D01*
X182571748Y-120022013D01*
X182344013Y-120249748D01*
X182165082Y-120517537D01*
X182041832Y-120815088D01*
X181979000Y-121130967D01*
X181979000Y-121453033D01*
X182041832Y-121768912D01*
X182165082Y-122066463D01*
X182344013Y-122334252D01*
X182571748Y-122561987D01*
X182839537Y-122740918D01*
X183137088Y-122864168D01*
X183452967Y-122927000D01*
X183775033Y-122927000D01*
X184090912Y-122864168D01*
X184388463Y-122740918D01*
X184656252Y-122561987D01*
X184883987Y-122334252D01*
X185062918Y-122066463D01*
X185186168Y-121768912D01*
X185249000Y-121453033D01*
X185249000Y-121130967D01*
X188979000Y-121130967D01*
X188979000Y-121453033D01*
X189041832Y-121768912D01*
X189165082Y-122066463D01*
X189344013Y-122334252D01*
X189571748Y-122561987D01*
X189839537Y-122740918D01*
X190137088Y-122864168D01*
X190452967Y-122927000D01*
X190775033Y-122927000D01*
X191090912Y-122864168D01*
X191388463Y-122740918D01*
X191656252Y-122561987D01*
X191883987Y-122334252D01*
X192062918Y-122066463D01*
X192186168Y-121768912D01*
X192249000Y-121453033D01*
X192249000Y-121130967D01*
X195979000Y-121130967D01*
X195979000Y-121453033D01*
X196041832Y-121768912D01*
X196165082Y-122066463D01*
X196344013Y-122334252D01*
X196571748Y-122561987D01*
X196839537Y-122740918D01*
X197137088Y-122864168D01*
X197452967Y-122927000D01*
X197775033Y-122927000D01*
X198090912Y-122864168D01*
X198388463Y-122740918D01*
X198656252Y-122561987D01*
X198883987Y-122334252D01*
X199062918Y-122066463D01*
X199186168Y-121768912D01*
X199249000Y-121453033D01*
X199249000Y-121130967D01*
X199186168Y-120815088D01*
X199062918Y-120517537D01*
X198883987Y-120249748D01*
X198656252Y-120022013D01*
X198388463Y-119843082D01*
X198090912Y-119719832D01*
X197775033Y-119657000D01*
X197452967Y-119657000D01*
X197137088Y-119719832D01*
X196839537Y-119843082D01*
X196571748Y-120022013D01*
X196344013Y-120249748D01*
X196165082Y-120517537D01*
X196041832Y-120815088D01*
X195979000Y-121130967D01*
X192249000Y-121130967D01*
X192186168Y-120815088D01*
X192062918Y-120517537D01*
X191883987Y-120249748D01*
X191656252Y-120022013D01*
X191388463Y-119843082D01*
X191090912Y-119719832D01*
X190775033Y-119657000D01*
X190452967Y-119657000D01*
X190137088Y-119719832D01*
X189839537Y-119843082D01*
X189571748Y-120022013D01*
X189344013Y-120249748D01*
X189165082Y-120517537D01*
X189041832Y-120815088D01*
X188979000Y-121130967D01*
X185249000Y-121130967D01*
X185186168Y-120815088D01*
X185062918Y-120517537D01*
X184883987Y-120249748D01*
X184656252Y-120022013D01*
X184388463Y-119843082D01*
X184374000Y-119837091D01*
X184374000Y-116880967D01*
X185479000Y-116880967D01*
X185479000Y-117203033D01*
X185541832Y-117518912D01*
X185665082Y-117816463D01*
X185844013Y-118084252D01*
X186071748Y-118311987D01*
X186339537Y-118490918D01*
X186637088Y-118614168D01*
X186952967Y-118677000D01*
X187275033Y-118677000D01*
X187590912Y-118614168D01*
X187888463Y-118490918D01*
X188156252Y-118311987D01*
X188383987Y-118084252D01*
X188562918Y-117816463D01*
X188686168Y-117518912D01*
X188749000Y-117203033D01*
X188749000Y-116880967D01*
X192479000Y-116880967D01*
X192479000Y-117203033D01*
X192541832Y-117518912D01*
X192665082Y-117816463D01*
X192844013Y-118084252D01*
X193071748Y-118311987D01*
X193339537Y-118490918D01*
X193637088Y-118614168D01*
X193952967Y-118677000D01*
X194275033Y-118677000D01*
X194590912Y-118614168D01*
X194888463Y-118490918D01*
X195156252Y-118311987D01*
X195383987Y-118084252D01*
X195562918Y-117816463D01*
X195686168Y-117518912D01*
X195749000Y-117203033D01*
X195749000Y-116880967D01*
X199479000Y-116880967D01*
X199479000Y-117203033D01*
X199541832Y-117518912D01*
X199665082Y-117816463D01*
X199844013Y-118084252D01*
X200071748Y-118311987D01*
X200339537Y-118490918D01*
X200637088Y-118614168D01*
X200952967Y-118677000D01*
X201275033Y-118677000D01*
X201590912Y-118614168D01*
X201888463Y-118490918D01*
X202156252Y-118311987D01*
X202383987Y-118084252D01*
X202562918Y-117816463D01*
X202686168Y-117518912D01*
X202749000Y-117203033D01*
X202749000Y-116880967D01*
X202686168Y-116565088D01*
X202562918Y-116267537D01*
X202383987Y-115999748D01*
X202156252Y-115772013D01*
X201888463Y-115593082D01*
X201590912Y-115469832D01*
X201275033Y-115407000D01*
X200952967Y-115407000D01*
X200637088Y-115469832D01*
X200339537Y-115593082D01*
X200071748Y-115772013D01*
X199844013Y-115999748D01*
X199665082Y-116267537D01*
X199541832Y-116565088D01*
X199479000Y-116880967D01*
X195749000Y-116880967D01*
X195686168Y-116565088D01*
X195562918Y-116267537D01*
X195383987Y-115999748D01*
X195156252Y-115772013D01*
X194888463Y-115593082D01*
X194590912Y-115469832D01*
X194275033Y-115407000D01*
X193952967Y-115407000D01*
X193637088Y-115469832D01*
X193339537Y-115593082D01*
X193071748Y-115772013D01*
X192844013Y-115999748D01*
X192665082Y-116267537D01*
X192541832Y-116565088D01*
X192479000Y-116880967D01*
X188749000Y-116880967D01*
X188686168Y-116565088D01*
X188562918Y-116267537D01*
X188383987Y-115999748D01*
X188156252Y-115772013D01*
X187888463Y-115593082D01*
X187590912Y-115469832D01*
X187275033Y-115407000D01*
X186952967Y-115407000D01*
X186637088Y-115469832D01*
X186339537Y-115593082D01*
X186071748Y-115772013D01*
X185844013Y-115999748D01*
X185665082Y-116267537D01*
X185541832Y-116565088D01*
X185479000Y-116880967D01*
X184374000Y-116880967D01*
X184374000Y-105123802D01*
X186240000Y-106989802D01*
X186240000Y-107511928D01*
X186150000Y-107511928D01*
X186025518Y-107524188D01*
X185905820Y-107560498D01*
X185795506Y-107619463D01*
X185698815Y-107698815D01*
X185619463Y-107795506D01*
X185560498Y-107905820D01*
X185524188Y-108025518D01*
X185511928Y-108150000D01*
X185511928Y-109850000D01*
X185524188Y-109974482D01*
X185560498Y-110094180D01*
X185619463Y-110204494D01*
X185698815Y-110301185D01*
X185795506Y-110380537D01*
X185905820Y-110439502D01*
X186025518Y-110475812D01*
X186150000Y-110488072D01*
X187850000Y-110488072D01*
X187974482Y-110475812D01*
X188094180Y-110439502D01*
X188204494Y-110380537D01*
X188301185Y-110301185D01*
X188380537Y-110204494D01*
X188439502Y-110094180D01*
X188461513Y-110021620D01*
X188593368Y-110153475D01*
X188836589Y-110315990D01*
X189106842Y-110427932D01*
X189393740Y-110485000D01*
X189686260Y-110485000D01*
X189973158Y-110427932D01*
X190243411Y-110315990D01*
X190486632Y-110153475D01*
X190693475Y-109946632D01*
X190810000Y-109772240D01*
X190926525Y-109946632D01*
X191133368Y-110153475D01*
X191376589Y-110315990D01*
X191646842Y-110427932D01*
X191933740Y-110485000D01*
X192226260Y-110485000D01*
X192513158Y-110427932D01*
X192783411Y-110315990D01*
X193026632Y-110153475D01*
X193233475Y-109946632D01*
X193395990Y-109703411D01*
X193507932Y-109433158D01*
X193565000Y-109146260D01*
X193565000Y-108853740D01*
X193507932Y-108566842D01*
X193395990Y-108296589D01*
X193233475Y-108053368D01*
X193026632Y-107846525D01*
X192833089Y-107717204D01*
X192829003Y-107675714D01*
X192785546Y-107532453D01*
X192714974Y-107400424D01*
X192620001Y-107284699D01*
X192504276Y-107189726D01*
X192372247Y-107119154D01*
X192228986Y-107075697D01*
X192117333Y-107064700D01*
X192080000Y-107061023D01*
X192042667Y-107064700D01*
X191814502Y-107064700D01*
X186113072Y-101363271D01*
X186113072Y-101125000D01*
X186096969Y-100961500D01*
X186049278Y-100804284D01*
X185971831Y-100659392D01*
X185867606Y-100532394D01*
X185828134Y-100500000D01*
X185867606Y-100467606D01*
X185971831Y-100340608D01*
X186049278Y-100195716D01*
X186096969Y-100038500D01*
X186103125Y-99975995D01*
X186126461Y-99899067D01*
X186143000Y-99731146D01*
X186143000Y-98542801D01*
X203854000Y-116253802D01*
X203854001Y-119837091D01*
X203839537Y-119843082D01*
X203571748Y-120022013D01*
X203344013Y-120249748D01*
X203165082Y-120517537D01*
X203041832Y-120815088D01*
X202979000Y-121130967D01*
X202979000Y-121453033D01*
X203041832Y-121768912D01*
X203165082Y-122066463D01*
X203344013Y-122334252D01*
X203571748Y-122561987D01*
X203839537Y-122740918D01*
X204137088Y-122864168D01*
X204452967Y-122927000D01*
X204775033Y-122927000D01*
X205090912Y-122864168D01*
X205388463Y-122740918D01*
X205656252Y-122561987D01*
X205883987Y-122334252D01*
X206062918Y-122066463D01*
X206186168Y-121768912D01*
X206249000Y-121453033D01*
X206249000Y-121130967D01*
X206186168Y-120815088D01*
X206062918Y-120517537D01*
X205883987Y-120249748D01*
X205656252Y-120022013D01*
X205388463Y-119843082D01*
X205374000Y-119837091D01*
X205374000Y-115976323D01*
X205377676Y-115939000D01*
X205374000Y-115901677D01*
X205374000Y-115901667D01*
X205363003Y-115790014D01*
X205319546Y-115646753D01*
X205248974Y-115514724D01*
X205154001Y-115398999D01*
X205125004Y-115375202D01*
X189611470Y-99861668D01*
X189714250Y-99860000D01*
X189873000Y-99701250D01*
X189873000Y-98952000D01*
X189048750Y-98952000D01*
X188890000Y-99110750D01*
X188889229Y-99139428D01*
X186724801Y-96975000D01*
X188886928Y-96975000D01*
X188886928Y-97375000D01*
X188903031Y-97538500D01*
X188950722Y-97695716D01*
X189028169Y-97840608D01*
X189111863Y-97942590D01*
X189073815Y-97973815D01*
X188994463Y-98070506D01*
X188935498Y-98180820D01*
X188899188Y-98300518D01*
X188886928Y-98425000D01*
X188890000Y-98539250D01*
X189048750Y-98698000D01*
X189873000Y-98698000D01*
X189873000Y-98678000D01*
X190127000Y-98678000D01*
X190127000Y-98698000D01*
X190147000Y-98698000D01*
X190147000Y-98952000D01*
X190127000Y-98952000D01*
X190127000Y-99701250D01*
X190285750Y-99860000D01*
X190475000Y-99863072D01*
X190599482Y-99850812D01*
X190719180Y-99814502D01*
X190829494Y-99755537D01*
X190926185Y-99676185D01*
X191005537Y-99579494D01*
X191064502Y-99469180D01*
X191100549Y-99350350D01*
X208420400Y-116670202D01*
X208420401Y-120537968D01*
X208416724Y-120575300D01*
X208420401Y-120612633D01*
X208426128Y-120670774D01*
X208431398Y-120724285D01*
X208474854Y-120867546D01*
X208545426Y-120999576D01*
X208616601Y-121086302D01*
X208640400Y-121115301D01*
X208669398Y-121139099D01*
X212579201Y-125048903D01*
X212602999Y-125077901D01*
X212718724Y-125172874D01*
X212850753Y-125243446D01*
X212994014Y-125286903D01*
X213105667Y-125297900D01*
X213105675Y-125297900D01*
X213143000Y-125301576D01*
X213180325Y-125297900D01*
X234862278Y-125297900D01*
X234899600Y-125301576D01*
X234936922Y-125297900D01*
X234936933Y-125297900D01*
X235048586Y-125286903D01*
X235191847Y-125243446D01*
X235323876Y-125172874D01*
X235439601Y-125077901D01*
X235463404Y-125048898D01*
X235675979Y-124836322D01*
X235693750Y-124838072D01*
X236181250Y-124838072D01*
X236353285Y-124821128D01*
X236518709Y-124770947D01*
X236671164Y-124689458D01*
X236804792Y-124579792D01*
X236914458Y-124446164D01*
X236995947Y-124293709D01*
X237046128Y-124128285D01*
X237063072Y-123956250D01*
X237063072Y-123043750D01*
X237046128Y-122871715D01*
X236995947Y-122706291D01*
X236914458Y-122553836D01*
X236804792Y-122420208D01*
X236671164Y-122310542D01*
X236518709Y-122229053D01*
X236353285Y-122178872D01*
X236181250Y-122161928D01*
X235693750Y-122161928D01*
X235521715Y-122178872D01*
X235356291Y-122229053D01*
X235204000Y-122310454D01*
X235204000Y-121609854D01*
X235187461Y-121441933D01*
X235122103Y-121226477D01*
X235015968Y-121027911D01*
X234873133Y-120853867D01*
X234699088Y-120711032D01*
X234500522Y-120604897D01*
X234285066Y-120539539D01*
X234061000Y-120517470D01*
X233836933Y-120539539D01*
X233621477Y-120604897D01*
X233422911Y-120711032D01*
X233248867Y-120853867D01*
X233106032Y-121027912D01*
X232999897Y-121226478D01*
X232934539Y-121441934D01*
X232918000Y-121609855D01*
X232918000Y-123482473D01*
X232915360Y-123579418D01*
X232927481Y-123650406D01*
X232934540Y-123722067D01*
X232936928Y-123729939D01*
X232936928Y-123777900D01*
X213457802Y-123777900D01*
X212729216Y-123049315D01*
X212748088Y-123042795D01*
X212922044Y-122949814D01*
X213017808Y-122685413D01*
X212062000Y-121729605D01*
X212047858Y-121743748D01*
X211868253Y-121564143D01*
X211882395Y-121550000D01*
X212241605Y-121550000D01*
X213197413Y-122505808D01*
X213461814Y-122410044D01*
X213602704Y-122120429D01*
X213684384Y-121808892D01*
X213703718Y-121487405D01*
X213690219Y-121388967D01*
X213927000Y-121388967D01*
X213927000Y-121711033D01*
X213989832Y-122026912D01*
X214113082Y-122324463D01*
X214292013Y-122592252D01*
X214519748Y-122819987D01*
X214787537Y-122998918D01*
X215085088Y-123122168D01*
X215400967Y-123185000D01*
X215723033Y-123185000D01*
X216038912Y-123122168D01*
X216336463Y-122998918D01*
X216604252Y-122819987D01*
X216738826Y-122685413D01*
X218106192Y-122685413D01*
X218201956Y-122949814D01*
X218491571Y-123090704D01*
X218803108Y-123172384D01*
X219124595Y-123191718D01*
X219443675Y-123147961D01*
X219748088Y-123042795D01*
X219922044Y-122949814D01*
X220017808Y-122685413D01*
X219062000Y-121729605D01*
X218106192Y-122685413D01*
X216738826Y-122685413D01*
X216831987Y-122592252D01*
X217010918Y-122324463D01*
X217134168Y-122026912D01*
X217197000Y-121711033D01*
X217197000Y-121612595D01*
X217420282Y-121612595D01*
X217464039Y-121931675D01*
X217569205Y-122236088D01*
X217662186Y-122410044D01*
X217926587Y-122505808D01*
X218882395Y-121550000D01*
X219241605Y-121550000D01*
X220197413Y-122505808D01*
X220461814Y-122410044D01*
X220602704Y-122120429D01*
X220684384Y-121808892D01*
X220703718Y-121487405D01*
X220690219Y-121388967D01*
X220927000Y-121388967D01*
X220927000Y-121711033D01*
X220989832Y-122026912D01*
X221113082Y-122324463D01*
X221292013Y-122592252D01*
X221519748Y-122819987D01*
X221787537Y-122998918D01*
X222085088Y-123122168D01*
X222400967Y-123185000D01*
X222723033Y-123185000D01*
X223038912Y-123122168D01*
X223336463Y-122998918D01*
X223604252Y-122819987D01*
X223831987Y-122592252D01*
X224010918Y-122324463D01*
X224134168Y-122026912D01*
X224197000Y-121711033D01*
X224197000Y-121388967D01*
X224134168Y-121073088D01*
X224010918Y-120775537D01*
X223831987Y-120507748D01*
X223604252Y-120280013D01*
X223336463Y-120101082D01*
X223038912Y-119977832D01*
X222723033Y-119915000D01*
X222400967Y-119915000D01*
X222085088Y-119977832D01*
X221787537Y-120101082D01*
X221519748Y-120280013D01*
X221292013Y-120507748D01*
X221113082Y-120775537D01*
X220989832Y-121073088D01*
X220927000Y-121388967D01*
X220690219Y-121388967D01*
X220659961Y-121168325D01*
X220554795Y-120863912D01*
X220461814Y-120689956D01*
X220197413Y-120594192D01*
X219241605Y-121550000D01*
X218882395Y-121550000D01*
X217926587Y-120594192D01*
X217662186Y-120689956D01*
X217521296Y-120979571D01*
X217439616Y-121291108D01*
X217420282Y-121612595D01*
X217197000Y-121612595D01*
X217197000Y-121388967D01*
X217134168Y-121073088D01*
X217010918Y-120775537D01*
X216831987Y-120507748D01*
X216738826Y-120414587D01*
X218106192Y-120414587D01*
X219062000Y-121370395D01*
X220017808Y-120414587D01*
X219922044Y-120150186D01*
X219632429Y-120009296D01*
X219320892Y-119927616D01*
X218999405Y-119908282D01*
X218680325Y-119952039D01*
X218375912Y-120057205D01*
X218201956Y-120150186D01*
X218106192Y-120414587D01*
X216738826Y-120414587D01*
X216604252Y-120280013D01*
X216336463Y-120101082D01*
X216038912Y-119977832D01*
X215723033Y-119915000D01*
X215400967Y-119915000D01*
X215085088Y-119977832D01*
X214787537Y-120101082D01*
X214519748Y-120280013D01*
X214292013Y-120507748D01*
X214113082Y-120775537D01*
X213989832Y-121073088D01*
X213927000Y-121388967D01*
X213690219Y-121388967D01*
X213659961Y-121168325D01*
X213554795Y-120863912D01*
X213461814Y-120689956D01*
X213197413Y-120594192D01*
X212241605Y-121550000D01*
X211882395Y-121550000D01*
X210926587Y-120594192D01*
X210662186Y-120689956D01*
X210566516Y-120886615D01*
X210094488Y-120414587D01*
X211106192Y-120414587D01*
X212062000Y-121370395D01*
X213017808Y-120414587D01*
X212922044Y-120150186D01*
X212632429Y-120009296D01*
X212320892Y-119927616D01*
X211999405Y-119908282D01*
X211680325Y-119952039D01*
X211375912Y-120057205D01*
X211201956Y-120150186D01*
X211106192Y-120414587D01*
X210094488Y-120414587D01*
X209940400Y-120260499D01*
X209940400Y-116392723D01*
X209944076Y-116355400D01*
X209940400Y-116318077D01*
X209940400Y-116318067D01*
X209929403Y-116206414D01*
X209885946Y-116063153D01*
X209815374Y-115931124D01*
X209720401Y-115815399D01*
X209691404Y-115791602D01*
X206226692Y-112326890D01*
X238058524Y-112326890D01*
X238103175Y-112474099D01*
X238228359Y-112736920D01*
X238402412Y-112970269D01*
X238618645Y-113165178D01*
X238868748Y-113314157D01*
X239143109Y-113411481D01*
X239373000Y-113290814D01*
X239373000Y-112097000D01*
X239627000Y-112097000D01*
X239627000Y-113290814D01*
X239856891Y-113411481D01*
X240131252Y-113314157D01*
X240381355Y-113165178D01*
X240597588Y-112970269D01*
X240770000Y-112739120D01*
X240942412Y-112970269D01*
X241158645Y-113165178D01*
X241408748Y-113314157D01*
X241683109Y-113411481D01*
X241913000Y-113290814D01*
X241913000Y-112097000D01*
X242167000Y-112097000D01*
X242167000Y-113290814D01*
X242396891Y-113411481D01*
X242671252Y-113314157D01*
X242921355Y-113165178D01*
X243137588Y-112970269D01*
X243311641Y-112736920D01*
X243436825Y-112474099D01*
X243481476Y-112326890D01*
X243360155Y-112097000D01*
X242167000Y-112097000D01*
X241913000Y-112097000D01*
X239627000Y-112097000D01*
X239373000Y-112097000D01*
X238179845Y-112097000D01*
X238058524Y-112326890D01*
X206226692Y-112326890D01*
X191549802Y-97650000D01*
X199448000Y-97650000D01*
X199448000Y-98375000D01*
X199450466Y-98399907D01*
X199525466Y-98774907D01*
X199527886Y-98784890D01*
X199577886Y-98959890D01*
X199582083Y-98972167D01*
X199631575Y-99095897D01*
X199706086Y-99294593D01*
X199716098Y-99315341D01*
X199788593Y-99436166D01*
X199836408Y-99531796D01*
X199841098Y-99540341D01*
X199916098Y-99665341D01*
X199923400Y-99676200D01*
X199998400Y-99776200D01*
X200003050Y-99782035D01*
X200278050Y-100107035D01*
X200285197Y-100114803D01*
X200535197Y-100364803D01*
X200543697Y-100372564D01*
X200693697Y-100497564D01*
X200708440Y-100508161D01*
X201033440Y-100708161D01*
X201043204Y-100713592D01*
X201293204Y-100838592D01*
X201309839Y-100845483D01*
X201609839Y-100945483D01*
X201615110Y-100947114D01*
X201790110Y-100997114D01*
X201800093Y-100999534D01*
X202050093Y-101049534D01*
X202068325Y-101051824D01*
X202543325Y-101076824D01*
X202559740Y-101076626D01*
X202884740Y-101051626D01*
X202894311Y-101050523D01*
X203219311Y-101000523D01*
X203240161Y-100995483D01*
X203390161Y-100945483D01*
X203393401Y-100944354D01*
X203668401Y-100844354D01*
X203676580Y-100841054D01*
X203847701Y-100765000D01*
X215096928Y-100765000D01*
X215109188Y-100889482D01*
X215145498Y-101009180D01*
X215204463Y-101119494D01*
X215283815Y-101216185D01*
X215380506Y-101295537D01*
X215490820Y-101354502D01*
X215610518Y-101390812D01*
X215735000Y-101403072D01*
X216369250Y-101400000D01*
X216528000Y-101241250D01*
X216528000Y-100427000D01*
X216782000Y-100427000D01*
X216782000Y-101241250D01*
X216940750Y-101400000D01*
X217575000Y-101403072D01*
X217699482Y-101390812D01*
X217819180Y-101354502D01*
X217929494Y-101295537D01*
X218026185Y-101216185D01*
X218105537Y-101119494D01*
X218164502Y-101009180D01*
X218200812Y-100889482D01*
X218213072Y-100765000D01*
X218210000Y-100585750D01*
X218051250Y-100427000D01*
X216782000Y-100427000D01*
X216528000Y-100427000D01*
X215258750Y-100427000D01*
X215100000Y-100585750D01*
X215096928Y-100765000D01*
X203847701Y-100765000D01*
X203901580Y-100741054D01*
X203906796Y-100738592D01*
X204106796Y-100638592D01*
X204120447Y-100630670D01*
X204345447Y-100480670D01*
X204351200Y-100476600D01*
X204451200Y-100401600D01*
X204464803Y-100389803D01*
X204739803Y-100114803D01*
X204747564Y-100106303D01*
X204997564Y-99806303D01*
X205005670Y-99795447D01*
X205155670Y-99570447D01*
X205160267Y-99563010D01*
X205260267Y-99388010D01*
X205266731Y-99375028D01*
X205331028Y-99225000D01*
X212386928Y-99225000D01*
X212399188Y-99349482D01*
X212435498Y-99469180D01*
X212494463Y-99579494D01*
X212573815Y-99676185D01*
X212670506Y-99755537D01*
X212780820Y-99814502D01*
X212900518Y-99850812D01*
X213025000Y-99863072D01*
X213214250Y-99860000D01*
X213373000Y-99701250D01*
X213373000Y-98902000D01*
X213627000Y-98902000D01*
X213627000Y-99701250D01*
X213785750Y-99860000D01*
X213975000Y-99863072D01*
X214099482Y-99850812D01*
X214219180Y-99814502D01*
X214329494Y-99755537D01*
X214426185Y-99676185D01*
X214505537Y-99579494D01*
X214564502Y-99469180D01*
X214600812Y-99349482D01*
X214613072Y-99225000D01*
X214610000Y-99060750D01*
X214451250Y-98902000D01*
X213627000Y-98902000D01*
X213373000Y-98902000D01*
X212548750Y-98902000D01*
X212390000Y-99060750D01*
X212386928Y-99225000D01*
X205331028Y-99225000D01*
X205341731Y-99200028D01*
X205345483Y-99190161D01*
X205394739Y-99042393D01*
X205468914Y-98844593D01*
X205474181Y-98826610D01*
X205549181Y-98476610D01*
X205551223Y-98464025D01*
X205576223Y-98239025D01*
X205577000Y-98225000D01*
X205577000Y-97850000D01*
X205576370Y-97837363D01*
X205551370Y-97587363D01*
X205550272Y-97579121D01*
X205525272Y-97429121D01*
X205522525Y-97416584D01*
X205470275Y-97225000D01*
X212351471Y-97225000D01*
X212373539Y-97449067D01*
X212393229Y-97513976D01*
X212403512Y-97618377D01*
X212452625Y-97780283D01*
X212530700Y-97926351D01*
X212494463Y-97970506D01*
X212435498Y-98080820D01*
X212399188Y-98200518D01*
X212386928Y-98325000D01*
X212390000Y-98489250D01*
X212548750Y-98648000D01*
X213373000Y-98648000D01*
X213373000Y-98628000D01*
X213627000Y-98628000D01*
X213627000Y-98648000D01*
X214451250Y-98648000D01*
X214610000Y-98489250D01*
X214613072Y-98325000D01*
X214600812Y-98200518D01*
X214564502Y-98080820D01*
X214505537Y-97970506D01*
X214469300Y-97926351D01*
X214531543Y-97809902D01*
X215498446Y-96843000D01*
X216711146Y-96843000D01*
X216879067Y-96826461D01*
X216956170Y-96803072D01*
X217088545Y-96803072D01*
X217060762Y-96811500D01*
X217051353Y-96814354D01*
X216919323Y-96884926D01*
X216904699Y-96896928D01*
X215735000Y-96896928D01*
X215610518Y-96909188D01*
X215490820Y-96945498D01*
X215380506Y-97004463D01*
X215283815Y-97083815D01*
X215204463Y-97180506D01*
X215145498Y-97290820D01*
X215109188Y-97410518D01*
X215096928Y-97535000D01*
X215096928Y-98465000D01*
X215109188Y-98589482D01*
X215145498Y-98709180D01*
X215204463Y-98819494D01*
X215283815Y-98916185D01*
X215380506Y-98995537D01*
X215490820Y-99054502D01*
X215610518Y-99090812D01*
X215735000Y-99103072D01*
X215828500Y-99103072D01*
X215828500Y-99197381D01*
X215735000Y-99196928D01*
X215610518Y-99209188D01*
X215490820Y-99245498D01*
X215380506Y-99304463D01*
X215283815Y-99383815D01*
X215204463Y-99480506D01*
X215145498Y-99590820D01*
X215109188Y-99710518D01*
X215096928Y-99835000D01*
X215100000Y-100014250D01*
X215258750Y-100173000D01*
X216528000Y-100173000D01*
X216528000Y-100153000D01*
X216708774Y-100153000D01*
X216761561Y-100163500D01*
X216782000Y-100163500D01*
X216782000Y-100173000D01*
X218051250Y-100173000D01*
X218210000Y-100014250D01*
X218213072Y-99835000D01*
X218200812Y-99710518D01*
X218164502Y-99590820D01*
X218105537Y-99480506D01*
X218026185Y-99383815D01*
X217929494Y-99304463D01*
X217888170Y-99282374D01*
X217898500Y-99230439D01*
X217898500Y-99026561D01*
X217895901Y-99013493D01*
X217929494Y-98995537D01*
X218026185Y-98916185D01*
X218105537Y-98819494D01*
X218164502Y-98709180D01*
X218200812Y-98589482D01*
X218213072Y-98465000D01*
X218213072Y-98279900D01*
X221266928Y-98279900D01*
X221266928Y-99595000D01*
X221279188Y-99719482D01*
X221315498Y-99839180D01*
X221374463Y-99949494D01*
X221453815Y-100046185D01*
X221550506Y-100125537D01*
X221660820Y-100184502D01*
X221780518Y-100220812D01*
X221905000Y-100233072D01*
X223745000Y-100233072D01*
X223869482Y-100220812D01*
X223989180Y-100184502D01*
X224099494Y-100125537D01*
X224196185Y-100046185D01*
X224275537Y-99949494D01*
X224334502Y-99839180D01*
X224370812Y-99719482D01*
X224383072Y-99595000D01*
X224383072Y-98519900D01*
X224711275Y-98519900D01*
X224718992Y-98598255D01*
X224769528Y-98764851D01*
X224851595Y-98918387D01*
X224962038Y-99052962D01*
X225096613Y-99163405D01*
X225250149Y-99245472D01*
X225280000Y-99254527D01*
X225280001Y-100419171D01*
X225169717Y-100452625D01*
X225020503Y-100532382D01*
X224889716Y-100639716D01*
X224782382Y-100770503D01*
X224702625Y-100919717D01*
X224653512Y-101081623D01*
X224636928Y-101250000D01*
X224636928Y-101750000D01*
X224653512Y-101918377D01*
X224702625Y-102080283D01*
X224782382Y-102229497D01*
X224889716Y-102360284D01*
X225020503Y-102467618D01*
X225169717Y-102547375D01*
X225331623Y-102596488D01*
X225500000Y-102613072D01*
X225950000Y-102613072D01*
X226118377Y-102596488D01*
X226280283Y-102547375D01*
X226429497Y-102467618D01*
X226500000Y-102409758D01*
X226570503Y-102467618D01*
X226719717Y-102547375D01*
X226881623Y-102596488D01*
X226986023Y-102606771D01*
X227050933Y-102626461D01*
X227275000Y-102648530D01*
X227499066Y-102626461D01*
X227563976Y-102606771D01*
X227668377Y-102596488D01*
X227830283Y-102547375D01*
X227979497Y-102467618D01*
X228110284Y-102360284D01*
X228217618Y-102229497D01*
X228297375Y-102080283D01*
X228346488Y-101918377D01*
X228348397Y-101898995D01*
X228401461Y-101724067D01*
X228418000Y-101556146D01*
X228418000Y-99938445D01*
X229043374Y-99313072D01*
X229190001Y-99313072D01*
X229363255Y-99296008D01*
X229529851Y-99245472D01*
X229639244Y-99187000D01*
X230688146Y-99187000D01*
X230856067Y-99170461D01*
X231071523Y-99105103D01*
X231270089Y-98998968D01*
X231444133Y-98856133D01*
X231586968Y-98682089D01*
X231693103Y-98483523D01*
X231758461Y-98268067D01*
X231780530Y-98044000D01*
X231758461Y-97819933D01*
X231693103Y-97604477D01*
X231586968Y-97405911D01*
X231444133Y-97231867D01*
X231270089Y-97089032D01*
X231071523Y-96982897D01*
X230856067Y-96917539D01*
X230688146Y-96901000D01*
X229761865Y-96901000D01*
X229683387Y-96836595D01*
X229529851Y-96754528D01*
X229363255Y-96703992D01*
X229190001Y-96686928D01*
X229043374Y-96686928D01*
X228418000Y-96061555D01*
X228418000Y-94443854D01*
X228401461Y-94275933D01*
X228348397Y-94101005D01*
X228346488Y-94081623D01*
X228297375Y-93919717D01*
X228217618Y-93770503D01*
X228110284Y-93639716D01*
X227979497Y-93532382D01*
X227830283Y-93452625D01*
X227668377Y-93403512D01*
X227563976Y-93393229D01*
X227499066Y-93373539D01*
X227275000Y-93351470D01*
X227050933Y-93373539D01*
X226986023Y-93393229D01*
X226881623Y-93403512D01*
X226719717Y-93452625D01*
X226570503Y-93532382D01*
X226500000Y-93590242D01*
X226429497Y-93532382D01*
X226280283Y-93452625D01*
X226118377Y-93403512D01*
X225950000Y-93386928D01*
X225500000Y-93386928D01*
X225331623Y-93403512D01*
X225169717Y-93452625D01*
X225020503Y-93532382D01*
X224889716Y-93639716D01*
X224782382Y-93770503D01*
X224702625Y-93919717D01*
X224653512Y-94081623D01*
X224636928Y-94250000D01*
X224636928Y-94750000D01*
X224653512Y-94918377D01*
X224702625Y-95080283D01*
X224782382Y-95229497D01*
X224889716Y-95360284D01*
X224965001Y-95422068D01*
X224965000Y-96944607D01*
X224962038Y-96947038D01*
X224918655Y-96999900D01*
X224383072Y-96999900D01*
X224383072Y-96405000D01*
X224370812Y-96280518D01*
X224334502Y-96160820D01*
X224275537Y-96050506D01*
X224196185Y-95953815D01*
X224099494Y-95874463D01*
X223989180Y-95815498D01*
X223869482Y-95779188D01*
X223745000Y-95766928D01*
X221905000Y-95766928D01*
X221780518Y-95779188D01*
X221660820Y-95815498D01*
X221550506Y-95874463D01*
X221453815Y-95953815D01*
X221374463Y-96050506D01*
X221315498Y-96160820D01*
X221279188Y-96280518D01*
X221266928Y-96405000D01*
X221266928Y-96759900D01*
X217801385Y-96759900D01*
X217819180Y-96754502D01*
X217929494Y-96695537D01*
X218026185Y-96616185D01*
X218105537Y-96519494D01*
X218164502Y-96409180D01*
X218200812Y-96289482D01*
X218213072Y-96165000D01*
X218213072Y-95235000D01*
X218200812Y-95110518D01*
X218164502Y-94990820D01*
X218105537Y-94880506D01*
X218026185Y-94783815D01*
X217929494Y-94704463D01*
X217819180Y-94645498D01*
X217699482Y-94609188D01*
X217575000Y-94596928D01*
X216956170Y-94596928D01*
X216879067Y-94573539D01*
X216711146Y-94557000D01*
X215081139Y-94557000D01*
X215025000Y-94551471D01*
X214968861Y-94557000D01*
X214968854Y-94557000D01*
X214821517Y-94571512D01*
X214800932Y-94573539D01*
X214585476Y-94638897D01*
X214546456Y-94659754D01*
X214386911Y-94745032D01*
X214212867Y-94887867D01*
X214177077Y-94931477D01*
X212890098Y-96218457D01*
X212770503Y-96282382D01*
X212639716Y-96389716D01*
X212532382Y-96520503D01*
X212452625Y-96669717D01*
X212403512Y-96831623D01*
X212393229Y-96936024D01*
X212373539Y-97000933D01*
X212351471Y-97225000D01*
X205470275Y-97225000D01*
X205447525Y-97141584D01*
X205444601Y-97132285D01*
X205319601Y-96782285D01*
X205316731Y-96774972D01*
X205241731Y-96599972D01*
X205233902Y-96584659D01*
X205083902Y-96334659D01*
X205078344Y-96326183D01*
X204953344Y-96151183D01*
X204947564Y-96143697D01*
X204822564Y-95993697D01*
X204820577Y-95991370D01*
X204645577Y-95791370D01*
X204633630Y-95779423D01*
X204433630Y-95604423D01*
X204421715Y-95595186D01*
X203946715Y-95270186D01*
X203926580Y-95258946D01*
X203701580Y-95158946D01*
X203694593Y-95156086D01*
X203494593Y-95081086D01*
X203480802Y-95076792D01*
X203180802Y-95001792D01*
X203174907Y-95000466D01*
X202924907Y-94950466D01*
X202912637Y-94948630D01*
X202662637Y-94923630D01*
X202650000Y-94923000D01*
X202300000Y-94923000D01*
X202282039Y-94924276D01*
X201932039Y-94974276D01*
X201919198Y-94976792D01*
X201719198Y-95026792D01*
X201709839Y-95029517D01*
X201559839Y-95079517D01*
X201555407Y-95081086D01*
X201155407Y-95231086D01*
X201136990Y-95239733D01*
X200961990Y-95339733D01*
X200954553Y-95344330D01*
X200654553Y-95544330D01*
X200645664Y-95550830D01*
X200520664Y-95650830D01*
X200510197Y-95660197D01*
X200235197Y-95935197D01*
X200225830Y-95945664D01*
X200025830Y-96195664D01*
X200020582Y-96202710D01*
X199795582Y-96527710D01*
X199786408Y-96543204D01*
X199736408Y-96643204D01*
X199732083Y-96652833D01*
X199682083Y-96777833D01*
X199681086Y-96780407D01*
X199606575Y-96979103D01*
X199557083Y-97102833D01*
X199551792Y-97119198D01*
X199526792Y-97219198D01*
X199526024Y-97222450D01*
X199476024Y-97447450D01*
X199474276Y-97457039D01*
X199449276Y-97632039D01*
X199448000Y-97650000D01*
X191549802Y-97650000D01*
X191113072Y-97213271D01*
X191113072Y-96975000D01*
X191096969Y-96811500D01*
X191049278Y-96654284D01*
X190971831Y-96509392D01*
X190867606Y-96382394D01*
X190740608Y-96278169D01*
X190595716Y-96200722D01*
X190438500Y-96153031D01*
X190275000Y-96136928D01*
X189725000Y-96136928D01*
X189561500Y-96153031D01*
X189404284Y-96200722D01*
X189259392Y-96278169D01*
X189132394Y-96382394D01*
X189028169Y-96509392D01*
X188950722Y-96654284D01*
X188903031Y-96811500D01*
X188886928Y-96975000D01*
X186724801Y-96975000D01*
X186113072Y-96363271D01*
X186113072Y-96125000D01*
X186096969Y-95961500D01*
X186049278Y-95804284D01*
X185971831Y-95659392D01*
X185867606Y-95532394D01*
X185828134Y-95500000D01*
X185867606Y-95467606D01*
X185971831Y-95340608D01*
X186049278Y-95195716D01*
X186096969Y-95038500D01*
X186113072Y-94875000D01*
X186113072Y-94475000D01*
X186096969Y-94311500D01*
X186049278Y-94154284D01*
X185971831Y-94009392D01*
X185867606Y-93882394D01*
X185740608Y-93778169D01*
X185595716Y-93700722D01*
X185438500Y-93653031D01*
X185275000Y-93636928D01*
X185036730Y-93636928D01*
X176750000Y-85350199D01*
X176750000Y-83180000D01*
X238011928Y-83180000D01*
X238011928Y-84880000D01*
X238024188Y-85004482D01*
X238060498Y-85124180D01*
X238119463Y-85234494D01*
X238198815Y-85331185D01*
X238295506Y-85410537D01*
X238405820Y-85469502D01*
X238478380Y-85491513D01*
X238346525Y-85623368D01*
X238184010Y-85866589D01*
X238072068Y-86136842D01*
X238015000Y-86423740D01*
X238015000Y-86716260D01*
X238072068Y-87003158D01*
X238184010Y-87273411D01*
X238346525Y-87516632D01*
X238553368Y-87723475D01*
X238727760Y-87840000D01*
X238553368Y-87956525D01*
X238346525Y-88163368D01*
X238184010Y-88406589D01*
X238072068Y-88676842D01*
X238015000Y-88963740D01*
X238015000Y-89256260D01*
X238072068Y-89543158D01*
X238184010Y-89813411D01*
X238346525Y-90056632D01*
X238553368Y-90263475D01*
X238727760Y-90380000D01*
X238553368Y-90496525D01*
X238346525Y-90703368D01*
X238184010Y-90946589D01*
X238072068Y-91216842D01*
X238015000Y-91503740D01*
X238015000Y-91796260D01*
X238072068Y-92083158D01*
X238184010Y-92353411D01*
X238346525Y-92596632D01*
X238553368Y-92803475D01*
X238727760Y-92920000D01*
X238553368Y-93036525D01*
X238346525Y-93243368D01*
X238184010Y-93486589D01*
X238072068Y-93756842D01*
X238015000Y-94043740D01*
X238015000Y-94336260D01*
X238072068Y-94623158D01*
X238184010Y-94893411D01*
X238346525Y-95136632D01*
X238553368Y-95343475D01*
X238727760Y-95460000D01*
X238553368Y-95576525D01*
X238346525Y-95783368D01*
X238184010Y-96026589D01*
X238072068Y-96296842D01*
X238015000Y-96583740D01*
X238015000Y-96876260D01*
X238072068Y-97163158D01*
X238184010Y-97433411D01*
X238346525Y-97676632D01*
X238553368Y-97883475D01*
X238727760Y-98000000D01*
X238553368Y-98116525D01*
X238346525Y-98323368D01*
X238184010Y-98566589D01*
X238072068Y-98836842D01*
X238015000Y-99123740D01*
X238015000Y-99416260D01*
X238072068Y-99703158D01*
X238184010Y-99973411D01*
X238346525Y-100216632D01*
X238553368Y-100423475D01*
X238727760Y-100540000D01*
X238553368Y-100656525D01*
X238346525Y-100863368D01*
X238184010Y-101106589D01*
X238072068Y-101376842D01*
X238015000Y-101663740D01*
X238015000Y-101956260D01*
X238072068Y-102243158D01*
X238184010Y-102513411D01*
X238346525Y-102756632D01*
X238553368Y-102963475D01*
X238727760Y-103080000D01*
X238553368Y-103196525D01*
X238346525Y-103403368D01*
X238184010Y-103646589D01*
X238072068Y-103916842D01*
X238015000Y-104203740D01*
X238015000Y-104496260D01*
X238072068Y-104783158D01*
X238184010Y-105053411D01*
X238346525Y-105296632D01*
X238553368Y-105503475D01*
X238727760Y-105620000D01*
X238553368Y-105736525D01*
X238346525Y-105943368D01*
X238184010Y-106186589D01*
X238072068Y-106456842D01*
X238015000Y-106743740D01*
X238015000Y-107036260D01*
X238072068Y-107323158D01*
X238184010Y-107593411D01*
X238346525Y-107836632D01*
X238553368Y-108043475D01*
X238727760Y-108160000D01*
X238553368Y-108276525D01*
X238346525Y-108483368D01*
X238184010Y-108726589D01*
X238072068Y-108996842D01*
X238015000Y-109283740D01*
X238015000Y-109576260D01*
X238072068Y-109863158D01*
X238184010Y-110133411D01*
X238346525Y-110376632D01*
X238553368Y-110583475D01*
X238735534Y-110705195D01*
X238618645Y-110774822D01*
X238402412Y-110969731D01*
X238228359Y-111203080D01*
X238103175Y-111465901D01*
X238058524Y-111613110D01*
X238179845Y-111843000D01*
X239373000Y-111843000D01*
X239373000Y-111823000D01*
X239627000Y-111823000D01*
X239627000Y-111843000D01*
X241913000Y-111843000D01*
X241913000Y-111823000D01*
X242167000Y-111823000D01*
X242167000Y-111843000D01*
X243360155Y-111843000D01*
X243481476Y-111613110D01*
X243436825Y-111465901D01*
X243311641Y-111203080D01*
X243137588Y-110969731D01*
X242921355Y-110774822D01*
X242804466Y-110705195D01*
X242986632Y-110583475D01*
X243193475Y-110376632D01*
X243355990Y-110133411D01*
X243467932Y-109863158D01*
X243525000Y-109576260D01*
X243525000Y-109283740D01*
X243467932Y-108996842D01*
X243355990Y-108726589D01*
X243193475Y-108483368D01*
X242986632Y-108276525D01*
X242812240Y-108160000D01*
X242986632Y-108043475D01*
X243193475Y-107836632D01*
X243355990Y-107593411D01*
X243467932Y-107323158D01*
X243525000Y-107036260D01*
X243525000Y-106743740D01*
X243467932Y-106456842D01*
X243355990Y-106186589D01*
X243193475Y-105943368D01*
X242986632Y-105736525D01*
X242812240Y-105620000D01*
X242986632Y-105503475D01*
X243193475Y-105296632D01*
X243355990Y-105053411D01*
X243467932Y-104783158D01*
X243525000Y-104496260D01*
X243525000Y-104203740D01*
X243467932Y-103916842D01*
X243355990Y-103646589D01*
X243193475Y-103403368D01*
X242986632Y-103196525D01*
X242812240Y-103080000D01*
X242986632Y-102963475D01*
X243193475Y-102756632D01*
X243355990Y-102513411D01*
X243467932Y-102243158D01*
X243525000Y-101956260D01*
X243525000Y-101663740D01*
X243467932Y-101376842D01*
X243355990Y-101106589D01*
X243193475Y-100863368D01*
X242986632Y-100656525D01*
X242812240Y-100540000D01*
X242986632Y-100423475D01*
X243193475Y-100216632D01*
X243355990Y-99973411D01*
X243467932Y-99703158D01*
X243525000Y-99416260D01*
X243525000Y-99123740D01*
X243467932Y-98836842D01*
X243355990Y-98566589D01*
X243193475Y-98323368D01*
X242986632Y-98116525D01*
X242812240Y-98000000D01*
X242986632Y-97883475D01*
X243193475Y-97676632D01*
X243355990Y-97433411D01*
X243467932Y-97163158D01*
X243525000Y-96876260D01*
X243525000Y-96583740D01*
X243467932Y-96296842D01*
X243355990Y-96026589D01*
X243193475Y-95783368D01*
X242986632Y-95576525D01*
X242812240Y-95460000D01*
X242986632Y-95343475D01*
X243193475Y-95136632D01*
X243355990Y-94893411D01*
X243467932Y-94623158D01*
X243525000Y-94336260D01*
X243525000Y-94043740D01*
X243467932Y-93756842D01*
X243355990Y-93486589D01*
X243193475Y-93243368D01*
X242986632Y-93036525D01*
X242812240Y-92920000D01*
X242986632Y-92803475D01*
X243193475Y-92596632D01*
X243355990Y-92353411D01*
X243467932Y-92083158D01*
X243525000Y-91796260D01*
X243525000Y-91503740D01*
X243467932Y-91216842D01*
X243355990Y-90946589D01*
X243193475Y-90703368D01*
X242986632Y-90496525D01*
X242812240Y-90380000D01*
X242986632Y-90263475D01*
X243193475Y-90056632D01*
X243355990Y-89813411D01*
X243467932Y-89543158D01*
X243525000Y-89256260D01*
X243525000Y-88963740D01*
X243467932Y-88676842D01*
X243355990Y-88406589D01*
X243193475Y-88163368D01*
X242986632Y-87956525D01*
X242812240Y-87840000D01*
X242986632Y-87723475D01*
X243193475Y-87516632D01*
X243355990Y-87273411D01*
X243467932Y-87003158D01*
X243525000Y-86716260D01*
X243525000Y-86423740D01*
X243467932Y-86136842D01*
X243355990Y-85866589D01*
X243193475Y-85623368D01*
X242986632Y-85416525D01*
X242812240Y-85300000D01*
X242986632Y-85183475D01*
X243193475Y-84976632D01*
X243355990Y-84733411D01*
X243467932Y-84463158D01*
X243525000Y-84176260D01*
X243525000Y-83883740D01*
X243467932Y-83596842D01*
X243355990Y-83326589D01*
X243193475Y-83083368D01*
X242986632Y-82876525D01*
X242743411Y-82714010D01*
X242473158Y-82602068D01*
X242186260Y-82545000D01*
X241893740Y-82545000D01*
X241606842Y-82602068D01*
X241336589Y-82714010D01*
X241093368Y-82876525D01*
X240961513Y-83008380D01*
X240939502Y-82935820D01*
X240880537Y-82825506D01*
X240801185Y-82728815D01*
X240704494Y-82649463D01*
X240594180Y-82590498D01*
X240474482Y-82554188D01*
X240350000Y-82541928D01*
X238650000Y-82541928D01*
X238525518Y-82554188D01*
X238405820Y-82590498D01*
X238295506Y-82649463D01*
X238198815Y-82728815D01*
X238119463Y-82825506D01*
X238060498Y-82935820D01*
X238024188Y-83055518D01*
X238011928Y-83180000D01*
X176750000Y-83180000D01*
X176750000Y-81531161D01*
X211071800Y-81531161D01*
X211071800Y-81735039D01*
X211111574Y-81934998D01*
X211189595Y-82123356D01*
X211302863Y-82292874D01*
X211447026Y-82437037D01*
X211616544Y-82550305D01*
X211804902Y-82628326D01*
X212004861Y-82668100D01*
X212208739Y-82668100D01*
X212408698Y-82628326D01*
X212597056Y-82550305D01*
X212766574Y-82437037D01*
X212910737Y-82292874D01*
X213024005Y-82123356D01*
X213102026Y-81934998D01*
X213141800Y-81735039D01*
X213141800Y-81531161D01*
X213102026Y-81331202D01*
X213024005Y-81142844D01*
X212910737Y-80973326D01*
X212766574Y-80829163D01*
X212597056Y-80715895D01*
X212408698Y-80637874D01*
X212208739Y-80598100D01*
X212004861Y-80598100D01*
X211804902Y-80637874D01*
X211616544Y-80715895D01*
X211447026Y-80829163D01*
X211302863Y-80973326D01*
X211189595Y-81142844D01*
X211111574Y-81331202D01*
X211071800Y-81531161D01*
X176750000Y-81531161D01*
X176750000Y-76048178D01*
X176936632Y-75923475D01*
X177143475Y-75716632D01*
X177260000Y-75542240D01*
X177376525Y-75716632D01*
X177583368Y-75923475D01*
X177826589Y-76085990D01*
X178096842Y-76197932D01*
X178383740Y-76255000D01*
X178676260Y-76255000D01*
X178963158Y-76197932D01*
X179233411Y-76085990D01*
X179476632Y-75923475D01*
X179683475Y-75716632D01*
X179800000Y-75542240D01*
X179916525Y-75716632D01*
X180123368Y-75923475D01*
X180366589Y-76085990D01*
X180636842Y-76197932D01*
X180923740Y-76255000D01*
X181216260Y-76255000D01*
X181503158Y-76197932D01*
X181773411Y-76085990D01*
X182016632Y-75923475D01*
X182223475Y-75716632D01*
X182340000Y-75542240D01*
X182456525Y-75716632D01*
X182663368Y-75923475D01*
X182906589Y-76085990D01*
X183176842Y-76197932D01*
X183463740Y-76255000D01*
X183756260Y-76255000D01*
X184043158Y-76197932D01*
X184313411Y-76085990D01*
X184556632Y-75923475D01*
X184763475Y-75716632D01*
X184880000Y-75542240D01*
X184996525Y-75716632D01*
X185203368Y-75923475D01*
X185446589Y-76085990D01*
X185716842Y-76197932D01*
X186003740Y-76255000D01*
X186296260Y-76255000D01*
X186583158Y-76197932D01*
X186853411Y-76085990D01*
X187060690Y-75947491D01*
X190267801Y-79154603D01*
X190291599Y-79183601D01*
X190320597Y-79207399D01*
X190407323Y-79278574D01*
X190539353Y-79349146D01*
X190682614Y-79392603D01*
X190794267Y-79403600D01*
X190794277Y-79403600D01*
X190831599Y-79407276D01*
X190868922Y-79403600D01*
X226509078Y-79403600D01*
X226546400Y-79407276D01*
X226583722Y-79403600D01*
X226583733Y-79403600D01*
X226695386Y-79392603D01*
X226838647Y-79349146D01*
X226970676Y-79278574D01*
X227086401Y-79183601D01*
X227110203Y-79154598D01*
X227356114Y-78908688D01*
X227538665Y-78945000D01*
X227821335Y-78945000D01*
X228098574Y-78889853D01*
X228359727Y-78781680D01*
X228594759Y-78624637D01*
X228794637Y-78424759D01*
X228950000Y-78192241D01*
X229105363Y-78424759D01*
X229305241Y-78624637D01*
X229540273Y-78781680D01*
X229801426Y-78889853D01*
X230078665Y-78945000D01*
X230361335Y-78945000D01*
X230638574Y-78889853D01*
X230899727Y-78781680D01*
X231134759Y-78624637D01*
X231334637Y-78424759D01*
X231490000Y-78192241D01*
X231645363Y-78424759D01*
X231845241Y-78624637D01*
X232080273Y-78781680D01*
X232341426Y-78889853D01*
X232618665Y-78945000D01*
X232901335Y-78945000D01*
X233178574Y-78889853D01*
X233439727Y-78781680D01*
X233674759Y-78624637D01*
X233874637Y-78424759D01*
X234030000Y-78192241D01*
X234185363Y-78424759D01*
X234385241Y-78624637D01*
X234620273Y-78781680D01*
X234881426Y-78889853D01*
X235158665Y-78945000D01*
X235441335Y-78945000D01*
X235718574Y-78889853D01*
X235979727Y-78781680D01*
X236214759Y-78624637D01*
X236414637Y-78424759D01*
X236571680Y-78189727D01*
X236679853Y-77928574D01*
X236735000Y-77651335D01*
X236735000Y-77368665D01*
X236679853Y-77091426D01*
X236571680Y-76830273D01*
X236414637Y-76595241D01*
X236214759Y-76395363D01*
X235979727Y-76238320D01*
X235718574Y-76130147D01*
X235441335Y-76075000D01*
X235158665Y-76075000D01*
X234976114Y-76111312D01*
X234790000Y-75925199D01*
X234790000Y-73771983D01*
X234881426Y-73809853D01*
X235158665Y-73865000D01*
X235441335Y-73865000D01*
X235718574Y-73809853D01*
X235979727Y-73701680D01*
X236214759Y-73544637D01*
X236414637Y-73344759D01*
X236571680Y-73109727D01*
X236679853Y-72848574D01*
X236735000Y-72571335D01*
X236735000Y-72288665D01*
X236679853Y-72011426D01*
X236571680Y-71750273D01*
X236414637Y-71515241D01*
X236214759Y-71315363D01*
X235979727Y-71158320D01*
X235718574Y-71050147D01*
X235441335Y-70995000D01*
X235158665Y-70995000D01*
X234881426Y-71050147D01*
X234620273Y-71158320D01*
X234385241Y-71315363D01*
X234374353Y-71326251D01*
X233708101Y-70660000D01*
X238433000Y-70660000D01*
X238433000Y-73760000D01*
X238434276Y-73777961D01*
X238454276Y-73917961D01*
X238455049Y-73922718D01*
X238474613Y-74030320D01*
X238484276Y-74097961D01*
X238486024Y-74107550D01*
X238505287Y-74194235D01*
X238524728Y-74310879D01*
X238531465Y-74335590D01*
X238580428Y-74462893D01*
X238619517Y-74580161D01*
X238622083Y-74587167D01*
X238662083Y-74687167D01*
X238663269Y-74690028D01*
X238723269Y-74830028D01*
X238729439Y-74842491D01*
X238859439Y-75072491D01*
X238863170Y-75078676D01*
X238953170Y-75218676D01*
X238955958Y-75222830D01*
X239024054Y-75320110D01*
X239072304Y-75397310D01*
X239080830Y-75409336D01*
X239120830Y-75459336D01*
X239126381Y-75465817D01*
X239236381Y-75585817D01*
X239240197Y-75589803D01*
X239360197Y-75709803D01*
X239367349Y-75716426D01*
X239433646Y-75773252D01*
X239490197Y-75829803D01*
X239498697Y-75837564D01*
X239558697Y-75887564D01*
X239565302Y-75892709D01*
X239674532Y-75972149D01*
X239793800Y-76061600D01*
X239807737Y-76070690D01*
X239967737Y-76160690D01*
X239968323Y-76161018D01*
X240148323Y-76261018D01*
X240161154Y-76267231D01*
X240281154Y-76317231D01*
X240286095Y-76319170D01*
X240476095Y-76389170D01*
X240479839Y-76390483D01*
X240629839Y-76440483D01*
X240637679Y-76442818D01*
X240827679Y-76492818D01*
X240831443Y-76493748D01*
X240961443Y-76523748D01*
X240974248Y-76526019D01*
X241214248Y-76556019D01*
X241222078Y-76556753D01*
X241382078Y-76566753D01*
X241390000Y-76567000D01*
X241509717Y-76567000D01*
X244340000Y-76573304D01*
X244340001Y-119413000D01*
X241230000Y-119413000D01*
X241212039Y-119414276D01*
X241072039Y-119434276D01*
X241067282Y-119435049D01*
X240959680Y-119454613D01*
X240892039Y-119464276D01*
X240882450Y-119466024D01*
X240795765Y-119485287D01*
X240679121Y-119504728D01*
X240654410Y-119511465D01*
X240527107Y-119560428D01*
X240409839Y-119599517D01*
X240402833Y-119602083D01*
X240302833Y-119642083D01*
X240299972Y-119643269D01*
X240159972Y-119703269D01*
X240147509Y-119709439D01*
X239917509Y-119839439D01*
X239911324Y-119843170D01*
X239771324Y-119933170D01*
X239767170Y-119935958D01*
X239669890Y-120004054D01*
X239592690Y-120052304D01*
X239580664Y-120060830D01*
X239530664Y-120100830D01*
X239524183Y-120106381D01*
X239404183Y-120216381D01*
X239400197Y-120220197D01*
X239280197Y-120340197D01*
X239273574Y-120347349D01*
X239216748Y-120413646D01*
X239160197Y-120470197D01*
X239152436Y-120478697D01*
X239102436Y-120538697D01*
X239097291Y-120545302D01*
X239017851Y-120654532D01*
X238928400Y-120773800D01*
X238919310Y-120787737D01*
X238829310Y-120947737D01*
X238828982Y-120948323D01*
X238728982Y-121128323D01*
X238722769Y-121141154D01*
X238672769Y-121261154D01*
X238670830Y-121266095D01*
X238600830Y-121456095D01*
X238599517Y-121459839D01*
X238549517Y-121609839D01*
X238547182Y-121617679D01*
X238497182Y-121807679D01*
X238496252Y-121811443D01*
X238466252Y-121941443D01*
X238463981Y-121954248D01*
X238433981Y-122194248D01*
X238433247Y-122202078D01*
X238423247Y-122362078D01*
X238423000Y-122370000D01*
X238423000Y-122489717D01*
X238416652Y-125340000D01*
X166577000Y-125340000D01*
X166577000Y-122230000D01*
X166575724Y-122212039D01*
X166555724Y-122072039D01*
X166554951Y-122067282D01*
X166535387Y-121959680D01*
X166525724Y-121892039D01*
X166523976Y-121882450D01*
X166504713Y-121795765D01*
X166485272Y-121679121D01*
X166478535Y-121654410D01*
X166429573Y-121527108D01*
X166390483Y-121409839D01*
X166387917Y-121402833D01*
X166347917Y-121302833D01*
X166346731Y-121299972D01*
X166286731Y-121159972D01*
X166280561Y-121147509D01*
X166150561Y-120917509D01*
X166146830Y-120911324D01*
X166056830Y-120771324D01*
X166054042Y-120767170D01*
X165985946Y-120669890D01*
X165937696Y-120592690D01*
X165929170Y-120580664D01*
X165889170Y-120530664D01*
X165883619Y-120524183D01*
X165773619Y-120404183D01*
X165769803Y-120400197D01*
X165649803Y-120280197D01*
X165642651Y-120273574D01*
X165576354Y-120216748D01*
X165519803Y-120160197D01*
X165511303Y-120152436D01*
X165451303Y-120102436D01*
X165444698Y-120097291D01*
X165335468Y-120017851D01*
X165216200Y-119928400D01*
X165202263Y-119919310D01*
X165042263Y-119829310D01*
X165041677Y-119828982D01*
X164861677Y-119728982D01*
X164848846Y-119722769D01*
X164728846Y-119672769D01*
X164723905Y-119670830D01*
X164533905Y-119600830D01*
X164530161Y-119599517D01*
X164380161Y-119549517D01*
X164372321Y-119547182D01*
X164182321Y-119497182D01*
X164178557Y-119496252D01*
X164048557Y-119466252D01*
X164035752Y-119463981D01*
X163795752Y-119433981D01*
X163787922Y-119433247D01*
X163627922Y-119423247D01*
X163620000Y-119423000D01*
X163500283Y-119423000D01*
X160660000Y-119416674D01*
X160660000Y-76577000D01*
X163760000Y-76577000D01*
X163777961Y-76575724D01*
X163917961Y-76555724D01*
X163922718Y-76554951D01*
X164030320Y-76535387D01*
X164097961Y-76525724D01*
X164107550Y-76523976D01*
X164194235Y-76504713D01*
X164310879Y-76485272D01*
X164335590Y-76478535D01*
X164462892Y-76429573D01*
X164580161Y-76390483D01*
X164587167Y-76387917D01*
X164687167Y-76347917D01*
X164690028Y-76346731D01*
X164830028Y-76286731D01*
X164842491Y-76280561D01*
X165072491Y-76150561D01*
X165078676Y-76146830D01*
X165218676Y-76056830D01*
X165222830Y-76054042D01*
X165320110Y-75985946D01*
X165397310Y-75937696D01*
X165409336Y-75929170D01*
X165459336Y-75889170D01*
X165465817Y-75883619D01*
X165585817Y-75773619D01*
X165589803Y-75769803D01*
X165709803Y-75649803D01*
X165716426Y-75642651D01*
X165773252Y-75576354D01*
X165829803Y-75519803D01*
X165837564Y-75511303D01*
X165887564Y-75451303D01*
X165892709Y-75444698D01*
X165972149Y-75335468D01*
X166061600Y-75216200D01*
X166070690Y-75202263D01*
X166160690Y-75042263D01*
X166161018Y-75041677D01*
X166261018Y-74861677D01*
X166267231Y-74848846D01*
X166317231Y-74728846D01*
X166319170Y-74723905D01*
X166389170Y-74533905D01*
X166390483Y-74530161D01*
X166440483Y-74380161D01*
X166442818Y-74372321D01*
X166492818Y-74182321D01*
X166493748Y-74178557D01*
X166523748Y-74048557D01*
X166526019Y-74035752D01*
X166556019Y-73795752D01*
X166556753Y-73787922D01*
X166566753Y-73627922D01*
X166567000Y-73620000D01*
X166567000Y-73500283D01*
X166573326Y-70660000D01*
X189993198Y-70660000D01*
X189600690Y-71052509D01*
%TA.AperFunction,Conductor*%
D21*
G36*
X189600690Y-71052509D02*
G01*
X189393411Y-70914010D01*
X189123158Y-70802068D01*
X188836260Y-70745000D01*
X188543740Y-70745000D01*
X188256842Y-70802068D01*
X187986589Y-70914010D01*
X187743368Y-71076525D01*
X187536525Y-71283368D01*
X187420000Y-71457760D01*
X187303475Y-71283368D01*
X187096632Y-71076525D01*
X186853411Y-70914010D01*
X186583158Y-70802068D01*
X186296260Y-70745000D01*
X186003740Y-70745000D01*
X185716842Y-70802068D01*
X185446589Y-70914010D01*
X185203368Y-71076525D01*
X184996525Y-71283368D01*
X184880000Y-71457760D01*
X184763475Y-71283368D01*
X184556632Y-71076525D01*
X184313411Y-70914010D01*
X184043158Y-70802068D01*
X183756260Y-70745000D01*
X183463740Y-70745000D01*
X183176842Y-70802068D01*
X182906589Y-70914010D01*
X182663368Y-71076525D01*
X182456525Y-71283368D01*
X182340000Y-71457760D01*
X182223475Y-71283368D01*
X182016632Y-71076525D01*
X181773411Y-70914010D01*
X181503158Y-70802068D01*
X181216260Y-70745000D01*
X180923740Y-70745000D01*
X180636842Y-70802068D01*
X180366589Y-70914010D01*
X180123368Y-71076525D01*
X179916525Y-71283368D01*
X179800000Y-71457760D01*
X179683475Y-71283368D01*
X179476632Y-71076525D01*
X179233411Y-70914010D01*
X178963158Y-70802068D01*
X178676260Y-70745000D01*
X178383740Y-70745000D01*
X178096842Y-70802068D01*
X177826589Y-70914010D01*
X177583368Y-71076525D01*
X177376525Y-71283368D01*
X177260000Y-71457760D01*
X177143475Y-71283368D01*
X176936632Y-71076525D01*
X176693411Y-70914010D01*
X176423158Y-70802068D01*
X176136260Y-70745000D01*
X175843740Y-70745000D01*
X175556842Y-70802068D01*
X175286589Y-70914010D01*
X175043368Y-71076525D01*
X174836525Y-71283368D01*
X174720000Y-71457760D01*
X174603475Y-71283368D01*
X174396632Y-71076525D01*
X174153411Y-70914010D01*
X173883158Y-70802068D01*
X173596260Y-70745000D01*
X173303740Y-70745000D01*
X173016842Y-70802068D01*
X172746589Y-70914010D01*
X172503368Y-71076525D01*
X172296525Y-71283368D01*
X172180000Y-71457760D01*
X172063475Y-71283368D01*
X171856632Y-71076525D01*
X171613411Y-70914010D01*
X171343158Y-70802068D01*
X171056260Y-70745000D01*
X170763740Y-70745000D01*
X170476842Y-70802068D01*
X170206589Y-70914010D01*
X169963368Y-71076525D01*
X169756525Y-71283368D01*
X169640000Y-71457760D01*
X169523475Y-71283368D01*
X169316632Y-71076525D01*
X169073411Y-70914010D01*
X168803158Y-70802068D01*
X168516260Y-70745000D01*
X168223740Y-70745000D01*
X167936842Y-70802068D01*
X167666589Y-70914010D01*
X167423368Y-71076525D01*
X167216525Y-71283368D01*
X167054010Y-71526589D01*
X166942068Y-71796842D01*
X166885000Y-72083740D01*
X166885000Y-72376260D01*
X166942068Y-72663158D01*
X167054010Y-72933411D01*
X167216525Y-73176632D01*
X167348380Y-73308487D01*
X167275820Y-73330498D01*
X167165506Y-73389463D01*
X167068815Y-73468815D01*
X166989463Y-73565506D01*
X166930498Y-73675820D01*
X166894188Y-73795518D01*
X166881928Y-73920000D01*
X166881928Y-75620000D01*
X166894188Y-75744482D01*
X166930498Y-75864180D01*
X166989463Y-75974494D01*
X167068815Y-76071185D01*
X167165506Y-76150537D01*
X167275820Y-76209502D01*
X167395518Y-76245812D01*
X167520000Y-76258072D01*
X169220000Y-76258072D01*
X169344482Y-76245812D01*
X169464180Y-76209502D01*
X169574494Y-76150537D01*
X169671185Y-76071185D01*
X169750537Y-75974494D01*
X169809502Y-75864180D01*
X169831513Y-75791620D01*
X169963368Y-75923475D01*
X170206589Y-76085990D01*
X170476842Y-76197932D01*
X170763740Y-76255000D01*
X171056260Y-76255000D01*
X171343158Y-76197932D01*
X171613411Y-76085990D01*
X171856632Y-75923475D01*
X172063475Y-75716632D01*
X172180000Y-75542240D01*
X172296525Y-75716632D01*
X172503368Y-75923475D01*
X172746589Y-76085990D01*
X173016842Y-76197932D01*
X173303740Y-76255000D01*
X173596260Y-76255000D01*
X173883158Y-76197932D01*
X174153411Y-76085990D01*
X174396632Y-75923475D01*
X174603475Y-75716632D01*
X174720000Y-75542240D01*
X174836525Y-75716632D01*
X175043368Y-75923475D01*
X175230000Y-76048179D01*
X175230001Y-85627668D01*
X175226324Y-85665000D01*
X175240998Y-85813985D01*
X175284454Y-85957246D01*
X175355026Y-86089276D01*
X175394063Y-86136842D01*
X175450000Y-86205001D01*
X175478998Y-86228799D01*
X183886928Y-94636730D01*
X183886928Y-94875000D01*
X183903031Y-95038500D01*
X183950722Y-95195716D01*
X184028169Y-95340608D01*
X184132394Y-95467606D01*
X184171866Y-95500000D01*
X184132394Y-95532394D01*
X184028169Y-95659392D01*
X183950722Y-95804284D01*
X183903031Y-95961500D01*
X183886928Y-96125000D01*
X183886928Y-96525000D01*
X183903031Y-96688500D01*
X183950722Y-96845716D01*
X184028169Y-96990608D01*
X184132394Y-97117606D01*
X184259392Y-97221831D01*
X184404284Y-97299278D01*
X184561500Y-97346969D01*
X184699909Y-97360601D01*
X184560478Y-97402897D01*
X184361912Y-97509032D01*
X184187868Y-97651867D01*
X184045033Y-97825911D01*
X183938897Y-98024477D01*
X183873539Y-98239933D01*
X183857000Y-98407854D01*
X183857000Y-99731145D01*
X183873539Y-99899066D01*
X183896875Y-99975994D01*
X183903031Y-100038500D01*
X183950722Y-100195716D01*
X184028169Y-100340608D01*
X184132394Y-100467606D01*
X184171866Y-100500000D01*
X184132394Y-100532394D01*
X184028169Y-100659392D01*
X183950722Y-100804284D01*
X183903031Y-100961500D01*
X183886928Y-101125000D01*
X183886928Y-101525000D01*
X183903031Y-101688500D01*
X183950722Y-101845716D01*
X184028169Y-101990608D01*
X184132394Y-102117606D01*
X184259392Y-102221831D01*
X184404284Y-102299278D01*
X184561500Y-102346969D01*
X184725000Y-102363072D01*
X184963271Y-102363072D01*
X190366360Y-107766162D01*
X190243411Y-107684010D01*
X189973158Y-107572068D01*
X189686260Y-107515000D01*
X189393740Y-107515000D01*
X189106842Y-107572068D01*
X188836589Y-107684010D01*
X188593368Y-107846525D01*
X188461513Y-107978380D01*
X188439502Y-107905820D01*
X188380537Y-107795506D01*
X188301185Y-107698815D01*
X188204494Y-107619463D01*
X188094180Y-107560498D01*
X187974482Y-107524188D01*
X187850000Y-107511928D01*
X187760000Y-107511928D01*
X187760000Y-106712323D01*
X187763676Y-106675000D01*
X187760000Y-106637677D01*
X187760000Y-106637667D01*
X187749003Y-106526014D01*
X187705546Y-106382753D01*
X187634975Y-106250725D01*
X187634974Y-106250723D01*
X187563799Y-106163997D01*
X187540001Y-106134999D01*
X187511004Y-106111202D01*
X181113072Y-99713271D01*
X181113072Y-99475000D01*
X181096969Y-99311500D01*
X181049278Y-99154284D01*
X180971831Y-99009392D01*
X180867606Y-98882394D01*
X180740608Y-98778169D01*
X180595716Y-98700722D01*
X180453592Y-98657609D01*
X181351003Y-97760199D01*
X181380001Y-97736401D01*
X181418081Y-97690000D01*
X181474974Y-97620677D01*
X181545546Y-97488647D01*
X181557552Y-97449067D01*
X181589003Y-97345386D01*
X181600000Y-97233733D01*
X181600000Y-97233723D01*
X181603676Y-97196400D01*
X181600000Y-97159078D01*
X181600000Y-95552322D01*
X181603676Y-95514999D01*
X181600000Y-95477676D01*
X181600000Y-95477667D01*
X181589003Y-95366014D01*
X181545546Y-95222753D01*
X181474974Y-95090724D01*
X181451328Y-95061911D01*
X181403799Y-95003996D01*
X181403795Y-95003992D01*
X181380001Y-94974999D01*
X181351009Y-94951206D01*
X181113072Y-94713270D01*
X181113072Y-94475000D01*
X181096969Y-94311500D01*
X181049278Y-94154284D01*
X180971831Y-94009392D01*
X180867606Y-93882394D01*
X180740608Y-93778169D01*
X180595716Y-93700722D01*
X180438500Y-93653031D01*
X180275000Y-93636928D01*
X180036731Y-93636928D01*
X174998804Y-88599003D01*
X174975001Y-88569999D01*
X174859276Y-88475026D01*
X174727247Y-88404454D01*
X174583986Y-88360997D01*
X174472333Y-88350000D01*
X174472322Y-88350000D01*
X174435000Y-88346324D01*
X174397678Y-88350000D01*
X166818178Y-88350000D01*
X166693475Y-88163368D01*
X166486632Y-87956525D01*
X166312240Y-87840000D01*
X166486632Y-87723475D01*
X166693475Y-87516632D01*
X166855990Y-87273411D01*
X166967932Y-87003158D01*
X167025000Y-86716260D01*
X167025000Y-86423740D01*
X166967932Y-86136842D01*
X166855990Y-85866589D01*
X166693475Y-85623368D01*
X166486632Y-85416525D01*
X166243411Y-85254010D01*
X165973158Y-85142068D01*
X165686260Y-85085000D01*
X165393740Y-85085000D01*
X165106842Y-85142068D01*
X164836589Y-85254010D01*
X164593368Y-85416525D01*
X164461513Y-85548380D01*
X164439502Y-85475820D01*
X164380537Y-85365506D01*
X164301185Y-85268815D01*
X164204494Y-85189463D01*
X164094180Y-85130498D01*
X163974482Y-85094188D01*
X163850000Y-85081928D01*
X162150000Y-85081928D01*
X162025518Y-85094188D01*
X161905820Y-85130498D01*
X161795506Y-85189463D01*
X161698815Y-85268815D01*
X161619463Y-85365506D01*
X161560498Y-85475820D01*
X161524188Y-85595518D01*
X161511928Y-85720000D01*
X161511928Y-87420000D01*
X161524188Y-87544482D01*
X161560498Y-87664180D01*
X161619463Y-87774494D01*
X161698815Y-87871185D01*
X161795506Y-87950537D01*
X161905820Y-88009502D01*
X161978380Y-88031513D01*
X161846525Y-88163368D01*
X161684010Y-88406589D01*
X161572068Y-88676842D01*
X161515000Y-88963740D01*
X161515000Y-89256260D01*
X161572068Y-89543158D01*
X161684010Y-89813411D01*
X161846525Y-90056632D01*
X162053368Y-90263475D01*
X162227760Y-90380000D01*
X162053368Y-90496525D01*
X161846525Y-90703368D01*
X161684010Y-90946589D01*
X161572068Y-91216842D01*
X161515000Y-91503740D01*
X161515000Y-91796260D01*
X161572068Y-92083158D01*
X161684010Y-92353411D01*
X161846525Y-92596632D01*
X162053368Y-92803475D01*
X162227760Y-92920000D01*
X162053368Y-93036525D01*
X161846525Y-93243368D01*
X161684010Y-93486589D01*
X161572068Y-93756842D01*
X161515000Y-94043740D01*
X161515000Y-94336260D01*
X161572068Y-94623158D01*
X161684010Y-94893411D01*
X161846525Y-95136632D01*
X162053368Y-95343475D01*
X162227760Y-95460000D01*
X162053368Y-95576525D01*
X161846525Y-95783368D01*
X161684010Y-96026589D01*
X161572068Y-96296842D01*
X161515000Y-96583740D01*
X161515000Y-96876260D01*
X161572068Y-97163158D01*
X161684010Y-97433411D01*
X161846525Y-97676632D01*
X162053368Y-97883475D01*
X162227760Y-98000000D01*
X162053368Y-98116525D01*
X161846525Y-98323368D01*
X161684010Y-98566589D01*
X161572068Y-98836842D01*
X161515000Y-99123740D01*
X161515000Y-99416260D01*
X161572068Y-99703158D01*
X161684010Y-99973411D01*
X161846525Y-100216632D01*
X162053368Y-100423475D01*
X162227760Y-100540000D01*
X162053368Y-100656525D01*
X161846525Y-100863368D01*
X161684010Y-101106589D01*
X161572068Y-101376842D01*
X161515000Y-101663740D01*
X161515000Y-101956260D01*
X161572068Y-102243158D01*
X161684010Y-102513411D01*
X161846525Y-102756632D01*
X162053368Y-102963475D01*
X162227760Y-103080000D01*
X162053368Y-103196525D01*
X161846525Y-103403368D01*
X161684010Y-103646589D01*
X161572068Y-103916842D01*
X161515000Y-104203740D01*
X161515000Y-104496260D01*
X161572068Y-104783158D01*
X161684010Y-105053411D01*
X161846525Y-105296632D01*
X162053368Y-105503475D01*
X162227760Y-105620000D01*
X162053368Y-105736525D01*
X161846525Y-105943368D01*
X161684010Y-106186589D01*
X161572068Y-106456842D01*
X161515000Y-106743740D01*
X161515000Y-107036260D01*
X161572068Y-107323158D01*
X161684010Y-107593411D01*
X161846525Y-107836632D01*
X162053368Y-108043475D01*
X162227760Y-108160000D01*
X162053368Y-108276525D01*
X161846525Y-108483368D01*
X161684010Y-108726589D01*
X161572068Y-108996842D01*
X161515000Y-109283740D01*
X161515000Y-109576260D01*
X161572068Y-109863158D01*
X161684010Y-110133411D01*
X161846525Y-110376632D01*
X162053368Y-110583475D01*
X162296589Y-110745990D01*
X162566842Y-110857932D01*
X162853740Y-110915000D01*
X163146260Y-110915000D01*
X163433158Y-110857932D01*
X163703411Y-110745990D01*
X163946632Y-110583475D01*
X164153475Y-110376632D01*
X164270000Y-110202240D01*
X164386525Y-110376632D01*
X164593368Y-110583475D01*
X164836589Y-110745990D01*
X165106842Y-110857932D01*
X165393740Y-110915000D01*
X165686260Y-110915000D01*
X165973158Y-110857932D01*
X166243411Y-110745990D01*
X166486632Y-110583475D01*
X166693475Y-110376632D01*
X166855990Y-110133411D01*
X166967932Y-109863158D01*
X167025000Y-109576260D01*
X167025000Y-109283740D01*
X166967932Y-108996842D01*
X166855990Y-108726589D01*
X166693475Y-108483368D01*
X166486632Y-108276525D01*
X166312240Y-108160000D01*
X166486632Y-108043475D01*
X166693475Y-107836632D01*
X166855990Y-107593411D01*
X166967932Y-107323158D01*
X167025000Y-107036260D01*
X167025000Y-106743740D01*
X166967932Y-106456842D01*
X166855990Y-106186589D01*
X166693475Y-105943368D01*
X166486632Y-105736525D01*
X166312240Y-105620000D01*
X166486632Y-105503475D01*
X166693475Y-105296632D01*
X166855990Y-105053411D01*
X166967932Y-104783158D01*
X167025000Y-104496260D01*
X167025000Y-104203740D01*
X166967932Y-103916842D01*
X166855990Y-103646589D01*
X166693475Y-103403368D01*
X166486632Y-103196525D01*
X166312240Y-103080000D01*
X166486632Y-102963475D01*
X166693475Y-102756632D01*
X166855990Y-102513411D01*
X166967932Y-102243158D01*
X167025000Y-101956260D01*
X167025000Y-101663740D01*
X166967932Y-101376842D01*
X166855990Y-101106589D01*
X166693475Y-100863368D01*
X166486632Y-100656525D01*
X166312240Y-100540000D01*
X166486632Y-100423475D01*
X166693475Y-100216632D01*
X166855990Y-99973411D01*
X166967932Y-99703158D01*
X167025000Y-99416260D01*
X167025000Y-99123740D01*
X166967932Y-98836842D01*
X166896919Y-98665400D01*
X172915599Y-98665400D01*
X173886928Y-99636730D01*
X173886928Y-99875000D01*
X173903031Y-100038500D01*
X173950722Y-100195716D01*
X174028169Y-100340608D01*
X174132394Y-100467606D01*
X174171866Y-100500000D01*
X174132394Y-100532394D01*
X174028169Y-100659392D01*
X173950722Y-100804284D01*
X173903031Y-100961500D01*
X173896875Y-101024006D01*
X173873539Y-101100934D01*
X173857000Y-101268855D01*
X173857000Y-102666146D01*
X173873539Y-102834067D01*
X173938897Y-103049523D01*
X174045033Y-103248089D01*
X174187868Y-103422133D01*
X174361912Y-103564968D01*
X174560478Y-103671103D01*
X174775934Y-103736461D01*
X175000000Y-103758530D01*
X175224067Y-103736461D01*
X175439523Y-103671103D01*
X175638089Y-103564968D01*
X175812133Y-103422133D01*
X175954968Y-103248089D01*
X176061103Y-103049523D01*
X176126461Y-102834067D01*
X176143000Y-102666146D01*
X176143000Y-101268854D01*
X176126461Y-101100933D01*
X176103125Y-101024005D01*
X176096969Y-100961500D01*
X176049278Y-100804284D01*
X175971831Y-100659392D01*
X175867606Y-100532394D01*
X175828134Y-100500000D01*
X175867606Y-100467606D01*
X175971831Y-100340608D01*
X176049278Y-100195716D01*
X176096969Y-100038500D01*
X176113072Y-99875000D01*
X176113072Y-99475000D01*
X176096969Y-99311500D01*
X176049278Y-99154284D01*
X175971831Y-99009392D01*
X175867606Y-98882394D01*
X175740608Y-98778169D01*
X175595716Y-98700722D01*
X175438500Y-98653031D01*
X175275000Y-98636928D01*
X175036730Y-98636928D01*
X173794204Y-97394403D01*
X173770401Y-97365399D01*
X173654676Y-97270426D01*
X173522647Y-97199854D01*
X173379386Y-97156397D01*
X173267733Y-97145400D01*
X173267722Y-97145400D01*
X173230400Y-97141724D01*
X173193078Y-97145400D01*
X166971464Y-97145400D01*
X167025000Y-96876260D01*
X167025000Y-96583740D01*
X166967932Y-96296842D01*
X166855990Y-96026589D01*
X166693475Y-95783368D01*
X166486632Y-95576525D01*
X166312240Y-95460000D01*
X166486632Y-95343475D01*
X166693475Y-95136632D01*
X166855990Y-94893411D01*
X166967932Y-94623158D01*
X167025000Y-94336260D01*
X167025000Y-94043740D01*
X166967932Y-93756842D01*
X166896877Y-93585300D01*
X167370399Y-93585300D01*
X169796100Y-96011002D01*
X169819899Y-96040001D01*
X169848897Y-96063799D01*
X169935623Y-96134974D01*
X170012401Y-96176013D01*
X170067653Y-96205546D01*
X170210914Y-96249003D01*
X170322567Y-96260000D01*
X170322577Y-96260000D01*
X170359899Y-96263676D01*
X170397222Y-96260000D01*
X173886928Y-96260000D01*
X173886928Y-96525000D01*
X173903031Y-96688500D01*
X173950722Y-96845716D01*
X174028169Y-96990608D01*
X174132394Y-97117606D01*
X174259392Y-97221831D01*
X174404284Y-97299278D01*
X174561500Y-97346969D01*
X174725000Y-97363072D01*
X174963271Y-97363072D01*
X176951101Y-99350903D01*
X176974899Y-99379901D01*
X177090624Y-99474874D01*
X177222653Y-99545446D01*
X177365914Y-99588903D01*
X177477567Y-99599900D01*
X177477575Y-99599900D01*
X177514900Y-99603576D01*
X177552225Y-99599900D01*
X178436500Y-99599900D01*
X178436501Y-100484168D01*
X178432824Y-100521500D01*
X178436501Y-100558833D01*
X178447498Y-100670486D01*
X178455824Y-100697932D01*
X178490954Y-100813746D01*
X178561526Y-100945776D01*
X178613561Y-101009180D01*
X178656500Y-101061501D01*
X178685498Y-101085299D01*
X178886928Y-101286729D01*
X178886928Y-101525000D01*
X178903031Y-101688500D01*
X178950722Y-101845716D01*
X179028169Y-101990608D01*
X179132394Y-102117606D01*
X179259392Y-102221831D01*
X179404284Y-102299278D01*
X179561500Y-102346969D01*
X179725000Y-102363072D01*
X179963271Y-102363072D01*
X182854001Y-105253803D01*
X182854000Y-119837091D01*
X182839537Y-119843082D01*
X182571748Y-120022013D01*
X182344013Y-120249748D01*
X182165082Y-120517537D01*
X182041832Y-120815088D01*
X181979000Y-121130967D01*
X181979000Y-121453033D01*
X182041832Y-121768912D01*
X182165082Y-122066463D01*
X182344013Y-122334252D01*
X182571748Y-122561987D01*
X182839537Y-122740918D01*
X183137088Y-122864168D01*
X183452967Y-122927000D01*
X183775033Y-122927000D01*
X184090912Y-122864168D01*
X184388463Y-122740918D01*
X184656252Y-122561987D01*
X184883987Y-122334252D01*
X185062918Y-122066463D01*
X185186168Y-121768912D01*
X185249000Y-121453033D01*
X185249000Y-121130967D01*
X188979000Y-121130967D01*
X188979000Y-121453033D01*
X189041832Y-121768912D01*
X189165082Y-122066463D01*
X189344013Y-122334252D01*
X189571748Y-122561987D01*
X189839537Y-122740918D01*
X190137088Y-122864168D01*
X190452967Y-122927000D01*
X190775033Y-122927000D01*
X191090912Y-122864168D01*
X191388463Y-122740918D01*
X191656252Y-122561987D01*
X191883987Y-122334252D01*
X192062918Y-122066463D01*
X192186168Y-121768912D01*
X192249000Y-121453033D01*
X192249000Y-121130967D01*
X195979000Y-121130967D01*
X195979000Y-121453033D01*
X196041832Y-121768912D01*
X196165082Y-122066463D01*
X196344013Y-122334252D01*
X196571748Y-122561987D01*
X196839537Y-122740918D01*
X197137088Y-122864168D01*
X197452967Y-122927000D01*
X197775033Y-122927000D01*
X198090912Y-122864168D01*
X198388463Y-122740918D01*
X198656252Y-122561987D01*
X198883987Y-122334252D01*
X199062918Y-122066463D01*
X199186168Y-121768912D01*
X199249000Y-121453033D01*
X199249000Y-121130967D01*
X199186168Y-120815088D01*
X199062918Y-120517537D01*
X198883987Y-120249748D01*
X198656252Y-120022013D01*
X198388463Y-119843082D01*
X198090912Y-119719832D01*
X197775033Y-119657000D01*
X197452967Y-119657000D01*
X197137088Y-119719832D01*
X196839537Y-119843082D01*
X196571748Y-120022013D01*
X196344013Y-120249748D01*
X196165082Y-120517537D01*
X196041832Y-120815088D01*
X195979000Y-121130967D01*
X192249000Y-121130967D01*
X192186168Y-120815088D01*
X192062918Y-120517537D01*
X191883987Y-120249748D01*
X191656252Y-120022013D01*
X191388463Y-119843082D01*
X191090912Y-119719832D01*
X190775033Y-119657000D01*
X190452967Y-119657000D01*
X190137088Y-119719832D01*
X189839537Y-119843082D01*
X189571748Y-120022013D01*
X189344013Y-120249748D01*
X189165082Y-120517537D01*
X189041832Y-120815088D01*
X188979000Y-121130967D01*
X185249000Y-121130967D01*
X185186168Y-120815088D01*
X185062918Y-120517537D01*
X184883987Y-120249748D01*
X184656252Y-120022013D01*
X184388463Y-119843082D01*
X184374000Y-119837091D01*
X184374000Y-116880967D01*
X185479000Y-116880967D01*
X185479000Y-117203033D01*
X185541832Y-117518912D01*
X185665082Y-117816463D01*
X185844013Y-118084252D01*
X186071748Y-118311987D01*
X186339537Y-118490918D01*
X186637088Y-118614168D01*
X186952967Y-118677000D01*
X187275033Y-118677000D01*
X187590912Y-118614168D01*
X187888463Y-118490918D01*
X188156252Y-118311987D01*
X188383987Y-118084252D01*
X188562918Y-117816463D01*
X188686168Y-117518912D01*
X188749000Y-117203033D01*
X188749000Y-116880967D01*
X192479000Y-116880967D01*
X192479000Y-117203033D01*
X192541832Y-117518912D01*
X192665082Y-117816463D01*
X192844013Y-118084252D01*
X193071748Y-118311987D01*
X193339537Y-118490918D01*
X193637088Y-118614168D01*
X193952967Y-118677000D01*
X194275033Y-118677000D01*
X194590912Y-118614168D01*
X194888463Y-118490918D01*
X195156252Y-118311987D01*
X195383987Y-118084252D01*
X195562918Y-117816463D01*
X195686168Y-117518912D01*
X195749000Y-117203033D01*
X195749000Y-116880967D01*
X199479000Y-116880967D01*
X199479000Y-117203033D01*
X199541832Y-117518912D01*
X199665082Y-117816463D01*
X199844013Y-118084252D01*
X200071748Y-118311987D01*
X200339537Y-118490918D01*
X200637088Y-118614168D01*
X200952967Y-118677000D01*
X201275033Y-118677000D01*
X201590912Y-118614168D01*
X201888463Y-118490918D01*
X202156252Y-118311987D01*
X202383987Y-118084252D01*
X202562918Y-117816463D01*
X202686168Y-117518912D01*
X202749000Y-117203033D01*
X202749000Y-116880967D01*
X202686168Y-116565088D01*
X202562918Y-116267537D01*
X202383987Y-115999748D01*
X202156252Y-115772013D01*
X201888463Y-115593082D01*
X201590912Y-115469832D01*
X201275033Y-115407000D01*
X200952967Y-115407000D01*
X200637088Y-115469832D01*
X200339537Y-115593082D01*
X200071748Y-115772013D01*
X199844013Y-115999748D01*
X199665082Y-116267537D01*
X199541832Y-116565088D01*
X199479000Y-116880967D01*
X195749000Y-116880967D01*
X195686168Y-116565088D01*
X195562918Y-116267537D01*
X195383987Y-115999748D01*
X195156252Y-115772013D01*
X194888463Y-115593082D01*
X194590912Y-115469832D01*
X194275033Y-115407000D01*
X193952967Y-115407000D01*
X193637088Y-115469832D01*
X193339537Y-115593082D01*
X193071748Y-115772013D01*
X192844013Y-115999748D01*
X192665082Y-116267537D01*
X192541832Y-116565088D01*
X192479000Y-116880967D01*
X188749000Y-116880967D01*
X188686168Y-116565088D01*
X188562918Y-116267537D01*
X188383987Y-115999748D01*
X188156252Y-115772013D01*
X187888463Y-115593082D01*
X187590912Y-115469832D01*
X187275033Y-115407000D01*
X186952967Y-115407000D01*
X186637088Y-115469832D01*
X186339537Y-115593082D01*
X186071748Y-115772013D01*
X185844013Y-115999748D01*
X185665082Y-116267537D01*
X185541832Y-116565088D01*
X185479000Y-116880967D01*
X184374000Y-116880967D01*
X184374000Y-105123802D01*
X186240000Y-106989802D01*
X186240000Y-107511928D01*
X186150000Y-107511928D01*
X186025518Y-107524188D01*
X185905820Y-107560498D01*
X185795506Y-107619463D01*
X185698815Y-107698815D01*
X185619463Y-107795506D01*
X185560498Y-107905820D01*
X185524188Y-108025518D01*
X185511928Y-108150000D01*
X185511928Y-109850000D01*
X185524188Y-109974482D01*
X185560498Y-110094180D01*
X185619463Y-110204494D01*
X185698815Y-110301185D01*
X185795506Y-110380537D01*
X185905820Y-110439502D01*
X186025518Y-110475812D01*
X186150000Y-110488072D01*
X187850000Y-110488072D01*
X187974482Y-110475812D01*
X188094180Y-110439502D01*
X188204494Y-110380537D01*
X188301185Y-110301185D01*
X188380537Y-110204494D01*
X188439502Y-110094180D01*
X188461513Y-110021620D01*
X188593368Y-110153475D01*
X188836589Y-110315990D01*
X189106842Y-110427932D01*
X189393740Y-110485000D01*
X189686260Y-110485000D01*
X189973158Y-110427932D01*
X190243411Y-110315990D01*
X190486632Y-110153475D01*
X190693475Y-109946632D01*
X190810000Y-109772240D01*
X190926525Y-109946632D01*
X191133368Y-110153475D01*
X191376589Y-110315990D01*
X191646842Y-110427932D01*
X191933740Y-110485000D01*
X192226260Y-110485000D01*
X192513158Y-110427932D01*
X192783411Y-110315990D01*
X193026632Y-110153475D01*
X193233475Y-109946632D01*
X193395990Y-109703411D01*
X193507932Y-109433158D01*
X193565000Y-109146260D01*
X193565000Y-108853740D01*
X193507932Y-108566842D01*
X193395990Y-108296589D01*
X193233475Y-108053368D01*
X193026632Y-107846525D01*
X192833089Y-107717204D01*
X192829003Y-107675714D01*
X192785546Y-107532453D01*
X192714974Y-107400424D01*
X192620001Y-107284699D01*
X192504276Y-107189726D01*
X192372247Y-107119154D01*
X192228986Y-107075697D01*
X192117333Y-107064700D01*
X192080000Y-107061023D01*
X192042667Y-107064700D01*
X191814502Y-107064700D01*
X186113072Y-101363271D01*
X186113072Y-101125000D01*
X186096969Y-100961500D01*
X186049278Y-100804284D01*
X185971831Y-100659392D01*
X185867606Y-100532394D01*
X185828134Y-100500000D01*
X185867606Y-100467606D01*
X185971831Y-100340608D01*
X186049278Y-100195716D01*
X186096969Y-100038500D01*
X186103125Y-99975995D01*
X186126461Y-99899067D01*
X186143000Y-99731146D01*
X186143000Y-98542801D01*
X203854000Y-116253802D01*
X203854001Y-119837091D01*
X203839537Y-119843082D01*
X203571748Y-120022013D01*
X203344013Y-120249748D01*
X203165082Y-120517537D01*
X203041832Y-120815088D01*
X202979000Y-121130967D01*
X202979000Y-121453033D01*
X203041832Y-121768912D01*
X203165082Y-122066463D01*
X203344013Y-122334252D01*
X203571748Y-122561987D01*
X203839537Y-122740918D01*
X204137088Y-122864168D01*
X204452967Y-122927000D01*
X204775033Y-122927000D01*
X205090912Y-122864168D01*
X205388463Y-122740918D01*
X205656252Y-122561987D01*
X205883987Y-122334252D01*
X206062918Y-122066463D01*
X206186168Y-121768912D01*
X206249000Y-121453033D01*
X206249000Y-121130967D01*
X206186168Y-120815088D01*
X206062918Y-120517537D01*
X205883987Y-120249748D01*
X205656252Y-120022013D01*
X205388463Y-119843082D01*
X205374000Y-119837091D01*
X205374000Y-115976323D01*
X205377676Y-115939000D01*
X205374000Y-115901677D01*
X205374000Y-115901667D01*
X205363003Y-115790014D01*
X205319546Y-115646753D01*
X205248974Y-115514724D01*
X205154001Y-115398999D01*
X205125004Y-115375202D01*
X189611470Y-99861668D01*
X189714250Y-99860000D01*
X189873000Y-99701250D01*
X189873000Y-98952000D01*
X189048750Y-98952000D01*
X188890000Y-99110750D01*
X188889229Y-99139428D01*
X186724801Y-96975000D01*
X188886928Y-96975000D01*
X188886928Y-97375000D01*
X188903031Y-97538500D01*
X188950722Y-97695716D01*
X189028169Y-97840608D01*
X189111863Y-97942590D01*
X189073815Y-97973815D01*
X188994463Y-98070506D01*
X188935498Y-98180820D01*
X188899188Y-98300518D01*
X188886928Y-98425000D01*
X188890000Y-98539250D01*
X189048750Y-98698000D01*
X189873000Y-98698000D01*
X189873000Y-98678000D01*
X190127000Y-98678000D01*
X190127000Y-98698000D01*
X190147000Y-98698000D01*
X190147000Y-98952000D01*
X190127000Y-98952000D01*
X190127000Y-99701250D01*
X190285750Y-99860000D01*
X190475000Y-99863072D01*
X190599482Y-99850812D01*
X190719180Y-99814502D01*
X190829494Y-99755537D01*
X190926185Y-99676185D01*
X191005537Y-99579494D01*
X191064502Y-99469180D01*
X191100549Y-99350350D01*
X208420400Y-116670202D01*
X208420401Y-120537968D01*
X208416724Y-120575300D01*
X208420401Y-120612633D01*
X208426128Y-120670774D01*
X208431398Y-120724285D01*
X208474854Y-120867546D01*
X208545426Y-120999576D01*
X208616601Y-121086302D01*
X208640400Y-121115301D01*
X208669398Y-121139099D01*
X212579201Y-125048903D01*
X212602999Y-125077901D01*
X212718724Y-125172874D01*
X212850753Y-125243446D01*
X212994014Y-125286903D01*
X213105667Y-125297900D01*
X213105675Y-125297900D01*
X213143000Y-125301576D01*
X213180325Y-125297900D01*
X234862278Y-125297900D01*
X234899600Y-125301576D01*
X234936922Y-125297900D01*
X234936933Y-125297900D01*
X235048586Y-125286903D01*
X235191847Y-125243446D01*
X235323876Y-125172874D01*
X235439601Y-125077901D01*
X235463404Y-125048898D01*
X235675979Y-124836322D01*
X235693750Y-124838072D01*
X236181250Y-124838072D01*
X236353285Y-124821128D01*
X236518709Y-124770947D01*
X236671164Y-124689458D01*
X236804792Y-124579792D01*
X236914458Y-124446164D01*
X236995947Y-124293709D01*
X237046128Y-124128285D01*
X237063072Y-123956250D01*
X237063072Y-123043750D01*
X237046128Y-122871715D01*
X236995947Y-122706291D01*
X236914458Y-122553836D01*
X236804792Y-122420208D01*
X236671164Y-122310542D01*
X236518709Y-122229053D01*
X236353285Y-122178872D01*
X236181250Y-122161928D01*
X235693750Y-122161928D01*
X235521715Y-122178872D01*
X235356291Y-122229053D01*
X235204000Y-122310454D01*
X235204000Y-121609854D01*
X235187461Y-121441933D01*
X235122103Y-121226477D01*
X235015968Y-121027911D01*
X234873133Y-120853867D01*
X234699088Y-120711032D01*
X234500522Y-120604897D01*
X234285066Y-120539539D01*
X234061000Y-120517470D01*
X233836933Y-120539539D01*
X233621477Y-120604897D01*
X233422911Y-120711032D01*
X233248867Y-120853867D01*
X233106032Y-121027912D01*
X232999897Y-121226478D01*
X232934539Y-121441934D01*
X232918000Y-121609855D01*
X232918000Y-123482473D01*
X232915360Y-123579418D01*
X232927481Y-123650406D01*
X232934540Y-123722067D01*
X232936928Y-123729939D01*
X232936928Y-123777900D01*
X213457802Y-123777900D01*
X212729216Y-123049315D01*
X212748088Y-123042795D01*
X212922044Y-122949814D01*
X213017808Y-122685413D01*
X212062000Y-121729605D01*
X212047858Y-121743748D01*
X211868253Y-121564143D01*
X211882395Y-121550000D01*
X212241605Y-121550000D01*
X213197413Y-122505808D01*
X213461814Y-122410044D01*
X213602704Y-122120429D01*
X213684384Y-121808892D01*
X213703718Y-121487405D01*
X213690219Y-121388967D01*
X213927000Y-121388967D01*
X213927000Y-121711033D01*
X213989832Y-122026912D01*
X214113082Y-122324463D01*
X214292013Y-122592252D01*
X214519748Y-122819987D01*
X214787537Y-122998918D01*
X215085088Y-123122168D01*
X215400967Y-123185000D01*
X215723033Y-123185000D01*
X216038912Y-123122168D01*
X216336463Y-122998918D01*
X216604252Y-122819987D01*
X216738826Y-122685413D01*
X218106192Y-122685413D01*
X218201956Y-122949814D01*
X218491571Y-123090704D01*
X218803108Y-123172384D01*
X219124595Y-123191718D01*
X219443675Y-123147961D01*
X219748088Y-123042795D01*
X219922044Y-122949814D01*
X220017808Y-122685413D01*
X219062000Y-121729605D01*
X218106192Y-122685413D01*
X216738826Y-122685413D01*
X216831987Y-122592252D01*
X217010918Y-122324463D01*
X217134168Y-122026912D01*
X217197000Y-121711033D01*
X217197000Y-121612595D01*
X217420282Y-121612595D01*
X217464039Y-121931675D01*
X217569205Y-122236088D01*
X217662186Y-122410044D01*
X217926587Y-122505808D01*
X218882395Y-121550000D01*
X219241605Y-121550000D01*
X220197413Y-122505808D01*
X220461814Y-122410044D01*
X220602704Y-122120429D01*
X220684384Y-121808892D01*
X220703718Y-121487405D01*
X220690219Y-121388967D01*
X220927000Y-121388967D01*
X220927000Y-121711033D01*
X220989832Y-122026912D01*
X221113082Y-122324463D01*
X221292013Y-122592252D01*
X221519748Y-122819987D01*
X221787537Y-122998918D01*
X222085088Y-123122168D01*
X222400967Y-123185000D01*
X222723033Y-123185000D01*
X223038912Y-123122168D01*
X223336463Y-122998918D01*
X223604252Y-122819987D01*
X223831987Y-122592252D01*
X224010918Y-122324463D01*
X224134168Y-122026912D01*
X224197000Y-121711033D01*
X224197000Y-121388967D01*
X224134168Y-121073088D01*
X224010918Y-120775537D01*
X223831987Y-120507748D01*
X223604252Y-120280013D01*
X223336463Y-120101082D01*
X223038912Y-119977832D01*
X222723033Y-119915000D01*
X222400967Y-119915000D01*
X222085088Y-119977832D01*
X221787537Y-120101082D01*
X221519748Y-120280013D01*
X221292013Y-120507748D01*
X221113082Y-120775537D01*
X220989832Y-121073088D01*
X220927000Y-121388967D01*
X220690219Y-121388967D01*
X220659961Y-121168325D01*
X220554795Y-120863912D01*
X220461814Y-120689956D01*
X220197413Y-120594192D01*
X219241605Y-121550000D01*
X218882395Y-121550000D01*
X217926587Y-120594192D01*
X217662186Y-120689956D01*
X217521296Y-120979571D01*
X217439616Y-121291108D01*
X217420282Y-121612595D01*
X217197000Y-121612595D01*
X217197000Y-121388967D01*
X217134168Y-121073088D01*
X217010918Y-120775537D01*
X216831987Y-120507748D01*
X216738826Y-120414587D01*
X218106192Y-120414587D01*
X219062000Y-121370395D01*
X220017808Y-120414587D01*
X219922044Y-120150186D01*
X219632429Y-120009296D01*
X219320892Y-119927616D01*
X218999405Y-119908282D01*
X218680325Y-119952039D01*
X218375912Y-120057205D01*
X218201956Y-120150186D01*
X218106192Y-120414587D01*
X216738826Y-120414587D01*
X216604252Y-120280013D01*
X216336463Y-120101082D01*
X216038912Y-119977832D01*
X215723033Y-119915000D01*
X215400967Y-119915000D01*
X215085088Y-119977832D01*
X214787537Y-120101082D01*
X214519748Y-120280013D01*
X214292013Y-120507748D01*
X214113082Y-120775537D01*
X213989832Y-121073088D01*
X213927000Y-121388967D01*
X213690219Y-121388967D01*
X213659961Y-121168325D01*
X213554795Y-120863912D01*
X213461814Y-120689956D01*
X213197413Y-120594192D01*
X212241605Y-121550000D01*
X211882395Y-121550000D01*
X210926587Y-120594192D01*
X210662186Y-120689956D01*
X210566516Y-120886615D01*
X210094488Y-120414587D01*
X211106192Y-120414587D01*
X212062000Y-121370395D01*
X213017808Y-120414587D01*
X212922044Y-120150186D01*
X212632429Y-120009296D01*
X212320892Y-119927616D01*
X211999405Y-119908282D01*
X211680325Y-119952039D01*
X211375912Y-120057205D01*
X211201956Y-120150186D01*
X211106192Y-120414587D01*
X210094488Y-120414587D01*
X209940400Y-120260499D01*
X209940400Y-116392723D01*
X209944076Y-116355400D01*
X209940400Y-116318077D01*
X209940400Y-116318067D01*
X209929403Y-116206414D01*
X209885946Y-116063153D01*
X209815374Y-115931124D01*
X209720401Y-115815399D01*
X209691404Y-115791602D01*
X206226692Y-112326890D01*
X238058524Y-112326890D01*
X238103175Y-112474099D01*
X238228359Y-112736920D01*
X238402412Y-112970269D01*
X238618645Y-113165178D01*
X238868748Y-113314157D01*
X239143109Y-113411481D01*
X239373000Y-113290814D01*
X239373000Y-112097000D01*
X239627000Y-112097000D01*
X239627000Y-113290814D01*
X239856891Y-113411481D01*
X240131252Y-113314157D01*
X240381355Y-113165178D01*
X240597588Y-112970269D01*
X240770000Y-112739120D01*
X240942412Y-112970269D01*
X241158645Y-113165178D01*
X241408748Y-113314157D01*
X241683109Y-113411481D01*
X241913000Y-113290814D01*
X241913000Y-112097000D01*
X242167000Y-112097000D01*
X242167000Y-113290814D01*
X242396891Y-113411481D01*
X242671252Y-113314157D01*
X242921355Y-113165178D01*
X243137588Y-112970269D01*
X243311641Y-112736920D01*
X243436825Y-112474099D01*
X243481476Y-112326890D01*
X243360155Y-112097000D01*
X242167000Y-112097000D01*
X241913000Y-112097000D01*
X239627000Y-112097000D01*
X239373000Y-112097000D01*
X238179845Y-112097000D01*
X238058524Y-112326890D01*
X206226692Y-112326890D01*
X191549802Y-97650000D01*
X199448000Y-97650000D01*
X199448000Y-98375000D01*
X199450466Y-98399907D01*
X199525466Y-98774907D01*
X199527886Y-98784890D01*
X199577886Y-98959890D01*
X199582083Y-98972167D01*
X199631575Y-99095897D01*
X199706086Y-99294593D01*
X199716098Y-99315341D01*
X199788593Y-99436166D01*
X199836408Y-99531796D01*
X199841098Y-99540341D01*
X199916098Y-99665341D01*
X199923400Y-99676200D01*
X199998400Y-99776200D01*
X200003050Y-99782035D01*
X200278050Y-100107035D01*
X200285197Y-100114803D01*
X200535197Y-100364803D01*
X200543697Y-100372564D01*
X200693697Y-100497564D01*
X200708440Y-100508161D01*
X201033440Y-100708161D01*
X201043204Y-100713592D01*
X201293204Y-100838592D01*
X201309839Y-100845483D01*
X201609839Y-100945483D01*
X201615110Y-100947114D01*
X201790110Y-100997114D01*
X201800093Y-100999534D01*
X202050093Y-101049534D01*
X202068325Y-101051824D01*
X202543325Y-101076824D01*
X202559740Y-101076626D01*
X202884740Y-101051626D01*
X202894311Y-101050523D01*
X203219311Y-101000523D01*
X203240161Y-100995483D01*
X203390161Y-100945483D01*
X203393401Y-100944354D01*
X203668401Y-100844354D01*
X203676580Y-100841054D01*
X203847701Y-100765000D01*
X215096928Y-100765000D01*
X215109188Y-100889482D01*
X215145498Y-101009180D01*
X215204463Y-101119494D01*
X215283815Y-101216185D01*
X215380506Y-101295537D01*
X215490820Y-101354502D01*
X215610518Y-101390812D01*
X215735000Y-101403072D01*
X216369250Y-101400000D01*
X216528000Y-101241250D01*
X216528000Y-100427000D01*
X216782000Y-100427000D01*
X216782000Y-101241250D01*
X216940750Y-101400000D01*
X217575000Y-101403072D01*
X217699482Y-101390812D01*
X217819180Y-101354502D01*
X217929494Y-101295537D01*
X218026185Y-101216185D01*
X218105537Y-101119494D01*
X218164502Y-101009180D01*
X218200812Y-100889482D01*
X218213072Y-100765000D01*
X218210000Y-100585750D01*
X218051250Y-100427000D01*
X216782000Y-100427000D01*
X216528000Y-100427000D01*
X215258750Y-100427000D01*
X215100000Y-100585750D01*
X215096928Y-100765000D01*
X203847701Y-100765000D01*
X203901580Y-100741054D01*
X203906796Y-100738592D01*
X204106796Y-100638592D01*
X204120447Y-100630670D01*
X204345447Y-100480670D01*
X204351200Y-100476600D01*
X204451200Y-100401600D01*
X204464803Y-100389803D01*
X204739803Y-100114803D01*
X204747564Y-100106303D01*
X204997564Y-99806303D01*
X205005670Y-99795447D01*
X205155670Y-99570447D01*
X205160267Y-99563010D01*
X205260267Y-99388010D01*
X205266731Y-99375028D01*
X205331028Y-99225000D01*
X212386928Y-99225000D01*
X212399188Y-99349482D01*
X212435498Y-99469180D01*
X212494463Y-99579494D01*
X212573815Y-99676185D01*
X212670506Y-99755537D01*
X212780820Y-99814502D01*
X212900518Y-99850812D01*
X213025000Y-99863072D01*
X213214250Y-99860000D01*
X213373000Y-99701250D01*
X213373000Y-98902000D01*
X213627000Y-98902000D01*
X213627000Y-99701250D01*
X213785750Y-99860000D01*
X213975000Y-99863072D01*
X214099482Y-99850812D01*
X214219180Y-99814502D01*
X214329494Y-99755537D01*
X214426185Y-99676185D01*
X214505537Y-99579494D01*
X214564502Y-99469180D01*
X214600812Y-99349482D01*
X214613072Y-99225000D01*
X214610000Y-99060750D01*
X214451250Y-98902000D01*
X213627000Y-98902000D01*
X213373000Y-98902000D01*
X212548750Y-98902000D01*
X212390000Y-99060750D01*
X212386928Y-99225000D01*
X205331028Y-99225000D01*
X205341731Y-99200028D01*
X205345483Y-99190161D01*
X205394739Y-99042393D01*
X205468914Y-98844593D01*
X205474181Y-98826610D01*
X205549181Y-98476610D01*
X205551223Y-98464025D01*
X205576223Y-98239025D01*
X205577000Y-98225000D01*
X205577000Y-97850000D01*
X205576370Y-97837363D01*
X205551370Y-97587363D01*
X205550272Y-97579121D01*
X205525272Y-97429121D01*
X205522525Y-97416584D01*
X205470275Y-97225000D01*
X212351471Y-97225000D01*
X212373539Y-97449067D01*
X212393229Y-97513976D01*
X212403512Y-97618377D01*
X212452625Y-97780283D01*
X212530700Y-97926351D01*
X212494463Y-97970506D01*
X212435498Y-98080820D01*
X212399188Y-98200518D01*
X212386928Y-98325000D01*
X212390000Y-98489250D01*
X212548750Y-98648000D01*
X213373000Y-98648000D01*
X213373000Y-98628000D01*
X213627000Y-98628000D01*
X213627000Y-98648000D01*
X214451250Y-98648000D01*
X214610000Y-98489250D01*
X214613072Y-98325000D01*
X214600812Y-98200518D01*
X214564502Y-98080820D01*
X214505537Y-97970506D01*
X214469300Y-97926351D01*
X214531543Y-97809902D01*
X215498446Y-96843000D01*
X216711146Y-96843000D01*
X216879067Y-96826461D01*
X216956170Y-96803072D01*
X217088545Y-96803072D01*
X217060762Y-96811500D01*
X217051353Y-96814354D01*
X216919323Y-96884926D01*
X216904699Y-96896928D01*
X215735000Y-96896928D01*
X215610518Y-96909188D01*
X215490820Y-96945498D01*
X215380506Y-97004463D01*
X215283815Y-97083815D01*
X215204463Y-97180506D01*
X215145498Y-97290820D01*
X215109188Y-97410518D01*
X215096928Y-97535000D01*
X215096928Y-98465000D01*
X215109188Y-98589482D01*
X215145498Y-98709180D01*
X215204463Y-98819494D01*
X215283815Y-98916185D01*
X215380506Y-98995537D01*
X215490820Y-99054502D01*
X215610518Y-99090812D01*
X215735000Y-99103072D01*
X215828500Y-99103072D01*
X215828500Y-99197381D01*
X215735000Y-99196928D01*
X215610518Y-99209188D01*
X215490820Y-99245498D01*
X215380506Y-99304463D01*
X215283815Y-99383815D01*
X215204463Y-99480506D01*
X215145498Y-99590820D01*
X215109188Y-99710518D01*
X215096928Y-99835000D01*
X215100000Y-100014250D01*
X215258750Y-100173000D01*
X216528000Y-100173000D01*
X216528000Y-100153000D01*
X216708774Y-100153000D01*
X216761561Y-100163500D01*
X216782000Y-100163500D01*
X216782000Y-100173000D01*
X218051250Y-100173000D01*
X218210000Y-100014250D01*
X218213072Y-99835000D01*
X218200812Y-99710518D01*
X218164502Y-99590820D01*
X218105537Y-99480506D01*
X218026185Y-99383815D01*
X217929494Y-99304463D01*
X217888170Y-99282374D01*
X217898500Y-99230439D01*
X217898500Y-99026561D01*
X217895901Y-99013493D01*
X217929494Y-98995537D01*
X218026185Y-98916185D01*
X218105537Y-98819494D01*
X218164502Y-98709180D01*
X218200812Y-98589482D01*
X218213072Y-98465000D01*
X218213072Y-98279900D01*
X221266928Y-98279900D01*
X221266928Y-99595000D01*
X221279188Y-99719482D01*
X221315498Y-99839180D01*
X221374463Y-99949494D01*
X221453815Y-100046185D01*
X221550506Y-100125537D01*
X221660820Y-100184502D01*
X221780518Y-100220812D01*
X221905000Y-100233072D01*
X223745000Y-100233072D01*
X223869482Y-100220812D01*
X223989180Y-100184502D01*
X224099494Y-100125537D01*
X224196185Y-100046185D01*
X224275537Y-99949494D01*
X224334502Y-99839180D01*
X224370812Y-99719482D01*
X224383072Y-99595000D01*
X224383072Y-98519900D01*
X224711275Y-98519900D01*
X224718992Y-98598255D01*
X224769528Y-98764851D01*
X224851595Y-98918387D01*
X224962038Y-99052962D01*
X225096613Y-99163405D01*
X225250149Y-99245472D01*
X225280000Y-99254527D01*
X225280001Y-100419171D01*
X225169717Y-100452625D01*
X225020503Y-100532382D01*
X224889716Y-100639716D01*
X224782382Y-100770503D01*
X224702625Y-100919717D01*
X224653512Y-101081623D01*
X224636928Y-101250000D01*
X224636928Y-101750000D01*
X224653512Y-101918377D01*
X224702625Y-102080283D01*
X224782382Y-102229497D01*
X224889716Y-102360284D01*
X225020503Y-102467618D01*
X225169717Y-102547375D01*
X225331623Y-102596488D01*
X225500000Y-102613072D01*
X225950000Y-102613072D01*
X226118377Y-102596488D01*
X226280283Y-102547375D01*
X226429497Y-102467618D01*
X226500000Y-102409758D01*
X226570503Y-102467618D01*
X226719717Y-102547375D01*
X226881623Y-102596488D01*
X226986023Y-102606771D01*
X227050933Y-102626461D01*
X227275000Y-102648530D01*
X227499066Y-102626461D01*
X227563976Y-102606771D01*
X227668377Y-102596488D01*
X227830283Y-102547375D01*
X227979497Y-102467618D01*
X228110284Y-102360284D01*
X228217618Y-102229497D01*
X228297375Y-102080283D01*
X228346488Y-101918377D01*
X228348397Y-101898995D01*
X228401461Y-101724067D01*
X228418000Y-101556146D01*
X228418000Y-99938445D01*
X229043374Y-99313072D01*
X229190001Y-99313072D01*
X229363255Y-99296008D01*
X229529851Y-99245472D01*
X229639244Y-99187000D01*
X230688146Y-99187000D01*
X230856067Y-99170461D01*
X231071523Y-99105103D01*
X231270089Y-98998968D01*
X231444133Y-98856133D01*
X231586968Y-98682089D01*
X231693103Y-98483523D01*
X231758461Y-98268067D01*
X231780530Y-98044000D01*
X231758461Y-97819933D01*
X231693103Y-97604477D01*
X231586968Y-97405911D01*
X231444133Y-97231867D01*
X231270089Y-97089032D01*
X231071523Y-96982897D01*
X230856067Y-96917539D01*
X230688146Y-96901000D01*
X229761865Y-96901000D01*
X229683387Y-96836595D01*
X229529851Y-96754528D01*
X229363255Y-96703992D01*
X229190001Y-96686928D01*
X229043374Y-96686928D01*
X228418000Y-96061555D01*
X228418000Y-94443854D01*
X228401461Y-94275933D01*
X228348397Y-94101005D01*
X228346488Y-94081623D01*
X228297375Y-93919717D01*
X228217618Y-93770503D01*
X228110284Y-93639716D01*
X227979497Y-93532382D01*
X227830283Y-93452625D01*
X227668377Y-93403512D01*
X227563976Y-93393229D01*
X227499066Y-93373539D01*
X227275000Y-93351470D01*
X227050933Y-93373539D01*
X226986023Y-93393229D01*
X226881623Y-93403512D01*
X226719717Y-93452625D01*
X226570503Y-93532382D01*
X226500000Y-93590242D01*
X226429497Y-93532382D01*
X226280283Y-93452625D01*
X226118377Y-93403512D01*
X225950000Y-93386928D01*
X225500000Y-93386928D01*
X225331623Y-93403512D01*
X225169717Y-93452625D01*
X225020503Y-93532382D01*
X224889716Y-93639716D01*
X224782382Y-93770503D01*
X224702625Y-93919717D01*
X224653512Y-94081623D01*
X224636928Y-94250000D01*
X224636928Y-94750000D01*
X224653512Y-94918377D01*
X224702625Y-95080283D01*
X224782382Y-95229497D01*
X224889716Y-95360284D01*
X224965001Y-95422068D01*
X224965000Y-96944607D01*
X224962038Y-96947038D01*
X224918655Y-96999900D01*
X224383072Y-96999900D01*
X224383072Y-96405000D01*
X224370812Y-96280518D01*
X224334502Y-96160820D01*
X224275537Y-96050506D01*
X224196185Y-95953815D01*
X224099494Y-95874463D01*
X223989180Y-95815498D01*
X223869482Y-95779188D01*
X223745000Y-95766928D01*
X221905000Y-95766928D01*
X221780518Y-95779188D01*
X221660820Y-95815498D01*
X221550506Y-95874463D01*
X221453815Y-95953815D01*
X221374463Y-96050506D01*
X221315498Y-96160820D01*
X221279188Y-96280518D01*
X221266928Y-96405000D01*
X221266928Y-96759900D01*
X217801385Y-96759900D01*
X217819180Y-96754502D01*
X217929494Y-96695537D01*
X218026185Y-96616185D01*
X218105537Y-96519494D01*
X218164502Y-96409180D01*
X218200812Y-96289482D01*
X218213072Y-96165000D01*
X218213072Y-95235000D01*
X218200812Y-95110518D01*
X218164502Y-94990820D01*
X218105537Y-94880506D01*
X218026185Y-94783815D01*
X217929494Y-94704463D01*
X217819180Y-94645498D01*
X217699482Y-94609188D01*
X217575000Y-94596928D01*
X216956170Y-94596928D01*
X216879067Y-94573539D01*
X216711146Y-94557000D01*
X215081139Y-94557000D01*
X215025000Y-94551471D01*
X214968861Y-94557000D01*
X214968854Y-94557000D01*
X214821517Y-94571512D01*
X214800932Y-94573539D01*
X214585476Y-94638897D01*
X214546456Y-94659754D01*
X214386911Y-94745032D01*
X214212867Y-94887867D01*
X214177077Y-94931477D01*
X212890098Y-96218457D01*
X212770503Y-96282382D01*
X212639716Y-96389716D01*
X212532382Y-96520503D01*
X212452625Y-96669717D01*
X212403512Y-96831623D01*
X212393229Y-96936024D01*
X212373539Y-97000933D01*
X212351471Y-97225000D01*
X205470275Y-97225000D01*
X205447525Y-97141584D01*
X205444601Y-97132285D01*
X205319601Y-96782285D01*
X205316731Y-96774972D01*
X205241731Y-96599972D01*
X205233902Y-96584659D01*
X205083902Y-96334659D01*
X205078344Y-96326183D01*
X204953344Y-96151183D01*
X204947564Y-96143697D01*
X204822564Y-95993697D01*
X204820577Y-95991370D01*
X204645577Y-95791370D01*
X204633630Y-95779423D01*
X204433630Y-95604423D01*
X204421715Y-95595186D01*
X203946715Y-95270186D01*
X203926580Y-95258946D01*
X203701580Y-95158946D01*
X203694593Y-95156086D01*
X203494593Y-95081086D01*
X203480802Y-95076792D01*
X203180802Y-95001792D01*
X203174907Y-95000466D01*
X202924907Y-94950466D01*
X202912637Y-94948630D01*
X202662637Y-94923630D01*
X202650000Y-94923000D01*
X202300000Y-94923000D01*
X202282039Y-94924276D01*
X201932039Y-94974276D01*
X201919198Y-94976792D01*
X201719198Y-95026792D01*
X201709839Y-95029517D01*
X201559839Y-95079517D01*
X201555407Y-95081086D01*
X201155407Y-95231086D01*
X201136990Y-95239733D01*
X200961990Y-95339733D01*
X200954553Y-95344330D01*
X200654553Y-95544330D01*
X200645664Y-95550830D01*
X200520664Y-95650830D01*
X200510197Y-95660197D01*
X200235197Y-95935197D01*
X200225830Y-95945664D01*
X200025830Y-96195664D01*
X200020582Y-96202710D01*
X199795582Y-96527710D01*
X199786408Y-96543204D01*
X199736408Y-96643204D01*
X199732083Y-96652833D01*
X199682083Y-96777833D01*
X199681086Y-96780407D01*
X199606575Y-96979103D01*
X199557083Y-97102833D01*
X199551792Y-97119198D01*
X199526792Y-97219198D01*
X199526024Y-97222450D01*
X199476024Y-97447450D01*
X199474276Y-97457039D01*
X199449276Y-97632039D01*
X199448000Y-97650000D01*
X191549802Y-97650000D01*
X191113072Y-97213271D01*
X191113072Y-96975000D01*
X191096969Y-96811500D01*
X191049278Y-96654284D01*
X190971831Y-96509392D01*
X190867606Y-96382394D01*
X190740608Y-96278169D01*
X190595716Y-96200722D01*
X190438500Y-96153031D01*
X190275000Y-96136928D01*
X189725000Y-96136928D01*
X189561500Y-96153031D01*
X189404284Y-96200722D01*
X189259392Y-96278169D01*
X189132394Y-96382394D01*
X189028169Y-96509392D01*
X188950722Y-96654284D01*
X188903031Y-96811500D01*
X188886928Y-96975000D01*
X186724801Y-96975000D01*
X186113072Y-96363271D01*
X186113072Y-96125000D01*
X186096969Y-95961500D01*
X186049278Y-95804284D01*
X185971831Y-95659392D01*
X185867606Y-95532394D01*
X185828134Y-95500000D01*
X185867606Y-95467606D01*
X185971831Y-95340608D01*
X186049278Y-95195716D01*
X186096969Y-95038500D01*
X186113072Y-94875000D01*
X186113072Y-94475000D01*
X186096969Y-94311500D01*
X186049278Y-94154284D01*
X185971831Y-94009392D01*
X185867606Y-93882394D01*
X185740608Y-93778169D01*
X185595716Y-93700722D01*
X185438500Y-93653031D01*
X185275000Y-93636928D01*
X185036730Y-93636928D01*
X176750000Y-85350199D01*
X176750000Y-83180000D01*
X238011928Y-83180000D01*
X238011928Y-84880000D01*
X238024188Y-85004482D01*
X238060498Y-85124180D01*
X238119463Y-85234494D01*
X238198815Y-85331185D01*
X238295506Y-85410537D01*
X238405820Y-85469502D01*
X238478380Y-85491513D01*
X238346525Y-85623368D01*
X238184010Y-85866589D01*
X238072068Y-86136842D01*
X238015000Y-86423740D01*
X238015000Y-86716260D01*
X238072068Y-87003158D01*
X238184010Y-87273411D01*
X238346525Y-87516632D01*
X238553368Y-87723475D01*
X238727760Y-87840000D01*
X238553368Y-87956525D01*
X238346525Y-88163368D01*
X238184010Y-88406589D01*
X238072068Y-88676842D01*
X238015000Y-88963740D01*
X238015000Y-89256260D01*
X238072068Y-89543158D01*
X238184010Y-89813411D01*
X238346525Y-90056632D01*
X238553368Y-90263475D01*
X238727760Y-90380000D01*
X238553368Y-90496525D01*
X238346525Y-90703368D01*
X238184010Y-90946589D01*
X238072068Y-91216842D01*
X238015000Y-91503740D01*
X238015000Y-91796260D01*
X238072068Y-92083158D01*
X238184010Y-92353411D01*
X238346525Y-92596632D01*
X238553368Y-92803475D01*
X238727760Y-92920000D01*
X238553368Y-93036525D01*
X238346525Y-93243368D01*
X238184010Y-93486589D01*
X238072068Y-93756842D01*
X238015000Y-94043740D01*
X238015000Y-94336260D01*
X238072068Y-94623158D01*
X238184010Y-94893411D01*
X238346525Y-95136632D01*
X238553368Y-95343475D01*
X238727760Y-95460000D01*
X238553368Y-95576525D01*
X238346525Y-95783368D01*
X238184010Y-96026589D01*
X238072068Y-96296842D01*
X238015000Y-96583740D01*
X238015000Y-96876260D01*
X238072068Y-97163158D01*
X238184010Y-97433411D01*
X238346525Y-97676632D01*
X238553368Y-97883475D01*
X238727760Y-98000000D01*
X238553368Y-98116525D01*
X238346525Y-98323368D01*
X238184010Y-98566589D01*
X238072068Y-98836842D01*
X238015000Y-99123740D01*
X238015000Y-99416260D01*
X238072068Y-99703158D01*
X238184010Y-99973411D01*
X238346525Y-100216632D01*
X238553368Y-100423475D01*
X238727760Y-100540000D01*
X238553368Y-100656525D01*
X238346525Y-100863368D01*
X238184010Y-101106589D01*
X238072068Y-101376842D01*
X238015000Y-101663740D01*
X238015000Y-101956260D01*
X238072068Y-102243158D01*
X238184010Y-102513411D01*
X238346525Y-102756632D01*
X238553368Y-102963475D01*
X238727760Y-103080000D01*
X238553368Y-103196525D01*
X238346525Y-103403368D01*
X238184010Y-103646589D01*
X238072068Y-103916842D01*
X238015000Y-104203740D01*
X238015000Y-104496260D01*
X238072068Y-104783158D01*
X238184010Y-105053411D01*
X238346525Y-105296632D01*
X238553368Y-105503475D01*
X238727760Y-105620000D01*
X238553368Y-105736525D01*
X238346525Y-105943368D01*
X238184010Y-106186589D01*
X238072068Y-106456842D01*
X238015000Y-106743740D01*
X238015000Y-107036260D01*
X238072068Y-107323158D01*
X238184010Y-107593411D01*
X238346525Y-107836632D01*
X238553368Y-108043475D01*
X238727760Y-108160000D01*
X238553368Y-108276525D01*
X238346525Y-108483368D01*
X238184010Y-108726589D01*
X238072068Y-108996842D01*
X238015000Y-109283740D01*
X238015000Y-109576260D01*
X238072068Y-109863158D01*
X238184010Y-110133411D01*
X238346525Y-110376632D01*
X238553368Y-110583475D01*
X238735534Y-110705195D01*
X238618645Y-110774822D01*
X238402412Y-110969731D01*
X238228359Y-111203080D01*
X238103175Y-111465901D01*
X238058524Y-111613110D01*
X238179845Y-111843000D01*
X239373000Y-111843000D01*
X239373000Y-111823000D01*
X239627000Y-111823000D01*
X239627000Y-111843000D01*
X241913000Y-111843000D01*
X241913000Y-111823000D01*
X242167000Y-111823000D01*
X242167000Y-111843000D01*
X243360155Y-111843000D01*
X243481476Y-111613110D01*
X243436825Y-111465901D01*
X243311641Y-111203080D01*
X243137588Y-110969731D01*
X242921355Y-110774822D01*
X242804466Y-110705195D01*
X242986632Y-110583475D01*
X243193475Y-110376632D01*
X243355990Y-110133411D01*
X243467932Y-109863158D01*
X243525000Y-109576260D01*
X243525000Y-109283740D01*
X243467932Y-108996842D01*
X243355990Y-108726589D01*
X243193475Y-108483368D01*
X242986632Y-108276525D01*
X242812240Y-108160000D01*
X242986632Y-108043475D01*
X243193475Y-107836632D01*
X243355990Y-107593411D01*
X243467932Y-107323158D01*
X243525000Y-107036260D01*
X243525000Y-106743740D01*
X243467932Y-106456842D01*
X243355990Y-106186589D01*
X243193475Y-105943368D01*
X242986632Y-105736525D01*
X242812240Y-105620000D01*
X242986632Y-105503475D01*
X243193475Y-105296632D01*
X243355990Y-105053411D01*
X243467932Y-104783158D01*
X243525000Y-104496260D01*
X243525000Y-104203740D01*
X243467932Y-103916842D01*
X243355990Y-103646589D01*
X243193475Y-103403368D01*
X242986632Y-103196525D01*
X242812240Y-103080000D01*
X242986632Y-102963475D01*
X243193475Y-102756632D01*
X243355990Y-102513411D01*
X243467932Y-102243158D01*
X243525000Y-101956260D01*
X243525000Y-101663740D01*
X243467932Y-101376842D01*
X243355990Y-101106589D01*
X243193475Y-100863368D01*
X242986632Y-100656525D01*
X242812240Y-100540000D01*
X242986632Y-100423475D01*
X243193475Y-100216632D01*
X243355990Y-99973411D01*
X243467932Y-99703158D01*
X243525000Y-99416260D01*
X243525000Y-99123740D01*
X243467932Y-98836842D01*
X243355990Y-98566589D01*
X243193475Y-98323368D01*
X242986632Y-98116525D01*
X242812240Y-98000000D01*
X242986632Y-97883475D01*
X243193475Y-97676632D01*
X243355990Y-97433411D01*
X243467932Y-97163158D01*
X243525000Y-96876260D01*
X243525000Y-96583740D01*
X243467932Y-96296842D01*
X243355990Y-96026589D01*
X243193475Y-95783368D01*
X242986632Y-95576525D01*
X242812240Y-95460000D01*
X242986632Y-95343475D01*
X243193475Y-95136632D01*
X243355990Y-94893411D01*
X243467932Y-94623158D01*
X243525000Y-94336260D01*
X243525000Y-94043740D01*
X243467932Y-93756842D01*
X243355990Y-93486589D01*
X243193475Y-93243368D01*
X242986632Y-93036525D01*
X242812240Y-92920000D01*
X242986632Y-92803475D01*
X243193475Y-92596632D01*
X243355990Y-92353411D01*
X243467932Y-92083158D01*
X243525000Y-91796260D01*
X243525000Y-91503740D01*
X243467932Y-91216842D01*
X243355990Y-90946589D01*
X243193475Y-90703368D01*
X242986632Y-90496525D01*
X242812240Y-90380000D01*
X242986632Y-90263475D01*
X243193475Y-90056632D01*
X243355990Y-89813411D01*
X243467932Y-89543158D01*
X243525000Y-89256260D01*
X243525000Y-88963740D01*
X243467932Y-88676842D01*
X243355990Y-88406589D01*
X243193475Y-88163368D01*
X242986632Y-87956525D01*
X242812240Y-87840000D01*
X242986632Y-87723475D01*
X243193475Y-87516632D01*
X243355990Y-87273411D01*
X243467932Y-87003158D01*
X243525000Y-86716260D01*
X243525000Y-86423740D01*
X243467932Y-86136842D01*
X243355990Y-85866589D01*
X243193475Y-85623368D01*
X242986632Y-85416525D01*
X242812240Y-85300000D01*
X242986632Y-85183475D01*
X243193475Y-84976632D01*
X243355990Y-84733411D01*
X243467932Y-84463158D01*
X243525000Y-84176260D01*
X243525000Y-83883740D01*
X243467932Y-83596842D01*
X243355990Y-83326589D01*
X243193475Y-83083368D01*
X242986632Y-82876525D01*
X242743411Y-82714010D01*
X242473158Y-82602068D01*
X242186260Y-82545000D01*
X241893740Y-82545000D01*
X241606842Y-82602068D01*
X241336589Y-82714010D01*
X241093368Y-82876525D01*
X240961513Y-83008380D01*
X240939502Y-82935820D01*
X240880537Y-82825506D01*
X240801185Y-82728815D01*
X240704494Y-82649463D01*
X240594180Y-82590498D01*
X240474482Y-82554188D01*
X240350000Y-82541928D01*
X238650000Y-82541928D01*
X238525518Y-82554188D01*
X238405820Y-82590498D01*
X238295506Y-82649463D01*
X238198815Y-82728815D01*
X238119463Y-82825506D01*
X238060498Y-82935820D01*
X238024188Y-83055518D01*
X238011928Y-83180000D01*
X176750000Y-83180000D01*
X176750000Y-81531161D01*
X211071800Y-81531161D01*
X211071800Y-81735039D01*
X211111574Y-81934998D01*
X211189595Y-82123356D01*
X211302863Y-82292874D01*
X211447026Y-82437037D01*
X211616544Y-82550305D01*
X211804902Y-82628326D01*
X212004861Y-82668100D01*
X212208739Y-82668100D01*
X212408698Y-82628326D01*
X212597056Y-82550305D01*
X212766574Y-82437037D01*
X212910737Y-82292874D01*
X213024005Y-82123356D01*
X213102026Y-81934998D01*
X213141800Y-81735039D01*
X213141800Y-81531161D01*
X213102026Y-81331202D01*
X213024005Y-81142844D01*
X212910737Y-80973326D01*
X212766574Y-80829163D01*
X212597056Y-80715895D01*
X212408698Y-80637874D01*
X212208739Y-80598100D01*
X212004861Y-80598100D01*
X211804902Y-80637874D01*
X211616544Y-80715895D01*
X211447026Y-80829163D01*
X211302863Y-80973326D01*
X211189595Y-81142844D01*
X211111574Y-81331202D01*
X211071800Y-81531161D01*
X176750000Y-81531161D01*
X176750000Y-76048178D01*
X176936632Y-75923475D01*
X177143475Y-75716632D01*
X177260000Y-75542240D01*
X177376525Y-75716632D01*
X177583368Y-75923475D01*
X177826589Y-76085990D01*
X178096842Y-76197932D01*
X178383740Y-76255000D01*
X178676260Y-76255000D01*
X178963158Y-76197932D01*
X179233411Y-76085990D01*
X179476632Y-75923475D01*
X179683475Y-75716632D01*
X179800000Y-75542240D01*
X179916525Y-75716632D01*
X180123368Y-75923475D01*
X180366589Y-76085990D01*
X180636842Y-76197932D01*
X180923740Y-76255000D01*
X181216260Y-76255000D01*
X181503158Y-76197932D01*
X181773411Y-76085990D01*
X182016632Y-75923475D01*
X182223475Y-75716632D01*
X182340000Y-75542240D01*
X182456525Y-75716632D01*
X182663368Y-75923475D01*
X182906589Y-76085990D01*
X183176842Y-76197932D01*
X183463740Y-76255000D01*
X183756260Y-76255000D01*
X184043158Y-76197932D01*
X184313411Y-76085990D01*
X184556632Y-75923475D01*
X184763475Y-75716632D01*
X184880000Y-75542240D01*
X184996525Y-75716632D01*
X185203368Y-75923475D01*
X185446589Y-76085990D01*
X185716842Y-76197932D01*
X186003740Y-76255000D01*
X186296260Y-76255000D01*
X186583158Y-76197932D01*
X186853411Y-76085990D01*
X187060690Y-75947491D01*
X190267801Y-79154603D01*
X190291599Y-79183601D01*
X190320597Y-79207399D01*
X190407323Y-79278574D01*
X190539353Y-79349146D01*
X190682614Y-79392603D01*
X190794267Y-79403600D01*
X190794277Y-79403600D01*
X190831599Y-79407276D01*
X190868922Y-79403600D01*
X226509078Y-79403600D01*
X226546400Y-79407276D01*
X226583722Y-79403600D01*
X226583733Y-79403600D01*
X226695386Y-79392603D01*
X226838647Y-79349146D01*
X226970676Y-79278574D01*
X227086401Y-79183601D01*
X227110203Y-79154598D01*
X227356114Y-78908688D01*
X227538665Y-78945000D01*
X227821335Y-78945000D01*
X228098574Y-78889853D01*
X228359727Y-78781680D01*
X228594759Y-78624637D01*
X228794637Y-78424759D01*
X228950000Y-78192241D01*
X229105363Y-78424759D01*
X229305241Y-78624637D01*
X229540273Y-78781680D01*
X229801426Y-78889853D01*
X230078665Y-78945000D01*
X230361335Y-78945000D01*
X230638574Y-78889853D01*
X230899727Y-78781680D01*
X231134759Y-78624637D01*
X231334637Y-78424759D01*
X231490000Y-78192241D01*
X231645363Y-78424759D01*
X231845241Y-78624637D01*
X232080273Y-78781680D01*
X232341426Y-78889853D01*
X232618665Y-78945000D01*
X232901335Y-78945000D01*
X233178574Y-78889853D01*
X233439727Y-78781680D01*
X233674759Y-78624637D01*
X233874637Y-78424759D01*
X234030000Y-78192241D01*
X234185363Y-78424759D01*
X234385241Y-78624637D01*
X234620273Y-78781680D01*
X234881426Y-78889853D01*
X235158665Y-78945000D01*
X235441335Y-78945000D01*
X235718574Y-78889853D01*
X235979727Y-78781680D01*
X236214759Y-78624637D01*
X236414637Y-78424759D01*
X236571680Y-78189727D01*
X236679853Y-77928574D01*
X236735000Y-77651335D01*
X236735000Y-77368665D01*
X236679853Y-77091426D01*
X236571680Y-76830273D01*
X236414637Y-76595241D01*
X236214759Y-76395363D01*
X235979727Y-76238320D01*
X235718574Y-76130147D01*
X235441335Y-76075000D01*
X235158665Y-76075000D01*
X234976114Y-76111312D01*
X234790000Y-75925199D01*
X234790000Y-73771983D01*
X234881426Y-73809853D01*
X235158665Y-73865000D01*
X235441335Y-73865000D01*
X235718574Y-73809853D01*
X235979727Y-73701680D01*
X236214759Y-73544637D01*
X236414637Y-73344759D01*
X236571680Y-73109727D01*
X236679853Y-72848574D01*
X236735000Y-72571335D01*
X236735000Y-72288665D01*
X236679853Y-72011426D01*
X236571680Y-71750273D01*
X236414637Y-71515241D01*
X236214759Y-71315363D01*
X235979727Y-71158320D01*
X235718574Y-71050147D01*
X235441335Y-70995000D01*
X235158665Y-70995000D01*
X234881426Y-71050147D01*
X234620273Y-71158320D01*
X234385241Y-71315363D01*
X234374353Y-71326251D01*
X233708101Y-70660000D01*
X238433000Y-70660000D01*
X238433000Y-73760000D01*
X238434276Y-73777961D01*
X238454276Y-73917961D01*
X238455049Y-73922718D01*
X238474613Y-74030320D01*
X238484276Y-74097961D01*
X238486024Y-74107550D01*
X238505287Y-74194235D01*
X238524728Y-74310879D01*
X238531465Y-74335590D01*
X238580428Y-74462893D01*
X238619517Y-74580161D01*
X238622083Y-74587167D01*
X238662083Y-74687167D01*
X238663269Y-74690028D01*
X238723269Y-74830028D01*
X238729439Y-74842491D01*
X238859439Y-75072491D01*
X238863170Y-75078676D01*
X238953170Y-75218676D01*
X238955958Y-75222830D01*
X239024054Y-75320110D01*
X239072304Y-75397310D01*
X239080830Y-75409336D01*
X239120830Y-75459336D01*
X239126381Y-75465817D01*
X239236381Y-75585817D01*
X239240197Y-75589803D01*
X239360197Y-75709803D01*
X239367349Y-75716426D01*
X239433646Y-75773252D01*
X239490197Y-75829803D01*
X239498697Y-75837564D01*
X239558697Y-75887564D01*
X239565302Y-75892709D01*
X239674532Y-75972149D01*
X239793800Y-76061600D01*
X239807737Y-76070690D01*
X239967737Y-76160690D01*
X239968323Y-76161018D01*
X240148323Y-76261018D01*
X240161154Y-76267231D01*
X240281154Y-76317231D01*
X240286095Y-76319170D01*
X240476095Y-76389170D01*
X240479839Y-76390483D01*
X240629839Y-76440483D01*
X240637679Y-76442818D01*
X240827679Y-76492818D01*
X240831443Y-76493748D01*
X240961443Y-76523748D01*
X240974248Y-76526019D01*
X241214248Y-76556019D01*
X241222078Y-76556753D01*
X241382078Y-76566753D01*
X241390000Y-76567000D01*
X241509717Y-76567000D01*
X244340000Y-76573304D01*
X244340001Y-119413000D01*
X241230000Y-119413000D01*
X241212039Y-119414276D01*
X241072039Y-119434276D01*
X241067282Y-119435049D01*
X240959680Y-119454613D01*
X240892039Y-119464276D01*
X240882450Y-119466024D01*
X240795765Y-119485287D01*
X240679121Y-119504728D01*
X240654410Y-119511465D01*
X240527107Y-119560428D01*
X240409839Y-119599517D01*
X240402833Y-119602083D01*
X240302833Y-119642083D01*
X240299972Y-119643269D01*
X240159972Y-119703269D01*
X240147509Y-119709439D01*
X239917509Y-119839439D01*
X239911324Y-119843170D01*
X239771324Y-119933170D01*
X239767170Y-119935958D01*
X239669890Y-120004054D01*
X239592690Y-120052304D01*
X239580664Y-120060830D01*
X239530664Y-120100830D01*
X239524183Y-120106381D01*
X239404183Y-120216381D01*
X239400197Y-120220197D01*
X239280197Y-120340197D01*
X239273574Y-120347349D01*
X239216748Y-120413646D01*
X239160197Y-120470197D01*
X239152436Y-120478697D01*
X239102436Y-120538697D01*
X239097291Y-120545302D01*
X239017851Y-120654532D01*
X238928400Y-120773800D01*
X238919310Y-120787737D01*
X238829310Y-120947737D01*
X238828982Y-120948323D01*
X238728982Y-121128323D01*
X238722769Y-121141154D01*
X238672769Y-121261154D01*
X238670830Y-121266095D01*
X238600830Y-121456095D01*
X238599517Y-121459839D01*
X238549517Y-121609839D01*
X238547182Y-121617679D01*
X238497182Y-121807679D01*
X238496252Y-121811443D01*
X238466252Y-121941443D01*
X238463981Y-121954248D01*
X238433981Y-122194248D01*
X238433247Y-122202078D01*
X238423247Y-122362078D01*
X238423000Y-122370000D01*
X238423000Y-122489717D01*
X238416652Y-125340000D01*
X166577000Y-125340000D01*
X166577000Y-122230000D01*
X166575724Y-122212039D01*
X166555724Y-122072039D01*
X166554951Y-122067282D01*
X166535387Y-121959680D01*
X166525724Y-121892039D01*
X166523976Y-121882450D01*
X166504713Y-121795765D01*
X166485272Y-121679121D01*
X166478535Y-121654410D01*
X166429573Y-121527108D01*
X166390483Y-121409839D01*
X166387917Y-121402833D01*
X166347917Y-121302833D01*
X166346731Y-121299972D01*
X166286731Y-121159972D01*
X166280561Y-121147509D01*
X166150561Y-120917509D01*
X166146830Y-120911324D01*
X166056830Y-120771324D01*
X166054042Y-120767170D01*
X165985946Y-120669890D01*
X165937696Y-120592690D01*
X165929170Y-120580664D01*
X165889170Y-120530664D01*
X165883619Y-120524183D01*
X165773619Y-120404183D01*
X165769803Y-120400197D01*
X165649803Y-120280197D01*
X165642651Y-120273574D01*
X165576354Y-120216748D01*
X165519803Y-120160197D01*
X165511303Y-120152436D01*
X165451303Y-120102436D01*
X165444698Y-120097291D01*
X165335468Y-120017851D01*
X165216200Y-119928400D01*
X165202263Y-119919310D01*
X165042263Y-119829310D01*
X165041677Y-119828982D01*
X164861677Y-119728982D01*
X164848846Y-119722769D01*
X164728846Y-119672769D01*
X164723905Y-119670830D01*
X164533905Y-119600830D01*
X164530161Y-119599517D01*
X164380161Y-119549517D01*
X164372321Y-119547182D01*
X164182321Y-119497182D01*
X164178557Y-119496252D01*
X164048557Y-119466252D01*
X164035752Y-119463981D01*
X163795752Y-119433981D01*
X163787922Y-119433247D01*
X163627922Y-119423247D01*
X163620000Y-119423000D01*
X163500283Y-119423000D01*
X160660000Y-119416674D01*
X160660000Y-76577000D01*
X163760000Y-76577000D01*
X163777961Y-76575724D01*
X163917961Y-76555724D01*
X163922718Y-76554951D01*
X164030320Y-76535387D01*
X164097961Y-76525724D01*
X164107550Y-76523976D01*
X164194235Y-76504713D01*
X164310879Y-76485272D01*
X164335590Y-76478535D01*
X164462892Y-76429573D01*
X164580161Y-76390483D01*
X164587167Y-76387917D01*
X164687167Y-76347917D01*
X164690028Y-76346731D01*
X164830028Y-76286731D01*
X164842491Y-76280561D01*
X165072491Y-76150561D01*
X165078676Y-76146830D01*
X165218676Y-76056830D01*
X165222830Y-76054042D01*
X165320110Y-75985946D01*
X165397310Y-75937696D01*
X165409336Y-75929170D01*
X165459336Y-75889170D01*
X165465817Y-75883619D01*
X165585817Y-75773619D01*
X165589803Y-75769803D01*
X165709803Y-75649803D01*
X165716426Y-75642651D01*
X165773252Y-75576354D01*
X165829803Y-75519803D01*
X165837564Y-75511303D01*
X165887564Y-75451303D01*
X165892709Y-75444698D01*
X165972149Y-75335468D01*
X166061600Y-75216200D01*
X166070690Y-75202263D01*
X166160690Y-75042263D01*
X166161018Y-75041677D01*
X166261018Y-74861677D01*
X166267231Y-74848846D01*
X166317231Y-74728846D01*
X166319170Y-74723905D01*
X166389170Y-74533905D01*
X166390483Y-74530161D01*
X166440483Y-74380161D01*
X166442818Y-74372321D01*
X166492818Y-74182321D01*
X166493748Y-74178557D01*
X166523748Y-74048557D01*
X166526019Y-74035752D01*
X166556019Y-73795752D01*
X166556753Y-73787922D01*
X166566753Y-73627922D01*
X166567000Y-73620000D01*
X166567000Y-73500283D01*
X166573326Y-70660000D01*
X189993198Y-70660000D01*
X189600690Y-71052509D01*
G37*
%TD.AperFunction*%
%TD*%
M02*
