%TF.GenerationSoftware,KiCad,Pcbnew,(5.1.9)-1*%
%TF.CreationDate,2021-10-12T14:35:24-04:00*%
%TF.ProjectId,Baja_Pi_Expansion,42616a61-5f50-4695-9f45-7870616e7369,rev?*%
%TF.SameCoordinates,Original*%
%TF.FileFunction,Legend,Top*%
%TF.FilePolarity,Positive*%
%FSLAX46Y46*%
G04 Gerber Fmt 4.6, Leading zero omitted, Abs format (unit mm)*
G04 Created by KiCad (PCBNEW (5.1.9)-1) date 2021-10-12 14:35:24*
%MOMM*%
%LPD*%
G01*
G04 APERTURE LIST*
%ADD10C,0.150000*%
%ADD11C,0.200000*%
%ADD12C,0.120000*%
G04 APERTURE END LIST*
D10*
X226251047Y-80049714D02*
X226965333Y-80049714D01*
X226536761Y-79621142D02*
X226251047Y-80906857D01*
X226870095Y-80478285D02*
X226155809Y-80478285D01*
X226584380Y-80906857D02*
X226870095Y-79621142D01*
X228203428Y-80716380D02*
X228108190Y-80668761D01*
X228060571Y-80621142D01*
X228012952Y-80525904D01*
X228012952Y-80240190D01*
X228060571Y-80144952D01*
X228108190Y-80097333D01*
X228203428Y-80049714D01*
X228346285Y-80049714D01*
X228441523Y-80097333D01*
X228489142Y-80144952D01*
X228536761Y-80240190D01*
X228536761Y-80525904D01*
X228489142Y-80621142D01*
X228441523Y-80668761D01*
X228346285Y-80716380D01*
X228203428Y-80716380D01*
X228822476Y-80049714D02*
X229203428Y-80049714D01*
X228965333Y-80716380D02*
X228965333Y-79859238D01*
X229012952Y-79764000D01*
X229108190Y-79716380D01*
X229203428Y-79716380D01*
X230632000Y-80192571D02*
X230774857Y-80240190D01*
X230822476Y-80287809D01*
X230870095Y-80383047D01*
X230870095Y-80525904D01*
X230822476Y-80621142D01*
X230774857Y-80668761D01*
X230679619Y-80716380D01*
X230298666Y-80716380D01*
X230298666Y-79716380D01*
X230632000Y-79716380D01*
X230727238Y-79764000D01*
X230774857Y-79811619D01*
X230822476Y-79906857D01*
X230822476Y-80002095D01*
X230774857Y-80097333D01*
X230727238Y-80144952D01*
X230632000Y-80192571D01*
X230298666Y-80192571D01*
X231441523Y-80716380D02*
X231346285Y-80668761D01*
X231298666Y-80621142D01*
X231251047Y-80525904D01*
X231251047Y-80240190D01*
X231298666Y-80144952D01*
X231346285Y-80097333D01*
X231441523Y-80049714D01*
X231584380Y-80049714D01*
X231679619Y-80097333D01*
X231727238Y-80144952D01*
X231774857Y-80240190D01*
X231774857Y-80525904D01*
X231727238Y-80621142D01*
X231679619Y-80668761D01*
X231584380Y-80716380D01*
X231441523Y-80716380D01*
X232632000Y-80716380D02*
X232632000Y-80192571D01*
X232584380Y-80097333D01*
X232489142Y-80049714D01*
X232298666Y-80049714D01*
X232203428Y-80097333D01*
X232632000Y-80668761D02*
X232536761Y-80716380D01*
X232298666Y-80716380D01*
X232203428Y-80668761D01*
X232155809Y-80573523D01*
X232155809Y-80478285D01*
X232203428Y-80383047D01*
X232298666Y-80335428D01*
X232536761Y-80335428D01*
X232632000Y-80287809D01*
X233108190Y-80716380D02*
X233108190Y-80049714D01*
X233108190Y-80240190D02*
X233155809Y-80144952D01*
X233203428Y-80097333D01*
X233298666Y-80049714D01*
X233393904Y-80049714D01*
X234155809Y-80716380D02*
X234155809Y-79716380D01*
X234155809Y-80668761D02*
X234060571Y-80716380D01*
X233870095Y-80716380D01*
X233774857Y-80668761D01*
X233727238Y-80621142D01*
X233679619Y-80525904D01*
X233679619Y-80240190D01*
X233727238Y-80144952D01*
X233774857Y-80097333D01*
X233870095Y-80049714D01*
X234060571Y-80049714D01*
X234155809Y-80097333D01*
X234584380Y-80668761D02*
X234679619Y-80716380D01*
X234870095Y-80716380D01*
X234965333Y-80668761D01*
X235012952Y-80573523D01*
X235012952Y-80525904D01*
X234965333Y-80430666D01*
X234870095Y-80383047D01*
X234727238Y-80383047D01*
X234632000Y-80335428D01*
X234584380Y-80240190D01*
X234584380Y-80192571D01*
X234632000Y-80097333D01*
X234727238Y-80049714D01*
X234870095Y-80049714D01*
X234965333Y-80097333D01*
X186777619Y-106624380D02*
X186777619Y-105624380D01*
X187015714Y-105624380D01*
X187158571Y-105672000D01*
X187253809Y-105767238D01*
X187301428Y-105862476D01*
X187349047Y-106052952D01*
X187349047Y-106195809D01*
X187301428Y-106386285D01*
X187253809Y-106481523D01*
X187158571Y-106576761D01*
X187015714Y-106624380D01*
X186777619Y-106624380D01*
X187777619Y-106624380D02*
X187777619Y-105624380D01*
X188777619Y-105672000D02*
X188682380Y-105624380D01*
X188539523Y-105624380D01*
X188396666Y-105672000D01*
X188301428Y-105767238D01*
X188253809Y-105862476D01*
X188206190Y-106052952D01*
X188206190Y-106195809D01*
X188253809Y-106386285D01*
X188301428Y-106481523D01*
X188396666Y-106576761D01*
X188539523Y-106624380D01*
X188634761Y-106624380D01*
X188777619Y-106576761D01*
X188825238Y-106529142D01*
X188825238Y-106195809D01*
X188634761Y-106195809D01*
X189253809Y-106624380D02*
X189253809Y-105624380D01*
X189587142Y-105624380D02*
X190158571Y-105624380D01*
X189872857Y-106624380D02*
X189872857Y-105624380D01*
X190444285Y-106338666D02*
X190920476Y-106338666D01*
X190349047Y-106624380D02*
X190682380Y-105624380D01*
X191015714Y-106624380D01*
X191825238Y-106624380D02*
X191349047Y-106624380D01*
X191349047Y-105624380D01*
X215680380Y-119109333D02*
X216680380Y-118776000D01*
X215680380Y-118442666D01*
X216585142Y-117537904D02*
X216632761Y-117585523D01*
X216680380Y-117728380D01*
X216680380Y-117823619D01*
X216632761Y-117966476D01*
X216537523Y-118061714D01*
X216442285Y-118109333D01*
X216251809Y-118156952D01*
X216108952Y-118156952D01*
X215918476Y-118109333D01*
X215823238Y-118061714D01*
X215728000Y-117966476D01*
X215680380Y-117823619D01*
X215680380Y-117728380D01*
X215728000Y-117585523D01*
X215775619Y-117537904D01*
X216585142Y-116537904D02*
X216632761Y-116585523D01*
X216680380Y-116728380D01*
X216680380Y-116823619D01*
X216632761Y-116966476D01*
X216537523Y-117061714D01*
X216442285Y-117109333D01*
X216251809Y-117156952D01*
X216108952Y-117156952D01*
X215918476Y-117109333D01*
X215823238Y-117061714D01*
X215728000Y-116966476D01*
X215680380Y-116823619D01*
X215680380Y-116728380D01*
X215728000Y-116585523D01*
X215775619Y-116537904D01*
X210526380Y-118935333D02*
X211526380Y-118602000D01*
X210526380Y-118268666D01*
X211431142Y-117363904D02*
X211478761Y-117411523D01*
X211526380Y-117554380D01*
X211526380Y-117649619D01*
X211478761Y-117792476D01*
X211383523Y-117887714D01*
X211288285Y-117935333D01*
X211097809Y-117982952D01*
X210954952Y-117982952D01*
X210764476Y-117935333D01*
X210669238Y-117887714D01*
X210574000Y-117792476D01*
X210526380Y-117649619D01*
X210526380Y-117554380D01*
X210574000Y-117411523D01*
X210621619Y-117363904D01*
X211431142Y-116363904D02*
X211478761Y-116411523D01*
X211526380Y-116554380D01*
X211526380Y-116649619D01*
X211478761Y-116792476D01*
X211383523Y-116887714D01*
X211288285Y-116935333D01*
X211097809Y-116982952D01*
X210954952Y-116982952D01*
X210764476Y-116935333D01*
X210669238Y-116887714D01*
X210574000Y-116792476D01*
X210526380Y-116649619D01*
X210526380Y-116554380D01*
X210574000Y-116411523D01*
X210621619Y-116363904D01*
X202112571Y-118871714D02*
X202160190Y-118728857D01*
X202207809Y-118681238D01*
X202303047Y-118633619D01*
X202445904Y-118633619D01*
X202541142Y-118681238D01*
X202588761Y-118728857D01*
X202636380Y-118824095D01*
X202636380Y-119205047D01*
X201636380Y-119205047D01*
X201636380Y-118871714D01*
X201684000Y-118776476D01*
X201731619Y-118728857D01*
X201826857Y-118681238D01*
X201922095Y-118681238D01*
X202017333Y-118728857D01*
X202064952Y-118776476D01*
X202112571Y-118871714D01*
X202112571Y-119205047D01*
X202636380Y-117633619D02*
X202160190Y-117966952D01*
X202636380Y-118205047D02*
X201636380Y-118205047D01*
X201636380Y-117824095D01*
X201684000Y-117728857D01*
X201731619Y-117681238D01*
X201826857Y-117633619D01*
X201969714Y-117633619D01*
X202064952Y-117681238D01*
X202112571Y-117728857D01*
X202160190Y-117824095D01*
X202160190Y-118205047D01*
X202350666Y-117252666D02*
X202350666Y-116776476D01*
X202636380Y-117347904D02*
X201636380Y-117014571D01*
X202636380Y-116681238D01*
X202636380Y-116347904D02*
X201636380Y-116347904D01*
X202636380Y-115776476D02*
X202064952Y-116205047D01*
X201636380Y-115776476D02*
X202207809Y-116347904D01*
X202112571Y-115347904D02*
X202112571Y-115014571D01*
X202636380Y-114871714D02*
X202636380Y-115347904D01*
X201636380Y-115347904D01*
X201636380Y-114871714D01*
X202588761Y-114490761D02*
X202636380Y-114347904D01*
X202636380Y-114109809D01*
X202588761Y-114014571D01*
X202541142Y-113966952D01*
X202445904Y-113919333D01*
X202350666Y-113919333D01*
X202255428Y-113966952D01*
X202207809Y-114014571D01*
X202160190Y-114109809D01*
X202112571Y-114300285D01*
X202064952Y-114395523D01*
X202017333Y-114443142D01*
X201922095Y-114490761D01*
X201826857Y-114490761D01*
X201731619Y-114443142D01*
X201684000Y-114395523D01*
X201636380Y-114300285D01*
X201636380Y-114062190D01*
X201684000Y-113919333D01*
X197270666Y-119205047D02*
X197270666Y-118728857D01*
X197556380Y-119300285D02*
X196556380Y-118966952D01*
X197556380Y-118633619D01*
X197556380Y-118300285D02*
X196556380Y-118300285D01*
X197556380Y-117728857D01*
X196556380Y-117728857D01*
X197270666Y-117300285D02*
X197270666Y-116824095D01*
X197556380Y-117395523D02*
X196556380Y-117062190D01*
X197556380Y-116728857D01*
X197556380Y-115919333D02*
X197556380Y-116395523D01*
X196556380Y-116395523D01*
X196556380Y-115395523D02*
X196556380Y-115205047D01*
X196604000Y-115109809D01*
X196699238Y-115014571D01*
X196889714Y-114966952D01*
X197223047Y-114966952D01*
X197413523Y-115014571D01*
X197508761Y-115109809D01*
X197556380Y-115205047D01*
X197556380Y-115395523D01*
X197508761Y-115490761D01*
X197413523Y-115586000D01*
X197223047Y-115633619D01*
X196889714Y-115633619D01*
X196699238Y-115586000D01*
X196604000Y-115490761D01*
X196556380Y-115395523D01*
X196604000Y-114014571D02*
X196556380Y-114109809D01*
X196556380Y-114252666D01*
X196604000Y-114395523D01*
X196699238Y-114490761D01*
X196794476Y-114538380D01*
X196984952Y-114586000D01*
X197127809Y-114586000D01*
X197318285Y-114538380D01*
X197413523Y-114490761D01*
X197508761Y-114395523D01*
X197556380Y-114252666D01*
X197556380Y-114157428D01*
X197508761Y-114014571D01*
X197461142Y-113966952D01*
X197127809Y-113966952D01*
X197127809Y-114157428D01*
X189936380Y-119292380D02*
X188936380Y-119292380D01*
X188936380Y-119054285D01*
X188984000Y-118911428D01*
X189079238Y-118816190D01*
X189174476Y-118768571D01*
X189364952Y-118720952D01*
X189507809Y-118720952D01*
X189698285Y-118768571D01*
X189793523Y-118816190D01*
X189888761Y-118911428D01*
X189936380Y-119054285D01*
X189936380Y-119292380D01*
X189936380Y-118292380D02*
X188936380Y-118292380D01*
X188984000Y-117292380D02*
X188936380Y-117387619D01*
X188936380Y-117530476D01*
X188984000Y-117673333D01*
X189079238Y-117768571D01*
X189174476Y-117816190D01*
X189364952Y-117863809D01*
X189507809Y-117863809D01*
X189698285Y-117816190D01*
X189793523Y-117768571D01*
X189888761Y-117673333D01*
X189936380Y-117530476D01*
X189936380Y-117435238D01*
X189888761Y-117292380D01*
X189841142Y-117244761D01*
X189507809Y-117244761D01*
X189507809Y-117435238D01*
X189936380Y-116816190D02*
X188936380Y-116816190D01*
X188936380Y-116482857D02*
X188936380Y-115911428D01*
X189936380Y-116197142D02*
X188936380Y-116197142D01*
X189650666Y-115625714D02*
X189650666Y-115149523D01*
X189936380Y-115720952D02*
X188936380Y-115387619D01*
X189936380Y-115054285D01*
X189936380Y-114244761D02*
X189936380Y-114720952D01*
X188936380Y-114720952D01*
X218194000Y-118363904D02*
X218146380Y-118459142D01*
X218146380Y-118602000D01*
X218194000Y-118744857D01*
X218289238Y-118840095D01*
X218384476Y-118887714D01*
X218574952Y-118935333D01*
X218717809Y-118935333D01*
X218908285Y-118887714D01*
X219003523Y-118840095D01*
X219098761Y-118744857D01*
X219146380Y-118602000D01*
X219146380Y-118506761D01*
X219098761Y-118363904D01*
X219051142Y-118316285D01*
X218717809Y-118316285D01*
X218717809Y-118506761D01*
X219146380Y-117887714D02*
X218146380Y-117887714D01*
X219146380Y-117316285D01*
X218146380Y-117316285D01*
X219146380Y-116840095D02*
X218146380Y-116840095D01*
X218146380Y-116602000D01*
X218194000Y-116459142D01*
X218289238Y-116363904D01*
X218384476Y-116316285D01*
X218574952Y-116268666D01*
X218717809Y-116268666D01*
X218908285Y-116316285D01*
X219003523Y-116363904D01*
X219098761Y-116459142D01*
X219146380Y-116602000D01*
X219146380Y-116840095D01*
X213114000Y-118363904D02*
X213066380Y-118459142D01*
X213066380Y-118602000D01*
X213114000Y-118744857D01*
X213209238Y-118840095D01*
X213304476Y-118887714D01*
X213494952Y-118935333D01*
X213637809Y-118935333D01*
X213828285Y-118887714D01*
X213923523Y-118840095D01*
X214018761Y-118744857D01*
X214066380Y-118602000D01*
X214066380Y-118506761D01*
X214018761Y-118363904D01*
X213971142Y-118316285D01*
X213637809Y-118316285D01*
X213637809Y-118506761D01*
X214066380Y-117887714D02*
X213066380Y-117887714D01*
X214066380Y-117316285D01*
X213066380Y-117316285D01*
X214066380Y-116840095D02*
X213066380Y-116840095D01*
X213066380Y-116602000D01*
X213114000Y-116459142D01*
X213209238Y-116363904D01*
X213304476Y-116316285D01*
X213494952Y-116268666D01*
X213637809Y-116268666D01*
X213828285Y-116316285D01*
X213923523Y-116363904D01*
X214018761Y-116459142D01*
X214066380Y-116602000D01*
X214066380Y-116840095D01*
X199144000Y-118617904D02*
X199096380Y-118713142D01*
X199096380Y-118856000D01*
X199144000Y-118998857D01*
X199239238Y-119094095D01*
X199334476Y-119141714D01*
X199524952Y-119189333D01*
X199667809Y-119189333D01*
X199858285Y-119141714D01*
X199953523Y-119094095D01*
X200048761Y-118998857D01*
X200096380Y-118856000D01*
X200096380Y-118760761D01*
X200048761Y-118617904D01*
X200001142Y-118570285D01*
X199667809Y-118570285D01*
X199667809Y-118760761D01*
X200096380Y-118141714D02*
X199096380Y-118141714D01*
X200096380Y-117570285D01*
X199096380Y-117570285D01*
X200096380Y-117094095D02*
X199096380Y-117094095D01*
X199096380Y-116856000D01*
X199144000Y-116713142D01*
X199239238Y-116617904D01*
X199334476Y-116570285D01*
X199524952Y-116522666D01*
X199667809Y-116522666D01*
X199858285Y-116570285D01*
X199953523Y-116617904D01*
X200048761Y-116713142D01*
X200096380Y-116856000D01*
X200096380Y-117094095D01*
X191778000Y-118617904D02*
X191730380Y-118713142D01*
X191730380Y-118856000D01*
X191778000Y-118998857D01*
X191873238Y-119094095D01*
X191968476Y-119141714D01*
X192158952Y-119189333D01*
X192301809Y-119189333D01*
X192492285Y-119141714D01*
X192587523Y-119094095D01*
X192682761Y-118998857D01*
X192730380Y-118856000D01*
X192730380Y-118760761D01*
X192682761Y-118617904D01*
X192635142Y-118570285D01*
X192301809Y-118570285D01*
X192301809Y-118760761D01*
X192730380Y-118141714D02*
X191730380Y-118141714D01*
X192730380Y-117570285D01*
X191730380Y-117570285D01*
X192730380Y-117094095D02*
X191730380Y-117094095D01*
X191730380Y-116856000D01*
X191778000Y-116713142D01*
X191873238Y-116617904D01*
X191968476Y-116570285D01*
X192158952Y-116522666D01*
X192301809Y-116522666D01*
X192492285Y-116570285D01*
X192587523Y-116617904D01*
X192682761Y-116713142D01*
X192730380Y-116856000D01*
X192730380Y-117094095D01*
X194635428Y-119395714D02*
X194635428Y-118633809D01*
X195016380Y-119014761D02*
X194254476Y-119014761D01*
X194016380Y-117681428D02*
X194016380Y-118157619D01*
X194492571Y-118205238D01*
X194444952Y-118157619D01*
X194397333Y-118062380D01*
X194397333Y-117824285D01*
X194444952Y-117729047D01*
X194492571Y-117681428D01*
X194587809Y-117633809D01*
X194825904Y-117633809D01*
X194921142Y-117681428D01*
X194968761Y-117729047D01*
X195016380Y-117824285D01*
X195016380Y-118062380D01*
X194968761Y-118157619D01*
X194921142Y-118205238D01*
X194016380Y-117348095D02*
X195016380Y-117014761D01*
X194016380Y-116681428D01*
X187269428Y-119395714D02*
X187269428Y-118633809D01*
X187650380Y-119014761D02*
X186888476Y-119014761D01*
X186650380Y-117681428D02*
X186650380Y-118157619D01*
X187126571Y-118205238D01*
X187078952Y-118157619D01*
X187031333Y-118062380D01*
X187031333Y-117824285D01*
X187078952Y-117729047D01*
X187126571Y-117681428D01*
X187221809Y-117633809D01*
X187459904Y-117633809D01*
X187555142Y-117681428D01*
X187602761Y-117729047D01*
X187650380Y-117824285D01*
X187650380Y-118062380D01*
X187602761Y-118157619D01*
X187555142Y-118205238D01*
X186650380Y-117348095D02*
X187650380Y-117014761D01*
X186650380Y-116681428D01*
D11*
X171633428Y-78426571D02*
X171633428Y-79498000D01*
X171562000Y-79712285D01*
X171419142Y-79855142D01*
X171204857Y-79926571D01*
X171062000Y-79926571D01*
X173062000Y-79926571D02*
X172347714Y-79926571D01*
X172347714Y-78426571D01*
X174419142Y-79783714D02*
X174347714Y-79855142D01*
X174133428Y-79926571D01*
X173990571Y-79926571D01*
X173776285Y-79855142D01*
X173633428Y-79712285D01*
X173562000Y-79569428D01*
X173490571Y-79283714D01*
X173490571Y-79069428D01*
X173562000Y-78783714D01*
X173633428Y-78640857D01*
X173776285Y-78498000D01*
X173990571Y-78426571D01*
X174133428Y-78426571D01*
X174347714Y-78498000D01*
X174419142Y-78569428D01*
X175490571Y-78426571D02*
X175490571Y-79498000D01*
X175419142Y-79712285D01*
X175276285Y-79855142D01*
X175062000Y-79926571D01*
X174919142Y-79926571D01*
X176919142Y-79926571D02*
X176204857Y-79926571D01*
X176204857Y-78426571D01*
X178276285Y-79783714D02*
X178204857Y-79855142D01*
X177990571Y-79926571D01*
X177847714Y-79926571D01*
X177633428Y-79855142D01*
X177490571Y-79712285D01*
X177419142Y-79569428D01*
X177347714Y-79283714D01*
X177347714Y-79069428D01*
X177419142Y-78783714D01*
X177490571Y-78640857D01*
X177633428Y-78498000D01*
X177847714Y-78426571D01*
X177990571Y-78426571D01*
X178204857Y-78498000D01*
X178276285Y-78569428D01*
X179347714Y-78426571D02*
X179347714Y-79498000D01*
X179276285Y-79712285D01*
X179133428Y-79855142D01*
X178919142Y-79926571D01*
X178776285Y-79926571D01*
X180776285Y-79926571D02*
X180062000Y-79926571D01*
X180062000Y-78426571D01*
X182133428Y-79783714D02*
X182062000Y-79855142D01*
X181847714Y-79926571D01*
X181704857Y-79926571D01*
X181490571Y-79855142D01*
X181347714Y-79712285D01*
X181276285Y-79569428D01*
X181204857Y-79283714D01*
X181204857Y-79069428D01*
X181276285Y-78783714D01*
X181347714Y-78640857D01*
X181490571Y-78498000D01*
X181704857Y-78426571D01*
X181847714Y-78426571D01*
X182062000Y-78498000D01*
X182133428Y-78569428D01*
X183204857Y-78426571D02*
X183204857Y-79498000D01*
X183133428Y-79712285D01*
X182990571Y-79855142D01*
X182776285Y-79926571D01*
X182633428Y-79926571D01*
X184633428Y-79926571D02*
X183919142Y-79926571D01*
X183919142Y-78426571D01*
X185990571Y-79783714D02*
X185919142Y-79855142D01*
X185704857Y-79926571D01*
X185562000Y-79926571D01*
X185347714Y-79855142D01*
X185204857Y-79712285D01*
X185133428Y-79569428D01*
X185062000Y-79283714D01*
X185062000Y-79069428D01*
X185133428Y-78783714D01*
X185204857Y-78640857D01*
X185347714Y-78498000D01*
X185562000Y-78426571D01*
X185704857Y-78426571D01*
X185919142Y-78498000D01*
X185990571Y-78569428D01*
D10*
X229416666Y-124082380D02*
X229416666Y-123082380D01*
X229797619Y-123082380D01*
X229892857Y-123130000D01*
X229940476Y-123177619D01*
X229988095Y-123272857D01*
X229988095Y-123415714D01*
X229940476Y-123510952D01*
X229892857Y-123558571D01*
X229797619Y-123606190D01*
X229416666Y-123606190D01*
X230321428Y-123082380D02*
X230559523Y-124082380D01*
X230750000Y-123368095D01*
X230940476Y-124082380D01*
X231178571Y-123082380D01*
X232130952Y-124082380D02*
X231797619Y-123606190D01*
X231559523Y-124082380D02*
X231559523Y-123082380D01*
X231940476Y-123082380D01*
X232035714Y-123130000D01*
X232083333Y-123177619D01*
X232130952Y-123272857D01*
X232130952Y-123415714D01*
X232083333Y-123510952D01*
X232035714Y-123558571D01*
X231940476Y-123606190D01*
X231559523Y-123606190D01*
X195042380Y-112983619D02*
X194042380Y-112983619D01*
X194042380Y-112602666D01*
X194090000Y-112507428D01*
X194137619Y-112459809D01*
X194232857Y-112412190D01*
X194375714Y-112412190D01*
X194470952Y-112459809D01*
X194518571Y-112507428D01*
X194566190Y-112602666D01*
X194566190Y-112983619D01*
X194375714Y-111555047D02*
X195042380Y-111555047D01*
X194375714Y-111983619D02*
X194899523Y-111983619D01*
X194994761Y-111936000D01*
X195042380Y-111840761D01*
X195042380Y-111697904D01*
X194994761Y-111602666D01*
X194947142Y-111555047D01*
X195042380Y-110936000D02*
X194994761Y-111031238D01*
X194899523Y-111078857D01*
X194042380Y-111078857D01*
X195042380Y-110412190D02*
X194994761Y-110507428D01*
X194899523Y-110555047D01*
X194042380Y-110555047D01*
X195042380Y-109269333D02*
X194042380Y-109269333D01*
X194042380Y-109031238D01*
X194090000Y-108888380D01*
X194185238Y-108793142D01*
X194280476Y-108745523D01*
X194470952Y-108697904D01*
X194613809Y-108697904D01*
X194804285Y-108745523D01*
X194899523Y-108793142D01*
X194994761Y-108888380D01*
X195042380Y-109031238D01*
X195042380Y-109269333D01*
X195042380Y-108126476D02*
X194994761Y-108221714D01*
X194947142Y-108269333D01*
X194851904Y-108316952D01*
X194566190Y-108316952D01*
X194470952Y-108269333D01*
X194423333Y-108221714D01*
X194375714Y-108126476D01*
X194375714Y-107983619D01*
X194423333Y-107888380D01*
X194470952Y-107840761D01*
X194566190Y-107793142D01*
X194851904Y-107793142D01*
X194947142Y-107840761D01*
X194994761Y-107888380D01*
X195042380Y-107983619D01*
X195042380Y-108126476D01*
X194375714Y-107459809D02*
X195042380Y-107269333D01*
X194566190Y-107078857D01*
X195042380Y-106888380D01*
X194375714Y-106697904D01*
X194375714Y-106316952D02*
X195042380Y-106316952D01*
X194470952Y-106316952D02*
X194423333Y-106269333D01*
X194375714Y-106174095D01*
X194375714Y-106031238D01*
X194423333Y-105936000D01*
X194518571Y-105888380D01*
X195042380Y-105888380D01*
X184432380Y-112531238D02*
X183432380Y-112531238D01*
X183432380Y-112150285D01*
X183480000Y-112055047D01*
X183527619Y-112007428D01*
X183622857Y-111959809D01*
X183765714Y-111959809D01*
X183860952Y-112007428D01*
X183908571Y-112055047D01*
X183956190Y-112150285D01*
X183956190Y-112531238D01*
X183765714Y-111102666D02*
X184432380Y-111102666D01*
X183765714Y-111531238D02*
X184289523Y-111531238D01*
X184384761Y-111483619D01*
X184432380Y-111388380D01*
X184432380Y-111245523D01*
X184384761Y-111150285D01*
X184337142Y-111102666D01*
X184432380Y-110483619D02*
X184384761Y-110578857D01*
X184289523Y-110626476D01*
X183432380Y-110626476D01*
X184432380Y-109959809D02*
X184384761Y-110055047D01*
X184289523Y-110102666D01*
X183432380Y-110102666D01*
X183432380Y-108816952D02*
X184241904Y-108816952D01*
X184337142Y-108769333D01*
X184384761Y-108721714D01*
X184432380Y-108626476D01*
X184432380Y-108436000D01*
X184384761Y-108340761D01*
X184337142Y-108293142D01*
X184241904Y-108245523D01*
X183432380Y-108245523D01*
X183765714Y-107769333D02*
X184765714Y-107769333D01*
X183813333Y-107769333D02*
X183765714Y-107674095D01*
X183765714Y-107483619D01*
X183813333Y-107388380D01*
X183860952Y-107340761D01*
X183956190Y-107293142D01*
X184241904Y-107293142D01*
X184337142Y-107340761D01*
X184384761Y-107388380D01*
X184432380Y-107483619D01*
X184432380Y-107674095D01*
X184384761Y-107769333D01*
D12*
%TO.C,C1*%
X212990000Y-98140580D02*
X212990000Y-97859420D01*
X214010000Y-98140580D02*
X214010000Y-97859420D01*
%TO.C,C2*%
X226359420Y-102010000D02*
X226640580Y-102010000D01*
X226359420Y-100990000D02*
X226640580Y-100990000D01*
%TO.C,C3*%
X226359420Y-93990000D02*
X226640580Y-93990000D01*
X226359420Y-95010000D02*
X226640580Y-95010000D01*
%TO.C,C4*%
X228990000Y-97065000D02*
X225080000Y-97065000D01*
X225080000Y-97065000D02*
X225080000Y-98935000D01*
X225080000Y-98935000D02*
X228990000Y-98935000D01*
%TO.C,J1*%
X161670000Y-110760000D02*
X166870000Y-110760000D01*
X161670000Y-87840000D02*
X161670000Y-110760000D01*
X166870000Y-85240000D02*
X166870000Y-110760000D01*
X161670000Y-87840000D02*
X164270000Y-87840000D01*
X164270000Y-87840000D02*
X164270000Y-85240000D01*
X164270000Y-85240000D02*
X166870000Y-85240000D01*
X161670000Y-86570000D02*
X161670000Y-85240000D01*
X161670000Y-85240000D02*
X163000000Y-85240000D01*
%TO.C,J2*%
X238170000Y-113300000D02*
X243370000Y-113300000D01*
X238170000Y-85300000D02*
X238170000Y-113300000D01*
X243370000Y-82700000D02*
X243370000Y-113300000D01*
X238170000Y-85300000D02*
X240770000Y-85300000D01*
X240770000Y-85300000D02*
X240770000Y-82700000D01*
X240770000Y-82700000D02*
X243370000Y-82700000D01*
X238170000Y-84030000D02*
X238170000Y-82700000D01*
X238170000Y-82700000D02*
X239500000Y-82700000D01*
%TO.C,J3*%
X219950000Y-123330000D02*
X219950000Y-120670000D01*
X212270000Y-123330000D02*
X219950000Y-123330000D01*
X212270000Y-120670000D02*
X219950000Y-120670000D01*
X212270000Y-123330000D02*
X212270000Y-120670000D01*
X211000000Y-123330000D02*
X209670000Y-123330000D01*
X209670000Y-123330000D02*
X209670000Y-122000000D01*
%TO.C,J4*%
X217960000Y-76100000D02*
X217960000Y-70900000D01*
X169640000Y-76100000D02*
X217960000Y-76100000D01*
X167040000Y-70900000D02*
X217960000Y-70900000D01*
X169640000Y-76100000D02*
X169640000Y-73500000D01*
X169640000Y-73500000D02*
X167040000Y-73500000D01*
X167040000Y-73500000D02*
X167040000Y-70900000D01*
X168370000Y-76100000D02*
X167040000Y-76100000D01*
X167040000Y-76100000D02*
X167040000Y-74770000D01*
%TO.C,J5*%
X193410000Y-110330000D02*
X193410000Y-107670000D01*
X188270000Y-110330000D02*
X193410000Y-110330000D01*
X188270000Y-107670000D02*
X193410000Y-107670000D01*
X188270000Y-110330000D02*
X188270000Y-107670000D01*
X187000000Y-110330000D02*
X185670000Y-110330000D01*
X185670000Y-110330000D02*
X185670000Y-109000000D01*
%TO.C,J6*%
X203570000Y-123330000D02*
X203570000Y-120670000D01*
X188270000Y-123330000D02*
X203570000Y-123330000D01*
X188270000Y-120670000D02*
X203570000Y-120670000D01*
X188270000Y-123330000D02*
X188270000Y-120670000D01*
X187000000Y-123330000D02*
X185670000Y-123330000D01*
X185670000Y-123330000D02*
X185670000Y-122000000D01*
%TO.C,R1*%
X174477500Y-95737258D02*
X174477500Y-95262742D01*
X175522500Y-95737258D02*
X175522500Y-95262742D01*
%TO.C,R2*%
X180522500Y-95737258D02*
X180522500Y-95262742D01*
X179477500Y-95737258D02*
X179477500Y-95262742D01*
%TO.C,R3*%
X184477500Y-95737258D02*
X184477500Y-95262742D01*
X185522500Y-95737258D02*
X185522500Y-95262742D01*
%TO.C,R4*%
X174477500Y-100262742D02*
X174477500Y-100737258D01*
X175522500Y-100262742D02*
X175522500Y-100737258D01*
%TO.C,R5*%
X180522500Y-100262742D02*
X180522500Y-100737258D01*
X179477500Y-100262742D02*
X179477500Y-100737258D01*
%TO.C,R6*%
X185522500Y-100262742D02*
X185522500Y-100737258D01*
X184477500Y-100262742D02*
X184477500Y-100737258D01*
%TO.C,R7*%
X189477500Y-98237258D02*
X189477500Y-97762742D01*
X190522500Y-98237258D02*
X190522500Y-97762742D01*
D10*
%TO.C,U1*%
X236570000Y-71160000D02*
X223870000Y-71160000D01*
X236570000Y-78780000D02*
X236570000Y-71160000D01*
X223870000Y-78780000D02*
X236570000Y-78780000D01*
X223870000Y-71160000D02*
X223870000Y-78780000D01*
D12*
X225140000Y-79140000D02*
X223510000Y-79140000D01*
X223510000Y-79140000D02*
X223510000Y-77510000D01*
%TO.C,C1*%
D10*
X212427142Y-98166666D02*
X212474761Y-98214285D01*
X212522380Y-98357142D01*
X212522380Y-98452380D01*
X212474761Y-98595238D01*
X212379523Y-98690476D01*
X212284285Y-98738095D01*
X212093809Y-98785714D01*
X211950952Y-98785714D01*
X211760476Y-98738095D01*
X211665238Y-98690476D01*
X211570000Y-98595238D01*
X211522380Y-98452380D01*
X211522380Y-98357142D01*
X211570000Y-98214285D01*
X211617619Y-98166666D01*
X212522380Y-97214285D02*
X212522380Y-97785714D01*
X212522380Y-97500000D02*
X211522380Y-97500000D01*
X211665238Y-97595238D01*
X211760476Y-97690476D01*
X211808095Y-97785714D01*
%TO.C,C2*%
X226333333Y-100427142D02*
X226285714Y-100474761D01*
X226142857Y-100522380D01*
X226047619Y-100522380D01*
X225904761Y-100474761D01*
X225809523Y-100379523D01*
X225761904Y-100284285D01*
X225714285Y-100093809D01*
X225714285Y-99950952D01*
X225761904Y-99760476D01*
X225809523Y-99665238D01*
X225904761Y-99570000D01*
X226047619Y-99522380D01*
X226142857Y-99522380D01*
X226285714Y-99570000D01*
X226333333Y-99617619D01*
X226714285Y-99617619D02*
X226761904Y-99570000D01*
X226857142Y-99522380D01*
X227095238Y-99522380D01*
X227190476Y-99570000D01*
X227238095Y-99617619D01*
X227285714Y-99712857D01*
X227285714Y-99808095D01*
X227238095Y-99950952D01*
X226666666Y-100522380D01*
X227285714Y-100522380D01*
%TO.C,C3*%
X226333333Y-93427142D02*
X226285714Y-93474761D01*
X226142857Y-93522380D01*
X226047619Y-93522380D01*
X225904761Y-93474761D01*
X225809523Y-93379523D01*
X225761904Y-93284285D01*
X225714285Y-93093809D01*
X225714285Y-92950952D01*
X225761904Y-92760476D01*
X225809523Y-92665238D01*
X225904761Y-92570000D01*
X226047619Y-92522380D01*
X226142857Y-92522380D01*
X226285714Y-92570000D01*
X226333333Y-92617619D01*
X226666666Y-92522380D02*
X227285714Y-92522380D01*
X226952380Y-92903333D01*
X227095238Y-92903333D01*
X227190476Y-92950952D01*
X227238095Y-92998571D01*
X227285714Y-93093809D01*
X227285714Y-93331904D01*
X227238095Y-93427142D01*
X227190476Y-93474761D01*
X227095238Y-93522380D01*
X226809523Y-93522380D01*
X226714285Y-93474761D01*
X226666666Y-93427142D01*
%TO.C,C4*%
X227223333Y-96607142D02*
X227175714Y-96654761D01*
X227032857Y-96702380D01*
X226937619Y-96702380D01*
X226794761Y-96654761D01*
X226699523Y-96559523D01*
X226651904Y-96464285D01*
X226604285Y-96273809D01*
X226604285Y-96130952D01*
X226651904Y-95940476D01*
X226699523Y-95845238D01*
X226794761Y-95750000D01*
X226937619Y-95702380D01*
X227032857Y-95702380D01*
X227175714Y-95750000D01*
X227223333Y-95797619D01*
X228080476Y-96035714D02*
X228080476Y-96702380D01*
X227842380Y-95654761D02*
X227604285Y-96369047D01*
X228223333Y-96369047D01*
%TO.C,J3*%
X208122380Y-122333333D02*
X208836666Y-122333333D01*
X208979523Y-122380952D01*
X209074761Y-122476190D01*
X209122380Y-122619047D01*
X209122380Y-122714285D01*
X208122380Y-121952380D02*
X208122380Y-121333333D01*
X208503333Y-121666666D01*
X208503333Y-121523809D01*
X208550952Y-121428571D01*
X208598571Y-121380952D01*
X208693809Y-121333333D01*
X208931904Y-121333333D01*
X209027142Y-121380952D01*
X209074761Y-121428571D01*
X209122380Y-121523809D01*
X209122380Y-121809523D01*
X209074761Y-121904761D01*
X209027142Y-121952380D01*
%TO.C,J5*%
X189016666Y-111182380D02*
X189016666Y-111896666D01*
X188969047Y-112039523D01*
X188873809Y-112134761D01*
X188730952Y-112182380D01*
X188635714Y-112182380D01*
X189969047Y-111182380D02*
X189492857Y-111182380D01*
X189445238Y-111658571D01*
X189492857Y-111610952D01*
X189588095Y-111563333D01*
X189826190Y-111563333D01*
X189921428Y-111610952D01*
X189969047Y-111658571D01*
X190016666Y-111753809D01*
X190016666Y-111991904D01*
X189969047Y-112087142D01*
X189921428Y-112134761D01*
X189826190Y-112182380D01*
X189588095Y-112182380D01*
X189492857Y-112134761D01*
X189445238Y-112087142D01*
%TO.C,J6*%
X184122380Y-122333333D02*
X184836666Y-122333333D01*
X184979523Y-122380952D01*
X185074761Y-122476190D01*
X185122380Y-122619047D01*
X185122380Y-122714285D01*
X184122380Y-121428571D02*
X184122380Y-121619047D01*
X184170000Y-121714285D01*
X184217619Y-121761904D01*
X184360476Y-121857142D01*
X184550952Y-121904761D01*
X184931904Y-121904761D01*
X185027142Y-121857142D01*
X185074761Y-121809523D01*
X185122380Y-121714285D01*
X185122380Y-121523809D01*
X185074761Y-121428571D01*
X185027142Y-121380952D01*
X184931904Y-121333333D01*
X184693809Y-121333333D01*
X184598571Y-121380952D01*
X184550952Y-121428571D01*
X184503333Y-121523809D01*
X184503333Y-121714285D01*
X184550952Y-121809523D01*
X184598571Y-121857142D01*
X184693809Y-121904761D01*
%TO.C,R1*%
X174022380Y-95666666D02*
X173546190Y-96000000D01*
X174022380Y-96238095D02*
X173022380Y-96238095D01*
X173022380Y-95857142D01*
X173070000Y-95761904D01*
X173117619Y-95714285D01*
X173212857Y-95666666D01*
X173355714Y-95666666D01*
X173450952Y-95714285D01*
X173498571Y-95761904D01*
X173546190Y-95857142D01*
X173546190Y-96238095D01*
X174022380Y-94714285D02*
X174022380Y-95285714D01*
X174022380Y-95000000D02*
X173022380Y-95000000D01*
X173165238Y-95095238D01*
X173260476Y-95190476D01*
X173308095Y-95285714D01*
%TO.C,R2*%
X179022380Y-95666666D02*
X178546190Y-96000000D01*
X179022380Y-96238095D02*
X178022380Y-96238095D01*
X178022380Y-95857142D01*
X178070000Y-95761904D01*
X178117619Y-95714285D01*
X178212857Y-95666666D01*
X178355714Y-95666666D01*
X178450952Y-95714285D01*
X178498571Y-95761904D01*
X178546190Y-95857142D01*
X178546190Y-96238095D01*
X178117619Y-95285714D02*
X178070000Y-95238095D01*
X178022380Y-95142857D01*
X178022380Y-94904761D01*
X178070000Y-94809523D01*
X178117619Y-94761904D01*
X178212857Y-94714285D01*
X178308095Y-94714285D01*
X178450952Y-94761904D01*
X179022380Y-95333333D01*
X179022380Y-94714285D01*
%TO.C,R3*%
X184022380Y-95666666D02*
X183546190Y-96000000D01*
X184022380Y-96238095D02*
X183022380Y-96238095D01*
X183022380Y-95857142D01*
X183070000Y-95761904D01*
X183117619Y-95714285D01*
X183212857Y-95666666D01*
X183355714Y-95666666D01*
X183450952Y-95714285D01*
X183498571Y-95761904D01*
X183546190Y-95857142D01*
X183546190Y-96238095D01*
X183022380Y-95333333D02*
X183022380Y-94714285D01*
X183403333Y-95047619D01*
X183403333Y-94904761D01*
X183450952Y-94809523D01*
X183498571Y-94761904D01*
X183593809Y-94714285D01*
X183831904Y-94714285D01*
X183927142Y-94761904D01*
X183974761Y-94809523D01*
X184022380Y-94904761D01*
X184022380Y-95190476D01*
X183974761Y-95285714D01*
X183927142Y-95333333D01*
%TO.C,R4*%
X176882380Y-100666666D02*
X176406190Y-101000000D01*
X176882380Y-101238095D02*
X175882380Y-101238095D01*
X175882380Y-100857142D01*
X175930000Y-100761904D01*
X175977619Y-100714285D01*
X176072857Y-100666666D01*
X176215714Y-100666666D01*
X176310952Y-100714285D01*
X176358571Y-100761904D01*
X176406190Y-100857142D01*
X176406190Y-101238095D01*
X176215714Y-99809523D02*
X176882380Y-99809523D01*
X175834761Y-100047619D02*
X176549047Y-100285714D01*
X176549047Y-99666666D01*
%TO.C,R5*%
X181882380Y-100666666D02*
X181406190Y-101000000D01*
X181882380Y-101238095D02*
X180882380Y-101238095D01*
X180882380Y-100857142D01*
X180930000Y-100761904D01*
X180977619Y-100714285D01*
X181072857Y-100666666D01*
X181215714Y-100666666D01*
X181310952Y-100714285D01*
X181358571Y-100761904D01*
X181406190Y-100857142D01*
X181406190Y-101238095D01*
X180882380Y-99761904D02*
X180882380Y-100238095D01*
X181358571Y-100285714D01*
X181310952Y-100238095D01*
X181263333Y-100142857D01*
X181263333Y-99904761D01*
X181310952Y-99809523D01*
X181358571Y-99761904D01*
X181453809Y-99714285D01*
X181691904Y-99714285D01*
X181787142Y-99761904D01*
X181834761Y-99809523D01*
X181882380Y-99904761D01*
X181882380Y-100142857D01*
X181834761Y-100238095D01*
X181787142Y-100285714D01*
%TO.C,R6*%
X186882380Y-100666666D02*
X186406190Y-101000000D01*
X186882380Y-101238095D02*
X185882380Y-101238095D01*
X185882380Y-100857142D01*
X185930000Y-100761904D01*
X185977619Y-100714285D01*
X186072857Y-100666666D01*
X186215714Y-100666666D01*
X186310952Y-100714285D01*
X186358571Y-100761904D01*
X186406190Y-100857142D01*
X186406190Y-101238095D01*
X185882380Y-99809523D02*
X185882380Y-100000000D01*
X185930000Y-100095238D01*
X185977619Y-100142857D01*
X186120476Y-100238095D01*
X186310952Y-100285714D01*
X186691904Y-100285714D01*
X186787142Y-100238095D01*
X186834761Y-100190476D01*
X186882380Y-100095238D01*
X186882380Y-99904761D01*
X186834761Y-99809523D01*
X186787142Y-99761904D01*
X186691904Y-99714285D01*
X186453809Y-99714285D01*
X186358571Y-99761904D01*
X186310952Y-99809523D01*
X186263333Y-99904761D01*
X186263333Y-100095238D01*
X186310952Y-100190476D01*
X186358571Y-100238095D01*
X186453809Y-100285714D01*
%TO.C,R7*%
X189022380Y-98166666D02*
X188546190Y-98500000D01*
X189022380Y-98738095D02*
X188022380Y-98738095D01*
X188022380Y-98357142D01*
X188070000Y-98261904D01*
X188117619Y-98214285D01*
X188212857Y-98166666D01*
X188355714Y-98166666D01*
X188450952Y-98214285D01*
X188498571Y-98261904D01*
X188546190Y-98357142D01*
X188546190Y-98738095D01*
X188022380Y-97833333D02*
X188022380Y-97166666D01*
X189022380Y-97595238D01*
%TO.C,U1*%
X229576380Y-75691904D02*
X230385904Y-75691904D01*
X230481142Y-75644285D01*
X230528761Y-75596666D01*
X230576380Y-75501428D01*
X230576380Y-75310952D01*
X230528761Y-75215714D01*
X230481142Y-75168095D01*
X230385904Y-75120476D01*
X229576380Y-75120476D01*
X230576380Y-74120476D02*
X230576380Y-74691904D01*
X230576380Y-74406190D02*
X229576380Y-74406190D01*
X229719238Y-74501428D01*
X229814476Y-74596666D01*
X229862095Y-74691904D01*
%TD*%
M02*
