%TF.GenerationSoftware,KiCad,Pcbnew,(5.1.9)-1*%
%TF.CreationDate,2021-10-12T14:35:24-04:00*%
%TF.ProjectId,Baja_Pi_Expansion,42616a61-5f50-4695-9f45-7870616e7369,rev?*%
%TF.SameCoordinates,Original*%
%TF.FileFunction,Copper,L2,Inr*%
%TF.FilePolarity,Positive*%
%FSLAX46Y46*%
G04 Gerber Fmt 4.6, Leading zero omitted, Abs format (unit mm)*
G04 Created by KiCad (PCBNEW (5.1.9)-1) date 2021-10-12 14:35:24*
%MOMM*%
%LPD*%
G01*
G04 APERTURE LIST*
%TA.AperFunction,ComponentPad*%
%ADD10R,1.700000X1.700000*%
%TD*%
%TA.AperFunction,ComponentPad*%
%ADD11O,1.700000X1.700000*%
%TD*%
%TA.AperFunction,ComponentPad*%
%ADD12R,1.600000X1.600000*%
%TD*%
%TA.AperFunction,ComponentPad*%
%ADD13C,1.600000*%
%TD*%
%TA.AperFunction,ViaPad*%
%ADD14C,0.800000*%
%TD*%
%TA.AperFunction,Conductor*%
%ADD15C,0.250000*%
%TD*%
G04 APERTURE END LIST*
D10*
%TO.N,/3v3*%
%TO.C,J1*%
X163000000Y-86570000D03*
D11*
%TO.N,/5v*%
X165540000Y-86570000D03*
%TO.N,/sda2*%
X163000000Y-89110000D03*
%TO.N,/5v*%
X165540000Y-89110000D03*
%TO.N,/scl2*%
X163000000Y-91650000D03*
%TO.N,/gnd*%
X165540000Y-91650000D03*
%TO.N,/gpio1*%
X163000000Y-94190000D03*
%TO.N,/uart_tx*%
X165540000Y-94190000D03*
%TO.N,/gnd*%
X163000000Y-96730000D03*
%TO.N,/uart_rx*%
X165540000Y-96730000D03*
%TO.N,/spi2_ce1*%
X163000000Y-99270000D03*
%TO.N,/spi2_ce0*%
X165540000Y-99270000D03*
%TO.N,/gpio11*%
X163000000Y-101810000D03*
%TO.N,/gnd*%
X165540000Y-101810000D03*
%TO.N,/gpio6*%
X163000000Y-104350000D03*
%TO.N,/gpio7*%
X165540000Y-104350000D03*
%TO.N,/3v3*%
X163000000Y-106890000D03*
%TO.N,/gpio8*%
X165540000Y-106890000D03*
%TO.N,/mosi*%
X163000000Y-109430000D03*
%TO.N,/gnd*%
X165540000Y-109430000D03*
%TD*%
D10*
%TO.N,/miso*%
%TO.C,J2*%
X239500000Y-84030000D03*
D11*
%TO.N,/gpio9*%
X242040000Y-84030000D03*
%TO.N,/sclk*%
X239500000Y-86570000D03*
%TO.N,/spi_ce0*%
X242040000Y-86570000D03*
%TO.N,/gnd*%
X239500000Y-89110000D03*
%TO.N,/spi_ce1*%
X242040000Y-89110000D03*
%TO.N,/sda*%
X239500000Y-91650000D03*
%TO.N,/scl*%
X242040000Y-91650000D03*
%TO.N,/analog_in*%
X239500000Y-94190000D03*
%TO.N,/gnd*%
X242040000Y-94190000D03*
%TO.N,/dig_in*%
X239500000Y-96730000D03*
%TO.N,/gpio4*%
X242040000Y-96730000D03*
%TO.N,/gpio5*%
X239500000Y-99270000D03*
%TO.N,/gnd*%
X242040000Y-99270000D03*
%TO.N,/miso2_pwm*%
X239500000Y-101810000D03*
%TO.N,/reset*%
X242040000Y-101810000D03*
%TO.N,/gpio10*%
X239500000Y-104350000D03*
%TO.N,/miso2*%
X242040000Y-104350000D03*
%TO.N,/gnd*%
X239500000Y-106890000D03*
%TO.N,/sclk2*%
X242040000Y-106890000D03*
%TO.N,Net-(J2-Pad21)*%
X239500000Y-109430000D03*
%TO.N,/reset*%
X242040000Y-109430000D03*
%TO.N,/vcc*%
X239500000Y-111970000D03*
X242040000Y-111970000D03*
%TD*%
D10*
%TO.N,/vcc*%
%TO.C,J3*%
X211000000Y-122000000D03*
D11*
%TO.N,/gnd*%
X213540000Y-122000000D03*
%TO.N,/vcc*%
X216080000Y-122000000D03*
%TO.N,/gnd*%
X218620000Y-122000000D03*
%TD*%
D10*
%TO.N,/3v3*%
%TO.C,J4*%
X168370000Y-74770000D03*
D11*
%TO.N,/5v*%
X168370000Y-72230000D03*
%TO.N,/sda2*%
X170910000Y-74770000D03*
%TO.N,/5v*%
X170910000Y-72230000D03*
%TO.N,/scl2*%
X173450000Y-74770000D03*
%TO.N,/gnd*%
X173450000Y-72230000D03*
%TO.N,/gpio1*%
X175990000Y-74770000D03*
%TO.N,/uart_tx*%
X175990000Y-72230000D03*
%TO.N,/gnd*%
X178530000Y-74770000D03*
%TO.N,/uart_rx*%
X178530000Y-72230000D03*
%TO.N,/spi2_ce1*%
X181070000Y-74770000D03*
%TO.N,/spi2_ce0*%
X181070000Y-72230000D03*
%TO.N,/gpio11*%
X183610000Y-74770000D03*
%TO.N,/gnd*%
X183610000Y-72230000D03*
%TO.N,/gpio6*%
X186150000Y-74770000D03*
%TO.N,/gpio7*%
X186150000Y-72230000D03*
%TO.N,/3v3*%
X188690000Y-74770000D03*
%TO.N,/gpio8*%
X188690000Y-72230000D03*
%TO.N,/mosi*%
X191230000Y-74770000D03*
%TO.N,/gnd*%
X191230000Y-72230000D03*
%TO.N,/miso*%
X193770000Y-74770000D03*
%TO.N,/gpio9*%
X193770000Y-72230000D03*
%TO.N,/sclk*%
X196310000Y-74770000D03*
%TO.N,/spi_ce0*%
X196310000Y-72230000D03*
%TO.N,/gnd*%
X198850000Y-74770000D03*
%TO.N,/spi_ce1*%
X198850000Y-72230000D03*
%TO.N,/sda*%
X201390000Y-74770000D03*
%TO.N,/scl*%
X201390000Y-72230000D03*
%TO.N,/analog_in*%
X203930000Y-74770000D03*
%TO.N,/gnd*%
X203930000Y-72230000D03*
%TO.N,/dig_in*%
X206470000Y-74770000D03*
%TO.N,/gpio4*%
X206470000Y-72230000D03*
%TO.N,/gpio5*%
X209010000Y-74770000D03*
%TO.N,/gnd*%
X209010000Y-72230000D03*
%TO.N,/miso2_pwm*%
X211550000Y-74770000D03*
%TO.N,/reset*%
X211550000Y-72230000D03*
%TO.N,/gpio10*%
X214090000Y-74770000D03*
%TO.N,/miso2*%
X214090000Y-72230000D03*
%TO.N,/gnd*%
X216630000Y-74770000D03*
%TO.N,/sclk2*%
X216630000Y-72230000D03*
%TD*%
D10*
%TO.N,Net-(J5-Pad1)*%
%TO.C,J5*%
X187000000Y-109000000D03*
D11*
%TO.N,/dig_in*%
X189540000Y-109000000D03*
%TO.N,Net-(J5-Pad3)*%
X192080000Y-109000000D03*
%TD*%
D10*
%TO.N,/5v*%
%TO.C,J6*%
X187000000Y-122000000D03*
D11*
%TO.N,/dig_in*%
X189540000Y-122000000D03*
%TO.N,/gnd*%
X192080000Y-122000000D03*
%TO.N,/5v*%
X194620000Y-122000000D03*
%TO.N,/analog_in*%
X197160000Y-122000000D03*
%TO.N,/gnd*%
X199700000Y-122000000D03*
%TO.N,/brakes*%
X202240000Y-122000000D03*
%TD*%
D12*
%TO.N,/gnd*%
%TO.C,U1*%
X225140000Y-77510000D03*
D13*
%TO.N,/gpio6*%
X227680000Y-77510000D03*
%TO.N,/gpio5*%
X230220000Y-77510000D03*
%TO.N,/gpio7*%
X232760000Y-77510000D03*
%TO.N,/gpio8*%
X235300000Y-77510000D03*
%TO.N,/gnd*%
X235300000Y-72430000D03*
%TO.N,/gpio4*%
X232760000Y-72430000D03*
%TO.N,/gpio9*%
X230220000Y-72430000D03*
%TO.N,/gpio10*%
X227680000Y-72430000D03*
%TO.N,/gpio11*%
X225140000Y-72430000D03*
%TD*%
D14*
%TO.N,/gnd*%
X175006000Y-102489000D03*
X185039000Y-98425000D03*
X214884000Y-96266000D03*
X228473000Y-94488000D03*
X228600000Y-101473000D03*
X230378000Y-98044000D03*
X232664000Y-123444000D03*
%TO.N,/analog_in*%
X212182800Y-93487400D03*
%TO.N,/miso2_pwm*%
X230633800Y-95103000D03*
%TO.N,/miso2*%
X235133100Y-99264200D03*
%TD*%
D15*
%TO.N,/3v3*%
X168370000Y-74770000D02*
X168370000Y-75945300D01*
X168370000Y-75945300D02*
X163000000Y-81315300D01*
X163000000Y-81315300D02*
X163000000Y-86570000D01*
%TO.N,/sda2*%
X163000000Y-87934700D02*
X163808100Y-87934700D01*
X163808100Y-87934700D02*
X164175300Y-87567500D01*
X164175300Y-87567500D02*
X164175300Y-82680000D01*
X164175300Y-82680000D02*
X170910000Y-75945300D01*
X163000000Y-89110000D02*
X163000000Y-87934700D01*
X170910000Y-74770000D02*
X170910000Y-75945300D01*
%TO.N,/scl2*%
X173450000Y-74770000D02*
X173450000Y-80325000D01*
X173450000Y-80325000D02*
X165840400Y-87934600D01*
X165840400Y-87934600D02*
X165050600Y-87934600D01*
X165050600Y-87934600D02*
X164175300Y-88809900D01*
X164175300Y-88809900D02*
X164175300Y-89666800D01*
X164175300Y-89666800D02*
X163367400Y-90474700D01*
X163367400Y-90474700D02*
X163000000Y-90474700D01*
X163000000Y-91650000D02*
X163000000Y-90474700D01*
%TO.N,/uart_tx*%
X165540000Y-94190000D02*
X165540000Y-93014700D01*
X175990000Y-72230000D02*
X175990000Y-73405300D01*
X175990000Y-73405300D02*
X175622600Y-73405300D01*
X175622600Y-73405300D02*
X174814700Y-74213200D01*
X174814700Y-74213200D02*
X174814700Y-84107300D01*
X174814700Y-84107300D02*
X165907300Y-93014700D01*
X165907300Y-93014700D02*
X165540000Y-93014700D01*
%TO.N,/uart_rx*%
X165540000Y-96730000D02*
X165540000Y-95554700D01*
X178530000Y-72230000D02*
X178530000Y-73405300D01*
X178530000Y-73405300D02*
X178162600Y-73405300D01*
X178162600Y-73405300D02*
X177354700Y-74213200D01*
X177354700Y-74213200D02*
X177354700Y-84107300D01*
X177354700Y-84107300D02*
X165907300Y-95554700D01*
X165907300Y-95554700D02*
X165540000Y-95554700D01*
%TO.N,/spi2_ce0*%
X181070000Y-73405300D02*
X180702600Y-73405300D01*
X180702600Y-73405300D02*
X179894700Y-74213200D01*
X179894700Y-74213200D02*
X179894700Y-84107300D01*
X179894700Y-84107300D02*
X165907300Y-98094700D01*
X165907300Y-98094700D02*
X165540000Y-98094700D01*
X181070000Y-72230000D02*
X181070000Y-73405300D01*
X165540000Y-99270000D02*
X165540000Y-98094700D01*
%TO.N,/gpio7*%
X165540000Y-104350000D02*
X165540000Y-103174700D01*
X186150000Y-72230000D02*
X186150000Y-73405300D01*
X186150000Y-73405300D02*
X185782600Y-73405300D01*
X185782600Y-73405300D02*
X184974700Y-74213200D01*
X184974700Y-74213200D02*
X184974700Y-84107300D01*
X184974700Y-84107300D02*
X165907300Y-103174700D01*
X165907300Y-103174700D02*
X165540000Y-103174700D01*
%TO.N,/gpio8*%
X188690000Y-73405300D02*
X188322600Y-73405300D01*
X188322600Y-73405300D02*
X187514700Y-74213200D01*
X187514700Y-74213200D02*
X187514700Y-84107300D01*
X187514700Y-84107300D02*
X165907300Y-105714700D01*
X165907300Y-105714700D02*
X165540000Y-105714700D01*
X165540000Y-106890000D02*
X165540000Y-105714700D01*
X188690000Y-72230000D02*
X188690000Y-73405300D01*
%TO.N,/mosi*%
X163000000Y-109430000D02*
X164175300Y-109430000D01*
X191230000Y-74770000D02*
X191230000Y-82882200D01*
X191230000Y-82882200D02*
X165857500Y-108254700D01*
X165857500Y-108254700D02*
X164983200Y-108254700D01*
X164983200Y-108254700D02*
X164175300Y-109062600D01*
X164175300Y-109062600D02*
X164175300Y-109430000D01*
%TO.N,/gpio9*%
X242040000Y-84030000D02*
X242040000Y-82614000D01*
X242040000Y-82614000D02*
X233256300Y-73830300D01*
X233256300Y-73830300D02*
X231620300Y-73830300D01*
X231620300Y-73830300D02*
X230220000Y-72430000D01*
X193770000Y-72230000D02*
X194945300Y-72230000D01*
X194945300Y-72230000D02*
X194945300Y-71862700D01*
X194945300Y-71862700D02*
X196230300Y-70577700D01*
X196230300Y-70577700D02*
X228367700Y-70577700D01*
X228367700Y-70577700D02*
X230220000Y-72430000D01*
%TO.N,/spi_ce0*%
X242040000Y-86570000D02*
X240864700Y-86570000D01*
X196310000Y-72230000D02*
X197485300Y-72230000D01*
X197485300Y-72230000D02*
X197485300Y-71862700D01*
X197485300Y-71862700D02*
X198319900Y-71028100D01*
X198319900Y-71028100D02*
X227942700Y-71028100D01*
X227942700Y-71028100D02*
X228805400Y-71890800D01*
X228805400Y-71890800D02*
X228805400Y-72884300D01*
X228805400Y-72884300D02*
X231490000Y-75568900D01*
X231490000Y-75568900D02*
X231490000Y-78193200D01*
X231490000Y-78193200D02*
X238691500Y-85394700D01*
X238691500Y-85394700D02*
X240056800Y-85394700D01*
X240056800Y-85394700D02*
X240864700Y-86202600D01*
X240864700Y-86202600D02*
X240864700Y-86570000D01*
%TO.N,/analog_in*%
X210561800Y-93487400D02*
X210561800Y-107422900D01*
X210561800Y-107422900D02*
X197160000Y-120824700D01*
X212182800Y-93487400D02*
X210561800Y-93487400D01*
X210561800Y-93487400D02*
X207645400Y-90571000D01*
X207645400Y-90571000D02*
X207645400Y-74244400D01*
X207645400Y-74244400D02*
X206995700Y-73594700D01*
X206995700Y-73594700D02*
X205913200Y-73594700D01*
X205913200Y-73594700D02*
X205105300Y-74402600D01*
X205105300Y-74402600D02*
X205105300Y-74770000D01*
X203930000Y-74770000D02*
X205105300Y-74770000D01*
X197160000Y-122000000D02*
X197160000Y-120824700D01*
%TO.N,/dig_in*%
X206470000Y-74770000D02*
X206470000Y-75945300D01*
X189540000Y-109000000D02*
X189540000Y-92875300D01*
X189540000Y-92875300D02*
X206470000Y-75945300D01*
X189540000Y-122000000D02*
X189540000Y-109000000D01*
%TO.N,/gpio4*%
X242040000Y-95554700D02*
X242407400Y-95554700D01*
X242407400Y-95554700D02*
X243215300Y-94746800D01*
X243215300Y-94746800D02*
X243215300Y-82885300D01*
X243215300Y-82885300D02*
X232760000Y-72430000D01*
X242040000Y-96730000D02*
X242040000Y-95554700D01*
%TO.N,/gpio5*%
X239500000Y-99270000D02*
X239500000Y-98094700D01*
X230220000Y-77510000D02*
X230220000Y-89112300D01*
X230220000Y-89112300D02*
X239202400Y-98094700D01*
X239202400Y-98094700D02*
X239500000Y-98094700D01*
%TO.N,/miso2_pwm*%
X211550000Y-74770000D02*
X211550000Y-75945300D01*
X211550000Y-75945300D02*
X230633800Y-95029100D01*
X230633800Y-95029100D02*
X230633800Y-95103000D01*
%TO.N,/reset*%
X242040000Y-108254700D02*
X239202200Y-108254700D01*
X239202200Y-108254700D02*
X231359100Y-100411600D01*
X231359100Y-100411600D02*
X231359100Y-94802500D01*
X231359100Y-94802500D02*
X212912000Y-76355400D01*
X212912000Y-76355400D02*
X212912000Y-74455600D01*
X212912000Y-74455600D02*
X211861700Y-73405300D01*
X211861700Y-73405300D02*
X211550000Y-73405300D01*
X211550000Y-72230000D02*
X211550000Y-73405300D01*
X242040000Y-101810000D02*
X242040000Y-102985300D01*
X242040000Y-109430000D02*
X242040000Y-108254700D01*
X242040000Y-108254700D02*
X242407300Y-108254700D01*
X242407300Y-108254700D02*
X243215300Y-107446700D01*
X243215300Y-107446700D02*
X243215300Y-103793200D01*
X243215300Y-103793200D02*
X242407400Y-102985300D01*
X242407400Y-102985300D02*
X242040000Y-102985300D01*
%TO.N,/gpio10*%
X239500000Y-103174700D02*
X239132600Y-103174700D01*
X239132600Y-103174700D02*
X237060100Y-101102200D01*
X237060100Y-101102200D02*
X237060100Y-97187800D01*
X237060100Y-97187800D02*
X228950000Y-89077700D01*
X228950000Y-89077700D02*
X228950000Y-73700000D01*
X228950000Y-73700000D02*
X227680000Y-72430000D01*
X239500000Y-104350000D02*
X239500000Y-103174700D01*
%TO.N,/miso2*%
X235133100Y-99264200D02*
X235133100Y-97939600D01*
X235133100Y-97939600D02*
X215265300Y-78071800D01*
X215265300Y-78071800D02*
X215265300Y-74213200D01*
X215265300Y-74213200D02*
X214457400Y-73405300D01*
X214457400Y-73405300D02*
X214090000Y-73405300D01*
X214090000Y-72230000D02*
X214090000Y-73405300D01*
%TO.N,/sclk2*%
X240864700Y-106890000D02*
X240864700Y-106522600D01*
X240864700Y-106522600D02*
X240056800Y-105714700D01*
X240056800Y-105714700D02*
X239202300Y-105714700D01*
X239202300Y-105714700D02*
X236384700Y-102897100D01*
X236384700Y-102897100D02*
X236384700Y-98554300D01*
X236384700Y-98554300D02*
X227612300Y-89781900D01*
X227612300Y-89781900D02*
X227612300Y-84020200D01*
X227612300Y-84020200D02*
X216997400Y-73405300D01*
X216997400Y-73405300D02*
X216630000Y-73405300D01*
X242040000Y-106890000D02*
X240864700Y-106890000D01*
X216630000Y-72230000D02*
X216630000Y-73405300D01*
%TD*%
M02*
