%TF.GenerationSoftware,KiCad,Pcbnew,(5.1.9)-1*%
%TF.CreationDate,2021-10-17T18:23:48-04:00*%
%TF.ProjectId,Baja_Pi_Expansion,42616a61-5f50-4695-9f45-7870616e7369,rev?*%
%TF.SameCoordinates,Original*%
%TF.FileFunction,Legend,Bot*%
%TF.FilePolarity,Positive*%
%FSLAX46Y46*%
G04 Gerber Fmt 4.6, Leading zero omitted, Abs format (unit mm)*
G04 Created by KiCad (PCBNEW (5.1.9)-1) date 2021-10-17 18:23:48*
%MOMM*%
%LPD*%
G01*
G04 APERTURE LIST*
%ADD10C,0.200000*%
G04 APERTURE END LIST*
D10*
X199192000Y-89565428D02*
X198692000Y-90279714D01*
X198334857Y-89565428D02*
X198334857Y-91065428D01*
X198906285Y-91065428D01*
X199049142Y-90994000D01*
X199120571Y-90922571D01*
X199192000Y-90779714D01*
X199192000Y-90565428D01*
X199120571Y-90422571D01*
X199049142Y-90351142D01*
X198906285Y-90279714D01*
X198334857Y-90279714D01*
X199834857Y-89565428D02*
X199834857Y-91065428D01*
X200334857Y-91065428D02*
X201192000Y-91065428D01*
X200763428Y-89565428D02*
X200763428Y-91065428D01*
X203334857Y-90351142D02*
X203549142Y-90279714D01*
X203620571Y-90208285D01*
X203692000Y-90065428D01*
X203692000Y-89851142D01*
X203620571Y-89708285D01*
X203549142Y-89636857D01*
X203406285Y-89565428D01*
X202834857Y-89565428D01*
X202834857Y-91065428D01*
X203334857Y-91065428D01*
X203477714Y-90994000D01*
X203549142Y-90922571D01*
X203620571Y-90779714D01*
X203620571Y-90636857D01*
X203549142Y-90494000D01*
X203477714Y-90422571D01*
X203334857Y-90351142D01*
X202834857Y-90351142D01*
X204977714Y-89565428D02*
X204977714Y-90351142D01*
X204906285Y-90494000D01*
X204763428Y-90565428D01*
X204477714Y-90565428D01*
X204334857Y-90494000D01*
X204977714Y-89636857D02*
X204834857Y-89565428D01*
X204477714Y-89565428D01*
X204334857Y-89636857D01*
X204263428Y-89779714D01*
X204263428Y-89922571D01*
X204334857Y-90065428D01*
X204477714Y-90136857D01*
X204834857Y-90136857D01*
X204977714Y-90208285D01*
X205692000Y-90565428D02*
X205692000Y-89279714D01*
X205620571Y-89136857D01*
X205477714Y-89065428D01*
X205406285Y-89065428D01*
X205692000Y-91065428D02*
X205620571Y-90994000D01*
X205692000Y-90922571D01*
X205763428Y-90994000D01*
X205692000Y-91065428D01*
X205692000Y-90922571D01*
X207049142Y-89565428D02*
X207049142Y-90351142D01*
X206977714Y-90494000D01*
X206834857Y-90565428D01*
X206549142Y-90565428D01*
X206406285Y-90494000D01*
X207049142Y-89636857D02*
X206906285Y-89565428D01*
X206549142Y-89565428D01*
X206406285Y-89636857D01*
X206334857Y-89779714D01*
X206334857Y-89922571D01*
X206406285Y-90065428D01*
X206549142Y-90136857D01*
X206906285Y-90136857D01*
X207049142Y-90208285D01*
X193120571Y-87186857D02*
X193334857Y-87115428D01*
X193692000Y-87115428D01*
X193834857Y-87186857D01*
X193906285Y-87258285D01*
X193977714Y-87401142D01*
X193977714Y-87544000D01*
X193906285Y-87686857D01*
X193834857Y-87758285D01*
X193692000Y-87829714D01*
X193406285Y-87901142D01*
X193263428Y-87972571D01*
X193192000Y-88044000D01*
X193120571Y-88186857D01*
X193120571Y-88329714D01*
X193192000Y-88472571D01*
X193263428Y-88544000D01*
X193406285Y-88615428D01*
X193763428Y-88615428D01*
X193977714Y-88544000D01*
X194620571Y-87115428D02*
X194620571Y-88615428D01*
X194977714Y-88615428D01*
X195192000Y-88544000D01*
X195334857Y-88401142D01*
X195406285Y-88258285D01*
X195477714Y-87972571D01*
X195477714Y-87758285D01*
X195406285Y-87472571D01*
X195334857Y-87329714D01*
X195192000Y-87186857D01*
X194977714Y-87115428D01*
X194620571Y-87115428D01*
X196049142Y-87544000D02*
X196763428Y-87544000D01*
X195906285Y-87115428D02*
X196406285Y-88615428D01*
X196906285Y-87115428D01*
X198406285Y-86972571D02*
X198263428Y-87044000D01*
X198120571Y-87186857D01*
X197906285Y-87401142D01*
X197763428Y-87472571D01*
X197620571Y-87472571D01*
X197692000Y-87115428D02*
X197549142Y-87186857D01*
X197406285Y-87329714D01*
X197334857Y-87615428D01*
X197334857Y-88115428D01*
X197406285Y-88401142D01*
X197549142Y-88544000D01*
X197692000Y-88615428D01*
X197977714Y-88615428D01*
X198120571Y-88544000D01*
X198263428Y-88401142D01*
X198334857Y-88115428D01*
X198334857Y-87615428D01*
X198263428Y-87329714D01*
X198120571Y-87186857D01*
X197977714Y-87115428D01*
X197692000Y-87115428D01*
X200120571Y-87115428D02*
X200120571Y-88615428D01*
X200620571Y-87544000D01*
X201120571Y-88615428D01*
X201120571Y-87115428D01*
X202477714Y-87115428D02*
X202477714Y-87901142D01*
X202406285Y-88044000D01*
X202263428Y-88115428D01*
X201977714Y-88115428D01*
X201834857Y-88044000D01*
X202477714Y-87186857D02*
X202334857Y-87115428D01*
X201977714Y-87115428D01*
X201834857Y-87186857D01*
X201763428Y-87329714D01*
X201763428Y-87472571D01*
X201834857Y-87615428D01*
X201977714Y-87686857D01*
X202334857Y-87686857D01*
X202477714Y-87758285D01*
X203192000Y-87115428D02*
X203192000Y-88115428D01*
X203192000Y-88615428D02*
X203120571Y-88544000D01*
X203192000Y-88472571D01*
X203263428Y-88544000D01*
X203192000Y-88615428D01*
X203192000Y-88472571D01*
X203906285Y-88115428D02*
X203906285Y-87115428D01*
X203906285Y-87972571D02*
X203977714Y-88044000D01*
X204120571Y-88115428D01*
X204334857Y-88115428D01*
X204477714Y-88044000D01*
X204549142Y-87901142D01*
X204549142Y-87115428D01*
X206906285Y-87901142D02*
X207120571Y-87829714D01*
X207192000Y-87758285D01*
X207263428Y-87615428D01*
X207263428Y-87401142D01*
X207192000Y-87258285D01*
X207120571Y-87186857D01*
X206977714Y-87115428D01*
X206406285Y-87115428D01*
X206406285Y-88615428D01*
X206906285Y-88615428D01*
X207049142Y-88544000D01*
X207120571Y-88472571D01*
X207192000Y-88329714D01*
X207192000Y-88186857D01*
X207120571Y-88044000D01*
X207049142Y-87972571D01*
X206906285Y-87901142D01*
X206406285Y-87901142D01*
X208120571Y-87115428D02*
X207977714Y-87186857D01*
X207906285Y-87258285D01*
X207834857Y-87401142D01*
X207834857Y-87829714D01*
X207906285Y-87972571D01*
X207977714Y-88044000D01*
X208120571Y-88115428D01*
X208334857Y-88115428D01*
X208477714Y-88044000D01*
X208549142Y-87972571D01*
X208620571Y-87829714D01*
X208620571Y-87401142D01*
X208549142Y-87258285D01*
X208477714Y-87186857D01*
X208334857Y-87115428D01*
X208120571Y-87115428D01*
X209906285Y-87115428D02*
X209906285Y-87901142D01*
X209834857Y-88044000D01*
X209692000Y-88115428D01*
X209406285Y-88115428D01*
X209263428Y-88044000D01*
X209906285Y-87186857D02*
X209763428Y-87115428D01*
X209406285Y-87115428D01*
X209263428Y-87186857D01*
X209192000Y-87329714D01*
X209192000Y-87472571D01*
X209263428Y-87615428D01*
X209406285Y-87686857D01*
X209763428Y-87686857D01*
X209906285Y-87758285D01*
X210620571Y-87115428D02*
X210620571Y-88115428D01*
X210620571Y-87829714D02*
X210692000Y-87972571D01*
X210763428Y-88044000D01*
X210906285Y-88115428D01*
X211049142Y-88115428D01*
X212192000Y-87115428D02*
X212192000Y-88615428D01*
X212192000Y-87186857D02*
X212049142Y-87115428D01*
X211763428Y-87115428D01*
X211620571Y-87186857D01*
X211549142Y-87258285D01*
X211477714Y-87401142D01*
X211477714Y-87829714D01*
X211549142Y-87972571D01*
X211620571Y-88044000D01*
X211763428Y-88115428D01*
X212049142Y-88115428D01*
X212192000Y-88044000D01*
X198049142Y-84665428D02*
X197549142Y-85379714D01*
X197192000Y-84665428D02*
X197192000Y-86165428D01*
X197763428Y-86165428D01*
X197906285Y-86094000D01*
X197977714Y-86022571D01*
X198049142Y-85879714D01*
X198049142Y-85665428D01*
X197977714Y-85522571D01*
X197906285Y-85451142D01*
X197763428Y-85379714D01*
X197192000Y-85379714D01*
X199263428Y-84736857D02*
X199120571Y-84665428D01*
X198834857Y-84665428D01*
X198692000Y-84736857D01*
X198620571Y-84879714D01*
X198620571Y-85451142D01*
X198692000Y-85594000D01*
X198834857Y-85665428D01*
X199120571Y-85665428D01*
X199263428Y-85594000D01*
X199334857Y-85451142D01*
X199334857Y-85308285D01*
X198620571Y-85165428D01*
X199834857Y-85665428D02*
X200192000Y-84665428D01*
X200549142Y-85665428D01*
X201120571Y-84665428D02*
X201120571Y-85665428D01*
X201120571Y-86165428D02*
X201049142Y-86094000D01*
X201120571Y-86022571D01*
X201192000Y-86094000D01*
X201120571Y-86165428D01*
X201120571Y-86022571D01*
X201763428Y-84736857D02*
X201906285Y-84665428D01*
X202192000Y-84665428D01*
X202334857Y-84736857D01*
X202406285Y-84879714D01*
X202406285Y-84951142D01*
X202334857Y-85094000D01*
X202192000Y-85165428D01*
X201977714Y-85165428D01*
X201834857Y-85236857D01*
X201763428Y-85379714D01*
X201763428Y-85451142D01*
X201834857Y-85594000D01*
X201977714Y-85665428D01*
X202192000Y-85665428D01*
X202334857Y-85594000D01*
X203049142Y-84665428D02*
X203049142Y-85665428D01*
X203049142Y-86165428D02*
X202977714Y-86094000D01*
X203049142Y-86022571D01*
X203120571Y-86094000D01*
X203049142Y-86165428D01*
X203049142Y-86022571D01*
X203977714Y-84665428D02*
X203834857Y-84736857D01*
X203763428Y-84808285D01*
X203692000Y-84951142D01*
X203692000Y-85379714D01*
X203763428Y-85522571D01*
X203834857Y-85594000D01*
X203977714Y-85665428D01*
X204192000Y-85665428D01*
X204334857Y-85594000D01*
X204406285Y-85522571D01*
X204477714Y-85379714D01*
X204477714Y-84951142D01*
X204406285Y-84808285D01*
X204334857Y-84736857D01*
X204192000Y-84665428D01*
X203977714Y-84665428D01*
X205120571Y-85665428D02*
X205120571Y-84665428D01*
X205120571Y-85522571D02*
X205192000Y-85594000D01*
X205334857Y-85665428D01*
X205549142Y-85665428D01*
X205692000Y-85594000D01*
X205763428Y-85451142D01*
X205763428Y-84665428D01*
X207549142Y-85094000D02*
X208263428Y-85094000D01*
X207406285Y-84665428D02*
X207906285Y-86165428D01*
X208406285Y-84665428D01*
X194656285Y-82644000D02*
X195370571Y-82644000D01*
X194513428Y-82215428D02*
X195013428Y-83715428D01*
X195513428Y-82215428D01*
X196656285Y-82215428D02*
X196656285Y-83715428D01*
X196656285Y-82286857D02*
X196513428Y-82215428D01*
X196227714Y-82215428D01*
X196084857Y-82286857D01*
X196013428Y-82358285D01*
X195942000Y-82501142D01*
X195942000Y-82929714D01*
X196013428Y-83072571D01*
X196084857Y-83144000D01*
X196227714Y-83215428D01*
X196513428Y-83215428D01*
X196656285Y-83144000D01*
X198013428Y-82215428D02*
X198013428Y-83001142D01*
X197942000Y-83144000D01*
X197799142Y-83215428D01*
X197513428Y-83215428D01*
X197370571Y-83144000D01*
X198013428Y-82286857D02*
X197870571Y-82215428D01*
X197513428Y-82215428D01*
X197370571Y-82286857D01*
X197299142Y-82429714D01*
X197299142Y-82572571D01*
X197370571Y-82715428D01*
X197513428Y-82786857D01*
X197870571Y-82786857D01*
X198013428Y-82858285D01*
X198727714Y-82215428D02*
X198727714Y-83215428D01*
X198727714Y-83072571D02*
X198799142Y-83144000D01*
X198942000Y-83215428D01*
X199156285Y-83215428D01*
X199299142Y-83144000D01*
X199370571Y-83001142D01*
X199370571Y-82215428D01*
X199370571Y-83001142D02*
X199442000Y-83144000D01*
X199584857Y-83215428D01*
X199799142Y-83215428D01*
X199942000Y-83144000D01*
X200013428Y-83001142D01*
X200013428Y-82215428D01*
X201799142Y-82286857D02*
X202013428Y-82215428D01*
X202370571Y-82215428D01*
X202513428Y-82286857D01*
X202584857Y-82358285D01*
X202656285Y-82501142D01*
X202656285Y-82644000D01*
X202584857Y-82786857D01*
X202513428Y-82858285D01*
X202370571Y-82929714D01*
X202084857Y-83001142D01*
X201942000Y-83072571D01*
X201870571Y-83144000D01*
X201799142Y-83286857D01*
X201799142Y-83429714D01*
X201870571Y-83572571D01*
X201942000Y-83644000D01*
X202084857Y-83715428D01*
X202442000Y-83715428D01*
X202656285Y-83644000D01*
X203870571Y-82286857D02*
X203727714Y-82215428D01*
X203442000Y-82215428D01*
X203299142Y-82286857D01*
X203227714Y-82429714D01*
X203227714Y-83001142D01*
X203299142Y-83144000D01*
X203442000Y-83215428D01*
X203727714Y-83215428D01*
X203870571Y-83144000D01*
X203942000Y-83001142D01*
X203942000Y-82858285D01*
X203227714Y-82715428D01*
X204584857Y-82215428D02*
X204584857Y-83215428D01*
X204584857Y-83715428D02*
X204513428Y-83644000D01*
X204584857Y-83572571D01*
X204656285Y-83644000D01*
X204584857Y-83715428D01*
X204584857Y-83572571D01*
X205942000Y-82215428D02*
X205942000Y-83715428D01*
X205942000Y-82286857D02*
X205799142Y-82215428D01*
X205513428Y-82215428D01*
X205370571Y-82286857D01*
X205299142Y-82358285D01*
X205227714Y-82501142D01*
X205227714Y-82929714D01*
X205299142Y-83072571D01*
X205370571Y-83144000D01*
X205513428Y-83215428D01*
X205799142Y-83215428D01*
X205942000Y-83144000D01*
X206656285Y-82215428D02*
X206656285Y-83215428D01*
X206656285Y-83072571D02*
X206727714Y-83144000D01*
X206870571Y-83215428D01*
X207084857Y-83215428D01*
X207227714Y-83144000D01*
X207299142Y-83001142D01*
X207299142Y-82215428D01*
X207299142Y-83001142D02*
X207370571Y-83144000D01*
X207513428Y-83215428D01*
X207727714Y-83215428D01*
X207870571Y-83144000D01*
X207942000Y-83001142D01*
X207942000Y-82215428D01*
X209299142Y-82215428D02*
X209299142Y-83001142D01*
X209227714Y-83144000D01*
X209084857Y-83215428D01*
X208799142Y-83215428D01*
X208656285Y-83144000D01*
X209299142Y-82286857D02*
X209156285Y-82215428D01*
X208799142Y-82215428D01*
X208656285Y-82286857D01*
X208584857Y-82429714D01*
X208584857Y-82572571D01*
X208656285Y-82715428D01*
X208799142Y-82786857D01*
X209156285Y-82786857D01*
X209299142Y-82858285D01*
X210013428Y-83215428D02*
X210013428Y-82215428D01*
X210013428Y-83072571D02*
X210084857Y-83144000D01*
X210227714Y-83215428D01*
X210442000Y-83215428D01*
X210584857Y-83144000D01*
X210656285Y-83001142D01*
X210656285Y-82215428D01*
X193834857Y-79194000D02*
X193763428Y-79265428D01*
X193620571Y-79479714D01*
X193549142Y-79622571D01*
X193477714Y-79836857D01*
X193406285Y-80194000D01*
X193406285Y-80479714D01*
X193477714Y-80836857D01*
X193549142Y-81051142D01*
X193620571Y-81194000D01*
X193763428Y-81408285D01*
X193834857Y-81479714D01*
X194263428Y-81265428D02*
X195263428Y-81265428D01*
X194620571Y-79765428D01*
X195692000Y-81265428D02*
X196620571Y-81265428D01*
X196120571Y-80694000D01*
X196334857Y-80694000D01*
X196477714Y-80622571D01*
X196549142Y-80551142D01*
X196620571Y-80408285D01*
X196620571Y-80051142D01*
X196549142Y-79908285D01*
X196477714Y-79836857D01*
X196334857Y-79765428D01*
X195906285Y-79765428D01*
X195763428Y-79836857D01*
X195692000Y-79908285D01*
X197192000Y-81122571D02*
X197263428Y-81194000D01*
X197406285Y-81265428D01*
X197763428Y-81265428D01*
X197906285Y-81194000D01*
X197977714Y-81122571D01*
X198049142Y-80979714D01*
X198049142Y-80836857D01*
X197977714Y-80622571D01*
X197120571Y-79765428D01*
X198049142Y-79765428D01*
X198549142Y-79194000D02*
X198620571Y-79265428D01*
X198763428Y-79479714D01*
X198834857Y-79622571D01*
X198906285Y-79836857D01*
X198977714Y-80194000D01*
X198977714Y-80479714D01*
X198906285Y-80836857D01*
X198834857Y-81051142D01*
X198763428Y-81194000D01*
X198620571Y-81408285D01*
X198549142Y-81479714D01*
X201049142Y-80622571D02*
X200906285Y-80694000D01*
X200834857Y-80765428D01*
X200763428Y-80908285D01*
X200763428Y-80979714D01*
X200834857Y-81122571D01*
X200906285Y-81194000D01*
X201049142Y-81265428D01*
X201334857Y-81265428D01*
X201477714Y-81194000D01*
X201549142Y-81122571D01*
X201620571Y-80979714D01*
X201620571Y-80908285D01*
X201549142Y-80765428D01*
X201477714Y-80694000D01*
X201334857Y-80622571D01*
X201049142Y-80622571D01*
X200906285Y-80551142D01*
X200834857Y-80479714D01*
X200763428Y-80336857D01*
X200763428Y-80051142D01*
X200834857Y-79908285D01*
X200906285Y-79836857D01*
X201049142Y-79765428D01*
X201334857Y-79765428D01*
X201477714Y-79836857D01*
X201549142Y-79908285D01*
X201620571Y-80051142D01*
X201620571Y-80336857D01*
X201549142Y-80479714D01*
X201477714Y-80551142D01*
X201334857Y-80622571D01*
X202477714Y-80622571D02*
X202334857Y-80694000D01*
X202263428Y-80765428D01*
X202192000Y-80908285D01*
X202192000Y-80979714D01*
X202263428Y-81122571D01*
X202334857Y-81194000D01*
X202477714Y-81265428D01*
X202763428Y-81265428D01*
X202906285Y-81194000D01*
X202977714Y-81122571D01*
X203049142Y-80979714D01*
X203049142Y-80908285D01*
X202977714Y-80765428D01*
X202906285Y-80694000D01*
X202763428Y-80622571D01*
X202477714Y-80622571D01*
X202334857Y-80551142D01*
X202263428Y-80479714D01*
X202192000Y-80336857D01*
X202192000Y-80051142D01*
X202263428Y-79908285D01*
X202334857Y-79836857D01*
X202477714Y-79765428D01*
X202763428Y-79765428D01*
X202906285Y-79836857D01*
X202977714Y-79908285D01*
X203049142Y-80051142D01*
X203049142Y-80336857D01*
X202977714Y-80479714D01*
X202906285Y-80551142D01*
X202763428Y-80622571D01*
X203620571Y-81122571D02*
X203692000Y-81194000D01*
X203834857Y-81265428D01*
X204192000Y-81265428D01*
X204334857Y-81194000D01*
X204406285Y-81122571D01*
X204477714Y-80979714D01*
X204477714Y-80836857D01*
X204406285Y-80622571D01*
X203549142Y-79765428D01*
X204477714Y-79765428D01*
X205120571Y-80336857D02*
X206263428Y-80336857D01*
X207049142Y-79765428D02*
X207334857Y-79765428D01*
X207477714Y-79836857D01*
X207549142Y-79908285D01*
X207692000Y-80122571D01*
X207763428Y-80408285D01*
X207763428Y-80979714D01*
X207692000Y-81122571D01*
X207620571Y-81194000D01*
X207477714Y-81265428D01*
X207192000Y-81265428D01*
X207049142Y-81194000D01*
X206977714Y-81122571D01*
X206906285Y-80979714D01*
X206906285Y-80622571D01*
X206977714Y-80479714D01*
X207049142Y-80408285D01*
X207192000Y-80336857D01*
X207477714Y-80336857D01*
X207620571Y-80408285D01*
X207692000Y-80479714D01*
X207763428Y-80622571D01*
X208263428Y-81265428D02*
X209263428Y-81265428D01*
X208620571Y-79765428D01*
X210620571Y-79765428D02*
X209763428Y-79765428D01*
X210192000Y-79765428D02*
X210192000Y-81265428D01*
X210049142Y-81051142D01*
X209906285Y-80908285D01*
X209763428Y-80836857D01*
X211120571Y-81265428D02*
X212120571Y-81265428D01*
X211477714Y-79765428D01*
M02*
