%TF.GenerationSoftware,KiCad,Pcbnew,(5.1.10)-1*%
%TF.CreationDate,2022-02-02T21:42:12-05:00*%
%TF.ProjectId,RevA,52657641-2e6b-4696-9361-645f70636258,rev?*%
%TF.SameCoordinates,Original*%
%TF.FileFunction,Copper,L1,Top*%
%TF.FilePolarity,Positive*%
%FSLAX46Y46*%
G04 Gerber Fmt 4.6, Leading zero omitted, Abs format (unit mm)*
G04 Created by KiCad (PCBNEW (5.1.10)-1) date 2022-02-02 21:42:12*
%MOMM*%
%LPD*%
G01*
G04 APERTURE LIST*
%TA.AperFunction,ComponentPad*%
%ADD10R,1.700000X1.700000*%
%TD*%
%TA.AperFunction,ComponentPad*%
%ADD11O,1.700000X1.700000*%
%TD*%
%TA.AperFunction,SMDPad,CuDef*%
%ADD12R,1.840000X0.930000*%
%TD*%
%TA.AperFunction,SMDPad,CuDef*%
%ADD13R,1.840000X3.190000*%
%TD*%
%TA.AperFunction,ComponentPad*%
%ADD14C,1.498600*%
%TD*%
%TA.AperFunction,Conductor*%
%ADD15C,0.250000*%
%TD*%
%TA.AperFunction,Conductor*%
%ADD16C,0.254000*%
%TD*%
%TA.AperFunction,Conductor*%
%ADD17C,0.100000*%
%TD*%
G04 APERTURE END LIST*
%TO.P,C1,1*%
%TO.N,/VCC*%
%TA.AperFunction,SMDPad,CuDef*%
G36*
G01*
X215048000Y-121655000D02*
X214548000Y-121655000D01*
G75*
G02*
X214323000Y-121430000I0J225000D01*
G01*
X214323000Y-120980000D01*
G75*
G02*
X214548000Y-120755000I225000J0D01*
G01*
X215048000Y-120755000D01*
G75*
G02*
X215273000Y-120980000I0J-225000D01*
G01*
X215273000Y-121430000D01*
G75*
G02*
X215048000Y-121655000I-225000J0D01*
G01*
G37*
%TD.AperFunction*%
%TO.P,C1,2*%
%TO.N,/GND*%
%TA.AperFunction,SMDPad,CuDef*%
G36*
G01*
X215048000Y-120105000D02*
X214548000Y-120105000D01*
G75*
G02*
X214323000Y-119880000I0J225000D01*
G01*
X214323000Y-119430000D01*
G75*
G02*
X214548000Y-119205000I225000J0D01*
G01*
X215048000Y-119205000D01*
G75*
G02*
X215273000Y-119430000I0J-225000D01*
G01*
X215273000Y-119880000D01*
G75*
G02*
X215048000Y-120105000I-225000J0D01*
G01*
G37*
%TD.AperFunction*%
%TD*%
%TO.P,C2,2*%
%TO.N,/GND*%
%TA.AperFunction,SMDPad,CuDef*%
G36*
G01*
X227683000Y-123630000D02*
X227683000Y-123130000D01*
G75*
G02*
X227908000Y-122905000I225000J0D01*
G01*
X228358000Y-122905000D01*
G75*
G02*
X228583000Y-123130000I0J-225000D01*
G01*
X228583000Y-123630000D01*
G75*
G02*
X228358000Y-123855000I-225000J0D01*
G01*
X227908000Y-123855000D01*
G75*
G02*
X227683000Y-123630000I0J225000D01*
G01*
G37*
%TD.AperFunction*%
%TO.P,C2,1*%
%TO.N,/5V*%
%TA.AperFunction,SMDPad,CuDef*%
G36*
G01*
X226133000Y-123630000D02*
X226133000Y-123130000D01*
G75*
G02*
X226358000Y-122905000I225000J0D01*
G01*
X226808000Y-122905000D01*
G75*
G02*
X227033000Y-123130000I0J-225000D01*
G01*
X227033000Y-123630000D01*
G75*
G02*
X226808000Y-123855000I-225000J0D01*
G01*
X226358000Y-123855000D01*
G75*
G02*
X226133000Y-123630000I0J225000D01*
G01*
G37*
%TD.AperFunction*%
%TD*%
%TO.P,C3,1*%
%TO.N,/5V*%
%TA.AperFunction,SMDPad,CuDef*%
G36*
G01*
X226133000Y-117630000D02*
X226133000Y-117130000D01*
G75*
G02*
X226358000Y-116905000I225000J0D01*
G01*
X226808000Y-116905000D01*
G75*
G02*
X227033000Y-117130000I0J-225000D01*
G01*
X227033000Y-117630000D01*
G75*
G02*
X226808000Y-117855000I-225000J0D01*
G01*
X226358000Y-117855000D01*
G75*
G02*
X226133000Y-117630000I0J225000D01*
G01*
G37*
%TD.AperFunction*%
%TO.P,C3,2*%
%TO.N,/GND*%
%TA.AperFunction,SMDPad,CuDef*%
G36*
G01*
X227683000Y-117630000D02*
X227683000Y-117130000D01*
G75*
G02*
X227908000Y-116905000I225000J0D01*
G01*
X228358000Y-116905000D01*
G75*
G02*
X228583000Y-117130000I0J-225000D01*
G01*
X228583000Y-117630000D01*
G75*
G02*
X228358000Y-117855000I-225000J0D01*
G01*
X227908000Y-117855000D01*
G75*
G02*
X227683000Y-117630000I0J225000D01*
G01*
G37*
%TD.AperFunction*%
%TD*%
%TO.P,C4,2*%
%TO.N,/GND*%
%TA.AperFunction,SMDPad,CuDef*%
G36*
G01*
X229008000Y-120805001D02*
X229008000Y-119954999D01*
G75*
G02*
X229257999Y-119705000I249999J0D01*
G01*
X230158001Y-119705000D01*
G75*
G02*
X230408000Y-119954999I0J-249999D01*
G01*
X230408000Y-120805001D01*
G75*
G02*
X230158001Y-121055000I-249999J0D01*
G01*
X229257999Y-121055000D01*
G75*
G02*
X229008000Y-120805001I0J249999D01*
G01*
G37*
%TD.AperFunction*%
%TO.P,C4,1*%
%TO.N,/5V*%
%TA.AperFunction,SMDPad,CuDef*%
G36*
G01*
X226308000Y-120805001D02*
X226308000Y-119954999D01*
G75*
G02*
X226557999Y-119705000I249999J0D01*
G01*
X227458001Y-119705000D01*
G75*
G02*
X227708000Y-119954999I0J-249999D01*
G01*
X227708000Y-120805001D01*
G75*
G02*
X227458001Y-121055000I-249999J0D01*
G01*
X226557999Y-121055000D01*
G75*
G02*
X226308000Y-120805001I0J249999D01*
G01*
G37*
%TD.AperFunction*%
%TD*%
%TO.P,D1,1*%
%TO.N,/GND*%
%TA.AperFunction,SMDPad,CuDef*%
G36*
G01*
X239833000Y-120823000D02*
X239833000Y-119573000D01*
G75*
G02*
X240083000Y-119323000I250000J0D01*
G01*
X240833000Y-119323000D01*
G75*
G02*
X241083000Y-119573000I0J-250000D01*
G01*
X241083000Y-120823000D01*
G75*
G02*
X240833000Y-121073000I-250000J0D01*
G01*
X240083000Y-121073000D01*
G75*
G02*
X239833000Y-120823000I0J250000D01*
G01*
G37*
%TD.AperFunction*%
%TO.P,D1,2*%
%TO.N,Net-(D1-Pad2)*%
%TA.AperFunction,SMDPad,CuDef*%
G36*
G01*
X242633000Y-120823000D02*
X242633000Y-119573000D01*
G75*
G02*
X242883000Y-119323000I250000J0D01*
G01*
X243633000Y-119323000D01*
G75*
G02*
X243883000Y-119573000I0J-250000D01*
G01*
X243883000Y-120823000D01*
G75*
G02*
X243633000Y-121073000I-250000J0D01*
G01*
X242883000Y-121073000D01*
G75*
G02*
X242633000Y-120823000I0J250000D01*
G01*
G37*
%TD.AperFunction*%
%TD*%
D10*
%TO.P,J1,1*%
%TO.N,/3.3V*%
X163000000Y-86570000D03*
D11*
%TO.P,J1,2*%
%TO.N,/5V*%
X165540000Y-86570000D03*
%TO.P,J1,3*%
%TO.N,/I2C_Data*%
X163000000Y-89110000D03*
%TO.P,J1,4*%
%TO.N,/5V*%
X165540000Y-89110000D03*
%TO.P,J1,5*%
%TO.N,/I2C_Clock*%
X163000000Y-91650000D03*
%TO.P,J1,6*%
%TO.N,/GND*%
X165540000Y-91650000D03*
%TO.P,J1,7*%
%TO.N,Net-(J1-Pad7)*%
X163000000Y-94190000D03*
%TO.P,J1,8*%
%TO.N,Net-(J1-Pad8)*%
X165540000Y-94190000D03*
%TO.P,J1,9*%
%TO.N,/GND*%
X163000000Y-96730000D03*
%TO.P,J1,10*%
%TO.N,Net-(J1-Pad10)*%
X165540000Y-96730000D03*
%TO.P,J1,11*%
%TO.N,Net-(J1-Pad11)*%
X163000000Y-99270000D03*
%TO.P,J1,12*%
%TO.N,Net-(J1-Pad12)*%
X165540000Y-99270000D03*
%TO.P,J1,13*%
%TO.N,Net-(J1-Pad13)*%
X163000000Y-101810000D03*
%TO.P,J1,14*%
%TO.N,/GND*%
X165540000Y-101810000D03*
%TO.P,J1,15*%
%TO.N,Net-(J1-Pad15)*%
X163000000Y-104350000D03*
%TO.P,J1,16*%
%TO.N,Net-(J1-Pad16)*%
X165540000Y-104350000D03*
%TO.P,J1,17*%
%TO.N,/3.3V*%
X163000000Y-106890000D03*
%TO.P,J1,18*%
%TO.N,Net-(J1-Pad18)*%
X165540000Y-106890000D03*
%TO.P,J1,19*%
%TO.N,Net-(J1-Pad19)*%
X163000000Y-109430000D03*
%TO.P,J1,20*%
%TO.N,/GND*%
X165540000Y-109430000D03*
%TD*%
D10*
%TO.P,J2,1*%
%TO.N,Net-(J2-Pad1)*%
X239500000Y-84030000D03*
D11*
%TO.P,J2,2*%
%TO.N,Net-(J2-Pad2)*%
X242040000Y-84030000D03*
%TO.P,J2,3*%
%TO.N,Net-(J2-Pad3)*%
X239500000Y-86570000D03*
%TO.P,J2,4*%
%TO.N,Net-(J2-Pad4)*%
X242040000Y-86570000D03*
%TO.P,J2,5*%
%TO.N,/GND*%
X239500000Y-89110000D03*
%TO.P,J2,6*%
%TO.N,Net-(J2-Pad6)*%
X242040000Y-89110000D03*
%TO.P,J2,7*%
%TO.N,Net-(J2-Pad7)*%
X239500000Y-91650000D03*
%TO.P,J2,8*%
%TO.N,Net-(J2-Pad8)*%
X242040000Y-91650000D03*
%TO.P,J2,9*%
%TO.N,Net-(J2-Pad9)*%
X239500000Y-94190000D03*
%TO.P,J2,10*%
%TO.N,/GND*%
X242040000Y-94190000D03*
%TO.P,J2,11*%
%TO.N,Net-(J2-Pad11)*%
X239500000Y-96730000D03*
%TO.P,J2,12*%
%TO.N,Net-(J2-Pad12)*%
X242040000Y-96730000D03*
%TO.P,J2,13*%
%TO.N,Net-(J2-Pad13)*%
X239500000Y-99270000D03*
%TO.P,J2,14*%
%TO.N,/GND*%
X242040000Y-99270000D03*
%TO.P,J2,15*%
%TO.N,Net-(J2-Pad15)*%
X239500000Y-101810000D03*
%TO.P,J2,16*%
%TO.N,Net-(J2-Pad16)*%
X242040000Y-101810000D03*
%TO.P,J2,17*%
%TO.N,Net-(J2-Pad17)*%
X239500000Y-104350000D03*
%TO.P,J2,18*%
%TO.N,Net-(J2-Pad18)*%
X242040000Y-104350000D03*
%TO.P,J2,19*%
%TO.N,/GND*%
X239500000Y-106890000D03*
%TO.P,J2,20*%
%TO.N,Net-(J2-Pad20)*%
X242040000Y-106890000D03*
%TO.P,J2,21*%
%TO.N,/Interconnect*%
X239500000Y-109430000D03*
%TO.P,J2,22*%
%TO.N,/Reset*%
X242040000Y-109430000D03*
%TO.P,J2,23*%
%TO.N,/VCC*%
X239500000Y-111970000D03*
%TO.P,J2,24*%
X242040000Y-111970000D03*
%TD*%
%TO.P,J4,3*%
%TO.N,Net-(J4-Pad3)*%
X177250000Y-97620000D03*
%TO.P,J4,2*%
%TO.N,/Digital_0*%
X177250000Y-95080000D03*
D10*
%TO.P,J4,1*%
%TO.N,Net-(J4-Pad1)*%
X177250000Y-92540000D03*
%TD*%
D11*
%TO.P,J6,3*%
%TO.N,Net-(J6-Pad3)*%
X182250000Y-97620000D03*
%TO.P,J6,2*%
%TO.N,/Digital_1*%
X182250000Y-95080000D03*
D10*
%TO.P,J6,1*%
%TO.N,Net-(J6-Pad1)*%
X182250000Y-92540000D03*
%TD*%
D11*
%TO.P,J8,3*%
%TO.N,Net-(J8-Pad3)*%
X187250000Y-97620000D03*
%TO.P,J8,2*%
%TO.N,/Digital_2*%
X187250000Y-95080000D03*
D10*
%TO.P,J8,1*%
%TO.N,Net-(J8-Pad1)*%
X187250000Y-92540000D03*
%TD*%
D11*
%TO.P,J10,3*%
%TO.N,Net-(J10-Pad3)*%
X192250000Y-97620000D03*
%TO.P,J10,2*%
%TO.N,/Digital_3*%
X192250000Y-95080000D03*
D10*
%TO.P,J10,1*%
%TO.N,Net-(J10-Pad1)*%
X192250000Y-92540000D03*
%TD*%
%TO.P,J11,1*%
%TO.N,Net-(J11-Pad1)*%
X217760000Y-77000000D03*
D11*
%TO.P,J11,2*%
%TO.N,Net-(J11-Pad2)*%
X217760000Y-79540000D03*
%TO.P,J11,3*%
%TO.N,/Reset*%
X217760000Y-82080000D03*
%TO.P,J11,4*%
%TO.N,/GND*%
X217760000Y-84620000D03*
%TO.P,J11,5*%
%TO.N,/Digital_0*%
X217760000Y-87160000D03*
%TO.P,J11,6*%
%TO.N,/Digital_1*%
X217760000Y-89700000D03*
%TO.P,J11,7*%
%TO.N,/Digital_2*%
X217760000Y-92240000D03*
%TO.P,J11,8*%
%TO.N,/Digital_3*%
X217760000Y-94780000D03*
%TO.P,J11,9*%
%TO.N,/Controller/D6*%
X217760000Y-97320000D03*
%TO.P,J11,10*%
%TO.N,/Controller/D7*%
X217760000Y-99860000D03*
%TO.P,J11,11*%
%TO.N,/Controller/D8*%
X217760000Y-102400000D03*
%TO.P,J11,12*%
%TO.N,/Controller/D9*%
X217760000Y-104940000D03*
%TO.P,J11,13*%
%TO.N,/Controller/D10*%
X217760000Y-107480000D03*
%TO.P,J11,14*%
%TO.N,/Controller/D11*%
X217760000Y-110020000D03*
%TO.P,J11,15*%
%TO.N,/Controller/D12*%
X217760000Y-112560000D03*
%TD*%
%TO.P,J12,15*%
%TO.N,/Controller/D13*%
X233000000Y-112560000D03*
%TO.P,J12,14*%
%TO.N,Net-(J12-Pad14)*%
X233000000Y-110020000D03*
%TO.P,J12,13*%
%TO.N,Net-(J12-Pad13)*%
X233000000Y-107480000D03*
%TO.P,J12,12*%
%TO.N,/Analog_0*%
X233000000Y-104940000D03*
%TO.P,J12,11*%
%TO.N,/Analog_1*%
X233000000Y-102400000D03*
%TO.P,J12,10*%
%TO.N,/Analog_2*%
X233000000Y-99860000D03*
%TO.P,J12,9*%
%TO.N,/Analog_3*%
X233000000Y-97320000D03*
%TO.P,J12,8*%
%TO.N,/I2C_Data*%
X233000000Y-94780000D03*
%TO.P,J12,7*%
%TO.N,/I2C_Clock*%
X233000000Y-92240000D03*
%TO.P,J12,6*%
%TO.N,/Controller/A6*%
X233000000Y-89700000D03*
%TO.P,J12,5*%
%TO.N,/Controller/A7*%
X233000000Y-87160000D03*
%TO.P,J12,4*%
%TO.N,Net-(J12-Pad4)*%
X233000000Y-84620000D03*
%TO.P,J12,3*%
%TO.N,Net-(J12-Pad3)*%
X233000000Y-82080000D03*
%TO.P,J12,2*%
%TO.N,/GND*%
X233000000Y-79540000D03*
D10*
%TO.P,J12,1*%
%TO.N,/5V*%
X233000000Y-77000000D03*
%TD*%
%TO.P,J13,1*%
%TO.N,/5V*%
X226822000Y-101600000D03*
D11*
%TO.P,J13,2*%
%TO.N,/Controller/A7*%
X224282000Y-101600000D03*
%TO.P,J13,3*%
%TO.N,/Controller/A6*%
X226822000Y-99060000D03*
%TO.P,J13,4*%
%TO.N,/Controller/D11*%
X224282000Y-99060000D03*
%TO.P,J13,5*%
%TO.N,/Controller/D12*%
X226822000Y-96520000D03*
%TO.P,J13,6*%
%TO.N,/GND*%
X224282000Y-96520000D03*
%TD*%
%TO.P,R1,2*%
%TO.N,/5V*%
%TA.AperFunction,SMDPad,CuDef*%
G36*
G01*
X175975000Y-102215000D02*
X176525000Y-102215000D01*
G75*
G02*
X176725000Y-102415000I0J-200000D01*
G01*
X176725000Y-102815000D01*
G75*
G02*
X176525000Y-103015000I-200000J0D01*
G01*
X175975000Y-103015000D01*
G75*
G02*
X175775000Y-102815000I0J200000D01*
G01*
X175775000Y-102415000D01*
G75*
G02*
X175975000Y-102215000I200000J0D01*
G01*
G37*
%TD.AperFunction*%
%TO.P,R1,1*%
%TO.N,Net-(J4-Pad3)*%
%TA.AperFunction,SMDPad,CuDef*%
G36*
G01*
X175975000Y-100565000D02*
X176525000Y-100565000D01*
G75*
G02*
X176725000Y-100765000I0J-200000D01*
G01*
X176725000Y-101165000D01*
G75*
G02*
X176525000Y-101365000I-200000J0D01*
G01*
X175975000Y-101365000D01*
G75*
G02*
X175775000Y-101165000I0J200000D01*
G01*
X175775000Y-100765000D01*
G75*
G02*
X175975000Y-100565000I200000J0D01*
G01*
G37*
%TD.AperFunction*%
%TD*%
%TO.P,R2,2*%
%TO.N,/GND*%
%TA.AperFunction,SMDPad,CuDef*%
G36*
G01*
X177975000Y-102215000D02*
X178525000Y-102215000D01*
G75*
G02*
X178725000Y-102415000I0J-200000D01*
G01*
X178725000Y-102815000D01*
G75*
G02*
X178525000Y-103015000I-200000J0D01*
G01*
X177975000Y-103015000D01*
G75*
G02*
X177775000Y-102815000I0J200000D01*
G01*
X177775000Y-102415000D01*
G75*
G02*
X177975000Y-102215000I200000J0D01*
G01*
G37*
%TD.AperFunction*%
%TO.P,R2,1*%
%TO.N,Net-(J4-Pad1)*%
%TA.AperFunction,SMDPad,CuDef*%
G36*
G01*
X177975000Y-100565000D02*
X178525000Y-100565000D01*
G75*
G02*
X178725000Y-100765000I0J-200000D01*
G01*
X178725000Y-101165000D01*
G75*
G02*
X178525000Y-101365000I-200000J0D01*
G01*
X177975000Y-101365000D01*
G75*
G02*
X177775000Y-101165000I0J200000D01*
G01*
X177775000Y-100765000D01*
G75*
G02*
X177975000Y-100565000I200000J0D01*
G01*
G37*
%TD.AperFunction*%
%TD*%
%TO.P,R3,1*%
%TO.N,Net-(J6-Pad3)*%
%TA.AperFunction,SMDPad,CuDef*%
G36*
G01*
X180975000Y-100565000D02*
X181525000Y-100565000D01*
G75*
G02*
X181725000Y-100765000I0J-200000D01*
G01*
X181725000Y-101165000D01*
G75*
G02*
X181525000Y-101365000I-200000J0D01*
G01*
X180975000Y-101365000D01*
G75*
G02*
X180775000Y-101165000I0J200000D01*
G01*
X180775000Y-100765000D01*
G75*
G02*
X180975000Y-100565000I200000J0D01*
G01*
G37*
%TD.AperFunction*%
%TO.P,R3,2*%
%TO.N,/5V*%
%TA.AperFunction,SMDPad,CuDef*%
G36*
G01*
X180975000Y-102215000D02*
X181525000Y-102215000D01*
G75*
G02*
X181725000Y-102415000I0J-200000D01*
G01*
X181725000Y-102815000D01*
G75*
G02*
X181525000Y-103015000I-200000J0D01*
G01*
X180975000Y-103015000D01*
G75*
G02*
X180775000Y-102815000I0J200000D01*
G01*
X180775000Y-102415000D01*
G75*
G02*
X180975000Y-102215000I200000J0D01*
G01*
G37*
%TD.AperFunction*%
%TD*%
%TO.P,R4,2*%
%TO.N,/GND*%
%TA.AperFunction,SMDPad,CuDef*%
G36*
G01*
X182975000Y-102215000D02*
X183525000Y-102215000D01*
G75*
G02*
X183725000Y-102415000I0J-200000D01*
G01*
X183725000Y-102815000D01*
G75*
G02*
X183525000Y-103015000I-200000J0D01*
G01*
X182975000Y-103015000D01*
G75*
G02*
X182775000Y-102815000I0J200000D01*
G01*
X182775000Y-102415000D01*
G75*
G02*
X182975000Y-102215000I200000J0D01*
G01*
G37*
%TD.AperFunction*%
%TO.P,R4,1*%
%TO.N,Net-(J6-Pad1)*%
%TA.AperFunction,SMDPad,CuDef*%
G36*
G01*
X182975000Y-100565000D02*
X183525000Y-100565000D01*
G75*
G02*
X183725000Y-100765000I0J-200000D01*
G01*
X183725000Y-101165000D01*
G75*
G02*
X183525000Y-101365000I-200000J0D01*
G01*
X182975000Y-101365000D01*
G75*
G02*
X182775000Y-101165000I0J200000D01*
G01*
X182775000Y-100765000D01*
G75*
G02*
X182975000Y-100565000I200000J0D01*
G01*
G37*
%TD.AperFunction*%
%TD*%
%TO.P,R5,1*%
%TO.N,Net-(J8-Pad3)*%
%TA.AperFunction,SMDPad,CuDef*%
G36*
G01*
X185975000Y-100565000D02*
X186525000Y-100565000D01*
G75*
G02*
X186725000Y-100765000I0J-200000D01*
G01*
X186725000Y-101165000D01*
G75*
G02*
X186525000Y-101365000I-200000J0D01*
G01*
X185975000Y-101365000D01*
G75*
G02*
X185775000Y-101165000I0J200000D01*
G01*
X185775000Y-100765000D01*
G75*
G02*
X185975000Y-100565000I200000J0D01*
G01*
G37*
%TD.AperFunction*%
%TO.P,R5,2*%
%TO.N,/5V*%
%TA.AperFunction,SMDPad,CuDef*%
G36*
G01*
X185975000Y-102215000D02*
X186525000Y-102215000D01*
G75*
G02*
X186725000Y-102415000I0J-200000D01*
G01*
X186725000Y-102815000D01*
G75*
G02*
X186525000Y-103015000I-200000J0D01*
G01*
X185975000Y-103015000D01*
G75*
G02*
X185775000Y-102815000I0J200000D01*
G01*
X185775000Y-102415000D01*
G75*
G02*
X185975000Y-102215000I200000J0D01*
G01*
G37*
%TD.AperFunction*%
%TD*%
%TO.P,R6,2*%
%TO.N,/GND*%
%TA.AperFunction,SMDPad,CuDef*%
G36*
G01*
X187975000Y-102215000D02*
X188525000Y-102215000D01*
G75*
G02*
X188725000Y-102415000I0J-200000D01*
G01*
X188725000Y-102815000D01*
G75*
G02*
X188525000Y-103015000I-200000J0D01*
G01*
X187975000Y-103015000D01*
G75*
G02*
X187775000Y-102815000I0J200000D01*
G01*
X187775000Y-102415000D01*
G75*
G02*
X187975000Y-102215000I200000J0D01*
G01*
G37*
%TD.AperFunction*%
%TO.P,R6,1*%
%TO.N,Net-(J8-Pad1)*%
%TA.AperFunction,SMDPad,CuDef*%
G36*
G01*
X187975000Y-100565000D02*
X188525000Y-100565000D01*
G75*
G02*
X188725000Y-100765000I0J-200000D01*
G01*
X188725000Y-101165000D01*
G75*
G02*
X188525000Y-101365000I-200000J0D01*
G01*
X187975000Y-101365000D01*
G75*
G02*
X187775000Y-101165000I0J200000D01*
G01*
X187775000Y-100765000D01*
G75*
G02*
X187975000Y-100565000I200000J0D01*
G01*
G37*
%TD.AperFunction*%
%TD*%
%TO.P,R7,1*%
%TO.N,Net-(J10-Pad3)*%
%TA.AperFunction,SMDPad,CuDef*%
G36*
G01*
X190975000Y-100565000D02*
X191525000Y-100565000D01*
G75*
G02*
X191725000Y-100765000I0J-200000D01*
G01*
X191725000Y-101165000D01*
G75*
G02*
X191525000Y-101365000I-200000J0D01*
G01*
X190975000Y-101365000D01*
G75*
G02*
X190775000Y-101165000I0J200000D01*
G01*
X190775000Y-100765000D01*
G75*
G02*
X190975000Y-100565000I200000J0D01*
G01*
G37*
%TD.AperFunction*%
%TO.P,R7,2*%
%TO.N,/5V*%
%TA.AperFunction,SMDPad,CuDef*%
G36*
G01*
X190975000Y-102215000D02*
X191525000Y-102215000D01*
G75*
G02*
X191725000Y-102415000I0J-200000D01*
G01*
X191725000Y-102815000D01*
G75*
G02*
X191525000Y-103015000I-200000J0D01*
G01*
X190975000Y-103015000D01*
G75*
G02*
X190775000Y-102815000I0J200000D01*
G01*
X190775000Y-102415000D01*
G75*
G02*
X190975000Y-102215000I200000J0D01*
G01*
G37*
%TD.AperFunction*%
%TD*%
%TO.P,R8,2*%
%TO.N,/GND*%
%TA.AperFunction,SMDPad,CuDef*%
G36*
G01*
X192975000Y-102215000D02*
X193525000Y-102215000D01*
G75*
G02*
X193725000Y-102415000I0J-200000D01*
G01*
X193725000Y-102815000D01*
G75*
G02*
X193525000Y-103015000I-200000J0D01*
G01*
X192975000Y-103015000D01*
G75*
G02*
X192775000Y-102815000I0J200000D01*
G01*
X192775000Y-102415000D01*
G75*
G02*
X192975000Y-102215000I200000J0D01*
G01*
G37*
%TD.AperFunction*%
%TO.P,R8,1*%
%TO.N,Net-(J10-Pad1)*%
%TA.AperFunction,SMDPad,CuDef*%
G36*
G01*
X192975000Y-100565000D02*
X193525000Y-100565000D01*
G75*
G02*
X193725000Y-100765000I0J-200000D01*
G01*
X193725000Y-101165000D01*
G75*
G02*
X193525000Y-101365000I-200000J0D01*
G01*
X192975000Y-101365000D01*
G75*
G02*
X192775000Y-101165000I0J200000D01*
G01*
X192775000Y-100765000D01*
G75*
G02*
X192975000Y-100565000I200000J0D01*
G01*
G37*
%TD.AperFunction*%
%TD*%
%TO.P,R9,1*%
%TO.N,/VCC*%
%TA.AperFunction,SMDPad,CuDef*%
G36*
G01*
X236133000Y-120473000D02*
X236133000Y-119923000D01*
G75*
G02*
X236333000Y-119723000I200000J0D01*
G01*
X236733000Y-119723000D01*
G75*
G02*
X236933000Y-119923000I0J-200000D01*
G01*
X236933000Y-120473000D01*
G75*
G02*
X236733000Y-120673000I-200000J0D01*
G01*
X236333000Y-120673000D01*
G75*
G02*
X236133000Y-120473000I0J200000D01*
G01*
G37*
%TD.AperFunction*%
%TO.P,R9,2*%
%TO.N,Net-(D1-Pad2)*%
%TA.AperFunction,SMDPad,CuDef*%
G36*
G01*
X237783000Y-120473000D02*
X237783000Y-119923000D01*
G75*
G02*
X237983000Y-119723000I200000J0D01*
G01*
X238383000Y-119723000D01*
G75*
G02*
X238583000Y-119923000I0J-200000D01*
G01*
X238583000Y-120473000D01*
G75*
G02*
X238383000Y-120673000I-200000J0D01*
G01*
X237983000Y-120673000D01*
G75*
G02*
X237783000Y-120473000I0J200000D01*
G01*
G37*
%TD.AperFunction*%
%TD*%
D12*
%TO.P,VR1,1*%
%TO.N,/GND*%
X217273000Y-118080000D03*
%TO.P,VR1,2*%
%TO.N,/5V*%
X217273000Y-120380000D03*
%TO.P,VR1,3*%
%TO.N,/VCC*%
X217273000Y-122680000D03*
D13*
%TO.P,VR1,4*%
%TO.N,/5V*%
X223443000Y-120380000D03*
%TD*%
D14*
%TO.P,J3,4*%
%TO.N,/Digital_1*%
X181323998Y-75946000D03*
%TO.P,J3,3*%
%TO.N,/GND*%
X184823999Y-75946000D03*
%TO.P,J3,2*%
%TO.N,/5V*%
X188323999Y-75946000D03*
%TO.P,J3,1*%
%TO.N,/Digital_2*%
X191824000Y-75946000D03*
%TD*%
%TO.P,J5,1*%
%TO.N,/5V*%
X174824000Y-75946000D03*
%TO.P,J5,2*%
%TO.N,/GND*%
X171323999Y-75946000D03*
%TO.P,J5,3*%
%TO.N,/Digital_0*%
X167823999Y-75946000D03*
%TO.P,J5,4*%
%TO.N,/5V*%
X164323998Y-75946000D03*
%TD*%
%TO.P,J7,4*%
%TO.N,/GND*%
X198323998Y-75946000D03*
%TO.P,J7,3*%
%TO.N,/5V*%
X201823999Y-75946000D03*
%TO.P,J7,2*%
%TO.N,/Digital_3*%
X205323999Y-75946000D03*
%TO.P,J7,1*%
%TO.N,/GND*%
X208824000Y-75946000D03*
%TD*%
%TO.P,J9,1*%
%TO.N,/5V*%
X164628000Y-120142000D03*
%TO.P,J9,2*%
%TO.N,/Analog_0*%
X168128001Y-120142000D03*
%TO.P,J9,3*%
%TO.N,/GND*%
X171628001Y-120142000D03*
%TO.P,J9,4*%
%TO.N,/5V*%
X175128002Y-120142000D03*
%TD*%
%TO.P,J14,1*%
%TO.N,/GND*%
X198628000Y-120142000D03*
%TO.P,J14,2*%
%TO.N,/5V*%
X202128001Y-120142000D03*
%TO.P,J14,3*%
%TO.N,/Analog_3*%
X205628001Y-120142000D03*
%TO.P,J14,4*%
%TO.N,/GND*%
X209128002Y-120142000D03*
%TD*%
%TO.P,J16,1*%
%TO.N,/Analog_1*%
X181628000Y-120142000D03*
%TO.P,J16,2*%
%TO.N,/GND*%
X185128001Y-120142000D03*
%TO.P,J16,3*%
%TO.N,/5V*%
X188628001Y-120142000D03*
%TO.P,J16,4*%
%TO.N,/Analog_2*%
X192128002Y-120142000D03*
%TD*%
D15*
%TO.N,/VCC*%
X218518300Y-122680000D02*
X220477300Y-124639000D01*
X220477300Y-124639000D02*
X232092000Y-124639000D01*
X232092000Y-124639000D02*
X236533000Y-120198000D01*
X239500000Y-111970000D02*
X239500000Y-113145300D01*
X236533000Y-120198000D02*
X236533000Y-116112300D01*
X236533000Y-116112300D02*
X239500000Y-113145300D01*
X217273000Y-122680000D02*
X218518300Y-122680000D01*
X217273000Y-122680000D02*
X216027700Y-122680000D01*
X216027700Y-122680000D02*
X216027700Y-122434700D01*
X216027700Y-122434700D02*
X214798000Y-121205000D01*
%TO.N,/GND*%
X229708000Y-118955000D02*
X229708000Y-120380000D01*
X228133000Y-117380000D02*
X229708000Y-118955000D01*
X229708000Y-118955000D02*
X237963000Y-110700000D01*
X237963000Y-110700000D02*
X238307100Y-110700000D01*
X238307100Y-110700000D02*
X239930900Y-110700000D01*
X239930900Y-110700000D02*
X240685800Y-111454900D01*
X240685800Y-111454900D02*
X240685800Y-119970200D01*
X240685800Y-119970200D02*
X240458000Y-120198000D01*
X238307100Y-110700000D02*
X238307100Y-108890800D01*
X238307100Y-108890800D02*
X239132600Y-108065300D01*
X239132600Y-108065300D02*
X239500000Y-108065300D01*
X239500000Y-106890000D02*
X239500000Y-108065300D01*
X233000000Y-79540000D02*
X231824700Y-79540000D01*
X231824700Y-79540000D02*
X226744700Y-84620000D01*
X226744700Y-84620000D02*
X217760000Y-84620000D01*
X228133000Y-123380000D02*
X227331700Y-124181300D01*
X227331700Y-124181300D02*
X222654700Y-124181300D01*
X222654700Y-124181300D02*
X219654600Y-121181200D01*
X219654600Y-121181200D02*
X216159400Y-121181200D01*
X216159400Y-121181200D02*
X214798000Y-119819800D01*
X214798000Y-119819800D02*
X214798000Y-119655000D01*
X229708000Y-120380000D02*
X229708000Y-121805000D01*
X229708000Y-121805000D02*
X228133000Y-123380000D01*
X209128000Y-120142000D02*
X214311000Y-120142000D01*
X214311000Y-120142000D02*
X214798000Y-119655000D01*
X198628000Y-120142000D02*
X199719700Y-121233700D01*
X199719700Y-121233700D02*
X208036300Y-121233700D01*
X208036300Y-121233700D02*
X209128000Y-120142000D01*
X217273000Y-118080000D02*
X216027700Y-118080000D01*
X214798000Y-119655000D02*
X216027700Y-118425300D01*
X216027700Y-118425300D02*
X216027700Y-118080000D01*
X183250000Y-102615000D02*
X183976200Y-103341200D01*
X183976200Y-103341200D02*
X187523800Y-103341200D01*
X187523800Y-103341200D02*
X188250000Y-102615000D01*
X178250000Y-102615000D02*
X178976200Y-103341200D01*
X178976200Y-103341200D02*
X182523800Y-103341200D01*
X182523800Y-103341200D02*
X183250000Y-102615000D01*
X172590000Y-119067400D02*
X172590000Y-117655300D01*
X172590000Y-117655300D02*
X165540000Y-110605300D01*
X171628000Y-120142000D02*
X172590000Y-119180000D01*
X172590000Y-119180000D02*
X172590000Y-119067400D01*
X172590000Y-119067400D02*
X184053400Y-119067400D01*
X184053400Y-119067400D02*
X185128000Y-120142000D01*
X165540000Y-109430000D02*
X165540000Y-110605300D01*
X184824000Y-75946000D02*
X183700300Y-74822300D01*
X183700300Y-74822300D02*
X172447700Y-74822300D01*
X172447700Y-74822300D02*
X171324000Y-75946000D01*
X198324000Y-75946000D02*
X197249300Y-74871300D01*
X197249300Y-74871300D02*
X185898700Y-74871300D01*
X185898700Y-74871300D02*
X184824000Y-75946000D01*
X242040000Y-94190000D02*
X242040000Y-95365300D01*
X242040000Y-99270000D02*
X242040000Y-98094700D01*
X242040000Y-98094700D02*
X241672700Y-98094700D01*
X241672700Y-98094700D02*
X240864700Y-97286700D01*
X240864700Y-97286700D02*
X240864700Y-96173200D01*
X240864700Y-96173200D02*
X241672600Y-95365300D01*
X241672600Y-95365300D02*
X242040000Y-95365300D01*
X165540000Y-91650000D02*
X165540000Y-92825300D01*
X163000000Y-96730000D02*
X163000000Y-95554700D01*
X163000000Y-95554700D02*
X163367400Y-95554700D01*
X163367400Y-95554700D02*
X164364700Y-94557400D01*
X164364700Y-94557400D02*
X164364700Y-93633200D01*
X164364700Y-93633200D02*
X165172600Y-92825300D01*
X165172600Y-92825300D02*
X165540000Y-92825300D01*
X242040000Y-94190000D02*
X242040000Y-93014700D01*
X239500000Y-89110000D02*
X239500000Y-90285300D01*
X239500000Y-90285300D02*
X239867400Y-90285300D01*
X239867400Y-90285300D02*
X240864700Y-91282600D01*
X240864700Y-91282600D02*
X240864700Y-92206800D01*
X240864700Y-92206800D02*
X241672600Y-93014700D01*
X241672600Y-93014700D02*
X242040000Y-93014700D01*
X193250000Y-102615000D02*
X192523800Y-103341200D01*
X192523800Y-103341200D02*
X188976200Y-103341200D01*
X188976200Y-103341200D02*
X188250000Y-102615000D01*
X168251300Y-103346000D02*
X177519000Y-103346000D01*
X177519000Y-103346000D02*
X178250000Y-102615000D01*
X168251300Y-103346000D02*
X166715300Y-101810000D01*
X165540000Y-108254700D02*
X165907300Y-108254700D01*
X165907300Y-108254700D02*
X168251300Y-105910700D01*
X168251300Y-105910700D02*
X168251300Y-103346000D01*
X165540000Y-109430000D02*
X165540000Y-108254700D01*
X165540000Y-101810000D02*
X166715300Y-101810000D01*
X208824000Y-75946000D02*
X207749300Y-74871300D01*
X207749300Y-74871300D02*
X199398700Y-74871300D01*
X199398700Y-74871300D02*
X198324000Y-75946000D01*
%TO.N,/5V*%
X225503300Y-118459700D02*
X226583000Y-117380000D01*
X223443000Y-118459700D02*
X225503300Y-118459700D01*
X225503300Y-118459700D02*
X225503300Y-118875300D01*
X225503300Y-118875300D02*
X227008000Y-120380000D01*
X219290300Y-118459700D02*
X223443000Y-118459700D01*
X219290300Y-118459700D02*
X219290300Y-119608000D01*
X219290300Y-119608000D02*
X218518300Y-120380000D01*
X202128000Y-120142000D02*
X204980400Y-117289600D01*
X204980400Y-117289600D02*
X218387400Y-117289600D01*
X218387400Y-117289600D02*
X219290300Y-118192500D01*
X219290300Y-118192500D02*
X219290300Y-118459700D01*
X223443000Y-120380000D02*
X223443000Y-118459700D01*
X166747100Y-100540000D02*
X165147400Y-100540000D01*
X165147400Y-100540000D02*
X164354200Y-101333200D01*
X164354200Y-101333200D02*
X164354200Y-119868200D01*
X164354200Y-119868200D02*
X164628000Y-120142000D01*
X176250000Y-102615000D02*
X174175000Y-100540000D01*
X174175000Y-100540000D02*
X166747100Y-100540000D01*
X165540000Y-90285300D02*
X165907400Y-90285300D01*
X165907400Y-90285300D02*
X166747100Y-91125000D01*
X166747100Y-91125000D02*
X166747100Y-100540000D01*
X175128000Y-120142000D02*
X174016100Y-121253900D01*
X174016100Y-121253900D02*
X165739900Y-121253900D01*
X165739900Y-121253900D02*
X164628000Y-120142000D01*
X165540000Y-89110000D02*
X165540000Y-90285300D01*
X188628000Y-120142000D02*
X189740800Y-119029200D01*
X189740800Y-119029200D02*
X201015200Y-119029200D01*
X201015200Y-119029200D02*
X202128000Y-120142000D01*
X186250000Y-102615000D02*
X185519000Y-101884000D01*
X185519000Y-101884000D02*
X181981000Y-101884000D01*
X181981000Y-101884000D02*
X181250000Y-102615000D01*
X186250000Y-102615000D02*
X187022800Y-101842200D01*
X187022800Y-101842200D02*
X190477200Y-101842200D01*
X190477200Y-101842200D02*
X191250000Y-102615000D01*
X181250000Y-102615000D02*
X180477200Y-101842200D01*
X180477200Y-101842200D02*
X177022800Y-101842200D01*
X177022800Y-101842200D02*
X176250000Y-102615000D01*
X233000000Y-77000000D02*
X233000000Y-78175300D01*
X217273000Y-120380000D02*
X218518300Y-120380000D01*
X226583000Y-117380000D02*
X226583000Y-112234600D01*
X226583000Y-112234600D02*
X232607600Y-106210000D01*
X232607600Y-106210000D02*
X233451200Y-106210000D01*
X233451200Y-106210000D02*
X234181200Y-105480000D01*
X234181200Y-105480000D02*
X234181200Y-101725800D01*
X234181200Y-101725800D02*
X233490800Y-101035400D01*
X233490800Y-101035400D02*
X228561900Y-101035400D01*
X228561900Y-101035400D02*
X227997300Y-101600000D01*
X233000000Y-78175300D02*
X233367300Y-78175300D01*
X233367300Y-78175300D02*
X235087400Y-79895400D01*
X235087400Y-79895400D02*
X235087400Y-99438800D01*
X235087400Y-99438800D02*
X233490800Y-101035400D01*
X226822000Y-101600000D02*
X227997300Y-101600000D01*
X188324000Y-75946000D02*
X189408700Y-77030700D01*
X189408700Y-77030700D02*
X200739300Y-77030700D01*
X200739300Y-77030700D02*
X201824000Y-75946000D01*
X226583000Y-123380000D02*
X227008000Y-122955000D01*
X227008000Y-122955000D02*
X227008000Y-120380000D01*
%TO.N,Net-(D1-Pad2)*%
X238183000Y-120198000D02*
X239397200Y-121412200D01*
X239397200Y-121412200D02*
X242043800Y-121412200D01*
X242043800Y-121412200D02*
X243258000Y-120198000D01*
%TO.N,/I2C_Data*%
X163000000Y-89110000D02*
X164175300Y-89110000D01*
X233000000Y-94780000D02*
X231824700Y-94780000D01*
X231824700Y-94780000D02*
X230649400Y-93604700D01*
X230649400Y-93604700D02*
X197583000Y-93604700D01*
X197583000Y-93604700D02*
X191875900Y-87897600D01*
X191875900Y-87897600D02*
X165077900Y-87897600D01*
X165077900Y-87897600D02*
X164175300Y-88800200D01*
X164175300Y-88800200D02*
X164175300Y-89110000D01*
%TO.N,/I2C_Clock*%
X231824700Y-92240000D02*
X230462800Y-90878100D01*
X230462800Y-90878100D02*
X195493300Y-90878100D01*
X195493300Y-90878100D02*
X190002200Y-85387000D01*
X190002200Y-85387000D02*
X165004700Y-85387000D01*
X165004700Y-85387000D02*
X164364600Y-86027100D01*
X164364600Y-86027100D02*
X164364600Y-87407400D01*
X164364600Y-87407400D02*
X163982900Y-87789100D01*
X163982900Y-87789100D02*
X162590200Y-87789100D01*
X162590200Y-87789100D02*
X161824700Y-88554600D01*
X161824700Y-88554600D02*
X161824700Y-89666800D01*
X161824700Y-89666800D02*
X162632600Y-90474700D01*
X162632600Y-90474700D02*
X163000000Y-90474700D01*
X163000000Y-91650000D02*
X163000000Y-90474700D01*
X233000000Y-92240000D02*
X231824700Y-92240000D01*
%TO.N,Net-(J4-Pad3)*%
X177250000Y-97620000D02*
X177250000Y-98795300D01*
X176250000Y-100965000D02*
X176250000Y-99795300D01*
X176250000Y-99795300D02*
X177250000Y-98795300D01*
%TO.N,Net-(J4-Pad1)*%
X177250000Y-92540000D02*
X177250000Y-93715300D01*
X178250000Y-100965000D02*
X178425300Y-100789700D01*
X178425300Y-100789700D02*
X178425300Y-94523200D01*
X178425300Y-94523200D02*
X177617400Y-93715300D01*
X177617400Y-93715300D02*
X177250000Y-93715300D01*
%TO.N,/Digital_1*%
X217760000Y-89700000D02*
X195078000Y-89700000D01*
X195078000Y-89700000D02*
X181324000Y-75946000D01*
%TO.N,Net-(J6-Pad3)*%
X182250000Y-97620000D02*
X182250000Y-98795300D01*
X181250000Y-100965000D02*
X181250000Y-99795300D01*
X181250000Y-99795300D02*
X182250000Y-98795300D01*
%TO.N,Net-(J6-Pad1)*%
X182250000Y-92540000D02*
X182250000Y-93715300D01*
X183250000Y-100965000D02*
X183425300Y-100789700D01*
X183425300Y-100789700D02*
X183425300Y-94523200D01*
X183425300Y-94523200D02*
X182617400Y-93715300D01*
X182617400Y-93715300D02*
X182250000Y-93715300D01*
%TO.N,Net-(J8-Pad3)*%
X187250000Y-97620000D02*
X187250000Y-98795300D01*
X186250000Y-100965000D02*
X186250000Y-99795300D01*
X186250000Y-99795300D02*
X187250000Y-98795300D01*
%TO.N,Net-(J8-Pad1)*%
X187250000Y-92540000D02*
X187250000Y-93715300D01*
X188250000Y-100965000D02*
X188425300Y-100789700D01*
X188425300Y-100789700D02*
X188425300Y-94523200D01*
X188425300Y-94523200D02*
X187617400Y-93715300D01*
X187617400Y-93715300D02*
X187250000Y-93715300D01*
%TO.N,Net-(J10-Pad3)*%
X192250000Y-97620000D02*
X192250000Y-98795300D01*
X191250000Y-100965000D02*
X191250000Y-99795300D01*
X191250000Y-99795300D02*
X192250000Y-98795300D01*
%TO.N,Net-(J10-Pad1)*%
X192250000Y-92540000D02*
X192250000Y-93715300D01*
X193250000Y-100965000D02*
X193425300Y-100789700D01*
X193425300Y-100789700D02*
X193425300Y-94523200D01*
X193425300Y-94523200D02*
X192617400Y-93715300D01*
X192617400Y-93715300D02*
X192250000Y-93715300D01*
%TO.N,/Analog_1*%
X233000000Y-102400000D02*
X231824700Y-102400000D01*
X181628000Y-120142000D02*
X182715300Y-121229300D01*
X182715300Y-121229300D02*
X185616000Y-121229300D01*
X185616000Y-121229300D02*
X203270000Y-103575300D01*
X203270000Y-103575300D02*
X230649400Y-103575300D01*
X230649400Y-103575300D02*
X231824700Y-102400000D01*
%TO.N,/Controller/A6*%
X233000000Y-89700000D02*
X233000000Y-90875300D01*
X226822000Y-99060000D02*
X227997300Y-99060000D01*
X227997300Y-99060000D02*
X231007300Y-96050000D01*
X231007300Y-96050000D02*
X233392500Y-96050000D01*
X233392500Y-96050000D02*
X234175300Y-95267200D01*
X234175300Y-95267200D02*
X234175300Y-91683200D01*
X234175300Y-91683200D02*
X233367400Y-90875300D01*
X233367400Y-90875300D02*
X233000000Y-90875300D01*
%TO.N,/Controller/A7*%
X233000000Y-87160000D02*
X233000000Y-88335300D01*
X224282000Y-101600000D02*
X225457300Y-101600000D01*
X225457300Y-101600000D02*
X225457300Y-100791900D01*
X225457300Y-100791900D02*
X225824500Y-100424700D01*
X225824500Y-100424700D02*
X228796000Y-100424700D01*
X228796000Y-100424700D02*
X230681700Y-98539000D01*
X230681700Y-98539000D02*
X233520300Y-98539000D01*
X233520300Y-98539000D02*
X234634900Y-97424400D01*
X234634900Y-97424400D02*
X234634900Y-89604900D01*
X234634900Y-89604900D02*
X233365300Y-88335300D01*
X233365300Y-88335300D02*
X233000000Y-88335300D01*
%TD*%
D16*
%TO.N,/GND*%
X242046131Y-70741834D02*
X242571462Y-70900441D01*
X243055980Y-71158064D01*
X243481231Y-71504889D01*
X243831020Y-71927711D01*
X244092016Y-72410414D01*
X244254287Y-72934628D01*
X244315000Y-73512271D01*
X244315001Y-119010885D01*
X244260962Y-118945038D01*
X244126386Y-118834595D01*
X243972850Y-118752528D01*
X243806254Y-118701992D01*
X243633000Y-118684928D01*
X242883000Y-118684928D01*
X242709746Y-118701992D01*
X242543150Y-118752528D01*
X242389614Y-118834595D01*
X242255038Y-118945038D01*
X242144595Y-119079614D01*
X242062528Y-119233150D01*
X242011992Y-119399746D01*
X241994928Y-119573000D01*
X241994928Y-120386271D01*
X241728999Y-120652200D01*
X241718878Y-120652200D01*
X241718000Y-120483750D01*
X241559250Y-120325000D01*
X240585000Y-120325000D01*
X240585000Y-120345000D01*
X240331000Y-120345000D01*
X240331000Y-120325000D01*
X240311000Y-120325000D01*
X240311000Y-120071000D01*
X240331000Y-120071000D01*
X240331000Y-118846750D01*
X240585000Y-118846750D01*
X240585000Y-120071000D01*
X241559250Y-120071000D01*
X241718000Y-119912250D01*
X241721072Y-119323000D01*
X241708812Y-119198518D01*
X241672502Y-119078820D01*
X241613537Y-118968506D01*
X241534185Y-118871815D01*
X241437494Y-118792463D01*
X241327180Y-118733498D01*
X241207482Y-118697188D01*
X241083000Y-118684928D01*
X240743750Y-118688000D01*
X240585000Y-118846750D01*
X240331000Y-118846750D01*
X240172250Y-118688000D01*
X239833000Y-118684928D01*
X239708518Y-118697188D01*
X239588820Y-118733498D01*
X239478506Y-118792463D01*
X239381815Y-118871815D01*
X239302463Y-118968506D01*
X239243498Y-119078820D01*
X239207188Y-119198518D01*
X239194928Y-119323000D01*
X239197068Y-119733453D01*
X239157278Y-119602284D01*
X239079831Y-119457392D01*
X238975606Y-119330394D01*
X238848608Y-119226169D01*
X238703716Y-119148722D01*
X238546500Y-119101031D01*
X238383000Y-119084928D01*
X237983000Y-119084928D01*
X237819500Y-119101031D01*
X237662284Y-119148722D01*
X237517392Y-119226169D01*
X237390394Y-119330394D01*
X237358000Y-119369866D01*
X237325606Y-119330394D01*
X237293000Y-119303635D01*
X237293000Y-116427101D01*
X240011003Y-113709099D01*
X240040001Y-113685301D01*
X240134974Y-113569576D01*
X240205546Y-113437547D01*
X240249003Y-113294286D01*
X240253089Y-113252796D01*
X240446632Y-113123475D01*
X240653475Y-112916632D01*
X240770000Y-112742240D01*
X240886525Y-112916632D01*
X241093368Y-113123475D01*
X241336589Y-113285990D01*
X241606842Y-113397932D01*
X241893740Y-113455000D01*
X242186260Y-113455000D01*
X242473158Y-113397932D01*
X242743411Y-113285990D01*
X242986632Y-113123475D01*
X243193475Y-112916632D01*
X243355990Y-112673411D01*
X243467932Y-112403158D01*
X243525000Y-112116260D01*
X243525000Y-111823740D01*
X243467932Y-111536842D01*
X243355990Y-111266589D01*
X243193475Y-111023368D01*
X242986632Y-110816525D01*
X242812240Y-110700000D01*
X242986632Y-110583475D01*
X243193475Y-110376632D01*
X243355990Y-110133411D01*
X243467932Y-109863158D01*
X243525000Y-109576260D01*
X243525000Y-109283740D01*
X243467932Y-108996842D01*
X243355990Y-108726589D01*
X243193475Y-108483368D01*
X242986632Y-108276525D01*
X242812240Y-108160000D01*
X242986632Y-108043475D01*
X243193475Y-107836632D01*
X243355990Y-107593411D01*
X243467932Y-107323158D01*
X243525000Y-107036260D01*
X243525000Y-106743740D01*
X243467932Y-106456842D01*
X243355990Y-106186589D01*
X243193475Y-105943368D01*
X242986632Y-105736525D01*
X242812240Y-105620000D01*
X242986632Y-105503475D01*
X243193475Y-105296632D01*
X243355990Y-105053411D01*
X243467932Y-104783158D01*
X243525000Y-104496260D01*
X243525000Y-104203740D01*
X243467932Y-103916842D01*
X243355990Y-103646589D01*
X243193475Y-103403368D01*
X242986632Y-103196525D01*
X242812240Y-103080000D01*
X242986632Y-102963475D01*
X243193475Y-102756632D01*
X243355990Y-102513411D01*
X243467932Y-102243158D01*
X243525000Y-101956260D01*
X243525000Y-101663740D01*
X243467932Y-101376842D01*
X243355990Y-101106589D01*
X243193475Y-100863368D01*
X242986632Y-100656525D01*
X242804466Y-100534805D01*
X242921355Y-100465178D01*
X243137588Y-100270269D01*
X243311641Y-100036920D01*
X243436825Y-99774099D01*
X243481476Y-99626890D01*
X243360155Y-99397000D01*
X242167000Y-99397000D01*
X242167000Y-99417000D01*
X241913000Y-99417000D01*
X241913000Y-99397000D01*
X241893000Y-99397000D01*
X241893000Y-99143000D01*
X241913000Y-99143000D01*
X241913000Y-99123000D01*
X242167000Y-99123000D01*
X242167000Y-99143000D01*
X243360155Y-99143000D01*
X243481476Y-98913110D01*
X243436825Y-98765901D01*
X243311641Y-98503080D01*
X243137588Y-98269731D01*
X242921355Y-98074822D01*
X242804466Y-98005195D01*
X242986632Y-97883475D01*
X243193475Y-97676632D01*
X243355990Y-97433411D01*
X243467932Y-97163158D01*
X243525000Y-96876260D01*
X243525000Y-96583740D01*
X243467932Y-96296842D01*
X243355990Y-96026589D01*
X243193475Y-95783368D01*
X242986632Y-95576525D01*
X242804466Y-95454805D01*
X242921355Y-95385178D01*
X243137588Y-95190269D01*
X243311641Y-94956920D01*
X243436825Y-94694099D01*
X243481476Y-94546890D01*
X243360155Y-94317000D01*
X242167000Y-94317000D01*
X242167000Y-94337000D01*
X241913000Y-94337000D01*
X241913000Y-94317000D01*
X241893000Y-94317000D01*
X241893000Y-94063000D01*
X241913000Y-94063000D01*
X241913000Y-94043000D01*
X242167000Y-94043000D01*
X242167000Y-94063000D01*
X243360155Y-94063000D01*
X243481476Y-93833110D01*
X243436825Y-93685901D01*
X243311641Y-93423080D01*
X243137588Y-93189731D01*
X242921355Y-92994822D01*
X242804466Y-92925195D01*
X242986632Y-92803475D01*
X243193475Y-92596632D01*
X243355990Y-92353411D01*
X243467932Y-92083158D01*
X243525000Y-91796260D01*
X243525000Y-91503740D01*
X243467932Y-91216842D01*
X243355990Y-90946589D01*
X243193475Y-90703368D01*
X242986632Y-90496525D01*
X242812240Y-90380000D01*
X242986632Y-90263475D01*
X243193475Y-90056632D01*
X243355990Y-89813411D01*
X243467932Y-89543158D01*
X243525000Y-89256260D01*
X243525000Y-88963740D01*
X243467932Y-88676842D01*
X243355990Y-88406589D01*
X243193475Y-88163368D01*
X242986632Y-87956525D01*
X242812240Y-87840000D01*
X242986632Y-87723475D01*
X243193475Y-87516632D01*
X243355990Y-87273411D01*
X243467932Y-87003158D01*
X243525000Y-86716260D01*
X243525000Y-86423740D01*
X243467932Y-86136842D01*
X243355990Y-85866589D01*
X243193475Y-85623368D01*
X242986632Y-85416525D01*
X242812240Y-85300000D01*
X242986632Y-85183475D01*
X243193475Y-84976632D01*
X243355990Y-84733411D01*
X243467932Y-84463158D01*
X243525000Y-84176260D01*
X243525000Y-83883740D01*
X243467932Y-83596842D01*
X243355990Y-83326589D01*
X243193475Y-83083368D01*
X242986632Y-82876525D01*
X242743411Y-82714010D01*
X242473158Y-82602068D01*
X242186260Y-82545000D01*
X241893740Y-82545000D01*
X241606842Y-82602068D01*
X241336589Y-82714010D01*
X241093368Y-82876525D01*
X240961513Y-83008380D01*
X240939502Y-82935820D01*
X240880537Y-82825506D01*
X240801185Y-82728815D01*
X240704494Y-82649463D01*
X240594180Y-82590498D01*
X240474482Y-82554188D01*
X240350000Y-82541928D01*
X238650000Y-82541928D01*
X238525518Y-82554188D01*
X238405820Y-82590498D01*
X238295506Y-82649463D01*
X238198815Y-82728815D01*
X238119463Y-82825506D01*
X238060498Y-82935820D01*
X238024188Y-83055518D01*
X238011928Y-83180000D01*
X238011928Y-84880000D01*
X238024188Y-85004482D01*
X238060498Y-85124180D01*
X238119463Y-85234494D01*
X238198815Y-85331185D01*
X238295506Y-85410537D01*
X238405820Y-85469502D01*
X238478380Y-85491513D01*
X238346525Y-85623368D01*
X238184010Y-85866589D01*
X238072068Y-86136842D01*
X238015000Y-86423740D01*
X238015000Y-86716260D01*
X238072068Y-87003158D01*
X238184010Y-87273411D01*
X238346525Y-87516632D01*
X238553368Y-87723475D01*
X238735534Y-87845195D01*
X238618645Y-87914822D01*
X238402412Y-88109731D01*
X238228359Y-88343080D01*
X238103175Y-88605901D01*
X238058524Y-88753110D01*
X238179845Y-88983000D01*
X239373000Y-88983000D01*
X239373000Y-88963000D01*
X239627000Y-88963000D01*
X239627000Y-88983000D01*
X239647000Y-88983000D01*
X239647000Y-89237000D01*
X239627000Y-89237000D01*
X239627000Y-89257000D01*
X239373000Y-89257000D01*
X239373000Y-89237000D01*
X238179845Y-89237000D01*
X238058524Y-89466890D01*
X238103175Y-89614099D01*
X238228359Y-89876920D01*
X238402412Y-90110269D01*
X238618645Y-90305178D01*
X238735534Y-90374805D01*
X238553368Y-90496525D01*
X238346525Y-90703368D01*
X238184010Y-90946589D01*
X238072068Y-91216842D01*
X238015000Y-91503740D01*
X238015000Y-91796260D01*
X238072068Y-92083158D01*
X238184010Y-92353411D01*
X238346525Y-92596632D01*
X238553368Y-92803475D01*
X238727760Y-92920000D01*
X238553368Y-93036525D01*
X238346525Y-93243368D01*
X238184010Y-93486589D01*
X238072068Y-93756842D01*
X238015000Y-94043740D01*
X238015000Y-94336260D01*
X238072068Y-94623158D01*
X238184010Y-94893411D01*
X238346525Y-95136632D01*
X238553368Y-95343475D01*
X238727760Y-95460000D01*
X238553368Y-95576525D01*
X238346525Y-95783368D01*
X238184010Y-96026589D01*
X238072068Y-96296842D01*
X238015000Y-96583740D01*
X238015000Y-96876260D01*
X238072068Y-97163158D01*
X238184010Y-97433411D01*
X238346525Y-97676632D01*
X238553368Y-97883475D01*
X238727760Y-98000000D01*
X238553368Y-98116525D01*
X238346525Y-98323368D01*
X238184010Y-98566589D01*
X238072068Y-98836842D01*
X238015000Y-99123740D01*
X238015000Y-99416260D01*
X238072068Y-99703158D01*
X238184010Y-99973411D01*
X238346525Y-100216632D01*
X238553368Y-100423475D01*
X238727760Y-100540000D01*
X238553368Y-100656525D01*
X238346525Y-100863368D01*
X238184010Y-101106589D01*
X238072068Y-101376842D01*
X238015000Y-101663740D01*
X238015000Y-101956260D01*
X238072068Y-102243158D01*
X238184010Y-102513411D01*
X238346525Y-102756632D01*
X238553368Y-102963475D01*
X238727760Y-103080000D01*
X238553368Y-103196525D01*
X238346525Y-103403368D01*
X238184010Y-103646589D01*
X238072068Y-103916842D01*
X238015000Y-104203740D01*
X238015000Y-104496260D01*
X238072068Y-104783158D01*
X238184010Y-105053411D01*
X238346525Y-105296632D01*
X238553368Y-105503475D01*
X238735534Y-105625195D01*
X238618645Y-105694822D01*
X238402412Y-105889731D01*
X238228359Y-106123080D01*
X238103175Y-106385901D01*
X238058524Y-106533110D01*
X238179845Y-106763000D01*
X239373000Y-106763000D01*
X239373000Y-106743000D01*
X239627000Y-106743000D01*
X239627000Y-106763000D01*
X239647000Y-106763000D01*
X239647000Y-107017000D01*
X239627000Y-107017000D01*
X239627000Y-107037000D01*
X239373000Y-107037000D01*
X239373000Y-107017000D01*
X238179845Y-107017000D01*
X238058524Y-107246890D01*
X238103175Y-107394099D01*
X238228359Y-107656920D01*
X238402412Y-107890269D01*
X238618645Y-108085178D01*
X238735534Y-108154805D01*
X238553368Y-108276525D01*
X238346525Y-108483368D01*
X238184010Y-108726589D01*
X238072068Y-108996842D01*
X238015000Y-109283740D01*
X238015000Y-109576260D01*
X238072068Y-109863158D01*
X238184010Y-110133411D01*
X238346525Y-110376632D01*
X238553368Y-110583475D01*
X238727760Y-110700000D01*
X238553368Y-110816525D01*
X238346525Y-111023368D01*
X238184010Y-111266589D01*
X238072068Y-111536842D01*
X238015000Y-111823740D01*
X238015000Y-112116260D01*
X238072068Y-112403158D01*
X238184010Y-112673411D01*
X238346525Y-112916632D01*
X238500196Y-113070303D01*
X236021998Y-115548501D01*
X235993000Y-115572299D01*
X235969202Y-115601297D01*
X235969201Y-115601298D01*
X235898026Y-115688024D01*
X235827454Y-115820054D01*
X235783998Y-115963315D01*
X235769324Y-116112300D01*
X235773001Y-116149632D01*
X235773000Y-119303635D01*
X235740394Y-119330394D01*
X235636169Y-119457392D01*
X235558722Y-119602284D01*
X235511031Y-119759500D01*
X235494928Y-119923000D01*
X235494928Y-120161269D01*
X231777199Y-123879000D01*
X229218708Y-123879000D01*
X229221072Y-123855000D01*
X229218000Y-123665750D01*
X229059250Y-123507000D01*
X228260000Y-123507000D01*
X228260000Y-123527000D01*
X228006000Y-123527000D01*
X228006000Y-123507000D01*
X227986000Y-123507000D01*
X227986000Y-123253000D01*
X228006000Y-123253000D01*
X228006000Y-122428750D01*
X228260000Y-122428750D01*
X228260000Y-123253000D01*
X229059250Y-123253000D01*
X229218000Y-123094250D01*
X229221072Y-122905000D01*
X229208812Y-122780518D01*
X229172502Y-122660820D01*
X229113537Y-122550506D01*
X229034185Y-122453815D01*
X228937494Y-122374463D01*
X228827180Y-122315498D01*
X228707482Y-122279188D01*
X228583000Y-122266928D01*
X228418750Y-122270000D01*
X228260000Y-122428750D01*
X228006000Y-122428750D01*
X227847250Y-122270000D01*
X227768000Y-122268518D01*
X227768000Y-121634527D01*
X227797851Y-121625472D01*
X227951387Y-121543405D01*
X228085962Y-121432962D01*
X228196405Y-121298387D01*
X228278472Y-121144851D01*
X228305727Y-121055000D01*
X228369928Y-121055000D01*
X228382188Y-121179482D01*
X228418498Y-121299180D01*
X228477463Y-121409494D01*
X228556815Y-121506185D01*
X228653506Y-121585537D01*
X228763820Y-121644502D01*
X228883518Y-121680812D01*
X229008000Y-121693072D01*
X229422250Y-121690000D01*
X229581000Y-121531250D01*
X229581000Y-120507000D01*
X229835000Y-120507000D01*
X229835000Y-121531250D01*
X229993750Y-121690000D01*
X230408000Y-121693072D01*
X230532482Y-121680812D01*
X230652180Y-121644502D01*
X230762494Y-121585537D01*
X230859185Y-121506185D01*
X230938537Y-121409494D01*
X230997502Y-121299180D01*
X231033812Y-121179482D01*
X231046072Y-121055000D01*
X231043000Y-120665750D01*
X230884250Y-120507000D01*
X229835000Y-120507000D01*
X229581000Y-120507000D01*
X228531750Y-120507000D01*
X228373000Y-120665750D01*
X228369928Y-121055000D01*
X228305727Y-121055000D01*
X228329008Y-120978255D01*
X228346072Y-120805001D01*
X228346072Y-119954999D01*
X228329008Y-119781745D01*
X228305728Y-119705000D01*
X228369928Y-119705000D01*
X228373000Y-120094250D01*
X228531750Y-120253000D01*
X229581000Y-120253000D01*
X229581000Y-119228750D01*
X229835000Y-119228750D01*
X229835000Y-120253000D01*
X230884250Y-120253000D01*
X231043000Y-120094250D01*
X231046072Y-119705000D01*
X231033812Y-119580518D01*
X230997502Y-119460820D01*
X230938537Y-119350506D01*
X230859185Y-119253815D01*
X230762494Y-119174463D01*
X230652180Y-119115498D01*
X230532482Y-119079188D01*
X230408000Y-119066928D01*
X229993750Y-119070000D01*
X229835000Y-119228750D01*
X229581000Y-119228750D01*
X229422250Y-119070000D01*
X229008000Y-119066928D01*
X228883518Y-119079188D01*
X228763820Y-119115498D01*
X228653506Y-119174463D01*
X228556815Y-119253815D01*
X228477463Y-119350506D01*
X228418498Y-119460820D01*
X228382188Y-119580518D01*
X228369928Y-119705000D01*
X228305728Y-119705000D01*
X228278472Y-119615149D01*
X228196405Y-119461613D01*
X228085962Y-119327038D01*
X227951387Y-119216595D01*
X227797851Y-119134528D01*
X227631255Y-119083992D01*
X227458001Y-119066928D01*
X226769729Y-119066928D01*
X226370301Y-118667500D01*
X226544730Y-118493072D01*
X226808000Y-118493072D01*
X226976377Y-118476488D01*
X227138283Y-118427375D01*
X227284351Y-118349300D01*
X227328506Y-118385537D01*
X227438820Y-118444502D01*
X227558518Y-118480812D01*
X227683000Y-118493072D01*
X227847250Y-118490000D01*
X228006000Y-118331250D01*
X228006000Y-117507000D01*
X228260000Y-117507000D01*
X228260000Y-118331250D01*
X228418750Y-118490000D01*
X228583000Y-118493072D01*
X228707482Y-118480812D01*
X228827180Y-118444502D01*
X228937494Y-118385537D01*
X229034185Y-118306185D01*
X229113537Y-118209494D01*
X229172502Y-118099180D01*
X229208812Y-117979482D01*
X229221072Y-117855000D01*
X229218000Y-117665750D01*
X229059250Y-117507000D01*
X228260000Y-117507000D01*
X228006000Y-117507000D01*
X227986000Y-117507000D01*
X227986000Y-117253000D01*
X228006000Y-117253000D01*
X228006000Y-116428750D01*
X228260000Y-116428750D01*
X228260000Y-117253000D01*
X229059250Y-117253000D01*
X229218000Y-117094250D01*
X229221072Y-116905000D01*
X229208812Y-116780518D01*
X229172502Y-116660820D01*
X229113537Y-116550506D01*
X229034185Y-116453815D01*
X228937494Y-116374463D01*
X228827180Y-116315498D01*
X228707482Y-116279188D01*
X228583000Y-116266928D01*
X228418750Y-116270000D01*
X228260000Y-116428750D01*
X228006000Y-116428750D01*
X227847250Y-116270000D01*
X227683000Y-116266928D01*
X227558518Y-116279188D01*
X227438820Y-116315498D01*
X227343000Y-116366716D01*
X227343000Y-112549401D01*
X231694016Y-108198386D01*
X231846525Y-108426632D01*
X232053368Y-108633475D01*
X232227760Y-108750000D01*
X232053368Y-108866525D01*
X231846525Y-109073368D01*
X231684010Y-109316589D01*
X231572068Y-109586842D01*
X231515000Y-109873740D01*
X231515000Y-110166260D01*
X231572068Y-110453158D01*
X231684010Y-110723411D01*
X231846525Y-110966632D01*
X232053368Y-111173475D01*
X232227760Y-111290000D01*
X232053368Y-111406525D01*
X231846525Y-111613368D01*
X231684010Y-111856589D01*
X231572068Y-112126842D01*
X231515000Y-112413740D01*
X231515000Y-112706260D01*
X231572068Y-112993158D01*
X231684010Y-113263411D01*
X231846525Y-113506632D01*
X232053368Y-113713475D01*
X232296589Y-113875990D01*
X232566842Y-113987932D01*
X232853740Y-114045000D01*
X233146260Y-114045000D01*
X233433158Y-113987932D01*
X233703411Y-113875990D01*
X233946632Y-113713475D01*
X234153475Y-113506632D01*
X234315990Y-113263411D01*
X234427932Y-112993158D01*
X234485000Y-112706260D01*
X234485000Y-112413740D01*
X234427932Y-112126842D01*
X234315990Y-111856589D01*
X234153475Y-111613368D01*
X233946632Y-111406525D01*
X233772240Y-111290000D01*
X233946632Y-111173475D01*
X234153475Y-110966632D01*
X234315990Y-110723411D01*
X234427932Y-110453158D01*
X234485000Y-110166260D01*
X234485000Y-109873740D01*
X234427932Y-109586842D01*
X234315990Y-109316589D01*
X234153475Y-109073368D01*
X233946632Y-108866525D01*
X233772240Y-108750000D01*
X233946632Y-108633475D01*
X234153475Y-108426632D01*
X234315990Y-108183411D01*
X234427932Y-107913158D01*
X234485000Y-107626260D01*
X234485000Y-107333740D01*
X234427932Y-107046842D01*
X234315990Y-106776589D01*
X234173165Y-106562836D01*
X234692204Y-106043798D01*
X234721201Y-106020001D01*
X234784092Y-105943368D01*
X234816174Y-105904277D01*
X234886746Y-105772247D01*
X234910232Y-105694822D01*
X234930203Y-105628986D01*
X234941200Y-105517333D01*
X234941200Y-105517323D01*
X234944876Y-105480000D01*
X234941200Y-105442677D01*
X234941200Y-101763122D01*
X234944876Y-101725799D01*
X234941200Y-101688476D01*
X234941200Y-101688467D01*
X234930203Y-101576814D01*
X234886746Y-101433553D01*
X234838878Y-101343999D01*
X234816174Y-101301523D01*
X234744999Y-101214797D01*
X234721201Y-101185799D01*
X234692202Y-101162001D01*
X234565602Y-101035400D01*
X235598408Y-100002595D01*
X235627401Y-99978801D01*
X235651195Y-99949808D01*
X235651199Y-99949804D01*
X235722373Y-99863077D01*
X235722374Y-99863076D01*
X235792946Y-99731047D01*
X235836403Y-99587786D01*
X235847400Y-99476133D01*
X235847400Y-99476124D01*
X235851076Y-99438801D01*
X235847400Y-99401478D01*
X235847400Y-79932725D01*
X235851076Y-79895400D01*
X235847400Y-79858075D01*
X235847400Y-79858067D01*
X235836403Y-79746414D01*
X235792946Y-79603153D01*
X235722374Y-79471124D01*
X235627401Y-79355399D01*
X235598404Y-79331602D01*
X234412151Y-78145350D01*
X234439502Y-78094180D01*
X234475812Y-77974482D01*
X234488072Y-77850000D01*
X234488072Y-76150000D01*
X234475812Y-76025518D01*
X234439502Y-75905820D01*
X234380537Y-75795506D01*
X234301185Y-75698815D01*
X234204494Y-75619463D01*
X234094180Y-75560498D01*
X233974482Y-75524188D01*
X233850000Y-75511928D01*
X232150000Y-75511928D01*
X232025518Y-75524188D01*
X231905820Y-75560498D01*
X231795506Y-75619463D01*
X231698815Y-75698815D01*
X231619463Y-75795506D01*
X231560498Y-75905820D01*
X231524188Y-76025518D01*
X231511928Y-76150000D01*
X231511928Y-77850000D01*
X231524188Y-77974482D01*
X231560498Y-78094180D01*
X231619463Y-78204494D01*
X231698815Y-78301185D01*
X231795506Y-78380537D01*
X231905820Y-78439502D01*
X231986466Y-78463966D01*
X231902412Y-78539731D01*
X231728359Y-78773080D01*
X231603175Y-79035901D01*
X231558524Y-79183110D01*
X231679845Y-79413000D01*
X232873000Y-79413000D01*
X232873000Y-79393000D01*
X233127000Y-79393000D01*
X233127000Y-79413000D01*
X233147000Y-79413000D01*
X233147000Y-79667000D01*
X233127000Y-79667000D01*
X233127000Y-79687000D01*
X232873000Y-79687000D01*
X232873000Y-79667000D01*
X231679845Y-79667000D01*
X231558524Y-79896890D01*
X231603175Y-80044099D01*
X231728359Y-80306920D01*
X231902412Y-80540269D01*
X232118645Y-80735178D01*
X232235534Y-80804805D01*
X232053368Y-80926525D01*
X231846525Y-81133368D01*
X231684010Y-81376589D01*
X231572068Y-81646842D01*
X231515000Y-81933740D01*
X231515000Y-82226260D01*
X231572068Y-82513158D01*
X231684010Y-82783411D01*
X231846525Y-83026632D01*
X232053368Y-83233475D01*
X232227760Y-83350000D01*
X232053368Y-83466525D01*
X231846525Y-83673368D01*
X231684010Y-83916589D01*
X231572068Y-84186842D01*
X231515000Y-84473740D01*
X231515000Y-84766260D01*
X231572068Y-85053158D01*
X231684010Y-85323411D01*
X231846525Y-85566632D01*
X232053368Y-85773475D01*
X232227760Y-85890000D01*
X232053368Y-86006525D01*
X231846525Y-86213368D01*
X231684010Y-86456589D01*
X231572068Y-86726842D01*
X231515000Y-87013740D01*
X231515000Y-87306260D01*
X231572068Y-87593158D01*
X231684010Y-87863411D01*
X231846525Y-88106632D01*
X232053368Y-88313475D01*
X232227760Y-88430000D01*
X232053368Y-88546525D01*
X231846525Y-88753368D01*
X231684010Y-88996589D01*
X231572068Y-89266842D01*
X231515000Y-89553740D01*
X231515000Y-89846260D01*
X231572068Y-90133158D01*
X231684010Y-90403411D01*
X231846525Y-90646632D01*
X232053368Y-90853475D01*
X232227760Y-90970000D01*
X232053368Y-91086525D01*
X231899698Y-91240195D01*
X231026603Y-90367102D01*
X231002801Y-90338099D01*
X230887076Y-90243126D01*
X230755047Y-90172554D01*
X230611786Y-90129097D01*
X230500133Y-90118100D01*
X230500122Y-90118100D01*
X230462800Y-90114424D01*
X230425478Y-90118100D01*
X219190927Y-90118100D01*
X219245000Y-89846260D01*
X219245000Y-89553740D01*
X219187932Y-89266842D01*
X219075990Y-88996589D01*
X218913475Y-88753368D01*
X218706632Y-88546525D01*
X218532240Y-88430000D01*
X218706632Y-88313475D01*
X218913475Y-88106632D01*
X219075990Y-87863411D01*
X219187932Y-87593158D01*
X219245000Y-87306260D01*
X219245000Y-87013740D01*
X219187932Y-86726842D01*
X219075990Y-86456589D01*
X218913475Y-86213368D01*
X218706632Y-86006525D01*
X218524466Y-85884805D01*
X218641355Y-85815178D01*
X218857588Y-85620269D01*
X219031641Y-85386920D01*
X219156825Y-85124099D01*
X219201476Y-84976890D01*
X219080155Y-84747000D01*
X217887000Y-84747000D01*
X217887000Y-84767000D01*
X217633000Y-84767000D01*
X217633000Y-84747000D01*
X216439845Y-84747000D01*
X216318524Y-84976890D01*
X216363175Y-85124099D01*
X216488359Y-85386920D01*
X216662412Y-85620269D01*
X216878645Y-85815178D01*
X216995534Y-85884805D01*
X216813368Y-86006525D01*
X216606525Y-86213368D01*
X216444010Y-86456589D01*
X216332068Y-86726842D01*
X216275000Y-87013740D01*
X216275000Y-87306260D01*
X216332068Y-87593158D01*
X216444010Y-87863411D01*
X216606525Y-88106632D01*
X216813368Y-88313475D01*
X216987760Y-88430000D01*
X216813368Y-88546525D01*
X216606525Y-88753368D01*
X216481822Y-88940000D01*
X195392802Y-88940000D01*
X183355295Y-76902493D01*
X184047111Y-76902493D01*
X184112551Y-77141290D01*
X184359411Y-77257120D01*
X184624125Y-77322564D01*
X184896520Y-77335107D01*
X185166128Y-77294268D01*
X185422588Y-77201615D01*
X185535447Y-77141290D01*
X185600887Y-76902493D01*
X184823999Y-76125605D01*
X184047111Y-76902493D01*
X183355295Y-76902493D01*
X182679570Y-76226769D01*
X182708298Y-76082342D01*
X182708298Y-76018521D01*
X183434892Y-76018521D01*
X183475731Y-76288129D01*
X183568384Y-76544589D01*
X183628709Y-76657448D01*
X183867506Y-76722888D01*
X184644394Y-75946000D01*
X185003604Y-75946000D01*
X185780492Y-76722888D01*
X186019289Y-76657448D01*
X186135119Y-76410588D01*
X186200563Y-76145874D01*
X186213106Y-75873479D01*
X186203439Y-75809658D01*
X186939699Y-75809658D01*
X186939699Y-76082342D01*
X186992897Y-76349785D01*
X187097248Y-76601712D01*
X187248743Y-76828440D01*
X187441559Y-77021256D01*
X187668287Y-77172751D01*
X187920214Y-77277102D01*
X188187657Y-77330300D01*
X188460341Y-77330300D01*
X188604769Y-77301571D01*
X188844905Y-77541708D01*
X188868699Y-77570701D01*
X188897692Y-77594495D01*
X188897696Y-77594499D01*
X188947412Y-77635299D01*
X188984424Y-77665674D01*
X189116453Y-77736246D01*
X189259714Y-77779703D01*
X189371367Y-77790700D01*
X189371376Y-77790700D01*
X189408699Y-77794376D01*
X189446022Y-77790700D01*
X200701978Y-77790700D01*
X200739300Y-77794376D01*
X200776622Y-77790700D01*
X200776633Y-77790700D01*
X200888286Y-77779703D01*
X201031547Y-77736246D01*
X201163576Y-77665674D01*
X201279301Y-77570701D01*
X201303103Y-77541698D01*
X201543230Y-77301572D01*
X201687657Y-77330300D01*
X201960341Y-77330300D01*
X202227784Y-77277102D01*
X202479711Y-77172751D01*
X202706439Y-77021256D01*
X202899255Y-76828440D01*
X203050750Y-76601712D01*
X203155101Y-76349785D01*
X203208299Y-76082342D01*
X203208299Y-75809658D01*
X203939699Y-75809658D01*
X203939699Y-76082342D01*
X203992897Y-76349785D01*
X204097248Y-76601712D01*
X204248743Y-76828440D01*
X204441559Y-77021256D01*
X204668287Y-77172751D01*
X204920214Y-77277102D01*
X205187657Y-77330300D01*
X205460341Y-77330300D01*
X205727784Y-77277102D01*
X205979711Y-77172751D01*
X206206439Y-77021256D01*
X206325202Y-76902493D01*
X208047112Y-76902493D01*
X208112552Y-77141290D01*
X208359412Y-77257120D01*
X208624126Y-77322564D01*
X208896521Y-77335107D01*
X209166129Y-77294268D01*
X209422589Y-77201615D01*
X209535448Y-77141290D01*
X209600888Y-76902493D01*
X208824000Y-76125605D01*
X208047112Y-76902493D01*
X206325202Y-76902493D01*
X206399255Y-76828440D01*
X206550750Y-76601712D01*
X206655101Y-76349785D01*
X206708299Y-76082342D01*
X206708299Y-76018521D01*
X207434893Y-76018521D01*
X207475732Y-76288129D01*
X207568385Y-76544589D01*
X207628710Y-76657448D01*
X207867507Y-76722888D01*
X208644395Y-75946000D01*
X209003605Y-75946000D01*
X209780493Y-76722888D01*
X210019290Y-76657448D01*
X210135120Y-76410588D01*
X210199543Y-76150000D01*
X216271928Y-76150000D01*
X216271928Y-77850000D01*
X216284188Y-77974482D01*
X216320498Y-78094180D01*
X216379463Y-78204494D01*
X216458815Y-78301185D01*
X216555506Y-78380537D01*
X216665820Y-78439502D01*
X216738380Y-78461513D01*
X216606525Y-78593368D01*
X216444010Y-78836589D01*
X216332068Y-79106842D01*
X216275000Y-79393740D01*
X216275000Y-79686260D01*
X216332068Y-79973158D01*
X216444010Y-80243411D01*
X216606525Y-80486632D01*
X216813368Y-80693475D01*
X216987760Y-80810000D01*
X216813368Y-80926525D01*
X216606525Y-81133368D01*
X216444010Y-81376589D01*
X216332068Y-81646842D01*
X216275000Y-81933740D01*
X216275000Y-82226260D01*
X216332068Y-82513158D01*
X216444010Y-82783411D01*
X216606525Y-83026632D01*
X216813368Y-83233475D01*
X216995534Y-83355195D01*
X216878645Y-83424822D01*
X216662412Y-83619731D01*
X216488359Y-83853080D01*
X216363175Y-84115901D01*
X216318524Y-84263110D01*
X216439845Y-84493000D01*
X217633000Y-84493000D01*
X217633000Y-84473000D01*
X217887000Y-84473000D01*
X217887000Y-84493000D01*
X219080155Y-84493000D01*
X219201476Y-84263110D01*
X219156825Y-84115901D01*
X219031641Y-83853080D01*
X218857588Y-83619731D01*
X218641355Y-83424822D01*
X218524466Y-83355195D01*
X218706632Y-83233475D01*
X218913475Y-83026632D01*
X219075990Y-82783411D01*
X219187932Y-82513158D01*
X219245000Y-82226260D01*
X219245000Y-81933740D01*
X219187932Y-81646842D01*
X219075990Y-81376589D01*
X218913475Y-81133368D01*
X218706632Y-80926525D01*
X218532240Y-80810000D01*
X218706632Y-80693475D01*
X218913475Y-80486632D01*
X219075990Y-80243411D01*
X219187932Y-79973158D01*
X219245000Y-79686260D01*
X219245000Y-79393740D01*
X219187932Y-79106842D01*
X219075990Y-78836589D01*
X218913475Y-78593368D01*
X218781620Y-78461513D01*
X218854180Y-78439502D01*
X218964494Y-78380537D01*
X219061185Y-78301185D01*
X219140537Y-78204494D01*
X219199502Y-78094180D01*
X219235812Y-77974482D01*
X219248072Y-77850000D01*
X219248072Y-76150000D01*
X219235812Y-76025518D01*
X219199502Y-75905820D01*
X219140537Y-75795506D01*
X219061185Y-75698815D01*
X218964494Y-75619463D01*
X218854180Y-75560498D01*
X218734482Y-75524188D01*
X218610000Y-75511928D01*
X216910000Y-75511928D01*
X216785518Y-75524188D01*
X216665820Y-75560498D01*
X216555506Y-75619463D01*
X216458815Y-75698815D01*
X216379463Y-75795506D01*
X216320498Y-75905820D01*
X216284188Y-76025518D01*
X216271928Y-76150000D01*
X210199543Y-76150000D01*
X210200564Y-76145874D01*
X210213107Y-75873479D01*
X210172268Y-75603871D01*
X210079615Y-75347411D01*
X210019290Y-75234552D01*
X209780493Y-75169112D01*
X209003605Y-75946000D01*
X208644395Y-75946000D01*
X207867507Y-75169112D01*
X207628710Y-75234552D01*
X207512880Y-75481412D01*
X207447436Y-75746126D01*
X207434893Y-76018521D01*
X206708299Y-76018521D01*
X206708299Y-75809658D01*
X206655101Y-75542215D01*
X206550750Y-75290288D01*
X206399255Y-75063560D01*
X206325202Y-74989507D01*
X208047112Y-74989507D01*
X208824000Y-75766395D01*
X209600888Y-74989507D01*
X209535448Y-74750710D01*
X209288588Y-74634880D01*
X209023874Y-74569436D01*
X208751479Y-74556893D01*
X208481871Y-74597732D01*
X208225411Y-74690385D01*
X208112552Y-74750710D01*
X208047112Y-74989507D01*
X206325202Y-74989507D01*
X206206439Y-74870744D01*
X205979711Y-74719249D01*
X205727784Y-74614898D01*
X205460341Y-74561700D01*
X205187657Y-74561700D01*
X204920214Y-74614898D01*
X204668287Y-74719249D01*
X204441559Y-74870744D01*
X204248743Y-75063560D01*
X204097248Y-75290288D01*
X203992897Y-75542215D01*
X203939699Y-75809658D01*
X203208299Y-75809658D01*
X203155101Y-75542215D01*
X203050750Y-75290288D01*
X202899255Y-75063560D01*
X202706439Y-74870744D01*
X202479711Y-74719249D01*
X202227784Y-74614898D01*
X201960341Y-74561700D01*
X201687657Y-74561700D01*
X201420214Y-74614898D01*
X201168287Y-74719249D01*
X200941559Y-74870744D01*
X200748743Y-75063560D01*
X200597248Y-75290288D01*
X200492897Y-75542215D01*
X200439699Y-75809658D01*
X200439699Y-76082342D01*
X200468428Y-76226771D01*
X200424499Y-76270700D01*
X199669702Y-76270700D01*
X199700562Y-76145874D01*
X199713105Y-75873479D01*
X199672266Y-75603871D01*
X199579613Y-75347411D01*
X199519288Y-75234552D01*
X199280491Y-75169112D01*
X198503603Y-75946000D01*
X198517746Y-75960143D01*
X198338141Y-76139748D01*
X198323998Y-76125605D01*
X198309856Y-76139748D01*
X198130251Y-75960143D01*
X198144393Y-75946000D01*
X197367505Y-75169112D01*
X197128708Y-75234552D01*
X197012878Y-75481412D01*
X196947434Y-75746126D01*
X196934891Y-76018521D01*
X196973090Y-76270700D01*
X193170833Y-76270700D01*
X193208300Y-76082342D01*
X193208300Y-75809658D01*
X193155102Y-75542215D01*
X193050751Y-75290288D01*
X192899256Y-75063560D01*
X192825203Y-74989507D01*
X197547110Y-74989507D01*
X198323998Y-75766395D01*
X199100886Y-74989507D01*
X199035446Y-74750710D01*
X198788586Y-74634880D01*
X198523872Y-74569436D01*
X198251477Y-74556893D01*
X197981869Y-74597732D01*
X197725409Y-74690385D01*
X197612550Y-74750710D01*
X197547110Y-74989507D01*
X192825203Y-74989507D01*
X192706440Y-74870744D01*
X192479712Y-74719249D01*
X192227785Y-74614898D01*
X191960342Y-74561700D01*
X191687658Y-74561700D01*
X191420215Y-74614898D01*
X191168288Y-74719249D01*
X190941560Y-74870744D01*
X190748744Y-75063560D01*
X190597249Y-75290288D01*
X190492898Y-75542215D01*
X190439700Y-75809658D01*
X190439700Y-76082342D01*
X190477167Y-76270700D01*
X189723503Y-76270700D01*
X189679571Y-76226768D01*
X189708299Y-76082342D01*
X189708299Y-75809658D01*
X189655101Y-75542215D01*
X189550750Y-75290288D01*
X189399255Y-75063560D01*
X189206439Y-74870744D01*
X188979711Y-74719249D01*
X188727784Y-74614898D01*
X188460341Y-74561700D01*
X188187657Y-74561700D01*
X187920214Y-74614898D01*
X187668287Y-74719249D01*
X187441559Y-74870744D01*
X187248743Y-75063560D01*
X187097248Y-75290288D01*
X186992897Y-75542215D01*
X186939699Y-75809658D01*
X186203439Y-75809658D01*
X186172267Y-75603871D01*
X186079614Y-75347411D01*
X186019289Y-75234552D01*
X185780492Y-75169112D01*
X185003604Y-75946000D01*
X184644394Y-75946000D01*
X183867506Y-75169112D01*
X183628709Y-75234552D01*
X183512879Y-75481412D01*
X183447435Y-75746126D01*
X183434892Y-76018521D01*
X182708298Y-76018521D01*
X182708298Y-75809658D01*
X182655100Y-75542215D01*
X182550749Y-75290288D01*
X182399254Y-75063560D01*
X182325201Y-74989507D01*
X184047111Y-74989507D01*
X184823999Y-75766395D01*
X185600887Y-74989507D01*
X185535447Y-74750710D01*
X185288587Y-74634880D01*
X185023873Y-74569436D01*
X184751478Y-74556893D01*
X184481870Y-74597732D01*
X184225410Y-74690385D01*
X184112551Y-74750710D01*
X184047111Y-74989507D01*
X182325201Y-74989507D01*
X182206438Y-74870744D01*
X181979710Y-74719249D01*
X181727783Y-74614898D01*
X181460340Y-74561700D01*
X181187656Y-74561700D01*
X180920213Y-74614898D01*
X180668286Y-74719249D01*
X180441558Y-74870744D01*
X180248742Y-75063560D01*
X180097247Y-75290288D01*
X179992896Y-75542215D01*
X179939698Y-75809658D01*
X179939698Y-76082342D01*
X179992896Y-76349785D01*
X180097247Y-76601712D01*
X180248742Y-76828440D01*
X180441558Y-77021256D01*
X180668286Y-77172751D01*
X180920213Y-77277102D01*
X181187656Y-77330300D01*
X181460340Y-77330300D01*
X181604770Y-77301571D01*
X188930198Y-84627000D01*
X165042022Y-84627000D01*
X165004699Y-84623324D01*
X164967376Y-84627000D01*
X164967367Y-84627000D01*
X164855714Y-84637997D01*
X164712453Y-84681454D01*
X164580423Y-84752026D01*
X164496783Y-84820668D01*
X164464699Y-84846999D01*
X164440900Y-84875998D01*
X164154277Y-85162621D01*
X164094180Y-85130498D01*
X163974482Y-85094188D01*
X163850000Y-85081928D01*
X162150000Y-85081928D01*
X162025518Y-85094188D01*
X161905820Y-85130498D01*
X161795506Y-85189463D01*
X161698815Y-85268815D01*
X161619463Y-85365506D01*
X161560498Y-85475820D01*
X161524188Y-85595518D01*
X161511928Y-85720000D01*
X161511928Y-87420000D01*
X161524188Y-87544482D01*
X161560498Y-87664180D01*
X161588302Y-87716196D01*
X161313702Y-87990797D01*
X161284699Y-88014599D01*
X161249022Y-88058072D01*
X161189726Y-88130324D01*
X161120306Y-88260199D01*
X161119154Y-88262354D01*
X161075697Y-88405615D01*
X161064700Y-88517268D01*
X161064700Y-88517278D01*
X161061024Y-88554600D01*
X161064700Y-88591923D01*
X161064701Y-89629468D01*
X161061024Y-89666800D01*
X161075698Y-89815785D01*
X161119154Y-89959046D01*
X161189726Y-90091076D01*
X161254296Y-90169754D01*
X161284700Y-90206801D01*
X161313698Y-90230599D01*
X161822469Y-90739371D01*
X161684010Y-90946589D01*
X161572068Y-91216842D01*
X161515000Y-91503740D01*
X161515000Y-91796260D01*
X161572068Y-92083158D01*
X161684010Y-92353411D01*
X161846525Y-92596632D01*
X162053368Y-92803475D01*
X162227760Y-92920000D01*
X162053368Y-93036525D01*
X161846525Y-93243368D01*
X161684010Y-93486589D01*
X161572068Y-93756842D01*
X161515000Y-94043740D01*
X161515000Y-94336260D01*
X161572068Y-94623158D01*
X161684010Y-94893411D01*
X161846525Y-95136632D01*
X162053368Y-95343475D01*
X162235534Y-95465195D01*
X162118645Y-95534822D01*
X161902412Y-95729731D01*
X161728359Y-95963080D01*
X161603175Y-96225901D01*
X161558524Y-96373110D01*
X161679845Y-96603000D01*
X162873000Y-96603000D01*
X162873000Y-96583000D01*
X163127000Y-96583000D01*
X163127000Y-96603000D01*
X163147000Y-96603000D01*
X163147000Y-96857000D01*
X163127000Y-96857000D01*
X163127000Y-96877000D01*
X162873000Y-96877000D01*
X162873000Y-96857000D01*
X161679845Y-96857000D01*
X161558524Y-97086890D01*
X161603175Y-97234099D01*
X161728359Y-97496920D01*
X161902412Y-97730269D01*
X162118645Y-97925178D01*
X162235534Y-97994805D01*
X162053368Y-98116525D01*
X161846525Y-98323368D01*
X161684010Y-98566589D01*
X161572068Y-98836842D01*
X161515000Y-99123740D01*
X161515000Y-99416260D01*
X161572068Y-99703158D01*
X161684010Y-99973411D01*
X161846525Y-100216632D01*
X162053368Y-100423475D01*
X162227760Y-100540000D01*
X162053368Y-100656525D01*
X161846525Y-100863368D01*
X161684010Y-101106589D01*
X161572068Y-101376842D01*
X161515000Y-101663740D01*
X161515000Y-101956260D01*
X161572068Y-102243158D01*
X161684010Y-102513411D01*
X161846525Y-102756632D01*
X162053368Y-102963475D01*
X162227760Y-103080000D01*
X162053368Y-103196525D01*
X161846525Y-103403368D01*
X161684010Y-103646589D01*
X161572068Y-103916842D01*
X161515000Y-104203740D01*
X161515000Y-104496260D01*
X161572068Y-104783158D01*
X161684010Y-105053411D01*
X161846525Y-105296632D01*
X162053368Y-105503475D01*
X162227760Y-105620000D01*
X162053368Y-105736525D01*
X161846525Y-105943368D01*
X161684010Y-106186589D01*
X161572068Y-106456842D01*
X161515000Y-106743740D01*
X161515000Y-107036260D01*
X161572068Y-107323158D01*
X161684010Y-107593411D01*
X161846525Y-107836632D01*
X162053368Y-108043475D01*
X162227760Y-108160000D01*
X162053368Y-108276525D01*
X161846525Y-108483368D01*
X161684010Y-108726589D01*
X161572068Y-108996842D01*
X161515000Y-109283740D01*
X161515000Y-109576260D01*
X161572068Y-109863158D01*
X161684010Y-110133411D01*
X161846525Y-110376632D01*
X162053368Y-110583475D01*
X162296589Y-110745990D01*
X162566842Y-110857932D01*
X162853740Y-110915000D01*
X163146260Y-110915000D01*
X163433158Y-110857932D01*
X163594201Y-110791226D01*
X163594201Y-119218103D01*
X163552744Y-119259560D01*
X163401249Y-119486288D01*
X163296898Y-119738215D01*
X163243700Y-120005658D01*
X163243700Y-120278342D01*
X163296898Y-120545785D01*
X163401249Y-120797712D01*
X163552744Y-121024440D01*
X163745560Y-121217256D01*
X163972288Y-121368751D01*
X164224215Y-121473102D01*
X164491658Y-121526300D01*
X164764342Y-121526300D01*
X164908770Y-121497571D01*
X165176101Y-121764903D01*
X165199899Y-121793901D01*
X165228897Y-121817699D01*
X165315623Y-121888874D01*
X165394023Y-121930780D01*
X165447653Y-121959446D01*
X165590914Y-122002903D01*
X165702567Y-122013900D01*
X165702576Y-122013900D01*
X165739899Y-122017576D01*
X165777222Y-122013900D01*
X173978778Y-122013900D01*
X174016100Y-122017576D01*
X174053422Y-122013900D01*
X174053433Y-122013900D01*
X174165086Y-122002903D01*
X174308347Y-121959446D01*
X174440376Y-121888874D01*
X174556101Y-121793901D01*
X174579904Y-121764898D01*
X174847230Y-121497571D01*
X174991660Y-121526300D01*
X175264344Y-121526300D01*
X175531787Y-121473102D01*
X175783714Y-121368751D01*
X176010442Y-121217256D01*
X176203258Y-121024440D01*
X176354753Y-120797712D01*
X176459104Y-120545785D01*
X176512302Y-120278342D01*
X176512302Y-120005658D01*
X176459104Y-119738215D01*
X176354753Y-119486288D01*
X176203258Y-119259560D01*
X176010442Y-119066744D01*
X175783714Y-118915249D01*
X175531787Y-118810898D01*
X175264344Y-118757700D01*
X174991660Y-118757700D01*
X174724217Y-118810898D01*
X174472290Y-118915249D01*
X174245562Y-119066744D01*
X174052746Y-119259560D01*
X173901251Y-119486288D01*
X173796900Y-119738215D01*
X173743702Y-120005658D01*
X173743702Y-120278342D01*
X173772430Y-120422768D01*
X173701299Y-120493900D01*
X172966980Y-120493900D01*
X173004565Y-120341874D01*
X173017108Y-120069479D01*
X172976269Y-119799871D01*
X172883616Y-119543411D01*
X172823291Y-119430552D01*
X172584494Y-119365112D01*
X171807606Y-120142000D01*
X171821749Y-120156143D01*
X171642144Y-120335748D01*
X171628001Y-120321605D01*
X171613859Y-120335748D01*
X171434254Y-120156143D01*
X171448396Y-120142000D01*
X170671508Y-119365112D01*
X170432711Y-119430552D01*
X170316881Y-119677412D01*
X170251437Y-119942126D01*
X170238894Y-120214521D01*
X170279733Y-120484129D01*
X170283263Y-120493900D01*
X169469424Y-120493900D01*
X169512301Y-120278342D01*
X169512301Y-120005658D01*
X169459103Y-119738215D01*
X169354752Y-119486288D01*
X169203257Y-119259560D01*
X169129204Y-119185507D01*
X170851113Y-119185507D01*
X171628001Y-119962395D01*
X172404889Y-119185507D01*
X172339449Y-118946710D01*
X172092589Y-118830880D01*
X171827875Y-118765436D01*
X171555480Y-118752893D01*
X171285872Y-118793732D01*
X171029412Y-118886385D01*
X170916553Y-118946710D01*
X170851113Y-119185507D01*
X169129204Y-119185507D01*
X169010441Y-119066744D01*
X168783713Y-118915249D01*
X168531786Y-118810898D01*
X168264343Y-118757700D01*
X167991659Y-118757700D01*
X167724216Y-118810898D01*
X167472289Y-118915249D01*
X167245561Y-119066744D01*
X167052745Y-119259560D01*
X166901250Y-119486288D01*
X166796899Y-119738215D01*
X166743701Y-120005658D01*
X166743701Y-120278342D01*
X166786578Y-120493900D01*
X166054702Y-120493900D01*
X165983571Y-120422770D01*
X166012300Y-120278342D01*
X166012300Y-120005658D01*
X165959102Y-119738215D01*
X165854751Y-119486288D01*
X165703256Y-119259560D01*
X165510440Y-119066744D01*
X165283712Y-118915249D01*
X165114200Y-118845035D01*
X165114200Y-110847037D01*
X165183109Y-110871481D01*
X165413000Y-110750814D01*
X165413000Y-109557000D01*
X165667000Y-109557000D01*
X165667000Y-110750814D01*
X165896891Y-110871481D01*
X166171252Y-110774157D01*
X166421355Y-110625178D01*
X166637588Y-110430269D01*
X166811641Y-110196920D01*
X166936825Y-109934099D01*
X166981476Y-109786890D01*
X166860155Y-109557000D01*
X165667000Y-109557000D01*
X165413000Y-109557000D01*
X165393000Y-109557000D01*
X165393000Y-109303000D01*
X165413000Y-109303000D01*
X165413000Y-109283000D01*
X165667000Y-109283000D01*
X165667000Y-109303000D01*
X166860155Y-109303000D01*
X166981476Y-109073110D01*
X166936825Y-108925901D01*
X166811641Y-108663080D01*
X166637588Y-108429731D01*
X166421355Y-108234822D01*
X166304466Y-108165195D01*
X166486632Y-108043475D01*
X166693475Y-107836632D01*
X166855990Y-107593411D01*
X166967932Y-107323158D01*
X167025000Y-107036260D01*
X167025000Y-106743740D01*
X166967932Y-106456842D01*
X166855990Y-106186589D01*
X166693475Y-105943368D01*
X166486632Y-105736525D01*
X166312240Y-105620000D01*
X166486632Y-105503475D01*
X166693475Y-105296632D01*
X166855990Y-105053411D01*
X166967932Y-104783158D01*
X167025000Y-104496260D01*
X167025000Y-104203740D01*
X166967932Y-103916842D01*
X166855990Y-103646589D01*
X166693475Y-103403368D01*
X166486632Y-103196525D01*
X166304466Y-103074805D01*
X166421355Y-103005178D01*
X166637588Y-102810269D01*
X166811641Y-102576920D01*
X166936825Y-102314099D01*
X166981476Y-102166890D01*
X166860155Y-101937000D01*
X165667000Y-101937000D01*
X165667000Y-101957000D01*
X165413000Y-101957000D01*
X165413000Y-101937000D01*
X165393000Y-101937000D01*
X165393000Y-101683000D01*
X165413000Y-101683000D01*
X165413000Y-101663000D01*
X165667000Y-101663000D01*
X165667000Y-101683000D01*
X166860155Y-101683000D01*
X166981476Y-101453110D01*
X166936825Y-101305901D01*
X166934014Y-101300000D01*
X173860199Y-101300000D01*
X175136928Y-102576730D01*
X175136928Y-102815000D01*
X175153031Y-102978500D01*
X175200722Y-103135716D01*
X175278169Y-103280608D01*
X175382394Y-103407606D01*
X175509392Y-103511831D01*
X175654284Y-103589278D01*
X175811500Y-103636969D01*
X175975000Y-103653072D01*
X176525000Y-103653072D01*
X176688500Y-103636969D01*
X176845716Y-103589278D01*
X176990608Y-103511831D01*
X177117606Y-103407606D01*
X177206765Y-103298966D01*
X177244463Y-103369494D01*
X177323815Y-103466185D01*
X177420506Y-103545537D01*
X177530820Y-103604502D01*
X177650518Y-103640812D01*
X177775000Y-103653072D01*
X177964250Y-103650000D01*
X178123000Y-103491250D01*
X178123000Y-102742000D01*
X178377000Y-102742000D01*
X178377000Y-103491250D01*
X178535750Y-103650000D01*
X178725000Y-103653072D01*
X178849482Y-103640812D01*
X178969180Y-103604502D01*
X179079494Y-103545537D01*
X179176185Y-103466185D01*
X179255537Y-103369494D01*
X179314502Y-103259180D01*
X179350812Y-103139482D01*
X179363072Y-103015000D01*
X179360000Y-102900750D01*
X179201250Y-102742000D01*
X178377000Y-102742000D01*
X178123000Y-102742000D01*
X178103000Y-102742000D01*
X178103000Y-102602200D01*
X180136928Y-102602200D01*
X180136928Y-102815000D01*
X180153031Y-102978500D01*
X180200722Y-103135716D01*
X180278169Y-103280608D01*
X180382394Y-103407606D01*
X180509392Y-103511831D01*
X180654284Y-103589278D01*
X180811500Y-103636969D01*
X180975000Y-103653072D01*
X181525000Y-103653072D01*
X181688500Y-103636969D01*
X181845716Y-103589278D01*
X181990608Y-103511831D01*
X182117606Y-103407606D01*
X182206765Y-103298966D01*
X182244463Y-103369494D01*
X182323815Y-103466185D01*
X182420506Y-103545537D01*
X182530820Y-103604502D01*
X182650518Y-103640812D01*
X182775000Y-103653072D01*
X182964250Y-103650000D01*
X183123000Y-103491250D01*
X183123000Y-102742000D01*
X183103000Y-102742000D01*
X183103000Y-102644000D01*
X183397000Y-102644000D01*
X183397000Y-102742000D01*
X183377000Y-102742000D01*
X183377000Y-103491250D01*
X183535750Y-103650000D01*
X183725000Y-103653072D01*
X183849482Y-103640812D01*
X183969180Y-103604502D01*
X184079494Y-103545537D01*
X184176185Y-103466185D01*
X184255537Y-103369494D01*
X184314502Y-103259180D01*
X184350812Y-103139482D01*
X184363072Y-103015000D01*
X184360000Y-102900750D01*
X184201252Y-102742002D01*
X184360000Y-102742002D01*
X184360000Y-102644000D01*
X185136928Y-102644000D01*
X185136928Y-102815000D01*
X185153031Y-102978500D01*
X185200722Y-103135716D01*
X185278169Y-103280608D01*
X185382394Y-103407606D01*
X185509392Y-103511831D01*
X185654284Y-103589278D01*
X185811500Y-103636969D01*
X185975000Y-103653072D01*
X186525000Y-103653072D01*
X186688500Y-103636969D01*
X186845716Y-103589278D01*
X186990608Y-103511831D01*
X187117606Y-103407606D01*
X187206765Y-103298966D01*
X187244463Y-103369494D01*
X187323815Y-103466185D01*
X187420506Y-103545537D01*
X187530820Y-103604502D01*
X187650518Y-103640812D01*
X187775000Y-103653072D01*
X187964250Y-103650000D01*
X188123000Y-103491250D01*
X188123000Y-102742000D01*
X188377000Y-102742000D01*
X188377000Y-103491250D01*
X188535750Y-103650000D01*
X188725000Y-103653072D01*
X188849482Y-103640812D01*
X188969180Y-103604502D01*
X189079494Y-103545537D01*
X189176185Y-103466185D01*
X189255537Y-103369494D01*
X189314502Y-103259180D01*
X189350812Y-103139482D01*
X189363072Y-103015000D01*
X189360000Y-102900750D01*
X189201250Y-102742000D01*
X188377000Y-102742000D01*
X188123000Y-102742000D01*
X188103000Y-102742000D01*
X188103000Y-102602200D01*
X190136928Y-102602200D01*
X190136928Y-102815000D01*
X190153031Y-102978500D01*
X190200722Y-103135716D01*
X190278169Y-103280608D01*
X190382394Y-103407606D01*
X190509392Y-103511831D01*
X190654284Y-103589278D01*
X190811500Y-103636969D01*
X190975000Y-103653072D01*
X191525000Y-103653072D01*
X191688500Y-103636969D01*
X191845716Y-103589278D01*
X191990608Y-103511831D01*
X192117606Y-103407606D01*
X192206765Y-103298966D01*
X192244463Y-103369494D01*
X192323815Y-103466185D01*
X192420506Y-103545537D01*
X192530820Y-103604502D01*
X192650518Y-103640812D01*
X192775000Y-103653072D01*
X192964250Y-103650000D01*
X193123000Y-103491250D01*
X193123000Y-102742000D01*
X193377000Y-102742000D01*
X193377000Y-103491250D01*
X193535750Y-103650000D01*
X193725000Y-103653072D01*
X193849482Y-103640812D01*
X193969180Y-103604502D01*
X194079494Y-103545537D01*
X194176185Y-103466185D01*
X194255537Y-103369494D01*
X194314502Y-103259180D01*
X194350812Y-103139482D01*
X194363072Y-103015000D01*
X194360000Y-102900750D01*
X194201250Y-102742000D01*
X193377000Y-102742000D01*
X193123000Y-102742000D01*
X193103000Y-102742000D01*
X193103000Y-102488000D01*
X193123000Y-102488000D01*
X193123000Y-102468000D01*
X193377000Y-102468000D01*
X193377000Y-102488000D01*
X194201250Y-102488000D01*
X194360000Y-102329250D01*
X194363072Y-102215000D01*
X194350812Y-102090518D01*
X194314502Y-101970820D01*
X194255537Y-101860506D01*
X194176185Y-101763815D01*
X194138137Y-101732590D01*
X194221831Y-101630608D01*
X194299278Y-101485716D01*
X194346969Y-101328500D01*
X194363072Y-101165000D01*
X194363072Y-100765000D01*
X194346969Y-100601500D01*
X194299278Y-100444284D01*
X194221831Y-100299392D01*
X194185300Y-100254879D01*
X194185300Y-98144821D01*
X199673106Y-98144821D01*
X199674207Y-98167471D01*
X199724207Y-98527471D01*
X199726792Y-98540802D01*
X199806792Y-98860802D01*
X199812339Y-98877800D01*
X199942339Y-99197800D01*
X199949550Y-99212688D01*
X200159550Y-99582688D01*
X200168820Y-99596757D01*
X200388820Y-99886757D01*
X200404304Y-99903730D01*
X200754304Y-100223730D01*
X200771324Y-100236830D01*
X201191324Y-100506830D01*
X201211914Y-100517544D01*
X201651914Y-100697544D01*
X201671854Y-100703842D01*
X202111854Y-100803842D01*
X202137178Y-100806969D01*
X202587178Y-100816969D01*
X202602332Y-100816400D01*
X203012332Y-100776400D01*
X203032177Y-100772856D01*
X203452177Y-100662856D01*
X203473220Y-100655311D01*
X203863220Y-100475311D01*
X203878183Y-100467145D01*
X204208183Y-100257145D01*
X204225283Y-100244105D01*
X204545283Y-99954105D01*
X204558293Y-99940421D01*
X204828293Y-99610421D01*
X204839700Y-99593992D01*
X205049700Y-99233992D01*
X205058465Y-99215771D01*
X205228465Y-98775771D01*
X205234757Y-98753763D01*
X205314757Y-98333763D01*
X205316971Y-98312702D01*
X205326971Y-97842702D01*
X205325523Y-97820689D01*
X205265523Y-97430689D01*
X205263425Y-97420079D01*
X205183425Y-97090079D01*
X205176352Y-97069096D01*
X205036352Y-96749096D01*
X205030864Y-96738047D01*
X204840864Y-96398047D01*
X204827564Y-96378697D01*
X204577564Y-96078697D01*
X204566761Y-96067256D01*
X204256761Y-95777256D01*
X204239214Y-95763518D01*
X203839214Y-95503518D01*
X203820747Y-95493580D01*
X203430747Y-95323580D01*
X203410802Y-95316792D01*
X202930802Y-95196792D01*
X202906041Y-95193144D01*
X202486041Y-95173144D01*
X202470732Y-95173339D01*
X202060732Y-95203339D01*
X202037942Y-95207113D01*
X201577942Y-95327113D01*
X201556440Y-95334846D01*
X201126440Y-95534846D01*
X201109553Y-95544330D01*
X200992728Y-95622213D01*
X200876008Y-95690300D01*
X200867170Y-95695958D01*
X200767170Y-95765958D01*
X200754571Y-95776028D01*
X200649010Y-95871992D01*
X200573800Y-95928400D01*
X200560197Y-95940197D01*
X200440197Y-96060197D01*
X200430830Y-96070664D01*
X200353140Y-96167777D01*
X200265602Y-96265041D01*
X200261707Y-96269579D01*
X200171707Y-96379579D01*
X200158982Y-96398323D01*
X200108982Y-96488323D01*
X200106408Y-96493204D01*
X200018593Y-96668834D01*
X199931098Y-96814659D01*
X199919517Y-96839839D01*
X199879939Y-96958573D01*
X199780399Y-97237285D01*
X199775724Y-97253837D01*
X199695724Y-97633837D01*
X199693106Y-97654821D01*
X199673106Y-98144821D01*
X194185300Y-98144821D01*
X194185300Y-94560522D01*
X194188976Y-94523199D01*
X194185300Y-94485876D01*
X194185300Y-94485867D01*
X194174303Y-94374214D01*
X194130846Y-94230953D01*
X194097463Y-94168499D01*
X194060274Y-94098923D01*
X193989099Y-94012197D01*
X193965301Y-93983199D01*
X193936302Y-93959401D01*
X193662186Y-93685284D01*
X193689502Y-93634180D01*
X193725812Y-93514482D01*
X193738072Y-93390000D01*
X193738072Y-91690000D01*
X193725812Y-91565518D01*
X193689502Y-91445820D01*
X193630537Y-91335506D01*
X193551185Y-91238815D01*
X193454494Y-91159463D01*
X193344180Y-91100498D01*
X193224482Y-91064188D01*
X193100000Y-91051928D01*
X191400000Y-91051928D01*
X191275518Y-91064188D01*
X191155820Y-91100498D01*
X191045506Y-91159463D01*
X190948815Y-91238815D01*
X190869463Y-91335506D01*
X190810498Y-91445820D01*
X190774188Y-91565518D01*
X190761928Y-91690000D01*
X190761928Y-93390000D01*
X190774188Y-93514482D01*
X190810498Y-93634180D01*
X190869463Y-93744494D01*
X190948815Y-93841185D01*
X191045506Y-93920537D01*
X191155820Y-93979502D01*
X191228380Y-94001513D01*
X191096525Y-94133368D01*
X190934010Y-94376589D01*
X190822068Y-94646842D01*
X190765000Y-94933740D01*
X190765000Y-95226260D01*
X190822068Y-95513158D01*
X190934010Y-95783411D01*
X191096525Y-96026632D01*
X191303368Y-96233475D01*
X191477760Y-96350000D01*
X191303368Y-96466525D01*
X191096525Y-96673368D01*
X190934010Y-96916589D01*
X190822068Y-97186842D01*
X190765000Y-97473740D01*
X190765000Y-97766260D01*
X190822068Y-98053158D01*
X190934010Y-98323411D01*
X191096525Y-98566632D01*
X191250196Y-98720303D01*
X190738998Y-99231501D01*
X190710000Y-99255299D01*
X190686202Y-99284297D01*
X190686201Y-99284298D01*
X190615026Y-99371024D01*
X190544454Y-99503054D01*
X190500998Y-99646315D01*
X190486324Y-99795300D01*
X190490001Y-99832632D01*
X190490001Y-100084083D01*
X190382394Y-100172394D01*
X190278169Y-100299392D01*
X190200722Y-100444284D01*
X190153031Y-100601500D01*
X190136928Y-100765000D01*
X190136928Y-101082200D01*
X189363072Y-101082200D01*
X189363072Y-100765000D01*
X189346969Y-100601500D01*
X189299278Y-100444284D01*
X189221831Y-100299392D01*
X189185300Y-100254879D01*
X189185300Y-94560522D01*
X189188976Y-94523199D01*
X189185300Y-94485876D01*
X189185300Y-94485867D01*
X189174303Y-94374214D01*
X189130846Y-94230953D01*
X189097463Y-94168499D01*
X189060274Y-94098923D01*
X188989099Y-94012197D01*
X188965301Y-93983199D01*
X188936302Y-93959401D01*
X188662186Y-93685284D01*
X188689502Y-93634180D01*
X188725812Y-93514482D01*
X188738072Y-93390000D01*
X188738072Y-91690000D01*
X188725812Y-91565518D01*
X188689502Y-91445820D01*
X188630537Y-91335506D01*
X188551185Y-91238815D01*
X188454494Y-91159463D01*
X188344180Y-91100498D01*
X188224482Y-91064188D01*
X188100000Y-91051928D01*
X186400000Y-91051928D01*
X186275518Y-91064188D01*
X186155820Y-91100498D01*
X186045506Y-91159463D01*
X185948815Y-91238815D01*
X185869463Y-91335506D01*
X185810498Y-91445820D01*
X185774188Y-91565518D01*
X185761928Y-91690000D01*
X185761928Y-93390000D01*
X185774188Y-93514482D01*
X185810498Y-93634180D01*
X185869463Y-93744494D01*
X185948815Y-93841185D01*
X186045506Y-93920537D01*
X186155820Y-93979502D01*
X186228380Y-94001513D01*
X186096525Y-94133368D01*
X185934010Y-94376589D01*
X185822068Y-94646842D01*
X185765000Y-94933740D01*
X185765000Y-95226260D01*
X185822068Y-95513158D01*
X185934010Y-95783411D01*
X186096525Y-96026632D01*
X186303368Y-96233475D01*
X186477760Y-96350000D01*
X186303368Y-96466525D01*
X186096525Y-96673368D01*
X185934010Y-96916589D01*
X185822068Y-97186842D01*
X185765000Y-97473740D01*
X185765000Y-97766260D01*
X185822068Y-98053158D01*
X185934010Y-98323411D01*
X186096525Y-98566632D01*
X186250196Y-98720303D01*
X185738998Y-99231501D01*
X185710000Y-99255299D01*
X185686202Y-99284297D01*
X185686201Y-99284298D01*
X185615026Y-99371024D01*
X185544454Y-99503054D01*
X185500998Y-99646315D01*
X185486324Y-99795300D01*
X185490001Y-99832632D01*
X185490001Y-100084083D01*
X185382394Y-100172394D01*
X185278169Y-100299392D01*
X185200722Y-100444284D01*
X185153031Y-100601500D01*
X185136928Y-100765000D01*
X185136928Y-101124000D01*
X184363072Y-101124000D01*
X184363072Y-100765000D01*
X184346969Y-100601500D01*
X184299278Y-100444284D01*
X184221831Y-100299392D01*
X184185300Y-100254879D01*
X184185300Y-94560522D01*
X184188976Y-94523199D01*
X184185300Y-94485876D01*
X184185300Y-94485867D01*
X184174303Y-94374214D01*
X184130846Y-94230953D01*
X184097463Y-94168499D01*
X184060274Y-94098923D01*
X183989099Y-94012197D01*
X183965301Y-93983199D01*
X183936302Y-93959401D01*
X183662186Y-93685284D01*
X183689502Y-93634180D01*
X183725812Y-93514482D01*
X183738072Y-93390000D01*
X183738072Y-91690000D01*
X183725812Y-91565518D01*
X183689502Y-91445820D01*
X183630537Y-91335506D01*
X183551185Y-91238815D01*
X183454494Y-91159463D01*
X183344180Y-91100498D01*
X183224482Y-91064188D01*
X183100000Y-91051928D01*
X181400000Y-91051928D01*
X181275518Y-91064188D01*
X181155820Y-91100498D01*
X181045506Y-91159463D01*
X180948815Y-91238815D01*
X180869463Y-91335506D01*
X180810498Y-91445820D01*
X180774188Y-91565518D01*
X180761928Y-91690000D01*
X180761928Y-93390000D01*
X180774188Y-93514482D01*
X180810498Y-93634180D01*
X180869463Y-93744494D01*
X180948815Y-93841185D01*
X181045506Y-93920537D01*
X181155820Y-93979502D01*
X181228380Y-94001513D01*
X181096525Y-94133368D01*
X180934010Y-94376589D01*
X180822068Y-94646842D01*
X180765000Y-94933740D01*
X180765000Y-95226260D01*
X180822068Y-95513158D01*
X180934010Y-95783411D01*
X181096525Y-96026632D01*
X181303368Y-96233475D01*
X181477760Y-96350000D01*
X181303368Y-96466525D01*
X181096525Y-96673368D01*
X180934010Y-96916589D01*
X180822068Y-97186842D01*
X180765000Y-97473740D01*
X180765000Y-97766260D01*
X180822068Y-98053158D01*
X180934010Y-98323411D01*
X181096525Y-98566632D01*
X181250196Y-98720303D01*
X180738998Y-99231501D01*
X180710000Y-99255299D01*
X180686202Y-99284297D01*
X180686201Y-99284298D01*
X180615026Y-99371024D01*
X180544454Y-99503054D01*
X180500998Y-99646315D01*
X180486324Y-99795300D01*
X180490001Y-99832632D01*
X180490001Y-100084083D01*
X180382394Y-100172394D01*
X180278169Y-100299392D01*
X180200722Y-100444284D01*
X180153031Y-100601500D01*
X180136928Y-100765000D01*
X180136928Y-101082200D01*
X179363072Y-101082200D01*
X179363072Y-100765000D01*
X179346969Y-100601500D01*
X179299278Y-100444284D01*
X179221831Y-100299392D01*
X179185300Y-100254879D01*
X179185300Y-94560522D01*
X179188976Y-94523199D01*
X179185300Y-94485876D01*
X179185300Y-94485867D01*
X179174303Y-94374214D01*
X179130846Y-94230953D01*
X179097463Y-94168499D01*
X179060274Y-94098923D01*
X178989099Y-94012197D01*
X178965301Y-93983199D01*
X178936302Y-93959401D01*
X178662186Y-93685284D01*
X178689502Y-93634180D01*
X178725812Y-93514482D01*
X178738072Y-93390000D01*
X178738072Y-91690000D01*
X178725812Y-91565518D01*
X178689502Y-91445820D01*
X178630537Y-91335506D01*
X178551185Y-91238815D01*
X178454494Y-91159463D01*
X178344180Y-91100498D01*
X178224482Y-91064188D01*
X178100000Y-91051928D01*
X176400000Y-91051928D01*
X176275518Y-91064188D01*
X176155820Y-91100498D01*
X176045506Y-91159463D01*
X175948815Y-91238815D01*
X175869463Y-91335506D01*
X175810498Y-91445820D01*
X175774188Y-91565518D01*
X175761928Y-91690000D01*
X175761928Y-93390000D01*
X175774188Y-93514482D01*
X175810498Y-93634180D01*
X175869463Y-93744494D01*
X175948815Y-93841185D01*
X176045506Y-93920537D01*
X176155820Y-93979502D01*
X176228380Y-94001513D01*
X176096525Y-94133368D01*
X175934010Y-94376589D01*
X175822068Y-94646842D01*
X175765000Y-94933740D01*
X175765000Y-95226260D01*
X175822068Y-95513158D01*
X175934010Y-95783411D01*
X176096525Y-96026632D01*
X176303368Y-96233475D01*
X176477760Y-96350000D01*
X176303368Y-96466525D01*
X176096525Y-96673368D01*
X175934010Y-96916589D01*
X175822068Y-97186842D01*
X175765000Y-97473740D01*
X175765000Y-97766260D01*
X175822068Y-98053158D01*
X175934010Y-98323411D01*
X176096525Y-98566632D01*
X176250196Y-98720303D01*
X175738998Y-99231501D01*
X175710000Y-99255299D01*
X175686202Y-99284297D01*
X175686201Y-99284298D01*
X175615026Y-99371024D01*
X175544454Y-99503054D01*
X175500998Y-99646315D01*
X175486324Y-99795300D01*
X175490001Y-99832632D01*
X175490001Y-100084083D01*
X175382394Y-100172394D01*
X175278169Y-100299392D01*
X175200722Y-100444284D01*
X175189868Y-100480066D01*
X174738804Y-100029003D01*
X174715001Y-99999999D01*
X174599276Y-99905026D01*
X174467247Y-99834454D01*
X174323986Y-99790997D01*
X174212333Y-99780000D01*
X174212322Y-99780000D01*
X174175000Y-99776324D01*
X174137678Y-99780000D01*
X167507100Y-99780000D01*
X167507100Y-91162322D01*
X167510776Y-91124999D01*
X167507100Y-91087676D01*
X167507100Y-91087667D01*
X167496103Y-90976014D01*
X167452646Y-90832753D01*
X167448663Y-90825301D01*
X167382074Y-90700723D01*
X167310899Y-90613997D01*
X167287101Y-90584999D01*
X167258104Y-90561202D01*
X166717531Y-90020630D01*
X166855990Y-89813411D01*
X166967932Y-89543158D01*
X167025000Y-89256260D01*
X167025000Y-88963740D01*
X166967932Y-88676842D01*
X166959962Y-88657600D01*
X191561099Y-88657600D01*
X197019200Y-94115702D01*
X197042999Y-94144701D01*
X197158724Y-94239674D01*
X197290753Y-94310246D01*
X197434014Y-94353703D01*
X197545667Y-94364700D01*
X197545676Y-94364700D01*
X197582999Y-94368376D01*
X197620322Y-94364700D01*
X216328516Y-94364700D01*
X216275000Y-94633740D01*
X216275000Y-94926260D01*
X216332068Y-95213158D01*
X216444010Y-95483411D01*
X216606525Y-95726632D01*
X216813368Y-95933475D01*
X216987760Y-96050000D01*
X216813368Y-96166525D01*
X216606525Y-96373368D01*
X216444010Y-96616589D01*
X216332068Y-96886842D01*
X216275000Y-97173740D01*
X216275000Y-97466260D01*
X216332068Y-97753158D01*
X216444010Y-98023411D01*
X216606525Y-98266632D01*
X216813368Y-98473475D01*
X216987760Y-98590000D01*
X216813368Y-98706525D01*
X216606525Y-98913368D01*
X216444010Y-99156589D01*
X216332068Y-99426842D01*
X216275000Y-99713740D01*
X216275000Y-100006260D01*
X216332068Y-100293158D01*
X216444010Y-100563411D01*
X216606525Y-100806632D01*
X216813368Y-101013475D01*
X216987760Y-101130000D01*
X216813368Y-101246525D01*
X216606525Y-101453368D01*
X216444010Y-101696589D01*
X216332068Y-101966842D01*
X216275000Y-102253740D01*
X216275000Y-102546260D01*
X216328516Y-102815300D01*
X203307322Y-102815300D01*
X203269999Y-102811624D01*
X203232676Y-102815300D01*
X203232667Y-102815300D01*
X203121014Y-102826297D01*
X202977753Y-102869754D01*
X202845724Y-102940326D01*
X202729999Y-103035299D01*
X202706201Y-103064297D01*
X186329093Y-119441406D01*
X186323291Y-119430552D01*
X186084494Y-119365112D01*
X185307606Y-120142000D01*
X185321749Y-120156143D01*
X185142144Y-120335748D01*
X185128001Y-120321605D01*
X185113859Y-120335748D01*
X184934254Y-120156143D01*
X184948396Y-120142000D01*
X184171508Y-119365112D01*
X183932711Y-119430552D01*
X183816881Y-119677412D01*
X183751437Y-119942126D01*
X183738894Y-120214521D01*
X183777487Y-120469300D01*
X183030103Y-120469300D01*
X182983572Y-120422769D01*
X183012300Y-120278342D01*
X183012300Y-120005658D01*
X182959102Y-119738215D01*
X182854751Y-119486288D01*
X182703256Y-119259560D01*
X182629203Y-119185507D01*
X184351113Y-119185507D01*
X185128001Y-119962395D01*
X185904889Y-119185507D01*
X185839449Y-118946710D01*
X185592589Y-118830880D01*
X185327875Y-118765436D01*
X185055480Y-118752893D01*
X184785872Y-118793732D01*
X184529412Y-118886385D01*
X184416553Y-118946710D01*
X184351113Y-119185507D01*
X182629203Y-119185507D01*
X182510440Y-119066744D01*
X182283712Y-118915249D01*
X182031785Y-118810898D01*
X181764342Y-118757700D01*
X181491658Y-118757700D01*
X181224215Y-118810898D01*
X180972288Y-118915249D01*
X180745560Y-119066744D01*
X180552744Y-119259560D01*
X180401249Y-119486288D01*
X180296898Y-119738215D01*
X180243700Y-120005658D01*
X180243700Y-120278342D01*
X180296898Y-120545785D01*
X180401249Y-120797712D01*
X180552744Y-121024440D01*
X180745560Y-121217256D01*
X180972288Y-121368751D01*
X181224215Y-121473102D01*
X181491658Y-121526300D01*
X181764342Y-121526300D01*
X181908769Y-121497572D01*
X182151505Y-121740308D01*
X182175299Y-121769301D01*
X182204292Y-121793095D01*
X182204296Y-121793099D01*
X182257152Y-121836476D01*
X182291024Y-121864274D01*
X182423053Y-121934846D01*
X182566314Y-121978303D01*
X182677967Y-121989300D01*
X182677976Y-121989300D01*
X182715299Y-121992976D01*
X182752622Y-121989300D01*
X185578678Y-121989300D01*
X185616000Y-121992976D01*
X185653322Y-121989300D01*
X185653333Y-121989300D01*
X185764986Y-121978303D01*
X185908247Y-121934846D01*
X186040276Y-121864274D01*
X186156001Y-121769301D01*
X186179804Y-121740297D01*
X187319574Y-120600527D01*
X187401250Y-120797712D01*
X187552745Y-121024440D01*
X187745561Y-121217256D01*
X187972289Y-121368751D01*
X188224216Y-121473102D01*
X188491659Y-121526300D01*
X188764343Y-121526300D01*
X189031786Y-121473102D01*
X189283713Y-121368751D01*
X189510441Y-121217256D01*
X189703257Y-121024440D01*
X189854752Y-120797712D01*
X189959103Y-120545785D01*
X190012301Y-120278342D01*
X190012301Y-120005658D01*
X189983572Y-119861229D01*
X190055602Y-119789200D01*
X190786758Y-119789200D01*
X190743702Y-120005658D01*
X190743702Y-120278342D01*
X190796900Y-120545785D01*
X190901251Y-120797712D01*
X191052746Y-121024440D01*
X191245562Y-121217256D01*
X191472290Y-121368751D01*
X191724217Y-121473102D01*
X191991660Y-121526300D01*
X192264344Y-121526300D01*
X192531787Y-121473102D01*
X192783714Y-121368751D01*
X193010442Y-121217256D01*
X193129205Y-121098493D01*
X197851112Y-121098493D01*
X197916552Y-121337290D01*
X198163412Y-121453120D01*
X198428126Y-121518564D01*
X198700521Y-121531107D01*
X198970129Y-121490268D01*
X199226589Y-121397615D01*
X199339448Y-121337290D01*
X199404888Y-121098493D01*
X198628000Y-120321605D01*
X197851112Y-121098493D01*
X193129205Y-121098493D01*
X193203258Y-121024440D01*
X193354753Y-120797712D01*
X193459104Y-120545785D01*
X193512302Y-120278342D01*
X193512302Y-120005658D01*
X193469246Y-119789200D01*
X197289243Y-119789200D01*
X197251436Y-119942126D01*
X197238893Y-120214521D01*
X197279732Y-120484129D01*
X197372385Y-120740589D01*
X197432710Y-120853448D01*
X197671507Y-120918888D01*
X198448395Y-120142000D01*
X198434253Y-120127858D01*
X198613858Y-119948253D01*
X198628000Y-119962395D01*
X198642143Y-119948253D01*
X198821748Y-120127858D01*
X198807605Y-120142000D01*
X199584493Y-120918888D01*
X199823290Y-120853448D01*
X199939120Y-120606588D01*
X200004564Y-120341874D01*
X200017107Y-120069479D01*
X199976268Y-119799871D01*
X199972413Y-119789200D01*
X200700399Y-119789200D01*
X200772430Y-119861231D01*
X200743701Y-120005658D01*
X200743701Y-120278342D01*
X200796899Y-120545785D01*
X200901250Y-120797712D01*
X201052745Y-121024440D01*
X201245561Y-121217256D01*
X201472289Y-121368751D01*
X201724216Y-121473102D01*
X201991659Y-121526300D01*
X202264343Y-121526300D01*
X202531786Y-121473102D01*
X202783713Y-121368751D01*
X203010441Y-121217256D01*
X203203257Y-121024440D01*
X203354752Y-120797712D01*
X203459103Y-120545785D01*
X203512301Y-120278342D01*
X203512301Y-120005658D01*
X204243701Y-120005658D01*
X204243701Y-120278342D01*
X204296899Y-120545785D01*
X204401250Y-120797712D01*
X204552745Y-121024440D01*
X204745561Y-121217256D01*
X204972289Y-121368751D01*
X205224216Y-121473102D01*
X205491659Y-121526300D01*
X205764343Y-121526300D01*
X206031786Y-121473102D01*
X206283713Y-121368751D01*
X206510441Y-121217256D01*
X206629204Y-121098493D01*
X208351114Y-121098493D01*
X208416554Y-121337290D01*
X208663414Y-121453120D01*
X208928128Y-121518564D01*
X209200523Y-121531107D01*
X209470131Y-121490268D01*
X209726591Y-121397615D01*
X209839450Y-121337290D01*
X209904890Y-121098493D01*
X209128002Y-120321605D01*
X208351114Y-121098493D01*
X206629204Y-121098493D01*
X206703257Y-121024440D01*
X206854752Y-120797712D01*
X206959103Y-120545785D01*
X207012301Y-120278342D01*
X207012301Y-120214521D01*
X207738895Y-120214521D01*
X207779734Y-120484129D01*
X207872387Y-120740589D01*
X207932712Y-120853448D01*
X208171509Y-120918888D01*
X208948397Y-120142000D01*
X209307607Y-120142000D01*
X210084495Y-120918888D01*
X210323292Y-120853448D01*
X210439122Y-120606588D01*
X210504566Y-120341874D01*
X210517109Y-120069479D01*
X210476270Y-119799871D01*
X210383617Y-119543411D01*
X210323292Y-119430552D01*
X210084495Y-119365112D01*
X209307607Y-120142000D01*
X208948397Y-120142000D01*
X208171509Y-119365112D01*
X207932712Y-119430552D01*
X207816882Y-119677412D01*
X207751438Y-119942126D01*
X207738895Y-120214521D01*
X207012301Y-120214521D01*
X207012301Y-120005658D01*
X206959103Y-119738215D01*
X206854752Y-119486288D01*
X206703257Y-119259560D01*
X206629204Y-119185507D01*
X208351114Y-119185507D01*
X209128002Y-119962395D01*
X209885397Y-119205000D01*
X213684928Y-119205000D01*
X213688000Y-119369250D01*
X213846750Y-119528000D01*
X214671000Y-119528000D01*
X214671000Y-118728750D01*
X214512250Y-118570000D01*
X214323000Y-118566928D01*
X214198518Y-118579188D01*
X214078820Y-118615498D01*
X213968506Y-118674463D01*
X213871815Y-118753815D01*
X213792463Y-118850506D01*
X213733498Y-118960820D01*
X213697188Y-119080518D01*
X213684928Y-119205000D01*
X209885397Y-119205000D01*
X209904890Y-119185507D01*
X209839450Y-118946710D01*
X209592590Y-118830880D01*
X209327876Y-118765436D01*
X209055481Y-118752893D01*
X208785873Y-118793732D01*
X208529413Y-118886385D01*
X208416554Y-118946710D01*
X208351114Y-119185507D01*
X206629204Y-119185507D01*
X206510441Y-119066744D01*
X206283713Y-118915249D01*
X206031786Y-118810898D01*
X205764343Y-118757700D01*
X205491659Y-118757700D01*
X205224216Y-118810898D01*
X204972289Y-118915249D01*
X204745561Y-119066744D01*
X204552745Y-119259560D01*
X204401250Y-119486288D01*
X204296899Y-119738215D01*
X204243701Y-120005658D01*
X203512301Y-120005658D01*
X203483572Y-119861229D01*
X205295202Y-118049600D01*
X217420000Y-118049600D01*
X217420000Y-118207000D01*
X217400000Y-118207000D01*
X217400000Y-119021250D01*
X217558750Y-119180000D01*
X218193000Y-119183072D01*
X218317482Y-119170812D01*
X218437180Y-119134502D01*
X218530301Y-119084727D01*
X218530301Y-119293198D01*
X218476815Y-119346684D01*
X218437180Y-119325498D01*
X218317482Y-119289188D01*
X218193000Y-119276928D01*
X216353000Y-119276928D01*
X216228518Y-119289188D01*
X216108820Y-119325498D01*
X215998506Y-119384463D01*
X215901815Y-119463815D01*
X215849142Y-119527998D01*
X215749252Y-119527998D01*
X215908000Y-119369250D01*
X215911072Y-119205000D01*
X215898812Y-119080518D01*
X215862502Y-118960820D01*
X215843281Y-118924861D01*
X215901815Y-118996185D01*
X215998506Y-119075537D01*
X216108820Y-119134502D01*
X216228518Y-119170812D01*
X216353000Y-119183072D01*
X216987250Y-119180000D01*
X217146000Y-119021250D01*
X217146000Y-118207000D01*
X215876750Y-118207000D01*
X215718000Y-118365750D01*
X215714928Y-118545000D01*
X215727188Y-118669482D01*
X215763498Y-118789180D01*
X215782719Y-118825139D01*
X215724185Y-118753815D01*
X215627494Y-118674463D01*
X215517180Y-118615498D01*
X215397482Y-118579188D01*
X215273000Y-118566928D01*
X215083750Y-118570000D01*
X214925000Y-118728750D01*
X214925000Y-119528000D01*
X214945000Y-119528000D01*
X214945000Y-119782000D01*
X214925000Y-119782000D01*
X214925000Y-119802000D01*
X214671000Y-119802000D01*
X214671000Y-119782000D01*
X213846750Y-119782000D01*
X213688000Y-119940750D01*
X213684928Y-120105000D01*
X213697188Y-120229482D01*
X213733498Y-120349180D01*
X213792463Y-120459494D01*
X213828700Y-120503649D01*
X213750625Y-120649717D01*
X213701512Y-120811623D01*
X213684928Y-120980000D01*
X213684928Y-121430000D01*
X213701512Y-121598377D01*
X213750625Y-121760283D01*
X213830382Y-121909497D01*
X213937716Y-122040284D01*
X214068503Y-122147618D01*
X214217717Y-122227375D01*
X214379623Y-122276488D01*
X214548000Y-122293072D01*
X214811270Y-122293072D01*
X215271215Y-122753017D01*
X215278697Y-122828986D01*
X215322154Y-122972247D01*
X215392726Y-123104276D01*
X215479023Y-123209429D01*
X215487699Y-123220001D01*
X215603424Y-123314974D01*
X215735453Y-123385546D01*
X215766607Y-123394996D01*
X215822463Y-123499494D01*
X215901815Y-123596185D01*
X215998506Y-123675537D01*
X216108820Y-123734502D01*
X216228518Y-123770812D01*
X216353000Y-123783072D01*
X218193000Y-123783072D01*
X218317482Y-123770812D01*
X218437180Y-123734502D01*
X218476815Y-123713316D01*
X219913501Y-125150003D01*
X219937299Y-125179001D01*
X220053024Y-125273974D01*
X220129777Y-125315000D01*
X163533504Y-125315000D01*
X162953869Y-125258166D01*
X162428538Y-125099559D01*
X161944022Y-124841937D01*
X161518769Y-124495111D01*
X161168983Y-124072292D01*
X160907985Y-123589588D01*
X160745713Y-123065371D01*
X160685000Y-122487729D01*
X160685000Y-75809658D01*
X162939698Y-75809658D01*
X162939698Y-76082342D01*
X162992896Y-76349785D01*
X163097247Y-76601712D01*
X163248742Y-76828440D01*
X163441558Y-77021256D01*
X163668286Y-77172751D01*
X163920213Y-77277102D01*
X164187656Y-77330300D01*
X164460340Y-77330300D01*
X164727783Y-77277102D01*
X164979710Y-77172751D01*
X165206438Y-77021256D01*
X165399254Y-76828440D01*
X165550749Y-76601712D01*
X165655100Y-76349785D01*
X165708298Y-76082342D01*
X165708298Y-75809658D01*
X166439699Y-75809658D01*
X166439699Y-76082342D01*
X166492897Y-76349785D01*
X166597248Y-76601712D01*
X166748743Y-76828440D01*
X166941559Y-77021256D01*
X167168287Y-77172751D01*
X167420214Y-77277102D01*
X167687657Y-77330300D01*
X167960341Y-77330300D01*
X168227784Y-77277102D01*
X168479711Y-77172751D01*
X168706439Y-77021256D01*
X168825202Y-76902493D01*
X170547111Y-76902493D01*
X170612551Y-77141290D01*
X170859411Y-77257120D01*
X171124125Y-77322564D01*
X171396520Y-77335107D01*
X171666128Y-77294268D01*
X171922588Y-77201615D01*
X172035447Y-77141290D01*
X172100887Y-76902493D01*
X171323999Y-76125605D01*
X170547111Y-76902493D01*
X168825202Y-76902493D01*
X168899255Y-76828440D01*
X169050750Y-76601712D01*
X169155101Y-76349785D01*
X169208299Y-76082342D01*
X169208299Y-76018521D01*
X169934892Y-76018521D01*
X169975731Y-76288129D01*
X170068384Y-76544589D01*
X170128709Y-76657448D01*
X170367506Y-76722888D01*
X171144394Y-75946000D01*
X171503604Y-75946000D01*
X172280492Y-76722888D01*
X172519289Y-76657448D01*
X172635119Y-76410588D01*
X172700563Y-76145874D01*
X172713106Y-75873479D01*
X172703439Y-75809658D01*
X173439700Y-75809658D01*
X173439700Y-76082342D01*
X173492898Y-76349785D01*
X173597249Y-76601712D01*
X173748744Y-76828440D01*
X173941560Y-77021256D01*
X174168288Y-77172751D01*
X174420215Y-77277102D01*
X174687658Y-77330300D01*
X174960342Y-77330300D01*
X175227785Y-77277102D01*
X175479712Y-77172751D01*
X175706440Y-77021256D01*
X175899256Y-76828440D01*
X176050751Y-76601712D01*
X176155102Y-76349785D01*
X176208300Y-76082342D01*
X176208300Y-75809658D01*
X176155102Y-75542215D01*
X176050751Y-75290288D01*
X175899256Y-75063560D01*
X175706440Y-74870744D01*
X175479712Y-74719249D01*
X175227785Y-74614898D01*
X174960342Y-74561700D01*
X174687658Y-74561700D01*
X174420215Y-74614898D01*
X174168288Y-74719249D01*
X173941560Y-74870744D01*
X173748744Y-75063560D01*
X173597249Y-75290288D01*
X173492898Y-75542215D01*
X173439700Y-75809658D01*
X172703439Y-75809658D01*
X172672267Y-75603871D01*
X172579614Y-75347411D01*
X172519289Y-75234552D01*
X172280492Y-75169112D01*
X171503604Y-75946000D01*
X171144394Y-75946000D01*
X170367506Y-75169112D01*
X170128709Y-75234552D01*
X170012879Y-75481412D01*
X169947435Y-75746126D01*
X169934892Y-76018521D01*
X169208299Y-76018521D01*
X169208299Y-75809658D01*
X169155101Y-75542215D01*
X169050750Y-75290288D01*
X168899255Y-75063560D01*
X168825202Y-74989507D01*
X170547111Y-74989507D01*
X171323999Y-75766395D01*
X172100887Y-74989507D01*
X172035447Y-74750710D01*
X171788587Y-74634880D01*
X171523873Y-74569436D01*
X171251478Y-74556893D01*
X170981870Y-74597732D01*
X170725410Y-74690385D01*
X170612551Y-74750710D01*
X170547111Y-74989507D01*
X168825202Y-74989507D01*
X168706439Y-74870744D01*
X168479711Y-74719249D01*
X168227784Y-74614898D01*
X167960341Y-74561700D01*
X167687657Y-74561700D01*
X167420214Y-74614898D01*
X167168287Y-74719249D01*
X166941559Y-74870744D01*
X166748743Y-75063560D01*
X166597248Y-75290288D01*
X166492897Y-75542215D01*
X166439699Y-75809658D01*
X165708298Y-75809658D01*
X165655100Y-75542215D01*
X165550749Y-75290288D01*
X165399254Y-75063560D01*
X165206438Y-74870744D01*
X164979710Y-74719249D01*
X164727783Y-74614898D01*
X164460340Y-74561700D01*
X164187656Y-74561700D01*
X163920213Y-74614898D01*
X163668286Y-74719249D01*
X163441558Y-74870744D01*
X163248742Y-75063560D01*
X163097247Y-75290288D01*
X162992896Y-75542215D01*
X162939698Y-75809658D01*
X160685000Y-75809658D01*
X160685000Y-73533504D01*
X160741834Y-72953869D01*
X160900441Y-72428538D01*
X161158064Y-71944020D01*
X161504889Y-71518769D01*
X161927711Y-71168980D01*
X162410414Y-70907984D01*
X162934628Y-70745713D01*
X163512271Y-70685000D01*
X241466496Y-70685000D01*
X242046131Y-70741834D01*
%TA.AperFunction,Conductor*%
D17*
G36*
X242046131Y-70741834D02*
G01*
X242571462Y-70900441D01*
X243055980Y-71158064D01*
X243481231Y-71504889D01*
X243831020Y-71927711D01*
X244092016Y-72410414D01*
X244254287Y-72934628D01*
X244315000Y-73512271D01*
X244315001Y-119010885D01*
X244260962Y-118945038D01*
X244126386Y-118834595D01*
X243972850Y-118752528D01*
X243806254Y-118701992D01*
X243633000Y-118684928D01*
X242883000Y-118684928D01*
X242709746Y-118701992D01*
X242543150Y-118752528D01*
X242389614Y-118834595D01*
X242255038Y-118945038D01*
X242144595Y-119079614D01*
X242062528Y-119233150D01*
X242011992Y-119399746D01*
X241994928Y-119573000D01*
X241994928Y-120386271D01*
X241728999Y-120652200D01*
X241718878Y-120652200D01*
X241718000Y-120483750D01*
X241559250Y-120325000D01*
X240585000Y-120325000D01*
X240585000Y-120345000D01*
X240331000Y-120345000D01*
X240331000Y-120325000D01*
X240311000Y-120325000D01*
X240311000Y-120071000D01*
X240331000Y-120071000D01*
X240331000Y-118846750D01*
X240585000Y-118846750D01*
X240585000Y-120071000D01*
X241559250Y-120071000D01*
X241718000Y-119912250D01*
X241721072Y-119323000D01*
X241708812Y-119198518D01*
X241672502Y-119078820D01*
X241613537Y-118968506D01*
X241534185Y-118871815D01*
X241437494Y-118792463D01*
X241327180Y-118733498D01*
X241207482Y-118697188D01*
X241083000Y-118684928D01*
X240743750Y-118688000D01*
X240585000Y-118846750D01*
X240331000Y-118846750D01*
X240172250Y-118688000D01*
X239833000Y-118684928D01*
X239708518Y-118697188D01*
X239588820Y-118733498D01*
X239478506Y-118792463D01*
X239381815Y-118871815D01*
X239302463Y-118968506D01*
X239243498Y-119078820D01*
X239207188Y-119198518D01*
X239194928Y-119323000D01*
X239197068Y-119733453D01*
X239157278Y-119602284D01*
X239079831Y-119457392D01*
X238975606Y-119330394D01*
X238848608Y-119226169D01*
X238703716Y-119148722D01*
X238546500Y-119101031D01*
X238383000Y-119084928D01*
X237983000Y-119084928D01*
X237819500Y-119101031D01*
X237662284Y-119148722D01*
X237517392Y-119226169D01*
X237390394Y-119330394D01*
X237358000Y-119369866D01*
X237325606Y-119330394D01*
X237293000Y-119303635D01*
X237293000Y-116427101D01*
X240011003Y-113709099D01*
X240040001Y-113685301D01*
X240134974Y-113569576D01*
X240205546Y-113437547D01*
X240249003Y-113294286D01*
X240253089Y-113252796D01*
X240446632Y-113123475D01*
X240653475Y-112916632D01*
X240770000Y-112742240D01*
X240886525Y-112916632D01*
X241093368Y-113123475D01*
X241336589Y-113285990D01*
X241606842Y-113397932D01*
X241893740Y-113455000D01*
X242186260Y-113455000D01*
X242473158Y-113397932D01*
X242743411Y-113285990D01*
X242986632Y-113123475D01*
X243193475Y-112916632D01*
X243355990Y-112673411D01*
X243467932Y-112403158D01*
X243525000Y-112116260D01*
X243525000Y-111823740D01*
X243467932Y-111536842D01*
X243355990Y-111266589D01*
X243193475Y-111023368D01*
X242986632Y-110816525D01*
X242812240Y-110700000D01*
X242986632Y-110583475D01*
X243193475Y-110376632D01*
X243355990Y-110133411D01*
X243467932Y-109863158D01*
X243525000Y-109576260D01*
X243525000Y-109283740D01*
X243467932Y-108996842D01*
X243355990Y-108726589D01*
X243193475Y-108483368D01*
X242986632Y-108276525D01*
X242812240Y-108160000D01*
X242986632Y-108043475D01*
X243193475Y-107836632D01*
X243355990Y-107593411D01*
X243467932Y-107323158D01*
X243525000Y-107036260D01*
X243525000Y-106743740D01*
X243467932Y-106456842D01*
X243355990Y-106186589D01*
X243193475Y-105943368D01*
X242986632Y-105736525D01*
X242812240Y-105620000D01*
X242986632Y-105503475D01*
X243193475Y-105296632D01*
X243355990Y-105053411D01*
X243467932Y-104783158D01*
X243525000Y-104496260D01*
X243525000Y-104203740D01*
X243467932Y-103916842D01*
X243355990Y-103646589D01*
X243193475Y-103403368D01*
X242986632Y-103196525D01*
X242812240Y-103080000D01*
X242986632Y-102963475D01*
X243193475Y-102756632D01*
X243355990Y-102513411D01*
X243467932Y-102243158D01*
X243525000Y-101956260D01*
X243525000Y-101663740D01*
X243467932Y-101376842D01*
X243355990Y-101106589D01*
X243193475Y-100863368D01*
X242986632Y-100656525D01*
X242804466Y-100534805D01*
X242921355Y-100465178D01*
X243137588Y-100270269D01*
X243311641Y-100036920D01*
X243436825Y-99774099D01*
X243481476Y-99626890D01*
X243360155Y-99397000D01*
X242167000Y-99397000D01*
X242167000Y-99417000D01*
X241913000Y-99417000D01*
X241913000Y-99397000D01*
X241893000Y-99397000D01*
X241893000Y-99143000D01*
X241913000Y-99143000D01*
X241913000Y-99123000D01*
X242167000Y-99123000D01*
X242167000Y-99143000D01*
X243360155Y-99143000D01*
X243481476Y-98913110D01*
X243436825Y-98765901D01*
X243311641Y-98503080D01*
X243137588Y-98269731D01*
X242921355Y-98074822D01*
X242804466Y-98005195D01*
X242986632Y-97883475D01*
X243193475Y-97676632D01*
X243355990Y-97433411D01*
X243467932Y-97163158D01*
X243525000Y-96876260D01*
X243525000Y-96583740D01*
X243467932Y-96296842D01*
X243355990Y-96026589D01*
X243193475Y-95783368D01*
X242986632Y-95576525D01*
X242804466Y-95454805D01*
X242921355Y-95385178D01*
X243137588Y-95190269D01*
X243311641Y-94956920D01*
X243436825Y-94694099D01*
X243481476Y-94546890D01*
X243360155Y-94317000D01*
X242167000Y-94317000D01*
X242167000Y-94337000D01*
X241913000Y-94337000D01*
X241913000Y-94317000D01*
X241893000Y-94317000D01*
X241893000Y-94063000D01*
X241913000Y-94063000D01*
X241913000Y-94043000D01*
X242167000Y-94043000D01*
X242167000Y-94063000D01*
X243360155Y-94063000D01*
X243481476Y-93833110D01*
X243436825Y-93685901D01*
X243311641Y-93423080D01*
X243137588Y-93189731D01*
X242921355Y-92994822D01*
X242804466Y-92925195D01*
X242986632Y-92803475D01*
X243193475Y-92596632D01*
X243355990Y-92353411D01*
X243467932Y-92083158D01*
X243525000Y-91796260D01*
X243525000Y-91503740D01*
X243467932Y-91216842D01*
X243355990Y-90946589D01*
X243193475Y-90703368D01*
X242986632Y-90496525D01*
X242812240Y-90380000D01*
X242986632Y-90263475D01*
X243193475Y-90056632D01*
X243355990Y-89813411D01*
X243467932Y-89543158D01*
X243525000Y-89256260D01*
X243525000Y-88963740D01*
X243467932Y-88676842D01*
X243355990Y-88406589D01*
X243193475Y-88163368D01*
X242986632Y-87956525D01*
X242812240Y-87840000D01*
X242986632Y-87723475D01*
X243193475Y-87516632D01*
X243355990Y-87273411D01*
X243467932Y-87003158D01*
X243525000Y-86716260D01*
X243525000Y-86423740D01*
X243467932Y-86136842D01*
X243355990Y-85866589D01*
X243193475Y-85623368D01*
X242986632Y-85416525D01*
X242812240Y-85300000D01*
X242986632Y-85183475D01*
X243193475Y-84976632D01*
X243355990Y-84733411D01*
X243467932Y-84463158D01*
X243525000Y-84176260D01*
X243525000Y-83883740D01*
X243467932Y-83596842D01*
X243355990Y-83326589D01*
X243193475Y-83083368D01*
X242986632Y-82876525D01*
X242743411Y-82714010D01*
X242473158Y-82602068D01*
X242186260Y-82545000D01*
X241893740Y-82545000D01*
X241606842Y-82602068D01*
X241336589Y-82714010D01*
X241093368Y-82876525D01*
X240961513Y-83008380D01*
X240939502Y-82935820D01*
X240880537Y-82825506D01*
X240801185Y-82728815D01*
X240704494Y-82649463D01*
X240594180Y-82590498D01*
X240474482Y-82554188D01*
X240350000Y-82541928D01*
X238650000Y-82541928D01*
X238525518Y-82554188D01*
X238405820Y-82590498D01*
X238295506Y-82649463D01*
X238198815Y-82728815D01*
X238119463Y-82825506D01*
X238060498Y-82935820D01*
X238024188Y-83055518D01*
X238011928Y-83180000D01*
X238011928Y-84880000D01*
X238024188Y-85004482D01*
X238060498Y-85124180D01*
X238119463Y-85234494D01*
X238198815Y-85331185D01*
X238295506Y-85410537D01*
X238405820Y-85469502D01*
X238478380Y-85491513D01*
X238346525Y-85623368D01*
X238184010Y-85866589D01*
X238072068Y-86136842D01*
X238015000Y-86423740D01*
X238015000Y-86716260D01*
X238072068Y-87003158D01*
X238184010Y-87273411D01*
X238346525Y-87516632D01*
X238553368Y-87723475D01*
X238735534Y-87845195D01*
X238618645Y-87914822D01*
X238402412Y-88109731D01*
X238228359Y-88343080D01*
X238103175Y-88605901D01*
X238058524Y-88753110D01*
X238179845Y-88983000D01*
X239373000Y-88983000D01*
X239373000Y-88963000D01*
X239627000Y-88963000D01*
X239627000Y-88983000D01*
X239647000Y-88983000D01*
X239647000Y-89237000D01*
X239627000Y-89237000D01*
X239627000Y-89257000D01*
X239373000Y-89257000D01*
X239373000Y-89237000D01*
X238179845Y-89237000D01*
X238058524Y-89466890D01*
X238103175Y-89614099D01*
X238228359Y-89876920D01*
X238402412Y-90110269D01*
X238618645Y-90305178D01*
X238735534Y-90374805D01*
X238553368Y-90496525D01*
X238346525Y-90703368D01*
X238184010Y-90946589D01*
X238072068Y-91216842D01*
X238015000Y-91503740D01*
X238015000Y-91796260D01*
X238072068Y-92083158D01*
X238184010Y-92353411D01*
X238346525Y-92596632D01*
X238553368Y-92803475D01*
X238727760Y-92920000D01*
X238553368Y-93036525D01*
X238346525Y-93243368D01*
X238184010Y-93486589D01*
X238072068Y-93756842D01*
X238015000Y-94043740D01*
X238015000Y-94336260D01*
X238072068Y-94623158D01*
X238184010Y-94893411D01*
X238346525Y-95136632D01*
X238553368Y-95343475D01*
X238727760Y-95460000D01*
X238553368Y-95576525D01*
X238346525Y-95783368D01*
X238184010Y-96026589D01*
X238072068Y-96296842D01*
X238015000Y-96583740D01*
X238015000Y-96876260D01*
X238072068Y-97163158D01*
X238184010Y-97433411D01*
X238346525Y-97676632D01*
X238553368Y-97883475D01*
X238727760Y-98000000D01*
X238553368Y-98116525D01*
X238346525Y-98323368D01*
X238184010Y-98566589D01*
X238072068Y-98836842D01*
X238015000Y-99123740D01*
X238015000Y-99416260D01*
X238072068Y-99703158D01*
X238184010Y-99973411D01*
X238346525Y-100216632D01*
X238553368Y-100423475D01*
X238727760Y-100540000D01*
X238553368Y-100656525D01*
X238346525Y-100863368D01*
X238184010Y-101106589D01*
X238072068Y-101376842D01*
X238015000Y-101663740D01*
X238015000Y-101956260D01*
X238072068Y-102243158D01*
X238184010Y-102513411D01*
X238346525Y-102756632D01*
X238553368Y-102963475D01*
X238727760Y-103080000D01*
X238553368Y-103196525D01*
X238346525Y-103403368D01*
X238184010Y-103646589D01*
X238072068Y-103916842D01*
X238015000Y-104203740D01*
X238015000Y-104496260D01*
X238072068Y-104783158D01*
X238184010Y-105053411D01*
X238346525Y-105296632D01*
X238553368Y-105503475D01*
X238735534Y-105625195D01*
X238618645Y-105694822D01*
X238402412Y-105889731D01*
X238228359Y-106123080D01*
X238103175Y-106385901D01*
X238058524Y-106533110D01*
X238179845Y-106763000D01*
X239373000Y-106763000D01*
X239373000Y-106743000D01*
X239627000Y-106743000D01*
X239627000Y-106763000D01*
X239647000Y-106763000D01*
X239647000Y-107017000D01*
X239627000Y-107017000D01*
X239627000Y-107037000D01*
X239373000Y-107037000D01*
X239373000Y-107017000D01*
X238179845Y-107017000D01*
X238058524Y-107246890D01*
X238103175Y-107394099D01*
X238228359Y-107656920D01*
X238402412Y-107890269D01*
X238618645Y-108085178D01*
X238735534Y-108154805D01*
X238553368Y-108276525D01*
X238346525Y-108483368D01*
X238184010Y-108726589D01*
X238072068Y-108996842D01*
X238015000Y-109283740D01*
X238015000Y-109576260D01*
X238072068Y-109863158D01*
X238184010Y-110133411D01*
X238346525Y-110376632D01*
X238553368Y-110583475D01*
X238727760Y-110700000D01*
X238553368Y-110816525D01*
X238346525Y-111023368D01*
X238184010Y-111266589D01*
X238072068Y-111536842D01*
X238015000Y-111823740D01*
X238015000Y-112116260D01*
X238072068Y-112403158D01*
X238184010Y-112673411D01*
X238346525Y-112916632D01*
X238500196Y-113070303D01*
X236021998Y-115548501D01*
X235993000Y-115572299D01*
X235969202Y-115601297D01*
X235969201Y-115601298D01*
X235898026Y-115688024D01*
X235827454Y-115820054D01*
X235783998Y-115963315D01*
X235769324Y-116112300D01*
X235773001Y-116149632D01*
X235773000Y-119303635D01*
X235740394Y-119330394D01*
X235636169Y-119457392D01*
X235558722Y-119602284D01*
X235511031Y-119759500D01*
X235494928Y-119923000D01*
X235494928Y-120161269D01*
X231777199Y-123879000D01*
X229218708Y-123879000D01*
X229221072Y-123855000D01*
X229218000Y-123665750D01*
X229059250Y-123507000D01*
X228260000Y-123507000D01*
X228260000Y-123527000D01*
X228006000Y-123527000D01*
X228006000Y-123507000D01*
X227986000Y-123507000D01*
X227986000Y-123253000D01*
X228006000Y-123253000D01*
X228006000Y-122428750D01*
X228260000Y-122428750D01*
X228260000Y-123253000D01*
X229059250Y-123253000D01*
X229218000Y-123094250D01*
X229221072Y-122905000D01*
X229208812Y-122780518D01*
X229172502Y-122660820D01*
X229113537Y-122550506D01*
X229034185Y-122453815D01*
X228937494Y-122374463D01*
X228827180Y-122315498D01*
X228707482Y-122279188D01*
X228583000Y-122266928D01*
X228418750Y-122270000D01*
X228260000Y-122428750D01*
X228006000Y-122428750D01*
X227847250Y-122270000D01*
X227768000Y-122268518D01*
X227768000Y-121634527D01*
X227797851Y-121625472D01*
X227951387Y-121543405D01*
X228085962Y-121432962D01*
X228196405Y-121298387D01*
X228278472Y-121144851D01*
X228305727Y-121055000D01*
X228369928Y-121055000D01*
X228382188Y-121179482D01*
X228418498Y-121299180D01*
X228477463Y-121409494D01*
X228556815Y-121506185D01*
X228653506Y-121585537D01*
X228763820Y-121644502D01*
X228883518Y-121680812D01*
X229008000Y-121693072D01*
X229422250Y-121690000D01*
X229581000Y-121531250D01*
X229581000Y-120507000D01*
X229835000Y-120507000D01*
X229835000Y-121531250D01*
X229993750Y-121690000D01*
X230408000Y-121693072D01*
X230532482Y-121680812D01*
X230652180Y-121644502D01*
X230762494Y-121585537D01*
X230859185Y-121506185D01*
X230938537Y-121409494D01*
X230997502Y-121299180D01*
X231033812Y-121179482D01*
X231046072Y-121055000D01*
X231043000Y-120665750D01*
X230884250Y-120507000D01*
X229835000Y-120507000D01*
X229581000Y-120507000D01*
X228531750Y-120507000D01*
X228373000Y-120665750D01*
X228369928Y-121055000D01*
X228305727Y-121055000D01*
X228329008Y-120978255D01*
X228346072Y-120805001D01*
X228346072Y-119954999D01*
X228329008Y-119781745D01*
X228305728Y-119705000D01*
X228369928Y-119705000D01*
X228373000Y-120094250D01*
X228531750Y-120253000D01*
X229581000Y-120253000D01*
X229581000Y-119228750D01*
X229835000Y-119228750D01*
X229835000Y-120253000D01*
X230884250Y-120253000D01*
X231043000Y-120094250D01*
X231046072Y-119705000D01*
X231033812Y-119580518D01*
X230997502Y-119460820D01*
X230938537Y-119350506D01*
X230859185Y-119253815D01*
X230762494Y-119174463D01*
X230652180Y-119115498D01*
X230532482Y-119079188D01*
X230408000Y-119066928D01*
X229993750Y-119070000D01*
X229835000Y-119228750D01*
X229581000Y-119228750D01*
X229422250Y-119070000D01*
X229008000Y-119066928D01*
X228883518Y-119079188D01*
X228763820Y-119115498D01*
X228653506Y-119174463D01*
X228556815Y-119253815D01*
X228477463Y-119350506D01*
X228418498Y-119460820D01*
X228382188Y-119580518D01*
X228369928Y-119705000D01*
X228305728Y-119705000D01*
X228278472Y-119615149D01*
X228196405Y-119461613D01*
X228085962Y-119327038D01*
X227951387Y-119216595D01*
X227797851Y-119134528D01*
X227631255Y-119083992D01*
X227458001Y-119066928D01*
X226769729Y-119066928D01*
X226370301Y-118667500D01*
X226544730Y-118493072D01*
X226808000Y-118493072D01*
X226976377Y-118476488D01*
X227138283Y-118427375D01*
X227284351Y-118349300D01*
X227328506Y-118385537D01*
X227438820Y-118444502D01*
X227558518Y-118480812D01*
X227683000Y-118493072D01*
X227847250Y-118490000D01*
X228006000Y-118331250D01*
X228006000Y-117507000D01*
X228260000Y-117507000D01*
X228260000Y-118331250D01*
X228418750Y-118490000D01*
X228583000Y-118493072D01*
X228707482Y-118480812D01*
X228827180Y-118444502D01*
X228937494Y-118385537D01*
X229034185Y-118306185D01*
X229113537Y-118209494D01*
X229172502Y-118099180D01*
X229208812Y-117979482D01*
X229221072Y-117855000D01*
X229218000Y-117665750D01*
X229059250Y-117507000D01*
X228260000Y-117507000D01*
X228006000Y-117507000D01*
X227986000Y-117507000D01*
X227986000Y-117253000D01*
X228006000Y-117253000D01*
X228006000Y-116428750D01*
X228260000Y-116428750D01*
X228260000Y-117253000D01*
X229059250Y-117253000D01*
X229218000Y-117094250D01*
X229221072Y-116905000D01*
X229208812Y-116780518D01*
X229172502Y-116660820D01*
X229113537Y-116550506D01*
X229034185Y-116453815D01*
X228937494Y-116374463D01*
X228827180Y-116315498D01*
X228707482Y-116279188D01*
X228583000Y-116266928D01*
X228418750Y-116270000D01*
X228260000Y-116428750D01*
X228006000Y-116428750D01*
X227847250Y-116270000D01*
X227683000Y-116266928D01*
X227558518Y-116279188D01*
X227438820Y-116315498D01*
X227343000Y-116366716D01*
X227343000Y-112549401D01*
X231694016Y-108198386D01*
X231846525Y-108426632D01*
X232053368Y-108633475D01*
X232227760Y-108750000D01*
X232053368Y-108866525D01*
X231846525Y-109073368D01*
X231684010Y-109316589D01*
X231572068Y-109586842D01*
X231515000Y-109873740D01*
X231515000Y-110166260D01*
X231572068Y-110453158D01*
X231684010Y-110723411D01*
X231846525Y-110966632D01*
X232053368Y-111173475D01*
X232227760Y-111290000D01*
X232053368Y-111406525D01*
X231846525Y-111613368D01*
X231684010Y-111856589D01*
X231572068Y-112126842D01*
X231515000Y-112413740D01*
X231515000Y-112706260D01*
X231572068Y-112993158D01*
X231684010Y-113263411D01*
X231846525Y-113506632D01*
X232053368Y-113713475D01*
X232296589Y-113875990D01*
X232566842Y-113987932D01*
X232853740Y-114045000D01*
X233146260Y-114045000D01*
X233433158Y-113987932D01*
X233703411Y-113875990D01*
X233946632Y-113713475D01*
X234153475Y-113506632D01*
X234315990Y-113263411D01*
X234427932Y-112993158D01*
X234485000Y-112706260D01*
X234485000Y-112413740D01*
X234427932Y-112126842D01*
X234315990Y-111856589D01*
X234153475Y-111613368D01*
X233946632Y-111406525D01*
X233772240Y-111290000D01*
X233946632Y-111173475D01*
X234153475Y-110966632D01*
X234315990Y-110723411D01*
X234427932Y-110453158D01*
X234485000Y-110166260D01*
X234485000Y-109873740D01*
X234427932Y-109586842D01*
X234315990Y-109316589D01*
X234153475Y-109073368D01*
X233946632Y-108866525D01*
X233772240Y-108750000D01*
X233946632Y-108633475D01*
X234153475Y-108426632D01*
X234315990Y-108183411D01*
X234427932Y-107913158D01*
X234485000Y-107626260D01*
X234485000Y-107333740D01*
X234427932Y-107046842D01*
X234315990Y-106776589D01*
X234173165Y-106562836D01*
X234692204Y-106043798D01*
X234721201Y-106020001D01*
X234784092Y-105943368D01*
X234816174Y-105904277D01*
X234886746Y-105772247D01*
X234910232Y-105694822D01*
X234930203Y-105628986D01*
X234941200Y-105517333D01*
X234941200Y-105517323D01*
X234944876Y-105480000D01*
X234941200Y-105442677D01*
X234941200Y-101763122D01*
X234944876Y-101725799D01*
X234941200Y-101688476D01*
X234941200Y-101688467D01*
X234930203Y-101576814D01*
X234886746Y-101433553D01*
X234838878Y-101343999D01*
X234816174Y-101301523D01*
X234744999Y-101214797D01*
X234721201Y-101185799D01*
X234692202Y-101162001D01*
X234565602Y-101035400D01*
X235598408Y-100002595D01*
X235627401Y-99978801D01*
X235651195Y-99949808D01*
X235651199Y-99949804D01*
X235722373Y-99863077D01*
X235722374Y-99863076D01*
X235792946Y-99731047D01*
X235836403Y-99587786D01*
X235847400Y-99476133D01*
X235847400Y-99476124D01*
X235851076Y-99438801D01*
X235847400Y-99401478D01*
X235847400Y-79932725D01*
X235851076Y-79895400D01*
X235847400Y-79858075D01*
X235847400Y-79858067D01*
X235836403Y-79746414D01*
X235792946Y-79603153D01*
X235722374Y-79471124D01*
X235627401Y-79355399D01*
X235598404Y-79331602D01*
X234412151Y-78145350D01*
X234439502Y-78094180D01*
X234475812Y-77974482D01*
X234488072Y-77850000D01*
X234488072Y-76150000D01*
X234475812Y-76025518D01*
X234439502Y-75905820D01*
X234380537Y-75795506D01*
X234301185Y-75698815D01*
X234204494Y-75619463D01*
X234094180Y-75560498D01*
X233974482Y-75524188D01*
X233850000Y-75511928D01*
X232150000Y-75511928D01*
X232025518Y-75524188D01*
X231905820Y-75560498D01*
X231795506Y-75619463D01*
X231698815Y-75698815D01*
X231619463Y-75795506D01*
X231560498Y-75905820D01*
X231524188Y-76025518D01*
X231511928Y-76150000D01*
X231511928Y-77850000D01*
X231524188Y-77974482D01*
X231560498Y-78094180D01*
X231619463Y-78204494D01*
X231698815Y-78301185D01*
X231795506Y-78380537D01*
X231905820Y-78439502D01*
X231986466Y-78463966D01*
X231902412Y-78539731D01*
X231728359Y-78773080D01*
X231603175Y-79035901D01*
X231558524Y-79183110D01*
X231679845Y-79413000D01*
X232873000Y-79413000D01*
X232873000Y-79393000D01*
X233127000Y-79393000D01*
X233127000Y-79413000D01*
X233147000Y-79413000D01*
X233147000Y-79667000D01*
X233127000Y-79667000D01*
X233127000Y-79687000D01*
X232873000Y-79687000D01*
X232873000Y-79667000D01*
X231679845Y-79667000D01*
X231558524Y-79896890D01*
X231603175Y-80044099D01*
X231728359Y-80306920D01*
X231902412Y-80540269D01*
X232118645Y-80735178D01*
X232235534Y-80804805D01*
X232053368Y-80926525D01*
X231846525Y-81133368D01*
X231684010Y-81376589D01*
X231572068Y-81646842D01*
X231515000Y-81933740D01*
X231515000Y-82226260D01*
X231572068Y-82513158D01*
X231684010Y-82783411D01*
X231846525Y-83026632D01*
X232053368Y-83233475D01*
X232227760Y-83350000D01*
X232053368Y-83466525D01*
X231846525Y-83673368D01*
X231684010Y-83916589D01*
X231572068Y-84186842D01*
X231515000Y-84473740D01*
X231515000Y-84766260D01*
X231572068Y-85053158D01*
X231684010Y-85323411D01*
X231846525Y-85566632D01*
X232053368Y-85773475D01*
X232227760Y-85890000D01*
X232053368Y-86006525D01*
X231846525Y-86213368D01*
X231684010Y-86456589D01*
X231572068Y-86726842D01*
X231515000Y-87013740D01*
X231515000Y-87306260D01*
X231572068Y-87593158D01*
X231684010Y-87863411D01*
X231846525Y-88106632D01*
X232053368Y-88313475D01*
X232227760Y-88430000D01*
X232053368Y-88546525D01*
X231846525Y-88753368D01*
X231684010Y-88996589D01*
X231572068Y-89266842D01*
X231515000Y-89553740D01*
X231515000Y-89846260D01*
X231572068Y-90133158D01*
X231684010Y-90403411D01*
X231846525Y-90646632D01*
X232053368Y-90853475D01*
X232227760Y-90970000D01*
X232053368Y-91086525D01*
X231899698Y-91240195D01*
X231026603Y-90367102D01*
X231002801Y-90338099D01*
X230887076Y-90243126D01*
X230755047Y-90172554D01*
X230611786Y-90129097D01*
X230500133Y-90118100D01*
X230500122Y-90118100D01*
X230462800Y-90114424D01*
X230425478Y-90118100D01*
X219190927Y-90118100D01*
X219245000Y-89846260D01*
X219245000Y-89553740D01*
X219187932Y-89266842D01*
X219075990Y-88996589D01*
X218913475Y-88753368D01*
X218706632Y-88546525D01*
X218532240Y-88430000D01*
X218706632Y-88313475D01*
X218913475Y-88106632D01*
X219075990Y-87863411D01*
X219187932Y-87593158D01*
X219245000Y-87306260D01*
X219245000Y-87013740D01*
X219187932Y-86726842D01*
X219075990Y-86456589D01*
X218913475Y-86213368D01*
X218706632Y-86006525D01*
X218524466Y-85884805D01*
X218641355Y-85815178D01*
X218857588Y-85620269D01*
X219031641Y-85386920D01*
X219156825Y-85124099D01*
X219201476Y-84976890D01*
X219080155Y-84747000D01*
X217887000Y-84747000D01*
X217887000Y-84767000D01*
X217633000Y-84767000D01*
X217633000Y-84747000D01*
X216439845Y-84747000D01*
X216318524Y-84976890D01*
X216363175Y-85124099D01*
X216488359Y-85386920D01*
X216662412Y-85620269D01*
X216878645Y-85815178D01*
X216995534Y-85884805D01*
X216813368Y-86006525D01*
X216606525Y-86213368D01*
X216444010Y-86456589D01*
X216332068Y-86726842D01*
X216275000Y-87013740D01*
X216275000Y-87306260D01*
X216332068Y-87593158D01*
X216444010Y-87863411D01*
X216606525Y-88106632D01*
X216813368Y-88313475D01*
X216987760Y-88430000D01*
X216813368Y-88546525D01*
X216606525Y-88753368D01*
X216481822Y-88940000D01*
X195392802Y-88940000D01*
X183355295Y-76902493D01*
X184047111Y-76902493D01*
X184112551Y-77141290D01*
X184359411Y-77257120D01*
X184624125Y-77322564D01*
X184896520Y-77335107D01*
X185166128Y-77294268D01*
X185422588Y-77201615D01*
X185535447Y-77141290D01*
X185600887Y-76902493D01*
X184823999Y-76125605D01*
X184047111Y-76902493D01*
X183355295Y-76902493D01*
X182679570Y-76226769D01*
X182708298Y-76082342D01*
X182708298Y-76018521D01*
X183434892Y-76018521D01*
X183475731Y-76288129D01*
X183568384Y-76544589D01*
X183628709Y-76657448D01*
X183867506Y-76722888D01*
X184644394Y-75946000D01*
X185003604Y-75946000D01*
X185780492Y-76722888D01*
X186019289Y-76657448D01*
X186135119Y-76410588D01*
X186200563Y-76145874D01*
X186213106Y-75873479D01*
X186203439Y-75809658D01*
X186939699Y-75809658D01*
X186939699Y-76082342D01*
X186992897Y-76349785D01*
X187097248Y-76601712D01*
X187248743Y-76828440D01*
X187441559Y-77021256D01*
X187668287Y-77172751D01*
X187920214Y-77277102D01*
X188187657Y-77330300D01*
X188460341Y-77330300D01*
X188604769Y-77301571D01*
X188844905Y-77541708D01*
X188868699Y-77570701D01*
X188897692Y-77594495D01*
X188897696Y-77594499D01*
X188947412Y-77635299D01*
X188984424Y-77665674D01*
X189116453Y-77736246D01*
X189259714Y-77779703D01*
X189371367Y-77790700D01*
X189371376Y-77790700D01*
X189408699Y-77794376D01*
X189446022Y-77790700D01*
X200701978Y-77790700D01*
X200739300Y-77794376D01*
X200776622Y-77790700D01*
X200776633Y-77790700D01*
X200888286Y-77779703D01*
X201031547Y-77736246D01*
X201163576Y-77665674D01*
X201279301Y-77570701D01*
X201303103Y-77541698D01*
X201543230Y-77301572D01*
X201687657Y-77330300D01*
X201960341Y-77330300D01*
X202227784Y-77277102D01*
X202479711Y-77172751D01*
X202706439Y-77021256D01*
X202899255Y-76828440D01*
X203050750Y-76601712D01*
X203155101Y-76349785D01*
X203208299Y-76082342D01*
X203208299Y-75809658D01*
X203939699Y-75809658D01*
X203939699Y-76082342D01*
X203992897Y-76349785D01*
X204097248Y-76601712D01*
X204248743Y-76828440D01*
X204441559Y-77021256D01*
X204668287Y-77172751D01*
X204920214Y-77277102D01*
X205187657Y-77330300D01*
X205460341Y-77330300D01*
X205727784Y-77277102D01*
X205979711Y-77172751D01*
X206206439Y-77021256D01*
X206325202Y-76902493D01*
X208047112Y-76902493D01*
X208112552Y-77141290D01*
X208359412Y-77257120D01*
X208624126Y-77322564D01*
X208896521Y-77335107D01*
X209166129Y-77294268D01*
X209422589Y-77201615D01*
X209535448Y-77141290D01*
X209600888Y-76902493D01*
X208824000Y-76125605D01*
X208047112Y-76902493D01*
X206325202Y-76902493D01*
X206399255Y-76828440D01*
X206550750Y-76601712D01*
X206655101Y-76349785D01*
X206708299Y-76082342D01*
X206708299Y-76018521D01*
X207434893Y-76018521D01*
X207475732Y-76288129D01*
X207568385Y-76544589D01*
X207628710Y-76657448D01*
X207867507Y-76722888D01*
X208644395Y-75946000D01*
X209003605Y-75946000D01*
X209780493Y-76722888D01*
X210019290Y-76657448D01*
X210135120Y-76410588D01*
X210199543Y-76150000D01*
X216271928Y-76150000D01*
X216271928Y-77850000D01*
X216284188Y-77974482D01*
X216320498Y-78094180D01*
X216379463Y-78204494D01*
X216458815Y-78301185D01*
X216555506Y-78380537D01*
X216665820Y-78439502D01*
X216738380Y-78461513D01*
X216606525Y-78593368D01*
X216444010Y-78836589D01*
X216332068Y-79106842D01*
X216275000Y-79393740D01*
X216275000Y-79686260D01*
X216332068Y-79973158D01*
X216444010Y-80243411D01*
X216606525Y-80486632D01*
X216813368Y-80693475D01*
X216987760Y-80810000D01*
X216813368Y-80926525D01*
X216606525Y-81133368D01*
X216444010Y-81376589D01*
X216332068Y-81646842D01*
X216275000Y-81933740D01*
X216275000Y-82226260D01*
X216332068Y-82513158D01*
X216444010Y-82783411D01*
X216606525Y-83026632D01*
X216813368Y-83233475D01*
X216995534Y-83355195D01*
X216878645Y-83424822D01*
X216662412Y-83619731D01*
X216488359Y-83853080D01*
X216363175Y-84115901D01*
X216318524Y-84263110D01*
X216439845Y-84493000D01*
X217633000Y-84493000D01*
X217633000Y-84473000D01*
X217887000Y-84473000D01*
X217887000Y-84493000D01*
X219080155Y-84493000D01*
X219201476Y-84263110D01*
X219156825Y-84115901D01*
X219031641Y-83853080D01*
X218857588Y-83619731D01*
X218641355Y-83424822D01*
X218524466Y-83355195D01*
X218706632Y-83233475D01*
X218913475Y-83026632D01*
X219075990Y-82783411D01*
X219187932Y-82513158D01*
X219245000Y-82226260D01*
X219245000Y-81933740D01*
X219187932Y-81646842D01*
X219075990Y-81376589D01*
X218913475Y-81133368D01*
X218706632Y-80926525D01*
X218532240Y-80810000D01*
X218706632Y-80693475D01*
X218913475Y-80486632D01*
X219075990Y-80243411D01*
X219187932Y-79973158D01*
X219245000Y-79686260D01*
X219245000Y-79393740D01*
X219187932Y-79106842D01*
X219075990Y-78836589D01*
X218913475Y-78593368D01*
X218781620Y-78461513D01*
X218854180Y-78439502D01*
X218964494Y-78380537D01*
X219061185Y-78301185D01*
X219140537Y-78204494D01*
X219199502Y-78094180D01*
X219235812Y-77974482D01*
X219248072Y-77850000D01*
X219248072Y-76150000D01*
X219235812Y-76025518D01*
X219199502Y-75905820D01*
X219140537Y-75795506D01*
X219061185Y-75698815D01*
X218964494Y-75619463D01*
X218854180Y-75560498D01*
X218734482Y-75524188D01*
X218610000Y-75511928D01*
X216910000Y-75511928D01*
X216785518Y-75524188D01*
X216665820Y-75560498D01*
X216555506Y-75619463D01*
X216458815Y-75698815D01*
X216379463Y-75795506D01*
X216320498Y-75905820D01*
X216284188Y-76025518D01*
X216271928Y-76150000D01*
X210199543Y-76150000D01*
X210200564Y-76145874D01*
X210213107Y-75873479D01*
X210172268Y-75603871D01*
X210079615Y-75347411D01*
X210019290Y-75234552D01*
X209780493Y-75169112D01*
X209003605Y-75946000D01*
X208644395Y-75946000D01*
X207867507Y-75169112D01*
X207628710Y-75234552D01*
X207512880Y-75481412D01*
X207447436Y-75746126D01*
X207434893Y-76018521D01*
X206708299Y-76018521D01*
X206708299Y-75809658D01*
X206655101Y-75542215D01*
X206550750Y-75290288D01*
X206399255Y-75063560D01*
X206325202Y-74989507D01*
X208047112Y-74989507D01*
X208824000Y-75766395D01*
X209600888Y-74989507D01*
X209535448Y-74750710D01*
X209288588Y-74634880D01*
X209023874Y-74569436D01*
X208751479Y-74556893D01*
X208481871Y-74597732D01*
X208225411Y-74690385D01*
X208112552Y-74750710D01*
X208047112Y-74989507D01*
X206325202Y-74989507D01*
X206206439Y-74870744D01*
X205979711Y-74719249D01*
X205727784Y-74614898D01*
X205460341Y-74561700D01*
X205187657Y-74561700D01*
X204920214Y-74614898D01*
X204668287Y-74719249D01*
X204441559Y-74870744D01*
X204248743Y-75063560D01*
X204097248Y-75290288D01*
X203992897Y-75542215D01*
X203939699Y-75809658D01*
X203208299Y-75809658D01*
X203155101Y-75542215D01*
X203050750Y-75290288D01*
X202899255Y-75063560D01*
X202706439Y-74870744D01*
X202479711Y-74719249D01*
X202227784Y-74614898D01*
X201960341Y-74561700D01*
X201687657Y-74561700D01*
X201420214Y-74614898D01*
X201168287Y-74719249D01*
X200941559Y-74870744D01*
X200748743Y-75063560D01*
X200597248Y-75290288D01*
X200492897Y-75542215D01*
X200439699Y-75809658D01*
X200439699Y-76082342D01*
X200468428Y-76226771D01*
X200424499Y-76270700D01*
X199669702Y-76270700D01*
X199700562Y-76145874D01*
X199713105Y-75873479D01*
X199672266Y-75603871D01*
X199579613Y-75347411D01*
X199519288Y-75234552D01*
X199280491Y-75169112D01*
X198503603Y-75946000D01*
X198517746Y-75960143D01*
X198338141Y-76139748D01*
X198323998Y-76125605D01*
X198309856Y-76139748D01*
X198130251Y-75960143D01*
X198144393Y-75946000D01*
X197367505Y-75169112D01*
X197128708Y-75234552D01*
X197012878Y-75481412D01*
X196947434Y-75746126D01*
X196934891Y-76018521D01*
X196973090Y-76270700D01*
X193170833Y-76270700D01*
X193208300Y-76082342D01*
X193208300Y-75809658D01*
X193155102Y-75542215D01*
X193050751Y-75290288D01*
X192899256Y-75063560D01*
X192825203Y-74989507D01*
X197547110Y-74989507D01*
X198323998Y-75766395D01*
X199100886Y-74989507D01*
X199035446Y-74750710D01*
X198788586Y-74634880D01*
X198523872Y-74569436D01*
X198251477Y-74556893D01*
X197981869Y-74597732D01*
X197725409Y-74690385D01*
X197612550Y-74750710D01*
X197547110Y-74989507D01*
X192825203Y-74989507D01*
X192706440Y-74870744D01*
X192479712Y-74719249D01*
X192227785Y-74614898D01*
X191960342Y-74561700D01*
X191687658Y-74561700D01*
X191420215Y-74614898D01*
X191168288Y-74719249D01*
X190941560Y-74870744D01*
X190748744Y-75063560D01*
X190597249Y-75290288D01*
X190492898Y-75542215D01*
X190439700Y-75809658D01*
X190439700Y-76082342D01*
X190477167Y-76270700D01*
X189723503Y-76270700D01*
X189679571Y-76226768D01*
X189708299Y-76082342D01*
X189708299Y-75809658D01*
X189655101Y-75542215D01*
X189550750Y-75290288D01*
X189399255Y-75063560D01*
X189206439Y-74870744D01*
X188979711Y-74719249D01*
X188727784Y-74614898D01*
X188460341Y-74561700D01*
X188187657Y-74561700D01*
X187920214Y-74614898D01*
X187668287Y-74719249D01*
X187441559Y-74870744D01*
X187248743Y-75063560D01*
X187097248Y-75290288D01*
X186992897Y-75542215D01*
X186939699Y-75809658D01*
X186203439Y-75809658D01*
X186172267Y-75603871D01*
X186079614Y-75347411D01*
X186019289Y-75234552D01*
X185780492Y-75169112D01*
X185003604Y-75946000D01*
X184644394Y-75946000D01*
X183867506Y-75169112D01*
X183628709Y-75234552D01*
X183512879Y-75481412D01*
X183447435Y-75746126D01*
X183434892Y-76018521D01*
X182708298Y-76018521D01*
X182708298Y-75809658D01*
X182655100Y-75542215D01*
X182550749Y-75290288D01*
X182399254Y-75063560D01*
X182325201Y-74989507D01*
X184047111Y-74989507D01*
X184823999Y-75766395D01*
X185600887Y-74989507D01*
X185535447Y-74750710D01*
X185288587Y-74634880D01*
X185023873Y-74569436D01*
X184751478Y-74556893D01*
X184481870Y-74597732D01*
X184225410Y-74690385D01*
X184112551Y-74750710D01*
X184047111Y-74989507D01*
X182325201Y-74989507D01*
X182206438Y-74870744D01*
X181979710Y-74719249D01*
X181727783Y-74614898D01*
X181460340Y-74561700D01*
X181187656Y-74561700D01*
X180920213Y-74614898D01*
X180668286Y-74719249D01*
X180441558Y-74870744D01*
X180248742Y-75063560D01*
X180097247Y-75290288D01*
X179992896Y-75542215D01*
X179939698Y-75809658D01*
X179939698Y-76082342D01*
X179992896Y-76349785D01*
X180097247Y-76601712D01*
X180248742Y-76828440D01*
X180441558Y-77021256D01*
X180668286Y-77172751D01*
X180920213Y-77277102D01*
X181187656Y-77330300D01*
X181460340Y-77330300D01*
X181604770Y-77301571D01*
X188930198Y-84627000D01*
X165042022Y-84627000D01*
X165004699Y-84623324D01*
X164967376Y-84627000D01*
X164967367Y-84627000D01*
X164855714Y-84637997D01*
X164712453Y-84681454D01*
X164580423Y-84752026D01*
X164496783Y-84820668D01*
X164464699Y-84846999D01*
X164440900Y-84875998D01*
X164154277Y-85162621D01*
X164094180Y-85130498D01*
X163974482Y-85094188D01*
X163850000Y-85081928D01*
X162150000Y-85081928D01*
X162025518Y-85094188D01*
X161905820Y-85130498D01*
X161795506Y-85189463D01*
X161698815Y-85268815D01*
X161619463Y-85365506D01*
X161560498Y-85475820D01*
X161524188Y-85595518D01*
X161511928Y-85720000D01*
X161511928Y-87420000D01*
X161524188Y-87544482D01*
X161560498Y-87664180D01*
X161588302Y-87716196D01*
X161313702Y-87990797D01*
X161284699Y-88014599D01*
X161249022Y-88058072D01*
X161189726Y-88130324D01*
X161120306Y-88260199D01*
X161119154Y-88262354D01*
X161075697Y-88405615D01*
X161064700Y-88517268D01*
X161064700Y-88517278D01*
X161061024Y-88554600D01*
X161064700Y-88591923D01*
X161064701Y-89629468D01*
X161061024Y-89666800D01*
X161075698Y-89815785D01*
X161119154Y-89959046D01*
X161189726Y-90091076D01*
X161254296Y-90169754D01*
X161284700Y-90206801D01*
X161313698Y-90230599D01*
X161822469Y-90739371D01*
X161684010Y-90946589D01*
X161572068Y-91216842D01*
X161515000Y-91503740D01*
X161515000Y-91796260D01*
X161572068Y-92083158D01*
X161684010Y-92353411D01*
X161846525Y-92596632D01*
X162053368Y-92803475D01*
X162227760Y-92920000D01*
X162053368Y-93036525D01*
X161846525Y-93243368D01*
X161684010Y-93486589D01*
X161572068Y-93756842D01*
X161515000Y-94043740D01*
X161515000Y-94336260D01*
X161572068Y-94623158D01*
X161684010Y-94893411D01*
X161846525Y-95136632D01*
X162053368Y-95343475D01*
X162235534Y-95465195D01*
X162118645Y-95534822D01*
X161902412Y-95729731D01*
X161728359Y-95963080D01*
X161603175Y-96225901D01*
X161558524Y-96373110D01*
X161679845Y-96603000D01*
X162873000Y-96603000D01*
X162873000Y-96583000D01*
X163127000Y-96583000D01*
X163127000Y-96603000D01*
X163147000Y-96603000D01*
X163147000Y-96857000D01*
X163127000Y-96857000D01*
X163127000Y-96877000D01*
X162873000Y-96877000D01*
X162873000Y-96857000D01*
X161679845Y-96857000D01*
X161558524Y-97086890D01*
X161603175Y-97234099D01*
X161728359Y-97496920D01*
X161902412Y-97730269D01*
X162118645Y-97925178D01*
X162235534Y-97994805D01*
X162053368Y-98116525D01*
X161846525Y-98323368D01*
X161684010Y-98566589D01*
X161572068Y-98836842D01*
X161515000Y-99123740D01*
X161515000Y-99416260D01*
X161572068Y-99703158D01*
X161684010Y-99973411D01*
X161846525Y-100216632D01*
X162053368Y-100423475D01*
X162227760Y-100540000D01*
X162053368Y-100656525D01*
X161846525Y-100863368D01*
X161684010Y-101106589D01*
X161572068Y-101376842D01*
X161515000Y-101663740D01*
X161515000Y-101956260D01*
X161572068Y-102243158D01*
X161684010Y-102513411D01*
X161846525Y-102756632D01*
X162053368Y-102963475D01*
X162227760Y-103080000D01*
X162053368Y-103196525D01*
X161846525Y-103403368D01*
X161684010Y-103646589D01*
X161572068Y-103916842D01*
X161515000Y-104203740D01*
X161515000Y-104496260D01*
X161572068Y-104783158D01*
X161684010Y-105053411D01*
X161846525Y-105296632D01*
X162053368Y-105503475D01*
X162227760Y-105620000D01*
X162053368Y-105736525D01*
X161846525Y-105943368D01*
X161684010Y-106186589D01*
X161572068Y-106456842D01*
X161515000Y-106743740D01*
X161515000Y-107036260D01*
X161572068Y-107323158D01*
X161684010Y-107593411D01*
X161846525Y-107836632D01*
X162053368Y-108043475D01*
X162227760Y-108160000D01*
X162053368Y-108276525D01*
X161846525Y-108483368D01*
X161684010Y-108726589D01*
X161572068Y-108996842D01*
X161515000Y-109283740D01*
X161515000Y-109576260D01*
X161572068Y-109863158D01*
X161684010Y-110133411D01*
X161846525Y-110376632D01*
X162053368Y-110583475D01*
X162296589Y-110745990D01*
X162566842Y-110857932D01*
X162853740Y-110915000D01*
X163146260Y-110915000D01*
X163433158Y-110857932D01*
X163594201Y-110791226D01*
X163594201Y-119218103D01*
X163552744Y-119259560D01*
X163401249Y-119486288D01*
X163296898Y-119738215D01*
X163243700Y-120005658D01*
X163243700Y-120278342D01*
X163296898Y-120545785D01*
X163401249Y-120797712D01*
X163552744Y-121024440D01*
X163745560Y-121217256D01*
X163972288Y-121368751D01*
X164224215Y-121473102D01*
X164491658Y-121526300D01*
X164764342Y-121526300D01*
X164908770Y-121497571D01*
X165176101Y-121764903D01*
X165199899Y-121793901D01*
X165228897Y-121817699D01*
X165315623Y-121888874D01*
X165394023Y-121930780D01*
X165447653Y-121959446D01*
X165590914Y-122002903D01*
X165702567Y-122013900D01*
X165702576Y-122013900D01*
X165739899Y-122017576D01*
X165777222Y-122013900D01*
X173978778Y-122013900D01*
X174016100Y-122017576D01*
X174053422Y-122013900D01*
X174053433Y-122013900D01*
X174165086Y-122002903D01*
X174308347Y-121959446D01*
X174440376Y-121888874D01*
X174556101Y-121793901D01*
X174579904Y-121764898D01*
X174847230Y-121497571D01*
X174991660Y-121526300D01*
X175264344Y-121526300D01*
X175531787Y-121473102D01*
X175783714Y-121368751D01*
X176010442Y-121217256D01*
X176203258Y-121024440D01*
X176354753Y-120797712D01*
X176459104Y-120545785D01*
X176512302Y-120278342D01*
X176512302Y-120005658D01*
X176459104Y-119738215D01*
X176354753Y-119486288D01*
X176203258Y-119259560D01*
X176010442Y-119066744D01*
X175783714Y-118915249D01*
X175531787Y-118810898D01*
X175264344Y-118757700D01*
X174991660Y-118757700D01*
X174724217Y-118810898D01*
X174472290Y-118915249D01*
X174245562Y-119066744D01*
X174052746Y-119259560D01*
X173901251Y-119486288D01*
X173796900Y-119738215D01*
X173743702Y-120005658D01*
X173743702Y-120278342D01*
X173772430Y-120422768D01*
X173701299Y-120493900D01*
X172966980Y-120493900D01*
X173004565Y-120341874D01*
X173017108Y-120069479D01*
X172976269Y-119799871D01*
X172883616Y-119543411D01*
X172823291Y-119430552D01*
X172584494Y-119365112D01*
X171807606Y-120142000D01*
X171821749Y-120156143D01*
X171642144Y-120335748D01*
X171628001Y-120321605D01*
X171613859Y-120335748D01*
X171434254Y-120156143D01*
X171448396Y-120142000D01*
X170671508Y-119365112D01*
X170432711Y-119430552D01*
X170316881Y-119677412D01*
X170251437Y-119942126D01*
X170238894Y-120214521D01*
X170279733Y-120484129D01*
X170283263Y-120493900D01*
X169469424Y-120493900D01*
X169512301Y-120278342D01*
X169512301Y-120005658D01*
X169459103Y-119738215D01*
X169354752Y-119486288D01*
X169203257Y-119259560D01*
X169129204Y-119185507D01*
X170851113Y-119185507D01*
X171628001Y-119962395D01*
X172404889Y-119185507D01*
X172339449Y-118946710D01*
X172092589Y-118830880D01*
X171827875Y-118765436D01*
X171555480Y-118752893D01*
X171285872Y-118793732D01*
X171029412Y-118886385D01*
X170916553Y-118946710D01*
X170851113Y-119185507D01*
X169129204Y-119185507D01*
X169010441Y-119066744D01*
X168783713Y-118915249D01*
X168531786Y-118810898D01*
X168264343Y-118757700D01*
X167991659Y-118757700D01*
X167724216Y-118810898D01*
X167472289Y-118915249D01*
X167245561Y-119066744D01*
X167052745Y-119259560D01*
X166901250Y-119486288D01*
X166796899Y-119738215D01*
X166743701Y-120005658D01*
X166743701Y-120278342D01*
X166786578Y-120493900D01*
X166054702Y-120493900D01*
X165983571Y-120422770D01*
X166012300Y-120278342D01*
X166012300Y-120005658D01*
X165959102Y-119738215D01*
X165854751Y-119486288D01*
X165703256Y-119259560D01*
X165510440Y-119066744D01*
X165283712Y-118915249D01*
X165114200Y-118845035D01*
X165114200Y-110847037D01*
X165183109Y-110871481D01*
X165413000Y-110750814D01*
X165413000Y-109557000D01*
X165667000Y-109557000D01*
X165667000Y-110750814D01*
X165896891Y-110871481D01*
X166171252Y-110774157D01*
X166421355Y-110625178D01*
X166637588Y-110430269D01*
X166811641Y-110196920D01*
X166936825Y-109934099D01*
X166981476Y-109786890D01*
X166860155Y-109557000D01*
X165667000Y-109557000D01*
X165413000Y-109557000D01*
X165393000Y-109557000D01*
X165393000Y-109303000D01*
X165413000Y-109303000D01*
X165413000Y-109283000D01*
X165667000Y-109283000D01*
X165667000Y-109303000D01*
X166860155Y-109303000D01*
X166981476Y-109073110D01*
X166936825Y-108925901D01*
X166811641Y-108663080D01*
X166637588Y-108429731D01*
X166421355Y-108234822D01*
X166304466Y-108165195D01*
X166486632Y-108043475D01*
X166693475Y-107836632D01*
X166855990Y-107593411D01*
X166967932Y-107323158D01*
X167025000Y-107036260D01*
X167025000Y-106743740D01*
X166967932Y-106456842D01*
X166855990Y-106186589D01*
X166693475Y-105943368D01*
X166486632Y-105736525D01*
X166312240Y-105620000D01*
X166486632Y-105503475D01*
X166693475Y-105296632D01*
X166855990Y-105053411D01*
X166967932Y-104783158D01*
X167025000Y-104496260D01*
X167025000Y-104203740D01*
X166967932Y-103916842D01*
X166855990Y-103646589D01*
X166693475Y-103403368D01*
X166486632Y-103196525D01*
X166304466Y-103074805D01*
X166421355Y-103005178D01*
X166637588Y-102810269D01*
X166811641Y-102576920D01*
X166936825Y-102314099D01*
X166981476Y-102166890D01*
X166860155Y-101937000D01*
X165667000Y-101937000D01*
X165667000Y-101957000D01*
X165413000Y-101957000D01*
X165413000Y-101937000D01*
X165393000Y-101937000D01*
X165393000Y-101683000D01*
X165413000Y-101683000D01*
X165413000Y-101663000D01*
X165667000Y-101663000D01*
X165667000Y-101683000D01*
X166860155Y-101683000D01*
X166981476Y-101453110D01*
X166936825Y-101305901D01*
X166934014Y-101300000D01*
X173860199Y-101300000D01*
X175136928Y-102576730D01*
X175136928Y-102815000D01*
X175153031Y-102978500D01*
X175200722Y-103135716D01*
X175278169Y-103280608D01*
X175382394Y-103407606D01*
X175509392Y-103511831D01*
X175654284Y-103589278D01*
X175811500Y-103636969D01*
X175975000Y-103653072D01*
X176525000Y-103653072D01*
X176688500Y-103636969D01*
X176845716Y-103589278D01*
X176990608Y-103511831D01*
X177117606Y-103407606D01*
X177206765Y-103298966D01*
X177244463Y-103369494D01*
X177323815Y-103466185D01*
X177420506Y-103545537D01*
X177530820Y-103604502D01*
X177650518Y-103640812D01*
X177775000Y-103653072D01*
X177964250Y-103650000D01*
X178123000Y-103491250D01*
X178123000Y-102742000D01*
X178377000Y-102742000D01*
X178377000Y-103491250D01*
X178535750Y-103650000D01*
X178725000Y-103653072D01*
X178849482Y-103640812D01*
X178969180Y-103604502D01*
X179079494Y-103545537D01*
X179176185Y-103466185D01*
X179255537Y-103369494D01*
X179314502Y-103259180D01*
X179350812Y-103139482D01*
X179363072Y-103015000D01*
X179360000Y-102900750D01*
X179201250Y-102742000D01*
X178377000Y-102742000D01*
X178123000Y-102742000D01*
X178103000Y-102742000D01*
X178103000Y-102602200D01*
X180136928Y-102602200D01*
X180136928Y-102815000D01*
X180153031Y-102978500D01*
X180200722Y-103135716D01*
X180278169Y-103280608D01*
X180382394Y-103407606D01*
X180509392Y-103511831D01*
X180654284Y-103589278D01*
X180811500Y-103636969D01*
X180975000Y-103653072D01*
X181525000Y-103653072D01*
X181688500Y-103636969D01*
X181845716Y-103589278D01*
X181990608Y-103511831D01*
X182117606Y-103407606D01*
X182206765Y-103298966D01*
X182244463Y-103369494D01*
X182323815Y-103466185D01*
X182420506Y-103545537D01*
X182530820Y-103604502D01*
X182650518Y-103640812D01*
X182775000Y-103653072D01*
X182964250Y-103650000D01*
X183123000Y-103491250D01*
X183123000Y-102742000D01*
X183103000Y-102742000D01*
X183103000Y-102644000D01*
X183397000Y-102644000D01*
X183397000Y-102742000D01*
X183377000Y-102742000D01*
X183377000Y-103491250D01*
X183535750Y-103650000D01*
X183725000Y-103653072D01*
X183849482Y-103640812D01*
X183969180Y-103604502D01*
X184079494Y-103545537D01*
X184176185Y-103466185D01*
X184255537Y-103369494D01*
X184314502Y-103259180D01*
X184350812Y-103139482D01*
X184363072Y-103015000D01*
X184360000Y-102900750D01*
X184201252Y-102742002D01*
X184360000Y-102742002D01*
X184360000Y-102644000D01*
X185136928Y-102644000D01*
X185136928Y-102815000D01*
X185153031Y-102978500D01*
X185200722Y-103135716D01*
X185278169Y-103280608D01*
X185382394Y-103407606D01*
X185509392Y-103511831D01*
X185654284Y-103589278D01*
X185811500Y-103636969D01*
X185975000Y-103653072D01*
X186525000Y-103653072D01*
X186688500Y-103636969D01*
X186845716Y-103589278D01*
X186990608Y-103511831D01*
X187117606Y-103407606D01*
X187206765Y-103298966D01*
X187244463Y-103369494D01*
X187323815Y-103466185D01*
X187420506Y-103545537D01*
X187530820Y-103604502D01*
X187650518Y-103640812D01*
X187775000Y-103653072D01*
X187964250Y-103650000D01*
X188123000Y-103491250D01*
X188123000Y-102742000D01*
X188377000Y-102742000D01*
X188377000Y-103491250D01*
X188535750Y-103650000D01*
X188725000Y-103653072D01*
X188849482Y-103640812D01*
X188969180Y-103604502D01*
X189079494Y-103545537D01*
X189176185Y-103466185D01*
X189255537Y-103369494D01*
X189314502Y-103259180D01*
X189350812Y-103139482D01*
X189363072Y-103015000D01*
X189360000Y-102900750D01*
X189201250Y-102742000D01*
X188377000Y-102742000D01*
X188123000Y-102742000D01*
X188103000Y-102742000D01*
X188103000Y-102602200D01*
X190136928Y-102602200D01*
X190136928Y-102815000D01*
X190153031Y-102978500D01*
X190200722Y-103135716D01*
X190278169Y-103280608D01*
X190382394Y-103407606D01*
X190509392Y-103511831D01*
X190654284Y-103589278D01*
X190811500Y-103636969D01*
X190975000Y-103653072D01*
X191525000Y-103653072D01*
X191688500Y-103636969D01*
X191845716Y-103589278D01*
X191990608Y-103511831D01*
X192117606Y-103407606D01*
X192206765Y-103298966D01*
X192244463Y-103369494D01*
X192323815Y-103466185D01*
X192420506Y-103545537D01*
X192530820Y-103604502D01*
X192650518Y-103640812D01*
X192775000Y-103653072D01*
X192964250Y-103650000D01*
X193123000Y-103491250D01*
X193123000Y-102742000D01*
X193377000Y-102742000D01*
X193377000Y-103491250D01*
X193535750Y-103650000D01*
X193725000Y-103653072D01*
X193849482Y-103640812D01*
X193969180Y-103604502D01*
X194079494Y-103545537D01*
X194176185Y-103466185D01*
X194255537Y-103369494D01*
X194314502Y-103259180D01*
X194350812Y-103139482D01*
X194363072Y-103015000D01*
X194360000Y-102900750D01*
X194201250Y-102742000D01*
X193377000Y-102742000D01*
X193123000Y-102742000D01*
X193103000Y-102742000D01*
X193103000Y-102488000D01*
X193123000Y-102488000D01*
X193123000Y-102468000D01*
X193377000Y-102468000D01*
X193377000Y-102488000D01*
X194201250Y-102488000D01*
X194360000Y-102329250D01*
X194363072Y-102215000D01*
X194350812Y-102090518D01*
X194314502Y-101970820D01*
X194255537Y-101860506D01*
X194176185Y-101763815D01*
X194138137Y-101732590D01*
X194221831Y-101630608D01*
X194299278Y-101485716D01*
X194346969Y-101328500D01*
X194363072Y-101165000D01*
X194363072Y-100765000D01*
X194346969Y-100601500D01*
X194299278Y-100444284D01*
X194221831Y-100299392D01*
X194185300Y-100254879D01*
X194185300Y-98144821D01*
X199673106Y-98144821D01*
X199674207Y-98167471D01*
X199724207Y-98527471D01*
X199726792Y-98540802D01*
X199806792Y-98860802D01*
X199812339Y-98877800D01*
X199942339Y-99197800D01*
X199949550Y-99212688D01*
X200159550Y-99582688D01*
X200168820Y-99596757D01*
X200388820Y-99886757D01*
X200404304Y-99903730D01*
X200754304Y-100223730D01*
X200771324Y-100236830D01*
X201191324Y-100506830D01*
X201211914Y-100517544D01*
X201651914Y-100697544D01*
X201671854Y-100703842D01*
X202111854Y-100803842D01*
X202137178Y-100806969D01*
X202587178Y-100816969D01*
X202602332Y-100816400D01*
X203012332Y-100776400D01*
X203032177Y-100772856D01*
X203452177Y-100662856D01*
X203473220Y-100655311D01*
X203863220Y-100475311D01*
X203878183Y-100467145D01*
X204208183Y-100257145D01*
X204225283Y-100244105D01*
X204545283Y-99954105D01*
X204558293Y-99940421D01*
X204828293Y-99610421D01*
X204839700Y-99593992D01*
X205049700Y-99233992D01*
X205058465Y-99215771D01*
X205228465Y-98775771D01*
X205234757Y-98753763D01*
X205314757Y-98333763D01*
X205316971Y-98312702D01*
X205326971Y-97842702D01*
X205325523Y-97820689D01*
X205265523Y-97430689D01*
X205263425Y-97420079D01*
X205183425Y-97090079D01*
X205176352Y-97069096D01*
X205036352Y-96749096D01*
X205030864Y-96738047D01*
X204840864Y-96398047D01*
X204827564Y-96378697D01*
X204577564Y-96078697D01*
X204566761Y-96067256D01*
X204256761Y-95777256D01*
X204239214Y-95763518D01*
X203839214Y-95503518D01*
X203820747Y-95493580D01*
X203430747Y-95323580D01*
X203410802Y-95316792D01*
X202930802Y-95196792D01*
X202906041Y-95193144D01*
X202486041Y-95173144D01*
X202470732Y-95173339D01*
X202060732Y-95203339D01*
X202037942Y-95207113D01*
X201577942Y-95327113D01*
X201556440Y-95334846D01*
X201126440Y-95534846D01*
X201109553Y-95544330D01*
X200992728Y-95622213D01*
X200876008Y-95690300D01*
X200867170Y-95695958D01*
X200767170Y-95765958D01*
X200754571Y-95776028D01*
X200649010Y-95871992D01*
X200573800Y-95928400D01*
X200560197Y-95940197D01*
X200440197Y-96060197D01*
X200430830Y-96070664D01*
X200353140Y-96167777D01*
X200265602Y-96265041D01*
X200261707Y-96269579D01*
X200171707Y-96379579D01*
X200158982Y-96398323D01*
X200108982Y-96488323D01*
X200106408Y-96493204D01*
X200018593Y-96668834D01*
X199931098Y-96814659D01*
X199919517Y-96839839D01*
X199879939Y-96958573D01*
X199780399Y-97237285D01*
X199775724Y-97253837D01*
X199695724Y-97633837D01*
X199693106Y-97654821D01*
X199673106Y-98144821D01*
X194185300Y-98144821D01*
X194185300Y-94560522D01*
X194188976Y-94523199D01*
X194185300Y-94485876D01*
X194185300Y-94485867D01*
X194174303Y-94374214D01*
X194130846Y-94230953D01*
X194097463Y-94168499D01*
X194060274Y-94098923D01*
X193989099Y-94012197D01*
X193965301Y-93983199D01*
X193936302Y-93959401D01*
X193662186Y-93685284D01*
X193689502Y-93634180D01*
X193725812Y-93514482D01*
X193738072Y-93390000D01*
X193738072Y-91690000D01*
X193725812Y-91565518D01*
X193689502Y-91445820D01*
X193630537Y-91335506D01*
X193551185Y-91238815D01*
X193454494Y-91159463D01*
X193344180Y-91100498D01*
X193224482Y-91064188D01*
X193100000Y-91051928D01*
X191400000Y-91051928D01*
X191275518Y-91064188D01*
X191155820Y-91100498D01*
X191045506Y-91159463D01*
X190948815Y-91238815D01*
X190869463Y-91335506D01*
X190810498Y-91445820D01*
X190774188Y-91565518D01*
X190761928Y-91690000D01*
X190761928Y-93390000D01*
X190774188Y-93514482D01*
X190810498Y-93634180D01*
X190869463Y-93744494D01*
X190948815Y-93841185D01*
X191045506Y-93920537D01*
X191155820Y-93979502D01*
X191228380Y-94001513D01*
X191096525Y-94133368D01*
X190934010Y-94376589D01*
X190822068Y-94646842D01*
X190765000Y-94933740D01*
X190765000Y-95226260D01*
X190822068Y-95513158D01*
X190934010Y-95783411D01*
X191096525Y-96026632D01*
X191303368Y-96233475D01*
X191477760Y-96350000D01*
X191303368Y-96466525D01*
X191096525Y-96673368D01*
X190934010Y-96916589D01*
X190822068Y-97186842D01*
X190765000Y-97473740D01*
X190765000Y-97766260D01*
X190822068Y-98053158D01*
X190934010Y-98323411D01*
X191096525Y-98566632D01*
X191250196Y-98720303D01*
X190738998Y-99231501D01*
X190710000Y-99255299D01*
X190686202Y-99284297D01*
X190686201Y-99284298D01*
X190615026Y-99371024D01*
X190544454Y-99503054D01*
X190500998Y-99646315D01*
X190486324Y-99795300D01*
X190490001Y-99832632D01*
X190490001Y-100084083D01*
X190382394Y-100172394D01*
X190278169Y-100299392D01*
X190200722Y-100444284D01*
X190153031Y-100601500D01*
X190136928Y-100765000D01*
X190136928Y-101082200D01*
X189363072Y-101082200D01*
X189363072Y-100765000D01*
X189346969Y-100601500D01*
X189299278Y-100444284D01*
X189221831Y-100299392D01*
X189185300Y-100254879D01*
X189185300Y-94560522D01*
X189188976Y-94523199D01*
X189185300Y-94485876D01*
X189185300Y-94485867D01*
X189174303Y-94374214D01*
X189130846Y-94230953D01*
X189097463Y-94168499D01*
X189060274Y-94098923D01*
X188989099Y-94012197D01*
X188965301Y-93983199D01*
X188936302Y-93959401D01*
X188662186Y-93685284D01*
X188689502Y-93634180D01*
X188725812Y-93514482D01*
X188738072Y-93390000D01*
X188738072Y-91690000D01*
X188725812Y-91565518D01*
X188689502Y-91445820D01*
X188630537Y-91335506D01*
X188551185Y-91238815D01*
X188454494Y-91159463D01*
X188344180Y-91100498D01*
X188224482Y-91064188D01*
X188100000Y-91051928D01*
X186400000Y-91051928D01*
X186275518Y-91064188D01*
X186155820Y-91100498D01*
X186045506Y-91159463D01*
X185948815Y-91238815D01*
X185869463Y-91335506D01*
X185810498Y-91445820D01*
X185774188Y-91565518D01*
X185761928Y-91690000D01*
X185761928Y-93390000D01*
X185774188Y-93514482D01*
X185810498Y-93634180D01*
X185869463Y-93744494D01*
X185948815Y-93841185D01*
X186045506Y-93920537D01*
X186155820Y-93979502D01*
X186228380Y-94001513D01*
X186096525Y-94133368D01*
X185934010Y-94376589D01*
X185822068Y-94646842D01*
X185765000Y-94933740D01*
X185765000Y-95226260D01*
X185822068Y-95513158D01*
X185934010Y-95783411D01*
X186096525Y-96026632D01*
X186303368Y-96233475D01*
X186477760Y-96350000D01*
X186303368Y-96466525D01*
X186096525Y-96673368D01*
X185934010Y-96916589D01*
X185822068Y-97186842D01*
X185765000Y-97473740D01*
X185765000Y-97766260D01*
X185822068Y-98053158D01*
X185934010Y-98323411D01*
X186096525Y-98566632D01*
X186250196Y-98720303D01*
X185738998Y-99231501D01*
X185710000Y-99255299D01*
X185686202Y-99284297D01*
X185686201Y-99284298D01*
X185615026Y-99371024D01*
X185544454Y-99503054D01*
X185500998Y-99646315D01*
X185486324Y-99795300D01*
X185490001Y-99832632D01*
X185490001Y-100084083D01*
X185382394Y-100172394D01*
X185278169Y-100299392D01*
X185200722Y-100444284D01*
X185153031Y-100601500D01*
X185136928Y-100765000D01*
X185136928Y-101124000D01*
X184363072Y-101124000D01*
X184363072Y-100765000D01*
X184346969Y-100601500D01*
X184299278Y-100444284D01*
X184221831Y-100299392D01*
X184185300Y-100254879D01*
X184185300Y-94560522D01*
X184188976Y-94523199D01*
X184185300Y-94485876D01*
X184185300Y-94485867D01*
X184174303Y-94374214D01*
X184130846Y-94230953D01*
X184097463Y-94168499D01*
X184060274Y-94098923D01*
X183989099Y-94012197D01*
X183965301Y-93983199D01*
X183936302Y-93959401D01*
X183662186Y-93685284D01*
X183689502Y-93634180D01*
X183725812Y-93514482D01*
X183738072Y-93390000D01*
X183738072Y-91690000D01*
X183725812Y-91565518D01*
X183689502Y-91445820D01*
X183630537Y-91335506D01*
X183551185Y-91238815D01*
X183454494Y-91159463D01*
X183344180Y-91100498D01*
X183224482Y-91064188D01*
X183100000Y-91051928D01*
X181400000Y-91051928D01*
X181275518Y-91064188D01*
X181155820Y-91100498D01*
X181045506Y-91159463D01*
X180948815Y-91238815D01*
X180869463Y-91335506D01*
X180810498Y-91445820D01*
X180774188Y-91565518D01*
X180761928Y-91690000D01*
X180761928Y-93390000D01*
X180774188Y-93514482D01*
X180810498Y-93634180D01*
X180869463Y-93744494D01*
X180948815Y-93841185D01*
X181045506Y-93920537D01*
X181155820Y-93979502D01*
X181228380Y-94001513D01*
X181096525Y-94133368D01*
X180934010Y-94376589D01*
X180822068Y-94646842D01*
X180765000Y-94933740D01*
X180765000Y-95226260D01*
X180822068Y-95513158D01*
X180934010Y-95783411D01*
X181096525Y-96026632D01*
X181303368Y-96233475D01*
X181477760Y-96350000D01*
X181303368Y-96466525D01*
X181096525Y-96673368D01*
X180934010Y-96916589D01*
X180822068Y-97186842D01*
X180765000Y-97473740D01*
X180765000Y-97766260D01*
X180822068Y-98053158D01*
X180934010Y-98323411D01*
X181096525Y-98566632D01*
X181250196Y-98720303D01*
X180738998Y-99231501D01*
X180710000Y-99255299D01*
X180686202Y-99284297D01*
X180686201Y-99284298D01*
X180615026Y-99371024D01*
X180544454Y-99503054D01*
X180500998Y-99646315D01*
X180486324Y-99795300D01*
X180490001Y-99832632D01*
X180490001Y-100084083D01*
X180382394Y-100172394D01*
X180278169Y-100299392D01*
X180200722Y-100444284D01*
X180153031Y-100601500D01*
X180136928Y-100765000D01*
X180136928Y-101082200D01*
X179363072Y-101082200D01*
X179363072Y-100765000D01*
X179346969Y-100601500D01*
X179299278Y-100444284D01*
X179221831Y-100299392D01*
X179185300Y-100254879D01*
X179185300Y-94560522D01*
X179188976Y-94523199D01*
X179185300Y-94485876D01*
X179185300Y-94485867D01*
X179174303Y-94374214D01*
X179130846Y-94230953D01*
X179097463Y-94168499D01*
X179060274Y-94098923D01*
X178989099Y-94012197D01*
X178965301Y-93983199D01*
X178936302Y-93959401D01*
X178662186Y-93685284D01*
X178689502Y-93634180D01*
X178725812Y-93514482D01*
X178738072Y-93390000D01*
X178738072Y-91690000D01*
X178725812Y-91565518D01*
X178689502Y-91445820D01*
X178630537Y-91335506D01*
X178551185Y-91238815D01*
X178454494Y-91159463D01*
X178344180Y-91100498D01*
X178224482Y-91064188D01*
X178100000Y-91051928D01*
X176400000Y-91051928D01*
X176275518Y-91064188D01*
X176155820Y-91100498D01*
X176045506Y-91159463D01*
X175948815Y-91238815D01*
X175869463Y-91335506D01*
X175810498Y-91445820D01*
X175774188Y-91565518D01*
X175761928Y-91690000D01*
X175761928Y-93390000D01*
X175774188Y-93514482D01*
X175810498Y-93634180D01*
X175869463Y-93744494D01*
X175948815Y-93841185D01*
X176045506Y-93920537D01*
X176155820Y-93979502D01*
X176228380Y-94001513D01*
X176096525Y-94133368D01*
X175934010Y-94376589D01*
X175822068Y-94646842D01*
X175765000Y-94933740D01*
X175765000Y-95226260D01*
X175822068Y-95513158D01*
X175934010Y-95783411D01*
X176096525Y-96026632D01*
X176303368Y-96233475D01*
X176477760Y-96350000D01*
X176303368Y-96466525D01*
X176096525Y-96673368D01*
X175934010Y-96916589D01*
X175822068Y-97186842D01*
X175765000Y-97473740D01*
X175765000Y-97766260D01*
X175822068Y-98053158D01*
X175934010Y-98323411D01*
X176096525Y-98566632D01*
X176250196Y-98720303D01*
X175738998Y-99231501D01*
X175710000Y-99255299D01*
X175686202Y-99284297D01*
X175686201Y-99284298D01*
X175615026Y-99371024D01*
X175544454Y-99503054D01*
X175500998Y-99646315D01*
X175486324Y-99795300D01*
X175490001Y-99832632D01*
X175490001Y-100084083D01*
X175382394Y-100172394D01*
X175278169Y-100299392D01*
X175200722Y-100444284D01*
X175189868Y-100480066D01*
X174738804Y-100029003D01*
X174715001Y-99999999D01*
X174599276Y-99905026D01*
X174467247Y-99834454D01*
X174323986Y-99790997D01*
X174212333Y-99780000D01*
X174212322Y-99780000D01*
X174175000Y-99776324D01*
X174137678Y-99780000D01*
X167507100Y-99780000D01*
X167507100Y-91162322D01*
X167510776Y-91124999D01*
X167507100Y-91087676D01*
X167507100Y-91087667D01*
X167496103Y-90976014D01*
X167452646Y-90832753D01*
X167448663Y-90825301D01*
X167382074Y-90700723D01*
X167310899Y-90613997D01*
X167287101Y-90584999D01*
X167258104Y-90561202D01*
X166717531Y-90020630D01*
X166855990Y-89813411D01*
X166967932Y-89543158D01*
X167025000Y-89256260D01*
X167025000Y-88963740D01*
X166967932Y-88676842D01*
X166959962Y-88657600D01*
X191561099Y-88657600D01*
X197019200Y-94115702D01*
X197042999Y-94144701D01*
X197158724Y-94239674D01*
X197290753Y-94310246D01*
X197434014Y-94353703D01*
X197545667Y-94364700D01*
X197545676Y-94364700D01*
X197582999Y-94368376D01*
X197620322Y-94364700D01*
X216328516Y-94364700D01*
X216275000Y-94633740D01*
X216275000Y-94926260D01*
X216332068Y-95213158D01*
X216444010Y-95483411D01*
X216606525Y-95726632D01*
X216813368Y-95933475D01*
X216987760Y-96050000D01*
X216813368Y-96166525D01*
X216606525Y-96373368D01*
X216444010Y-96616589D01*
X216332068Y-96886842D01*
X216275000Y-97173740D01*
X216275000Y-97466260D01*
X216332068Y-97753158D01*
X216444010Y-98023411D01*
X216606525Y-98266632D01*
X216813368Y-98473475D01*
X216987760Y-98590000D01*
X216813368Y-98706525D01*
X216606525Y-98913368D01*
X216444010Y-99156589D01*
X216332068Y-99426842D01*
X216275000Y-99713740D01*
X216275000Y-100006260D01*
X216332068Y-100293158D01*
X216444010Y-100563411D01*
X216606525Y-100806632D01*
X216813368Y-101013475D01*
X216987760Y-101130000D01*
X216813368Y-101246525D01*
X216606525Y-101453368D01*
X216444010Y-101696589D01*
X216332068Y-101966842D01*
X216275000Y-102253740D01*
X216275000Y-102546260D01*
X216328516Y-102815300D01*
X203307322Y-102815300D01*
X203269999Y-102811624D01*
X203232676Y-102815300D01*
X203232667Y-102815300D01*
X203121014Y-102826297D01*
X202977753Y-102869754D01*
X202845724Y-102940326D01*
X202729999Y-103035299D01*
X202706201Y-103064297D01*
X186329093Y-119441406D01*
X186323291Y-119430552D01*
X186084494Y-119365112D01*
X185307606Y-120142000D01*
X185321749Y-120156143D01*
X185142144Y-120335748D01*
X185128001Y-120321605D01*
X185113859Y-120335748D01*
X184934254Y-120156143D01*
X184948396Y-120142000D01*
X184171508Y-119365112D01*
X183932711Y-119430552D01*
X183816881Y-119677412D01*
X183751437Y-119942126D01*
X183738894Y-120214521D01*
X183777487Y-120469300D01*
X183030103Y-120469300D01*
X182983572Y-120422769D01*
X183012300Y-120278342D01*
X183012300Y-120005658D01*
X182959102Y-119738215D01*
X182854751Y-119486288D01*
X182703256Y-119259560D01*
X182629203Y-119185507D01*
X184351113Y-119185507D01*
X185128001Y-119962395D01*
X185904889Y-119185507D01*
X185839449Y-118946710D01*
X185592589Y-118830880D01*
X185327875Y-118765436D01*
X185055480Y-118752893D01*
X184785872Y-118793732D01*
X184529412Y-118886385D01*
X184416553Y-118946710D01*
X184351113Y-119185507D01*
X182629203Y-119185507D01*
X182510440Y-119066744D01*
X182283712Y-118915249D01*
X182031785Y-118810898D01*
X181764342Y-118757700D01*
X181491658Y-118757700D01*
X181224215Y-118810898D01*
X180972288Y-118915249D01*
X180745560Y-119066744D01*
X180552744Y-119259560D01*
X180401249Y-119486288D01*
X180296898Y-119738215D01*
X180243700Y-120005658D01*
X180243700Y-120278342D01*
X180296898Y-120545785D01*
X180401249Y-120797712D01*
X180552744Y-121024440D01*
X180745560Y-121217256D01*
X180972288Y-121368751D01*
X181224215Y-121473102D01*
X181491658Y-121526300D01*
X181764342Y-121526300D01*
X181908769Y-121497572D01*
X182151505Y-121740308D01*
X182175299Y-121769301D01*
X182204292Y-121793095D01*
X182204296Y-121793099D01*
X182257152Y-121836476D01*
X182291024Y-121864274D01*
X182423053Y-121934846D01*
X182566314Y-121978303D01*
X182677967Y-121989300D01*
X182677976Y-121989300D01*
X182715299Y-121992976D01*
X182752622Y-121989300D01*
X185578678Y-121989300D01*
X185616000Y-121992976D01*
X185653322Y-121989300D01*
X185653333Y-121989300D01*
X185764986Y-121978303D01*
X185908247Y-121934846D01*
X186040276Y-121864274D01*
X186156001Y-121769301D01*
X186179804Y-121740297D01*
X187319574Y-120600527D01*
X187401250Y-120797712D01*
X187552745Y-121024440D01*
X187745561Y-121217256D01*
X187972289Y-121368751D01*
X188224216Y-121473102D01*
X188491659Y-121526300D01*
X188764343Y-121526300D01*
X189031786Y-121473102D01*
X189283713Y-121368751D01*
X189510441Y-121217256D01*
X189703257Y-121024440D01*
X189854752Y-120797712D01*
X189959103Y-120545785D01*
X190012301Y-120278342D01*
X190012301Y-120005658D01*
X189983572Y-119861229D01*
X190055602Y-119789200D01*
X190786758Y-119789200D01*
X190743702Y-120005658D01*
X190743702Y-120278342D01*
X190796900Y-120545785D01*
X190901251Y-120797712D01*
X191052746Y-121024440D01*
X191245562Y-121217256D01*
X191472290Y-121368751D01*
X191724217Y-121473102D01*
X191991660Y-121526300D01*
X192264344Y-121526300D01*
X192531787Y-121473102D01*
X192783714Y-121368751D01*
X193010442Y-121217256D01*
X193129205Y-121098493D01*
X197851112Y-121098493D01*
X197916552Y-121337290D01*
X198163412Y-121453120D01*
X198428126Y-121518564D01*
X198700521Y-121531107D01*
X198970129Y-121490268D01*
X199226589Y-121397615D01*
X199339448Y-121337290D01*
X199404888Y-121098493D01*
X198628000Y-120321605D01*
X197851112Y-121098493D01*
X193129205Y-121098493D01*
X193203258Y-121024440D01*
X193354753Y-120797712D01*
X193459104Y-120545785D01*
X193512302Y-120278342D01*
X193512302Y-120005658D01*
X193469246Y-119789200D01*
X197289243Y-119789200D01*
X197251436Y-119942126D01*
X197238893Y-120214521D01*
X197279732Y-120484129D01*
X197372385Y-120740589D01*
X197432710Y-120853448D01*
X197671507Y-120918888D01*
X198448395Y-120142000D01*
X198434253Y-120127858D01*
X198613858Y-119948253D01*
X198628000Y-119962395D01*
X198642143Y-119948253D01*
X198821748Y-120127858D01*
X198807605Y-120142000D01*
X199584493Y-120918888D01*
X199823290Y-120853448D01*
X199939120Y-120606588D01*
X200004564Y-120341874D01*
X200017107Y-120069479D01*
X199976268Y-119799871D01*
X199972413Y-119789200D01*
X200700399Y-119789200D01*
X200772430Y-119861231D01*
X200743701Y-120005658D01*
X200743701Y-120278342D01*
X200796899Y-120545785D01*
X200901250Y-120797712D01*
X201052745Y-121024440D01*
X201245561Y-121217256D01*
X201472289Y-121368751D01*
X201724216Y-121473102D01*
X201991659Y-121526300D01*
X202264343Y-121526300D01*
X202531786Y-121473102D01*
X202783713Y-121368751D01*
X203010441Y-121217256D01*
X203203257Y-121024440D01*
X203354752Y-120797712D01*
X203459103Y-120545785D01*
X203512301Y-120278342D01*
X203512301Y-120005658D01*
X204243701Y-120005658D01*
X204243701Y-120278342D01*
X204296899Y-120545785D01*
X204401250Y-120797712D01*
X204552745Y-121024440D01*
X204745561Y-121217256D01*
X204972289Y-121368751D01*
X205224216Y-121473102D01*
X205491659Y-121526300D01*
X205764343Y-121526300D01*
X206031786Y-121473102D01*
X206283713Y-121368751D01*
X206510441Y-121217256D01*
X206629204Y-121098493D01*
X208351114Y-121098493D01*
X208416554Y-121337290D01*
X208663414Y-121453120D01*
X208928128Y-121518564D01*
X209200523Y-121531107D01*
X209470131Y-121490268D01*
X209726591Y-121397615D01*
X209839450Y-121337290D01*
X209904890Y-121098493D01*
X209128002Y-120321605D01*
X208351114Y-121098493D01*
X206629204Y-121098493D01*
X206703257Y-121024440D01*
X206854752Y-120797712D01*
X206959103Y-120545785D01*
X207012301Y-120278342D01*
X207012301Y-120214521D01*
X207738895Y-120214521D01*
X207779734Y-120484129D01*
X207872387Y-120740589D01*
X207932712Y-120853448D01*
X208171509Y-120918888D01*
X208948397Y-120142000D01*
X209307607Y-120142000D01*
X210084495Y-120918888D01*
X210323292Y-120853448D01*
X210439122Y-120606588D01*
X210504566Y-120341874D01*
X210517109Y-120069479D01*
X210476270Y-119799871D01*
X210383617Y-119543411D01*
X210323292Y-119430552D01*
X210084495Y-119365112D01*
X209307607Y-120142000D01*
X208948397Y-120142000D01*
X208171509Y-119365112D01*
X207932712Y-119430552D01*
X207816882Y-119677412D01*
X207751438Y-119942126D01*
X207738895Y-120214521D01*
X207012301Y-120214521D01*
X207012301Y-120005658D01*
X206959103Y-119738215D01*
X206854752Y-119486288D01*
X206703257Y-119259560D01*
X206629204Y-119185507D01*
X208351114Y-119185507D01*
X209128002Y-119962395D01*
X209885397Y-119205000D01*
X213684928Y-119205000D01*
X213688000Y-119369250D01*
X213846750Y-119528000D01*
X214671000Y-119528000D01*
X214671000Y-118728750D01*
X214512250Y-118570000D01*
X214323000Y-118566928D01*
X214198518Y-118579188D01*
X214078820Y-118615498D01*
X213968506Y-118674463D01*
X213871815Y-118753815D01*
X213792463Y-118850506D01*
X213733498Y-118960820D01*
X213697188Y-119080518D01*
X213684928Y-119205000D01*
X209885397Y-119205000D01*
X209904890Y-119185507D01*
X209839450Y-118946710D01*
X209592590Y-118830880D01*
X209327876Y-118765436D01*
X209055481Y-118752893D01*
X208785873Y-118793732D01*
X208529413Y-118886385D01*
X208416554Y-118946710D01*
X208351114Y-119185507D01*
X206629204Y-119185507D01*
X206510441Y-119066744D01*
X206283713Y-118915249D01*
X206031786Y-118810898D01*
X205764343Y-118757700D01*
X205491659Y-118757700D01*
X205224216Y-118810898D01*
X204972289Y-118915249D01*
X204745561Y-119066744D01*
X204552745Y-119259560D01*
X204401250Y-119486288D01*
X204296899Y-119738215D01*
X204243701Y-120005658D01*
X203512301Y-120005658D01*
X203483572Y-119861229D01*
X205295202Y-118049600D01*
X217420000Y-118049600D01*
X217420000Y-118207000D01*
X217400000Y-118207000D01*
X217400000Y-119021250D01*
X217558750Y-119180000D01*
X218193000Y-119183072D01*
X218317482Y-119170812D01*
X218437180Y-119134502D01*
X218530301Y-119084727D01*
X218530301Y-119293198D01*
X218476815Y-119346684D01*
X218437180Y-119325498D01*
X218317482Y-119289188D01*
X218193000Y-119276928D01*
X216353000Y-119276928D01*
X216228518Y-119289188D01*
X216108820Y-119325498D01*
X215998506Y-119384463D01*
X215901815Y-119463815D01*
X215849142Y-119527998D01*
X215749252Y-119527998D01*
X215908000Y-119369250D01*
X215911072Y-119205000D01*
X215898812Y-119080518D01*
X215862502Y-118960820D01*
X215843281Y-118924861D01*
X215901815Y-118996185D01*
X215998506Y-119075537D01*
X216108820Y-119134502D01*
X216228518Y-119170812D01*
X216353000Y-119183072D01*
X216987250Y-119180000D01*
X217146000Y-119021250D01*
X217146000Y-118207000D01*
X215876750Y-118207000D01*
X215718000Y-118365750D01*
X215714928Y-118545000D01*
X215727188Y-118669482D01*
X215763498Y-118789180D01*
X215782719Y-118825139D01*
X215724185Y-118753815D01*
X215627494Y-118674463D01*
X215517180Y-118615498D01*
X215397482Y-118579188D01*
X215273000Y-118566928D01*
X215083750Y-118570000D01*
X214925000Y-118728750D01*
X214925000Y-119528000D01*
X214945000Y-119528000D01*
X214945000Y-119782000D01*
X214925000Y-119782000D01*
X214925000Y-119802000D01*
X214671000Y-119802000D01*
X214671000Y-119782000D01*
X213846750Y-119782000D01*
X213688000Y-119940750D01*
X213684928Y-120105000D01*
X213697188Y-120229482D01*
X213733498Y-120349180D01*
X213792463Y-120459494D01*
X213828700Y-120503649D01*
X213750625Y-120649717D01*
X213701512Y-120811623D01*
X213684928Y-120980000D01*
X213684928Y-121430000D01*
X213701512Y-121598377D01*
X213750625Y-121760283D01*
X213830382Y-121909497D01*
X213937716Y-122040284D01*
X214068503Y-122147618D01*
X214217717Y-122227375D01*
X214379623Y-122276488D01*
X214548000Y-122293072D01*
X214811270Y-122293072D01*
X215271215Y-122753017D01*
X215278697Y-122828986D01*
X215322154Y-122972247D01*
X215392726Y-123104276D01*
X215479023Y-123209429D01*
X215487699Y-123220001D01*
X215603424Y-123314974D01*
X215735453Y-123385546D01*
X215766607Y-123394996D01*
X215822463Y-123499494D01*
X215901815Y-123596185D01*
X215998506Y-123675537D01*
X216108820Y-123734502D01*
X216228518Y-123770812D01*
X216353000Y-123783072D01*
X218193000Y-123783072D01*
X218317482Y-123770812D01*
X218437180Y-123734502D01*
X218476815Y-123713316D01*
X219913501Y-125150003D01*
X219937299Y-125179001D01*
X220053024Y-125273974D01*
X220129777Y-125315000D01*
X163533504Y-125315000D01*
X162953869Y-125258166D01*
X162428538Y-125099559D01*
X161944022Y-124841937D01*
X161518769Y-124495111D01*
X161168983Y-124072292D01*
X160907985Y-123589588D01*
X160745713Y-123065371D01*
X160685000Y-122487729D01*
X160685000Y-75809658D01*
X162939698Y-75809658D01*
X162939698Y-76082342D01*
X162992896Y-76349785D01*
X163097247Y-76601712D01*
X163248742Y-76828440D01*
X163441558Y-77021256D01*
X163668286Y-77172751D01*
X163920213Y-77277102D01*
X164187656Y-77330300D01*
X164460340Y-77330300D01*
X164727783Y-77277102D01*
X164979710Y-77172751D01*
X165206438Y-77021256D01*
X165399254Y-76828440D01*
X165550749Y-76601712D01*
X165655100Y-76349785D01*
X165708298Y-76082342D01*
X165708298Y-75809658D01*
X166439699Y-75809658D01*
X166439699Y-76082342D01*
X166492897Y-76349785D01*
X166597248Y-76601712D01*
X166748743Y-76828440D01*
X166941559Y-77021256D01*
X167168287Y-77172751D01*
X167420214Y-77277102D01*
X167687657Y-77330300D01*
X167960341Y-77330300D01*
X168227784Y-77277102D01*
X168479711Y-77172751D01*
X168706439Y-77021256D01*
X168825202Y-76902493D01*
X170547111Y-76902493D01*
X170612551Y-77141290D01*
X170859411Y-77257120D01*
X171124125Y-77322564D01*
X171396520Y-77335107D01*
X171666128Y-77294268D01*
X171922588Y-77201615D01*
X172035447Y-77141290D01*
X172100887Y-76902493D01*
X171323999Y-76125605D01*
X170547111Y-76902493D01*
X168825202Y-76902493D01*
X168899255Y-76828440D01*
X169050750Y-76601712D01*
X169155101Y-76349785D01*
X169208299Y-76082342D01*
X169208299Y-76018521D01*
X169934892Y-76018521D01*
X169975731Y-76288129D01*
X170068384Y-76544589D01*
X170128709Y-76657448D01*
X170367506Y-76722888D01*
X171144394Y-75946000D01*
X171503604Y-75946000D01*
X172280492Y-76722888D01*
X172519289Y-76657448D01*
X172635119Y-76410588D01*
X172700563Y-76145874D01*
X172713106Y-75873479D01*
X172703439Y-75809658D01*
X173439700Y-75809658D01*
X173439700Y-76082342D01*
X173492898Y-76349785D01*
X173597249Y-76601712D01*
X173748744Y-76828440D01*
X173941560Y-77021256D01*
X174168288Y-77172751D01*
X174420215Y-77277102D01*
X174687658Y-77330300D01*
X174960342Y-77330300D01*
X175227785Y-77277102D01*
X175479712Y-77172751D01*
X175706440Y-77021256D01*
X175899256Y-76828440D01*
X176050751Y-76601712D01*
X176155102Y-76349785D01*
X176208300Y-76082342D01*
X176208300Y-75809658D01*
X176155102Y-75542215D01*
X176050751Y-75290288D01*
X175899256Y-75063560D01*
X175706440Y-74870744D01*
X175479712Y-74719249D01*
X175227785Y-74614898D01*
X174960342Y-74561700D01*
X174687658Y-74561700D01*
X174420215Y-74614898D01*
X174168288Y-74719249D01*
X173941560Y-74870744D01*
X173748744Y-75063560D01*
X173597249Y-75290288D01*
X173492898Y-75542215D01*
X173439700Y-75809658D01*
X172703439Y-75809658D01*
X172672267Y-75603871D01*
X172579614Y-75347411D01*
X172519289Y-75234552D01*
X172280492Y-75169112D01*
X171503604Y-75946000D01*
X171144394Y-75946000D01*
X170367506Y-75169112D01*
X170128709Y-75234552D01*
X170012879Y-75481412D01*
X169947435Y-75746126D01*
X169934892Y-76018521D01*
X169208299Y-76018521D01*
X169208299Y-75809658D01*
X169155101Y-75542215D01*
X169050750Y-75290288D01*
X168899255Y-75063560D01*
X168825202Y-74989507D01*
X170547111Y-74989507D01*
X171323999Y-75766395D01*
X172100887Y-74989507D01*
X172035447Y-74750710D01*
X171788587Y-74634880D01*
X171523873Y-74569436D01*
X171251478Y-74556893D01*
X170981870Y-74597732D01*
X170725410Y-74690385D01*
X170612551Y-74750710D01*
X170547111Y-74989507D01*
X168825202Y-74989507D01*
X168706439Y-74870744D01*
X168479711Y-74719249D01*
X168227784Y-74614898D01*
X167960341Y-74561700D01*
X167687657Y-74561700D01*
X167420214Y-74614898D01*
X167168287Y-74719249D01*
X166941559Y-74870744D01*
X166748743Y-75063560D01*
X166597248Y-75290288D01*
X166492897Y-75542215D01*
X166439699Y-75809658D01*
X165708298Y-75809658D01*
X165655100Y-75542215D01*
X165550749Y-75290288D01*
X165399254Y-75063560D01*
X165206438Y-74870744D01*
X164979710Y-74719249D01*
X164727783Y-74614898D01*
X164460340Y-74561700D01*
X164187656Y-74561700D01*
X163920213Y-74614898D01*
X163668286Y-74719249D01*
X163441558Y-74870744D01*
X163248742Y-75063560D01*
X163097247Y-75290288D01*
X162992896Y-75542215D01*
X162939698Y-75809658D01*
X160685000Y-75809658D01*
X160685000Y-73533504D01*
X160741834Y-72953869D01*
X160900441Y-72428538D01*
X161158064Y-71944020D01*
X161504889Y-71518769D01*
X161927711Y-71168980D01*
X162410414Y-70907984D01*
X162934628Y-70745713D01*
X163512271Y-70685000D01*
X241466496Y-70685000D01*
X242046131Y-70741834D01*
G37*
%TD.AperFunction*%
D16*
X221884928Y-121975000D02*
X221897188Y-122099482D01*
X221933498Y-122219180D01*
X221992463Y-122329494D01*
X222071815Y-122426185D01*
X222168506Y-122505537D01*
X222278820Y-122564502D01*
X222398518Y-122600812D01*
X222523000Y-122613072D01*
X224363000Y-122613072D01*
X224487482Y-122600812D01*
X224607180Y-122564502D01*
X224717494Y-122505537D01*
X224814185Y-122426185D01*
X224893537Y-122329494D01*
X224952502Y-122219180D01*
X224988812Y-122099482D01*
X225001072Y-121975000D01*
X225001072Y-119447873D01*
X225669928Y-120116729D01*
X225669928Y-120805001D01*
X225686992Y-120978255D01*
X225737528Y-121144851D01*
X225819595Y-121298387D01*
X225930038Y-121432962D01*
X226064613Y-121543405D01*
X226218149Y-121625472D01*
X226248001Y-121634527D01*
X226248000Y-122277762D01*
X226189623Y-122283512D01*
X226027717Y-122332625D01*
X225878503Y-122412382D01*
X225747716Y-122519716D01*
X225640382Y-122650503D01*
X225560625Y-122799717D01*
X225511512Y-122961623D01*
X225494928Y-123130000D01*
X225494928Y-123630000D01*
X225511512Y-123798377D01*
X225535968Y-123879000D01*
X220792102Y-123879000D01*
X219082104Y-122169003D01*
X219058301Y-122139999D01*
X218942576Y-122045026D01*
X218810547Y-121974454D01*
X218779393Y-121965004D01*
X218723537Y-121860506D01*
X218644185Y-121763815D01*
X218547494Y-121684463D01*
X218437180Y-121625498D01*
X218317482Y-121589188D01*
X218193000Y-121576928D01*
X216353000Y-121576928D01*
X216254438Y-121586635D01*
X216094822Y-121427020D01*
X216108820Y-121434502D01*
X216228518Y-121470812D01*
X216353000Y-121483072D01*
X218193000Y-121483072D01*
X218317482Y-121470812D01*
X218437180Y-121434502D01*
X218547494Y-121375537D01*
X218644185Y-121296185D01*
X218723537Y-121199494D01*
X218779393Y-121094996D01*
X218810547Y-121085546D01*
X218942576Y-121014974D01*
X219058301Y-120920001D01*
X219082103Y-120890998D01*
X219801302Y-120171799D01*
X219830301Y-120148001D01*
X219925274Y-120032276D01*
X219995846Y-119900247D01*
X220039303Y-119756986D01*
X220050300Y-119645333D01*
X220050300Y-119645323D01*
X220053976Y-119608000D01*
X220050300Y-119570677D01*
X220050300Y-119219700D01*
X221884928Y-119219700D01*
X221884928Y-121975000D01*
%TA.AperFunction,Conductor*%
D17*
G36*
X221884928Y-121975000D02*
G01*
X221897188Y-122099482D01*
X221933498Y-122219180D01*
X221992463Y-122329494D01*
X222071815Y-122426185D01*
X222168506Y-122505537D01*
X222278820Y-122564502D01*
X222398518Y-122600812D01*
X222523000Y-122613072D01*
X224363000Y-122613072D01*
X224487482Y-122600812D01*
X224607180Y-122564502D01*
X224717494Y-122505537D01*
X224814185Y-122426185D01*
X224893537Y-122329494D01*
X224952502Y-122219180D01*
X224988812Y-122099482D01*
X225001072Y-121975000D01*
X225001072Y-119447873D01*
X225669928Y-120116729D01*
X225669928Y-120805001D01*
X225686992Y-120978255D01*
X225737528Y-121144851D01*
X225819595Y-121298387D01*
X225930038Y-121432962D01*
X226064613Y-121543405D01*
X226218149Y-121625472D01*
X226248001Y-121634527D01*
X226248000Y-122277762D01*
X226189623Y-122283512D01*
X226027717Y-122332625D01*
X225878503Y-122412382D01*
X225747716Y-122519716D01*
X225640382Y-122650503D01*
X225560625Y-122799717D01*
X225511512Y-122961623D01*
X225494928Y-123130000D01*
X225494928Y-123630000D01*
X225511512Y-123798377D01*
X225535968Y-123879000D01*
X220792102Y-123879000D01*
X219082104Y-122169003D01*
X219058301Y-122139999D01*
X218942576Y-122045026D01*
X218810547Y-121974454D01*
X218779393Y-121965004D01*
X218723537Y-121860506D01*
X218644185Y-121763815D01*
X218547494Y-121684463D01*
X218437180Y-121625498D01*
X218317482Y-121589188D01*
X218193000Y-121576928D01*
X216353000Y-121576928D01*
X216254438Y-121586635D01*
X216094822Y-121427020D01*
X216108820Y-121434502D01*
X216228518Y-121470812D01*
X216353000Y-121483072D01*
X218193000Y-121483072D01*
X218317482Y-121470812D01*
X218437180Y-121434502D01*
X218547494Y-121375537D01*
X218644185Y-121296185D01*
X218723537Y-121199494D01*
X218779393Y-121094996D01*
X218810547Y-121085546D01*
X218942576Y-121014974D01*
X219058301Y-120920001D01*
X219082103Y-120890998D01*
X219801302Y-120171799D01*
X219830301Y-120148001D01*
X219925274Y-120032276D01*
X219995846Y-119900247D01*
X220039303Y-119756986D01*
X220050300Y-119645333D01*
X220050300Y-119645323D01*
X220053976Y-119608000D01*
X220050300Y-119570677D01*
X220050300Y-119219700D01*
X221884928Y-119219700D01*
X221884928Y-121975000D01*
G37*
%TD.AperFunction*%
D16*
X231259898Y-95290000D02*
X231044623Y-95290000D01*
X231007300Y-95286324D01*
X230969977Y-95290000D01*
X230969967Y-95290000D01*
X230858314Y-95300997D01*
X230715053Y-95344454D01*
X230583024Y-95415026D01*
X230467299Y-95509999D01*
X230443501Y-95538997D01*
X227922303Y-98060196D01*
X227768632Y-97906525D01*
X227594240Y-97790000D01*
X227768632Y-97673475D01*
X227975475Y-97466632D01*
X228137990Y-97223411D01*
X228249932Y-96953158D01*
X228307000Y-96666260D01*
X228307000Y-96373740D01*
X228249932Y-96086842D01*
X228137990Y-95816589D01*
X227975475Y-95573368D01*
X227768632Y-95366525D01*
X227525411Y-95204010D01*
X227255158Y-95092068D01*
X226968260Y-95035000D01*
X226675740Y-95035000D01*
X226388842Y-95092068D01*
X226118589Y-95204010D01*
X225875368Y-95366525D01*
X225668525Y-95573368D01*
X225550900Y-95749406D01*
X225379588Y-95519731D01*
X225163355Y-95324822D01*
X224913252Y-95175843D01*
X224638891Y-95078519D01*
X224409000Y-95199186D01*
X224409000Y-96393000D01*
X224429000Y-96393000D01*
X224429000Y-96647000D01*
X224409000Y-96647000D01*
X224409000Y-96667000D01*
X224155000Y-96667000D01*
X224155000Y-96647000D01*
X222961845Y-96647000D01*
X222840524Y-96876890D01*
X222885175Y-97024099D01*
X223010359Y-97286920D01*
X223184412Y-97520269D01*
X223400645Y-97715178D01*
X223517534Y-97784805D01*
X223335368Y-97906525D01*
X223128525Y-98113368D01*
X222966010Y-98356589D01*
X222854068Y-98626842D01*
X222797000Y-98913740D01*
X222797000Y-99206260D01*
X222854068Y-99493158D01*
X222966010Y-99763411D01*
X223128525Y-100006632D01*
X223335368Y-100213475D01*
X223509760Y-100330000D01*
X223335368Y-100446525D01*
X223128525Y-100653368D01*
X222966010Y-100896589D01*
X222854068Y-101166842D01*
X222797000Y-101453740D01*
X222797000Y-101746260D01*
X222854068Y-102033158D01*
X222966010Y-102303411D01*
X223128525Y-102546632D01*
X223335368Y-102753475D01*
X223427896Y-102815300D01*
X219191484Y-102815300D01*
X219245000Y-102546260D01*
X219245000Y-102253740D01*
X219187932Y-101966842D01*
X219075990Y-101696589D01*
X218913475Y-101453368D01*
X218706632Y-101246525D01*
X218532240Y-101130000D01*
X218706632Y-101013475D01*
X218913475Y-100806632D01*
X219075990Y-100563411D01*
X219187932Y-100293158D01*
X219245000Y-100006260D01*
X219245000Y-99713740D01*
X219187932Y-99426842D01*
X219075990Y-99156589D01*
X218913475Y-98913368D01*
X218706632Y-98706525D01*
X218532240Y-98590000D01*
X218706632Y-98473475D01*
X218913475Y-98266632D01*
X219075990Y-98023411D01*
X219187932Y-97753158D01*
X219245000Y-97466260D01*
X219245000Y-97173740D01*
X219187932Y-96886842D01*
X219075990Y-96616589D01*
X218913475Y-96373368D01*
X218706632Y-96166525D01*
X218701522Y-96163110D01*
X222840524Y-96163110D01*
X222961845Y-96393000D01*
X224155000Y-96393000D01*
X224155000Y-95199186D01*
X223925109Y-95078519D01*
X223650748Y-95175843D01*
X223400645Y-95324822D01*
X223184412Y-95519731D01*
X223010359Y-95753080D01*
X222885175Y-96015901D01*
X222840524Y-96163110D01*
X218701522Y-96163110D01*
X218532240Y-96050000D01*
X218706632Y-95933475D01*
X218913475Y-95726632D01*
X219075990Y-95483411D01*
X219187932Y-95213158D01*
X219245000Y-94926260D01*
X219245000Y-94633740D01*
X219191484Y-94364700D01*
X230334599Y-94364700D01*
X231259898Y-95290000D01*
%TA.AperFunction,Conductor*%
D17*
G36*
X231259898Y-95290000D02*
G01*
X231044623Y-95290000D01*
X231007300Y-95286324D01*
X230969977Y-95290000D01*
X230969967Y-95290000D01*
X230858314Y-95300997D01*
X230715053Y-95344454D01*
X230583024Y-95415026D01*
X230467299Y-95509999D01*
X230443501Y-95538997D01*
X227922303Y-98060196D01*
X227768632Y-97906525D01*
X227594240Y-97790000D01*
X227768632Y-97673475D01*
X227975475Y-97466632D01*
X228137990Y-97223411D01*
X228249932Y-96953158D01*
X228307000Y-96666260D01*
X228307000Y-96373740D01*
X228249932Y-96086842D01*
X228137990Y-95816589D01*
X227975475Y-95573368D01*
X227768632Y-95366525D01*
X227525411Y-95204010D01*
X227255158Y-95092068D01*
X226968260Y-95035000D01*
X226675740Y-95035000D01*
X226388842Y-95092068D01*
X226118589Y-95204010D01*
X225875368Y-95366525D01*
X225668525Y-95573368D01*
X225550900Y-95749406D01*
X225379588Y-95519731D01*
X225163355Y-95324822D01*
X224913252Y-95175843D01*
X224638891Y-95078519D01*
X224409000Y-95199186D01*
X224409000Y-96393000D01*
X224429000Y-96393000D01*
X224429000Y-96647000D01*
X224409000Y-96647000D01*
X224409000Y-96667000D01*
X224155000Y-96667000D01*
X224155000Y-96647000D01*
X222961845Y-96647000D01*
X222840524Y-96876890D01*
X222885175Y-97024099D01*
X223010359Y-97286920D01*
X223184412Y-97520269D01*
X223400645Y-97715178D01*
X223517534Y-97784805D01*
X223335368Y-97906525D01*
X223128525Y-98113368D01*
X222966010Y-98356589D01*
X222854068Y-98626842D01*
X222797000Y-98913740D01*
X222797000Y-99206260D01*
X222854068Y-99493158D01*
X222966010Y-99763411D01*
X223128525Y-100006632D01*
X223335368Y-100213475D01*
X223509760Y-100330000D01*
X223335368Y-100446525D01*
X223128525Y-100653368D01*
X222966010Y-100896589D01*
X222854068Y-101166842D01*
X222797000Y-101453740D01*
X222797000Y-101746260D01*
X222854068Y-102033158D01*
X222966010Y-102303411D01*
X223128525Y-102546632D01*
X223335368Y-102753475D01*
X223427896Y-102815300D01*
X219191484Y-102815300D01*
X219245000Y-102546260D01*
X219245000Y-102253740D01*
X219187932Y-101966842D01*
X219075990Y-101696589D01*
X218913475Y-101453368D01*
X218706632Y-101246525D01*
X218532240Y-101130000D01*
X218706632Y-101013475D01*
X218913475Y-100806632D01*
X219075990Y-100563411D01*
X219187932Y-100293158D01*
X219245000Y-100006260D01*
X219245000Y-99713740D01*
X219187932Y-99426842D01*
X219075990Y-99156589D01*
X218913475Y-98913368D01*
X218706632Y-98706525D01*
X218532240Y-98590000D01*
X218706632Y-98473475D01*
X218913475Y-98266632D01*
X219075990Y-98023411D01*
X219187932Y-97753158D01*
X219245000Y-97466260D01*
X219245000Y-97173740D01*
X219187932Y-96886842D01*
X219075990Y-96616589D01*
X218913475Y-96373368D01*
X218706632Y-96166525D01*
X218701522Y-96163110D01*
X222840524Y-96163110D01*
X222961845Y-96393000D01*
X224155000Y-96393000D01*
X224155000Y-95199186D01*
X223925109Y-95078519D01*
X223650748Y-95175843D01*
X223400645Y-95324822D01*
X223184412Y-95519731D01*
X223010359Y-95753080D01*
X222885175Y-96015901D01*
X222840524Y-96163110D01*
X218701522Y-96163110D01*
X218532240Y-96050000D01*
X218706632Y-95933475D01*
X218913475Y-95726632D01*
X219075990Y-95483411D01*
X219187932Y-95213158D01*
X219245000Y-94926260D01*
X219245000Y-94633740D01*
X219191484Y-94364700D01*
X230334599Y-94364700D01*
X231259898Y-95290000D01*
G37*
%TD.AperFunction*%
D16*
X165667000Y-91523000D02*
X165687000Y-91523000D01*
X165687000Y-91777000D01*
X165667000Y-91777000D01*
X165667000Y-91797000D01*
X165413000Y-91797000D01*
X165413000Y-91777000D01*
X165393000Y-91777000D01*
X165393000Y-91523000D01*
X165413000Y-91523000D01*
X165413000Y-91503000D01*
X165667000Y-91503000D01*
X165667000Y-91523000D01*
%TA.AperFunction,Conductor*%
D17*
G36*
X165667000Y-91523000D02*
G01*
X165687000Y-91523000D01*
X165687000Y-91777000D01*
X165667000Y-91777000D01*
X165667000Y-91797000D01*
X165413000Y-91797000D01*
X165413000Y-91777000D01*
X165393000Y-91777000D01*
X165393000Y-91523000D01*
X165413000Y-91523000D01*
X165413000Y-91503000D01*
X165667000Y-91503000D01*
X165667000Y-91523000D01*
G37*
%TD.AperFunction*%
%TD*%
M02*
