%TF.GenerationSoftware,KiCad,Pcbnew,(5.1.10)-1*%
%TF.CreationDate,2022-02-02T21:42:12-05:00*%
%TF.ProjectId,RevA,52657641-2e6b-4696-9361-645f70636258,rev?*%
%TF.SameCoordinates,Original*%
%TF.FileFunction,Legend,Top*%
%TF.FilePolarity,Positive*%
%FSLAX46Y46*%
G04 Gerber Fmt 4.6, Leading zero omitted, Abs format (unit mm)*
G04 Created by KiCad (PCBNEW (5.1.10)-1) date 2022-02-02 21:42:12*
%MOMM*%
%LPD*%
G01*
G04 APERTURE LIST*
%ADD10C,0.170000*%
%ADD11C,0.300000*%
%ADD12C,0.120000*%
%ADD13C,0.150000*%
G04 APERTURE END LIST*
D10*
X167885761Y-86137714D02*
X167885761Y-86852000D01*
X168838142Y-86923428D01*
X168742904Y-86852000D01*
X168647666Y-86709142D01*
X168647666Y-86352000D01*
X168742904Y-86209142D01*
X168838142Y-86137714D01*
X169028619Y-86066285D01*
X169504809Y-86066285D01*
X169695285Y-86137714D01*
X169790523Y-86209142D01*
X169885761Y-86352000D01*
X169885761Y-86709142D01*
X169790523Y-86852000D01*
X169695285Y-86923428D01*
X167885761Y-85637714D02*
X169885761Y-85137714D01*
X167885761Y-84637714D01*
X173055761Y-86959142D02*
X171055761Y-86959142D01*
X171055761Y-86602000D01*
X171151000Y-86387714D01*
X171341476Y-86244857D01*
X171531952Y-86173428D01*
X171912904Y-86102000D01*
X172198619Y-86102000D01*
X172579571Y-86173428D01*
X172770047Y-86244857D01*
X172960523Y-86387714D01*
X173055761Y-86602000D01*
X173055761Y-86959142D01*
X171055761Y-85173428D02*
X171055761Y-85030571D01*
X171151000Y-84887714D01*
X171246238Y-84816285D01*
X171436714Y-84744857D01*
X171817666Y-84673428D01*
X172293857Y-84673428D01*
X172674809Y-84744857D01*
X172865285Y-84816285D01*
X172960523Y-84887714D01*
X173055761Y-85030571D01*
X173055761Y-85173428D01*
X172960523Y-85316285D01*
X172865285Y-85387714D01*
X172674809Y-85459142D01*
X172293857Y-85530571D01*
X171817666Y-85530571D01*
X171436714Y-85459142D01*
X171246238Y-85387714D01*
X171151000Y-85316285D01*
X171055761Y-85173428D01*
X174321000Y-86994857D02*
X174225761Y-87137714D01*
X174225761Y-87352000D01*
X174321000Y-87566285D01*
X174511476Y-87709142D01*
X174701952Y-87780571D01*
X175082904Y-87852000D01*
X175368619Y-87852000D01*
X175749571Y-87780571D01*
X175940047Y-87709142D01*
X176130523Y-87566285D01*
X176225761Y-87352000D01*
X176225761Y-87209142D01*
X176130523Y-86994857D01*
X176035285Y-86923428D01*
X175368619Y-86923428D01*
X175368619Y-87209142D01*
X176225761Y-86280571D02*
X174225761Y-86280571D01*
X176225761Y-85423428D01*
X174225761Y-85423428D01*
X176225761Y-84709142D02*
X174225761Y-84709142D01*
X174225761Y-84352000D01*
X174321000Y-84137714D01*
X174511476Y-83994857D01*
X174701952Y-83923428D01*
X175082904Y-83852000D01*
X175368619Y-83852000D01*
X175749571Y-83923428D01*
X175940047Y-83994857D01*
X176130523Y-84137714D01*
X176225761Y-84352000D01*
X176225761Y-84709142D01*
X177395761Y-86137714D02*
X177395761Y-86852000D01*
X178348142Y-86923428D01*
X178252904Y-86852000D01*
X178157666Y-86709142D01*
X178157666Y-86352000D01*
X178252904Y-86209142D01*
X178348142Y-86137714D01*
X178538619Y-86066285D01*
X179014809Y-86066285D01*
X179205285Y-86137714D01*
X179300523Y-86209142D01*
X179395761Y-86352000D01*
X179395761Y-86709142D01*
X179300523Y-86852000D01*
X179205285Y-86923428D01*
X177395761Y-85637714D02*
X179395761Y-85137714D01*
X177395761Y-84637714D01*
X184109761Y-86959142D02*
X182109761Y-86959142D01*
X182109761Y-86602000D01*
X182205000Y-86387714D01*
X182395476Y-86244857D01*
X182585952Y-86173428D01*
X182966904Y-86102000D01*
X183252619Y-86102000D01*
X183633571Y-86173428D01*
X183824047Y-86244857D01*
X184014523Y-86387714D01*
X184109761Y-86602000D01*
X184109761Y-86959142D01*
X184109761Y-84673428D02*
X184109761Y-85530571D01*
X184109761Y-85102000D02*
X182109761Y-85102000D01*
X182395476Y-85244857D01*
X182585952Y-85387714D01*
X182681190Y-85530571D01*
X185375000Y-86994857D02*
X185279761Y-87137714D01*
X185279761Y-87352000D01*
X185375000Y-87566285D01*
X185565476Y-87709142D01*
X185755952Y-87780571D01*
X186136904Y-87852000D01*
X186422619Y-87852000D01*
X186803571Y-87780571D01*
X186994047Y-87709142D01*
X187184523Y-87566285D01*
X187279761Y-87352000D01*
X187279761Y-87209142D01*
X187184523Y-86994857D01*
X187089285Y-86923428D01*
X186422619Y-86923428D01*
X186422619Y-87209142D01*
X187279761Y-86280571D02*
X185279761Y-86280571D01*
X187279761Y-85423428D01*
X185279761Y-85423428D01*
X187279761Y-84709142D02*
X185279761Y-84709142D01*
X185279761Y-84352000D01*
X185375000Y-84137714D01*
X185565476Y-83994857D01*
X185755952Y-83923428D01*
X186136904Y-83852000D01*
X186422619Y-83852000D01*
X186803571Y-83923428D01*
X186994047Y-83994857D01*
X187184523Y-84137714D01*
X187279761Y-84352000D01*
X187279761Y-84709142D01*
X188449761Y-86137714D02*
X188449761Y-86852000D01*
X189402142Y-86923428D01*
X189306904Y-86852000D01*
X189211666Y-86709142D01*
X189211666Y-86352000D01*
X189306904Y-86209142D01*
X189402142Y-86137714D01*
X189592619Y-86066285D01*
X190068809Y-86066285D01*
X190259285Y-86137714D01*
X190354523Y-86209142D01*
X190449761Y-86352000D01*
X190449761Y-86709142D01*
X190354523Y-86852000D01*
X190259285Y-86923428D01*
X188449761Y-85637714D02*
X190449761Y-85137714D01*
X188449761Y-84637714D01*
X193619761Y-86959142D02*
X191619761Y-86959142D01*
X191619761Y-86602000D01*
X191715000Y-86387714D01*
X191905476Y-86244857D01*
X192095952Y-86173428D01*
X192476904Y-86102000D01*
X192762619Y-86102000D01*
X193143571Y-86173428D01*
X193334047Y-86244857D01*
X193524523Y-86387714D01*
X193619761Y-86602000D01*
X193619761Y-86959142D01*
X191810238Y-85530571D02*
X191715000Y-85459142D01*
X191619761Y-85316285D01*
X191619761Y-84959142D01*
X191715000Y-84816285D01*
X191810238Y-84744857D01*
X192000714Y-84673428D01*
X192191190Y-84673428D01*
X192476904Y-84744857D01*
X193619761Y-85602000D01*
X193619761Y-84673428D01*
X197953000Y-87502857D02*
X197857761Y-87645714D01*
X197857761Y-87860000D01*
X197953000Y-88074285D01*
X198143476Y-88217142D01*
X198333952Y-88288571D01*
X198714904Y-88360000D01*
X199000619Y-88360000D01*
X199381571Y-88288571D01*
X199572047Y-88217142D01*
X199762523Y-88074285D01*
X199857761Y-87860000D01*
X199857761Y-87717142D01*
X199762523Y-87502857D01*
X199667285Y-87431428D01*
X199000619Y-87431428D01*
X199000619Y-87717142D01*
X199857761Y-86788571D02*
X197857761Y-86788571D01*
X199857761Y-85931428D01*
X197857761Y-85931428D01*
X199857761Y-85217142D02*
X197857761Y-85217142D01*
X197857761Y-84860000D01*
X197953000Y-84645714D01*
X198143476Y-84502857D01*
X198333952Y-84431428D01*
X198714904Y-84360000D01*
X199000619Y-84360000D01*
X199381571Y-84431428D01*
X199572047Y-84502857D01*
X199762523Y-84645714D01*
X199857761Y-84860000D01*
X199857761Y-85217142D01*
X201027761Y-86645714D02*
X201027761Y-87360000D01*
X201980142Y-87431428D01*
X201884904Y-87360000D01*
X201789666Y-87217142D01*
X201789666Y-86860000D01*
X201884904Y-86717142D01*
X201980142Y-86645714D01*
X202170619Y-86574285D01*
X202646809Y-86574285D01*
X202837285Y-86645714D01*
X202932523Y-86717142D01*
X203027761Y-86860000D01*
X203027761Y-87217142D01*
X202932523Y-87360000D01*
X202837285Y-87431428D01*
X201027761Y-86145714D02*
X203027761Y-85645714D01*
X201027761Y-85145714D01*
X206197761Y-87467142D02*
X204197761Y-87467142D01*
X204197761Y-87110000D01*
X204293000Y-86895714D01*
X204483476Y-86752857D01*
X204673952Y-86681428D01*
X205054904Y-86610000D01*
X205340619Y-86610000D01*
X205721571Y-86681428D01*
X205912047Y-86752857D01*
X206102523Y-86895714D01*
X206197761Y-87110000D01*
X206197761Y-87467142D01*
X204197761Y-86110000D02*
X204197761Y-85181428D01*
X204959666Y-85681428D01*
X204959666Y-85467142D01*
X205054904Y-85324285D01*
X205150142Y-85252857D01*
X205340619Y-85181428D01*
X205816809Y-85181428D01*
X206007285Y-85252857D01*
X206102523Y-85324285D01*
X206197761Y-85467142D01*
X206197761Y-85895714D01*
X206102523Y-86038571D01*
X206007285Y-86110000D01*
X207463000Y-87502857D02*
X207367761Y-87645714D01*
X207367761Y-87860000D01*
X207463000Y-88074285D01*
X207653476Y-88217142D01*
X207843952Y-88288571D01*
X208224904Y-88360000D01*
X208510619Y-88360000D01*
X208891571Y-88288571D01*
X209082047Y-88217142D01*
X209272523Y-88074285D01*
X209367761Y-87860000D01*
X209367761Y-87717142D01*
X209272523Y-87502857D01*
X209177285Y-87431428D01*
X208510619Y-87431428D01*
X208510619Y-87717142D01*
X209367761Y-86788571D02*
X207367761Y-86788571D01*
X209367761Y-85931428D01*
X207367761Y-85931428D01*
X209367761Y-85217142D02*
X207367761Y-85217142D01*
X207367761Y-84860000D01*
X207463000Y-84645714D01*
X207653476Y-84502857D01*
X207843952Y-84431428D01*
X208224904Y-84360000D01*
X208510619Y-84360000D01*
X208891571Y-84431428D01*
X209082047Y-84502857D01*
X209272523Y-84645714D01*
X209367761Y-84860000D01*
X209367761Y-85217142D01*
X198461000Y-111378857D02*
X198365761Y-111521714D01*
X198365761Y-111736000D01*
X198461000Y-111950285D01*
X198651476Y-112093142D01*
X198841952Y-112164571D01*
X199222904Y-112236000D01*
X199508619Y-112236000D01*
X199889571Y-112164571D01*
X200080047Y-112093142D01*
X200270523Y-111950285D01*
X200365761Y-111736000D01*
X200365761Y-111593142D01*
X200270523Y-111378857D01*
X200175285Y-111307428D01*
X199508619Y-111307428D01*
X199508619Y-111593142D01*
X200365761Y-110664571D02*
X198365761Y-110664571D01*
X200365761Y-109807428D01*
X198365761Y-109807428D01*
X200365761Y-109093142D02*
X198365761Y-109093142D01*
X198365761Y-108736000D01*
X198461000Y-108521714D01*
X198651476Y-108378857D01*
X198841952Y-108307428D01*
X199222904Y-108236000D01*
X199508619Y-108236000D01*
X199889571Y-108307428D01*
X200080047Y-108378857D01*
X200270523Y-108521714D01*
X200365761Y-108736000D01*
X200365761Y-109093142D01*
X201535761Y-110521714D02*
X201535761Y-111236000D01*
X202488142Y-111307428D01*
X202392904Y-111236000D01*
X202297666Y-111093142D01*
X202297666Y-110736000D01*
X202392904Y-110593142D01*
X202488142Y-110521714D01*
X202678619Y-110450285D01*
X203154809Y-110450285D01*
X203345285Y-110521714D01*
X203440523Y-110593142D01*
X203535761Y-110736000D01*
X203535761Y-111093142D01*
X203440523Y-111236000D01*
X203345285Y-111307428D01*
X201535761Y-110021714D02*
X203535761Y-109521714D01*
X201535761Y-109021714D01*
X206134333Y-111307428D02*
X206134333Y-110593142D01*
X206705761Y-111450285D02*
X204705761Y-110950285D01*
X206705761Y-110450285D01*
X204705761Y-110093142D02*
X204705761Y-109164571D01*
X205467666Y-109664571D01*
X205467666Y-109450285D01*
X205562904Y-109307428D01*
X205658142Y-109236000D01*
X205848619Y-109164571D01*
X206324809Y-109164571D01*
X206515285Y-109236000D01*
X206610523Y-109307428D01*
X206705761Y-109450285D01*
X206705761Y-109878857D01*
X206610523Y-110021714D01*
X206515285Y-110093142D01*
X207971000Y-111378857D02*
X207875761Y-111521714D01*
X207875761Y-111736000D01*
X207971000Y-111950285D01*
X208161476Y-112093142D01*
X208351952Y-112164571D01*
X208732904Y-112236000D01*
X209018619Y-112236000D01*
X209399571Y-112164571D01*
X209590047Y-112093142D01*
X209780523Y-111950285D01*
X209875761Y-111736000D01*
X209875761Y-111593142D01*
X209780523Y-111378857D01*
X209685285Y-111307428D01*
X209018619Y-111307428D01*
X209018619Y-111593142D01*
X209875761Y-110664571D02*
X207875761Y-110664571D01*
X209875761Y-109807428D01*
X207875761Y-109807428D01*
X209875761Y-109093142D02*
X207875761Y-109093142D01*
X207875761Y-108736000D01*
X207971000Y-108521714D01*
X208161476Y-108378857D01*
X208351952Y-108307428D01*
X208732904Y-108236000D01*
X209018619Y-108236000D01*
X209399571Y-108307428D01*
X209590047Y-108378857D01*
X209780523Y-108521714D01*
X209875761Y-108736000D01*
X209875761Y-109093142D01*
X183538333Y-110799428D02*
X183538333Y-110085142D01*
X184109761Y-110942285D02*
X182109761Y-110442285D01*
X184109761Y-109942285D01*
X184109761Y-108656571D02*
X184109761Y-109513714D01*
X184109761Y-109085142D02*
X182109761Y-109085142D01*
X182395476Y-109228000D01*
X182585952Y-109370857D01*
X182681190Y-109513714D01*
X185375000Y-110870857D02*
X185279761Y-111013714D01*
X185279761Y-111228000D01*
X185375000Y-111442285D01*
X185565476Y-111585142D01*
X185755952Y-111656571D01*
X186136904Y-111728000D01*
X186422619Y-111728000D01*
X186803571Y-111656571D01*
X186994047Y-111585142D01*
X187184523Y-111442285D01*
X187279761Y-111228000D01*
X187279761Y-111085142D01*
X187184523Y-110870857D01*
X187089285Y-110799428D01*
X186422619Y-110799428D01*
X186422619Y-111085142D01*
X187279761Y-110156571D02*
X185279761Y-110156571D01*
X187279761Y-109299428D01*
X185279761Y-109299428D01*
X187279761Y-108585142D02*
X185279761Y-108585142D01*
X185279761Y-108228000D01*
X185375000Y-108013714D01*
X185565476Y-107870857D01*
X185755952Y-107799428D01*
X186136904Y-107728000D01*
X186422619Y-107728000D01*
X186803571Y-107799428D01*
X186994047Y-107870857D01*
X187184523Y-108013714D01*
X187279761Y-108228000D01*
X187279761Y-108585142D01*
X188449761Y-110013714D02*
X188449761Y-110728000D01*
X189402142Y-110799428D01*
X189306904Y-110728000D01*
X189211666Y-110585142D01*
X189211666Y-110228000D01*
X189306904Y-110085142D01*
X189402142Y-110013714D01*
X189592619Y-109942285D01*
X190068809Y-109942285D01*
X190259285Y-110013714D01*
X190354523Y-110085142D01*
X190449761Y-110228000D01*
X190449761Y-110585142D01*
X190354523Y-110728000D01*
X190259285Y-110799428D01*
X188449761Y-109513714D02*
X190449761Y-109013714D01*
X188449761Y-108513714D01*
X193048333Y-110799428D02*
X193048333Y-110085142D01*
X193619761Y-110942285D02*
X191619761Y-110442285D01*
X193619761Y-109942285D01*
X191810238Y-109513714D02*
X191715000Y-109442285D01*
X191619761Y-109299428D01*
X191619761Y-108942285D01*
X191715000Y-108799428D01*
X191810238Y-108728000D01*
X192000714Y-108656571D01*
X192191190Y-108656571D01*
X192476904Y-108728000D01*
X193619761Y-109585142D01*
X193619761Y-108656571D01*
X167885761Y-110521714D02*
X167885761Y-111236000D01*
X168838142Y-111307428D01*
X168742904Y-111236000D01*
X168647666Y-111093142D01*
X168647666Y-110736000D01*
X168742904Y-110593142D01*
X168838142Y-110521714D01*
X169028619Y-110450285D01*
X169504809Y-110450285D01*
X169695285Y-110521714D01*
X169790523Y-110593142D01*
X169885761Y-110736000D01*
X169885761Y-111093142D01*
X169790523Y-111236000D01*
X169695285Y-111307428D01*
X167885761Y-110021714D02*
X169885761Y-109521714D01*
X167885761Y-109021714D01*
X172484333Y-111307428D02*
X172484333Y-110593142D01*
X173055761Y-111450285D02*
X171055761Y-110950285D01*
X173055761Y-110450285D01*
X171055761Y-109664571D02*
X171055761Y-109521714D01*
X171151000Y-109378857D01*
X171246238Y-109307428D01*
X171436714Y-109236000D01*
X171817666Y-109164571D01*
X172293857Y-109164571D01*
X172674809Y-109236000D01*
X172865285Y-109307428D01*
X172960523Y-109378857D01*
X173055761Y-109521714D01*
X173055761Y-109664571D01*
X172960523Y-109807428D01*
X172865285Y-109878857D01*
X172674809Y-109950285D01*
X172293857Y-110021714D01*
X171817666Y-110021714D01*
X171436714Y-109950285D01*
X171246238Y-109878857D01*
X171151000Y-109807428D01*
X171055761Y-109664571D01*
X174321000Y-111378857D02*
X174225761Y-111521714D01*
X174225761Y-111736000D01*
X174321000Y-111950285D01*
X174511476Y-112093142D01*
X174701952Y-112164571D01*
X175082904Y-112236000D01*
X175368619Y-112236000D01*
X175749571Y-112164571D01*
X175940047Y-112093142D01*
X176130523Y-111950285D01*
X176225761Y-111736000D01*
X176225761Y-111593142D01*
X176130523Y-111378857D01*
X176035285Y-111307428D01*
X175368619Y-111307428D01*
X175368619Y-111593142D01*
X176225761Y-110664571D02*
X174225761Y-110664571D01*
X176225761Y-109807428D01*
X174225761Y-109807428D01*
X176225761Y-109093142D02*
X174225761Y-109093142D01*
X174225761Y-108736000D01*
X174321000Y-108521714D01*
X174511476Y-108378857D01*
X174701952Y-108307428D01*
X175082904Y-108236000D01*
X175368619Y-108236000D01*
X175749571Y-108307428D01*
X175940047Y-108378857D01*
X176130523Y-108521714D01*
X176225761Y-108736000D01*
X176225761Y-109093142D01*
X177395761Y-110521714D02*
X177395761Y-111236000D01*
X178348142Y-111307428D01*
X178252904Y-111236000D01*
X178157666Y-111093142D01*
X178157666Y-110736000D01*
X178252904Y-110593142D01*
X178348142Y-110521714D01*
X178538619Y-110450285D01*
X179014809Y-110450285D01*
X179205285Y-110521714D01*
X179300523Y-110593142D01*
X179395761Y-110736000D01*
X179395761Y-111093142D01*
X179300523Y-111236000D01*
X179205285Y-111307428D01*
X177395761Y-110021714D02*
X179395761Y-109521714D01*
X177395761Y-109021714D01*
D11*
X210466000Y-89745428D02*
X210466000Y-91245428D01*
X210108857Y-91245428D01*
X209894571Y-91174000D01*
X209751714Y-91031142D01*
X209680285Y-90888285D01*
X209608857Y-90602571D01*
X209608857Y-90388285D01*
X209680285Y-90102571D01*
X209751714Y-89959714D01*
X209894571Y-89816857D01*
X210108857Y-89745428D01*
X210466000Y-89745428D01*
X208966000Y-89745428D02*
X208966000Y-90745428D01*
X208966000Y-91245428D02*
X209037428Y-91174000D01*
X208966000Y-91102571D01*
X208894571Y-91174000D01*
X208966000Y-91245428D01*
X208966000Y-91102571D01*
X207608857Y-90745428D02*
X207608857Y-89531142D01*
X207680285Y-89388285D01*
X207751714Y-89316857D01*
X207894571Y-89245428D01*
X208108857Y-89245428D01*
X208251714Y-89316857D01*
X207608857Y-89816857D02*
X207751714Y-89745428D01*
X208037428Y-89745428D01*
X208180285Y-89816857D01*
X208251714Y-89888285D01*
X208323142Y-90031142D01*
X208323142Y-90459714D01*
X208251714Y-90602571D01*
X208180285Y-90674000D01*
X208037428Y-90745428D01*
X207751714Y-90745428D01*
X207608857Y-90674000D01*
X206894571Y-89745428D02*
X206894571Y-90745428D01*
X206894571Y-91245428D02*
X206966000Y-91174000D01*
X206894571Y-91102571D01*
X206823142Y-91174000D01*
X206894571Y-91245428D01*
X206894571Y-91102571D01*
X206394571Y-90745428D02*
X205823142Y-90745428D01*
X206180285Y-91245428D02*
X206180285Y-89959714D01*
X206108857Y-89816857D01*
X205966000Y-89745428D01*
X205823142Y-89745428D01*
X204680285Y-89745428D02*
X204680285Y-90531142D01*
X204751714Y-90674000D01*
X204894571Y-90745428D01*
X205180285Y-90745428D01*
X205323142Y-90674000D01*
X204680285Y-89816857D02*
X204823142Y-89745428D01*
X205180285Y-89745428D01*
X205323142Y-89816857D01*
X205394571Y-89959714D01*
X205394571Y-90102571D01*
X205323142Y-90245428D01*
X205180285Y-90316857D01*
X204823142Y-90316857D01*
X204680285Y-90388285D01*
X203751714Y-89745428D02*
X203894571Y-89816857D01*
X203966000Y-89959714D01*
X203966000Y-91245428D01*
X202037428Y-89745428D02*
X202037428Y-91245428D01*
X201466000Y-91245428D01*
X201323142Y-91174000D01*
X201251714Y-91102571D01*
X201180285Y-90959714D01*
X201180285Y-90745428D01*
X201251714Y-90602571D01*
X201323142Y-90531142D01*
X201466000Y-90459714D01*
X202037428Y-90459714D01*
X200537428Y-89745428D02*
X200537428Y-90745428D01*
X200537428Y-91245428D02*
X200608857Y-91174000D01*
X200537428Y-91102571D01*
X200466000Y-91174000D01*
X200537428Y-91245428D01*
X200537428Y-91102571D01*
X199823142Y-90745428D02*
X199823142Y-89745428D01*
X199823142Y-90602571D02*
X199751714Y-90674000D01*
X199608857Y-90745428D01*
X199394571Y-90745428D01*
X199251714Y-90674000D01*
X199180285Y-90531142D01*
X199180285Y-89745428D01*
X198537428Y-89816857D02*
X198394571Y-89745428D01*
X198108857Y-89745428D01*
X197966000Y-89816857D01*
X197894571Y-89959714D01*
X197894571Y-90031142D01*
X197966000Y-90174000D01*
X198108857Y-90245428D01*
X198323142Y-90245428D01*
X198466000Y-90316857D01*
X198537428Y-90459714D01*
X198537428Y-90531142D01*
X198466000Y-90674000D01*
X198323142Y-90745428D01*
X198108857Y-90745428D01*
X197966000Y-90674000D01*
X198803428Y-104390000D02*
X199517714Y-104390000D01*
X198660571Y-104818571D02*
X199160571Y-103318571D01*
X199660571Y-104818571D01*
X200160571Y-103818571D02*
X200160571Y-104818571D01*
X200160571Y-103961428D02*
X200232000Y-103890000D01*
X200374857Y-103818571D01*
X200589142Y-103818571D01*
X200732000Y-103890000D01*
X200803428Y-104032857D01*
X200803428Y-104818571D01*
X202160571Y-104818571D02*
X202160571Y-104032857D01*
X202089142Y-103890000D01*
X201946285Y-103818571D01*
X201660571Y-103818571D01*
X201517714Y-103890000D01*
X202160571Y-104747142D02*
X202017714Y-104818571D01*
X201660571Y-104818571D01*
X201517714Y-104747142D01*
X201446285Y-104604285D01*
X201446285Y-104461428D01*
X201517714Y-104318571D01*
X201660571Y-104247142D01*
X202017714Y-104247142D01*
X202160571Y-104175714D01*
X203089142Y-104818571D02*
X202946285Y-104747142D01*
X202874857Y-104604285D01*
X202874857Y-103318571D01*
X203874857Y-104818571D02*
X203732000Y-104747142D01*
X203660571Y-104675714D01*
X203589142Y-104532857D01*
X203589142Y-104104285D01*
X203660571Y-103961428D01*
X203732000Y-103890000D01*
X203874857Y-103818571D01*
X204089142Y-103818571D01*
X204232000Y-103890000D01*
X204303428Y-103961428D01*
X204374857Y-104104285D01*
X204374857Y-104532857D01*
X204303428Y-104675714D01*
X204232000Y-104747142D01*
X204089142Y-104818571D01*
X203874857Y-104818571D01*
X205660571Y-103818571D02*
X205660571Y-105032857D01*
X205589142Y-105175714D01*
X205517714Y-105247142D01*
X205374857Y-105318571D01*
X205160571Y-105318571D01*
X205017714Y-105247142D01*
X205660571Y-104747142D02*
X205517714Y-104818571D01*
X205232000Y-104818571D01*
X205089142Y-104747142D01*
X205017714Y-104675714D01*
X204946285Y-104532857D01*
X204946285Y-104104285D01*
X205017714Y-103961428D01*
X205089142Y-103890000D01*
X205232000Y-103818571D01*
X205517714Y-103818571D01*
X205660571Y-103890000D01*
X207517714Y-104818571D02*
X207517714Y-103318571D01*
X208089142Y-103318571D01*
X208232000Y-103390000D01*
X208303428Y-103461428D01*
X208374857Y-103604285D01*
X208374857Y-103818571D01*
X208303428Y-103961428D01*
X208232000Y-104032857D01*
X208089142Y-104104285D01*
X207517714Y-104104285D01*
X209017714Y-104818571D02*
X209017714Y-103818571D01*
X209017714Y-103318571D02*
X208946285Y-103390000D01*
X209017714Y-103461428D01*
X209089142Y-103390000D01*
X209017714Y-103318571D01*
X209017714Y-103461428D01*
X209732000Y-103818571D02*
X209732000Y-104818571D01*
X209732000Y-103961428D02*
X209803428Y-103890000D01*
X209946285Y-103818571D01*
X210160571Y-103818571D01*
X210303428Y-103890000D01*
X210374857Y-104032857D01*
X210374857Y-104818571D01*
X211017714Y-104747142D02*
X211160571Y-104818571D01*
X211446285Y-104818571D01*
X211589142Y-104747142D01*
X211660571Y-104604285D01*
X211660571Y-104532857D01*
X211589142Y-104390000D01*
X211446285Y-104318571D01*
X211232000Y-104318571D01*
X211089142Y-104247142D01*
X211017714Y-104104285D01*
X211017714Y-104032857D01*
X211089142Y-103890000D01*
X211232000Y-103818571D01*
X211446285Y-103818571D01*
X211589142Y-103890000D01*
D12*
%TO.C,C1*%
X214288000Y-120570580D02*
X214288000Y-120289420D01*
X215308000Y-120570580D02*
X215308000Y-120289420D01*
%TO.C,C2*%
X227217420Y-123890000D02*
X227498580Y-123890000D01*
X227217420Y-122870000D02*
X227498580Y-122870000D01*
%TO.C,C3*%
X227217420Y-116870000D02*
X227498580Y-116870000D01*
X227217420Y-117890000D02*
X227498580Y-117890000D01*
%TO.C,C4*%
X226048000Y-121315000D02*
X229958000Y-121315000D01*
X226048000Y-119445000D02*
X226048000Y-121315000D01*
X229958000Y-119445000D02*
X226048000Y-119445000D01*
%TO.C,D1*%
X243458000Y-119063000D02*
X239573000Y-119063000D01*
X239573000Y-119063000D02*
X239573000Y-121333000D01*
X239573000Y-121333000D02*
X243458000Y-121333000D01*
%TO.C,J1*%
X161670000Y-110760000D02*
X166870000Y-110760000D01*
X161670000Y-87840000D02*
X161670000Y-110760000D01*
X166870000Y-85240000D02*
X166870000Y-110760000D01*
X161670000Y-87840000D02*
X164270000Y-87840000D01*
X164270000Y-87840000D02*
X164270000Y-85240000D01*
X164270000Y-85240000D02*
X166870000Y-85240000D01*
X161670000Y-86570000D02*
X161670000Y-85240000D01*
X161670000Y-85240000D02*
X163000000Y-85240000D01*
%TO.C,J2*%
X238170000Y-113300000D02*
X243370000Y-113300000D01*
X238170000Y-85300000D02*
X238170000Y-113300000D01*
X243370000Y-82700000D02*
X243370000Y-113300000D01*
X238170000Y-85300000D02*
X240770000Y-85300000D01*
X240770000Y-85300000D02*
X240770000Y-82700000D01*
X240770000Y-82700000D02*
X243370000Y-82700000D01*
X238170000Y-84030000D02*
X238170000Y-82700000D01*
X238170000Y-82700000D02*
X239500000Y-82700000D01*
%TO.C,J4*%
X175920000Y-91210000D02*
X177250000Y-91210000D01*
X175920000Y-92540000D02*
X175920000Y-91210000D01*
X175920000Y-93810000D02*
X178580000Y-93810000D01*
X178580000Y-93810000D02*
X178580000Y-98950000D01*
X175920000Y-93810000D02*
X175920000Y-98950000D01*
X175920000Y-98950000D02*
X178580000Y-98950000D01*
%TO.C,J6*%
X180920000Y-91210000D02*
X182250000Y-91210000D01*
X180920000Y-92540000D02*
X180920000Y-91210000D01*
X180920000Y-93810000D02*
X183580000Y-93810000D01*
X183580000Y-93810000D02*
X183580000Y-98950000D01*
X180920000Y-93810000D02*
X180920000Y-98950000D01*
X180920000Y-98950000D02*
X183580000Y-98950000D01*
%TO.C,J8*%
X185920000Y-91210000D02*
X187250000Y-91210000D01*
X185920000Y-92540000D02*
X185920000Y-91210000D01*
X185920000Y-93810000D02*
X188580000Y-93810000D01*
X188580000Y-93810000D02*
X188580000Y-98950000D01*
X185920000Y-93810000D02*
X185920000Y-98950000D01*
X185920000Y-98950000D02*
X188580000Y-98950000D01*
%TO.C,J10*%
X190920000Y-91210000D02*
X192250000Y-91210000D01*
X190920000Y-92540000D02*
X190920000Y-91210000D01*
X190920000Y-93810000D02*
X193580000Y-93810000D01*
X193580000Y-93810000D02*
X193580000Y-98950000D01*
X190920000Y-93810000D02*
X190920000Y-98950000D01*
X190920000Y-98950000D02*
X193580000Y-98950000D01*
%TO.C,J11*%
X216430000Y-78270000D02*
X219090000Y-78270000D01*
X216430000Y-78270000D02*
X216430000Y-113890000D01*
X216430000Y-113890000D02*
X219090000Y-113890000D01*
X219090000Y-78270000D02*
X219090000Y-113890000D01*
X219090000Y-75670000D02*
X219090000Y-77000000D01*
X217760000Y-75670000D02*
X219090000Y-75670000D01*
%TO.C,J12*%
X233000000Y-75670000D02*
X234330000Y-75670000D01*
X234330000Y-75670000D02*
X234330000Y-77000000D01*
X234330000Y-78270000D02*
X234330000Y-113890000D01*
X231670000Y-113890000D02*
X234330000Y-113890000D01*
X231670000Y-78270000D02*
X231670000Y-113890000D01*
X231670000Y-78270000D02*
X234330000Y-78270000D01*
%TO.C,J13*%
X228152000Y-95190000D02*
X222952000Y-95190000D01*
X228152000Y-100330000D02*
X228152000Y-95190000D01*
X222952000Y-102930000D02*
X222952000Y-95190000D01*
X228152000Y-100330000D02*
X225552000Y-100330000D01*
X225552000Y-100330000D02*
X225552000Y-102930000D01*
X225552000Y-102930000D02*
X222952000Y-102930000D01*
X228152000Y-101600000D02*
X228152000Y-102930000D01*
X228152000Y-102930000D02*
X226822000Y-102930000D01*
%TO.C,R1*%
X175727500Y-101552742D02*
X175727500Y-102027258D01*
X176772500Y-101552742D02*
X176772500Y-102027258D01*
%TO.C,R2*%
X177727500Y-101552742D02*
X177727500Y-102027258D01*
X178772500Y-101552742D02*
X178772500Y-102027258D01*
%TO.C,R3*%
X181772500Y-101552742D02*
X181772500Y-102027258D01*
X180727500Y-101552742D02*
X180727500Y-102027258D01*
%TO.C,R4*%
X182727500Y-101552742D02*
X182727500Y-102027258D01*
X183772500Y-101552742D02*
X183772500Y-102027258D01*
%TO.C,R5*%
X186772500Y-101552742D02*
X186772500Y-102027258D01*
X185727500Y-101552742D02*
X185727500Y-102027258D01*
%TO.C,R6*%
X187727500Y-101552742D02*
X187727500Y-102027258D01*
X188772500Y-101552742D02*
X188772500Y-102027258D01*
%TO.C,R7*%
X191772500Y-101552742D02*
X191772500Y-102027258D01*
X190727500Y-101552742D02*
X190727500Y-102027258D01*
%TO.C,R8*%
X192727500Y-101552742D02*
X192727500Y-102027258D01*
X193772500Y-101552742D02*
X193772500Y-102027258D01*
%TO.C,R9*%
X237120742Y-119675500D02*
X237595258Y-119675500D01*
X237120742Y-120720500D02*
X237595258Y-120720500D01*
%TO.C,J3*%
X194451000Y-71119002D02*
X178697000Y-71119002D01*
X178697000Y-71119002D02*
X178697000Y-83373001D01*
X178697000Y-83373001D02*
X194451000Y-83373001D01*
X194451000Y-83373001D02*
X194451000Y-71119002D01*
X195467000Y-75946000D02*
G75*
G03*
X195467000Y-75946000I-381000J0D01*
G01*
%TO.C,J5*%
X178467000Y-75946000D02*
G75*
G03*
X178467000Y-75946000I-381000J0D01*
G01*
X177451000Y-83373001D02*
X177451000Y-71119002D01*
X161697000Y-83373001D02*
X177451000Y-83373001D01*
X161697000Y-71119002D02*
X161697000Y-83373001D01*
X177451000Y-71119002D02*
X161697000Y-71119002D01*
%TO.C,J7*%
X211451000Y-71119002D02*
X195697000Y-71119002D01*
X195697000Y-71119002D02*
X195697000Y-83373001D01*
X195697000Y-83373001D02*
X211451000Y-83373001D01*
X211451000Y-83373001D02*
X211451000Y-71119002D01*
X212467000Y-75946000D02*
G75*
G03*
X212467000Y-75946000I-381000J0D01*
G01*
%TO.C,J9*%
X161747000Y-120142000D02*
G75*
G03*
X161747000Y-120142000I-381000J0D01*
G01*
X162001000Y-112714999D02*
X162001000Y-124968998D01*
X177755000Y-112714999D02*
X162001000Y-112714999D01*
X177755000Y-124968998D02*
X177755000Y-112714999D01*
X162001000Y-124968998D02*
X177755000Y-124968998D01*
%TO.C,J14*%
X195747000Y-120142000D02*
G75*
G03*
X195747000Y-120142000I-381000J0D01*
G01*
X196001000Y-112714999D02*
X196001000Y-124968998D01*
X211755000Y-112714999D02*
X196001000Y-112714999D01*
X211755000Y-124968998D02*
X211755000Y-112714999D01*
X196001000Y-124968998D02*
X211755000Y-124968998D01*
%TO.C,J16*%
X178747000Y-120142000D02*
G75*
G03*
X178747000Y-120142000I-381000J0D01*
G01*
X179001000Y-112714999D02*
X179001000Y-124968998D01*
X194755000Y-112714999D02*
X179001000Y-112714999D01*
X194755000Y-124968998D02*
X194755000Y-112714999D01*
X179001000Y-124968998D02*
X194755000Y-124968998D01*
%TO.C,C1*%
D13*
X213725142Y-120596666D02*
X213772761Y-120644285D01*
X213820380Y-120787142D01*
X213820380Y-120882380D01*
X213772761Y-121025238D01*
X213677523Y-121120476D01*
X213582285Y-121168095D01*
X213391809Y-121215714D01*
X213248952Y-121215714D01*
X213058476Y-121168095D01*
X212963238Y-121120476D01*
X212868000Y-121025238D01*
X212820380Y-120882380D01*
X212820380Y-120787142D01*
X212868000Y-120644285D01*
X212915619Y-120596666D01*
X213820380Y-119644285D02*
X213820380Y-120215714D01*
X213820380Y-119930000D02*
X212820380Y-119930000D01*
X212963238Y-120025238D01*
X213058476Y-120120476D01*
X213106095Y-120215714D01*
%TO.C,C2*%
X227191333Y-122307142D02*
X227143714Y-122354761D01*
X227000857Y-122402380D01*
X226905619Y-122402380D01*
X226762761Y-122354761D01*
X226667523Y-122259523D01*
X226619904Y-122164285D01*
X226572285Y-121973809D01*
X226572285Y-121830952D01*
X226619904Y-121640476D01*
X226667523Y-121545238D01*
X226762761Y-121450000D01*
X226905619Y-121402380D01*
X227000857Y-121402380D01*
X227143714Y-121450000D01*
X227191333Y-121497619D01*
X227572285Y-121497619D02*
X227619904Y-121450000D01*
X227715142Y-121402380D01*
X227953238Y-121402380D01*
X228048476Y-121450000D01*
X228096095Y-121497619D01*
X228143714Y-121592857D01*
X228143714Y-121688095D01*
X228096095Y-121830952D01*
X227524666Y-122402380D01*
X228143714Y-122402380D01*
%TO.C,C3*%
X227191333Y-116307142D02*
X227143714Y-116354761D01*
X227000857Y-116402380D01*
X226905619Y-116402380D01*
X226762761Y-116354761D01*
X226667523Y-116259523D01*
X226619904Y-116164285D01*
X226572285Y-115973809D01*
X226572285Y-115830952D01*
X226619904Y-115640476D01*
X226667523Y-115545238D01*
X226762761Y-115450000D01*
X226905619Y-115402380D01*
X227000857Y-115402380D01*
X227143714Y-115450000D01*
X227191333Y-115497619D01*
X227524666Y-115402380D02*
X228143714Y-115402380D01*
X227810380Y-115783333D01*
X227953238Y-115783333D01*
X228048476Y-115830952D01*
X228096095Y-115878571D01*
X228143714Y-115973809D01*
X228143714Y-116211904D01*
X228096095Y-116307142D01*
X228048476Y-116354761D01*
X227953238Y-116402380D01*
X227667523Y-116402380D01*
X227572285Y-116354761D01*
X227524666Y-116307142D01*
%TO.C,C4*%
X228191333Y-118987142D02*
X228143714Y-119034761D01*
X228000857Y-119082380D01*
X227905619Y-119082380D01*
X227762761Y-119034761D01*
X227667523Y-118939523D01*
X227619904Y-118844285D01*
X227572285Y-118653809D01*
X227572285Y-118510952D01*
X227619904Y-118320476D01*
X227667523Y-118225238D01*
X227762761Y-118130000D01*
X227905619Y-118082380D01*
X228000857Y-118082380D01*
X228143714Y-118130000D01*
X228191333Y-118177619D01*
X229048476Y-118415714D02*
X229048476Y-119082380D01*
X228810380Y-118034761D02*
X228572285Y-118749047D01*
X229191333Y-118749047D01*
%TO.C,D1*%
X241119904Y-118830380D02*
X241119904Y-117830380D01*
X241358000Y-117830380D01*
X241500857Y-117878000D01*
X241596095Y-117973238D01*
X241643714Y-118068476D01*
X241691333Y-118258952D01*
X241691333Y-118401809D01*
X241643714Y-118592285D01*
X241596095Y-118687523D01*
X241500857Y-118782761D01*
X241358000Y-118830380D01*
X241119904Y-118830380D01*
X242643714Y-118830380D02*
X242072285Y-118830380D01*
X242358000Y-118830380D02*
X242358000Y-117830380D01*
X242262761Y-117973238D01*
X242167523Y-118068476D01*
X242072285Y-118116095D01*
%TO.C,J1*%
X163936666Y-83692380D02*
X163936666Y-84406666D01*
X163889047Y-84549523D01*
X163793809Y-84644761D01*
X163650952Y-84692380D01*
X163555714Y-84692380D01*
X164936666Y-84692380D02*
X164365238Y-84692380D01*
X164650952Y-84692380D02*
X164650952Y-83692380D01*
X164555714Y-83835238D01*
X164460476Y-83930476D01*
X164365238Y-83978095D01*
%TO.C,J2*%
X240436666Y-81152380D02*
X240436666Y-81866666D01*
X240389047Y-82009523D01*
X240293809Y-82104761D01*
X240150952Y-82152380D01*
X240055714Y-82152380D01*
X240865238Y-81247619D02*
X240912857Y-81200000D01*
X241008095Y-81152380D01*
X241246190Y-81152380D01*
X241341428Y-81200000D01*
X241389047Y-81247619D01*
X241436666Y-81342857D01*
X241436666Y-81438095D01*
X241389047Y-81580952D01*
X240817619Y-82152380D01*
X241436666Y-82152380D01*
%TO.C,J4*%
X176916666Y-89662380D02*
X176916666Y-90376666D01*
X176869047Y-90519523D01*
X176773809Y-90614761D01*
X176630952Y-90662380D01*
X176535714Y-90662380D01*
X177821428Y-89995714D02*
X177821428Y-90662380D01*
X177583333Y-89614761D02*
X177345238Y-90329047D01*
X177964285Y-90329047D01*
%TO.C,J6*%
X181896666Y-89642380D02*
X181896666Y-90356666D01*
X181849047Y-90499523D01*
X181753809Y-90594761D01*
X181610952Y-90642380D01*
X181515714Y-90642380D01*
X182801428Y-89642380D02*
X182610952Y-89642380D01*
X182515714Y-89690000D01*
X182468095Y-89737619D01*
X182372857Y-89880476D01*
X182325238Y-90070952D01*
X182325238Y-90451904D01*
X182372857Y-90547142D01*
X182420476Y-90594761D01*
X182515714Y-90642380D01*
X182706190Y-90642380D01*
X182801428Y-90594761D01*
X182849047Y-90547142D01*
X182896666Y-90451904D01*
X182896666Y-90213809D01*
X182849047Y-90118571D01*
X182801428Y-90070952D01*
X182706190Y-90023333D01*
X182515714Y-90023333D01*
X182420476Y-90070952D01*
X182372857Y-90118571D01*
X182325238Y-90213809D01*
%TO.C,J8*%
X186916666Y-89662380D02*
X186916666Y-90376666D01*
X186869047Y-90519523D01*
X186773809Y-90614761D01*
X186630952Y-90662380D01*
X186535714Y-90662380D01*
X187535714Y-90090952D02*
X187440476Y-90043333D01*
X187392857Y-89995714D01*
X187345238Y-89900476D01*
X187345238Y-89852857D01*
X187392857Y-89757619D01*
X187440476Y-89710000D01*
X187535714Y-89662380D01*
X187726190Y-89662380D01*
X187821428Y-89710000D01*
X187869047Y-89757619D01*
X187916666Y-89852857D01*
X187916666Y-89900476D01*
X187869047Y-89995714D01*
X187821428Y-90043333D01*
X187726190Y-90090952D01*
X187535714Y-90090952D01*
X187440476Y-90138571D01*
X187392857Y-90186190D01*
X187345238Y-90281428D01*
X187345238Y-90471904D01*
X187392857Y-90567142D01*
X187440476Y-90614761D01*
X187535714Y-90662380D01*
X187726190Y-90662380D01*
X187821428Y-90614761D01*
X187869047Y-90567142D01*
X187916666Y-90471904D01*
X187916666Y-90281428D01*
X187869047Y-90186190D01*
X187821428Y-90138571D01*
X187726190Y-90090952D01*
%TO.C,J10*%
X191440476Y-89662380D02*
X191440476Y-90376666D01*
X191392857Y-90519523D01*
X191297619Y-90614761D01*
X191154761Y-90662380D01*
X191059523Y-90662380D01*
X192440476Y-90662380D02*
X191869047Y-90662380D01*
X192154761Y-90662380D02*
X192154761Y-89662380D01*
X192059523Y-89805238D01*
X191964285Y-89900476D01*
X191869047Y-89948095D01*
X193059523Y-89662380D02*
X193154761Y-89662380D01*
X193250000Y-89710000D01*
X193297619Y-89757619D01*
X193345238Y-89852857D01*
X193392857Y-90043333D01*
X193392857Y-90281428D01*
X193345238Y-90471904D01*
X193297619Y-90567142D01*
X193250000Y-90614761D01*
X193154761Y-90662380D01*
X193059523Y-90662380D01*
X192964285Y-90614761D01*
X192916666Y-90567142D01*
X192869047Y-90471904D01*
X192821428Y-90281428D01*
X192821428Y-90043333D01*
X192869047Y-89852857D01*
X192916666Y-89757619D01*
X192964285Y-89710000D01*
X193059523Y-89662380D01*
%TO.C,J11*%
X216950476Y-73682380D02*
X216950476Y-74396666D01*
X216902857Y-74539523D01*
X216807619Y-74634761D01*
X216664761Y-74682380D01*
X216569523Y-74682380D01*
X217950476Y-74682380D02*
X217379047Y-74682380D01*
X217664761Y-74682380D02*
X217664761Y-73682380D01*
X217569523Y-73825238D01*
X217474285Y-73920476D01*
X217379047Y-73968095D01*
X218902857Y-74682380D02*
X218331428Y-74682380D01*
X218617142Y-74682380D02*
X218617142Y-73682380D01*
X218521904Y-73825238D01*
X218426666Y-73920476D01*
X218331428Y-73968095D01*
%TO.C,J12*%
X232190476Y-73682380D02*
X232190476Y-74396666D01*
X232142857Y-74539523D01*
X232047619Y-74634761D01*
X231904761Y-74682380D01*
X231809523Y-74682380D01*
X233190476Y-74682380D02*
X232619047Y-74682380D01*
X232904761Y-74682380D02*
X232904761Y-73682380D01*
X232809523Y-73825238D01*
X232714285Y-73920476D01*
X232619047Y-73968095D01*
X233571428Y-73777619D02*
X233619047Y-73730000D01*
X233714285Y-73682380D01*
X233952380Y-73682380D01*
X234047619Y-73730000D01*
X234095238Y-73777619D01*
X234142857Y-73872857D01*
X234142857Y-73968095D01*
X234095238Y-74110952D01*
X233523809Y-74682380D01*
X234142857Y-74682380D01*
%TO.C,J13*%
X221909142Y-93908571D02*
X222242476Y-93908571D01*
X222385333Y-94432380D02*
X221909142Y-94432380D01*
X221909142Y-93432380D01*
X222385333Y-93432380D01*
X222718666Y-94432380D02*
X223242476Y-93765714D01*
X222718666Y-93765714D02*
X223242476Y-94432380D01*
X223480571Y-93765714D02*
X223861523Y-93765714D01*
X223623428Y-93432380D02*
X223623428Y-94289523D01*
X223671047Y-94384761D01*
X223766285Y-94432380D01*
X223861523Y-94432380D01*
X224194857Y-94432380D02*
X224194857Y-93765714D01*
X224194857Y-93956190D02*
X224242476Y-93860952D01*
X224290095Y-93813333D01*
X224385333Y-93765714D01*
X224480571Y-93765714D01*
X225242476Y-94432380D02*
X225242476Y-93908571D01*
X225194857Y-93813333D01*
X225099619Y-93765714D01*
X224909142Y-93765714D01*
X224813904Y-93813333D01*
X225242476Y-94384761D02*
X225147238Y-94432380D01*
X224909142Y-94432380D01*
X224813904Y-94384761D01*
X224766285Y-94289523D01*
X224766285Y-94194285D01*
X224813904Y-94099047D01*
X224909142Y-94051428D01*
X225147238Y-94051428D01*
X225242476Y-94003809D01*
X226480571Y-94432380D02*
X226480571Y-93432380D01*
X226861523Y-93432380D01*
X226956761Y-93480000D01*
X227004380Y-93527619D01*
X227052000Y-93622857D01*
X227052000Y-93765714D01*
X227004380Y-93860952D01*
X226956761Y-93908571D01*
X226861523Y-93956190D01*
X226480571Y-93956190D01*
X227480571Y-94432380D02*
X227480571Y-93765714D01*
X227480571Y-93432380D02*
X227432952Y-93480000D01*
X227480571Y-93527619D01*
X227528190Y-93480000D01*
X227480571Y-93432380D01*
X227480571Y-93527619D01*
X227956761Y-93765714D02*
X227956761Y-94432380D01*
X227956761Y-93860952D02*
X228004380Y-93813333D01*
X228099619Y-93765714D01*
X228242476Y-93765714D01*
X228337714Y-93813333D01*
X228385333Y-93908571D01*
X228385333Y-94432380D01*
X228813904Y-94384761D02*
X228909142Y-94432380D01*
X229099619Y-94432380D01*
X229194857Y-94384761D01*
X229242476Y-94289523D01*
X229242476Y-94241904D01*
X229194857Y-94146666D01*
X229099619Y-94099047D01*
X228956761Y-94099047D01*
X228861523Y-94051428D01*
X228813904Y-93956190D01*
X228813904Y-93908571D01*
X228861523Y-93813333D01*
X228956761Y-93765714D01*
X229099619Y-93765714D01*
X229194857Y-93813333D01*
%TO.C,R1*%
X176728380Y-104718666D02*
X176252190Y-105052000D01*
X176728380Y-105290095D02*
X175728380Y-105290095D01*
X175728380Y-104909142D01*
X175776000Y-104813904D01*
X175823619Y-104766285D01*
X175918857Y-104718666D01*
X176061714Y-104718666D01*
X176156952Y-104766285D01*
X176204571Y-104813904D01*
X176252190Y-104909142D01*
X176252190Y-105290095D01*
X176728380Y-103766285D02*
X176728380Y-104337714D01*
X176728380Y-104052000D02*
X175728380Y-104052000D01*
X175871238Y-104147238D01*
X175966476Y-104242476D01*
X176014095Y-104337714D01*
%TO.C,R2*%
X178760380Y-104718666D02*
X178284190Y-105052000D01*
X178760380Y-105290095D02*
X177760380Y-105290095D01*
X177760380Y-104909142D01*
X177808000Y-104813904D01*
X177855619Y-104766285D01*
X177950857Y-104718666D01*
X178093714Y-104718666D01*
X178188952Y-104766285D01*
X178236571Y-104813904D01*
X178284190Y-104909142D01*
X178284190Y-105290095D01*
X177855619Y-104337714D02*
X177808000Y-104290095D01*
X177760380Y-104194857D01*
X177760380Y-103956761D01*
X177808000Y-103861523D01*
X177855619Y-103813904D01*
X177950857Y-103766285D01*
X178046095Y-103766285D01*
X178188952Y-103813904D01*
X178760380Y-104385333D01*
X178760380Y-103766285D01*
%TO.C,R3*%
X181808380Y-104718666D02*
X181332190Y-105052000D01*
X181808380Y-105290095D02*
X180808380Y-105290095D01*
X180808380Y-104909142D01*
X180856000Y-104813904D01*
X180903619Y-104766285D01*
X180998857Y-104718666D01*
X181141714Y-104718666D01*
X181236952Y-104766285D01*
X181284571Y-104813904D01*
X181332190Y-104909142D01*
X181332190Y-105290095D01*
X180808380Y-104385333D02*
X180808380Y-103766285D01*
X181189333Y-104099619D01*
X181189333Y-103956761D01*
X181236952Y-103861523D01*
X181284571Y-103813904D01*
X181379809Y-103766285D01*
X181617904Y-103766285D01*
X181713142Y-103813904D01*
X181760761Y-103861523D01*
X181808380Y-103956761D01*
X181808380Y-104242476D01*
X181760761Y-104337714D01*
X181713142Y-104385333D01*
%TO.C,R4*%
X183840380Y-104718666D02*
X183364190Y-105052000D01*
X183840380Y-105290095D02*
X182840380Y-105290095D01*
X182840380Y-104909142D01*
X182888000Y-104813904D01*
X182935619Y-104766285D01*
X183030857Y-104718666D01*
X183173714Y-104718666D01*
X183268952Y-104766285D01*
X183316571Y-104813904D01*
X183364190Y-104909142D01*
X183364190Y-105290095D01*
X183173714Y-103861523D02*
X183840380Y-103861523D01*
X182792761Y-104099619D02*
X183507047Y-104337714D01*
X183507047Y-103718666D01*
%TO.C,R5*%
X186634380Y-104718666D02*
X186158190Y-105052000D01*
X186634380Y-105290095D02*
X185634380Y-105290095D01*
X185634380Y-104909142D01*
X185682000Y-104813904D01*
X185729619Y-104766285D01*
X185824857Y-104718666D01*
X185967714Y-104718666D01*
X186062952Y-104766285D01*
X186110571Y-104813904D01*
X186158190Y-104909142D01*
X186158190Y-105290095D01*
X185634380Y-103813904D02*
X185634380Y-104290095D01*
X186110571Y-104337714D01*
X186062952Y-104290095D01*
X186015333Y-104194857D01*
X186015333Y-103956761D01*
X186062952Y-103861523D01*
X186110571Y-103813904D01*
X186205809Y-103766285D01*
X186443904Y-103766285D01*
X186539142Y-103813904D01*
X186586761Y-103861523D01*
X186634380Y-103956761D01*
X186634380Y-104194857D01*
X186586761Y-104290095D01*
X186539142Y-104337714D01*
%TO.C,R6*%
X188666380Y-104718666D02*
X188190190Y-105052000D01*
X188666380Y-105290095D02*
X187666380Y-105290095D01*
X187666380Y-104909142D01*
X187714000Y-104813904D01*
X187761619Y-104766285D01*
X187856857Y-104718666D01*
X187999714Y-104718666D01*
X188094952Y-104766285D01*
X188142571Y-104813904D01*
X188190190Y-104909142D01*
X188190190Y-105290095D01*
X187666380Y-103861523D02*
X187666380Y-104052000D01*
X187714000Y-104147238D01*
X187761619Y-104194857D01*
X187904476Y-104290095D01*
X188094952Y-104337714D01*
X188475904Y-104337714D01*
X188571142Y-104290095D01*
X188618761Y-104242476D01*
X188666380Y-104147238D01*
X188666380Y-103956761D01*
X188618761Y-103861523D01*
X188571142Y-103813904D01*
X188475904Y-103766285D01*
X188237809Y-103766285D01*
X188142571Y-103813904D01*
X188094952Y-103861523D01*
X188047333Y-103956761D01*
X188047333Y-104147238D01*
X188094952Y-104242476D01*
X188142571Y-104290095D01*
X188237809Y-104337714D01*
%TO.C,R7*%
X191714380Y-104718666D02*
X191238190Y-105052000D01*
X191714380Y-105290095D02*
X190714380Y-105290095D01*
X190714380Y-104909142D01*
X190762000Y-104813904D01*
X190809619Y-104766285D01*
X190904857Y-104718666D01*
X191047714Y-104718666D01*
X191142952Y-104766285D01*
X191190571Y-104813904D01*
X191238190Y-104909142D01*
X191238190Y-105290095D01*
X190714380Y-104385333D02*
X190714380Y-103718666D01*
X191714380Y-104147238D01*
%TO.C,R8*%
X193746380Y-104718666D02*
X193270190Y-105052000D01*
X193746380Y-105290095D02*
X192746380Y-105290095D01*
X192746380Y-104909142D01*
X192794000Y-104813904D01*
X192841619Y-104766285D01*
X192936857Y-104718666D01*
X193079714Y-104718666D01*
X193174952Y-104766285D01*
X193222571Y-104813904D01*
X193270190Y-104909142D01*
X193270190Y-105290095D01*
X193174952Y-104147238D02*
X193127333Y-104242476D01*
X193079714Y-104290095D01*
X192984476Y-104337714D01*
X192936857Y-104337714D01*
X192841619Y-104290095D01*
X192794000Y-104242476D01*
X192746380Y-104147238D01*
X192746380Y-103956761D01*
X192794000Y-103861523D01*
X192841619Y-103813904D01*
X192936857Y-103766285D01*
X192984476Y-103766285D01*
X193079714Y-103813904D01*
X193127333Y-103861523D01*
X193174952Y-103956761D01*
X193174952Y-104147238D01*
X193222571Y-104242476D01*
X193270190Y-104290095D01*
X193365428Y-104337714D01*
X193555904Y-104337714D01*
X193651142Y-104290095D01*
X193698761Y-104242476D01*
X193746380Y-104147238D01*
X193746380Y-103956761D01*
X193698761Y-103861523D01*
X193651142Y-103813904D01*
X193555904Y-103766285D01*
X193365428Y-103766285D01*
X193270190Y-103813904D01*
X193222571Y-103861523D01*
X193174952Y-103956761D01*
%TO.C,R9*%
X237191333Y-119220380D02*
X236858000Y-118744190D01*
X236619904Y-119220380D02*
X236619904Y-118220380D01*
X237000857Y-118220380D01*
X237096095Y-118268000D01*
X237143714Y-118315619D01*
X237191333Y-118410857D01*
X237191333Y-118553714D01*
X237143714Y-118648952D01*
X237096095Y-118696571D01*
X237000857Y-118744190D01*
X236619904Y-118744190D01*
X237667523Y-119220380D02*
X237858000Y-119220380D01*
X237953238Y-119172761D01*
X238000857Y-119125142D01*
X238096095Y-118982285D01*
X238143714Y-118791809D01*
X238143714Y-118410857D01*
X238096095Y-118315619D01*
X238048476Y-118268000D01*
X237953238Y-118220380D01*
X237762761Y-118220380D01*
X237667523Y-118268000D01*
X237619904Y-118315619D01*
X237572285Y-118410857D01*
X237572285Y-118648952D01*
X237619904Y-118744190D01*
X237667523Y-118791809D01*
X237762761Y-118839428D01*
X237953238Y-118839428D01*
X238048476Y-118791809D01*
X238096095Y-118744190D01*
X238143714Y-118648952D01*
%TO.C,J3*%
X186240666Y-77430380D02*
X186240666Y-78144666D01*
X186193047Y-78287523D01*
X186097809Y-78382761D01*
X185954952Y-78430380D01*
X185859714Y-78430380D01*
X186621619Y-77430380D02*
X187240666Y-77430380D01*
X186907333Y-77811333D01*
X187050190Y-77811333D01*
X187145428Y-77858952D01*
X187193047Y-77906571D01*
X187240666Y-78001809D01*
X187240666Y-78239904D01*
X187193047Y-78335142D01*
X187145428Y-78382761D01*
X187050190Y-78430380D01*
X186764476Y-78430380D01*
X186669238Y-78382761D01*
X186621619Y-78335142D01*
X191824000Y-75398380D02*
X191824000Y-75636476D01*
X191585904Y-75541238D02*
X191824000Y-75636476D01*
X192062095Y-75541238D01*
X191681142Y-75826952D02*
X191824000Y-75636476D01*
X191966857Y-75826952D01*
%TO.C,J5*%
X169240666Y-77430380D02*
X169240666Y-78144666D01*
X169193047Y-78287523D01*
X169097809Y-78382761D01*
X168954952Y-78430380D01*
X168859714Y-78430380D01*
X170193047Y-77430380D02*
X169716857Y-77430380D01*
X169669238Y-77906571D01*
X169716857Y-77858952D01*
X169812095Y-77811333D01*
X170050190Y-77811333D01*
X170145428Y-77858952D01*
X170193047Y-77906571D01*
X170240666Y-78001809D01*
X170240666Y-78239904D01*
X170193047Y-78335142D01*
X170145428Y-78382761D01*
X170050190Y-78430380D01*
X169812095Y-78430380D01*
X169716857Y-78382761D01*
X169669238Y-78335142D01*
X174824000Y-75398380D02*
X174824000Y-75636476D01*
X174585904Y-75541238D02*
X174824000Y-75636476D01*
X175062095Y-75541238D01*
X174681142Y-75826952D02*
X174824000Y-75636476D01*
X174966857Y-75826952D01*
%TO.C,J7*%
X203240666Y-77430380D02*
X203240666Y-78144666D01*
X203193047Y-78287523D01*
X203097809Y-78382761D01*
X202954952Y-78430380D01*
X202859714Y-78430380D01*
X203621619Y-77430380D02*
X204288285Y-77430380D01*
X203859714Y-78430380D01*
X208824000Y-75398380D02*
X208824000Y-75636476D01*
X208585904Y-75541238D02*
X208824000Y-75636476D01*
X209062095Y-75541238D01*
X208681142Y-75826952D02*
X208824000Y-75636476D01*
X208966857Y-75826952D01*
%TO.C,J9*%
X169592666Y-118324380D02*
X169592666Y-119038666D01*
X169545047Y-119181523D01*
X169449809Y-119276761D01*
X169306952Y-119324380D01*
X169211714Y-119324380D01*
X170116476Y-119324380D02*
X170306952Y-119324380D01*
X170402190Y-119276761D01*
X170449809Y-119229142D01*
X170545047Y-119086285D01*
X170592666Y-118895809D01*
X170592666Y-118514857D01*
X170545047Y-118419619D01*
X170497428Y-118372000D01*
X170402190Y-118324380D01*
X170211714Y-118324380D01*
X170116476Y-118372000D01*
X170068857Y-118419619D01*
X170021238Y-118514857D01*
X170021238Y-118752952D01*
X170068857Y-118848190D01*
X170116476Y-118895809D01*
X170211714Y-118943428D01*
X170402190Y-118943428D01*
X170497428Y-118895809D01*
X170545047Y-118848190D01*
X170592666Y-118752952D01*
X164628000Y-119594380D02*
X164628000Y-119832476D01*
X164389904Y-119737238D02*
X164628000Y-119832476D01*
X164866095Y-119737238D01*
X164485142Y-120022952D02*
X164628000Y-119832476D01*
X164770857Y-120022952D01*
%TO.C,J14*%
X203068476Y-118070380D02*
X203068476Y-118784666D01*
X203020857Y-118927523D01*
X202925619Y-119022761D01*
X202782761Y-119070380D01*
X202687523Y-119070380D01*
X204068476Y-119070380D02*
X203497047Y-119070380D01*
X203782761Y-119070380D02*
X203782761Y-118070380D01*
X203687523Y-118213238D01*
X203592285Y-118308476D01*
X203497047Y-118356095D01*
X204925619Y-118403714D02*
X204925619Y-119070380D01*
X204687523Y-118022761D02*
X204449428Y-118737047D01*
X205068476Y-118737047D01*
X198628000Y-119594380D02*
X198628000Y-119832476D01*
X198389904Y-119737238D02*
X198628000Y-119832476D01*
X198866095Y-119737238D01*
X198485142Y-120022952D02*
X198628000Y-119832476D01*
X198770857Y-120022952D01*
%TO.C,J16*%
X186068476Y-118070380D02*
X186068476Y-118784666D01*
X186020857Y-118927523D01*
X185925619Y-119022761D01*
X185782761Y-119070380D01*
X185687523Y-119070380D01*
X187068476Y-119070380D02*
X186497047Y-119070380D01*
X186782761Y-119070380D02*
X186782761Y-118070380D01*
X186687523Y-118213238D01*
X186592285Y-118308476D01*
X186497047Y-118356095D01*
X187925619Y-118070380D02*
X187735142Y-118070380D01*
X187639904Y-118118000D01*
X187592285Y-118165619D01*
X187497047Y-118308476D01*
X187449428Y-118498952D01*
X187449428Y-118879904D01*
X187497047Y-118975142D01*
X187544666Y-119022761D01*
X187639904Y-119070380D01*
X187830380Y-119070380D01*
X187925619Y-119022761D01*
X187973238Y-118975142D01*
X188020857Y-118879904D01*
X188020857Y-118641809D01*
X187973238Y-118546571D01*
X187925619Y-118498952D01*
X187830380Y-118451333D01*
X187639904Y-118451333D01*
X187544666Y-118498952D01*
X187497047Y-118546571D01*
X187449428Y-118641809D01*
X181628000Y-119594380D02*
X181628000Y-119832476D01*
X181389904Y-119737238D02*
X181628000Y-119832476D01*
X181866095Y-119737238D01*
X181485142Y-120022952D02*
X181628000Y-119832476D01*
X181770857Y-120022952D01*
%TD*%
M02*
