M48
; DRILL file {KiCad (5.1.10)-1} date 02/05/22 10:02:58
; FORMAT={-:-/ absolute / inch / decimal}
; #@! TF.CreationDate,2022-02-05T10:02:58-05:00
; #@! TF.GenerationSoftware,Kicad,Pcbnew,(5.1.10)-1
; #@! TF.FileFunction,Plated,1,2,PTH
FMAT,2
INCH
T1C0.0390
T2C0.0394
%
G90
G05
T1
X6.4694Y-2.99
X6.4814Y-4.73
X6.6072Y-2.99
X6.6192Y-4.73
X6.745Y-2.99
X6.757Y-4.73
X6.8828Y-2.99
X6.8948Y-4.73
X7.1387Y-2.99
X7.1507Y-4.73
X7.2765Y-2.99
X7.2885Y-4.73
X7.4143Y-2.99
X7.4263Y-4.73
X7.5521Y-2.99
X7.5641Y-4.73
X7.808Y-2.99
X7.82Y-4.73
X7.9458Y-2.99
X7.9578Y-4.73
X8.0836Y-2.99
X8.0956Y-4.73
X8.2214Y-2.99
X8.2334Y-4.73
T2
X6.4173Y-3.4083
X6.4173Y-3.5083
X6.4173Y-3.6083
X6.4173Y-3.7083
X6.4173Y-3.8083
X6.4173Y-3.9083
X6.4173Y-4.0083
X6.4173Y-4.1083
X6.4173Y-4.2083
X6.4173Y-4.3083
X6.5173Y-3.4083
X6.5173Y-3.5083
X6.5173Y-3.6083
X6.5173Y-3.7083
X6.5173Y-3.8083
X6.5173Y-3.9083
X6.5173Y-4.0083
X6.5173Y-4.1083
X6.5173Y-4.2083
X6.5173Y-4.3083
X6.9783Y-3.6433
X6.9783Y-3.7433
X6.9783Y-3.8433
X7.1752Y-3.6433
X7.1752Y-3.7433
X7.1752Y-3.8433
X7.372Y-3.6433
X7.372Y-3.7433
X7.372Y-3.8433
X7.5689Y-3.6433
X7.5689Y-3.7433
X7.5689Y-3.8433
X8.5732Y-3.0315
X8.5732Y-3.1315
X8.5732Y-3.2315
X8.5732Y-3.3315
X8.5732Y-3.4315
X8.5732Y-3.5315
X8.5732Y-3.6315
X8.5732Y-3.7315
X8.5732Y-3.8315
X8.5732Y-3.9315
X8.5732Y-4.0315
X8.5732Y-4.1315
X8.5732Y-4.2315
X8.5732Y-4.3315
X8.5732Y-4.4315
X8.83Y-3.8
X8.83Y-3.9
X8.83Y-4.0
X8.93Y-3.8
X8.93Y-3.9
X8.93Y-4.0
X9.1732Y-3.0315
X9.1732Y-3.1315
X9.1732Y-3.2315
X9.1732Y-3.3315
X9.1732Y-3.4315
X9.1732Y-3.5315
X9.1732Y-3.6315
X9.1732Y-3.7315
X9.1732Y-3.8315
X9.1732Y-3.9315
X9.1732Y-4.0315
X9.1732Y-4.1315
X9.1732Y-4.2315
X9.1732Y-4.3315
X9.1732Y-4.4315
X9.4291Y-3.3083
X9.4291Y-3.4083
X9.4291Y-3.5083
X9.4291Y-3.6083
X9.4291Y-3.7083
X9.4291Y-3.8083
X9.4291Y-3.9083
X9.4291Y-4.0083
X9.4291Y-4.1083
X9.4291Y-4.2083
X9.4291Y-4.3083
X9.4291Y-4.4083
X9.5291Y-3.3083
X9.5291Y-3.4083
X9.5291Y-3.5083
X9.5291Y-3.6083
X9.5291Y-3.7083
X9.5291Y-3.8083
X9.5291Y-3.9083
X9.5291Y-4.0083
X9.5291Y-4.1083
X9.5291Y-4.2083
X9.5291Y-4.3083
X9.5291Y-4.4083
T0
M30
