%TF.GenerationSoftware,KiCad,Pcbnew,(5.1.10)-1*%
%TF.CreationDate,2022-02-02T21:42:12-05:00*%
%TF.ProjectId,RevA,52657641-2e6b-4696-9361-645f70636258,rev?*%
%TF.SameCoordinates,Original*%
%TF.FileFunction,Legend,Bot*%
%TF.FilePolarity,Positive*%
%FSLAX46Y46*%
G04 Gerber Fmt 4.6, Leading zero omitted, Abs format (unit mm)*
G04 Created by KiCad (PCBNEW (5.1.10)-1) date 2022-02-02 21:42:12*
%MOMM*%
%LPD*%
G01*
G04 APERTURE LIST*
%ADD10C,0.170000*%
%ADD11C,0.175000*%
%ADD12C,0.200000*%
%ADD13C,0.120000*%
G04 APERTURE END LIST*
D10*
X205910571Y-71536857D02*
X204410571Y-71536857D01*
X204410571Y-71894000D01*
X204482000Y-72108285D01*
X204624857Y-72251142D01*
X204767714Y-72322571D01*
X205053428Y-72394000D01*
X205267714Y-72394000D01*
X205553428Y-72322571D01*
X205696285Y-72251142D01*
X205839142Y-72108285D01*
X205910571Y-71894000D01*
X205910571Y-71536857D01*
X204410571Y-72894000D02*
X204410571Y-73822571D01*
X204982000Y-73322571D01*
X204982000Y-73536857D01*
X205053428Y-73679714D01*
X205124857Y-73751142D01*
X205267714Y-73822571D01*
X205624857Y-73822571D01*
X205767714Y-73751142D01*
X205839142Y-73679714D01*
X205910571Y-73536857D01*
X205910571Y-73108285D01*
X205839142Y-72965428D01*
X205767714Y-72894000D01*
X192448571Y-71536857D02*
X190948571Y-71536857D01*
X190948571Y-71894000D01*
X191020000Y-72108285D01*
X191162857Y-72251142D01*
X191305714Y-72322571D01*
X191591428Y-72394000D01*
X191805714Y-72394000D01*
X192091428Y-72322571D01*
X192234285Y-72251142D01*
X192377142Y-72108285D01*
X192448571Y-71894000D01*
X192448571Y-71536857D01*
X191091428Y-72965428D02*
X191020000Y-73036857D01*
X190948571Y-73179714D01*
X190948571Y-73536857D01*
X191020000Y-73679714D01*
X191091428Y-73751142D01*
X191234285Y-73822571D01*
X191377142Y-73822571D01*
X191591428Y-73751142D01*
X192448571Y-72894000D01*
X192448571Y-73822571D01*
X182034571Y-71536857D02*
X180534571Y-71536857D01*
X180534571Y-71894000D01*
X180606000Y-72108285D01*
X180748857Y-72251142D01*
X180891714Y-72322571D01*
X181177428Y-72394000D01*
X181391714Y-72394000D01*
X181677428Y-72322571D01*
X181820285Y-72251142D01*
X181963142Y-72108285D01*
X182034571Y-71894000D01*
X182034571Y-71536857D01*
X182034571Y-73822571D02*
X182034571Y-72965428D01*
X182034571Y-73394000D02*
X180534571Y-73394000D01*
X180748857Y-73251142D01*
X180891714Y-73108285D01*
X180963142Y-72965428D01*
X168572571Y-71282857D02*
X167072571Y-71282857D01*
X167072571Y-71640000D01*
X167144000Y-71854285D01*
X167286857Y-71997142D01*
X167429714Y-72068571D01*
X167715428Y-72140000D01*
X167929714Y-72140000D01*
X168215428Y-72068571D01*
X168358285Y-71997142D01*
X168501142Y-71854285D01*
X168572571Y-71640000D01*
X168572571Y-71282857D01*
X167072571Y-73068571D02*
X167072571Y-73211428D01*
X167144000Y-73354285D01*
X167215428Y-73425714D01*
X167358285Y-73497142D01*
X167644000Y-73568571D01*
X168001142Y-73568571D01*
X168286857Y-73497142D01*
X168429714Y-73425714D01*
X168501142Y-73354285D01*
X168572571Y-73211428D01*
X168572571Y-73068571D01*
X168501142Y-72925714D01*
X168429714Y-72854285D01*
X168286857Y-72782857D01*
X168001142Y-72711428D01*
X167644000Y-72711428D01*
X167358285Y-72782857D01*
X167215428Y-72854285D01*
X167144000Y-72925714D01*
X167072571Y-73068571D01*
X208038000Y-71247142D02*
X207966571Y-71104285D01*
X207966571Y-70890000D01*
X208038000Y-70675714D01*
X208180857Y-70532857D01*
X208323714Y-70461428D01*
X208609428Y-70390000D01*
X208823714Y-70390000D01*
X209109428Y-70461428D01*
X209252285Y-70532857D01*
X209395142Y-70675714D01*
X209466571Y-70890000D01*
X209466571Y-71032857D01*
X209395142Y-71247142D01*
X209323714Y-71318571D01*
X208823714Y-71318571D01*
X208823714Y-71032857D01*
X209466571Y-71961428D02*
X207966571Y-71961428D01*
X209466571Y-72818571D01*
X207966571Y-72818571D01*
X209466571Y-73532857D02*
X207966571Y-73532857D01*
X207966571Y-73890000D01*
X208038000Y-74104285D01*
X208180857Y-74247142D01*
X208323714Y-74318571D01*
X208609428Y-74390000D01*
X208823714Y-74390000D01*
X209109428Y-74318571D01*
X209252285Y-74247142D01*
X209395142Y-74104285D01*
X209466571Y-73890000D01*
X209466571Y-73532857D01*
X197624000Y-71247142D02*
X197552571Y-71104285D01*
X197552571Y-70890000D01*
X197624000Y-70675714D01*
X197766857Y-70532857D01*
X197909714Y-70461428D01*
X198195428Y-70390000D01*
X198409714Y-70390000D01*
X198695428Y-70461428D01*
X198838285Y-70532857D01*
X198981142Y-70675714D01*
X199052571Y-70890000D01*
X199052571Y-71032857D01*
X198981142Y-71247142D01*
X198909714Y-71318571D01*
X198409714Y-71318571D01*
X198409714Y-71032857D01*
X199052571Y-71961428D02*
X197552571Y-71961428D01*
X199052571Y-72818571D01*
X197552571Y-72818571D01*
X199052571Y-73532857D02*
X197552571Y-73532857D01*
X197552571Y-73890000D01*
X197624000Y-74104285D01*
X197766857Y-74247142D01*
X197909714Y-74318571D01*
X198195428Y-74390000D01*
X198409714Y-74390000D01*
X198695428Y-74318571D01*
X198838285Y-74247142D01*
X198981142Y-74104285D01*
X199052571Y-73890000D01*
X199052571Y-73532857D01*
X184162000Y-71247142D02*
X184090571Y-71104285D01*
X184090571Y-70890000D01*
X184162000Y-70675714D01*
X184304857Y-70532857D01*
X184447714Y-70461428D01*
X184733428Y-70390000D01*
X184947714Y-70390000D01*
X185233428Y-70461428D01*
X185376285Y-70532857D01*
X185519142Y-70675714D01*
X185590571Y-70890000D01*
X185590571Y-71032857D01*
X185519142Y-71247142D01*
X185447714Y-71318571D01*
X184947714Y-71318571D01*
X184947714Y-71032857D01*
X185590571Y-71961428D02*
X184090571Y-71961428D01*
X185590571Y-72818571D01*
X184090571Y-72818571D01*
X185590571Y-73532857D02*
X184090571Y-73532857D01*
X184090571Y-73890000D01*
X184162000Y-74104285D01*
X184304857Y-74247142D01*
X184447714Y-74318571D01*
X184733428Y-74390000D01*
X184947714Y-74390000D01*
X185233428Y-74318571D01*
X185376285Y-74247142D01*
X185519142Y-74104285D01*
X185590571Y-73890000D01*
X185590571Y-73532857D01*
X170700000Y-71247142D02*
X170628571Y-71104285D01*
X170628571Y-70890000D01*
X170700000Y-70675714D01*
X170842857Y-70532857D01*
X170985714Y-70461428D01*
X171271428Y-70390000D01*
X171485714Y-70390000D01*
X171771428Y-70461428D01*
X171914285Y-70532857D01*
X172057142Y-70675714D01*
X172128571Y-70890000D01*
X172128571Y-71032857D01*
X172057142Y-71247142D01*
X171985714Y-71318571D01*
X171485714Y-71318571D01*
X171485714Y-71032857D01*
X172128571Y-71961428D02*
X170628571Y-71961428D01*
X172128571Y-72818571D01*
X170628571Y-72818571D01*
X172128571Y-73532857D02*
X170628571Y-73532857D01*
X170628571Y-73890000D01*
X170700000Y-74104285D01*
X170842857Y-74247142D01*
X170985714Y-74318571D01*
X171271428Y-74390000D01*
X171485714Y-74390000D01*
X171771428Y-74318571D01*
X171914285Y-74247142D01*
X172057142Y-74104285D01*
X172128571Y-73890000D01*
X172128571Y-73532857D01*
X201362571Y-72358285D02*
X201362571Y-71644000D01*
X202076857Y-71572571D01*
X202005428Y-71644000D01*
X201934000Y-71786857D01*
X201934000Y-72144000D01*
X202005428Y-72286857D01*
X202076857Y-72358285D01*
X202219714Y-72429714D01*
X202576857Y-72429714D01*
X202719714Y-72358285D01*
X202791142Y-72286857D01*
X202862571Y-72144000D01*
X202862571Y-71786857D01*
X202791142Y-71644000D01*
X202719714Y-71572571D01*
X201362571Y-72858285D02*
X202862571Y-73358285D01*
X201362571Y-73858285D01*
X187646571Y-72358285D02*
X187646571Y-71644000D01*
X188360857Y-71572571D01*
X188289428Y-71644000D01*
X188218000Y-71786857D01*
X188218000Y-72144000D01*
X188289428Y-72286857D01*
X188360857Y-72358285D01*
X188503714Y-72429714D01*
X188860857Y-72429714D01*
X189003714Y-72358285D01*
X189075142Y-72286857D01*
X189146571Y-72144000D01*
X189146571Y-71786857D01*
X189075142Y-71644000D01*
X189003714Y-71572571D01*
X187646571Y-72858285D02*
X189146571Y-73358285D01*
X187646571Y-73858285D01*
X173930571Y-72358285D02*
X173930571Y-71644000D01*
X174644857Y-71572571D01*
X174573428Y-71644000D01*
X174502000Y-71786857D01*
X174502000Y-72144000D01*
X174573428Y-72286857D01*
X174644857Y-72358285D01*
X174787714Y-72429714D01*
X175144857Y-72429714D01*
X175287714Y-72358285D01*
X175359142Y-72286857D01*
X175430571Y-72144000D01*
X175430571Y-71786857D01*
X175359142Y-71644000D01*
X175287714Y-71572571D01*
X173930571Y-72858285D02*
X175430571Y-73358285D01*
X173930571Y-73858285D01*
X163770571Y-72358285D02*
X163770571Y-71644000D01*
X164484857Y-71572571D01*
X164413428Y-71644000D01*
X164342000Y-71786857D01*
X164342000Y-72144000D01*
X164413428Y-72286857D01*
X164484857Y-72358285D01*
X164627714Y-72429714D01*
X164984857Y-72429714D01*
X165127714Y-72358285D01*
X165199142Y-72286857D01*
X165270571Y-72144000D01*
X165270571Y-71786857D01*
X165199142Y-71644000D01*
X165127714Y-71572571D01*
X163770571Y-72858285D02*
X165270571Y-73358285D01*
X163770571Y-73858285D01*
X205990000Y-122372571D02*
X205990000Y-123086857D01*
X206418571Y-122229714D02*
X204918571Y-122729714D01*
X206418571Y-123229714D01*
X204918571Y-123586857D02*
X204918571Y-124515428D01*
X205490000Y-124015428D01*
X205490000Y-124229714D01*
X205561428Y-124372571D01*
X205632857Y-124444000D01*
X205775714Y-124515428D01*
X206132857Y-124515428D01*
X206275714Y-124444000D01*
X206347142Y-124372571D01*
X206418571Y-124229714D01*
X206418571Y-123801142D01*
X206347142Y-123658285D01*
X206275714Y-123586857D01*
X192274000Y-122372571D02*
X192274000Y-123086857D01*
X192702571Y-122229714D02*
X191202571Y-122729714D01*
X192702571Y-123229714D01*
X191345428Y-123658285D02*
X191274000Y-123729714D01*
X191202571Y-123872571D01*
X191202571Y-124229714D01*
X191274000Y-124372571D01*
X191345428Y-124444000D01*
X191488285Y-124515428D01*
X191631142Y-124515428D01*
X191845428Y-124444000D01*
X192702571Y-123586857D01*
X192702571Y-124515428D01*
X181606000Y-122372571D02*
X181606000Y-123086857D01*
X182034571Y-122229714D02*
X180534571Y-122729714D01*
X182034571Y-123229714D01*
X182034571Y-124515428D02*
X182034571Y-123658285D01*
X182034571Y-124086857D02*
X180534571Y-124086857D01*
X180748857Y-123944000D01*
X180891714Y-123801142D01*
X180963142Y-123658285D01*
X168398000Y-122372571D02*
X168398000Y-123086857D01*
X168826571Y-122229714D02*
X167326571Y-122729714D01*
X168826571Y-123229714D01*
X167326571Y-124015428D02*
X167326571Y-124158285D01*
X167398000Y-124301142D01*
X167469428Y-124372571D01*
X167612285Y-124444000D01*
X167898000Y-124515428D01*
X168255142Y-124515428D01*
X168540857Y-124444000D01*
X168683714Y-124372571D01*
X168755142Y-124301142D01*
X168826571Y-124158285D01*
X168826571Y-124015428D01*
X168755142Y-123872571D01*
X168683714Y-123801142D01*
X168540857Y-123729714D01*
X168255142Y-123658285D01*
X167898000Y-123658285D01*
X167612285Y-123729714D01*
X167469428Y-123801142D01*
X167398000Y-123872571D01*
X167326571Y-124015428D01*
X208546000Y-122491619D02*
X208474571Y-122372571D01*
X208474571Y-122194000D01*
X208546000Y-122015428D01*
X208688857Y-121896380D01*
X208831714Y-121836857D01*
X209117428Y-121777333D01*
X209331714Y-121777333D01*
X209617428Y-121836857D01*
X209760285Y-121896380D01*
X209903142Y-122015428D01*
X209974571Y-122194000D01*
X209974571Y-122313047D01*
X209903142Y-122491619D01*
X209831714Y-122551142D01*
X209331714Y-122551142D01*
X209331714Y-122313047D01*
X209974571Y-123086857D02*
X208474571Y-123086857D01*
X209974571Y-123801142D01*
X208474571Y-123801142D01*
X209974571Y-124396380D02*
X208474571Y-124396380D01*
X208474571Y-124694000D01*
X208546000Y-124872571D01*
X208688857Y-124991619D01*
X208831714Y-125051142D01*
X209117428Y-125110666D01*
X209331714Y-125110666D01*
X209617428Y-125051142D01*
X209760285Y-124991619D01*
X209903142Y-124872571D01*
X209974571Y-124694000D01*
X209974571Y-124396380D01*
X197878000Y-122491619D02*
X197806571Y-122372571D01*
X197806571Y-122194000D01*
X197878000Y-122015428D01*
X198020857Y-121896380D01*
X198163714Y-121836857D01*
X198449428Y-121777333D01*
X198663714Y-121777333D01*
X198949428Y-121836857D01*
X199092285Y-121896380D01*
X199235142Y-122015428D01*
X199306571Y-122194000D01*
X199306571Y-122313047D01*
X199235142Y-122491619D01*
X199163714Y-122551142D01*
X198663714Y-122551142D01*
X198663714Y-122313047D01*
X199306571Y-123086857D02*
X197806571Y-123086857D01*
X199306571Y-123801142D01*
X197806571Y-123801142D01*
X199306571Y-124396380D02*
X197806571Y-124396380D01*
X197806571Y-124694000D01*
X197878000Y-124872571D01*
X198020857Y-124991619D01*
X198163714Y-125051142D01*
X198449428Y-125110666D01*
X198663714Y-125110666D01*
X198949428Y-125051142D01*
X199092285Y-124991619D01*
X199235142Y-124872571D01*
X199306571Y-124694000D01*
X199306571Y-124396380D01*
X184162000Y-122491619D02*
X184090571Y-122372571D01*
X184090571Y-122194000D01*
X184162000Y-122015428D01*
X184304857Y-121896380D01*
X184447714Y-121836857D01*
X184733428Y-121777333D01*
X184947714Y-121777333D01*
X185233428Y-121836857D01*
X185376285Y-121896380D01*
X185519142Y-122015428D01*
X185590571Y-122194000D01*
X185590571Y-122313047D01*
X185519142Y-122491619D01*
X185447714Y-122551142D01*
X184947714Y-122551142D01*
X184947714Y-122313047D01*
X185590571Y-123086857D02*
X184090571Y-123086857D01*
X185590571Y-123801142D01*
X184090571Y-123801142D01*
X185590571Y-124396380D02*
X184090571Y-124396380D01*
X184090571Y-124694000D01*
X184162000Y-124872571D01*
X184304857Y-124991619D01*
X184447714Y-125051142D01*
X184733428Y-125110666D01*
X184947714Y-125110666D01*
X185233428Y-125051142D01*
X185376285Y-124991619D01*
X185519142Y-124872571D01*
X185590571Y-124694000D01*
X185590571Y-124396380D01*
X170954000Y-122491619D02*
X170882571Y-122372571D01*
X170882571Y-122194000D01*
X170954000Y-122015428D01*
X171096857Y-121896380D01*
X171239714Y-121836857D01*
X171525428Y-121777333D01*
X171739714Y-121777333D01*
X172025428Y-121836857D01*
X172168285Y-121896380D01*
X172311142Y-122015428D01*
X172382571Y-122194000D01*
X172382571Y-122313047D01*
X172311142Y-122491619D01*
X172239714Y-122551142D01*
X171739714Y-122551142D01*
X171739714Y-122313047D01*
X172382571Y-123086857D02*
X170882571Y-123086857D01*
X172382571Y-123801142D01*
X170882571Y-123801142D01*
X172382571Y-124396380D02*
X170882571Y-124396380D01*
X170882571Y-124694000D01*
X170954000Y-124872571D01*
X171096857Y-124991619D01*
X171239714Y-125051142D01*
X171525428Y-125110666D01*
X171739714Y-125110666D01*
X172025428Y-125051142D01*
X172168285Y-124991619D01*
X172311142Y-124872571D01*
X172382571Y-124694000D01*
X172382571Y-124396380D01*
X201362571Y-123158285D02*
X201362571Y-122444000D01*
X202076857Y-122372571D01*
X202005428Y-122444000D01*
X201934000Y-122586857D01*
X201934000Y-122944000D01*
X202005428Y-123086857D01*
X202076857Y-123158285D01*
X202219714Y-123229714D01*
X202576857Y-123229714D01*
X202719714Y-123158285D01*
X202791142Y-123086857D01*
X202862571Y-122944000D01*
X202862571Y-122586857D01*
X202791142Y-122444000D01*
X202719714Y-122372571D01*
X201362571Y-123658285D02*
X202862571Y-124158285D01*
X201362571Y-124658285D01*
X188154571Y-123158285D02*
X188154571Y-122444000D01*
X188868857Y-122372571D01*
X188797428Y-122444000D01*
X188726000Y-122586857D01*
X188726000Y-122944000D01*
X188797428Y-123086857D01*
X188868857Y-123158285D01*
X189011714Y-123229714D01*
X189368857Y-123229714D01*
X189511714Y-123158285D01*
X189583142Y-123086857D01*
X189654571Y-122944000D01*
X189654571Y-122586857D01*
X189583142Y-122444000D01*
X189511714Y-122372571D01*
X188154571Y-123658285D02*
X189654571Y-124158285D01*
X188154571Y-124658285D01*
X174438571Y-123158285D02*
X174438571Y-122444000D01*
X175152857Y-122372571D01*
X175081428Y-122444000D01*
X175010000Y-122586857D01*
X175010000Y-122944000D01*
X175081428Y-123086857D01*
X175152857Y-123158285D01*
X175295714Y-123229714D01*
X175652857Y-123229714D01*
X175795714Y-123158285D01*
X175867142Y-123086857D01*
X175938571Y-122944000D01*
X175938571Y-122586857D01*
X175867142Y-122444000D01*
X175795714Y-122372571D01*
X174438571Y-123658285D02*
X175938571Y-124158285D01*
X174438571Y-124658285D01*
X163770571Y-123158285D02*
X163770571Y-122444000D01*
X164484857Y-122372571D01*
X164413428Y-122444000D01*
X164342000Y-122586857D01*
X164342000Y-122944000D01*
X164413428Y-123086857D01*
X164484857Y-123158285D01*
X164627714Y-123229714D01*
X164984857Y-123229714D01*
X165127714Y-123158285D01*
X165199142Y-123086857D01*
X165270571Y-122944000D01*
X165270571Y-122586857D01*
X165199142Y-122444000D01*
X165127714Y-122372571D01*
X163770571Y-123658285D02*
X165270571Y-124158285D01*
X163770571Y-124658285D01*
D11*
X232988571Y-71314571D02*
X232988571Y-72386000D01*
X233060000Y-72600285D01*
X233202857Y-72743142D01*
X233417142Y-72814571D01*
X233560000Y-72814571D01*
X231560000Y-72814571D02*
X232274285Y-72814571D01*
X232274285Y-71314571D01*
X230202857Y-72671714D02*
X230274285Y-72743142D01*
X230488571Y-72814571D01*
X230631428Y-72814571D01*
X230845714Y-72743142D01*
X230988571Y-72600285D01*
X231060000Y-72457428D01*
X231131428Y-72171714D01*
X231131428Y-71957428D01*
X231060000Y-71671714D01*
X230988571Y-71528857D01*
X230845714Y-71386000D01*
X230631428Y-71314571D01*
X230488571Y-71314571D01*
X230274285Y-71386000D01*
X230202857Y-71457428D01*
X229131428Y-71314571D02*
X229131428Y-72386000D01*
X229202857Y-72600285D01*
X229345714Y-72743142D01*
X229560000Y-72814571D01*
X229702857Y-72814571D01*
X227702857Y-72814571D02*
X228417142Y-72814571D01*
X228417142Y-71314571D01*
X226345714Y-72671714D02*
X226417142Y-72743142D01*
X226631428Y-72814571D01*
X226774285Y-72814571D01*
X226988571Y-72743142D01*
X227131428Y-72600285D01*
X227202857Y-72457428D01*
X227274285Y-72171714D01*
X227274285Y-71957428D01*
X227202857Y-71671714D01*
X227131428Y-71528857D01*
X226988571Y-71386000D01*
X226774285Y-71314571D01*
X226631428Y-71314571D01*
X226417142Y-71386000D01*
X226345714Y-71457428D01*
X225274285Y-71314571D02*
X225274285Y-72386000D01*
X225345714Y-72600285D01*
X225488571Y-72743142D01*
X225702857Y-72814571D01*
X225845714Y-72814571D01*
X223845714Y-72814571D02*
X224560000Y-72814571D01*
X224560000Y-71314571D01*
X222488571Y-72671714D02*
X222560000Y-72743142D01*
X222774285Y-72814571D01*
X222917142Y-72814571D01*
X223131428Y-72743142D01*
X223274285Y-72600285D01*
X223345714Y-72457428D01*
X223417142Y-72171714D01*
X223417142Y-71957428D01*
X223345714Y-71671714D01*
X223274285Y-71528857D01*
X223131428Y-71386000D01*
X222917142Y-71314571D01*
X222774285Y-71314571D01*
X222560000Y-71386000D01*
X222488571Y-71457428D01*
X221417142Y-71314571D02*
X221417142Y-72386000D01*
X221488571Y-72600285D01*
X221631428Y-72743142D01*
X221845714Y-72814571D01*
X221988571Y-72814571D01*
X219988571Y-72814571D02*
X220702857Y-72814571D01*
X220702857Y-71314571D01*
X218631428Y-72671714D02*
X218702857Y-72743142D01*
X218917142Y-72814571D01*
X219060000Y-72814571D01*
X219274285Y-72743142D01*
X219417142Y-72600285D01*
X219488571Y-72457428D01*
X219560000Y-72171714D01*
X219560000Y-71957428D01*
X219488571Y-71671714D01*
X219417142Y-71528857D01*
X219274285Y-71386000D01*
X219060000Y-71314571D01*
X218917142Y-71314571D01*
X218702857Y-71386000D01*
X218631428Y-71457428D01*
D12*
X214374476Y-103883523D02*
X214088761Y-103978761D01*
X213612571Y-103978761D01*
X213422095Y-103883523D01*
X213326857Y-103788285D01*
X213231619Y-103597809D01*
X213231619Y-103407333D01*
X213326857Y-103216857D01*
X213422095Y-103121619D01*
X213612571Y-103026380D01*
X213993523Y-102931142D01*
X214184000Y-102835904D01*
X214279238Y-102740666D01*
X214374476Y-102550190D01*
X214374476Y-102359714D01*
X214279238Y-102169238D01*
X214184000Y-102074000D01*
X213993523Y-101978761D01*
X213517333Y-101978761D01*
X213231619Y-102074000D01*
X212374476Y-103978761D02*
X212374476Y-101978761D01*
X211898285Y-101978761D01*
X211612571Y-102074000D01*
X211422095Y-102264476D01*
X211326857Y-102454952D01*
X211231619Y-102835904D01*
X211231619Y-103121619D01*
X211326857Y-103502571D01*
X211422095Y-103693047D01*
X211612571Y-103883523D01*
X211898285Y-103978761D01*
X212374476Y-103978761D01*
X210469714Y-103407333D02*
X209517333Y-103407333D01*
X210660190Y-103978761D02*
X209993523Y-101978761D01*
X209326857Y-103978761D01*
X207326857Y-104169238D02*
X207517333Y-104074000D01*
X207707809Y-103883523D01*
X207993523Y-103597809D01*
X208184000Y-103502571D01*
X208374476Y-103502571D01*
X208279238Y-103978761D02*
X208469714Y-103883523D01*
X208660190Y-103693047D01*
X208755428Y-103312095D01*
X208755428Y-102645428D01*
X208660190Y-102264476D01*
X208469714Y-102074000D01*
X208279238Y-101978761D01*
X207898285Y-101978761D01*
X207707809Y-102074000D01*
X207517333Y-102264476D01*
X207422095Y-102645428D01*
X207422095Y-103312095D01*
X207517333Y-103693047D01*
X207707809Y-103883523D01*
X207898285Y-103978761D01*
X208279238Y-103978761D01*
X205136380Y-103407333D02*
X204184000Y-103407333D01*
X205326857Y-103978761D02*
X204660190Y-101978761D01*
X203993523Y-103978761D01*
X203326857Y-103978761D02*
X203326857Y-101978761D01*
X202850666Y-101978761D01*
X202564952Y-102074000D01*
X202374476Y-102264476D01*
X202279238Y-102454952D01*
X202184000Y-102835904D01*
X202184000Y-103121619D01*
X202279238Y-103502571D01*
X202374476Y-103693047D01*
X202564952Y-103883523D01*
X202850666Y-103978761D01*
X203326857Y-103978761D01*
X200184000Y-103788285D02*
X200279238Y-103883523D01*
X200564952Y-103978761D01*
X200755428Y-103978761D01*
X201041142Y-103883523D01*
X201231619Y-103693047D01*
X201326857Y-103502571D01*
X201422095Y-103121619D01*
X201422095Y-102835904D01*
X201326857Y-102454952D01*
X201231619Y-102264476D01*
X201041142Y-102074000D01*
X200755428Y-101978761D01*
X200564952Y-101978761D01*
X200279238Y-102074000D01*
X200184000Y-102169238D01*
X197136380Y-102931142D02*
X196850666Y-103026380D01*
X196755428Y-103121619D01*
X196660190Y-103312095D01*
X196660190Y-103597809D01*
X196755428Y-103788285D01*
X196850666Y-103883523D01*
X197041142Y-103978761D01*
X197803047Y-103978761D01*
X197803047Y-101978761D01*
X197136380Y-101978761D01*
X196945904Y-102074000D01*
X196850666Y-102169238D01*
X196755428Y-102359714D01*
X196755428Y-102550190D01*
X196850666Y-102740666D01*
X196945904Y-102835904D01*
X197136380Y-102931142D01*
X197803047Y-102931142D01*
X195517333Y-103978761D02*
X195707809Y-103883523D01*
X195803047Y-103788285D01*
X195898285Y-103597809D01*
X195898285Y-103026380D01*
X195803047Y-102835904D01*
X195707809Y-102740666D01*
X195517333Y-102645428D01*
X195231619Y-102645428D01*
X195041142Y-102740666D01*
X194945904Y-102835904D01*
X194850666Y-103026380D01*
X194850666Y-103597809D01*
X194945904Y-103788285D01*
X195041142Y-103883523D01*
X195231619Y-103978761D01*
X195517333Y-103978761D01*
X193136380Y-103978761D02*
X193136380Y-102931142D01*
X193231619Y-102740666D01*
X193422095Y-102645428D01*
X193803047Y-102645428D01*
X193993523Y-102740666D01*
X193136380Y-103883523D02*
X193326857Y-103978761D01*
X193803047Y-103978761D01*
X193993523Y-103883523D01*
X194088761Y-103693047D01*
X194088761Y-103502571D01*
X193993523Y-103312095D01*
X193803047Y-103216857D01*
X193326857Y-103216857D01*
X193136380Y-103121619D01*
X192184000Y-103978761D02*
X192184000Y-102645428D01*
X192184000Y-103026380D02*
X192088761Y-102835904D01*
X191993523Y-102740666D01*
X191803047Y-102645428D01*
X191612571Y-102645428D01*
X190088761Y-103978761D02*
X190088761Y-101978761D01*
X190088761Y-103883523D02*
X190279238Y-103978761D01*
X190660190Y-103978761D01*
X190850666Y-103883523D01*
X190945904Y-103788285D01*
X191041142Y-103597809D01*
X191041142Y-103026380D01*
X190945904Y-102835904D01*
X190850666Y-102740666D01*
X190660190Y-102645428D01*
X190279238Y-102645428D01*
X190088761Y-102740666D01*
X208374476Y-107178761D02*
X209041142Y-106226380D01*
X209517333Y-107178761D02*
X209517333Y-105178761D01*
X208755428Y-105178761D01*
X208564952Y-105274000D01*
X208469714Y-105369238D01*
X208374476Y-105559714D01*
X208374476Y-105845428D01*
X208469714Y-106035904D01*
X208564952Y-106131142D01*
X208755428Y-106226380D01*
X209517333Y-106226380D01*
X206755428Y-107083523D02*
X206945904Y-107178761D01*
X207326857Y-107178761D01*
X207517333Y-107083523D01*
X207612571Y-106893047D01*
X207612571Y-106131142D01*
X207517333Y-105940666D01*
X207326857Y-105845428D01*
X206945904Y-105845428D01*
X206755428Y-105940666D01*
X206660190Y-106131142D01*
X206660190Y-106321619D01*
X207612571Y-106512095D01*
X205993523Y-105845428D02*
X205517333Y-107178761D01*
X205041142Y-105845428D01*
X204279238Y-107178761D02*
X204279238Y-105845428D01*
X204279238Y-105178761D02*
X204374476Y-105274000D01*
X204279238Y-105369238D01*
X204184000Y-105274000D01*
X204279238Y-105178761D01*
X204279238Y-105369238D01*
X203422095Y-107083523D02*
X203231619Y-107178761D01*
X202850666Y-107178761D01*
X202660190Y-107083523D01*
X202564952Y-106893047D01*
X202564952Y-106797809D01*
X202660190Y-106607333D01*
X202850666Y-106512095D01*
X203136380Y-106512095D01*
X203326857Y-106416857D01*
X203422095Y-106226380D01*
X203422095Y-106131142D01*
X203326857Y-105940666D01*
X203136380Y-105845428D01*
X202850666Y-105845428D01*
X202660190Y-105940666D01*
X201707809Y-107178761D02*
X201707809Y-105845428D01*
X201707809Y-105178761D02*
X201803047Y-105274000D01*
X201707809Y-105369238D01*
X201612571Y-105274000D01*
X201707809Y-105178761D01*
X201707809Y-105369238D01*
X200469714Y-107178761D02*
X200660190Y-107083523D01*
X200755428Y-106988285D01*
X200850666Y-106797809D01*
X200850666Y-106226380D01*
X200755428Y-106035904D01*
X200660190Y-105940666D01*
X200469714Y-105845428D01*
X200184000Y-105845428D01*
X199993523Y-105940666D01*
X199898285Y-106035904D01*
X199803047Y-106226380D01*
X199803047Y-106797809D01*
X199898285Y-106988285D01*
X199993523Y-107083523D01*
X200184000Y-107178761D01*
X200469714Y-107178761D01*
X198945904Y-105845428D02*
X198945904Y-107178761D01*
X198945904Y-106035904D02*
X198850666Y-105940666D01*
X198660190Y-105845428D01*
X198374476Y-105845428D01*
X198184000Y-105940666D01*
X198088761Y-106131142D01*
X198088761Y-107178761D01*
X195707809Y-106607333D02*
X194755428Y-106607333D01*
X195898285Y-107178761D02*
X195231619Y-105178761D01*
X194564952Y-107178761D01*
X210564952Y-110188285D02*
X210660190Y-110283523D01*
X210945904Y-110378761D01*
X211136380Y-110378761D01*
X211422095Y-110283523D01*
X211612571Y-110093047D01*
X211707809Y-109902571D01*
X211803047Y-109521619D01*
X211803047Y-109235904D01*
X211707809Y-108854952D01*
X211612571Y-108664476D01*
X211422095Y-108474000D01*
X211136380Y-108378761D01*
X210945904Y-108378761D01*
X210660190Y-108474000D01*
X210564952Y-108569238D01*
X209707809Y-110378761D02*
X209707809Y-108378761D01*
X208850666Y-110378761D02*
X208850666Y-109331142D01*
X208945904Y-109140666D01*
X209136380Y-109045428D01*
X209422095Y-109045428D01*
X209612571Y-109140666D01*
X209707809Y-109235904D01*
X207898285Y-110378761D02*
X207898285Y-109045428D01*
X207898285Y-109426380D02*
X207803047Y-109235904D01*
X207707809Y-109140666D01*
X207517333Y-109045428D01*
X207326857Y-109045428D01*
X206660190Y-110378761D02*
X206660190Y-109045428D01*
X206660190Y-108378761D02*
X206755428Y-108474000D01*
X206660190Y-108569238D01*
X206564952Y-108474000D01*
X206660190Y-108378761D01*
X206660190Y-108569238D01*
X205803047Y-110283523D02*
X205612571Y-110378761D01*
X205231619Y-110378761D01*
X205041142Y-110283523D01*
X204945904Y-110093047D01*
X204945904Y-109997809D01*
X205041142Y-109807333D01*
X205231619Y-109712095D01*
X205517333Y-109712095D01*
X205707809Y-109616857D01*
X205803047Y-109426380D01*
X205803047Y-109331142D01*
X205707809Y-109140666D01*
X205517333Y-109045428D01*
X205231619Y-109045428D01*
X205041142Y-109140666D01*
X202755428Y-108378761D02*
X202279238Y-110378761D01*
X201898285Y-108950190D01*
X201517333Y-110378761D01*
X201041142Y-108378761D01*
X199422095Y-110378761D02*
X199422095Y-109331142D01*
X199517333Y-109140666D01*
X199707809Y-109045428D01*
X200088761Y-109045428D01*
X200279238Y-109140666D01*
X199422095Y-110283523D02*
X199612571Y-110378761D01*
X200088761Y-110378761D01*
X200279238Y-110283523D01*
X200374476Y-110093047D01*
X200374476Y-109902571D01*
X200279238Y-109712095D01*
X200088761Y-109616857D01*
X199612571Y-109616857D01*
X199422095Y-109521619D01*
X198184000Y-110378761D02*
X198374476Y-110283523D01*
X198469714Y-110093047D01*
X198469714Y-108378761D01*
X197707809Y-109045428D02*
X196945904Y-109045428D01*
X197422095Y-108378761D02*
X197422095Y-110093047D01*
X197326857Y-110283523D01*
X197136380Y-110378761D01*
X196945904Y-110378761D01*
X195517333Y-110283523D02*
X195707809Y-110378761D01*
X196088761Y-110378761D01*
X196279238Y-110283523D01*
X196374476Y-110093047D01*
X196374476Y-109331142D01*
X196279238Y-109140666D01*
X196088761Y-109045428D01*
X195707809Y-109045428D01*
X195517333Y-109140666D01*
X195422095Y-109331142D01*
X195422095Y-109521619D01*
X196374476Y-109712095D01*
X194564952Y-110378761D02*
X194564952Y-109045428D01*
X194564952Y-109426380D02*
X194469714Y-109235904D01*
X194374476Y-109140666D01*
X194184000Y-109045428D01*
X193993523Y-109045428D01*
X193422095Y-110283523D02*
X193231619Y-110378761D01*
X192850666Y-110378761D01*
X192660190Y-110283523D01*
X192564952Y-110093047D01*
X192564952Y-109997809D01*
X192660190Y-109807333D01*
X192850666Y-109712095D01*
X193136380Y-109712095D01*
X193326857Y-109616857D01*
X193422095Y-109426380D01*
X193422095Y-109331142D01*
X193326857Y-109140666D01*
X193136380Y-109045428D01*
X192850666Y-109045428D01*
X192660190Y-109140666D01*
X213993523Y-114340666D02*
X214088761Y-114245428D01*
X214279238Y-113959714D01*
X214374476Y-113769238D01*
X214469714Y-113483523D01*
X214564952Y-113007333D01*
X214564952Y-112626380D01*
X214469714Y-112150190D01*
X214374476Y-111864476D01*
X214279238Y-111674000D01*
X214088761Y-111388285D01*
X213993523Y-111293047D01*
X212279238Y-111578761D02*
X213231619Y-111578761D01*
X213326857Y-112531142D01*
X213231619Y-112435904D01*
X213041142Y-112340666D01*
X212564952Y-112340666D01*
X212374476Y-112435904D01*
X212279238Y-112531142D01*
X212184000Y-112721619D01*
X212184000Y-113197809D01*
X212279238Y-113388285D01*
X212374476Y-113483523D01*
X212564952Y-113578761D01*
X213041142Y-113578761D01*
X213231619Y-113483523D01*
X213326857Y-113388285D01*
X210945904Y-111578761D02*
X210755428Y-111578761D01*
X210564952Y-111674000D01*
X210469714Y-111769238D01*
X210374476Y-111959714D01*
X210279238Y-112340666D01*
X210279238Y-112816857D01*
X210374476Y-113197809D01*
X210469714Y-113388285D01*
X210564952Y-113483523D01*
X210755428Y-113578761D01*
X210945904Y-113578761D01*
X211136380Y-113483523D01*
X211231619Y-113388285D01*
X211326857Y-113197809D01*
X211422095Y-112816857D01*
X211422095Y-112340666D01*
X211326857Y-111959714D01*
X211231619Y-111769238D01*
X211136380Y-111674000D01*
X210945904Y-111578761D01*
X209136380Y-112435904D02*
X209326857Y-112340666D01*
X209422095Y-112245428D01*
X209517333Y-112054952D01*
X209517333Y-111959714D01*
X209422095Y-111769238D01*
X209326857Y-111674000D01*
X209136380Y-111578761D01*
X208755428Y-111578761D01*
X208564952Y-111674000D01*
X208469714Y-111769238D01*
X208374476Y-111959714D01*
X208374476Y-112054952D01*
X208469714Y-112245428D01*
X208564952Y-112340666D01*
X208755428Y-112435904D01*
X209136380Y-112435904D01*
X209326857Y-112531142D01*
X209422095Y-112626380D01*
X209517333Y-112816857D01*
X209517333Y-113197809D01*
X209422095Y-113388285D01*
X209326857Y-113483523D01*
X209136380Y-113578761D01*
X208755428Y-113578761D01*
X208564952Y-113483523D01*
X208469714Y-113388285D01*
X208374476Y-113197809D01*
X208374476Y-112816857D01*
X208469714Y-112626380D01*
X208564952Y-112531142D01*
X208755428Y-112435904D01*
X207707809Y-114340666D02*
X207612571Y-114245428D01*
X207422095Y-113959714D01*
X207326857Y-113769238D01*
X207231619Y-113483523D01*
X207136380Y-113007333D01*
X207136380Y-112626380D01*
X207231619Y-112150190D01*
X207326857Y-111864476D01*
X207422095Y-111674000D01*
X207612571Y-111388285D01*
X207707809Y-111293047D01*
X204564952Y-113578761D02*
X204184000Y-113578761D01*
X203993523Y-113483523D01*
X203898285Y-113388285D01*
X203707809Y-113102571D01*
X203612571Y-112721619D01*
X203612571Y-111959714D01*
X203707809Y-111769238D01*
X203803047Y-111674000D01*
X203993523Y-111578761D01*
X204374476Y-111578761D01*
X204564952Y-111674000D01*
X204660190Y-111769238D01*
X204755428Y-111959714D01*
X204755428Y-112435904D01*
X204660190Y-112626380D01*
X204564952Y-112721619D01*
X204374476Y-112816857D01*
X203993523Y-112816857D01*
X203803047Y-112721619D01*
X203707809Y-112626380D01*
X203612571Y-112435904D01*
X202945904Y-111578761D02*
X201612571Y-111578761D01*
X202469714Y-113578761D01*
X199898285Y-111578761D02*
X200850666Y-111578761D01*
X200945904Y-112531142D01*
X200850666Y-112435904D01*
X200660190Y-112340666D01*
X200184000Y-112340666D01*
X199993523Y-112435904D01*
X199898285Y-112531142D01*
X199803047Y-112721619D01*
X199803047Y-113197809D01*
X199898285Y-113388285D01*
X199993523Y-113483523D01*
X200184000Y-113578761D01*
X200660190Y-113578761D01*
X200850666Y-113483523D01*
X200945904Y-113388285D01*
X198945904Y-112816857D02*
X197422095Y-112816857D01*
X196660190Y-111578761D02*
X195422095Y-111578761D01*
X196088761Y-112340666D01*
X195803047Y-112340666D01*
X195612571Y-112435904D01*
X195517333Y-112531142D01*
X195422095Y-112721619D01*
X195422095Y-113197809D01*
X195517333Y-113388285D01*
X195612571Y-113483523D01*
X195803047Y-113578761D01*
X196374476Y-113578761D01*
X196564952Y-113483523D01*
X196660190Y-113388285D01*
X194755428Y-111578761D02*
X193517333Y-111578761D01*
X194184000Y-112340666D01*
X193898285Y-112340666D01*
X193707809Y-112435904D01*
X193612571Y-112531142D01*
X193517333Y-112721619D01*
X193517333Y-113197809D01*
X193612571Y-113388285D01*
X193707809Y-113483523D01*
X193898285Y-113578761D01*
X194469714Y-113578761D01*
X194660190Y-113483523D01*
X194755428Y-113388285D01*
X192850666Y-111578761D02*
X191612571Y-111578761D01*
X192279238Y-112340666D01*
X191993523Y-112340666D01*
X191803047Y-112435904D01*
X191707809Y-112531142D01*
X191612571Y-112721619D01*
X191612571Y-113197809D01*
X191707809Y-113388285D01*
X191803047Y-113483523D01*
X191993523Y-113578761D01*
X192564952Y-113578761D01*
X192755428Y-113483523D01*
X192850666Y-113388285D01*
X190945904Y-111578761D02*
X189612571Y-111578761D01*
X190469714Y-113578761D01*
X207041142Y-116778761D02*
X207707809Y-115826380D01*
X208184000Y-116778761D02*
X208184000Y-114778761D01*
X207422095Y-114778761D01*
X207231619Y-114874000D01*
X207136380Y-114969238D01*
X207041142Y-115159714D01*
X207041142Y-115445428D01*
X207136380Y-115635904D01*
X207231619Y-115731142D01*
X207422095Y-115826380D01*
X208184000Y-115826380D01*
X206184000Y-116778761D02*
X206184000Y-114778761D01*
X205517333Y-114778761D02*
X204374476Y-114778761D01*
X204945904Y-116778761D02*
X204945904Y-114778761D01*
X201517333Y-115731142D02*
X201231619Y-115826380D01*
X201136380Y-115921619D01*
X201041142Y-116112095D01*
X201041142Y-116397809D01*
X201136380Y-116588285D01*
X201231619Y-116683523D01*
X201422095Y-116778761D01*
X202184000Y-116778761D01*
X202184000Y-114778761D01*
X201517333Y-114778761D01*
X201326857Y-114874000D01*
X201231619Y-114969238D01*
X201136380Y-115159714D01*
X201136380Y-115350190D01*
X201231619Y-115540666D01*
X201326857Y-115635904D01*
X201517333Y-115731142D01*
X202184000Y-115731142D01*
X200279238Y-116207333D02*
X199326857Y-116207333D01*
X200469714Y-116778761D02*
X199803047Y-114778761D01*
X199136380Y-116778761D01*
X197898285Y-114778761D02*
X197898285Y-116207333D01*
X197993523Y-116493047D01*
X198184000Y-116683523D01*
X198469714Y-116778761D01*
X198660190Y-116778761D01*
X197041142Y-116207333D02*
X196088761Y-116207333D01*
X197231619Y-116778761D02*
X196564952Y-114778761D01*
X195898285Y-116778761D01*
D13*
%TO.C,J3*%
X195467000Y-75946000D02*
G75*
G03*
X195467000Y-75946000I-381000J0D01*
G01*
%TO.C,J5*%
X178467000Y-75946000D02*
G75*
G03*
X178467000Y-75946000I-381000J0D01*
G01*
%TO.C,J7*%
X212467000Y-75946000D02*
G75*
G03*
X212467000Y-75946000I-381000J0D01*
G01*
%TO.C,J9*%
X161747000Y-120142000D02*
G75*
G03*
X161747000Y-120142000I-381000J0D01*
G01*
%TO.C,J14*%
X195747000Y-120142000D02*
G75*
G03*
X195747000Y-120142000I-381000J0D01*
G01*
%TO.C,J16*%
X178747000Y-120142000D02*
G75*
G03*
X178747000Y-120142000I-381000J0D01*
G01*
%TD*%
M02*
