%TF.GenerationSoftware,KiCad,Pcbnew,(5.1.10)-1*%
%TF.CreationDate,2022-02-02T21:42:12-05:00*%
%TF.ProjectId,RevA,52657641-2e6b-4696-9361-645f70636258,rev?*%
%TF.SameCoordinates,Original*%
%TF.FileFunction,Soldermask,Bot*%
%TF.FilePolarity,Negative*%
%FSLAX46Y46*%
G04 Gerber Fmt 4.6, Leading zero omitted, Abs format (unit mm)*
G04 Created by KiCad (PCBNEW (5.1.10)-1) date 2022-02-02 21:42:12*
%MOMM*%
%LPD*%
G01*
G04 APERTURE LIST*
%ADD10R,1.700000X1.700000*%
%ADD11O,1.700000X1.700000*%
%ADD12C,2.700000*%
%ADD13C,1.498600*%
G04 APERTURE END LIST*
D10*
%TO.C,J1*%
X163000000Y-86570000D03*
D11*
X165540000Y-86570000D03*
X163000000Y-89110000D03*
X165540000Y-89110000D03*
X163000000Y-91650000D03*
X165540000Y-91650000D03*
X163000000Y-94190000D03*
X165540000Y-94190000D03*
X163000000Y-96730000D03*
X165540000Y-96730000D03*
X163000000Y-99270000D03*
X165540000Y-99270000D03*
X163000000Y-101810000D03*
X165540000Y-101810000D03*
X163000000Y-104350000D03*
X165540000Y-104350000D03*
X163000000Y-106890000D03*
X165540000Y-106890000D03*
X163000000Y-109430000D03*
X165540000Y-109430000D03*
%TD*%
D10*
%TO.C,J2*%
X239500000Y-84030000D03*
D11*
X242040000Y-84030000D03*
X239500000Y-86570000D03*
X242040000Y-86570000D03*
X239500000Y-89110000D03*
X242040000Y-89110000D03*
X239500000Y-91650000D03*
X242040000Y-91650000D03*
X239500000Y-94190000D03*
X242040000Y-94190000D03*
X239500000Y-96730000D03*
X242040000Y-96730000D03*
X239500000Y-99270000D03*
X242040000Y-99270000D03*
X239500000Y-101810000D03*
X242040000Y-101810000D03*
X239500000Y-104350000D03*
X242040000Y-104350000D03*
X239500000Y-106890000D03*
X242040000Y-106890000D03*
X239500000Y-109430000D03*
X242040000Y-109430000D03*
X239500000Y-111970000D03*
X242040000Y-111970000D03*
%TD*%
%TO.C,J4*%
X177250000Y-97620000D03*
X177250000Y-95080000D03*
D10*
X177250000Y-92540000D03*
%TD*%
D11*
%TO.C,J6*%
X182250000Y-97620000D03*
X182250000Y-95080000D03*
D10*
X182250000Y-92540000D03*
%TD*%
D11*
%TO.C,J8*%
X187250000Y-97620000D03*
X187250000Y-95080000D03*
D10*
X187250000Y-92540000D03*
%TD*%
D11*
%TO.C,J10*%
X192250000Y-97620000D03*
X192250000Y-95080000D03*
D10*
X192250000Y-92540000D03*
%TD*%
%TO.C,J11*%
X217760000Y-77000000D03*
D11*
X217760000Y-79540000D03*
X217760000Y-82080000D03*
X217760000Y-84620000D03*
X217760000Y-87160000D03*
X217760000Y-89700000D03*
X217760000Y-92240000D03*
X217760000Y-94780000D03*
X217760000Y-97320000D03*
X217760000Y-99860000D03*
X217760000Y-102400000D03*
X217760000Y-104940000D03*
X217760000Y-107480000D03*
X217760000Y-110020000D03*
X217760000Y-112560000D03*
%TD*%
%TO.C,J12*%
X233000000Y-112560000D03*
X233000000Y-110020000D03*
X233000000Y-107480000D03*
X233000000Y-104940000D03*
X233000000Y-102400000D03*
X233000000Y-99860000D03*
X233000000Y-97320000D03*
X233000000Y-94780000D03*
X233000000Y-92240000D03*
X233000000Y-89700000D03*
X233000000Y-87160000D03*
X233000000Y-84620000D03*
X233000000Y-82080000D03*
X233000000Y-79540000D03*
D10*
X233000000Y-77000000D03*
%TD*%
%TO.C,J13*%
X226822000Y-101600000D03*
D11*
X224282000Y-101600000D03*
X226822000Y-99060000D03*
X224282000Y-99060000D03*
X226822000Y-96520000D03*
X224282000Y-96520000D03*
%TD*%
D12*
%TO.C,M2.5*%
X202500000Y-98000000D03*
%TD*%
D13*
%TO.C,J3*%
X181323998Y-75946000D03*
X184823999Y-75946000D03*
X188323999Y-75946000D03*
X191824000Y-75946000D03*
%TD*%
%TO.C,J5*%
X174824000Y-75946000D03*
X171323999Y-75946000D03*
X167823999Y-75946000D03*
X164323998Y-75946000D03*
%TD*%
%TO.C,J7*%
X198323998Y-75946000D03*
X201823999Y-75946000D03*
X205323999Y-75946000D03*
X208824000Y-75946000D03*
%TD*%
%TO.C,J9*%
X164628000Y-120142000D03*
X168128001Y-120142000D03*
X171628001Y-120142000D03*
X175128002Y-120142000D03*
%TD*%
%TO.C,J14*%
X198628000Y-120142000D03*
X202128001Y-120142000D03*
X205628001Y-120142000D03*
X209128002Y-120142000D03*
%TD*%
%TO.C,J16*%
X181628000Y-120142000D03*
X185128001Y-120142000D03*
X188628001Y-120142000D03*
X192128002Y-120142000D03*
%TD*%
M02*
