%TF.GenerationSoftware,KiCad,Pcbnew,(5.1.10)-1*%
%TF.CreationDate,2022-02-08T13:03:54-05:00*%
%TF.ProjectId,Strain_Guage_Schematic,53747261-696e-45f4-9775-6167655f5363,rev?*%
%TF.SameCoordinates,Original*%
%TF.FileFunction,Legend,Top*%
%TF.FilePolarity,Positive*%
%FSLAX46Y46*%
G04 Gerber Fmt 4.6, Leading zero omitted, Abs format (unit mm)*
G04 Created by KiCad (PCBNEW (5.1.10)-1) date 2022-02-08 13:03:54*
%MOMM*%
%LPD*%
G01*
G04 APERTURE LIST*
%ADD10C,0.120000*%
%ADD11C,0.127000*%
%ADD12C,0.200000*%
%ADD13C,0.150000*%
G04 APERTURE END LIST*
D10*
%TO.C,C1*%
X90477000Y-47107580D02*
X90477000Y-46826420D01*
X91497000Y-47107580D02*
X91497000Y-46826420D01*
%TO.C,C2*%
X93402000Y-47107580D02*
X93402000Y-46826420D01*
X92382000Y-47107580D02*
X92382000Y-46826420D01*
%TO.C,C3*%
X97831420Y-47219000D02*
X98112580Y-47219000D01*
X97831420Y-48239000D02*
X98112580Y-48239000D01*
%TO.C,C4*%
X88042000Y-43584000D02*
X91952000Y-43584000D01*
X88042000Y-41714000D02*
X88042000Y-43584000D01*
X91952000Y-41714000D02*
X88042000Y-41714000D01*
%TO.C,C5*%
X89465000Y-47107580D02*
X89465000Y-46826420D01*
X88445000Y-47107580D02*
X88445000Y-46826420D01*
%TO.C,C6*%
X78162000Y-42535580D02*
X78162000Y-42254420D01*
X77142000Y-42535580D02*
X77142000Y-42254420D01*
%TO.C,C7*%
X95942000Y-47869580D02*
X95942000Y-47588420D01*
X94922000Y-47869580D02*
X94922000Y-47588420D01*
%TO.C,C8*%
X85385420Y-42012000D02*
X85666580Y-42012000D01*
X85385420Y-43032000D02*
X85666580Y-43032000D01*
%TO.C,C9*%
X75110000Y-48504580D02*
X75110000Y-48223420D01*
X76130000Y-48504580D02*
X76130000Y-48223420D01*
%TO.C,J1*%
X97404000Y-41837000D02*
X98099000Y-41837000D01*
X97404000Y-42522000D02*
X97404000Y-41837000D01*
X98707276Y-43207000D02*
X98794000Y-43207000D01*
X97404000Y-43207000D02*
X97490724Y-43207000D01*
X98794000Y-43207000D02*
X98794000Y-45082000D01*
X97404000Y-43207000D02*
X97404000Y-45082000D01*
X98493493Y-45082000D02*
X98794000Y-45082000D01*
X97404000Y-45082000D02*
X97704507Y-45082000D01*
%TO.C,J2*%
X68829000Y-47552000D02*
X69524000Y-47552000D01*
X68829000Y-48237000D02*
X68829000Y-47552000D01*
X70132276Y-48922000D02*
X70219000Y-48922000D01*
X68829000Y-48922000D02*
X68915724Y-48922000D01*
X70219000Y-48922000D02*
X70219000Y-49797000D01*
X68829000Y-48922000D02*
X68829000Y-49797000D01*
X69918493Y-49797000D02*
X70219000Y-49797000D01*
X68829000Y-49797000D02*
X69129507Y-49797000D01*
%TO.C,R2*%
X77129500Y-48126742D02*
X77129500Y-48601258D01*
X78174500Y-48126742D02*
X78174500Y-48601258D01*
%TO.C,R3*%
X80716742Y-43171500D02*
X81191258Y-43171500D01*
X80716742Y-42126500D02*
X81191258Y-42126500D01*
%TO.C,R4*%
X94559742Y-42126500D02*
X95034258Y-42126500D01*
X94559742Y-43171500D02*
X95034258Y-43171500D01*
%TO.C,RP1*%
X82283000Y-51422000D02*
X82283000Y-56492000D01*
X72513000Y-51422000D02*
X72513000Y-56492000D01*
X72513000Y-56492000D02*
X82283000Y-56492000D01*
X72513000Y-51422000D02*
X82283000Y-51422000D01*
%TO.C,R6*%
X73856500Y-45680258D02*
X73856500Y-45205742D01*
X72811500Y-45680258D02*
X72811500Y-45205742D01*
%TO.C,R7*%
X73350742Y-41999500D02*
X73825258Y-41999500D01*
X73350742Y-43044500D02*
X73825258Y-43044500D01*
%TO.C,R8*%
X70048742Y-43044500D02*
X70523258Y-43044500D01*
X70048742Y-41999500D02*
X70523258Y-41999500D01*
%TO.C,R9*%
X72811500Y-49109258D02*
X72811500Y-48634742D01*
X73856500Y-49109258D02*
X73856500Y-48634742D01*
D11*
%TO.C,U1*%
X85571000Y-44950000D02*
X81671000Y-44950000D01*
X85571000Y-50000000D02*
X81671000Y-50000000D01*
D12*
X87761000Y-49780000D02*
G75*
G03*
X87761000Y-49780000I-100000J0D01*
G01*
%TO.C,C1*%
D13*
X90820333Y-45165142D02*
X90772714Y-45212761D01*
X90629857Y-45260380D01*
X90534619Y-45260380D01*
X90391761Y-45212761D01*
X90296523Y-45117523D01*
X90248904Y-45022285D01*
X90201285Y-44831809D01*
X90201285Y-44688952D01*
X90248904Y-44498476D01*
X90296523Y-44403238D01*
X90391761Y-44308000D01*
X90534619Y-44260380D01*
X90629857Y-44260380D01*
X90772714Y-44308000D01*
X90820333Y-44355619D01*
X91772714Y-45260380D02*
X91201285Y-45260380D01*
X91487000Y-45260380D02*
X91487000Y-44260380D01*
X91391761Y-44403238D01*
X91296523Y-44498476D01*
X91201285Y-44546095D01*
%TO.C,C2*%
X92725333Y-45038142D02*
X92677714Y-45085761D01*
X92534857Y-45133380D01*
X92439619Y-45133380D01*
X92296761Y-45085761D01*
X92201523Y-44990523D01*
X92153904Y-44895285D01*
X92106285Y-44704809D01*
X92106285Y-44561952D01*
X92153904Y-44371476D01*
X92201523Y-44276238D01*
X92296761Y-44181000D01*
X92439619Y-44133380D01*
X92534857Y-44133380D01*
X92677714Y-44181000D01*
X92725333Y-44228619D01*
X93106285Y-44228619D02*
X93153904Y-44181000D01*
X93249142Y-44133380D01*
X93487238Y-44133380D01*
X93582476Y-44181000D01*
X93630095Y-44228619D01*
X93677714Y-44323857D01*
X93677714Y-44419095D01*
X93630095Y-44561952D01*
X93058666Y-45133380D01*
X93677714Y-45133380D01*
%TO.C,C3*%
X97805333Y-46656142D02*
X97757714Y-46703761D01*
X97614857Y-46751380D01*
X97519619Y-46751380D01*
X97376761Y-46703761D01*
X97281523Y-46608523D01*
X97233904Y-46513285D01*
X97186285Y-46322809D01*
X97186285Y-46179952D01*
X97233904Y-45989476D01*
X97281523Y-45894238D01*
X97376761Y-45799000D01*
X97519619Y-45751380D01*
X97614857Y-45751380D01*
X97757714Y-45799000D01*
X97805333Y-45846619D01*
X98138666Y-45751380D02*
X98757714Y-45751380D01*
X98424380Y-46132333D01*
X98567238Y-46132333D01*
X98662476Y-46179952D01*
X98710095Y-46227571D01*
X98757714Y-46322809D01*
X98757714Y-46560904D01*
X98710095Y-46656142D01*
X98662476Y-46703761D01*
X98567238Y-46751380D01*
X98281523Y-46751380D01*
X98186285Y-46703761D01*
X98138666Y-46656142D01*
%TO.C,C4*%
X90185333Y-41256142D02*
X90137714Y-41303761D01*
X89994857Y-41351380D01*
X89899619Y-41351380D01*
X89756761Y-41303761D01*
X89661523Y-41208523D01*
X89613904Y-41113285D01*
X89566285Y-40922809D01*
X89566285Y-40779952D01*
X89613904Y-40589476D01*
X89661523Y-40494238D01*
X89756761Y-40399000D01*
X89899619Y-40351380D01*
X89994857Y-40351380D01*
X90137714Y-40399000D01*
X90185333Y-40446619D01*
X91042476Y-40684714D02*
X91042476Y-41351380D01*
X90804380Y-40303761D02*
X90566285Y-41018047D01*
X91185333Y-41018047D01*
%TO.C,C5*%
X88788333Y-45165142D02*
X88740714Y-45212761D01*
X88597857Y-45260380D01*
X88502619Y-45260380D01*
X88359761Y-45212761D01*
X88264523Y-45117523D01*
X88216904Y-45022285D01*
X88169285Y-44831809D01*
X88169285Y-44688952D01*
X88216904Y-44498476D01*
X88264523Y-44403238D01*
X88359761Y-44308000D01*
X88502619Y-44260380D01*
X88597857Y-44260380D01*
X88740714Y-44308000D01*
X88788333Y-44355619D01*
X89693095Y-44260380D02*
X89216904Y-44260380D01*
X89169285Y-44736571D01*
X89216904Y-44688952D01*
X89312142Y-44641333D01*
X89550238Y-44641333D01*
X89645476Y-44688952D01*
X89693095Y-44736571D01*
X89740714Y-44831809D01*
X89740714Y-45069904D01*
X89693095Y-45165142D01*
X89645476Y-45212761D01*
X89550238Y-45260380D01*
X89312142Y-45260380D01*
X89216904Y-45212761D01*
X89169285Y-45165142D01*
%TO.C,C6*%
X76579142Y-42561666D02*
X76626761Y-42609285D01*
X76674380Y-42752142D01*
X76674380Y-42847380D01*
X76626761Y-42990238D01*
X76531523Y-43085476D01*
X76436285Y-43133095D01*
X76245809Y-43180714D01*
X76102952Y-43180714D01*
X75912476Y-43133095D01*
X75817238Y-43085476D01*
X75722000Y-42990238D01*
X75674380Y-42847380D01*
X75674380Y-42752142D01*
X75722000Y-42609285D01*
X75769619Y-42561666D01*
X75674380Y-41704523D02*
X75674380Y-41895000D01*
X75722000Y-41990238D01*
X75769619Y-42037857D01*
X75912476Y-42133095D01*
X76102952Y-42180714D01*
X76483904Y-42180714D01*
X76579142Y-42133095D01*
X76626761Y-42085476D01*
X76674380Y-41990238D01*
X76674380Y-41799761D01*
X76626761Y-41704523D01*
X76579142Y-41656904D01*
X76483904Y-41609285D01*
X76245809Y-41609285D01*
X76150571Y-41656904D01*
X76102952Y-41704523D01*
X76055333Y-41799761D01*
X76055333Y-41990238D01*
X76102952Y-42085476D01*
X76150571Y-42133095D01*
X76245809Y-42180714D01*
%TO.C,C7*%
X95265333Y-45927142D02*
X95217714Y-45974761D01*
X95074857Y-46022380D01*
X94979619Y-46022380D01*
X94836761Y-45974761D01*
X94741523Y-45879523D01*
X94693904Y-45784285D01*
X94646285Y-45593809D01*
X94646285Y-45450952D01*
X94693904Y-45260476D01*
X94741523Y-45165238D01*
X94836761Y-45070000D01*
X94979619Y-45022380D01*
X95074857Y-45022380D01*
X95217714Y-45070000D01*
X95265333Y-45117619D01*
X95598666Y-45022380D02*
X96265333Y-45022380D01*
X95836761Y-46022380D01*
%TO.C,C8*%
X85359333Y-41449142D02*
X85311714Y-41496761D01*
X85168857Y-41544380D01*
X85073619Y-41544380D01*
X84930761Y-41496761D01*
X84835523Y-41401523D01*
X84787904Y-41306285D01*
X84740285Y-41115809D01*
X84740285Y-40972952D01*
X84787904Y-40782476D01*
X84835523Y-40687238D01*
X84930761Y-40592000D01*
X85073619Y-40544380D01*
X85168857Y-40544380D01*
X85311714Y-40592000D01*
X85359333Y-40639619D01*
X85930761Y-40972952D02*
X85835523Y-40925333D01*
X85787904Y-40877714D01*
X85740285Y-40782476D01*
X85740285Y-40734857D01*
X85787904Y-40639619D01*
X85835523Y-40592000D01*
X85930761Y-40544380D01*
X86121238Y-40544380D01*
X86216476Y-40592000D01*
X86264095Y-40639619D01*
X86311714Y-40734857D01*
X86311714Y-40782476D01*
X86264095Y-40877714D01*
X86216476Y-40925333D01*
X86121238Y-40972952D01*
X85930761Y-40972952D01*
X85835523Y-41020571D01*
X85787904Y-41068190D01*
X85740285Y-41163428D01*
X85740285Y-41353904D01*
X85787904Y-41449142D01*
X85835523Y-41496761D01*
X85930761Y-41544380D01*
X86121238Y-41544380D01*
X86216476Y-41496761D01*
X86264095Y-41449142D01*
X86311714Y-41353904D01*
X86311714Y-41163428D01*
X86264095Y-41068190D01*
X86216476Y-41020571D01*
X86121238Y-40972952D01*
%TO.C,C9*%
X76231142Y-45863666D02*
X76278761Y-45911285D01*
X76326380Y-46054142D01*
X76326380Y-46149380D01*
X76278761Y-46292238D01*
X76183523Y-46387476D01*
X76088285Y-46435095D01*
X75897809Y-46482714D01*
X75754952Y-46482714D01*
X75564476Y-46435095D01*
X75469238Y-46387476D01*
X75374000Y-46292238D01*
X75326380Y-46149380D01*
X75326380Y-46054142D01*
X75374000Y-45911285D01*
X75421619Y-45863666D01*
X76326380Y-45387476D02*
X76326380Y-45197000D01*
X76278761Y-45101761D01*
X76231142Y-45054142D01*
X76088285Y-44958904D01*
X75897809Y-44911285D01*
X75516857Y-44911285D01*
X75421619Y-44958904D01*
X75374000Y-45006523D01*
X75326380Y-45101761D01*
X75326380Y-45292238D01*
X75374000Y-45387476D01*
X75421619Y-45435095D01*
X75516857Y-45482714D01*
X75754952Y-45482714D01*
X75850190Y-45435095D01*
X75897809Y-45387476D01*
X75945428Y-45292238D01*
X75945428Y-45101761D01*
X75897809Y-45006523D01*
X75850190Y-44958904D01*
X75754952Y-44911285D01*
%TO.C,J1*%
X97765666Y-40414380D02*
X97765666Y-41128666D01*
X97718047Y-41271523D01*
X97622809Y-41366761D01*
X97479952Y-41414380D01*
X97384714Y-41414380D01*
X98765666Y-41414380D02*
X98194238Y-41414380D01*
X98479952Y-41414380D02*
X98479952Y-40414380D01*
X98384714Y-40557238D01*
X98289476Y-40652476D01*
X98194238Y-40700095D01*
%TO.C,J2*%
X68682666Y-50737380D02*
X68682666Y-51451666D01*
X68635047Y-51594523D01*
X68539809Y-51689761D01*
X68396952Y-51737380D01*
X68301714Y-51737380D01*
X69111238Y-50832619D02*
X69158857Y-50785000D01*
X69254095Y-50737380D01*
X69492190Y-50737380D01*
X69587428Y-50785000D01*
X69635047Y-50832619D01*
X69682666Y-50927857D01*
X69682666Y-51023095D01*
X69635047Y-51165952D01*
X69063619Y-51737380D01*
X69682666Y-51737380D01*
%TO.C,R2*%
X77977380Y-46117666D02*
X77501190Y-46451000D01*
X77977380Y-46689095D02*
X76977380Y-46689095D01*
X76977380Y-46308142D01*
X77025000Y-46212904D01*
X77072619Y-46165285D01*
X77167857Y-46117666D01*
X77310714Y-46117666D01*
X77405952Y-46165285D01*
X77453571Y-46212904D01*
X77501190Y-46308142D01*
X77501190Y-46689095D01*
X77072619Y-45736714D02*
X77025000Y-45689095D01*
X76977380Y-45593857D01*
X76977380Y-45355761D01*
X77025000Y-45260523D01*
X77072619Y-45212904D01*
X77167857Y-45165285D01*
X77263095Y-45165285D01*
X77405952Y-45212904D01*
X77977380Y-45784333D01*
X77977380Y-45165285D01*
%TO.C,R3*%
X80787333Y-41671380D02*
X80454000Y-41195190D01*
X80215904Y-41671380D02*
X80215904Y-40671380D01*
X80596857Y-40671380D01*
X80692095Y-40719000D01*
X80739714Y-40766619D01*
X80787333Y-40861857D01*
X80787333Y-41004714D01*
X80739714Y-41099952D01*
X80692095Y-41147571D01*
X80596857Y-41195190D01*
X80215904Y-41195190D01*
X81120666Y-40671380D02*
X81739714Y-40671380D01*
X81406380Y-41052333D01*
X81549238Y-41052333D01*
X81644476Y-41099952D01*
X81692095Y-41147571D01*
X81739714Y-41242809D01*
X81739714Y-41480904D01*
X81692095Y-41576142D01*
X81644476Y-41623761D01*
X81549238Y-41671380D01*
X81263523Y-41671380D01*
X81168285Y-41623761D01*
X81120666Y-41576142D01*
%TO.C,R4*%
X94630333Y-41671380D02*
X94297000Y-41195190D01*
X94058904Y-41671380D02*
X94058904Y-40671380D01*
X94439857Y-40671380D01*
X94535095Y-40719000D01*
X94582714Y-40766619D01*
X94630333Y-40861857D01*
X94630333Y-41004714D01*
X94582714Y-41099952D01*
X94535095Y-41147571D01*
X94439857Y-41195190D01*
X94058904Y-41195190D01*
X95487476Y-41004714D02*
X95487476Y-41671380D01*
X95249380Y-40623761D02*
X95011285Y-41338047D01*
X95630333Y-41338047D01*
%TO.C,RP1*%
X80033333Y-52753380D02*
X79700000Y-52277190D01*
X79461904Y-52753380D02*
X79461904Y-51753380D01*
X79842857Y-51753380D01*
X79938095Y-51801000D01*
X79985714Y-51848619D01*
X80033333Y-51943857D01*
X80033333Y-52086714D01*
X79985714Y-52181952D01*
X79938095Y-52229571D01*
X79842857Y-52277190D01*
X79461904Y-52277190D01*
X80461904Y-52753380D02*
X80461904Y-51753380D01*
X80842857Y-51753380D01*
X80938095Y-51801000D01*
X80985714Y-51848619D01*
X81033333Y-51943857D01*
X81033333Y-52086714D01*
X80985714Y-52181952D01*
X80938095Y-52229571D01*
X80842857Y-52277190D01*
X80461904Y-52277190D01*
X81985714Y-52753380D02*
X81414285Y-52753380D01*
X81700000Y-52753380D02*
X81700000Y-51753380D01*
X81604761Y-51896238D01*
X81509523Y-51991476D01*
X81414285Y-52039095D01*
%TO.C,R6*%
X72356380Y-45609666D02*
X71880190Y-45943000D01*
X72356380Y-46181095D02*
X71356380Y-46181095D01*
X71356380Y-45800142D01*
X71404000Y-45704904D01*
X71451619Y-45657285D01*
X71546857Y-45609666D01*
X71689714Y-45609666D01*
X71784952Y-45657285D01*
X71832571Y-45704904D01*
X71880190Y-45800142D01*
X71880190Y-46181095D01*
X71356380Y-44752523D02*
X71356380Y-44943000D01*
X71404000Y-45038238D01*
X71451619Y-45085857D01*
X71594476Y-45181095D01*
X71784952Y-45228714D01*
X72165904Y-45228714D01*
X72261142Y-45181095D01*
X72308761Y-45133476D01*
X72356380Y-45038238D01*
X72356380Y-44847761D01*
X72308761Y-44752523D01*
X72261142Y-44704904D01*
X72165904Y-44657285D01*
X71927809Y-44657285D01*
X71832571Y-44704904D01*
X71784952Y-44752523D01*
X71737333Y-44847761D01*
X71737333Y-45038238D01*
X71784952Y-45133476D01*
X71832571Y-45181095D01*
X71927809Y-45228714D01*
%TO.C,R7*%
X73421333Y-41544380D02*
X73088000Y-41068190D01*
X72849904Y-41544380D02*
X72849904Y-40544380D01*
X73230857Y-40544380D01*
X73326095Y-40592000D01*
X73373714Y-40639619D01*
X73421333Y-40734857D01*
X73421333Y-40877714D01*
X73373714Y-40972952D01*
X73326095Y-41020571D01*
X73230857Y-41068190D01*
X72849904Y-41068190D01*
X73754666Y-40544380D02*
X74421333Y-40544380D01*
X73992761Y-41544380D01*
%TO.C,R8*%
X70119333Y-41544380D02*
X69786000Y-41068190D01*
X69547904Y-41544380D02*
X69547904Y-40544380D01*
X69928857Y-40544380D01*
X70024095Y-40592000D01*
X70071714Y-40639619D01*
X70119333Y-40734857D01*
X70119333Y-40877714D01*
X70071714Y-40972952D01*
X70024095Y-41020571D01*
X69928857Y-41068190D01*
X69547904Y-41068190D01*
X70690761Y-40972952D02*
X70595523Y-40925333D01*
X70547904Y-40877714D01*
X70500285Y-40782476D01*
X70500285Y-40734857D01*
X70547904Y-40639619D01*
X70595523Y-40592000D01*
X70690761Y-40544380D01*
X70881238Y-40544380D01*
X70976476Y-40592000D01*
X71024095Y-40639619D01*
X71071714Y-40734857D01*
X71071714Y-40782476D01*
X71024095Y-40877714D01*
X70976476Y-40925333D01*
X70881238Y-40972952D01*
X70690761Y-40972952D01*
X70595523Y-41020571D01*
X70547904Y-41068190D01*
X70500285Y-41163428D01*
X70500285Y-41353904D01*
X70547904Y-41449142D01*
X70595523Y-41496761D01*
X70690761Y-41544380D01*
X70881238Y-41544380D01*
X70976476Y-41496761D01*
X71024095Y-41449142D01*
X71071714Y-41353904D01*
X71071714Y-41163428D01*
X71024095Y-41068190D01*
X70976476Y-41020571D01*
X70881238Y-40972952D01*
%TO.C,R9*%
X72356380Y-49038666D02*
X71880190Y-49372000D01*
X72356380Y-49610095D02*
X71356380Y-49610095D01*
X71356380Y-49229142D01*
X71404000Y-49133904D01*
X71451619Y-49086285D01*
X71546857Y-49038666D01*
X71689714Y-49038666D01*
X71784952Y-49086285D01*
X71832571Y-49133904D01*
X71880190Y-49229142D01*
X71880190Y-49610095D01*
X72356380Y-48562476D02*
X72356380Y-48372000D01*
X72308761Y-48276761D01*
X72261142Y-48229142D01*
X72118285Y-48133904D01*
X71927809Y-48086285D01*
X71546857Y-48086285D01*
X71451619Y-48133904D01*
X71404000Y-48181523D01*
X71356380Y-48276761D01*
X71356380Y-48467238D01*
X71404000Y-48562476D01*
X71451619Y-48610095D01*
X71546857Y-48657714D01*
X71784952Y-48657714D01*
X71880190Y-48610095D01*
X71927809Y-48562476D01*
X71975428Y-48467238D01*
X71975428Y-48276761D01*
X71927809Y-48181523D01*
X71880190Y-48133904D01*
X71784952Y-48086285D01*
%TO.C,U1*%
X83162096Y-50389881D02*
X83162096Y-51199405D01*
X83209715Y-51294643D01*
X83257334Y-51342262D01*
X83352572Y-51389881D01*
X83543048Y-51389881D01*
X83638286Y-51342262D01*
X83685905Y-51294643D01*
X83733524Y-51199405D01*
X83733524Y-50389881D01*
X84733524Y-51389881D02*
X84162096Y-51389881D01*
X84447810Y-51389881D02*
X84447810Y-50389881D01*
X84352572Y-50532739D01*
X84257334Y-50627977D01*
X84162096Y-50675596D01*
%TD*%
M02*
