%TF.GenerationSoftware,KiCad,Pcbnew,(5.1.10)-1*%
%TF.CreationDate,2022-02-08T13:03:54-05:00*%
%TF.ProjectId,Strain_Guage_Schematic,53747261-696e-45f4-9775-6167655f5363,rev?*%
%TF.SameCoordinates,Original*%
%TF.FileFunction,Soldermask,Top*%
%TF.FilePolarity,Negative*%
%FSLAX46Y46*%
G04 Gerber Fmt 4.6, Leading zero omitted, Abs format (unit mm)*
G04 Created by KiCad (PCBNEW (5.1.10)-1) date 2022-02-08 13:03:54*
%MOMM*%
%LPD*%
G01*
G04 APERTURE LIST*
%ADD10R,0.850000X0.850000*%
%ADD11O,0.850000X0.850000*%
%ADD12C,1.440000*%
%ADD13R,1.840000X0.930000*%
%ADD14R,1.840000X3.190000*%
G04 APERTURE END LIST*
%TO.C,C1*%
G36*
G01*
X91237000Y-46642000D02*
X90737000Y-46642000D01*
G75*
G02*
X90512000Y-46417000I0J225000D01*
G01*
X90512000Y-45967000D01*
G75*
G02*
X90737000Y-45742000I225000J0D01*
G01*
X91237000Y-45742000D01*
G75*
G02*
X91462000Y-45967000I0J-225000D01*
G01*
X91462000Y-46417000D01*
G75*
G02*
X91237000Y-46642000I-225000J0D01*
G01*
G37*
G36*
G01*
X91237000Y-48192000D02*
X90737000Y-48192000D01*
G75*
G02*
X90512000Y-47967000I0J225000D01*
G01*
X90512000Y-47517000D01*
G75*
G02*
X90737000Y-47292000I225000J0D01*
G01*
X91237000Y-47292000D01*
G75*
G02*
X91462000Y-47517000I0J-225000D01*
G01*
X91462000Y-47967000D01*
G75*
G02*
X91237000Y-48192000I-225000J0D01*
G01*
G37*
%TD*%
%TO.C,C2*%
G36*
G01*
X93142000Y-48192000D02*
X92642000Y-48192000D01*
G75*
G02*
X92417000Y-47967000I0J225000D01*
G01*
X92417000Y-47517000D01*
G75*
G02*
X92642000Y-47292000I225000J0D01*
G01*
X93142000Y-47292000D01*
G75*
G02*
X93367000Y-47517000I0J-225000D01*
G01*
X93367000Y-47967000D01*
G75*
G02*
X93142000Y-48192000I-225000J0D01*
G01*
G37*
G36*
G01*
X93142000Y-46642000D02*
X92642000Y-46642000D01*
G75*
G02*
X92417000Y-46417000I0J225000D01*
G01*
X92417000Y-45967000D01*
G75*
G02*
X92642000Y-45742000I225000J0D01*
G01*
X93142000Y-45742000D01*
G75*
G02*
X93367000Y-45967000I0J-225000D01*
G01*
X93367000Y-46417000D01*
G75*
G02*
X93142000Y-46642000I-225000J0D01*
G01*
G37*
%TD*%
%TO.C,C3*%
G36*
G01*
X98297000Y-47979000D02*
X98297000Y-47479000D01*
G75*
G02*
X98522000Y-47254000I225000J0D01*
G01*
X98972000Y-47254000D01*
G75*
G02*
X99197000Y-47479000I0J-225000D01*
G01*
X99197000Y-47979000D01*
G75*
G02*
X98972000Y-48204000I-225000J0D01*
G01*
X98522000Y-48204000D01*
G75*
G02*
X98297000Y-47979000I0J225000D01*
G01*
G37*
G36*
G01*
X96747000Y-47979000D02*
X96747000Y-47479000D01*
G75*
G02*
X96972000Y-47254000I225000J0D01*
G01*
X97422000Y-47254000D01*
G75*
G02*
X97647000Y-47479000I0J-225000D01*
G01*
X97647000Y-47979000D01*
G75*
G02*
X97422000Y-48204000I-225000J0D01*
G01*
X96972000Y-48204000D01*
G75*
G02*
X96747000Y-47979000I0J225000D01*
G01*
G37*
%TD*%
%TO.C,C4*%
G36*
G01*
X88302000Y-43074001D02*
X88302000Y-42223999D01*
G75*
G02*
X88551999Y-41974000I249999J0D01*
G01*
X89452001Y-41974000D01*
G75*
G02*
X89702000Y-42223999I0J-249999D01*
G01*
X89702000Y-43074001D01*
G75*
G02*
X89452001Y-43324000I-249999J0D01*
G01*
X88551999Y-43324000D01*
G75*
G02*
X88302000Y-43074001I0J249999D01*
G01*
G37*
G36*
G01*
X91002000Y-43074001D02*
X91002000Y-42223999D01*
G75*
G02*
X91251999Y-41974000I249999J0D01*
G01*
X92152001Y-41974000D01*
G75*
G02*
X92402000Y-42223999I0J-249999D01*
G01*
X92402000Y-43074001D01*
G75*
G02*
X92152001Y-43324000I-249999J0D01*
G01*
X91251999Y-43324000D01*
G75*
G02*
X91002000Y-43074001I0J249999D01*
G01*
G37*
%TD*%
%TO.C,C5*%
G36*
G01*
X89205000Y-48192000D02*
X88705000Y-48192000D01*
G75*
G02*
X88480000Y-47967000I0J225000D01*
G01*
X88480000Y-47517000D01*
G75*
G02*
X88705000Y-47292000I225000J0D01*
G01*
X89205000Y-47292000D01*
G75*
G02*
X89430000Y-47517000I0J-225000D01*
G01*
X89430000Y-47967000D01*
G75*
G02*
X89205000Y-48192000I-225000J0D01*
G01*
G37*
G36*
G01*
X89205000Y-46642000D02*
X88705000Y-46642000D01*
G75*
G02*
X88480000Y-46417000I0J225000D01*
G01*
X88480000Y-45967000D01*
G75*
G02*
X88705000Y-45742000I225000J0D01*
G01*
X89205000Y-45742000D01*
G75*
G02*
X89430000Y-45967000I0J-225000D01*
G01*
X89430000Y-46417000D01*
G75*
G02*
X89205000Y-46642000I-225000J0D01*
G01*
G37*
%TD*%
%TO.C,C6*%
G36*
G01*
X77902000Y-43620000D02*
X77402000Y-43620000D01*
G75*
G02*
X77177000Y-43395000I0J225000D01*
G01*
X77177000Y-42945000D01*
G75*
G02*
X77402000Y-42720000I225000J0D01*
G01*
X77902000Y-42720000D01*
G75*
G02*
X78127000Y-42945000I0J-225000D01*
G01*
X78127000Y-43395000D01*
G75*
G02*
X77902000Y-43620000I-225000J0D01*
G01*
G37*
G36*
G01*
X77902000Y-42070000D02*
X77402000Y-42070000D01*
G75*
G02*
X77177000Y-41845000I0J225000D01*
G01*
X77177000Y-41395000D01*
G75*
G02*
X77402000Y-41170000I225000J0D01*
G01*
X77902000Y-41170000D01*
G75*
G02*
X78127000Y-41395000I0J-225000D01*
G01*
X78127000Y-41845000D01*
G75*
G02*
X77902000Y-42070000I-225000J0D01*
G01*
G37*
%TD*%
%TO.C,C7*%
G36*
G01*
X95682000Y-48954000D02*
X95182000Y-48954000D01*
G75*
G02*
X94957000Y-48729000I0J225000D01*
G01*
X94957000Y-48279000D01*
G75*
G02*
X95182000Y-48054000I225000J0D01*
G01*
X95682000Y-48054000D01*
G75*
G02*
X95907000Y-48279000I0J-225000D01*
G01*
X95907000Y-48729000D01*
G75*
G02*
X95682000Y-48954000I-225000J0D01*
G01*
G37*
G36*
G01*
X95682000Y-47404000D02*
X95182000Y-47404000D01*
G75*
G02*
X94957000Y-47179000I0J225000D01*
G01*
X94957000Y-46729000D01*
G75*
G02*
X95182000Y-46504000I225000J0D01*
G01*
X95682000Y-46504000D01*
G75*
G02*
X95907000Y-46729000I0J-225000D01*
G01*
X95907000Y-47179000D01*
G75*
G02*
X95682000Y-47404000I-225000J0D01*
G01*
G37*
%TD*%
%TO.C,C8*%
G36*
G01*
X85851000Y-42772000D02*
X85851000Y-42272000D01*
G75*
G02*
X86076000Y-42047000I225000J0D01*
G01*
X86526000Y-42047000D01*
G75*
G02*
X86751000Y-42272000I0J-225000D01*
G01*
X86751000Y-42772000D01*
G75*
G02*
X86526000Y-42997000I-225000J0D01*
G01*
X86076000Y-42997000D01*
G75*
G02*
X85851000Y-42772000I0J225000D01*
G01*
G37*
G36*
G01*
X84301000Y-42772000D02*
X84301000Y-42272000D01*
G75*
G02*
X84526000Y-42047000I225000J0D01*
G01*
X84976000Y-42047000D01*
G75*
G02*
X85201000Y-42272000I0J-225000D01*
G01*
X85201000Y-42772000D01*
G75*
G02*
X84976000Y-42997000I-225000J0D01*
G01*
X84526000Y-42997000D01*
G75*
G02*
X84301000Y-42772000I0J225000D01*
G01*
G37*
%TD*%
%TO.C,C9*%
G36*
G01*
X75870000Y-48039000D02*
X75370000Y-48039000D01*
G75*
G02*
X75145000Y-47814000I0J225000D01*
G01*
X75145000Y-47364000D01*
G75*
G02*
X75370000Y-47139000I225000J0D01*
G01*
X75870000Y-47139000D01*
G75*
G02*
X76095000Y-47364000I0J-225000D01*
G01*
X76095000Y-47814000D01*
G75*
G02*
X75870000Y-48039000I-225000J0D01*
G01*
G37*
G36*
G01*
X75870000Y-49589000D02*
X75370000Y-49589000D01*
G75*
G02*
X75145000Y-49364000I0J225000D01*
G01*
X75145000Y-48914000D01*
G75*
G02*
X75370000Y-48689000I225000J0D01*
G01*
X75870000Y-48689000D01*
G75*
G02*
X76095000Y-48914000I0J-225000D01*
G01*
X76095000Y-49364000D01*
G75*
G02*
X75870000Y-49589000I-225000J0D01*
G01*
G37*
%TD*%
D10*
%TO.C,J1*%
X98099000Y-42522000D03*
D11*
X98099000Y-43522000D03*
X98099000Y-44522000D03*
%TD*%
D10*
%TO.C,J2*%
X69524000Y-48237000D03*
D11*
X69524000Y-49237000D03*
%TD*%
%TO.C,R2*%
G36*
G01*
X77377000Y-47139000D02*
X77927000Y-47139000D01*
G75*
G02*
X78127000Y-47339000I0J-200000D01*
G01*
X78127000Y-47739000D01*
G75*
G02*
X77927000Y-47939000I-200000J0D01*
G01*
X77377000Y-47939000D01*
G75*
G02*
X77177000Y-47739000I0J200000D01*
G01*
X77177000Y-47339000D01*
G75*
G02*
X77377000Y-47139000I200000J0D01*
G01*
G37*
G36*
G01*
X77377000Y-48789000D02*
X77927000Y-48789000D01*
G75*
G02*
X78127000Y-48989000I0J-200000D01*
G01*
X78127000Y-49389000D01*
G75*
G02*
X77927000Y-49589000I-200000J0D01*
G01*
X77377000Y-49589000D01*
G75*
G02*
X77177000Y-49389000I0J200000D01*
G01*
X77177000Y-48989000D01*
G75*
G02*
X77377000Y-48789000I200000J0D01*
G01*
G37*
%TD*%
%TO.C,R3*%
G36*
G01*
X79729000Y-42924000D02*
X79729000Y-42374000D01*
G75*
G02*
X79929000Y-42174000I200000J0D01*
G01*
X80329000Y-42174000D01*
G75*
G02*
X80529000Y-42374000I0J-200000D01*
G01*
X80529000Y-42924000D01*
G75*
G02*
X80329000Y-43124000I-200000J0D01*
G01*
X79929000Y-43124000D01*
G75*
G02*
X79729000Y-42924000I0J200000D01*
G01*
G37*
G36*
G01*
X81379000Y-42924000D02*
X81379000Y-42374000D01*
G75*
G02*
X81579000Y-42174000I200000J0D01*
G01*
X81979000Y-42174000D01*
G75*
G02*
X82179000Y-42374000I0J-200000D01*
G01*
X82179000Y-42924000D01*
G75*
G02*
X81979000Y-43124000I-200000J0D01*
G01*
X81579000Y-43124000D01*
G75*
G02*
X81379000Y-42924000I0J200000D01*
G01*
G37*
%TD*%
%TO.C,R4*%
G36*
G01*
X95222000Y-42924000D02*
X95222000Y-42374000D01*
G75*
G02*
X95422000Y-42174000I200000J0D01*
G01*
X95822000Y-42174000D01*
G75*
G02*
X96022000Y-42374000I0J-200000D01*
G01*
X96022000Y-42924000D01*
G75*
G02*
X95822000Y-43124000I-200000J0D01*
G01*
X95422000Y-43124000D01*
G75*
G02*
X95222000Y-42924000I0J200000D01*
G01*
G37*
G36*
G01*
X93572000Y-42924000D02*
X93572000Y-42374000D01*
G75*
G02*
X93772000Y-42174000I200000J0D01*
G01*
X94172000Y-42174000D01*
G75*
G02*
X94372000Y-42374000I0J-200000D01*
G01*
X94372000Y-42924000D01*
G75*
G02*
X94172000Y-43124000I-200000J0D01*
G01*
X93772000Y-43124000D01*
G75*
G02*
X93572000Y-42924000I0J200000D01*
G01*
G37*
%TD*%
D12*
%TO.C,RP1*%
X79938000Y-53952000D03*
X77398000Y-53952000D03*
X74858000Y-53952000D03*
%TD*%
%TO.C,R6*%
G36*
G01*
X73609000Y-46668000D02*
X73059000Y-46668000D01*
G75*
G02*
X72859000Y-46468000I0J200000D01*
G01*
X72859000Y-46068000D01*
G75*
G02*
X73059000Y-45868000I200000J0D01*
G01*
X73609000Y-45868000D01*
G75*
G02*
X73809000Y-46068000I0J-200000D01*
G01*
X73809000Y-46468000D01*
G75*
G02*
X73609000Y-46668000I-200000J0D01*
G01*
G37*
G36*
G01*
X73609000Y-45018000D02*
X73059000Y-45018000D01*
G75*
G02*
X72859000Y-44818000I0J200000D01*
G01*
X72859000Y-44418000D01*
G75*
G02*
X73059000Y-44218000I200000J0D01*
G01*
X73609000Y-44218000D01*
G75*
G02*
X73809000Y-44418000I0J-200000D01*
G01*
X73809000Y-44818000D01*
G75*
G02*
X73609000Y-45018000I-200000J0D01*
G01*
G37*
%TD*%
%TO.C,R7*%
G36*
G01*
X74013000Y-42797000D02*
X74013000Y-42247000D01*
G75*
G02*
X74213000Y-42047000I200000J0D01*
G01*
X74613000Y-42047000D01*
G75*
G02*
X74813000Y-42247000I0J-200000D01*
G01*
X74813000Y-42797000D01*
G75*
G02*
X74613000Y-42997000I-200000J0D01*
G01*
X74213000Y-42997000D01*
G75*
G02*
X74013000Y-42797000I0J200000D01*
G01*
G37*
G36*
G01*
X72363000Y-42797000D02*
X72363000Y-42247000D01*
G75*
G02*
X72563000Y-42047000I200000J0D01*
G01*
X72963000Y-42047000D01*
G75*
G02*
X73163000Y-42247000I0J-200000D01*
G01*
X73163000Y-42797000D01*
G75*
G02*
X72963000Y-42997000I-200000J0D01*
G01*
X72563000Y-42997000D01*
G75*
G02*
X72363000Y-42797000I0J200000D01*
G01*
G37*
%TD*%
%TO.C,R8*%
G36*
G01*
X69061000Y-42797000D02*
X69061000Y-42247000D01*
G75*
G02*
X69261000Y-42047000I200000J0D01*
G01*
X69661000Y-42047000D01*
G75*
G02*
X69861000Y-42247000I0J-200000D01*
G01*
X69861000Y-42797000D01*
G75*
G02*
X69661000Y-42997000I-200000J0D01*
G01*
X69261000Y-42997000D01*
G75*
G02*
X69061000Y-42797000I0J200000D01*
G01*
G37*
G36*
G01*
X70711000Y-42797000D02*
X70711000Y-42247000D01*
G75*
G02*
X70911000Y-42047000I200000J0D01*
G01*
X71311000Y-42047000D01*
G75*
G02*
X71511000Y-42247000I0J-200000D01*
G01*
X71511000Y-42797000D01*
G75*
G02*
X71311000Y-42997000I-200000J0D01*
G01*
X70911000Y-42997000D01*
G75*
G02*
X70711000Y-42797000I0J200000D01*
G01*
G37*
%TD*%
%TO.C,R9*%
G36*
G01*
X73609000Y-48447000D02*
X73059000Y-48447000D01*
G75*
G02*
X72859000Y-48247000I0J200000D01*
G01*
X72859000Y-47847000D01*
G75*
G02*
X73059000Y-47647000I200000J0D01*
G01*
X73609000Y-47647000D01*
G75*
G02*
X73809000Y-47847000I0J-200000D01*
G01*
X73809000Y-48247000D01*
G75*
G02*
X73609000Y-48447000I-200000J0D01*
G01*
G37*
G36*
G01*
X73609000Y-50097000D02*
X73059000Y-50097000D01*
G75*
G02*
X72859000Y-49897000I0J200000D01*
G01*
X72859000Y-49497000D01*
G75*
G02*
X73059000Y-49297000I200000J0D01*
G01*
X73609000Y-49297000D01*
G75*
G02*
X73809000Y-49497000I0J-200000D01*
G01*
X73809000Y-49897000D01*
G75*
G02*
X73609000Y-50097000I-200000J0D01*
G01*
G37*
%TD*%
%TO.C,U1*%
G36*
G01*
X87076000Y-49122000D02*
X87076000Y-49638000D01*
G75*
G02*
X87034000Y-49680000I-42000J0D01*
G01*
X85148000Y-49680000D01*
G75*
G02*
X85106000Y-49638000I0J42000D01*
G01*
X85106000Y-49122000D01*
G75*
G02*
X85148000Y-49080000I42000J0D01*
G01*
X87034000Y-49080000D01*
G75*
G02*
X87076000Y-49122000I0J-42000D01*
G01*
G37*
G36*
G01*
X87076000Y-47852000D02*
X87076000Y-48368000D01*
G75*
G02*
X87034000Y-48410000I-42000J0D01*
G01*
X85148000Y-48410000D01*
G75*
G02*
X85106000Y-48368000I0J42000D01*
G01*
X85106000Y-47852000D01*
G75*
G02*
X85148000Y-47810000I42000J0D01*
G01*
X87034000Y-47810000D01*
G75*
G02*
X87076000Y-47852000I0J-42000D01*
G01*
G37*
G36*
G01*
X87076000Y-46582000D02*
X87076000Y-47098000D01*
G75*
G02*
X87034000Y-47140000I-42000J0D01*
G01*
X85148000Y-47140000D01*
G75*
G02*
X85106000Y-47098000I0J42000D01*
G01*
X85106000Y-46582000D01*
G75*
G02*
X85148000Y-46540000I42000J0D01*
G01*
X87034000Y-46540000D01*
G75*
G02*
X87076000Y-46582000I0J-42000D01*
G01*
G37*
G36*
G01*
X87076000Y-45312000D02*
X87076000Y-45828000D01*
G75*
G02*
X87034000Y-45870000I-42000J0D01*
G01*
X85148000Y-45870000D01*
G75*
G02*
X85106000Y-45828000I0J42000D01*
G01*
X85106000Y-45312000D01*
G75*
G02*
X85148000Y-45270000I42000J0D01*
G01*
X87034000Y-45270000D01*
G75*
G02*
X87076000Y-45312000I0J-42000D01*
G01*
G37*
G36*
G01*
X82136000Y-45312000D02*
X82136000Y-45828000D01*
G75*
G02*
X82094000Y-45870000I-42000J0D01*
G01*
X80208000Y-45870000D01*
G75*
G02*
X80166000Y-45828000I0J42000D01*
G01*
X80166000Y-45312000D01*
G75*
G02*
X80208000Y-45270000I42000J0D01*
G01*
X82094000Y-45270000D01*
G75*
G02*
X82136000Y-45312000I0J-42000D01*
G01*
G37*
G36*
G01*
X82136000Y-46582000D02*
X82136000Y-47098000D01*
G75*
G02*
X82094000Y-47140000I-42000J0D01*
G01*
X80208000Y-47140000D01*
G75*
G02*
X80166000Y-47098000I0J42000D01*
G01*
X80166000Y-46582000D01*
G75*
G02*
X80208000Y-46540000I42000J0D01*
G01*
X82094000Y-46540000D01*
G75*
G02*
X82136000Y-46582000I0J-42000D01*
G01*
G37*
G36*
G01*
X82136000Y-47852000D02*
X82136000Y-48368000D01*
G75*
G02*
X82094000Y-48410000I-42000J0D01*
G01*
X80208000Y-48410000D01*
G75*
G02*
X80166000Y-48368000I0J42000D01*
G01*
X80166000Y-47852000D01*
G75*
G02*
X80208000Y-47810000I42000J0D01*
G01*
X82094000Y-47810000D01*
G75*
G02*
X82136000Y-47852000I0J-42000D01*
G01*
G37*
G36*
G01*
X82136000Y-49122000D02*
X82136000Y-49638000D01*
G75*
G02*
X82094000Y-49680000I-42000J0D01*
G01*
X80208000Y-49680000D01*
G75*
G02*
X80166000Y-49638000I0J42000D01*
G01*
X80166000Y-49122000D01*
G75*
G02*
X80208000Y-49080000I42000J0D01*
G01*
X82094000Y-49080000D01*
G75*
G02*
X82136000Y-49122000I0J-42000D01*
G01*
G37*
%TD*%
D13*
%TO.C,VR1*%
X90950000Y-50890000D03*
X90950000Y-53190000D03*
X90950000Y-55490000D03*
D14*
X97120000Y-53190000D03*
%TD*%
M02*
