%TF.GenerationSoftware,KiCad,Pcbnew,(5.1.10)-1*%
%TF.CreationDate,2022-02-05T14:04:05-05:00*%
%TF.ProjectId,Strain_Guage_Schematic,53747261-696e-45f4-9775-6167655f5363,rev?*%
%TF.SameCoordinates,Original*%
%TF.FileFunction,Copper,L1,Top*%
%TF.FilePolarity,Positive*%
%FSLAX46Y46*%
G04 Gerber Fmt 4.6, Leading zero omitted, Abs format (unit mm)*
G04 Created by KiCad (PCBNEW (5.1.10)-1) date 2022-02-05 14:04:05*
%MOMM*%
%LPD*%
G01*
G04 APERTURE LIST*
%TA.AperFunction,ComponentPad*%
%ADD10R,0.850000X0.850000*%
%TD*%
%TA.AperFunction,ComponentPad*%
%ADD11O,0.850000X0.850000*%
%TD*%
%TA.AperFunction,ComponentPad*%
%ADD12C,1.440000*%
%TD*%
%TA.AperFunction,SMDPad,CuDef*%
%ADD13R,1.840000X0.930000*%
%TD*%
%TA.AperFunction,SMDPad,CuDef*%
%ADD14R,1.840000X3.190000*%
%TD*%
%TA.AperFunction,ViaPad*%
%ADD15C,0.800000*%
%TD*%
%TA.AperFunction,Conductor*%
%ADD16C,0.250000*%
%TD*%
G04 APERTURE END LIST*
%TO.P,C1,2*%
%TO.N,GND*%
%TA.AperFunction,SMDPad,CuDef*%
G36*
G01*
X91237000Y-46642000D02*
X90737000Y-46642000D01*
G75*
G02*
X90512000Y-46417000I0J225000D01*
G01*
X90512000Y-45967000D01*
G75*
G02*
X90737000Y-45742000I225000J0D01*
G01*
X91237000Y-45742000D01*
G75*
G02*
X91462000Y-45967000I0J-225000D01*
G01*
X91462000Y-46417000D01*
G75*
G02*
X91237000Y-46642000I-225000J0D01*
G01*
G37*
%TD.AperFunction*%
%TO.P,C1,1*%
%TO.N,/Regulator/Vcc*%
%TA.AperFunction,SMDPad,CuDef*%
G36*
G01*
X91237000Y-48192000D02*
X90737000Y-48192000D01*
G75*
G02*
X90512000Y-47967000I0J225000D01*
G01*
X90512000Y-47517000D01*
G75*
G02*
X90737000Y-47292000I225000J0D01*
G01*
X91237000Y-47292000D01*
G75*
G02*
X91462000Y-47517000I0J-225000D01*
G01*
X91462000Y-47967000D01*
G75*
G02*
X91237000Y-48192000I-225000J0D01*
G01*
G37*
%TD.AperFunction*%
%TD*%
%TO.P,C2,1*%
%TO.N,/Regulator/5V*%
%TA.AperFunction,SMDPad,CuDef*%
G36*
G01*
X93142000Y-48192000D02*
X92642000Y-48192000D01*
G75*
G02*
X92417000Y-47967000I0J225000D01*
G01*
X92417000Y-47517000D01*
G75*
G02*
X92642000Y-47292000I225000J0D01*
G01*
X93142000Y-47292000D01*
G75*
G02*
X93367000Y-47517000I0J-225000D01*
G01*
X93367000Y-47967000D01*
G75*
G02*
X93142000Y-48192000I-225000J0D01*
G01*
G37*
%TD.AperFunction*%
%TO.P,C2,2*%
%TO.N,GND*%
%TA.AperFunction,SMDPad,CuDef*%
G36*
G01*
X93142000Y-46642000D02*
X92642000Y-46642000D01*
G75*
G02*
X92417000Y-46417000I0J225000D01*
G01*
X92417000Y-45967000D01*
G75*
G02*
X92642000Y-45742000I225000J0D01*
G01*
X93142000Y-45742000D01*
G75*
G02*
X93367000Y-45967000I0J-225000D01*
G01*
X93367000Y-46417000D01*
G75*
G02*
X93142000Y-46642000I-225000J0D01*
G01*
G37*
%TD.AperFunction*%
%TD*%
%TO.P,C3,2*%
%TO.N,GND*%
%TA.AperFunction,SMDPad,CuDef*%
G36*
G01*
X98297000Y-47979000D02*
X98297000Y-47479000D01*
G75*
G02*
X98522000Y-47254000I225000J0D01*
G01*
X98972000Y-47254000D01*
G75*
G02*
X99197000Y-47479000I0J-225000D01*
G01*
X99197000Y-47979000D01*
G75*
G02*
X98972000Y-48204000I-225000J0D01*
G01*
X98522000Y-48204000D01*
G75*
G02*
X98297000Y-47979000I0J225000D01*
G01*
G37*
%TD.AperFunction*%
%TO.P,C3,1*%
%TO.N,/Regulator/5V*%
%TA.AperFunction,SMDPad,CuDef*%
G36*
G01*
X96747000Y-47979000D02*
X96747000Y-47479000D01*
G75*
G02*
X96972000Y-47254000I225000J0D01*
G01*
X97422000Y-47254000D01*
G75*
G02*
X97647000Y-47479000I0J-225000D01*
G01*
X97647000Y-47979000D01*
G75*
G02*
X97422000Y-48204000I-225000J0D01*
G01*
X96972000Y-48204000D01*
G75*
G02*
X96747000Y-47979000I0J225000D01*
G01*
G37*
%TD.AperFunction*%
%TD*%
%TO.P,C4,1*%
%TO.N,/Regulator/5V*%
%TA.AperFunction,SMDPad,CuDef*%
G36*
G01*
X88302000Y-43074001D02*
X88302000Y-42223999D01*
G75*
G02*
X88551999Y-41974000I249999J0D01*
G01*
X89452001Y-41974000D01*
G75*
G02*
X89702000Y-42223999I0J-249999D01*
G01*
X89702000Y-43074001D01*
G75*
G02*
X89452001Y-43324000I-249999J0D01*
G01*
X88551999Y-43324000D01*
G75*
G02*
X88302000Y-43074001I0J249999D01*
G01*
G37*
%TD.AperFunction*%
%TO.P,C4,2*%
%TO.N,GND*%
%TA.AperFunction,SMDPad,CuDef*%
G36*
G01*
X91002000Y-43074001D02*
X91002000Y-42223999D01*
G75*
G02*
X91251999Y-41974000I249999J0D01*
G01*
X92152001Y-41974000D01*
G75*
G02*
X92402000Y-42223999I0J-249999D01*
G01*
X92402000Y-43074001D01*
G75*
G02*
X92152001Y-43324000I-249999J0D01*
G01*
X91251999Y-43324000D01*
G75*
G02*
X91002000Y-43074001I0J249999D01*
G01*
G37*
%TD.AperFunction*%
%TD*%
%TO.P,C5,1*%
%TO.N,Net-(C5-Pad1)*%
%TA.AperFunction,SMDPad,CuDef*%
G36*
G01*
X89205000Y-48192000D02*
X88705000Y-48192000D01*
G75*
G02*
X88480000Y-47967000I0J225000D01*
G01*
X88480000Y-47517000D01*
G75*
G02*
X88705000Y-47292000I225000J0D01*
G01*
X89205000Y-47292000D01*
G75*
G02*
X89430000Y-47517000I0J-225000D01*
G01*
X89430000Y-47967000D01*
G75*
G02*
X89205000Y-48192000I-225000J0D01*
G01*
G37*
%TD.AperFunction*%
%TO.P,C5,2*%
%TO.N,Net-(C5-Pad2)*%
%TA.AperFunction,SMDPad,CuDef*%
G36*
G01*
X89205000Y-46642000D02*
X88705000Y-46642000D01*
G75*
G02*
X88480000Y-46417000I0J225000D01*
G01*
X88480000Y-45967000D01*
G75*
G02*
X88705000Y-45742000I225000J0D01*
G01*
X89205000Y-45742000D01*
G75*
G02*
X89430000Y-45967000I0J-225000D01*
G01*
X89430000Y-46417000D01*
G75*
G02*
X89205000Y-46642000I-225000J0D01*
G01*
G37*
%TD.AperFunction*%
%TD*%
%TO.P,C6,1*%
%TO.N,Net-(C6-Pad1)*%
%TA.AperFunction,SMDPad,CuDef*%
G36*
G01*
X77902000Y-43620000D02*
X77402000Y-43620000D01*
G75*
G02*
X77177000Y-43395000I0J225000D01*
G01*
X77177000Y-42945000D01*
G75*
G02*
X77402000Y-42720000I225000J0D01*
G01*
X77902000Y-42720000D01*
G75*
G02*
X78127000Y-42945000I0J-225000D01*
G01*
X78127000Y-43395000D01*
G75*
G02*
X77902000Y-43620000I-225000J0D01*
G01*
G37*
%TD.AperFunction*%
%TO.P,C6,2*%
%TO.N,Net-(C6-Pad2)*%
%TA.AperFunction,SMDPad,CuDef*%
G36*
G01*
X77902000Y-42070000D02*
X77402000Y-42070000D01*
G75*
G02*
X77177000Y-41845000I0J225000D01*
G01*
X77177000Y-41395000D01*
G75*
G02*
X77402000Y-41170000I225000J0D01*
G01*
X77902000Y-41170000D01*
G75*
G02*
X78127000Y-41395000I0J-225000D01*
G01*
X78127000Y-41845000D01*
G75*
G02*
X77902000Y-42070000I-225000J0D01*
G01*
G37*
%TD.AperFunction*%
%TD*%
%TO.P,C7,1*%
%TO.N,Net-(C7-Pad1)*%
%TA.AperFunction,SMDPad,CuDef*%
G36*
G01*
X95682000Y-48954000D02*
X95182000Y-48954000D01*
G75*
G02*
X94957000Y-48729000I0J225000D01*
G01*
X94957000Y-48279000D01*
G75*
G02*
X95182000Y-48054000I225000J0D01*
G01*
X95682000Y-48054000D01*
G75*
G02*
X95907000Y-48279000I0J-225000D01*
G01*
X95907000Y-48729000D01*
G75*
G02*
X95682000Y-48954000I-225000J0D01*
G01*
G37*
%TD.AperFunction*%
%TO.P,C7,2*%
%TO.N,Net-(C7-Pad2)*%
%TA.AperFunction,SMDPad,CuDef*%
G36*
G01*
X95682000Y-47404000D02*
X95182000Y-47404000D01*
G75*
G02*
X94957000Y-47179000I0J225000D01*
G01*
X94957000Y-46729000D01*
G75*
G02*
X95182000Y-46504000I225000J0D01*
G01*
X95682000Y-46504000D01*
G75*
G02*
X95907000Y-46729000I0J-225000D01*
G01*
X95907000Y-47179000D01*
G75*
G02*
X95682000Y-47404000I-225000J0D01*
G01*
G37*
%TD.AperFunction*%
%TD*%
%TO.P,C8,2*%
%TO.N,GND*%
%TA.AperFunction,SMDPad,CuDef*%
G36*
G01*
X85851000Y-42772000D02*
X85851000Y-42272000D01*
G75*
G02*
X86076000Y-42047000I225000J0D01*
G01*
X86526000Y-42047000D01*
G75*
G02*
X86751000Y-42272000I0J-225000D01*
G01*
X86751000Y-42772000D01*
G75*
G02*
X86526000Y-42997000I-225000J0D01*
G01*
X86076000Y-42997000D01*
G75*
G02*
X85851000Y-42772000I0J225000D01*
G01*
G37*
%TD.AperFunction*%
%TO.P,C8,1*%
%TO.N,Out*%
%TA.AperFunction,SMDPad,CuDef*%
G36*
G01*
X84301000Y-42772000D02*
X84301000Y-42272000D01*
G75*
G02*
X84526000Y-42047000I225000J0D01*
G01*
X84976000Y-42047000D01*
G75*
G02*
X85201000Y-42272000I0J-225000D01*
G01*
X85201000Y-42772000D01*
G75*
G02*
X84976000Y-42997000I-225000J0D01*
G01*
X84526000Y-42997000D01*
G75*
G02*
X84301000Y-42772000I0J225000D01*
G01*
G37*
%TD.AperFunction*%
%TD*%
%TO.P,C9,2*%
%TO.N,Net-(C9-Pad2)*%
%TA.AperFunction,SMDPad,CuDef*%
G36*
G01*
X75870000Y-48039000D02*
X75370000Y-48039000D01*
G75*
G02*
X75145000Y-47814000I0J225000D01*
G01*
X75145000Y-47364000D01*
G75*
G02*
X75370000Y-47139000I225000J0D01*
G01*
X75870000Y-47139000D01*
G75*
G02*
X76095000Y-47364000I0J-225000D01*
G01*
X76095000Y-47814000D01*
G75*
G02*
X75870000Y-48039000I-225000J0D01*
G01*
G37*
%TD.AperFunction*%
%TO.P,C9,1*%
%TO.N,Net-(C9-Pad1)*%
%TA.AperFunction,SMDPad,CuDef*%
G36*
G01*
X75870000Y-49589000D02*
X75370000Y-49589000D01*
G75*
G02*
X75145000Y-49364000I0J225000D01*
G01*
X75145000Y-48914000D01*
G75*
G02*
X75370000Y-48689000I225000J0D01*
G01*
X75870000Y-48689000D01*
G75*
G02*
X76095000Y-48914000I0J-225000D01*
G01*
X76095000Y-49364000D01*
G75*
G02*
X75870000Y-49589000I-225000J0D01*
G01*
G37*
%TD.AperFunction*%
%TD*%
D10*
%TO.P,J1,1*%
%TO.N,/Regulator/Vcc*%
X98099000Y-42522000D03*
D11*
%TO.P,J1,2*%
%TO.N,Out*%
X98099000Y-43522000D03*
%TO.P,J1,3*%
%TO.N,GND*%
X98099000Y-44522000D03*
%TD*%
D10*
%TO.P,J2,1*%
%TO.N,Net-(J2-Pad1)*%
X69524000Y-48237000D03*
D11*
%TO.P,J2,2*%
%TO.N,Net-(J2-Pad2)*%
X69524000Y-49237000D03*
%TD*%
%TO.P,R2,1*%
%TO.N,Net-(C9-Pad2)*%
%TA.AperFunction,SMDPad,CuDef*%
G36*
G01*
X77377000Y-47139000D02*
X77927000Y-47139000D01*
G75*
G02*
X78127000Y-47339000I0J-200000D01*
G01*
X78127000Y-47739000D01*
G75*
G02*
X77927000Y-47939000I-200000J0D01*
G01*
X77377000Y-47939000D01*
G75*
G02*
X77177000Y-47739000I0J200000D01*
G01*
X77177000Y-47339000D01*
G75*
G02*
X77377000Y-47139000I200000J0D01*
G01*
G37*
%TD.AperFunction*%
%TO.P,R2,2*%
%TO.N,Net-(R2-Pad2)*%
%TA.AperFunction,SMDPad,CuDef*%
G36*
G01*
X77377000Y-48789000D02*
X77927000Y-48789000D01*
G75*
G02*
X78127000Y-48989000I0J-200000D01*
G01*
X78127000Y-49389000D01*
G75*
G02*
X77927000Y-49589000I-200000J0D01*
G01*
X77377000Y-49589000D01*
G75*
G02*
X77177000Y-49389000I0J200000D01*
G01*
X77177000Y-48989000D01*
G75*
G02*
X77377000Y-48789000I200000J0D01*
G01*
G37*
%TD.AperFunction*%
%TD*%
%TO.P,R3,1*%
%TO.N,Net-(C6-Pad1)*%
%TA.AperFunction,SMDPad,CuDef*%
G36*
G01*
X79729000Y-42924000D02*
X79729000Y-42374000D01*
G75*
G02*
X79929000Y-42174000I200000J0D01*
G01*
X80329000Y-42174000D01*
G75*
G02*
X80529000Y-42374000I0J-200000D01*
G01*
X80529000Y-42924000D01*
G75*
G02*
X80329000Y-43124000I-200000J0D01*
G01*
X79929000Y-43124000D01*
G75*
G02*
X79729000Y-42924000I0J200000D01*
G01*
G37*
%TD.AperFunction*%
%TO.P,R3,2*%
%TO.N,Net-(R3-Pad2)*%
%TA.AperFunction,SMDPad,CuDef*%
G36*
G01*
X81379000Y-42924000D02*
X81379000Y-42374000D01*
G75*
G02*
X81579000Y-42174000I200000J0D01*
G01*
X81979000Y-42174000D01*
G75*
G02*
X82179000Y-42374000I0J-200000D01*
G01*
X82179000Y-42924000D01*
G75*
G02*
X81979000Y-43124000I-200000J0D01*
G01*
X81579000Y-43124000D01*
G75*
G02*
X81379000Y-42924000I0J200000D01*
G01*
G37*
%TD.AperFunction*%
%TD*%
%TO.P,R4,2*%
%TO.N,Net-(C5-Pad2)*%
%TA.AperFunction,SMDPad,CuDef*%
G36*
G01*
X95222000Y-42924000D02*
X95222000Y-42374000D01*
G75*
G02*
X95422000Y-42174000I200000J0D01*
G01*
X95822000Y-42174000D01*
G75*
G02*
X96022000Y-42374000I0J-200000D01*
G01*
X96022000Y-42924000D01*
G75*
G02*
X95822000Y-43124000I-200000J0D01*
G01*
X95422000Y-43124000D01*
G75*
G02*
X95222000Y-42924000I0J200000D01*
G01*
G37*
%TD.AperFunction*%
%TO.P,R4,1*%
%TO.N,Out*%
%TA.AperFunction,SMDPad,CuDef*%
G36*
G01*
X93572000Y-42924000D02*
X93572000Y-42374000D01*
G75*
G02*
X93772000Y-42174000I200000J0D01*
G01*
X94172000Y-42174000D01*
G75*
G02*
X94372000Y-42374000I0J-200000D01*
G01*
X94372000Y-42924000D01*
G75*
G02*
X94172000Y-43124000I-200000J0D01*
G01*
X93772000Y-43124000D01*
G75*
G02*
X93572000Y-42924000I0J200000D01*
G01*
G37*
%TD.AperFunction*%
%TD*%
D12*
%TO.P,RP1,1*%
%TO.N,Net-(J2-Pad2)*%
X79938000Y-53952000D03*
%TO.P,RP1,2*%
%TO.N,Net-(C5-Pad2)*%
X77398000Y-53952000D03*
%TO.P,RP1,3*%
%TO.N,/Regulator/5V*%
X74858000Y-53952000D03*
%TD*%
%TO.P,R6,1*%
%TO.N,Net-(R6-Pad1)*%
%TA.AperFunction,SMDPad,CuDef*%
G36*
G01*
X73609000Y-46668000D02*
X73059000Y-46668000D01*
G75*
G02*
X72859000Y-46468000I0J200000D01*
G01*
X72859000Y-46068000D01*
G75*
G02*
X73059000Y-45868000I200000J0D01*
G01*
X73609000Y-45868000D01*
G75*
G02*
X73809000Y-46068000I0J-200000D01*
G01*
X73809000Y-46468000D01*
G75*
G02*
X73609000Y-46668000I-200000J0D01*
G01*
G37*
%TD.AperFunction*%
%TO.P,R6,2*%
%TO.N,Net-(R6-Pad2)*%
%TA.AperFunction,SMDPad,CuDef*%
G36*
G01*
X73609000Y-45018000D02*
X73059000Y-45018000D01*
G75*
G02*
X72859000Y-44818000I0J200000D01*
G01*
X72859000Y-44418000D01*
G75*
G02*
X73059000Y-44218000I200000J0D01*
G01*
X73609000Y-44218000D01*
G75*
G02*
X73809000Y-44418000I0J-200000D01*
G01*
X73809000Y-44818000D01*
G75*
G02*
X73609000Y-45018000I-200000J0D01*
G01*
G37*
%TD.AperFunction*%
%TD*%
%TO.P,R7,2*%
%TO.N,Net-(C7-Pad1)*%
%TA.AperFunction,SMDPad,CuDef*%
G36*
G01*
X74013000Y-42797000D02*
X74013000Y-42247000D01*
G75*
G02*
X74213000Y-42047000I200000J0D01*
G01*
X74613000Y-42047000D01*
G75*
G02*
X74813000Y-42247000I0J-200000D01*
G01*
X74813000Y-42797000D01*
G75*
G02*
X74613000Y-42997000I-200000J0D01*
G01*
X74213000Y-42997000D01*
G75*
G02*
X74013000Y-42797000I0J200000D01*
G01*
G37*
%TD.AperFunction*%
%TO.P,R7,1*%
%TO.N,Net-(R6-Pad1)*%
%TA.AperFunction,SMDPad,CuDef*%
G36*
G01*
X72363000Y-42797000D02*
X72363000Y-42247000D01*
G75*
G02*
X72563000Y-42047000I200000J0D01*
G01*
X72963000Y-42047000D01*
G75*
G02*
X73163000Y-42247000I0J-200000D01*
G01*
X73163000Y-42797000D01*
G75*
G02*
X72963000Y-42997000I-200000J0D01*
G01*
X72563000Y-42997000D01*
G75*
G02*
X72363000Y-42797000I0J200000D01*
G01*
G37*
%TD.AperFunction*%
%TD*%
%TO.P,R8,1*%
%TO.N,Net-(C7-Pad1)*%
%TA.AperFunction,SMDPad,CuDef*%
G36*
G01*
X69061000Y-42797000D02*
X69061000Y-42247000D01*
G75*
G02*
X69261000Y-42047000I200000J0D01*
G01*
X69661000Y-42047000D01*
G75*
G02*
X69861000Y-42247000I0J-200000D01*
G01*
X69861000Y-42797000D01*
G75*
G02*
X69661000Y-42997000I-200000J0D01*
G01*
X69261000Y-42997000D01*
G75*
G02*
X69061000Y-42797000I0J200000D01*
G01*
G37*
%TD.AperFunction*%
%TO.P,R8,2*%
%TO.N,Net-(C7-Pad2)*%
%TA.AperFunction,SMDPad,CuDef*%
G36*
G01*
X70711000Y-42797000D02*
X70711000Y-42247000D01*
G75*
G02*
X70911000Y-42047000I200000J0D01*
G01*
X71311000Y-42047000D01*
G75*
G02*
X71511000Y-42247000I0J-200000D01*
G01*
X71511000Y-42797000D01*
G75*
G02*
X71311000Y-42997000I-200000J0D01*
G01*
X70911000Y-42997000D01*
G75*
G02*
X70711000Y-42797000I0J200000D01*
G01*
G37*
%TD.AperFunction*%
%TD*%
%TO.P,R9,2*%
%TO.N,Net-(J2-Pad1)*%
%TA.AperFunction,SMDPad,CuDef*%
G36*
G01*
X73609000Y-48447000D02*
X73059000Y-48447000D01*
G75*
G02*
X72859000Y-48247000I0J200000D01*
G01*
X72859000Y-47847000D01*
G75*
G02*
X73059000Y-47647000I200000J0D01*
G01*
X73609000Y-47647000D01*
G75*
G02*
X73809000Y-47847000I0J-200000D01*
G01*
X73809000Y-48247000D01*
G75*
G02*
X73609000Y-48447000I-200000J0D01*
G01*
G37*
%TD.AperFunction*%
%TO.P,R9,1*%
%TO.N,Net-(R6-Pad2)*%
%TA.AperFunction,SMDPad,CuDef*%
G36*
G01*
X73609000Y-50097000D02*
X73059000Y-50097000D01*
G75*
G02*
X72859000Y-49897000I0J200000D01*
G01*
X72859000Y-49497000D01*
G75*
G02*
X73059000Y-49297000I200000J0D01*
G01*
X73609000Y-49297000D01*
G75*
G02*
X73809000Y-49497000I0J-200000D01*
G01*
X73809000Y-49897000D01*
G75*
G02*
X73609000Y-50097000I-200000J0D01*
G01*
G37*
%TD.AperFunction*%
%TD*%
%TO.P,U1,1*%
%TO.N,N/C*%
%TA.AperFunction,SMDPad,CuDef*%
G36*
G01*
X87076000Y-49122000D02*
X87076000Y-49638000D01*
G75*
G02*
X87034000Y-49680000I-42000J0D01*
G01*
X85148000Y-49680000D01*
G75*
G02*
X85106000Y-49638000I0J42000D01*
G01*
X85106000Y-49122000D01*
G75*
G02*
X85148000Y-49080000I42000J0D01*
G01*
X87034000Y-49080000D01*
G75*
G02*
X87076000Y-49122000I0J-42000D01*
G01*
G37*
%TD.AperFunction*%
%TO.P,U1,2*%
%TA.AperFunction,SMDPad,CuDef*%
G36*
G01*
X87076000Y-47852000D02*
X87076000Y-48368000D01*
G75*
G02*
X87034000Y-48410000I-42000J0D01*
G01*
X85148000Y-48410000D01*
G75*
G02*
X85106000Y-48368000I0J42000D01*
G01*
X85106000Y-47852000D01*
G75*
G02*
X85148000Y-47810000I42000J0D01*
G01*
X87034000Y-47810000D01*
G75*
G02*
X87076000Y-47852000I0J-42000D01*
G01*
G37*
%TD.AperFunction*%
%TO.P,U1,3*%
%TA.AperFunction,SMDPad,CuDef*%
G36*
G01*
X87076000Y-46582000D02*
X87076000Y-47098000D01*
G75*
G02*
X87034000Y-47140000I-42000J0D01*
G01*
X85148000Y-47140000D01*
G75*
G02*
X85106000Y-47098000I0J42000D01*
G01*
X85106000Y-46582000D01*
G75*
G02*
X85148000Y-46540000I42000J0D01*
G01*
X87034000Y-46540000D01*
G75*
G02*
X87076000Y-46582000I0J-42000D01*
G01*
G37*
%TD.AperFunction*%
%TO.P,U1,4*%
%TO.N,GND*%
%TA.AperFunction,SMDPad,CuDef*%
G36*
G01*
X87076000Y-45312000D02*
X87076000Y-45828000D01*
G75*
G02*
X87034000Y-45870000I-42000J0D01*
G01*
X85148000Y-45870000D01*
G75*
G02*
X85106000Y-45828000I0J42000D01*
G01*
X85106000Y-45312000D01*
G75*
G02*
X85148000Y-45270000I42000J0D01*
G01*
X87034000Y-45270000D01*
G75*
G02*
X87076000Y-45312000I0J-42000D01*
G01*
G37*
%TD.AperFunction*%
%TO.P,U1,5*%
%TO.N,Net-(C7-Pad2)*%
%TA.AperFunction,SMDPad,CuDef*%
G36*
G01*
X82136000Y-45312000D02*
X82136000Y-45828000D01*
G75*
G02*
X82094000Y-45870000I-42000J0D01*
G01*
X80208000Y-45870000D01*
G75*
G02*
X80166000Y-45828000I0J42000D01*
G01*
X80166000Y-45312000D01*
G75*
G02*
X80208000Y-45270000I42000J0D01*
G01*
X82094000Y-45270000D01*
G75*
G02*
X82136000Y-45312000I0J-42000D01*
G01*
G37*
%TD.AperFunction*%
%TO.P,U1,6*%
%TO.N,Net-(C5-Pad1)*%
%TA.AperFunction,SMDPad,CuDef*%
G36*
G01*
X82136000Y-46582000D02*
X82136000Y-47098000D01*
G75*
G02*
X82094000Y-47140000I-42000J0D01*
G01*
X80208000Y-47140000D01*
G75*
G02*
X80166000Y-47098000I0J42000D01*
G01*
X80166000Y-46582000D01*
G75*
G02*
X80208000Y-46540000I42000J0D01*
G01*
X82094000Y-46540000D01*
G75*
G02*
X82136000Y-46582000I0J-42000D01*
G01*
G37*
%TD.AperFunction*%
%TO.P,U1,7*%
%TO.N,Net-(C5-Pad2)*%
%TA.AperFunction,SMDPad,CuDef*%
G36*
G01*
X82136000Y-47852000D02*
X82136000Y-48368000D01*
G75*
G02*
X82094000Y-48410000I-42000J0D01*
G01*
X80208000Y-48410000D01*
G75*
G02*
X80166000Y-48368000I0J42000D01*
G01*
X80166000Y-47852000D01*
G75*
G02*
X80208000Y-47810000I42000J0D01*
G01*
X82094000Y-47810000D01*
G75*
G02*
X82136000Y-47852000I0J-42000D01*
G01*
G37*
%TD.AperFunction*%
%TO.P,U1,8*%
%TO.N,/Regulator/Vcc*%
%TA.AperFunction,SMDPad,CuDef*%
G36*
G01*
X82136000Y-49122000D02*
X82136000Y-49638000D01*
G75*
G02*
X82094000Y-49680000I-42000J0D01*
G01*
X80208000Y-49680000D01*
G75*
G02*
X80166000Y-49638000I0J42000D01*
G01*
X80166000Y-49122000D01*
G75*
G02*
X80208000Y-49080000I42000J0D01*
G01*
X82094000Y-49080000D01*
G75*
G02*
X82136000Y-49122000I0J-42000D01*
G01*
G37*
%TD.AperFunction*%
%TD*%
D13*
%TO.P,VR1,1*%
%TO.N,GND*%
X90950000Y-50890000D03*
%TO.P,VR1,2*%
%TO.N,/Regulator/5V*%
X90950000Y-53190000D03*
%TO.P,VR1,3*%
%TO.N,/Regulator/Vcc*%
X90950000Y-55490000D03*
D14*
%TO.P,VR1,4*%
%TO.N,/Regulator/5V*%
X97120000Y-53190000D03*
%TD*%
D15*
%TO.N,Net-(C5-Pad2)*%
X95372800Y-41548700D03*
%TD*%
D16*
%TO.N,Net-(C6-Pad1)*%
X80129000Y-42649000D02*
X78173000Y-42649000D01*
X78173000Y-42649000D02*
X77652000Y-43170000D01*
%TO.N,Out*%
X93972000Y-42649000D02*
X92512500Y-41189500D01*
X92512500Y-41189500D02*
X86083500Y-41189500D01*
X86083500Y-41189500D02*
X84751000Y-42522000D01*
X98099000Y-43522000D02*
X94845000Y-43522000D01*
X94845000Y-43522000D02*
X93972000Y-42649000D01*
%TO.N,Net-(C7-Pad1)*%
X74413000Y-42522000D02*
X73135300Y-41244300D01*
X73135300Y-41244300D02*
X70471900Y-41244300D01*
X70471900Y-41244300D02*
X69461000Y-42255200D01*
X69461000Y-42255200D02*
X69461000Y-42522000D01*
X95432000Y-48504000D02*
X96284700Y-47651300D01*
X96284700Y-47651300D02*
X96284700Y-46496300D01*
X96284700Y-46496300D02*
X94833100Y-45044700D01*
X94833100Y-45044700D02*
X94105100Y-45044700D01*
X94105100Y-45044700D02*
X93654800Y-44594400D01*
X93654800Y-44594400D02*
X90947400Y-44594400D01*
X90947400Y-44594400D02*
X90815100Y-44462100D01*
X90815100Y-44462100D02*
X76353100Y-44462100D01*
X76353100Y-44462100D02*
X74413000Y-42522000D01*
%TO.N,Net-(R6-Pad2)*%
X73334000Y-44618000D02*
X74142300Y-45426300D01*
X74142300Y-45426300D02*
X74142300Y-48888700D01*
X74142300Y-48888700D02*
X73334000Y-49697000D01*
%TO.N,GND*%
X98427100Y-47729000D02*
X98747000Y-47729000D01*
X92195300Y-50213500D02*
X96022600Y-50213500D01*
X96022600Y-50213500D02*
X98427100Y-47809000D01*
X98427100Y-47809000D02*
X98427100Y-47729000D01*
X98099000Y-44522000D02*
X97348700Y-44522000D01*
X97348700Y-44522000D02*
X96877300Y-44050600D01*
X96877300Y-44050600D02*
X94384800Y-44050600D01*
X94384800Y-44050600D02*
X94028000Y-43693800D01*
X94028000Y-43693800D02*
X92746800Y-43693800D01*
X92746800Y-43693800D02*
X91702000Y-42649000D01*
X91702000Y-42649000D02*
X90696700Y-41643700D01*
X90696700Y-41643700D02*
X87179300Y-41643700D01*
X87179300Y-41643700D02*
X86301000Y-42522000D01*
X90950000Y-50890000D02*
X92195300Y-50890000D01*
X92195300Y-50890000D02*
X92195300Y-50213500D01*
X92892000Y-46192000D02*
X92605400Y-46192000D01*
X92605400Y-46192000D02*
X91796200Y-47001200D01*
X92195300Y-50213500D02*
X91796200Y-49814400D01*
X91796200Y-49814400D02*
X91796200Y-47001200D01*
X91796200Y-47001200D02*
X90987000Y-46192000D01*
X98427100Y-47729000D02*
X98427100Y-45600400D01*
X98427100Y-45600400D02*
X98099000Y-45272300D01*
X98099000Y-45272300D02*
X98099000Y-44522000D01*
X86091000Y-45570000D02*
X86245300Y-45415700D01*
X86245300Y-45415700D02*
X90210700Y-45415700D01*
X90210700Y-45415700D02*
X90987000Y-46192000D01*
%TO.N,/Regulator/Vcc*%
X89984000Y-48745000D02*
X81786000Y-48745000D01*
X81786000Y-48745000D02*
X81151000Y-49380000D01*
X89984000Y-48745000D02*
X90987000Y-47742000D01*
X89704700Y-51680400D02*
X89704700Y-49024300D01*
X89704700Y-49024300D02*
X89984000Y-48745000D01*
X90950000Y-55490000D02*
X89704700Y-55490000D01*
X89704700Y-55490000D02*
X89704700Y-51680400D01*
X98099000Y-42522000D02*
X98849300Y-42522000D01*
X98849300Y-42522000D02*
X99538900Y-43211600D01*
X99538900Y-43211600D02*
X99538900Y-48202100D01*
X99538900Y-48202100D02*
X96483500Y-51257500D01*
X96483500Y-51257500D02*
X93490900Y-51257500D01*
X93490900Y-51257500D02*
X93068000Y-51680400D01*
X93068000Y-51680400D02*
X89704700Y-51680400D01*
%TO.N,/Regulator/5V*%
X89856000Y-56280400D02*
X84826200Y-56280400D01*
X84826200Y-56280400D02*
X83576100Y-55030300D01*
X92195300Y-53190000D02*
X92195300Y-56089800D01*
X92195300Y-56089800D02*
X92004700Y-56280400D01*
X92004700Y-56280400D02*
X89856000Y-56280400D01*
X97120000Y-53190000D02*
X97120000Y-52709900D01*
X97120000Y-52709900D02*
X92675400Y-52709900D01*
X92675400Y-52709900D02*
X92195300Y-53190000D01*
X90950000Y-53190000D02*
X92195300Y-53190000D01*
X97197000Y-47729000D02*
X97197000Y-48038300D01*
X97197000Y-48038300D02*
X95931500Y-49303800D01*
X95931500Y-49303800D02*
X94453800Y-49303800D01*
X94453800Y-49303800D02*
X92892000Y-47742000D01*
X83576100Y-55030300D02*
X75936300Y-55030300D01*
X75936300Y-55030300D02*
X74858000Y-53952000D01*
X74858000Y-53952000D02*
X73155400Y-53952000D01*
X73155400Y-53952000D02*
X68718200Y-49514800D01*
X68718200Y-49514800D02*
X68718200Y-42042000D01*
X68718200Y-42042000D02*
X69971700Y-40788500D01*
X69971700Y-40788500D02*
X81191900Y-40788500D01*
X81191900Y-40788500D02*
X83770600Y-43367200D01*
X83770600Y-43367200D02*
X88283800Y-43367200D01*
X88283800Y-43367200D02*
X89002000Y-42649000D01*
X97197000Y-47729000D02*
X97197000Y-46771700D01*
X97197000Y-46771700D02*
X94926300Y-44501000D01*
X94926300Y-44501000D02*
X94198300Y-44501000D01*
X94198300Y-44501000D02*
X93841400Y-44144100D01*
X93841400Y-44144100D02*
X91134000Y-44144100D01*
X91134000Y-44144100D02*
X89638900Y-42649000D01*
X89638900Y-42649000D02*
X89002000Y-42649000D01*
%TO.N,Net-(C5-Pad1)*%
X81151000Y-46840000D02*
X81786000Y-47475000D01*
X81786000Y-47475000D02*
X88688000Y-47475000D01*
X88688000Y-47475000D02*
X88955000Y-47742000D01*
%TO.N,Net-(C5-Pad2)*%
X95372800Y-41548700D02*
X95622000Y-41797900D01*
X95622000Y-41797900D02*
X95622000Y-42649000D01*
X77398000Y-53952000D02*
X77398000Y-51356200D01*
X77398000Y-51356200D02*
X80644200Y-48110000D01*
X81151000Y-48110000D02*
X80644200Y-48110000D01*
X80644200Y-48110000D02*
X79840500Y-47306300D01*
X79840500Y-47306300D02*
X79840500Y-46390600D01*
X79840500Y-46390600D02*
X80026100Y-46205000D01*
X80026100Y-46205000D02*
X88942000Y-46205000D01*
X88942000Y-46205000D02*
X88955000Y-46192000D01*
%TO.N,Net-(C7-Pad2)*%
X71111000Y-42522000D02*
X72285200Y-43696200D01*
X72285200Y-43696200D02*
X73783800Y-43696200D01*
X73783800Y-43696200D02*
X75657600Y-45570000D01*
X75657600Y-45570000D02*
X81151000Y-45570000D01*
X81151000Y-45570000D02*
X81781900Y-44939100D01*
X81781900Y-44939100D02*
X90371000Y-44939100D01*
X90371000Y-44939100D02*
X90502800Y-45070900D01*
X90502800Y-45070900D02*
X93269100Y-45070900D01*
X93269100Y-45070900D02*
X95152200Y-46954000D01*
X95152200Y-46954000D02*
X95432000Y-46954000D01*
%TO.N,Net-(C9-Pad2)*%
X77652000Y-47539000D02*
X75670000Y-47539000D01*
X75670000Y-47539000D02*
X75620000Y-47589000D01*
%TO.N,Net-(J2-Pad1)*%
X73334000Y-48047000D02*
X70464300Y-48047000D01*
X70464300Y-48047000D02*
X70274300Y-48237000D01*
X70274300Y-48237000D02*
X69524000Y-48237000D01*
%TO.N,Net-(R6-Pad1)*%
X72763000Y-42522000D02*
X71948700Y-41707700D01*
X71948700Y-41707700D02*
X70645400Y-41707700D01*
X70645400Y-41707700D02*
X70375800Y-41977300D01*
X70375800Y-41977300D02*
X70375800Y-43309800D01*
X70375800Y-43309800D02*
X73334000Y-46268000D01*
%TD*%
M02*
