<?xml version="1.0" encoding="UTF-8"?><svg id="Layer_1" xmlns="http://www.w3.org/2000/svg" viewBox="0 0 792 612"><defs><style>.cls-1{fill:#fff;}.cls-2{fill:#e47936;}</style></defs><path class="cls-2" d="m309.06,316.6c-2.86-5.52-6.73-9.69-13.7-9.73-7.47-.04-12.14,3.61-12.78,11.07-.34,3.99.09,8.08.48,12.09.18,1.82-.16,2.86-1.91,3.36-.19.05-.37.14-.55.22-6.09,2.46-6.4,2.35-9.89-3.88.66.01,1.18.01,1.7.04,3.84.21,4.99-1.56,3.34-5.04-2.03-4.29-3.81-8.71-6.06-12.87-.72-1.32-2.51-2.27-4.02-2.89-1.21-.5-2.73-.3-4.11-.34-2.96-.07-4.55-1.45-5.44-4.39-4.39-14.58-18.84-59.59-20.12-63.36-3.44-13.12-11.99-21.7-24.08-27.15-8.2-3.69-16.39-7.41-24.63-11-1.4-.61-3.08-1.08-4.55-.91-14.02,1.64-28.03,3.42-42.03,5.19-1.07.14-2.11.54-3.18.7-4,.61-6.31,2.6-7.41,6.8-3.17,12.13-6.77,24.15-10.23,36.21-1.18,4.11-3.97,7.81-3.17,12.43.16.65.33,1.31.49,1.96.1.95.21,1.9.31,2.87-2,.57-1.51,3.14.97,4.04-2.29,1.17-2.3,9.39-1.52,9.89-.71.51.74,9.84.64,11.75-.26,5.24-.34,10.48-.73,15.71-.14,1.86,1.15,4.52-1.66,5.37-2.69.81-3.07-2.01-4.15-3.43-5.32-6.98-10.42-8.94-17.99-6.68-4.75,1.42-8.32,4.44-11.27,8.3-6.16,14.88-2.77,35.41,7.58,45.91,6.01,6.1,13.54,7.64,20.57,4.2,7.19-3.52,12.31-12.54,11.45-20.01-.38-3.25-.84-6.52-.74-9.76.04-1.29,1.2-3.1,2.35-3.68,3.32-1.7,6.8-3.27,10.4-4.2,4.56-1.17,10.75,3.46,11.56,8.14.54,3.12,1.16,6.23,1.49,9.37.24,2.23,1.29,3.25,3.41,3.8,5.17,1.35,10.28,2.9,15.41,4.38.17.05.3.24.55.45-4.14,10.13-1.79,20.37,0,30.52,1.36,7.68,3.33,15.26,5.03,22.88.01.06.02.12.03.18,4.87,6.39,19.03,7.16,23.17.04-.37-3.57.65-7.28.09-10.86-1.04-6.54-.59-6.39,5.78-8.08,11.37-3.01,22.65-6.35,34-9.46,1.66-.45,3.47-.31,5.18-.59,4.76-.77,9.57-1.38,14.25-2.5,4.32-1.03,8.5-2.62,12.73-4.01,2-.65,3.28-1.88,3.8-4.1.28-1.18,1.27-2.62,2.33-3.11,5.95-2.75,11.77-5.63,16.45-10.38.18-.18.54-.18,1.09-.35.4.88.83,1.74,1.17,2.63.6,1.57,1.08,3.19,1.73,4.74,3.61,8.72,9.37,11.25,18.34,8.09,6.12-2.16,9.54-7.02,8.87-13.48-1.35-13-4.79-25.46-10.83-37.1Zm-209.46,30.51c-.58,1.89-1.53,3.17-2.68,3.84-.19.11-.39.2-.59.28-.4.15-.82.24-1.26.25-.43.01-.88-.04-1.33-.17-1.13-.32-2.3-1.08-3.41-2.29-.26-.28-.5-.57-.74-.86-1.17-1.45-2.04-3.01-2.69-4.66-.16-.41-.31-.83-.45-1.26-.19-.59-.37-1.19-.52-1.81-.26-1.05-.46-2.13-.61-3.24-.05-.37-.1-.74-.14-1.11-.09-.78-.17-1.58-.23-2.39-.03-.35-.05-.7-.08-1.05.16-.72.3-1.56.48-2.43.18-.87.39-1.78.7-2.66.33-.93.74-1.72,1.22-2.36.32-.43.67-.79,1.04-1.09.74-.59,1.57-.91,2.43-.95,0,0,0,0,.01,0,.86-.03,1.75.21,2.63.76.44.27.88.62,1.3,1.05.21.21.42.45.63.7.64.79,1.23,1.59,1.76,2.41.38.59.73,1.19,1.05,1.79.2.37.39.74.56,1.12.69,1.48,1.21,2.99,1.54,4.55.04.18.08.36.11.54.14.76.25,1.52.31,2.3,0,.08.02.17.02.25.18,2.74-.17,5.57-1.06,8.48Zm48.89-134.98c8.36-1.55,16.83-2.67,25.05-4.78,5.34-1.37,9.67-.47,13.9,2.56,7.83,4,15.65,7.99,23.48,11.99-.09.36-.18.71-.27,1.07-5.28,1.16-10.56,2.31-15.84,3.47-4.02,1.02-8.01,2.22-12.09,2.95-1.68.3-3.75,0-5.3-.73-7.33-3.47-14.52-7.22-21.79-10.8-3.26-1.6-6.59-3.04-10.69-4.92,1.73-.4,2.64-.65,3.56-.82Zm25.1,181.44c-.05.54-.11,1.04-.19,1.52-.08.47-.18.91-.29,1.3-.06.2-.12.38-.19.56-.2.53-.44.95-.72,1.25h0c-.29-.3-.57-.69-.84-1.15-.14-.24-.28-.5-.42-.78-.29-.61-.57-1.31-.82-2.08-.09-.26-.17-.52-.25-.79-.24-.81-.46-1.67-.66-2.58-.33-1.51-.59-3.12-.78-4.74-.22-1.94-.34-3.89-.32-5.69,0-.75.04-1.47.1-2.14.06-.76.16-1.48.28-2.12.21-1.08.52-1.96.92-2.58.37.37.72.87,1.05,1.46.11.2.22.4.32.62.21.43.41.91.6,1.41.29.76.55,1.59.79,2.47.16.59.31,1.19.44,1.82.2.94.38,1.9.53,2.89.15.98.27,1.97.36,2.96.09.98.15,1.95.17,2.89,0,.31.01.62.01.92,0,.91-.03,1.78-.1,2.59Zm26.72-30.33c-3.29,1.28-6.55,2.62-9.89,3.77-.57.2-1.88-.26-2.09-.75-1.15-2.67-2.05-5.44-3.33-8.95,5.63,1.82,10.52,3.4,15.4,4.99-.03.32-.06.63-.1.95Zm13.48-49.85c-.08.98-.17,1.97-.27,2.95-.01.1-.04.2-.08.31-.12.32-.36.67-.65.97-.19.2-.41.39-.63.53-.22.14-.44.24-.63.28-1.25.22-2.42.41-3.51.54-1.1.13-2.13.21-3.1.22-.36,0-.72,0-1.06-.01-.69-.03-1.35-.1-1.98-.21-.32-.06-.62-.12-.92-.2-2.41-.64-4.38-2.03-6.14-4.51-.88-1.24-1.71-2.76-2.52-4.59-.4-.91-.61-1.62-.62-2.16,0-.43.12-.75.39-.97.13-.11.3-.2.51-.27.2-.07.44-.12.72-.15.42-.04.91-.05,1.5-.02.23.01.5-.01.77-.06.28-.05.56-.13.83-.24.4-.16.75-.36.97-.6.07-.08.13-.16.17-.25.57-1.29,1.07-2.58,1.45-3.88.28-.97.5-1.95.63-2.93.04-.33.08-.65.1-.98.05-.66.06-1.31.02-1.98-.02-.33-.05-.66-.09-.99-.05-.42-.13-.84-.23-1.26-.1-.47-.23-.94-.39-1.41-.09-.26-.18-.52-.28-.78-.16-.4-.34-.81-.54-1.22-.06-.13-.12-.26-.19-.39-.32-.62-.62-1.25-.9-1.89-.28-.64-.54-1.3-.78-1.96-.82-2.2-1.51-4.46-2.35-6.66-.06-.16-.14-.32-.22-.49-.17-.32-.37-.66-.61-1.07-.12-.2-.25-.42-.38-.66-.55,4.49-.69,5.61-2.13,6.58-.48.32-1.1.63-1.93,1.04.09.25.18.49.26.74.23.65.45,1.27.66,1.87.43,1.21.8,2.31,1.14,3.31.24.7.46,1.37.66,1.98.25.78.47,1.49.66,2.14.18.61.33,1.16.46,1.68.06.23.11.45.16.66.04.17.07.34.11.51.04.2.07.38.1.57.07.44.13.85.16,1.24.02.27.04.53.04.78,0,0,0,.02,0,.03,0,.39,0,.76-.04,1.13-.08.87-.26,1.72-.52,2.69h0c-.17-.26-.32-.51-.47-.74-.29-.47-.55-.89-.81-1.28-.13-.2-.26-.39-.39-.58-3.88-5.46-7.16-11.36-11.22-16.68-.41-.53-.82-1.06-1.24-1.58-.85-1.04-1.73-2.05-2.66-3.03-.46-.49-.94-.97-1.43-1.44-.98-.94-2.01-1.84-3.11-2.69-.41-.32-.77-.72-1.09-1.16-.96-1.33-1.59-3.08-2.46-4.53-2.04,1.01-4.16,1.88-6.08,3.09-1.12.71-2.03,1.75-2.99,2.71.42,1.38.31,1.02.74,2.39,1.59.34,3.11.78,4.56,1.33.75.29,1.48.6,2.19.94,1.42.69,2.75,1.49,3.98,2.42s2.37,1.98,3.41,3.16c1.03,1.18,1.96,2.48,2.78,3.92,2,3.52,3.94,7.07,5.86,10.64,1.92,3.57,3.81,7.15,5.72,10.71.08.15.15.3.2.45.17.45.26.88.31,1.05-2.24,1.66-4.52,3.19-6.7,4.75-1.09.78-2.16,1.58-3.19,2.4-1.03.83-2.03,1.69-2.97,2.6-1.06,1.03-2.05,1.73-3.03,2.09-.33.12-.65.21-.98.26-.49.07-.99.07-1.5-.02-.68-.12-1.39-.37-2.14-.77-.19-.1-.38-.21-.57-.32-.25-.15-.53-.27-.8-.4-5.58-2.27-11.16-4.55-16.76-6.78-1.27-.51-2.63-1.22-3.93-1.18-2.31.09-3.11-1.06-3.64-3-3.34-12.4-7.01-24.72-9.98-37.21-1.42-5.99-2.33-12.34-2.06-18.46.55-12.72,1.7-22.13,2.87-34.81.02-.26.07-.52.14-.77.82-3.01,4.29-4.44,7.11-3.1,10.27,4.87,20.54,9.75,30.8,14.65.88.42,2.12.89,2.39,1.62,1.54,4.29,5.21,6.3,8.69,8.54.22.17.37.3.53.43.15.12.31.24.47.38h0c.11.09.24.19.38.31.05.04.1.08.16.12.12.1.25.2.39.31l7.68,13.6c.4.35.6.86.77,1.38.08.26.16.53.24.78.03.08.05.17.08.25.07.19-.03.52-.22.88-.11.2-.25.41-.4.6-.18.23-.37.42-.56.54-.11.07-.21.13-.31.14-2.31.35-4.66.7-6.99.76-.38.01-.76.01-1.14,0-.38,0-.76-.02-1.14-.05-.27-.02-.54-.05-.81-.1-1.89-.35-3.73-1.4-5.62-1.99-.63-.2-1.16-.31-1.61-.33-.02,0-.05,0-.08,0-.23,0-.44.01-.64.06-.38.09-.69.29-.93.6-.37.47-.6,1.21-.78,2.24-.08.47-.12.92-.12,1.36,0,.43.03.85.09,1.25.09.55.24,1.06.44,1.56.09.24.2.47.31.69.54,1.05,1.31,2.01,2.21,2.94.3.31.61.61.94.92.96.9,1.85,1.69,2.67,2.36,1.24,1.01,2.35,1.77,3.39,2.28,1.39.67,2.65.89,3.93.66.32-.06.64-.15.97-.26,1.83-.65,3.78-2.22,6.25-4.7.23-.31.61-.8.85-1.11.12-.2.24-.41.36-.62.48-.83,1-1.7,1.58-2.71.29-.5.61-1.04.95-1.62.69,1.42,1.28,2.64,1.82,3.75.27.55.53,1.08.78,1.6.25.51.49,1.02.74,1.52,1.81,3.55,3.6,7.1,5.4,10.65.9,1.77,1.81,3.55,2.72,5.31.91,1.77,1.83,3.53,2.76,5.29.13.24.24.48.33.71s.17.46.23.68c.12.44.16.87.13,1.29-.03.42-.13.82-.31,1.22s-.44.8-.78,1.2c-.92,2.6,1.33,2.39,2.66,3,.36.47.95.94,1.22,1.4.09.15.14.31.14.46-.07,2.96-.18,5.93-.41,8.88Zm15.15-2.77s-8.45-13.41-8.8-13.8c-.88-.99-8.79-16.33-9.33-17.17-1.75-2.74-3.18-5.7-4.73-8.57-.69-1.23-1.39-2.46-2.08-3.69-.39-.96-.77-1.93-1.16-2.89-5.2-9.32-10.39-18.64-15.6-27.95-.86-1.55-.43-2.42,1.27-2.74,2.81-.54,5.62-1.08,8.43-1.62,7.19-1.62,14.36-3.3,21.57-4.77.95-.2,2.29.41,3.16,1.05,3.35,2.48,5.47,5.87,6.63,9.86,1.5,4.21,3,8.42,4.5,12.62.17.55.33,1.09.5,1.64.76,2.43,1.53,4.86,2.29,7.3,4.91,14.96,9.82,29.91,14.98,45.62-1.46,2.14-12.73,4.32-21.63,5.12Zm63.32,23.38c-1.37-.81-2.82-1.52-4.11-2.41-.45-.31-.88-.64-1.28-1.01-.23-.21-.32-.59-.33-1.05s.06-1,.14-1.52c.06-.34.13-.68.19-.97.05-.23.19-.43.38-.63.22-.23.51-.45.77-.67.09-.08.17-.15.25-.23.02-.02.04-.03.06-.05.67.67,1.56,1.22,1.98,2.02,1.03,1.97,1.85,4.05,2.76,6.09-.21.18-.42.36-.62.54-.06-.04-.12-.07-.19-.11Zm4.52,19.98c-.05.58-.13,1.17-.14,1.73-.38.09-.75.19-1.13.28-.03-.04-.05-.08-.08-.12-.48-.76-.96-1.52-1.44-2.28-.51-.8-1.01-1.6-1.52-2.4.25-.36.5-.72.75-1.08.73.23,1.74.34,2.47.57.05.02.1.04.15.05.05.02.11.04.16.06.29.12.5.28.58.48.2.47.26,1,.26,1.56,0,.37-.03.76-.07,1.14Z"/><path class="cls-1" d="m445.79,309.11l7.75-28.89c.1-.42.1-.73.1-1.15,0-2.2-1.88-4.19-4.29-4.19h-154.3l15.6,8.48h48.99l-.31,1.15c-.52,1.88-2.2,3.14-4.19,3.14h-36.74l15.49,8.58h17.8l-.21,1.15c-.52,1.88-2.2,3.14-4.19,3.14h65.32l-2.3,8.58h-17.69l1.15-4.29h-44.39l1.89,1.05c2.83,1.57,4.4,4.5,4.4,7.54,0,.73,0,1.47-.21,2.2l-12.04,44.8h53.28l30.78,17.17,13.71-51.4-6.59-8.48,11.2-8.58Zm-42.4,25.65h-17.69l2.3-8.58h17.69l-2.3,8.58Z"/><path class="cls-1" d="m551.83,279.07c0-2.3-1.88-4.29-4.29-4.29h-79.66c-1.99,0-3.66,1.36-4.19,3.25l-6.03,22.51h53.14l-4.5,17.06h-17.8l3.45-12.77h-35.45l-14.9,55.59h35.49l6.8-25.65h17.8l-6.91,25.65h35.49l21.46-80.19c.1-.42.1-.73.1-1.15Z"/><path class="cls-1" d="m591.81,300.53h17.69l5.44-20.31c.1-.42.1-.73.1-1.15,0-2.3-1.88-4.29-4.19-4.29h-38.73l-6.91,25.75h26.59Z"/><path class="cls-1" d="m564.91,334.76h-17.69l-6.91,25.65h46.58c3.87,0,7.33-2.62,8.27-6.28l13.19-49.3h-35.39l-8.06,29.94Z"/><path class="cls-1" d="m708.95,274.78h-79.66c-1.99,0-3.66,1.26-4.19,3.14l-6.05,22.61h18.18l-.4-.1h35.38l-4.5,17.17h-17.8l3.43-12.77h-35.44l-14.88,55.59h35.49l6.8-25.75h17.8l-8.27,30.78,32.24,12.04,26.07-97.35c.1-.42.1-.73.1-1.15,0-2.2-1.88-4.19-4.29-4.19Z"/><path class="cls-1" d="m581.46,382.48c-3.53-3.01-4.94-5.51-4.94-8.12,0-3.76,2.47-6.91,7.06-6.91,3.41,0,5.65,1.35,5.65,4.26,0,.65-.12,1.35-.35,2.15l-.29,1h2.65l.18-.65c.29-1,.41-1.9.41-2.76,0-3.96-2.88-6.11-7.94-6.11-6.3,0-10.12,4.01-10.12,9.37,0,3.06,1.71,5.91,5.53,9.22,3.41,2.91,4.88,5.31,4.88,8.02,0,3.81-2.59,7.37-7.24,7.37-3.59,0-5.71-1.45-5.71-4.41,0-.6.12-1.3.29-2.05l.41-1.55h-2.65l-.29,1.2c-.24.95-.35,1.85-.35,2.66,0,4.06,2.88,6.26,8,6.26,6.53,0,10.3-4.16,10.3-9.72,0-3.16-1.71-5.96-5.47-9.22Z"/><path class="cls-1" d="m587.75,400.92h2.71l3.94-8.07h11.48v8.07h2.77l.12-35.08h-3.71l-17.3,35.08Zm18.18-10.12h-10.53l10.59-21.65-.06,21.65Z"/><polygon class="cls-1" points="613.17 400.92 629.3 400.92 629.83 398.82 616.47 398.82 620.24 383.68 631.3 383.68 631.83 381.58 620.77 381.58 624.18 367.95 637.54 367.95 638.07 365.84 621.94 365.84 613.17 400.92"/><g><path class="cls-1" d="m352.91,267.37h-14.55c-.54-.59-1.2-1.44-1.98-2.57-.79-1.12-1.65-2.44-2.59-3.95-.94-1.51-1.71-2.76-2.32-3.75l-3.69-6.09c-1.66-2.73-2.91-4.59-3.75-5.59s-1.8-1.64-2.89-1.92-2.92-.42-5.51-.42h-2.04v14.19c0,1.5.16,2.7.48,3.61.32.91,1.08,1.6,2.26,2.08,1.19.48,2.92.72,5.19.72v3.69h-27.26v-3.69c3.31,0,5.44-.48,6.39-1.44.95-.96,1.42-2.62,1.42-4.97v-34.31c0-2.32-.46-3.97-1.38-4.95-.92-.98-3.07-1.46-6.43-1.46v-3.77l12.59-.4c.96-.05,2.06-.09,3.31-.12,1.24-.03,2.4-.04,3.47-.04.83,0,2.2.03,4.13.08,2.7.08,5.22.24,7.58.48,2.35.24,4.21.55,5.57.92,2,.51,3.91,1.35,5.71,2.53,1.8,1.18,3.27,2.73,4.41,4.65,1.14,1.92,1.7,4.16,1.7,6.69,0,1.82-.39,3.58-1.18,5.29-.79,1.71-2.06,3.23-3.81,4.57-1.75,1.34-4.06,2.39-6.91,3.17,1.95,1.15,3.61,2.57,4.97,4.27,1.36,1.7,3.5,4.82,6.41,9.36,1.68,2.59,3.07,4.55,4.17,5.87,1.1,1.32,2.1,2.22,3.03,2.69.92.47,2.09.77,3.51.9v3.69Zm-22.53-39.88c0-4.33-1.32-7.2-3.95-8.62-2.63-1.42-6.07-2.12-10.32-2.12-.59,0-1.05,0-1.38.02-.33.01-.72.02-1.14.02v21.85h2.53c4.03,0,7.42-.65,10.16-1.96,2.74-1.31,4.11-4.37,4.11-9.18Z"/><path class="cls-1" d="m382.05,267.37h-27.58v-3.69c2.3,0,4.03-.22,5.21-.66,1.18-.44,1.94-1.1,2.3-1.98s.54-2.14.54-3.77v-34.15c0-2.35-.49-4.01-1.46-4.97-.98-.96-3.17-1.44-6.59-1.44v-3.69h27.58v3.69c-2.3,0-4.04.23-5.21.68-1.18.45-1.94,1.12-2.3,1.98-.36.87-.54,2.12-.54,3.75v34.15c0,1.55.17,2.77.52,3.65.35.88,1.09,1.56,2.22,2.04,1.14.48,2.91.72,5.31.72v3.69Z"/><path class="cls-1" d="m439.61,228.45h-3.81c-.35-3.37-1.09-5.85-2.22-7.46s-2.36-2.59-3.67-2.97c-1.31-.37-2.82-.56-4.53-.56h-6.89v39.8c0,1.58.16,2.8.48,3.67.32.87,1.07,1.54,2.24,2.02s2.9.72,5.17.72v3.69h-27.26v-3.69c3.34,0,5.49-.48,6.45-1.44s1.44-2.62,1.44-4.97v-39.8h-5.77c-2.27,0-4.16.18-5.65.54-1.5.36-2.81,1.35-3.95,2.97-1.14,1.62-1.78,4.11-1.94,7.48h-3.81v-15.43h53.71v15.43Z"/></g></svg>