%TF.GenerationSoftware,KiCad,Pcbnew,(5.1.9)-1*%
%TF.CreationDate,2022-03-25T19:47:40-04:00*%
%TF.ProjectId,Baja_Pi_Expansion,42616a61-5f50-4695-9f45-7870616e7369,rev?*%
%TF.SameCoordinates,Original*%
%TF.FileFunction,Copper,L2,Bot*%
%TF.FilePolarity,Positive*%
%FSLAX46Y46*%
G04 Gerber Fmt 4.6, Leading zero omitted, Abs format (unit mm)*
G04 Created by KiCad (PCBNEW (5.1.9)-1) date 2022-03-25 19:47:40*
%MOMM*%
%LPD*%
G01*
G04 APERTURE LIST*
%TA.AperFunction,ComponentPad*%
%ADD10R,1.700000X1.700000*%
%TD*%
%TA.AperFunction,ComponentPad*%
%ADD11O,1.700000X1.700000*%
%TD*%
%TA.AperFunction,ComponentPad*%
%ADD12C,2.000000*%
%TD*%
%TA.AperFunction,ViaPad*%
%ADD13C,0.800000*%
%TD*%
%TA.AperFunction,Conductor*%
%ADD14C,0.250000*%
%TD*%
%TA.AperFunction,Conductor*%
%ADD15C,0.254000*%
%TD*%
%TA.AperFunction,Conductor*%
%ADD16C,0.100000*%
%TD*%
G04 APERTURE END LIST*
D10*
%TO.P,J1,1*%
%TO.N,/3v3*%
X163000000Y-86570000D03*
D11*
%TO.P,J1,2*%
%TO.N,/5v*%
X165540000Y-86570000D03*
%TO.P,J1,3*%
%TO.N,/sda2*%
X163000000Y-89110000D03*
%TO.P,J1,4*%
%TO.N,/5v*%
X165540000Y-89110000D03*
%TO.P,J1,5*%
%TO.N,/scl2*%
X163000000Y-91650000D03*
%TO.P,J1,6*%
%TO.N,/gnd*%
X165540000Y-91650000D03*
%TO.P,J1,7*%
%TO.N,/gpio1*%
X163000000Y-94190000D03*
%TO.P,J1,8*%
%TO.N,/uart_tx*%
X165540000Y-94190000D03*
%TO.P,J1,9*%
%TO.N,/gnd*%
X163000000Y-96730000D03*
%TO.P,J1,10*%
%TO.N,/uart_rx*%
X165540000Y-96730000D03*
%TO.P,J1,11*%
%TO.N,/spi2_ce1*%
X163000000Y-99270000D03*
%TO.P,J1,12*%
%TO.N,/spi2_ce0*%
X165540000Y-99270000D03*
%TO.P,J1,13*%
%TO.N,/gpio11*%
X163000000Y-101810000D03*
%TO.P,J1,14*%
%TO.N,/gnd*%
X165540000Y-101810000D03*
%TO.P,J1,15*%
%TO.N,/gpio6*%
X163000000Y-104350000D03*
%TO.P,J1,16*%
%TO.N,/gpio7*%
X165540000Y-104350000D03*
%TO.P,J1,17*%
%TO.N,/3v3*%
X163000000Y-106890000D03*
%TO.P,J1,18*%
%TO.N,/gpio8*%
X165540000Y-106890000D03*
%TO.P,J1,19*%
%TO.N,/mosi*%
X163000000Y-109430000D03*
%TO.P,J1,20*%
%TO.N,/gnd*%
X165540000Y-109430000D03*
%TD*%
D10*
%TO.P,J2,1*%
%TO.N,/miso*%
X239500000Y-84030000D03*
D11*
%TO.P,J2,2*%
%TO.N,/gpio9*%
X242040000Y-84030000D03*
%TO.P,J2,3*%
%TO.N,/sclk*%
X239500000Y-86570000D03*
%TO.P,J2,4*%
%TO.N,/spi_ce0*%
X242040000Y-86570000D03*
%TO.P,J2,5*%
%TO.N,/gnd*%
X239500000Y-89110000D03*
%TO.P,J2,6*%
%TO.N,/spi_ce1*%
X242040000Y-89110000D03*
%TO.P,J2,7*%
%TO.N,/sda*%
X239500000Y-91650000D03*
%TO.P,J2,8*%
%TO.N,/scl*%
X242040000Y-91650000D03*
%TO.P,J2,9*%
%TO.N,/gpio2*%
X239500000Y-94190000D03*
%TO.P,J2,10*%
%TO.N,/gnd*%
X242040000Y-94190000D03*
%TO.P,J2,11*%
%TO.N,/gpio3*%
X239500000Y-96730000D03*
%TO.P,J2,12*%
%TO.N,/gpio4*%
X242040000Y-96730000D03*
%TO.P,J2,13*%
%TO.N,/gpio5*%
X239500000Y-99270000D03*
%TO.P,J2,14*%
%TO.N,/gnd*%
X242040000Y-99270000D03*
%TO.P,J2,15*%
%TO.N,/miso2_pwm*%
X239500000Y-101810000D03*
%TO.P,J2,16*%
%TO.N,/reset*%
X242040000Y-101810000D03*
%TO.P,J2,17*%
%TO.N,/gpio10*%
X239500000Y-104350000D03*
%TO.P,J2,18*%
%TO.N,/miso2*%
X242040000Y-104350000D03*
%TO.P,J2,19*%
%TO.N,/gnd*%
X239500000Y-106890000D03*
%TO.P,J2,20*%
%TO.N,/sclk2*%
X242040000Y-106890000D03*
%TO.P,J2,21*%
%TO.N,Net-(J2-Pad21)*%
X239500000Y-109430000D03*
%TO.P,J2,22*%
%TO.N,/reset*%
X242040000Y-109430000D03*
%TO.P,J2,23*%
%TO.N,/vcc*%
X239500000Y-111970000D03*
%TO.P,J2,24*%
X242040000Y-111970000D03*
%TD*%
D10*
%TO.P,J4,1*%
%TO.N,/3v3*%
X168370000Y-74770000D03*
D11*
%TO.P,J4,2*%
%TO.N,/5v*%
X168370000Y-72230000D03*
%TO.P,J4,3*%
%TO.N,/sda2*%
X170910000Y-74770000D03*
%TO.P,J4,4*%
%TO.N,/5v*%
X170910000Y-72230000D03*
%TO.P,J4,5*%
%TO.N,/scl2*%
X173450000Y-74770000D03*
%TO.P,J4,6*%
%TO.N,/gnd*%
X173450000Y-72230000D03*
%TO.P,J4,7*%
%TO.N,/gpio1*%
X175990000Y-74770000D03*
%TO.P,J4,8*%
%TO.N,/uart_tx*%
X175990000Y-72230000D03*
%TO.P,J4,9*%
%TO.N,/gnd*%
X178530000Y-74770000D03*
%TO.P,J4,10*%
%TO.N,/uart_rx*%
X178530000Y-72230000D03*
%TO.P,J4,11*%
%TO.N,/spi2_ce1*%
X181070000Y-74770000D03*
%TO.P,J4,12*%
%TO.N,/spi2_ce0*%
X181070000Y-72230000D03*
%TO.P,J4,13*%
%TO.N,/gpio11*%
X183610000Y-74770000D03*
%TO.P,J4,14*%
%TO.N,/gnd*%
X183610000Y-72230000D03*
%TO.P,J4,15*%
%TO.N,/gpio6*%
X186150000Y-74770000D03*
%TO.P,J4,16*%
%TO.N,/gpio7*%
X186150000Y-72230000D03*
%TO.P,J4,17*%
%TO.N,/3v3*%
X188690000Y-74770000D03*
%TO.P,J4,18*%
%TO.N,/gpio8*%
X188690000Y-72230000D03*
%TO.P,J4,19*%
%TO.N,/mosi*%
X191230000Y-74770000D03*
%TO.P,J4,20*%
%TO.N,/gnd*%
X191230000Y-72230000D03*
%TO.P,J4,21*%
%TO.N,/miso*%
X193770000Y-74770000D03*
%TO.P,J4,22*%
%TO.N,/gpio9*%
X193770000Y-72230000D03*
%TO.P,J4,23*%
%TO.N,/sclk*%
X196310000Y-74770000D03*
%TO.P,J4,24*%
%TO.N,/spi_ce0*%
X196310000Y-72230000D03*
%TO.P,J4,25*%
%TO.N,/gnd*%
X198850000Y-74770000D03*
%TO.P,J4,26*%
%TO.N,/spi_ce1*%
X198850000Y-72230000D03*
%TO.P,J4,27*%
%TO.N,/sda*%
X201390000Y-74770000D03*
%TO.P,J4,28*%
%TO.N,/scl*%
X201390000Y-72230000D03*
%TO.P,J4,29*%
%TO.N,/gpio2*%
X203930000Y-74770000D03*
%TO.P,J4,30*%
%TO.N,/gnd*%
X203930000Y-72230000D03*
%TO.P,J4,31*%
%TO.N,/gpio3*%
X206470000Y-74770000D03*
%TO.P,J4,32*%
%TO.N,/gpio4*%
X206470000Y-72230000D03*
%TO.P,J4,33*%
%TO.N,/gpio5*%
X209010000Y-74770000D03*
%TO.P,J4,34*%
%TO.N,/gnd*%
X209010000Y-72230000D03*
%TO.P,J4,35*%
%TO.N,/miso2_pwm*%
X211550000Y-74770000D03*
%TO.P,J4,36*%
%TO.N,/reset*%
X211550000Y-72230000D03*
%TO.P,J4,37*%
%TO.N,/gpio10*%
X214090000Y-74770000D03*
%TO.P,J4,38*%
%TO.N,/miso2*%
X214090000Y-72230000D03*
%TO.P,J4,39*%
%TO.N,/gnd*%
X216630000Y-74770000D03*
%TO.P,J4,40*%
%TO.N,/sclk2*%
X216630000Y-72230000D03*
%TD*%
D12*
%TO.P,J3,4*%
%TO.N,/gnd*%
X191646000Y-120717000D03*
%TO.P,J3,3*%
%TO.N,/vcc*%
X188146000Y-120717000D03*
%TO.P,J3,2*%
%TO.N,/gnd*%
X184646000Y-120717000D03*
%TO.P,J3,1*%
%TO.N,/vcc*%
X181146000Y-120717000D03*
%TD*%
%TO.P,J5,1*%
%TO.N,/vcc*%
X198766000Y-120717000D03*
%TO.P,J5,2*%
%TO.N,/gnd*%
X202266000Y-120717000D03*
%TO.P,J5,3*%
%TO.N,/vcc*%
X205766000Y-120717000D03*
%TO.P,J5,4*%
%TO.N,/gnd*%
X209266000Y-120717000D03*
%TD*%
D13*
%TO.N,/spi_ce1*%
X228341900Y-83694700D03*
%TO.N,/sda*%
X226385500Y-91074800D03*
%TO.N,/gpio5*%
X220659200Y-81300600D03*
%TO.N,/gpio2*%
X219928400Y-88309500D03*
%TO.N,/gpio3*%
X223690800Y-81828100D03*
%TD*%
D14*
%TO.N,/vcc*%
X205766000Y-120717000D02*
X214513000Y-111970000D01*
X214513000Y-111970000D02*
X239500000Y-111970000D01*
X242040000Y-111970000D02*
X239500000Y-111970000D01*
%TO.N,/5v*%
X170542600Y-73405300D02*
X170910000Y-73405300D01*
X165540000Y-85394700D02*
X169734700Y-81200000D01*
X169734700Y-81200000D02*
X169734700Y-74213200D01*
X169734700Y-74213200D02*
X170542600Y-73405300D01*
X170542600Y-73405300D02*
X169545300Y-72408000D01*
X169545300Y-72408000D02*
X169545300Y-72230000D01*
X168370000Y-72230000D02*
X169545300Y-72230000D01*
X170910000Y-72230000D02*
X170910000Y-73405300D01*
X165540000Y-86570000D02*
X165540000Y-85394700D01*
X165540000Y-89110000D02*
X165540000Y-86570000D01*
%TO.N,/3v3*%
X163000000Y-86570000D02*
X163000000Y-87745300D01*
X163000000Y-87745300D02*
X162632600Y-87745300D01*
X162632600Y-87745300D02*
X161824700Y-88553200D01*
X161824700Y-88553200D02*
X161824700Y-104906800D01*
X161824700Y-104906800D02*
X162632600Y-105714700D01*
X162632600Y-105714700D02*
X163000000Y-105714700D01*
X168370000Y-75945300D02*
X163000000Y-81315300D01*
X163000000Y-81315300D02*
X163000000Y-86570000D01*
X163000000Y-106890000D02*
X163000000Y-105714700D01*
X168370000Y-74770000D02*
X168370000Y-75945300D01*
%TO.N,/scl2*%
X163000000Y-91650000D02*
X164175300Y-91650000D01*
X164175300Y-91650000D02*
X164175300Y-91282600D01*
X164175300Y-91282600D02*
X164983200Y-90474700D01*
X164983200Y-90474700D02*
X165850800Y-90474700D01*
X165850800Y-90474700D02*
X173450000Y-82875500D01*
X173450000Y-82875500D02*
X173450000Y-74770000D01*
%TO.N,/gpio1*%
X163000000Y-94190000D02*
X164175300Y-94190000D01*
X175990000Y-74770000D02*
X175990000Y-82875500D01*
X175990000Y-82875500D02*
X165850800Y-93014700D01*
X165850800Y-93014700D02*
X164983200Y-93014700D01*
X164983200Y-93014700D02*
X164175300Y-93822600D01*
X164175300Y-93822600D02*
X164175300Y-94190000D01*
%TO.N,/uart_rx*%
X165540000Y-96730000D02*
X165540000Y-95554700D01*
X178530000Y-72230000D02*
X178530000Y-73405300D01*
X178530000Y-73405300D02*
X178162600Y-73405300D01*
X178162600Y-73405300D02*
X177354700Y-74213200D01*
X177354700Y-74213200D02*
X177354700Y-84107300D01*
X177354700Y-84107300D02*
X165907300Y-95554700D01*
X165907300Y-95554700D02*
X165540000Y-95554700D01*
%TO.N,/spi2_ce1*%
X163000000Y-99270000D02*
X164175300Y-99270000D01*
X181070000Y-74770000D02*
X181070000Y-85403100D01*
X181070000Y-85403100D02*
X166027800Y-100445300D01*
X166027800Y-100445300D02*
X164983200Y-100445300D01*
X164983200Y-100445300D02*
X164175300Y-99637400D01*
X164175300Y-99637400D02*
X164175300Y-99270000D01*
%TO.N,/spi2_ce0*%
X181070000Y-73405300D02*
X180702600Y-73405300D01*
X180702600Y-73405300D02*
X179894700Y-74213200D01*
X179894700Y-74213200D02*
X179894700Y-84051300D01*
X179894700Y-84051300D02*
X165851300Y-98094700D01*
X165851300Y-98094700D02*
X165540000Y-98094700D01*
X165540000Y-99270000D02*
X165540000Y-98094700D01*
X181070000Y-72230000D02*
X181070000Y-73405300D01*
%TO.N,/gpio11*%
X163000000Y-101810000D02*
X163000000Y-102985300D01*
X183610000Y-74770000D02*
X183610000Y-73594700D01*
X183610000Y-73594700D02*
X183242600Y-73594700D01*
X183242600Y-73594700D02*
X182434700Y-72786800D01*
X182434700Y-72786800D02*
X182434700Y-71913500D01*
X182434700Y-71913500D02*
X181569900Y-71048700D01*
X181569900Y-71048700D02*
X167854200Y-71048700D01*
X167854200Y-71048700D02*
X166859300Y-72043600D01*
X166859300Y-72043600D02*
X166859300Y-75280000D01*
X166859300Y-75280000D02*
X161371600Y-80767700D01*
X161371600Y-80767700D02*
X161371600Y-106930500D01*
X161371600Y-106930500D02*
X162506500Y-108065400D01*
X162506500Y-108065400D02*
X163581900Y-108065400D01*
X163581900Y-108065400D02*
X164175300Y-107472000D01*
X164175300Y-107472000D02*
X164175300Y-103793200D01*
X164175300Y-103793200D02*
X163367400Y-102985300D01*
X163367400Y-102985300D02*
X163000000Y-102985300D01*
%TO.N,/gpio7*%
X165540000Y-104350000D02*
X165540000Y-103174700D01*
X186150000Y-72230000D02*
X186150000Y-73405300D01*
X186150000Y-73405300D02*
X185782600Y-73405300D01*
X185782600Y-73405300D02*
X184974700Y-74213200D01*
X184974700Y-74213200D02*
X184974700Y-84107300D01*
X184974700Y-84107300D02*
X165907300Y-103174700D01*
X165907300Y-103174700D02*
X165540000Y-103174700D01*
%TO.N,/gpio8*%
X165540000Y-106890000D02*
X165540000Y-105714700D01*
X188690000Y-72230000D02*
X188690000Y-73405300D01*
X188690000Y-73405300D02*
X188322600Y-73405300D01*
X188322600Y-73405300D02*
X187514700Y-74213200D01*
X187514700Y-74213200D02*
X187514700Y-84107300D01*
X187514700Y-84107300D02*
X165907300Y-105714700D01*
X165907300Y-105714700D02*
X165540000Y-105714700D01*
%TO.N,/miso*%
X239500000Y-84030000D02*
X240675300Y-84030000D01*
X193770000Y-74770000D02*
X194945300Y-74770000D01*
X194945300Y-74770000D02*
X194945300Y-75137300D01*
X194945300Y-75137300D02*
X230444800Y-110636800D01*
X230444800Y-110636800D02*
X242517900Y-110636800D01*
X242517900Y-110636800D02*
X243688000Y-109466700D01*
X243688000Y-109466700D02*
X243688000Y-84015700D01*
X243688000Y-84015700D02*
X242527000Y-82854700D01*
X242527000Y-82854700D02*
X241483200Y-82854700D01*
X241483200Y-82854700D02*
X240675300Y-83662600D01*
X240675300Y-83662600D02*
X240675300Y-84030000D01*
%TO.N,/spi_ce1*%
X242040000Y-89110000D02*
X240864700Y-89110000D01*
X228341900Y-83694700D02*
X232581900Y-87934700D01*
X232581900Y-87934700D02*
X240056800Y-87934700D01*
X240056800Y-87934700D02*
X240864700Y-88742600D01*
X240864700Y-88742600D02*
X240864700Y-89110000D01*
%TO.N,/sda*%
X201390000Y-74770000D02*
X202565300Y-74770000D01*
X202565300Y-74770000D02*
X202565300Y-75137300D01*
X202565300Y-75137300D02*
X218502800Y-91074800D01*
X218502800Y-91074800D02*
X226385500Y-91074800D01*
%TO.N,/gpio4*%
X242040000Y-96730000D02*
X240864700Y-96730000D01*
X206470000Y-72230000D02*
X207645300Y-72230000D01*
X207645300Y-72230000D02*
X207645300Y-71862700D01*
X207645300Y-71862700D02*
X208470500Y-71037500D01*
X208470500Y-71037500D02*
X217099900Y-71037500D01*
X217099900Y-71037500D02*
X218255700Y-72193300D01*
X218255700Y-72193300D02*
X218255700Y-74815500D01*
X218255700Y-74815500D02*
X238994900Y-95554700D01*
X238994900Y-95554700D02*
X240056800Y-95554700D01*
X240056800Y-95554700D02*
X240864700Y-96362600D01*
X240864700Y-96362600D02*
X240864700Y-96730000D01*
%TO.N,/gpio5*%
X239500000Y-99270000D02*
X238324700Y-99270000D01*
X220659200Y-81300600D02*
X238324700Y-98966100D01*
X238324700Y-98966100D02*
X238324700Y-99270000D01*
%TO.N,/miso2_pwm*%
X239500000Y-101810000D02*
X238324700Y-101810000D01*
X211550000Y-74770000D02*
X212725300Y-74770000D01*
X212725300Y-74770000D02*
X212725300Y-75330500D01*
X212725300Y-75330500D02*
X238324700Y-100929900D01*
X238324700Y-100929900D02*
X238324700Y-101810000D01*
%TO.N,/reset*%
X240025600Y-105525400D02*
X240770000Y-104781000D01*
X240770000Y-104781000D02*
X240770000Y-103080000D01*
X240770000Y-103080000D02*
X242040000Y-101810000D01*
X211550000Y-73405300D02*
X211182700Y-73405300D01*
X211182700Y-73405300D02*
X210369900Y-74218100D01*
X210369900Y-74218100D02*
X210369900Y-75280500D01*
X210369900Y-75280500D02*
X217659400Y-82570000D01*
X217659400Y-82570000D02*
X218906600Y-82570000D01*
X218906600Y-82570000D02*
X237085800Y-100749200D01*
X237085800Y-100749200D02*
X237085800Y-103659500D01*
X237085800Y-103659500D02*
X238951700Y-105525400D01*
X238951700Y-105525400D02*
X240025600Y-105525400D01*
X242040000Y-108254700D02*
X241672600Y-108254700D01*
X241672600Y-108254700D02*
X240864700Y-107446800D01*
X240864700Y-107446800D02*
X240864700Y-106364500D01*
X240864700Y-106364500D02*
X240025600Y-105525400D01*
X242040000Y-109430000D02*
X242040000Y-108254700D01*
X211550000Y-72230000D02*
X211550000Y-73405300D01*
%TO.N,/gpio10*%
X214090000Y-74770000D02*
X214090000Y-75945300D01*
X239500000Y-104350000D02*
X239500000Y-103174700D01*
X214090000Y-75945300D02*
X238684700Y-100540000D01*
X238684700Y-100540000D02*
X239894800Y-100540000D01*
X239894800Y-100540000D02*
X240675300Y-101320500D01*
X240675300Y-101320500D02*
X240675300Y-102366800D01*
X240675300Y-102366800D02*
X239867400Y-103174700D01*
X239867400Y-103174700D02*
X239500000Y-103174700D01*
%TO.N,/miso2*%
X242040000Y-104350000D02*
X242040000Y-103174700D01*
X214090000Y-72230000D02*
X214090000Y-73405300D01*
X214090000Y-73405300D02*
X214457400Y-73405300D01*
X214457400Y-73405300D02*
X215265300Y-74213200D01*
X215265300Y-74213200D02*
X215265300Y-75102500D01*
X215265300Y-75102500D02*
X218816600Y-78653800D01*
X218816600Y-78653800D02*
X219425700Y-78653800D01*
X219425700Y-78653800D02*
X238772000Y-98000100D01*
X238772000Y-98000100D02*
X239892300Y-98000100D01*
X239892300Y-98000100D02*
X240675300Y-98783100D01*
X240675300Y-98783100D02*
X240675300Y-99570000D01*
X240675300Y-99570000D02*
X241645300Y-100540000D01*
X241645300Y-100540000D02*
X242528500Y-100540000D01*
X242528500Y-100540000D02*
X243215300Y-101226800D01*
X243215300Y-101226800D02*
X243215300Y-102366800D01*
X243215300Y-102366800D02*
X242407400Y-103174700D01*
X242407400Y-103174700D02*
X242040000Y-103174700D01*
%TO.N,/gpio2*%
X205105300Y-74770000D02*
X205105300Y-75101800D01*
X205105300Y-75101800D02*
X218313000Y-88309500D01*
X218313000Y-88309500D02*
X219928400Y-88309500D01*
X203930000Y-74770000D02*
X205105300Y-74770000D01*
%TO.N,/gpio3*%
X239500000Y-96730000D02*
X238324700Y-96730000D01*
X223690800Y-81828100D02*
X238324700Y-96462000D01*
X238324700Y-96462000D02*
X238324700Y-96730000D01*
%TD*%
D15*
%TO.N,/gnd*%
X192616525Y-75716632D02*
X192823368Y-75923475D01*
X193066589Y-76085990D01*
X193336842Y-76197932D01*
X193623740Y-76255000D01*
X193916260Y-76255000D01*
X194203158Y-76197932D01*
X194473411Y-76085990D01*
X194680690Y-75947491D01*
X229881001Y-111147803D01*
X229904799Y-111176801D01*
X229945252Y-111210000D01*
X214550322Y-111210000D01*
X214512999Y-111206324D01*
X214475676Y-111210000D01*
X214475667Y-111210000D01*
X214364014Y-111220997D01*
X214220753Y-111264454D01*
X214088723Y-111335026D01*
X214026853Y-111385802D01*
X213972999Y-111429999D01*
X213949201Y-111458997D01*
X206257376Y-119150823D01*
X206242912Y-119144832D01*
X205927033Y-119082000D01*
X205604967Y-119082000D01*
X205289088Y-119144832D01*
X204991537Y-119268082D01*
X204723748Y-119447013D01*
X204496013Y-119674748D01*
X204317082Y-119942537D01*
X204193832Y-120240088D01*
X204131000Y-120555967D01*
X204131000Y-120878033D01*
X204193832Y-121193912D01*
X204317082Y-121491463D01*
X204496013Y-121759252D01*
X204723748Y-121986987D01*
X204991537Y-122165918D01*
X205289088Y-122289168D01*
X205604967Y-122352000D01*
X205927033Y-122352000D01*
X206242912Y-122289168D01*
X206540463Y-122165918D01*
X206808252Y-121986987D01*
X206942826Y-121852413D01*
X208310192Y-121852413D01*
X208405956Y-122116814D01*
X208695571Y-122257704D01*
X209007108Y-122339384D01*
X209328595Y-122358718D01*
X209647675Y-122314961D01*
X209952088Y-122209795D01*
X210126044Y-122116814D01*
X210221808Y-121852413D01*
X209266000Y-120896605D01*
X208310192Y-121852413D01*
X206942826Y-121852413D01*
X207035987Y-121759252D01*
X207214918Y-121491463D01*
X207338168Y-121193912D01*
X207401000Y-120878033D01*
X207401000Y-120779595D01*
X207624282Y-120779595D01*
X207668039Y-121098675D01*
X207773205Y-121403088D01*
X207866186Y-121577044D01*
X208130587Y-121672808D01*
X209086395Y-120717000D01*
X209445605Y-120717000D01*
X210401413Y-121672808D01*
X210665814Y-121577044D01*
X210806704Y-121287429D01*
X210888384Y-120975892D01*
X210907718Y-120654405D01*
X210863961Y-120335325D01*
X210758795Y-120030912D01*
X210665814Y-119856956D01*
X210401413Y-119761192D01*
X209445605Y-120717000D01*
X209086395Y-120717000D01*
X208130587Y-119761192D01*
X207866186Y-119856956D01*
X207725296Y-120146571D01*
X207643616Y-120458108D01*
X207624282Y-120779595D01*
X207401000Y-120779595D01*
X207401000Y-120555967D01*
X207338168Y-120240088D01*
X207332177Y-120225624D01*
X207976214Y-119581587D01*
X208310192Y-119581587D01*
X209266000Y-120537395D01*
X210221808Y-119581587D01*
X210126044Y-119317186D01*
X209836429Y-119176296D01*
X209524892Y-119094616D01*
X209203405Y-119075282D01*
X208884325Y-119119039D01*
X208579912Y-119224205D01*
X208405956Y-119317186D01*
X208310192Y-119581587D01*
X207976214Y-119581587D01*
X214827802Y-112730000D01*
X238221822Y-112730000D01*
X238346525Y-112916632D01*
X238553368Y-113123475D01*
X238796589Y-113285990D01*
X239066842Y-113397932D01*
X239353740Y-113455000D01*
X239646260Y-113455000D01*
X239933158Y-113397932D01*
X240203411Y-113285990D01*
X240446632Y-113123475D01*
X240653475Y-112916632D01*
X240770000Y-112742240D01*
X240886525Y-112916632D01*
X241093368Y-113123475D01*
X241336589Y-113285990D01*
X241606842Y-113397932D01*
X241893740Y-113455000D01*
X242186260Y-113455000D01*
X242473158Y-113397932D01*
X242743411Y-113285990D01*
X242986632Y-113123475D01*
X243193475Y-112916632D01*
X243355990Y-112673411D01*
X243467932Y-112403158D01*
X243525000Y-112116260D01*
X243525000Y-111823740D01*
X243467932Y-111536842D01*
X243355990Y-111266589D01*
X243198545Y-111030956D01*
X244199004Y-110030498D01*
X244228001Y-110006701D01*
X244322974Y-109890976D01*
X244340001Y-109859122D01*
X244340001Y-119413000D01*
X241230000Y-119413000D01*
X241212039Y-119414276D01*
X241072039Y-119434276D01*
X241067282Y-119435049D01*
X240959680Y-119454613D01*
X240892039Y-119464276D01*
X240882450Y-119466024D01*
X240795765Y-119485287D01*
X240679121Y-119504728D01*
X240654410Y-119511465D01*
X240527107Y-119560428D01*
X240409839Y-119599517D01*
X240402833Y-119602083D01*
X240302833Y-119642083D01*
X240299972Y-119643269D01*
X240159972Y-119703269D01*
X240147509Y-119709439D01*
X239917509Y-119839439D01*
X239911324Y-119843170D01*
X239771324Y-119933170D01*
X239767170Y-119935958D01*
X239669890Y-120004054D01*
X239592690Y-120052304D01*
X239580664Y-120060830D01*
X239530664Y-120100830D01*
X239524183Y-120106381D01*
X239404183Y-120216381D01*
X239400197Y-120220197D01*
X239280197Y-120340197D01*
X239273574Y-120347349D01*
X239216748Y-120413646D01*
X239160197Y-120470197D01*
X239152436Y-120478697D01*
X239102436Y-120538697D01*
X239097291Y-120545302D01*
X239017851Y-120654532D01*
X238928400Y-120773800D01*
X238919310Y-120787737D01*
X238829310Y-120947737D01*
X238828982Y-120948323D01*
X238728982Y-121128323D01*
X238722769Y-121141154D01*
X238672769Y-121261154D01*
X238670830Y-121266095D01*
X238600830Y-121456095D01*
X238599517Y-121459839D01*
X238549517Y-121609839D01*
X238547182Y-121617679D01*
X238497182Y-121807679D01*
X238496252Y-121811443D01*
X238466252Y-121941443D01*
X238463981Y-121954248D01*
X238433981Y-122194248D01*
X238433247Y-122202078D01*
X238423247Y-122362078D01*
X238423000Y-122370000D01*
X238423000Y-122489717D01*
X238416652Y-125340000D01*
X222753702Y-125340000D01*
X222951580Y-125252054D01*
X222956796Y-125249592D01*
X223156796Y-125149592D01*
X223170447Y-125141670D01*
X223395447Y-124991670D01*
X223401200Y-124987600D01*
X223501200Y-124912600D01*
X223514803Y-124900803D01*
X223789803Y-124625803D01*
X223797564Y-124617303D01*
X224047564Y-124317303D01*
X224055670Y-124306447D01*
X224205670Y-124081447D01*
X224210267Y-124074010D01*
X224310267Y-123899010D01*
X224316731Y-123886028D01*
X224391731Y-123711028D01*
X224395483Y-123701161D01*
X224444739Y-123553393D01*
X224518914Y-123355593D01*
X224524181Y-123337610D01*
X224599181Y-122987610D01*
X224601223Y-122975025D01*
X224626223Y-122750025D01*
X224627000Y-122736000D01*
X224627000Y-122361000D01*
X224626370Y-122348363D01*
X224601370Y-122098363D01*
X224600272Y-122090121D01*
X224575272Y-121940121D01*
X224572525Y-121927584D01*
X224497525Y-121652584D01*
X224494601Y-121643285D01*
X224369601Y-121293285D01*
X224366731Y-121285972D01*
X224291731Y-121110972D01*
X224283902Y-121095659D01*
X224133902Y-120845659D01*
X224128344Y-120837183D01*
X224003344Y-120662183D01*
X223997564Y-120654697D01*
X223872564Y-120504697D01*
X223870577Y-120502370D01*
X223695577Y-120302370D01*
X223683630Y-120290423D01*
X223483630Y-120115423D01*
X223471715Y-120106186D01*
X222996715Y-119781186D01*
X222976580Y-119769946D01*
X222751580Y-119669946D01*
X222744593Y-119667086D01*
X222544593Y-119592086D01*
X222530802Y-119587792D01*
X222230802Y-119512792D01*
X222224907Y-119511466D01*
X221974907Y-119461466D01*
X221962637Y-119459630D01*
X221712637Y-119434630D01*
X221700000Y-119434000D01*
X221350000Y-119434000D01*
X221332039Y-119435276D01*
X220982039Y-119485276D01*
X220969198Y-119487792D01*
X220769198Y-119537792D01*
X220759839Y-119540517D01*
X220609839Y-119590517D01*
X220605407Y-119592086D01*
X220205407Y-119742086D01*
X220186990Y-119750733D01*
X220011990Y-119850733D01*
X220004553Y-119855330D01*
X219704553Y-120055330D01*
X219695664Y-120061830D01*
X219570664Y-120161830D01*
X219560197Y-120171197D01*
X219285197Y-120446197D01*
X219275830Y-120456664D01*
X219075830Y-120706664D01*
X219070582Y-120713710D01*
X218845582Y-121038710D01*
X218836408Y-121054204D01*
X218786408Y-121154204D01*
X218782083Y-121163833D01*
X218732083Y-121288833D01*
X218731086Y-121291407D01*
X218656575Y-121490103D01*
X218607083Y-121613833D01*
X218601792Y-121630198D01*
X218576792Y-121730198D01*
X218576024Y-121733450D01*
X218526024Y-121958450D01*
X218524276Y-121968039D01*
X218499276Y-122143039D01*
X218498000Y-122161000D01*
X218498000Y-122886000D01*
X218500466Y-122910907D01*
X218575466Y-123285907D01*
X218577886Y-123295890D01*
X218627886Y-123470890D01*
X218632083Y-123483167D01*
X218681575Y-123606897D01*
X218756086Y-123805593D01*
X218766098Y-123826341D01*
X218838593Y-123947166D01*
X218886408Y-124042796D01*
X218891098Y-124051341D01*
X218966098Y-124176341D01*
X218973400Y-124187200D01*
X219048400Y-124287200D01*
X219053050Y-124293035D01*
X219328050Y-124618035D01*
X219335197Y-124625803D01*
X219585197Y-124875803D01*
X219593697Y-124883564D01*
X219743697Y-125008564D01*
X219758440Y-125019161D01*
X220083440Y-125219161D01*
X220093204Y-125224592D01*
X220324020Y-125340000D01*
X166577000Y-125340000D01*
X166577000Y-122230000D01*
X166575724Y-122212039D01*
X166555724Y-122072039D01*
X166554951Y-122067282D01*
X166535387Y-121959680D01*
X166525724Y-121892039D01*
X166523976Y-121882450D01*
X166504713Y-121795765D01*
X166485272Y-121679121D01*
X166478535Y-121654410D01*
X166429573Y-121527108D01*
X166390483Y-121409839D01*
X166387917Y-121402833D01*
X166347917Y-121302833D01*
X166346731Y-121299972D01*
X166286731Y-121159972D01*
X166280561Y-121147509D01*
X166150561Y-120917509D01*
X166146830Y-120911324D01*
X166056830Y-120771324D01*
X166054042Y-120767170D01*
X165985946Y-120669890D01*
X165937696Y-120592690D01*
X165929170Y-120580664D01*
X165909413Y-120555967D01*
X179511000Y-120555967D01*
X179511000Y-120878033D01*
X179573832Y-121193912D01*
X179697082Y-121491463D01*
X179876013Y-121759252D01*
X180103748Y-121986987D01*
X180371537Y-122165918D01*
X180669088Y-122289168D01*
X180984967Y-122352000D01*
X181307033Y-122352000D01*
X181622912Y-122289168D01*
X181920463Y-122165918D01*
X182188252Y-121986987D01*
X182322826Y-121852413D01*
X183690192Y-121852413D01*
X183785956Y-122116814D01*
X184075571Y-122257704D01*
X184387108Y-122339384D01*
X184708595Y-122358718D01*
X185027675Y-122314961D01*
X185332088Y-122209795D01*
X185506044Y-122116814D01*
X185601808Y-121852413D01*
X184646000Y-120896605D01*
X183690192Y-121852413D01*
X182322826Y-121852413D01*
X182415987Y-121759252D01*
X182594918Y-121491463D01*
X182718168Y-121193912D01*
X182781000Y-120878033D01*
X182781000Y-120779595D01*
X183004282Y-120779595D01*
X183048039Y-121098675D01*
X183153205Y-121403088D01*
X183246186Y-121577044D01*
X183510587Y-121672808D01*
X184466395Y-120717000D01*
X184825605Y-120717000D01*
X185781413Y-121672808D01*
X186045814Y-121577044D01*
X186186704Y-121287429D01*
X186268384Y-120975892D01*
X186287718Y-120654405D01*
X186274219Y-120555967D01*
X186511000Y-120555967D01*
X186511000Y-120878033D01*
X186573832Y-121193912D01*
X186697082Y-121491463D01*
X186876013Y-121759252D01*
X187103748Y-121986987D01*
X187371537Y-122165918D01*
X187669088Y-122289168D01*
X187984967Y-122352000D01*
X188307033Y-122352000D01*
X188622912Y-122289168D01*
X188920463Y-122165918D01*
X189188252Y-121986987D01*
X189322826Y-121852413D01*
X190690192Y-121852413D01*
X190785956Y-122116814D01*
X191075571Y-122257704D01*
X191387108Y-122339384D01*
X191708595Y-122358718D01*
X192027675Y-122314961D01*
X192332088Y-122209795D01*
X192506044Y-122116814D01*
X192601808Y-121852413D01*
X191646000Y-120896605D01*
X190690192Y-121852413D01*
X189322826Y-121852413D01*
X189415987Y-121759252D01*
X189594918Y-121491463D01*
X189718168Y-121193912D01*
X189781000Y-120878033D01*
X189781000Y-120779595D01*
X190004282Y-120779595D01*
X190048039Y-121098675D01*
X190153205Y-121403088D01*
X190246186Y-121577044D01*
X190510587Y-121672808D01*
X191466395Y-120717000D01*
X191825605Y-120717000D01*
X192781413Y-121672808D01*
X193045814Y-121577044D01*
X193186704Y-121287429D01*
X193268384Y-120975892D01*
X193287718Y-120654405D01*
X193274219Y-120555967D01*
X197131000Y-120555967D01*
X197131000Y-120878033D01*
X197193832Y-121193912D01*
X197317082Y-121491463D01*
X197496013Y-121759252D01*
X197723748Y-121986987D01*
X197991537Y-122165918D01*
X198289088Y-122289168D01*
X198604967Y-122352000D01*
X198927033Y-122352000D01*
X199242912Y-122289168D01*
X199540463Y-122165918D01*
X199808252Y-121986987D01*
X199942826Y-121852413D01*
X201310192Y-121852413D01*
X201405956Y-122116814D01*
X201695571Y-122257704D01*
X202007108Y-122339384D01*
X202328595Y-122358718D01*
X202647675Y-122314961D01*
X202952088Y-122209795D01*
X203126044Y-122116814D01*
X203221808Y-121852413D01*
X202266000Y-120896605D01*
X201310192Y-121852413D01*
X199942826Y-121852413D01*
X200035987Y-121759252D01*
X200214918Y-121491463D01*
X200338168Y-121193912D01*
X200401000Y-120878033D01*
X200401000Y-120779595D01*
X200624282Y-120779595D01*
X200668039Y-121098675D01*
X200773205Y-121403088D01*
X200866186Y-121577044D01*
X201130587Y-121672808D01*
X202086395Y-120717000D01*
X202445605Y-120717000D01*
X203401413Y-121672808D01*
X203665814Y-121577044D01*
X203806704Y-121287429D01*
X203888384Y-120975892D01*
X203907718Y-120654405D01*
X203863961Y-120335325D01*
X203758795Y-120030912D01*
X203665814Y-119856956D01*
X203401413Y-119761192D01*
X202445605Y-120717000D01*
X202086395Y-120717000D01*
X201130587Y-119761192D01*
X200866186Y-119856956D01*
X200725296Y-120146571D01*
X200643616Y-120458108D01*
X200624282Y-120779595D01*
X200401000Y-120779595D01*
X200401000Y-120555967D01*
X200338168Y-120240088D01*
X200214918Y-119942537D01*
X200035987Y-119674748D01*
X199942826Y-119581587D01*
X201310192Y-119581587D01*
X202266000Y-120537395D01*
X203221808Y-119581587D01*
X203126044Y-119317186D01*
X202836429Y-119176296D01*
X202524892Y-119094616D01*
X202203405Y-119075282D01*
X201884325Y-119119039D01*
X201579912Y-119224205D01*
X201405956Y-119317186D01*
X201310192Y-119581587D01*
X199942826Y-119581587D01*
X199808252Y-119447013D01*
X199540463Y-119268082D01*
X199242912Y-119144832D01*
X198927033Y-119082000D01*
X198604967Y-119082000D01*
X198289088Y-119144832D01*
X197991537Y-119268082D01*
X197723748Y-119447013D01*
X197496013Y-119674748D01*
X197317082Y-119942537D01*
X197193832Y-120240088D01*
X197131000Y-120555967D01*
X193274219Y-120555967D01*
X193243961Y-120335325D01*
X193138795Y-120030912D01*
X193045814Y-119856956D01*
X192781413Y-119761192D01*
X191825605Y-120717000D01*
X191466395Y-120717000D01*
X190510587Y-119761192D01*
X190246186Y-119856956D01*
X190105296Y-120146571D01*
X190023616Y-120458108D01*
X190004282Y-120779595D01*
X189781000Y-120779595D01*
X189781000Y-120555967D01*
X189718168Y-120240088D01*
X189594918Y-119942537D01*
X189415987Y-119674748D01*
X189322826Y-119581587D01*
X190690192Y-119581587D01*
X191646000Y-120537395D01*
X192601808Y-119581587D01*
X192506044Y-119317186D01*
X192216429Y-119176296D01*
X191904892Y-119094616D01*
X191583405Y-119075282D01*
X191264325Y-119119039D01*
X190959912Y-119224205D01*
X190785956Y-119317186D01*
X190690192Y-119581587D01*
X189322826Y-119581587D01*
X189188252Y-119447013D01*
X188920463Y-119268082D01*
X188622912Y-119144832D01*
X188307033Y-119082000D01*
X187984967Y-119082000D01*
X187669088Y-119144832D01*
X187371537Y-119268082D01*
X187103748Y-119447013D01*
X186876013Y-119674748D01*
X186697082Y-119942537D01*
X186573832Y-120240088D01*
X186511000Y-120555967D01*
X186274219Y-120555967D01*
X186243961Y-120335325D01*
X186138795Y-120030912D01*
X186045814Y-119856956D01*
X185781413Y-119761192D01*
X184825605Y-120717000D01*
X184466395Y-120717000D01*
X183510587Y-119761192D01*
X183246186Y-119856956D01*
X183105296Y-120146571D01*
X183023616Y-120458108D01*
X183004282Y-120779595D01*
X182781000Y-120779595D01*
X182781000Y-120555967D01*
X182718168Y-120240088D01*
X182594918Y-119942537D01*
X182415987Y-119674748D01*
X182322826Y-119581587D01*
X183690192Y-119581587D01*
X184646000Y-120537395D01*
X185601808Y-119581587D01*
X185506044Y-119317186D01*
X185216429Y-119176296D01*
X184904892Y-119094616D01*
X184583405Y-119075282D01*
X184264325Y-119119039D01*
X183959912Y-119224205D01*
X183785956Y-119317186D01*
X183690192Y-119581587D01*
X182322826Y-119581587D01*
X182188252Y-119447013D01*
X181920463Y-119268082D01*
X181622912Y-119144832D01*
X181307033Y-119082000D01*
X180984967Y-119082000D01*
X180669088Y-119144832D01*
X180371537Y-119268082D01*
X180103748Y-119447013D01*
X179876013Y-119674748D01*
X179697082Y-119942537D01*
X179573832Y-120240088D01*
X179511000Y-120555967D01*
X165909413Y-120555967D01*
X165889170Y-120530664D01*
X165883619Y-120524183D01*
X165773619Y-120404183D01*
X165769803Y-120400197D01*
X165649803Y-120280197D01*
X165642651Y-120273574D01*
X165576354Y-120216748D01*
X165519803Y-120160197D01*
X165511303Y-120152436D01*
X165451303Y-120102436D01*
X165444698Y-120097291D01*
X165335468Y-120017851D01*
X165216200Y-119928400D01*
X165202263Y-119919310D01*
X165042263Y-119829310D01*
X165041677Y-119828982D01*
X164861677Y-119728982D01*
X164848846Y-119722769D01*
X164728846Y-119672769D01*
X164723905Y-119670830D01*
X164533905Y-119600830D01*
X164530161Y-119599517D01*
X164380161Y-119549517D01*
X164372321Y-119547182D01*
X164182321Y-119497182D01*
X164178557Y-119496252D01*
X164048557Y-119466252D01*
X164035752Y-119463981D01*
X163795752Y-119433981D01*
X163787922Y-119433247D01*
X163627922Y-119423247D01*
X163620000Y-119423000D01*
X163500283Y-119423000D01*
X160660000Y-119416674D01*
X160660000Y-107202788D01*
X160666054Y-107222746D01*
X160736626Y-107354776D01*
X160798711Y-107430426D01*
X160831600Y-107470501D01*
X160860598Y-107494299D01*
X161848096Y-108481797D01*
X161846525Y-108483368D01*
X161684010Y-108726589D01*
X161572068Y-108996842D01*
X161515000Y-109283740D01*
X161515000Y-109576260D01*
X161572068Y-109863158D01*
X161684010Y-110133411D01*
X161846525Y-110376632D01*
X162053368Y-110583475D01*
X162296589Y-110745990D01*
X162566842Y-110857932D01*
X162853740Y-110915000D01*
X163146260Y-110915000D01*
X163433158Y-110857932D01*
X163703411Y-110745990D01*
X163946632Y-110583475D01*
X164153475Y-110376632D01*
X164271100Y-110200594D01*
X164442412Y-110430269D01*
X164658645Y-110625178D01*
X164908748Y-110774157D01*
X165183109Y-110871481D01*
X165413000Y-110750814D01*
X165413000Y-109557000D01*
X165667000Y-109557000D01*
X165667000Y-110750814D01*
X165896891Y-110871481D01*
X166171252Y-110774157D01*
X166421355Y-110625178D01*
X166637588Y-110430269D01*
X166811641Y-110196920D01*
X166936825Y-109934099D01*
X166981476Y-109786890D01*
X166860155Y-109557000D01*
X165667000Y-109557000D01*
X165413000Y-109557000D01*
X165393000Y-109557000D01*
X165393000Y-109303000D01*
X165413000Y-109303000D01*
X165413000Y-109283000D01*
X165667000Y-109283000D01*
X165667000Y-109303000D01*
X166860155Y-109303000D01*
X166981476Y-109073110D01*
X166936825Y-108925901D01*
X166811641Y-108663080D01*
X166637588Y-108429731D01*
X166421355Y-108234822D01*
X166304466Y-108165195D01*
X166486632Y-108043475D01*
X166693475Y-107836632D01*
X166855990Y-107593411D01*
X166967932Y-107323158D01*
X167025000Y-107036260D01*
X167025000Y-106743740D01*
X166967932Y-106456842D01*
X166855990Y-106186589D01*
X166717491Y-105979310D01*
X175046801Y-97650000D01*
X199448000Y-97650000D01*
X199448000Y-98375000D01*
X199450466Y-98399907D01*
X199525466Y-98774907D01*
X199527886Y-98784890D01*
X199577886Y-98959890D01*
X199582083Y-98972167D01*
X199631575Y-99095897D01*
X199706086Y-99294593D01*
X199716098Y-99315341D01*
X199788593Y-99436166D01*
X199836408Y-99531796D01*
X199841098Y-99540341D01*
X199916098Y-99665341D01*
X199923400Y-99676200D01*
X199998400Y-99776200D01*
X200003050Y-99782035D01*
X200278050Y-100107035D01*
X200285197Y-100114803D01*
X200535197Y-100364803D01*
X200543697Y-100372564D01*
X200693697Y-100497564D01*
X200708440Y-100508161D01*
X201033440Y-100708161D01*
X201043204Y-100713592D01*
X201293204Y-100838592D01*
X201309839Y-100845483D01*
X201609839Y-100945483D01*
X201615110Y-100947114D01*
X201790110Y-100997114D01*
X201800093Y-100999534D01*
X202050093Y-101049534D01*
X202068325Y-101051824D01*
X202543325Y-101076824D01*
X202559740Y-101076626D01*
X202884740Y-101051626D01*
X202894311Y-101050523D01*
X203219311Y-101000523D01*
X203240161Y-100995483D01*
X203390161Y-100945483D01*
X203393401Y-100944354D01*
X203668401Y-100844354D01*
X203676580Y-100841054D01*
X203901580Y-100741054D01*
X203906796Y-100738592D01*
X204106796Y-100638592D01*
X204120447Y-100630670D01*
X204345447Y-100480670D01*
X204351200Y-100476600D01*
X204451200Y-100401600D01*
X204464803Y-100389803D01*
X204739803Y-100114803D01*
X204747564Y-100106303D01*
X204997564Y-99806303D01*
X205005670Y-99795447D01*
X205155670Y-99570447D01*
X205160267Y-99563010D01*
X205260267Y-99388010D01*
X205266731Y-99375028D01*
X205341731Y-99200028D01*
X205345483Y-99190161D01*
X205394739Y-99042393D01*
X205468914Y-98844593D01*
X205474181Y-98826610D01*
X205549181Y-98476610D01*
X205551223Y-98464025D01*
X205576223Y-98239025D01*
X205577000Y-98225000D01*
X205577000Y-97850000D01*
X205576370Y-97837363D01*
X205551370Y-97587363D01*
X205550272Y-97579121D01*
X205525272Y-97429121D01*
X205522525Y-97416584D01*
X205447525Y-97141584D01*
X205444601Y-97132285D01*
X205319601Y-96782285D01*
X205316731Y-96774972D01*
X205241731Y-96599972D01*
X205233902Y-96584659D01*
X205083902Y-96334659D01*
X205078344Y-96326183D01*
X204953344Y-96151183D01*
X204947564Y-96143697D01*
X204822564Y-95993697D01*
X204820577Y-95991370D01*
X204645577Y-95791370D01*
X204633630Y-95779423D01*
X204433630Y-95604423D01*
X204421715Y-95595186D01*
X203946715Y-95270186D01*
X203926580Y-95258946D01*
X203701580Y-95158946D01*
X203694593Y-95156086D01*
X203494593Y-95081086D01*
X203480802Y-95076792D01*
X203180802Y-95001792D01*
X203174907Y-95000466D01*
X202924907Y-94950466D01*
X202912637Y-94948630D01*
X202662637Y-94923630D01*
X202650000Y-94923000D01*
X202300000Y-94923000D01*
X202282039Y-94924276D01*
X201932039Y-94974276D01*
X201919198Y-94976792D01*
X201719198Y-95026792D01*
X201709839Y-95029517D01*
X201559839Y-95079517D01*
X201555407Y-95081086D01*
X201155407Y-95231086D01*
X201136990Y-95239733D01*
X200961990Y-95339733D01*
X200954553Y-95344330D01*
X200654553Y-95544330D01*
X200645664Y-95550830D01*
X200520664Y-95650830D01*
X200510197Y-95660197D01*
X200235197Y-95935197D01*
X200225830Y-95945664D01*
X200025830Y-96195664D01*
X200020582Y-96202710D01*
X199795582Y-96527710D01*
X199786408Y-96543204D01*
X199736408Y-96643204D01*
X199732083Y-96652833D01*
X199682083Y-96777833D01*
X199681086Y-96780407D01*
X199606575Y-96979103D01*
X199557083Y-97102833D01*
X199551792Y-97119198D01*
X199526792Y-97219198D01*
X199526024Y-97222450D01*
X199476024Y-97447450D01*
X199474276Y-97457039D01*
X199449276Y-97632039D01*
X199448000Y-97650000D01*
X175046801Y-97650000D01*
X188025703Y-84671099D01*
X188054701Y-84647301D01*
X188110345Y-84579499D01*
X188149674Y-84531577D01*
X188220246Y-84399547D01*
X188229771Y-84368146D01*
X188263703Y-84256286D01*
X188274700Y-84144633D01*
X188274700Y-84144624D01*
X188278376Y-84107301D01*
X188274700Y-84069978D01*
X188274700Y-76201484D01*
X188543740Y-76255000D01*
X188836260Y-76255000D01*
X189123158Y-76197932D01*
X189393411Y-76085990D01*
X189636632Y-75923475D01*
X189843475Y-75716632D01*
X189960000Y-75542240D01*
X190076525Y-75716632D01*
X190283368Y-75923475D01*
X190526589Y-76085990D01*
X190796842Y-76197932D01*
X191083740Y-76255000D01*
X191376260Y-76255000D01*
X191663158Y-76197932D01*
X191933411Y-76085990D01*
X192176632Y-75923475D01*
X192383475Y-75716632D01*
X192500000Y-75542240D01*
X192616525Y-75716632D01*
%TA.AperFunction,Conductor*%
D16*
G36*
X192616525Y-75716632D02*
G01*
X192823368Y-75923475D01*
X193066589Y-76085990D01*
X193336842Y-76197932D01*
X193623740Y-76255000D01*
X193916260Y-76255000D01*
X194203158Y-76197932D01*
X194473411Y-76085990D01*
X194680690Y-75947491D01*
X229881001Y-111147803D01*
X229904799Y-111176801D01*
X229945252Y-111210000D01*
X214550322Y-111210000D01*
X214512999Y-111206324D01*
X214475676Y-111210000D01*
X214475667Y-111210000D01*
X214364014Y-111220997D01*
X214220753Y-111264454D01*
X214088723Y-111335026D01*
X214026853Y-111385802D01*
X213972999Y-111429999D01*
X213949201Y-111458997D01*
X206257376Y-119150823D01*
X206242912Y-119144832D01*
X205927033Y-119082000D01*
X205604967Y-119082000D01*
X205289088Y-119144832D01*
X204991537Y-119268082D01*
X204723748Y-119447013D01*
X204496013Y-119674748D01*
X204317082Y-119942537D01*
X204193832Y-120240088D01*
X204131000Y-120555967D01*
X204131000Y-120878033D01*
X204193832Y-121193912D01*
X204317082Y-121491463D01*
X204496013Y-121759252D01*
X204723748Y-121986987D01*
X204991537Y-122165918D01*
X205289088Y-122289168D01*
X205604967Y-122352000D01*
X205927033Y-122352000D01*
X206242912Y-122289168D01*
X206540463Y-122165918D01*
X206808252Y-121986987D01*
X206942826Y-121852413D01*
X208310192Y-121852413D01*
X208405956Y-122116814D01*
X208695571Y-122257704D01*
X209007108Y-122339384D01*
X209328595Y-122358718D01*
X209647675Y-122314961D01*
X209952088Y-122209795D01*
X210126044Y-122116814D01*
X210221808Y-121852413D01*
X209266000Y-120896605D01*
X208310192Y-121852413D01*
X206942826Y-121852413D01*
X207035987Y-121759252D01*
X207214918Y-121491463D01*
X207338168Y-121193912D01*
X207401000Y-120878033D01*
X207401000Y-120779595D01*
X207624282Y-120779595D01*
X207668039Y-121098675D01*
X207773205Y-121403088D01*
X207866186Y-121577044D01*
X208130587Y-121672808D01*
X209086395Y-120717000D01*
X209445605Y-120717000D01*
X210401413Y-121672808D01*
X210665814Y-121577044D01*
X210806704Y-121287429D01*
X210888384Y-120975892D01*
X210907718Y-120654405D01*
X210863961Y-120335325D01*
X210758795Y-120030912D01*
X210665814Y-119856956D01*
X210401413Y-119761192D01*
X209445605Y-120717000D01*
X209086395Y-120717000D01*
X208130587Y-119761192D01*
X207866186Y-119856956D01*
X207725296Y-120146571D01*
X207643616Y-120458108D01*
X207624282Y-120779595D01*
X207401000Y-120779595D01*
X207401000Y-120555967D01*
X207338168Y-120240088D01*
X207332177Y-120225624D01*
X207976214Y-119581587D01*
X208310192Y-119581587D01*
X209266000Y-120537395D01*
X210221808Y-119581587D01*
X210126044Y-119317186D01*
X209836429Y-119176296D01*
X209524892Y-119094616D01*
X209203405Y-119075282D01*
X208884325Y-119119039D01*
X208579912Y-119224205D01*
X208405956Y-119317186D01*
X208310192Y-119581587D01*
X207976214Y-119581587D01*
X214827802Y-112730000D01*
X238221822Y-112730000D01*
X238346525Y-112916632D01*
X238553368Y-113123475D01*
X238796589Y-113285990D01*
X239066842Y-113397932D01*
X239353740Y-113455000D01*
X239646260Y-113455000D01*
X239933158Y-113397932D01*
X240203411Y-113285990D01*
X240446632Y-113123475D01*
X240653475Y-112916632D01*
X240770000Y-112742240D01*
X240886525Y-112916632D01*
X241093368Y-113123475D01*
X241336589Y-113285990D01*
X241606842Y-113397932D01*
X241893740Y-113455000D01*
X242186260Y-113455000D01*
X242473158Y-113397932D01*
X242743411Y-113285990D01*
X242986632Y-113123475D01*
X243193475Y-112916632D01*
X243355990Y-112673411D01*
X243467932Y-112403158D01*
X243525000Y-112116260D01*
X243525000Y-111823740D01*
X243467932Y-111536842D01*
X243355990Y-111266589D01*
X243198545Y-111030956D01*
X244199004Y-110030498D01*
X244228001Y-110006701D01*
X244322974Y-109890976D01*
X244340001Y-109859122D01*
X244340001Y-119413000D01*
X241230000Y-119413000D01*
X241212039Y-119414276D01*
X241072039Y-119434276D01*
X241067282Y-119435049D01*
X240959680Y-119454613D01*
X240892039Y-119464276D01*
X240882450Y-119466024D01*
X240795765Y-119485287D01*
X240679121Y-119504728D01*
X240654410Y-119511465D01*
X240527107Y-119560428D01*
X240409839Y-119599517D01*
X240402833Y-119602083D01*
X240302833Y-119642083D01*
X240299972Y-119643269D01*
X240159972Y-119703269D01*
X240147509Y-119709439D01*
X239917509Y-119839439D01*
X239911324Y-119843170D01*
X239771324Y-119933170D01*
X239767170Y-119935958D01*
X239669890Y-120004054D01*
X239592690Y-120052304D01*
X239580664Y-120060830D01*
X239530664Y-120100830D01*
X239524183Y-120106381D01*
X239404183Y-120216381D01*
X239400197Y-120220197D01*
X239280197Y-120340197D01*
X239273574Y-120347349D01*
X239216748Y-120413646D01*
X239160197Y-120470197D01*
X239152436Y-120478697D01*
X239102436Y-120538697D01*
X239097291Y-120545302D01*
X239017851Y-120654532D01*
X238928400Y-120773800D01*
X238919310Y-120787737D01*
X238829310Y-120947737D01*
X238828982Y-120948323D01*
X238728982Y-121128323D01*
X238722769Y-121141154D01*
X238672769Y-121261154D01*
X238670830Y-121266095D01*
X238600830Y-121456095D01*
X238599517Y-121459839D01*
X238549517Y-121609839D01*
X238547182Y-121617679D01*
X238497182Y-121807679D01*
X238496252Y-121811443D01*
X238466252Y-121941443D01*
X238463981Y-121954248D01*
X238433981Y-122194248D01*
X238433247Y-122202078D01*
X238423247Y-122362078D01*
X238423000Y-122370000D01*
X238423000Y-122489717D01*
X238416652Y-125340000D01*
X222753702Y-125340000D01*
X222951580Y-125252054D01*
X222956796Y-125249592D01*
X223156796Y-125149592D01*
X223170447Y-125141670D01*
X223395447Y-124991670D01*
X223401200Y-124987600D01*
X223501200Y-124912600D01*
X223514803Y-124900803D01*
X223789803Y-124625803D01*
X223797564Y-124617303D01*
X224047564Y-124317303D01*
X224055670Y-124306447D01*
X224205670Y-124081447D01*
X224210267Y-124074010D01*
X224310267Y-123899010D01*
X224316731Y-123886028D01*
X224391731Y-123711028D01*
X224395483Y-123701161D01*
X224444739Y-123553393D01*
X224518914Y-123355593D01*
X224524181Y-123337610D01*
X224599181Y-122987610D01*
X224601223Y-122975025D01*
X224626223Y-122750025D01*
X224627000Y-122736000D01*
X224627000Y-122361000D01*
X224626370Y-122348363D01*
X224601370Y-122098363D01*
X224600272Y-122090121D01*
X224575272Y-121940121D01*
X224572525Y-121927584D01*
X224497525Y-121652584D01*
X224494601Y-121643285D01*
X224369601Y-121293285D01*
X224366731Y-121285972D01*
X224291731Y-121110972D01*
X224283902Y-121095659D01*
X224133902Y-120845659D01*
X224128344Y-120837183D01*
X224003344Y-120662183D01*
X223997564Y-120654697D01*
X223872564Y-120504697D01*
X223870577Y-120502370D01*
X223695577Y-120302370D01*
X223683630Y-120290423D01*
X223483630Y-120115423D01*
X223471715Y-120106186D01*
X222996715Y-119781186D01*
X222976580Y-119769946D01*
X222751580Y-119669946D01*
X222744593Y-119667086D01*
X222544593Y-119592086D01*
X222530802Y-119587792D01*
X222230802Y-119512792D01*
X222224907Y-119511466D01*
X221974907Y-119461466D01*
X221962637Y-119459630D01*
X221712637Y-119434630D01*
X221700000Y-119434000D01*
X221350000Y-119434000D01*
X221332039Y-119435276D01*
X220982039Y-119485276D01*
X220969198Y-119487792D01*
X220769198Y-119537792D01*
X220759839Y-119540517D01*
X220609839Y-119590517D01*
X220605407Y-119592086D01*
X220205407Y-119742086D01*
X220186990Y-119750733D01*
X220011990Y-119850733D01*
X220004553Y-119855330D01*
X219704553Y-120055330D01*
X219695664Y-120061830D01*
X219570664Y-120161830D01*
X219560197Y-120171197D01*
X219285197Y-120446197D01*
X219275830Y-120456664D01*
X219075830Y-120706664D01*
X219070582Y-120713710D01*
X218845582Y-121038710D01*
X218836408Y-121054204D01*
X218786408Y-121154204D01*
X218782083Y-121163833D01*
X218732083Y-121288833D01*
X218731086Y-121291407D01*
X218656575Y-121490103D01*
X218607083Y-121613833D01*
X218601792Y-121630198D01*
X218576792Y-121730198D01*
X218576024Y-121733450D01*
X218526024Y-121958450D01*
X218524276Y-121968039D01*
X218499276Y-122143039D01*
X218498000Y-122161000D01*
X218498000Y-122886000D01*
X218500466Y-122910907D01*
X218575466Y-123285907D01*
X218577886Y-123295890D01*
X218627886Y-123470890D01*
X218632083Y-123483167D01*
X218681575Y-123606897D01*
X218756086Y-123805593D01*
X218766098Y-123826341D01*
X218838593Y-123947166D01*
X218886408Y-124042796D01*
X218891098Y-124051341D01*
X218966098Y-124176341D01*
X218973400Y-124187200D01*
X219048400Y-124287200D01*
X219053050Y-124293035D01*
X219328050Y-124618035D01*
X219335197Y-124625803D01*
X219585197Y-124875803D01*
X219593697Y-124883564D01*
X219743697Y-125008564D01*
X219758440Y-125019161D01*
X220083440Y-125219161D01*
X220093204Y-125224592D01*
X220324020Y-125340000D01*
X166577000Y-125340000D01*
X166577000Y-122230000D01*
X166575724Y-122212039D01*
X166555724Y-122072039D01*
X166554951Y-122067282D01*
X166535387Y-121959680D01*
X166525724Y-121892039D01*
X166523976Y-121882450D01*
X166504713Y-121795765D01*
X166485272Y-121679121D01*
X166478535Y-121654410D01*
X166429573Y-121527108D01*
X166390483Y-121409839D01*
X166387917Y-121402833D01*
X166347917Y-121302833D01*
X166346731Y-121299972D01*
X166286731Y-121159972D01*
X166280561Y-121147509D01*
X166150561Y-120917509D01*
X166146830Y-120911324D01*
X166056830Y-120771324D01*
X166054042Y-120767170D01*
X165985946Y-120669890D01*
X165937696Y-120592690D01*
X165929170Y-120580664D01*
X165909413Y-120555967D01*
X179511000Y-120555967D01*
X179511000Y-120878033D01*
X179573832Y-121193912D01*
X179697082Y-121491463D01*
X179876013Y-121759252D01*
X180103748Y-121986987D01*
X180371537Y-122165918D01*
X180669088Y-122289168D01*
X180984967Y-122352000D01*
X181307033Y-122352000D01*
X181622912Y-122289168D01*
X181920463Y-122165918D01*
X182188252Y-121986987D01*
X182322826Y-121852413D01*
X183690192Y-121852413D01*
X183785956Y-122116814D01*
X184075571Y-122257704D01*
X184387108Y-122339384D01*
X184708595Y-122358718D01*
X185027675Y-122314961D01*
X185332088Y-122209795D01*
X185506044Y-122116814D01*
X185601808Y-121852413D01*
X184646000Y-120896605D01*
X183690192Y-121852413D01*
X182322826Y-121852413D01*
X182415987Y-121759252D01*
X182594918Y-121491463D01*
X182718168Y-121193912D01*
X182781000Y-120878033D01*
X182781000Y-120779595D01*
X183004282Y-120779595D01*
X183048039Y-121098675D01*
X183153205Y-121403088D01*
X183246186Y-121577044D01*
X183510587Y-121672808D01*
X184466395Y-120717000D01*
X184825605Y-120717000D01*
X185781413Y-121672808D01*
X186045814Y-121577044D01*
X186186704Y-121287429D01*
X186268384Y-120975892D01*
X186287718Y-120654405D01*
X186274219Y-120555967D01*
X186511000Y-120555967D01*
X186511000Y-120878033D01*
X186573832Y-121193912D01*
X186697082Y-121491463D01*
X186876013Y-121759252D01*
X187103748Y-121986987D01*
X187371537Y-122165918D01*
X187669088Y-122289168D01*
X187984967Y-122352000D01*
X188307033Y-122352000D01*
X188622912Y-122289168D01*
X188920463Y-122165918D01*
X189188252Y-121986987D01*
X189322826Y-121852413D01*
X190690192Y-121852413D01*
X190785956Y-122116814D01*
X191075571Y-122257704D01*
X191387108Y-122339384D01*
X191708595Y-122358718D01*
X192027675Y-122314961D01*
X192332088Y-122209795D01*
X192506044Y-122116814D01*
X192601808Y-121852413D01*
X191646000Y-120896605D01*
X190690192Y-121852413D01*
X189322826Y-121852413D01*
X189415987Y-121759252D01*
X189594918Y-121491463D01*
X189718168Y-121193912D01*
X189781000Y-120878033D01*
X189781000Y-120779595D01*
X190004282Y-120779595D01*
X190048039Y-121098675D01*
X190153205Y-121403088D01*
X190246186Y-121577044D01*
X190510587Y-121672808D01*
X191466395Y-120717000D01*
X191825605Y-120717000D01*
X192781413Y-121672808D01*
X193045814Y-121577044D01*
X193186704Y-121287429D01*
X193268384Y-120975892D01*
X193287718Y-120654405D01*
X193274219Y-120555967D01*
X197131000Y-120555967D01*
X197131000Y-120878033D01*
X197193832Y-121193912D01*
X197317082Y-121491463D01*
X197496013Y-121759252D01*
X197723748Y-121986987D01*
X197991537Y-122165918D01*
X198289088Y-122289168D01*
X198604967Y-122352000D01*
X198927033Y-122352000D01*
X199242912Y-122289168D01*
X199540463Y-122165918D01*
X199808252Y-121986987D01*
X199942826Y-121852413D01*
X201310192Y-121852413D01*
X201405956Y-122116814D01*
X201695571Y-122257704D01*
X202007108Y-122339384D01*
X202328595Y-122358718D01*
X202647675Y-122314961D01*
X202952088Y-122209795D01*
X203126044Y-122116814D01*
X203221808Y-121852413D01*
X202266000Y-120896605D01*
X201310192Y-121852413D01*
X199942826Y-121852413D01*
X200035987Y-121759252D01*
X200214918Y-121491463D01*
X200338168Y-121193912D01*
X200401000Y-120878033D01*
X200401000Y-120779595D01*
X200624282Y-120779595D01*
X200668039Y-121098675D01*
X200773205Y-121403088D01*
X200866186Y-121577044D01*
X201130587Y-121672808D01*
X202086395Y-120717000D01*
X202445605Y-120717000D01*
X203401413Y-121672808D01*
X203665814Y-121577044D01*
X203806704Y-121287429D01*
X203888384Y-120975892D01*
X203907718Y-120654405D01*
X203863961Y-120335325D01*
X203758795Y-120030912D01*
X203665814Y-119856956D01*
X203401413Y-119761192D01*
X202445605Y-120717000D01*
X202086395Y-120717000D01*
X201130587Y-119761192D01*
X200866186Y-119856956D01*
X200725296Y-120146571D01*
X200643616Y-120458108D01*
X200624282Y-120779595D01*
X200401000Y-120779595D01*
X200401000Y-120555967D01*
X200338168Y-120240088D01*
X200214918Y-119942537D01*
X200035987Y-119674748D01*
X199942826Y-119581587D01*
X201310192Y-119581587D01*
X202266000Y-120537395D01*
X203221808Y-119581587D01*
X203126044Y-119317186D01*
X202836429Y-119176296D01*
X202524892Y-119094616D01*
X202203405Y-119075282D01*
X201884325Y-119119039D01*
X201579912Y-119224205D01*
X201405956Y-119317186D01*
X201310192Y-119581587D01*
X199942826Y-119581587D01*
X199808252Y-119447013D01*
X199540463Y-119268082D01*
X199242912Y-119144832D01*
X198927033Y-119082000D01*
X198604967Y-119082000D01*
X198289088Y-119144832D01*
X197991537Y-119268082D01*
X197723748Y-119447013D01*
X197496013Y-119674748D01*
X197317082Y-119942537D01*
X197193832Y-120240088D01*
X197131000Y-120555967D01*
X193274219Y-120555967D01*
X193243961Y-120335325D01*
X193138795Y-120030912D01*
X193045814Y-119856956D01*
X192781413Y-119761192D01*
X191825605Y-120717000D01*
X191466395Y-120717000D01*
X190510587Y-119761192D01*
X190246186Y-119856956D01*
X190105296Y-120146571D01*
X190023616Y-120458108D01*
X190004282Y-120779595D01*
X189781000Y-120779595D01*
X189781000Y-120555967D01*
X189718168Y-120240088D01*
X189594918Y-119942537D01*
X189415987Y-119674748D01*
X189322826Y-119581587D01*
X190690192Y-119581587D01*
X191646000Y-120537395D01*
X192601808Y-119581587D01*
X192506044Y-119317186D01*
X192216429Y-119176296D01*
X191904892Y-119094616D01*
X191583405Y-119075282D01*
X191264325Y-119119039D01*
X190959912Y-119224205D01*
X190785956Y-119317186D01*
X190690192Y-119581587D01*
X189322826Y-119581587D01*
X189188252Y-119447013D01*
X188920463Y-119268082D01*
X188622912Y-119144832D01*
X188307033Y-119082000D01*
X187984967Y-119082000D01*
X187669088Y-119144832D01*
X187371537Y-119268082D01*
X187103748Y-119447013D01*
X186876013Y-119674748D01*
X186697082Y-119942537D01*
X186573832Y-120240088D01*
X186511000Y-120555967D01*
X186274219Y-120555967D01*
X186243961Y-120335325D01*
X186138795Y-120030912D01*
X186045814Y-119856956D01*
X185781413Y-119761192D01*
X184825605Y-120717000D01*
X184466395Y-120717000D01*
X183510587Y-119761192D01*
X183246186Y-119856956D01*
X183105296Y-120146571D01*
X183023616Y-120458108D01*
X183004282Y-120779595D01*
X182781000Y-120779595D01*
X182781000Y-120555967D01*
X182718168Y-120240088D01*
X182594918Y-119942537D01*
X182415987Y-119674748D01*
X182322826Y-119581587D01*
X183690192Y-119581587D01*
X184646000Y-120537395D01*
X185601808Y-119581587D01*
X185506044Y-119317186D01*
X185216429Y-119176296D01*
X184904892Y-119094616D01*
X184583405Y-119075282D01*
X184264325Y-119119039D01*
X183959912Y-119224205D01*
X183785956Y-119317186D01*
X183690192Y-119581587D01*
X182322826Y-119581587D01*
X182188252Y-119447013D01*
X181920463Y-119268082D01*
X181622912Y-119144832D01*
X181307033Y-119082000D01*
X180984967Y-119082000D01*
X180669088Y-119144832D01*
X180371537Y-119268082D01*
X180103748Y-119447013D01*
X179876013Y-119674748D01*
X179697082Y-119942537D01*
X179573832Y-120240088D01*
X179511000Y-120555967D01*
X165909413Y-120555967D01*
X165889170Y-120530664D01*
X165883619Y-120524183D01*
X165773619Y-120404183D01*
X165769803Y-120400197D01*
X165649803Y-120280197D01*
X165642651Y-120273574D01*
X165576354Y-120216748D01*
X165519803Y-120160197D01*
X165511303Y-120152436D01*
X165451303Y-120102436D01*
X165444698Y-120097291D01*
X165335468Y-120017851D01*
X165216200Y-119928400D01*
X165202263Y-119919310D01*
X165042263Y-119829310D01*
X165041677Y-119828982D01*
X164861677Y-119728982D01*
X164848846Y-119722769D01*
X164728846Y-119672769D01*
X164723905Y-119670830D01*
X164533905Y-119600830D01*
X164530161Y-119599517D01*
X164380161Y-119549517D01*
X164372321Y-119547182D01*
X164182321Y-119497182D01*
X164178557Y-119496252D01*
X164048557Y-119466252D01*
X164035752Y-119463981D01*
X163795752Y-119433981D01*
X163787922Y-119433247D01*
X163627922Y-119423247D01*
X163620000Y-119423000D01*
X163500283Y-119423000D01*
X160660000Y-119416674D01*
X160660000Y-107202788D01*
X160666054Y-107222746D01*
X160736626Y-107354776D01*
X160798711Y-107430426D01*
X160831600Y-107470501D01*
X160860598Y-107494299D01*
X161848096Y-108481797D01*
X161846525Y-108483368D01*
X161684010Y-108726589D01*
X161572068Y-108996842D01*
X161515000Y-109283740D01*
X161515000Y-109576260D01*
X161572068Y-109863158D01*
X161684010Y-110133411D01*
X161846525Y-110376632D01*
X162053368Y-110583475D01*
X162296589Y-110745990D01*
X162566842Y-110857932D01*
X162853740Y-110915000D01*
X163146260Y-110915000D01*
X163433158Y-110857932D01*
X163703411Y-110745990D01*
X163946632Y-110583475D01*
X164153475Y-110376632D01*
X164271100Y-110200594D01*
X164442412Y-110430269D01*
X164658645Y-110625178D01*
X164908748Y-110774157D01*
X165183109Y-110871481D01*
X165413000Y-110750814D01*
X165413000Y-109557000D01*
X165667000Y-109557000D01*
X165667000Y-110750814D01*
X165896891Y-110871481D01*
X166171252Y-110774157D01*
X166421355Y-110625178D01*
X166637588Y-110430269D01*
X166811641Y-110196920D01*
X166936825Y-109934099D01*
X166981476Y-109786890D01*
X166860155Y-109557000D01*
X165667000Y-109557000D01*
X165413000Y-109557000D01*
X165393000Y-109557000D01*
X165393000Y-109303000D01*
X165413000Y-109303000D01*
X165413000Y-109283000D01*
X165667000Y-109283000D01*
X165667000Y-109303000D01*
X166860155Y-109303000D01*
X166981476Y-109073110D01*
X166936825Y-108925901D01*
X166811641Y-108663080D01*
X166637588Y-108429731D01*
X166421355Y-108234822D01*
X166304466Y-108165195D01*
X166486632Y-108043475D01*
X166693475Y-107836632D01*
X166855990Y-107593411D01*
X166967932Y-107323158D01*
X167025000Y-107036260D01*
X167025000Y-106743740D01*
X166967932Y-106456842D01*
X166855990Y-106186589D01*
X166717491Y-105979310D01*
X175046801Y-97650000D01*
X199448000Y-97650000D01*
X199448000Y-98375000D01*
X199450466Y-98399907D01*
X199525466Y-98774907D01*
X199527886Y-98784890D01*
X199577886Y-98959890D01*
X199582083Y-98972167D01*
X199631575Y-99095897D01*
X199706086Y-99294593D01*
X199716098Y-99315341D01*
X199788593Y-99436166D01*
X199836408Y-99531796D01*
X199841098Y-99540341D01*
X199916098Y-99665341D01*
X199923400Y-99676200D01*
X199998400Y-99776200D01*
X200003050Y-99782035D01*
X200278050Y-100107035D01*
X200285197Y-100114803D01*
X200535197Y-100364803D01*
X200543697Y-100372564D01*
X200693697Y-100497564D01*
X200708440Y-100508161D01*
X201033440Y-100708161D01*
X201043204Y-100713592D01*
X201293204Y-100838592D01*
X201309839Y-100845483D01*
X201609839Y-100945483D01*
X201615110Y-100947114D01*
X201790110Y-100997114D01*
X201800093Y-100999534D01*
X202050093Y-101049534D01*
X202068325Y-101051824D01*
X202543325Y-101076824D01*
X202559740Y-101076626D01*
X202884740Y-101051626D01*
X202894311Y-101050523D01*
X203219311Y-101000523D01*
X203240161Y-100995483D01*
X203390161Y-100945483D01*
X203393401Y-100944354D01*
X203668401Y-100844354D01*
X203676580Y-100841054D01*
X203901580Y-100741054D01*
X203906796Y-100738592D01*
X204106796Y-100638592D01*
X204120447Y-100630670D01*
X204345447Y-100480670D01*
X204351200Y-100476600D01*
X204451200Y-100401600D01*
X204464803Y-100389803D01*
X204739803Y-100114803D01*
X204747564Y-100106303D01*
X204997564Y-99806303D01*
X205005670Y-99795447D01*
X205155670Y-99570447D01*
X205160267Y-99563010D01*
X205260267Y-99388010D01*
X205266731Y-99375028D01*
X205341731Y-99200028D01*
X205345483Y-99190161D01*
X205394739Y-99042393D01*
X205468914Y-98844593D01*
X205474181Y-98826610D01*
X205549181Y-98476610D01*
X205551223Y-98464025D01*
X205576223Y-98239025D01*
X205577000Y-98225000D01*
X205577000Y-97850000D01*
X205576370Y-97837363D01*
X205551370Y-97587363D01*
X205550272Y-97579121D01*
X205525272Y-97429121D01*
X205522525Y-97416584D01*
X205447525Y-97141584D01*
X205444601Y-97132285D01*
X205319601Y-96782285D01*
X205316731Y-96774972D01*
X205241731Y-96599972D01*
X205233902Y-96584659D01*
X205083902Y-96334659D01*
X205078344Y-96326183D01*
X204953344Y-96151183D01*
X204947564Y-96143697D01*
X204822564Y-95993697D01*
X204820577Y-95991370D01*
X204645577Y-95791370D01*
X204633630Y-95779423D01*
X204433630Y-95604423D01*
X204421715Y-95595186D01*
X203946715Y-95270186D01*
X203926580Y-95258946D01*
X203701580Y-95158946D01*
X203694593Y-95156086D01*
X203494593Y-95081086D01*
X203480802Y-95076792D01*
X203180802Y-95001792D01*
X203174907Y-95000466D01*
X202924907Y-94950466D01*
X202912637Y-94948630D01*
X202662637Y-94923630D01*
X202650000Y-94923000D01*
X202300000Y-94923000D01*
X202282039Y-94924276D01*
X201932039Y-94974276D01*
X201919198Y-94976792D01*
X201719198Y-95026792D01*
X201709839Y-95029517D01*
X201559839Y-95079517D01*
X201555407Y-95081086D01*
X201155407Y-95231086D01*
X201136990Y-95239733D01*
X200961990Y-95339733D01*
X200954553Y-95344330D01*
X200654553Y-95544330D01*
X200645664Y-95550830D01*
X200520664Y-95650830D01*
X200510197Y-95660197D01*
X200235197Y-95935197D01*
X200225830Y-95945664D01*
X200025830Y-96195664D01*
X200020582Y-96202710D01*
X199795582Y-96527710D01*
X199786408Y-96543204D01*
X199736408Y-96643204D01*
X199732083Y-96652833D01*
X199682083Y-96777833D01*
X199681086Y-96780407D01*
X199606575Y-96979103D01*
X199557083Y-97102833D01*
X199551792Y-97119198D01*
X199526792Y-97219198D01*
X199526024Y-97222450D01*
X199476024Y-97447450D01*
X199474276Y-97457039D01*
X199449276Y-97632039D01*
X199448000Y-97650000D01*
X175046801Y-97650000D01*
X188025703Y-84671099D01*
X188054701Y-84647301D01*
X188110345Y-84579499D01*
X188149674Y-84531577D01*
X188220246Y-84399547D01*
X188229771Y-84368146D01*
X188263703Y-84256286D01*
X188274700Y-84144633D01*
X188274700Y-84144624D01*
X188278376Y-84107301D01*
X188274700Y-84069978D01*
X188274700Y-76201484D01*
X188543740Y-76255000D01*
X188836260Y-76255000D01*
X189123158Y-76197932D01*
X189393411Y-76085990D01*
X189636632Y-75923475D01*
X189843475Y-75716632D01*
X189960000Y-75542240D01*
X190076525Y-75716632D01*
X190283368Y-75923475D01*
X190526589Y-76085990D01*
X190796842Y-76197932D01*
X191083740Y-76255000D01*
X191376260Y-76255000D01*
X191663158Y-76197932D01*
X191933411Y-76085990D01*
X192176632Y-75923475D01*
X192383475Y-75716632D01*
X192500000Y-75542240D01*
X192616525Y-75716632D01*
G37*
%TD.AperFunction*%
D15*
X198977000Y-74643000D02*
X198997000Y-74643000D01*
X198997000Y-74897000D01*
X198977000Y-74897000D01*
X198977000Y-76090155D01*
X199206890Y-76211476D01*
X199354099Y-76166825D01*
X199616920Y-76041641D01*
X199850269Y-75867588D01*
X200045178Y-75651355D01*
X200114805Y-75534466D01*
X200236525Y-75716632D01*
X200443368Y-75923475D01*
X200686589Y-76085990D01*
X200956842Y-76197932D01*
X201243740Y-76255000D01*
X201536260Y-76255000D01*
X201823158Y-76197932D01*
X202093411Y-76085990D01*
X202300690Y-75947491D01*
X217939001Y-91585803D01*
X217962799Y-91614801D01*
X218078524Y-91709774D01*
X218210553Y-91780346D01*
X218353814Y-91823803D01*
X218465467Y-91834800D01*
X218465475Y-91834800D01*
X218502800Y-91838476D01*
X218540125Y-91834800D01*
X225681789Y-91834800D01*
X225725726Y-91878737D01*
X225895244Y-91992005D01*
X226083602Y-92070026D01*
X226283561Y-92109800D01*
X226487439Y-92109800D01*
X226687398Y-92070026D01*
X226875756Y-91992005D01*
X227045274Y-91878737D01*
X227092905Y-91831106D01*
X236325800Y-101064002D01*
X236325801Y-103622168D01*
X236322124Y-103659500D01*
X236325801Y-103696833D01*
X236336798Y-103808486D01*
X236347473Y-103843676D01*
X236380254Y-103951746D01*
X236450826Y-104083776D01*
X236501914Y-104146026D01*
X236545800Y-104199501D01*
X236574798Y-104223299D01*
X238333550Y-105982052D01*
X238228359Y-106123080D01*
X238103175Y-106385901D01*
X238058524Y-106533110D01*
X238179845Y-106763000D01*
X239373000Y-106763000D01*
X239373000Y-106743000D01*
X239627000Y-106743000D01*
X239627000Y-106763000D01*
X239647000Y-106763000D01*
X239647000Y-107017000D01*
X239627000Y-107017000D01*
X239627000Y-107037000D01*
X239373000Y-107037000D01*
X239373000Y-107017000D01*
X238179845Y-107017000D01*
X238058524Y-107246890D01*
X238103175Y-107394099D01*
X238228359Y-107656920D01*
X238402412Y-107890269D01*
X238618645Y-108085178D01*
X238735534Y-108154805D01*
X238553368Y-108276525D01*
X238346525Y-108483368D01*
X238184010Y-108726589D01*
X238072068Y-108996842D01*
X238015000Y-109283740D01*
X238015000Y-109576260D01*
X238072068Y-109863158D01*
X238077719Y-109876800D01*
X230759602Y-109876800D01*
X196981860Y-76099059D01*
X197013411Y-76085990D01*
X197256632Y-75923475D01*
X197463475Y-75716632D01*
X197585195Y-75534466D01*
X197654822Y-75651355D01*
X197849731Y-75867588D01*
X198083080Y-76041641D01*
X198345901Y-76166825D01*
X198493110Y-76211476D01*
X198723000Y-76090155D01*
X198723000Y-74897000D01*
X198703000Y-74897000D01*
X198703000Y-74643000D01*
X198723000Y-74643000D01*
X198723000Y-74623000D01*
X198977000Y-74623000D01*
X198977000Y-74643000D01*
%TA.AperFunction,Conductor*%
D16*
G36*
X198977000Y-74643000D02*
G01*
X198997000Y-74643000D01*
X198997000Y-74897000D01*
X198977000Y-74897000D01*
X198977000Y-76090155D01*
X199206890Y-76211476D01*
X199354099Y-76166825D01*
X199616920Y-76041641D01*
X199850269Y-75867588D01*
X200045178Y-75651355D01*
X200114805Y-75534466D01*
X200236525Y-75716632D01*
X200443368Y-75923475D01*
X200686589Y-76085990D01*
X200956842Y-76197932D01*
X201243740Y-76255000D01*
X201536260Y-76255000D01*
X201823158Y-76197932D01*
X202093411Y-76085990D01*
X202300690Y-75947491D01*
X217939001Y-91585803D01*
X217962799Y-91614801D01*
X218078524Y-91709774D01*
X218210553Y-91780346D01*
X218353814Y-91823803D01*
X218465467Y-91834800D01*
X218465475Y-91834800D01*
X218502800Y-91838476D01*
X218540125Y-91834800D01*
X225681789Y-91834800D01*
X225725726Y-91878737D01*
X225895244Y-91992005D01*
X226083602Y-92070026D01*
X226283561Y-92109800D01*
X226487439Y-92109800D01*
X226687398Y-92070026D01*
X226875756Y-91992005D01*
X227045274Y-91878737D01*
X227092905Y-91831106D01*
X236325800Y-101064002D01*
X236325801Y-103622168D01*
X236322124Y-103659500D01*
X236325801Y-103696833D01*
X236336798Y-103808486D01*
X236347473Y-103843676D01*
X236380254Y-103951746D01*
X236450826Y-104083776D01*
X236501914Y-104146026D01*
X236545800Y-104199501D01*
X236574798Y-104223299D01*
X238333550Y-105982052D01*
X238228359Y-106123080D01*
X238103175Y-106385901D01*
X238058524Y-106533110D01*
X238179845Y-106763000D01*
X239373000Y-106763000D01*
X239373000Y-106743000D01*
X239627000Y-106743000D01*
X239627000Y-106763000D01*
X239647000Y-106763000D01*
X239647000Y-107017000D01*
X239627000Y-107017000D01*
X239627000Y-107037000D01*
X239373000Y-107037000D01*
X239373000Y-107017000D01*
X238179845Y-107017000D01*
X238058524Y-107246890D01*
X238103175Y-107394099D01*
X238228359Y-107656920D01*
X238402412Y-107890269D01*
X238618645Y-108085178D01*
X238735534Y-108154805D01*
X238553368Y-108276525D01*
X238346525Y-108483368D01*
X238184010Y-108726589D01*
X238072068Y-108996842D01*
X238015000Y-109283740D01*
X238015000Y-109576260D01*
X238072068Y-109863158D01*
X238077719Y-109876800D01*
X230759602Y-109876800D01*
X196981860Y-76099059D01*
X197013411Y-76085990D01*
X197256632Y-75923475D01*
X197463475Y-75716632D01*
X197585195Y-75534466D01*
X197654822Y-75651355D01*
X197849731Y-75867588D01*
X198083080Y-76041641D01*
X198345901Y-76166825D01*
X198493110Y-76211476D01*
X198723000Y-76090155D01*
X198723000Y-74897000D01*
X198703000Y-74897000D01*
X198703000Y-74643000D01*
X198723000Y-74643000D01*
X198723000Y-74623000D01*
X198977000Y-74623000D01*
X198977000Y-74643000D01*
G37*
%TD.AperFunction*%
D15*
X165667000Y-101683000D02*
X165687000Y-101683000D01*
X165687000Y-101937000D01*
X165667000Y-101937000D01*
X165667000Y-101957000D01*
X165413000Y-101957000D01*
X165413000Y-101937000D01*
X165393000Y-101937000D01*
X165393000Y-101683000D01*
X165413000Y-101683000D01*
X165413000Y-101663000D01*
X165667000Y-101663000D01*
X165667000Y-101683000D01*
%TA.AperFunction,Conductor*%
D16*
G36*
X165667000Y-101683000D02*
G01*
X165687000Y-101683000D01*
X165687000Y-101937000D01*
X165667000Y-101937000D01*
X165667000Y-101957000D01*
X165413000Y-101957000D01*
X165413000Y-101937000D01*
X165393000Y-101937000D01*
X165393000Y-101683000D01*
X165413000Y-101683000D01*
X165413000Y-101663000D01*
X165667000Y-101663000D01*
X165667000Y-101683000D01*
G37*
%TD.AperFunction*%
D15*
X242167000Y-99143000D02*
X242187000Y-99143000D01*
X242187000Y-99397000D01*
X242167000Y-99397000D01*
X242167000Y-99417000D01*
X241913000Y-99417000D01*
X241913000Y-99397000D01*
X241893000Y-99397000D01*
X241893000Y-99143000D01*
X241913000Y-99143000D01*
X241913000Y-99123000D01*
X242167000Y-99123000D01*
X242167000Y-99143000D01*
%TA.AperFunction,Conductor*%
D16*
G36*
X242167000Y-99143000D02*
G01*
X242187000Y-99143000D01*
X242187000Y-99397000D01*
X242167000Y-99397000D01*
X242167000Y-99417000D01*
X241913000Y-99417000D01*
X241913000Y-99397000D01*
X241893000Y-99397000D01*
X241893000Y-99143000D01*
X241913000Y-99143000D01*
X241913000Y-99123000D01*
X242167000Y-99123000D01*
X242167000Y-99143000D01*
G37*
%TD.AperFunction*%
D15*
X163127000Y-96603000D02*
X163147000Y-96603000D01*
X163147000Y-96857000D01*
X163127000Y-96857000D01*
X163127000Y-96877000D01*
X162873000Y-96877000D01*
X162873000Y-96857000D01*
X162853000Y-96857000D01*
X162853000Y-96603000D01*
X162873000Y-96603000D01*
X162873000Y-96583000D01*
X163127000Y-96583000D01*
X163127000Y-96603000D01*
%TA.AperFunction,Conductor*%
D16*
G36*
X163127000Y-96603000D02*
G01*
X163147000Y-96603000D01*
X163147000Y-96857000D01*
X163127000Y-96857000D01*
X163127000Y-96877000D01*
X162873000Y-96877000D01*
X162873000Y-96857000D01*
X162853000Y-96857000D01*
X162853000Y-96603000D01*
X162873000Y-96603000D01*
X162873000Y-96583000D01*
X163127000Y-96583000D01*
X163127000Y-96603000D01*
G37*
%TD.AperFunction*%
D15*
X178657000Y-74643000D02*
X178677000Y-74643000D01*
X178677000Y-74897000D01*
X178657000Y-74897000D01*
X178657000Y-76090155D01*
X178886890Y-76211476D01*
X179034099Y-76166825D01*
X179134700Y-76118908D01*
X179134701Y-83736497D01*
X166851432Y-96019767D01*
X166717491Y-95819310D01*
X177865703Y-84671099D01*
X177894701Y-84647301D01*
X177989674Y-84531576D01*
X178060246Y-84399547D01*
X178103703Y-84256286D01*
X178114700Y-84144633D01*
X178114700Y-84144624D01*
X178118376Y-84107301D01*
X178114700Y-84069978D01*
X178114700Y-76193759D01*
X178173110Y-76211476D01*
X178403000Y-76090155D01*
X178403000Y-74897000D01*
X178383000Y-74897000D01*
X178383000Y-74643000D01*
X178403000Y-74643000D01*
X178403000Y-74623000D01*
X178657000Y-74623000D01*
X178657000Y-74643000D01*
%TA.AperFunction,Conductor*%
D16*
G36*
X178657000Y-74643000D02*
G01*
X178677000Y-74643000D01*
X178677000Y-74897000D01*
X178657000Y-74897000D01*
X178657000Y-76090155D01*
X178886890Y-76211476D01*
X179034099Y-76166825D01*
X179134700Y-76118908D01*
X179134701Y-83736497D01*
X166851432Y-96019767D01*
X166717491Y-95819310D01*
X177865703Y-84671099D01*
X177894701Y-84647301D01*
X177989674Y-84531576D01*
X178060246Y-84399547D01*
X178103703Y-84256286D01*
X178114700Y-84144633D01*
X178114700Y-84144624D01*
X178118376Y-84107301D01*
X178114700Y-84069978D01*
X178114700Y-76193759D01*
X178173110Y-76211476D01*
X178403000Y-76090155D01*
X178403000Y-74897000D01*
X178383000Y-74897000D01*
X178383000Y-74643000D01*
X178403000Y-74643000D01*
X178403000Y-74623000D01*
X178657000Y-74623000D01*
X178657000Y-74643000D01*
G37*
%TD.AperFunction*%
D15*
X242167000Y-94063000D02*
X242187000Y-94063000D01*
X242187000Y-94317000D01*
X242167000Y-94317000D01*
X242167000Y-94337000D01*
X241913000Y-94337000D01*
X241913000Y-94317000D01*
X241893000Y-94317000D01*
X241893000Y-94063000D01*
X241913000Y-94063000D01*
X241913000Y-94043000D01*
X242167000Y-94043000D01*
X242167000Y-94063000D01*
%TA.AperFunction,Conductor*%
D16*
G36*
X242167000Y-94063000D02*
G01*
X242187000Y-94063000D01*
X242187000Y-94317000D01*
X242167000Y-94317000D01*
X242167000Y-94337000D01*
X241913000Y-94337000D01*
X241913000Y-94317000D01*
X241893000Y-94317000D01*
X241893000Y-94063000D01*
X241913000Y-94063000D01*
X241913000Y-94043000D01*
X242167000Y-94043000D01*
X242167000Y-94063000D01*
G37*
%TD.AperFunction*%
D15*
X238058524Y-88753110D02*
X238179845Y-88983000D01*
X239373000Y-88983000D01*
X239373000Y-88963000D01*
X239627000Y-88963000D01*
X239627000Y-88983000D01*
X239647000Y-88983000D01*
X239647000Y-89237000D01*
X239627000Y-89237000D01*
X239627000Y-89257000D01*
X239373000Y-89257000D01*
X239373000Y-89237000D01*
X238179845Y-89237000D01*
X238058524Y-89466890D01*
X238103175Y-89614099D01*
X238228359Y-89876920D01*
X238402412Y-90110269D01*
X238618645Y-90305178D01*
X238735534Y-90374805D01*
X238553368Y-90496525D01*
X238346525Y-90703368D01*
X238184010Y-90946589D01*
X238072068Y-91216842D01*
X238015000Y-91503740D01*
X238015000Y-91796260D01*
X238072068Y-92083158D01*
X238184010Y-92353411D01*
X238346525Y-92596632D01*
X238553368Y-92803475D01*
X238727760Y-92920000D01*
X238553368Y-93036525D01*
X238346525Y-93243368D01*
X238184010Y-93486589D01*
X238130581Y-93615579D01*
X233209702Y-88694700D01*
X238076241Y-88694700D01*
X238058524Y-88753110D01*
%TA.AperFunction,Conductor*%
D16*
G36*
X238058524Y-88753110D02*
G01*
X238179845Y-88983000D01*
X239373000Y-88983000D01*
X239373000Y-88963000D01*
X239627000Y-88963000D01*
X239627000Y-88983000D01*
X239647000Y-88983000D01*
X239647000Y-89237000D01*
X239627000Y-89237000D01*
X239627000Y-89257000D01*
X239373000Y-89257000D01*
X239373000Y-89237000D01*
X238179845Y-89237000D01*
X238058524Y-89466890D01*
X238103175Y-89614099D01*
X238228359Y-89876920D01*
X238402412Y-90110269D01*
X238618645Y-90305178D01*
X238735534Y-90374805D01*
X238553368Y-90496525D01*
X238346525Y-90703368D01*
X238184010Y-90946589D01*
X238072068Y-91216842D01*
X238015000Y-91503740D01*
X238015000Y-91796260D01*
X238072068Y-92083158D01*
X238184010Y-92353411D01*
X238346525Y-92596632D01*
X238553368Y-92803475D01*
X238727760Y-92920000D01*
X238553368Y-93036525D01*
X238346525Y-93243368D01*
X238184010Y-93486589D01*
X238130581Y-93615579D01*
X233209702Y-88694700D01*
X238076241Y-88694700D01*
X238058524Y-88753110D01*
G37*
%TD.AperFunction*%
D15*
X165667000Y-91523000D02*
X165687000Y-91523000D01*
X165687000Y-91777000D01*
X165667000Y-91777000D01*
X165667000Y-91797000D01*
X165413000Y-91797000D01*
X165413000Y-91777000D01*
X165393000Y-91777000D01*
X165393000Y-91523000D01*
X165413000Y-91523000D01*
X165413000Y-91503000D01*
X165667000Y-91503000D01*
X165667000Y-91523000D01*
%TA.AperFunction,Conductor*%
D16*
G36*
X165667000Y-91523000D02*
G01*
X165687000Y-91523000D01*
X165687000Y-91777000D01*
X165667000Y-91777000D01*
X165667000Y-91797000D01*
X165413000Y-91797000D01*
X165413000Y-91777000D01*
X165393000Y-91777000D01*
X165393000Y-91523000D01*
X165413000Y-91523000D01*
X165413000Y-91503000D01*
X165667000Y-91503000D01*
X165667000Y-91523000D01*
G37*
%TD.AperFunction*%
D15*
X216757000Y-74643000D02*
X216777000Y-74643000D01*
X216777000Y-74897000D01*
X216757000Y-74897000D01*
X216757000Y-74917000D01*
X216503000Y-74917000D01*
X216503000Y-74897000D01*
X216483000Y-74897000D01*
X216483000Y-74643000D01*
X216503000Y-74643000D01*
X216503000Y-74623000D01*
X216757000Y-74623000D01*
X216757000Y-74643000D01*
%TA.AperFunction,Conductor*%
D16*
G36*
X216757000Y-74643000D02*
G01*
X216777000Y-74643000D01*
X216777000Y-74897000D01*
X216757000Y-74897000D01*
X216757000Y-74917000D01*
X216503000Y-74917000D01*
X216503000Y-74897000D01*
X216483000Y-74897000D01*
X216483000Y-74643000D01*
X216503000Y-74643000D01*
X216503000Y-74623000D01*
X216757000Y-74623000D01*
X216757000Y-74643000D01*
G37*
%TD.AperFunction*%
D15*
X209137000Y-72103000D02*
X209157000Y-72103000D01*
X209157000Y-72357000D01*
X209137000Y-72357000D01*
X209137000Y-72377000D01*
X208883000Y-72377000D01*
X208883000Y-72357000D01*
X208863000Y-72357000D01*
X208863000Y-72103000D01*
X208883000Y-72103000D01*
X208883000Y-72083000D01*
X209137000Y-72083000D01*
X209137000Y-72103000D01*
%TA.AperFunction,Conductor*%
D16*
G36*
X209137000Y-72103000D02*
G01*
X209157000Y-72103000D01*
X209157000Y-72357000D01*
X209137000Y-72357000D01*
X209137000Y-72377000D01*
X208883000Y-72377000D01*
X208883000Y-72357000D01*
X208863000Y-72357000D01*
X208863000Y-72103000D01*
X208883000Y-72103000D01*
X208883000Y-72083000D01*
X209137000Y-72083000D01*
X209137000Y-72103000D01*
G37*
%TD.AperFunction*%
D15*
X173577000Y-72103000D02*
X173597000Y-72103000D01*
X173597000Y-72357000D01*
X173577000Y-72357000D01*
X173577000Y-72377000D01*
X173323000Y-72377000D01*
X173323000Y-72357000D01*
X173303000Y-72357000D01*
X173303000Y-72103000D01*
X173323000Y-72103000D01*
X173323000Y-72083000D01*
X173577000Y-72083000D01*
X173577000Y-72103000D01*
%TA.AperFunction,Conductor*%
D16*
G36*
X173577000Y-72103000D02*
G01*
X173597000Y-72103000D01*
X173597000Y-72357000D01*
X173577000Y-72357000D01*
X173577000Y-72377000D01*
X173323000Y-72377000D01*
X173323000Y-72357000D01*
X173303000Y-72357000D01*
X173303000Y-72103000D01*
X173323000Y-72103000D01*
X173323000Y-72083000D01*
X173577000Y-72083000D01*
X173577000Y-72103000D01*
G37*
%TD.AperFunction*%
D15*
X207380690Y-71052509D02*
X207173411Y-70914010D01*
X206903158Y-70802068D01*
X206616260Y-70745000D01*
X206323740Y-70745000D01*
X206036842Y-70802068D01*
X205766589Y-70914010D01*
X205523368Y-71076525D01*
X205316525Y-71283368D01*
X205194805Y-71465534D01*
X205125178Y-71348645D01*
X204930269Y-71132412D01*
X204696920Y-70958359D01*
X204434099Y-70833175D01*
X204286890Y-70788524D01*
X204057000Y-70909845D01*
X204057000Y-72103000D01*
X204077000Y-72103000D01*
X204077000Y-72357000D01*
X204057000Y-72357000D01*
X204057000Y-72377000D01*
X203803000Y-72377000D01*
X203803000Y-72357000D01*
X203783000Y-72357000D01*
X203783000Y-72103000D01*
X203803000Y-72103000D01*
X203803000Y-70909845D01*
X203573110Y-70788524D01*
X203425901Y-70833175D01*
X203163080Y-70958359D01*
X202929731Y-71132412D01*
X202734822Y-71348645D01*
X202665195Y-71465534D01*
X202543475Y-71283368D01*
X202336632Y-71076525D01*
X202093411Y-70914010D01*
X201823158Y-70802068D01*
X201536260Y-70745000D01*
X201243740Y-70745000D01*
X200956842Y-70802068D01*
X200686589Y-70914010D01*
X200443368Y-71076525D01*
X200236525Y-71283368D01*
X200120000Y-71457760D01*
X200003475Y-71283368D01*
X199796632Y-71076525D01*
X199553411Y-70914010D01*
X199283158Y-70802068D01*
X198996260Y-70745000D01*
X198703740Y-70745000D01*
X198416842Y-70802068D01*
X198146589Y-70914010D01*
X197903368Y-71076525D01*
X197696525Y-71283368D01*
X197580000Y-71457760D01*
X197463475Y-71283368D01*
X197256632Y-71076525D01*
X197013411Y-70914010D01*
X196743158Y-70802068D01*
X196456260Y-70745000D01*
X196163740Y-70745000D01*
X195876842Y-70802068D01*
X195606589Y-70914010D01*
X195363368Y-71076525D01*
X195156525Y-71283368D01*
X195040000Y-71457760D01*
X194923475Y-71283368D01*
X194716632Y-71076525D01*
X194473411Y-70914010D01*
X194203158Y-70802068D01*
X193916260Y-70745000D01*
X193623740Y-70745000D01*
X193336842Y-70802068D01*
X193066589Y-70914010D01*
X192823368Y-71076525D01*
X192616525Y-71283368D01*
X192494805Y-71465534D01*
X192425178Y-71348645D01*
X192230269Y-71132412D01*
X191996920Y-70958359D01*
X191734099Y-70833175D01*
X191586890Y-70788524D01*
X191357000Y-70909845D01*
X191357000Y-72103000D01*
X191377000Y-72103000D01*
X191377000Y-72357000D01*
X191357000Y-72357000D01*
X191357000Y-72377000D01*
X191103000Y-72377000D01*
X191103000Y-72357000D01*
X191083000Y-72357000D01*
X191083000Y-72103000D01*
X191103000Y-72103000D01*
X191103000Y-70909845D01*
X190873110Y-70788524D01*
X190725901Y-70833175D01*
X190463080Y-70958359D01*
X190229731Y-71132412D01*
X190034822Y-71348645D01*
X189965195Y-71465534D01*
X189843475Y-71283368D01*
X189636632Y-71076525D01*
X189393411Y-70914010D01*
X189123158Y-70802068D01*
X188836260Y-70745000D01*
X188543740Y-70745000D01*
X188256842Y-70802068D01*
X187986589Y-70914010D01*
X187743368Y-71076525D01*
X187536525Y-71283368D01*
X187420000Y-71457760D01*
X187303475Y-71283368D01*
X187096632Y-71076525D01*
X186853411Y-70914010D01*
X186583158Y-70802068D01*
X186296260Y-70745000D01*
X186003740Y-70745000D01*
X185716842Y-70802068D01*
X185446589Y-70914010D01*
X185203368Y-71076525D01*
X184996525Y-71283368D01*
X184874805Y-71465534D01*
X184805178Y-71348645D01*
X184610269Y-71132412D01*
X184376920Y-70958359D01*
X184114099Y-70833175D01*
X183966890Y-70788524D01*
X183737000Y-70909845D01*
X183737000Y-72103000D01*
X183757000Y-72103000D01*
X183757000Y-72357000D01*
X183737000Y-72357000D01*
X183737000Y-72377000D01*
X183483000Y-72377000D01*
X183483000Y-72357000D01*
X183463000Y-72357000D01*
X183463000Y-72103000D01*
X183483000Y-72103000D01*
X183483000Y-70909845D01*
X183253110Y-70788524D01*
X183105901Y-70833175D01*
X182843080Y-70958359D01*
X182677709Y-71081708D01*
X182256001Y-70660000D01*
X207773198Y-70660000D01*
X207380690Y-71052509D01*
%TA.AperFunction,Conductor*%
D16*
G36*
X207380690Y-71052509D02*
G01*
X207173411Y-70914010D01*
X206903158Y-70802068D01*
X206616260Y-70745000D01*
X206323740Y-70745000D01*
X206036842Y-70802068D01*
X205766589Y-70914010D01*
X205523368Y-71076525D01*
X205316525Y-71283368D01*
X205194805Y-71465534D01*
X205125178Y-71348645D01*
X204930269Y-71132412D01*
X204696920Y-70958359D01*
X204434099Y-70833175D01*
X204286890Y-70788524D01*
X204057000Y-70909845D01*
X204057000Y-72103000D01*
X204077000Y-72103000D01*
X204077000Y-72357000D01*
X204057000Y-72357000D01*
X204057000Y-72377000D01*
X203803000Y-72377000D01*
X203803000Y-72357000D01*
X203783000Y-72357000D01*
X203783000Y-72103000D01*
X203803000Y-72103000D01*
X203803000Y-70909845D01*
X203573110Y-70788524D01*
X203425901Y-70833175D01*
X203163080Y-70958359D01*
X202929731Y-71132412D01*
X202734822Y-71348645D01*
X202665195Y-71465534D01*
X202543475Y-71283368D01*
X202336632Y-71076525D01*
X202093411Y-70914010D01*
X201823158Y-70802068D01*
X201536260Y-70745000D01*
X201243740Y-70745000D01*
X200956842Y-70802068D01*
X200686589Y-70914010D01*
X200443368Y-71076525D01*
X200236525Y-71283368D01*
X200120000Y-71457760D01*
X200003475Y-71283368D01*
X199796632Y-71076525D01*
X199553411Y-70914010D01*
X199283158Y-70802068D01*
X198996260Y-70745000D01*
X198703740Y-70745000D01*
X198416842Y-70802068D01*
X198146589Y-70914010D01*
X197903368Y-71076525D01*
X197696525Y-71283368D01*
X197580000Y-71457760D01*
X197463475Y-71283368D01*
X197256632Y-71076525D01*
X197013411Y-70914010D01*
X196743158Y-70802068D01*
X196456260Y-70745000D01*
X196163740Y-70745000D01*
X195876842Y-70802068D01*
X195606589Y-70914010D01*
X195363368Y-71076525D01*
X195156525Y-71283368D01*
X195040000Y-71457760D01*
X194923475Y-71283368D01*
X194716632Y-71076525D01*
X194473411Y-70914010D01*
X194203158Y-70802068D01*
X193916260Y-70745000D01*
X193623740Y-70745000D01*
X193336842Y-70802068D01*
X193066589Y-70914010D01*
X192823368Y-71076525D01*
X192616525Y-71283368D01*
X192494805Y-71465534D01*
X192425178Y-71348645D01*
X192230269Y-71132412D01*
X191996920Y-70958359D01*
X191734099Y-70833175D01*
X191586890Y-70788524D01*
X191357000Y-70909845D01*
X191357000Y-72103000D01*
X191377000Y-72103000D01*
X191377000Y-72357000D01*
X191357000Y-72357000D01*
X191357000Y-72377000D01*
X191103000Y-72377000D01*
X191103000Y-72357000D01*
X191083000Y-72357000D01*
X191083000Y-72103000D01*
X191103000Y-72103000D01*
X191103000Y-70909845D01*
X190873110Y-70788524D01*
X190725901Y-70833175D01*
X190463080Y-70958359D01*
X190229731Y-71132412D01*
X190034822Y-71348645D01*
X189965195Y-71465534D01*
X189843475Y-71283368D01*
X189636632Y-71076525D01*
X189393411Y-70914010D01*
X189123158Y-70802068D01*
X188836260Y-70745000D01*
X188543740Y-70745000D01*
X188256842Y-70802068D01*
X187986589Y-70914010D01*
X187743368Y-71076525D01*
X187536525Y-71283368D01*
X187420000Y-71457760D01*
X187303475Y-71283368D01*
X187096632Y-71076525D01*
X186853411Y-70914010D01*
X186583158Y-70802068D01*
X186296260Y-70745000D01*
X186003740Y-70745000D01*
X185716842Y-70802068D01*
X185446589Y-70914010D01*
X185203368Y-71076525D01*
X184996525Y-71283368D01*
X184874805Y-71465534D01*
X184805178Y-71348645D01*
X184610269Y-71132412D01*
X184376920Y-70958359D01*
X184114099Y-70833175D01*
X183966890Y-70788524D01*
X183737000Y-70909845D01*
X183737000Y-72103000D01*
X183757000Y-72103000D01*
X183757000Y-72357000D01*
X183737000Y-72357000D01*
X183737000Y-72377000D01*
X183483000Y-72377000D01*
X183483000Y-72357000D01*
X183463000Y-72357000D01*
X183463000Y-72103000D01*
X183483000Y-72103000D01*
X183483000Y-70909845D01*
X183253110Y-70788524D01*
X183105901Y-70833175D01*
X182843080Y-70958359D01*
X182677709Y-71081708D01*
X182256001Y-70660000D01*
X207773198Y-70660000D01*
X207380690Y-71052509D01*
G37*
%TD.AperFunction*%
%TD*%
M02*
