M48
; DRILL file {KiCad (5.1.9)-1} date 03/25/22 19:47:44
; FORMAT={-:-/ absolute / inch / decimal}
; #@! TF.CreationDate,2022-03-25T19:47:44-04:00
; #@! TF.GenerationSoftware,Kicad,Pcbnew,(5.1.9)-1
; #@! TF.FileFunction,Plated,1,2,PTH
FMAT,2
INCH
T1C0.0157
T2C0.0394
%
G90
G05
T1
X8.6586Y-3.4768
X8.6874Y-3.2008
X8.8067Y-3.2216
X8.9128Y-3.5856
X8.9898Y-3.2951
T2
X6.4173Y-3.4083
X6.4173Y-3.5083
X6.4173Y-3.6083
X6.4173Y-3.7083
X6.4173Y-3.8083
X6.4173Y-3.9083
X6.4173Y-4.0083
X6.4173Y-4.1083
X6.4173Y-4.2083
X6.4173Y-4.3083
X6.5173Y-3.4083
X6.5173Y-3.5083
X6.5173Y-3.6083
X6.5173Y-3.7083
X6.5173Y-3.8083
X6.5173Y-3.9083
X6.5173Y-4.0083
X6.5173Y-4.1083
X6.5173Y-4.2083
X6.5173Y-4.3083
X6.6287Y-2.8437
X6.6287Y-2.9437
X6.7287Y-2.8437
X6.7287Y-2.9437
X6.8287Y-2.8437
X6.8287Y-2.9437
X6.9287Y-2.8437
X6.9287Y-2.9437
X7.0287Y-2.8437
X7.0287Y-2.9437
X7.1287Y-2.8437
X7.1287Y-2.9437
X7.1317Y-4.7526
X7.2287Y-2.8437
X7.2287Y-2.9437
X7.2695Y-4.7526
X7.3287Y-2.8437
X7.3287Y-2.9437
X7.4073Y-4.7526
X7.4287Y-2.8437
X7.4287Y-2.9437
X7.5287Y-2.8437
X7.5287Y-2.9437
X7.5451Y-4.7526
X7.6287Y-2.8437
X7.6287Y-2.9437
X7.7287Y-2.8437
X7.7287Y-2.9437
X7.8254Y-4.7526
X7.8287Y-2.8437
X7.8287Y-2.9437
X7.9287Y-2.8437
X7.9287Y-2.9437
X7.9632Y-4.7526
X8.0287Y-2.8437
X8.0287Y-2.9437
X8.101Y-4.7526
X8.1287Y-2.8437
X8.1287Y-2.9437
X8.2287Y-2.8437
X8.2287Y-2.9437
X8.2388Y-4.7526
X8.3287Y-2.8437
X8.3287Y-2.9437
X8.4287Y-2.8437
X8.4287Y-2.9437
X8.5287Y-2.8437
X8.5287Y-2.9437
X9.4291Y-3.3083
X9.4291Y-3.4083
X9.4291Y-3.5083
X9.4291Y-3.6083
X9.4291Y-3.7083
X9.4291Y-3.8083
X9.4291Y-3.9083
X9.4291Y-4.0083
X9.4291Y-4.1083
X9.4291Y-4.2083
X9.4291Y-4.3083
X9.4291Y-4.4083
X9.5291Y-3.3083
X9.5291Y-3.4083
X9.5291Y-3.5083
X9.5291Y-3.6083
X9.5291Y-3.7083
X9.5291Y-3.8083
X9.5291Y-3.9083
X9.5291Y-4.0083
X9.5291Y-4.1083
X9.5291Y-4.2083
X9.5291Y-4.3083
X9.5291Y-4.4083
T0
M30
