%TF.GenerationSoftware,KiCad,Pcbnew,(5.1.9)-1*%
%TF.CreationDate,2022-03-25T19:47:40-04:00*%
%TF.ProjectId,Baja_Pi_Expansion,42616a61-5f50-4695-9f45-7870616e7369,rev?*%
%TF.SameCoordinates,Original*%
%TF.FileFunction,Legend,Top*%
%TF.FilePolarity,Positive*%
%FSLAX46Y46*%
G04 Gerber Fmt 4.6, Leading zero omitted, Abs format (unit mm)*
G04 Created by KiCad (PCBNEW (5.1.9)-1) date 2022-03-25 19:47:40*
%MOMM*%
%LPD*%
G01*
G04 APERTURE LIST*
%ADD10C,0.150000*%
%ADD11C,0.200000*%
%ADD12C,0.120000*%
G04 APERTURE END LIST*
D10*
X198318380Y-111950333D02*
X199318380Y-111617000D01*
X198318380Y-111283666D01*
X199223142Y-110378904D02*
X199270761Y-110426523D01*
X199318380Y-110569380D01*
X199318380Y-110664619D01*
X199270761Y-110807476D01*
X199175523Y-110902714D01*
X199080285Y-110950333D01*
X198889809Y-110997952D01*
X198746952Y-110997952D01*
X198556476Y-110950333D01*
X198461238Y-110902714D01*
X198366000Y-110807476D01*
X198318380Y-110664619D01*
X198318380Y-110569380D01*
X198366000Y-110426523D01*
X198413619Y-110378904D01*
X199223142Y-109378904D02*
X199270761Y-109426523D01*
X199318380Y-109569380D01*
X199318380Y-109664619D01*
X199270761Y-109807476D01*
X199175523Y-109902714D01*
X199080285Y-109950333D01*
X198889809Y-109997952D01*
X198746952Y-109997952D01*
X198556476Y-109950333D01*
X198461238Y-109902714D01*
X198366000Y-109807476D01*
X198318380Y-109664619D01*
X198318380Y-109569380D01*
X198366000Y-109426523D01*
X198413619Y-109378904D01*
X208796000Y-111378904D02*
X208748380Y-111474142D01*
X208748380Y-111617000D01*
X208796000Y-111759857D01*
X208891238Y-111855095D01*
X208986476Y-111902714D01*
X209176952Y-111950333D01*
X209319809Y-111950333D01*
X209510285Y-111902714D01*
X209605523Y-111855095D01*
X209700761Y-111759857D01*
X209748380Y-111617000D01*
X209748380Y-111521761D01*
X209700761Y-111378904D01*
X209653142Y-111331285D01*
X209319809Y-111331285D01*
X209319809Y-111521761D01*
X209748380Y-110902714D02*
X208748380Y-110902714D01*
X209748380Y-110331285D01*
X208748380Y-110331285D01*
X209748380Y-109855095D02*
X208748380Y-109855095D01*
X208748380Y-109617000D01*
X208796000Y-109474142D01*
X208891238Y-109378904D01*
X208986476Y-109331285D01*
X209176952Y-109283666D01*
X209319809Y-109283666D01*
X209510285Y-109331285D01*
X209605523Y-109378904D01*
X209700761Y-109474142D01*
X209748380Y-109617000D01*
X209748380Y-109855095D01*
X201795000Y-111378904D02*
X201747380Y-111474142D01*
X201747380Y-111617000D01*
X201795000Y-111759857D01*
X201890238Y-111855095D01*
X201985476Y-111902714D01*
X202175952Y-111950333D01*
X202318809Y-111950333D01*
X202509285Y-111902714D01*
X202604523Y-111855095D01*
X202699761Y-111759857D01*
X202747380Y-111617000D01*
X202747380Y-111521761D01*
X202699761Y-111378904D01*
X202652142Y-111331285D01*
X202318809Y-111331285D01*
X202318809Y-111521761D01*
X202747380Y-110902714D02*
X201747380Y-110902714D01*
X202747380Y-110331285D01*
X201747380Y-110331285D01*
X202747380Y-109855095D02*
X201747380Y-109855095D01*
X201747380Y-109617000D01*
X201795000Y-109474142D01*
X201890238Y-109378904D01*
X201985476Y-109331285D01*
X202175952Y-109283666D01*
X202318809Y-109283666D01*
X202509285Y-109331285D01*
X202604523Y-109378904D01*
X202699761Y-109474142D01*
X202747380Y-109617000D01*
X202747380Y-109855095D01*
X205192380Y-111950333D02*
X206192380Y-111617000D01*
X205192380Y-111283666D01*
X206097142Y-110378904D02*
X206144761Y-110426523D01*
X206192380Y-110569380D01*
X206192380Y-110664619D01*
X206144761Y-110807476D01*
X206049523Y-110902714D01*
X205954285Y-110950333D01*
X205763809Y-110997952D01*
X205620952Y-110997952D01*
X205430476Y-110950333D01*
X205335238Y-110902714D01*
X205240000Y-110807476D01*
X205192380Y-110664619D01*
X205192380Y-110569380D01*
X205240000Y-110426523D01*
X205287619Y-110378904D01*
X206097142Y-109378904D02*
X206144761Y-109426523D01*
X206192380Y-109569380D01*
X206192380Y-109664619D01*
X206144761Y-109807476D01*
X206049523Y-109902714D01*
X205954285Y-109950333D01*
X205763809Y-109997952D01*
X205620952Y-109997952D01*
X205430476Y-109950333D01*
X205335238Y-109902714D01*
X205240000Y-109807476D01*
X205192380Y-109664619D01*
X205192380Y-109569380D01*
X205240000Y-109426523D01*
X205287619Y-109378904D01*
X187555380Y-111950333D02*
X188555380Y-111617000D01*
X187555380Y-111283666D01*
X188460142Y-110378904D02*
X188507761Y-110426523D01*
X188555380Y-110569380D01*
X188555380Y-110664619D01*
X188507761Y-110807476D01*
X188412523Y-110902714D01*
X188317285Y-110950333D01*
X188126809Y-110997952D01*
X187983952Y-110997952D01*
X187793476Y-110950333D01*
X187698238Y-110902714D01*
X187603000Y-110807476D01*
X187555380Y-110664619D01*
X187555380Y-110569380D01*
X187603000Y-110426523D01*
X187650619Y-110378904D01*
X188460142Y-109378904D02*
X188507761Y-109426523D01*
X188555380Y-109569380D01*
X188555380Y-109664619D01*
X188507761Y-109807476D01*
X188412523Y-109902714D01*
X188317285Y-109950333D01*
X188126809Y-109997952D01*
X187983952Y-109997952D01*
X187793476Y-109950333D01*
X187698238Y-109902714D01*
X187603000Y-109807476D01*
X187555380Y-109664619D01*
X187555380Y-109569380D01*
X187603000Y-109426523D01*
X187650619Y-109378904D01*
X180570380Y-111823333D02*
X181570380Y-111490000D01*
X180570380Y-111156666D01*
X181475142Y-110251904D02*
X181522761Y-110299523D01*
X181570380Y-110442380D01*
X181570380Y-110537619D01*
X181522761Y-110680476D01*
X181427523Y-110775714D01*
X181332285Y-110823333D01*
X181141809Y-110870952D01*
X180998952Y-110870952D01*
X180808476Y-110823333D01*
X180713238Y-110775714D01*
X180618000Y-110680476D01*
X180570380Y-110537619D01*
X180570380Y-110442380D01*
X180618000Y-110299523D01*
X180665619Y-110251904D01*
X181475142Y-109251904D02*
X181522761Y-109299523D01*
X181570380Y-109442380D01*
X181570380Y-109537619D01*
X181522761Y-109680476D01*
X181427523Y-109775714D01*
X181332285Y-109823333D01*
X181141809Y-109870952D01*
X180998952Y-109870952D01*
X180808476Y-109823333D01*
X180713238Y-109775714D01*
X180618000Y-109680476D01*
X180570380Y-109537619D01*
X180570380Y-109442380D01*
X180618000Y-109299523D01*
X180665619Y-109251904D01*
X191159000Y-111378904D02*
X191111380Y-111474142D01*
X191111380Y-111617000D01*
X191159000Y-111759857D01*
X191254238Y-111855095D01*
X191349476Y-111902714D01*
X191539952Y-111950333D01*
X191682809Y-111950333D01*
X191873285Y-111902714D01*
X191968523Y-111855095D01*
X192063761Y-111759857D01*
X192111380Y-111617000D01*
X192111380Y-111521761D01*
X192063761Y-111378904D01*
X192016142Y-111331285D01*
X191682809Y-111331285D01*
X191682809Y-111521761D01*
X192111380Y-110902714D02*
X191111380Y-110902714D01*
X192111380Y-110331285D01*
X191111380Y-110331285D01*
X192111380Y-109855095D02*
X191111380Y-109855095D01*
X191111380Y-109617000D01*
X191159000Y-109474142D01*
X191254238Y-109378904D01*
X191349476Y-109331285D01*
X191539952Y-109283666D01*
X191682809Y-109283666D01*
X191873285Y-109331285D01*
X191968523Y-109378904D01*
X192063761Y-109474142D01*
X192111380Y-109617000D01*
X192111380Y-109855095D01*
X184047000Y-111251904D02*
X183999380Y-111347142D01*
X183999380Y-111490000D01*
X184047000Y-111632857D01*
X184142238Y-111728095D01*
X184237476Y-111775714D01*
X184427952Y-111823333D01*
X184570809Y-111823333D01*
X184761285Y-111775714D01*
X184856523Y-111728095D01*
X184951761Y-111632857D01*
X184999380Y-111490000D01*
X184999380Y-111394761D01*
X184951761Y-111251904D01*
X184904142Y-111204285D01*
X184570809Y-111204285D01*
X184570809Y-111394761D01*
X184999380Y-110775714D02*
X183999380Y-110775714D01*
X184999380Y-110204285D01*
X183999380Y-110204285D01*
X184999380Y-109728095D02*
X183999380Y-109728095D01*
X183999380Y-109490000D01*
X184047000Y-109347142D01*
X184142238Y-109251904D01*
X184237476Y-109204285D01*
X184427952Y-109156666D01*
X184570809Y-109156666D01*
X184761285Y-109204285D01*
X184856523Y-109251904D01*
X184951761Y-109347142D01*
X184999380Y-109490000D01*
X184999380Y-109728095D01*
D11*
X174046428Y-78807571D02*
X174046428Y-79879000D01*
X173975000Y-80093285D01*
X173832142Y-80236142D01*
X173617857Y-80307571D01*
X173475000Y-80307571D01*
X175475000Y-80307571D02*
X174760714Y-80307571D01*
X174760714Y-78807571D01*
X176832142Y-80164714D02*
X176760714Y-80236142D01*
X176546428Y-80307571D01*
X176403571Y-80307571D01*
X176189285Y-80236142D01*
X176046428Y-80093285D01*
X175975000Y-79950428D01*
X175903571Y-79664714D01*
X175903571Y-79450428D01*
X175975000Y-79164714D01*
X176046428Y-79021857D01*
X176189285Y-78879000D01*
X176403571Y-78807571D01*
X176546428Y-78807571D01*
X176760714Y-78879000D01*
X176832142Y-78950428D01*
X177903571Y-78807571D02*
X177903571Y-79879000D01*
X177832142Y-80093285D01*
X177689285Y-80236142D01*
X177475000Y-80307571D01*
X177332142Y-80307571D01*
X179332142Y-80307571D02*
X178617857Y-80307571D01*
X178617857Y-78807571D01*
X180689285Y-80164714D02*
X180617857Y-80236142D01*
X180403571Y-80307571D01*
X180260714Y-80307571D01*
X180046428Y-80236142D01*
X179903571Y-80093285D01*
X179832142Y-79950428D01*
X179760714Y-79664714D01*
X179760714Y-79450428D01*
X179832142Y-79164714D01*
X179903571Y-79021857D01*
X180046428Y-78879000D01*
X180260714Y-78807571D01*
X180403571Y-78807571D01*
X180617857Y-78879000D01*
X180689285Y-78950428D01*
X181760714Y-78807571D02*
X181760714Y-79879000D01*
X181689285Y-80093285D01*
X181546428Y-80236142D01*
X181332142Y-80307571D01*
X181189285Y-80307571D01*
X183189285Y-80307571D02*
X182475000Y-80307571D01*
X182475000Y-78807571D01*
X184546428Y-80164714D02*
X184475000Y-80236142D01*
X184260714Y-80307571D01*
X184117857Y-80307571D01*
X183903571Y-80236142D01*
X183760714Y-80093285D01*
X183689285Y-79950428D01*
X183617857Y-79664714D01*
X183617857Y-79450428D01*
X183689285Y-79164714D01*
X183760714Y-79021857D01*
X183903571Y-78879000D01*
X184117857Y-78807571D01*
X184260714Y-78807571D01*
X184475000Y-78879000D01*
X184546428Y-78950428D01*
X185617857Y-78807571D02*
X185617857Y-79879000D01*
X185546428Y-80093285D01*
X185403571Y-80236142D01*
X185189285Y-80307571D01*
X185046428Y-80307571D01*
X187046428Y-80307571D02*
X186332142Y-80307571D01*
X186332142Y-78807571D01*
X188403571Y-80164714D02*
X188332142Y-80236142D01*
X188117857Y-80307571D01*
X187975000Y-80307571D01*
X187760714Y-80236142D01*
X187617857Y-80093285D01*
X187546428Y-79950428D01*
X187475000Y-79664714D01*
X187475000Y-79450428D01*
X187546428Y-79164714D01*
X187617857Y-79021857D01*
X187760714Y-78879000D01*
X187975000Y-78807571D01*
X188117857Y-78807571D01*
X188332142Y-78879000D01*
X188403571Y-78950428D01*
D10*
X231465380Y-124777333D02*
X230465380Y-124777333D01*
X230465380Y-124396380D01*
X230513000Y-124301142D01*
X230560619Y-124253523D01*
X230655857Y-124205904D01*
X230798714Y-124205904D01*
X230893952Y-124253523D01*
X230941571Y-124301142D01*
X230989190Y-124396380D01*
X230989190Y-124777333D01*
X230465380Y-123872571D02*
X231465380Y-123634476D01*
X230751095Y-123444000D01*
X231465380Y-123253523D01*
X230465380Y-123015428D01*
X231465380Y-122063047D02*
X230989190Y-122396380D01*
X231465380Y-122634476D02*
X230465380Y-122634476D01*
X230465380Y-122253523D01*
X230513000Y-122158285D01*
X230560619Y-122110666D01*
X230655857Y-122063047D01*
X230798714Y-122063047D01*
X230893952Y-122110666D01*
X230941571Y-122158285D01*
X230989190Y-122253523D01*
X230989190Y-122634476D01*
D12*
%TO.C,J1*%
X161670000Y-110760000D02*
X166870000Y-110760000D01*
X161670000Y-87840000D02*
X161670000Y-110760000D01*
X166870000Y-85240000D02*
X166870000Y-110760000D01*
X161670000Y-87840000D02*
X164270000Y-87840000D01*
X164270000Y-87840000D02*
X164270000Y-85240000D01*
X164270000Y-85240000D02*
X166870000Y-85240000D01*
X161670000Y-86570000D02*
X161670000Y-85240000D01*
X161670000Y-85240000D02*
X163000000Y-85240000D01*
%TO.C,J2*%
X238170000Y-113300000D02*
X243370000Y-113300000D01*
X238170000Y-85300000D02*
X238170000Y-113300000D01*
X243370000Y-82700000D02*
X243370000Y-113300000D01*
X238170000Y-85300000D02*
X240770000Y-85300000D01*
X240770000Y-85300000D02*
X240770000Y-82700000D01*
X240770000Y-82700000D02*
X243370000Y-82700000D01*
X238170000Y-84030000D02*
X238170000Y-82700000D01*
X238170000Y-82700000D02*
X239500000Y-82700000D01*
%TO.C,J4*%
X217960000Y-76100000D02*
X217960000Y-70900000D01*
X169640000Y-76100000D02*
X217960000Y-76100000D01*
X167040000Y-70900000D02*
X217960000Y-70900000D01*
X169640000Y-76100000D02*
X169640000Y-73500000D01*
X169640000Y-73500000D02*
X167040000Y-73500000D01*
X167040000Y-73500000D02*
X167040000Y-70900000D01*
X168370000Y-76100000D02*
X167040000Y-76100000D01*
X167040000Y-76100000D02*
X167040000Y-74770000D01*
%TO.C,R1*%
X178129742Y-86552500D02*
X178604258Y-86552500D01*
X178129742Y-87597500D02*
X178604258Y-87597500D01*
%TO.C,R2*%
X178134742Y-92343500D02*
X178609258Y-92343500D01*
X178134742Y-91298500D02*
X178609258Y-91298500D01*
%TO.C,R5*%
X190262742Y-88885500D02*
X190737258Y-88885500D01*
X190262742Y-89930500D02*
X190737258Y-89930500D01*
%TO.C,J3*%
X179146000Y-124717000D02*
X179146000Y-113467000D01*
X193646000Y-113467000D02*
X193646000Y-124717000D01*
%TO.C,J5*%
X211266000Y-113467000D02*
X211266000Y-124717000D01*
X196766000Y-124717000D02*
X196766000Y-113467000D01*
%TO.C,D1*%
X232470000Y-124389000D02*
X236355000Y-124389000D01*
X232470000Y-122119000D02*
X232470000Y-124389000D01*
X236355000Y-122119000D02*
X232470000Y-122119000D01*
%TO.C,R1*%
D10*
X178200333Y-86097380D02*
X177867000Y-85621190D01*
X177628904Y-86097380D02*
X177628904Y-85097380D01*
X178009857Y-85097380D01*
X178105095Y-85145000D01*
X178152714Y-85192619D01*
X178200333Y-85287857D01*
X178200333Y-85430714D01*
X178152714Y-85525952D01*
X178105095Y-85573571D01*
X178009857Y-85621190D01*
X177628904Y-85621190D01*
X179152714Y-86097380D02*
X178581285Y-86097380D01*
X178867000Y-86097380D02*
X178867000Y-85097380D01*
X178771761Y-85240238D01*
X178676523Y-85335476D01*
X178581285Y-85383095D01*
%TO.C,R2*%
X178205333Y-90843380D02*
X177872000Y-90367190D01*
X177633904Y-90843380D02*
X177633904Y-89843380D01*
X178014857Y-89843380D01*
X178110095Y-89891000D01*
X178157714Y-89938619D01*
X178205333Y-90033857D01*
X178205333Y-90176714D01*
X178157714Y-90271952D01*
X178110095Y-90319571D01*
X178014857Y-90367190D01*
X177633904Y-90367190D01*
X178586285Y-89938619D02*
X178633904Y-89891000D01*
X178729142Y-89843380D01*
X178967238Y-89843380D01*
X179062476Y-89891000D01*
X179110095Y-89938619D01*
X179157714Y-90033857D01*
X179157714Y-90129095D01*
X179110095Y-90271952D01*
X178538666Y-90843380D01*
X179157714Y-90843380D01*
%TO.C,R5*%
X190333333Y-88430380D02*
X190000000Y-87954190D01*
X189761904Y-88430380D02*
X189761904Y-87430380D01*
X190142857Y-87430380D01*
X190238095Y-87478000D01*
X190285714Y-87525619D01*
X190333333Y-87620857D01*
X190333333Y-87763714D01*
X190285714Y-87858952D01*
X190238095Y-87906571D01*
X190142857Y-87954190D01*
X189761904Y-87954190D01*
X191238095Y-87430380D02*
X190761904Y-87430380D01*
X190714285Y-87906571D01*
X190761904Y-87858952D01*
X190857142Y-87811333D01*
X191095238Y-87811333D01*
X191190476Y-87858952D01*
X191238095Y-87906571D01*
X191285714Y-88001809D01*
X191285714Y-88239904D01*
X191238095Y-88335142D01*
X191190476Y-88382761D01*
X191095238Y-88430380D01*
X190857142Y-88430380D01*
X190761904Y-88382761D01*
X190714285Y-88335142D01*
%TO.C,J3*%
X182800665Y-115974879D02*
X182800665Y-116689165D01*
X182753046Y-116832022D01*
X182657808Y-116927260D01*
X182514951Y-116974879D01*
X182419713Y-116974879D01*
X183181618Y-115974879D02*
X183800665Y-115974879D01*
X183467332Y-116355832D01*
X183610189Y-116355832D01*
X183705427Y-116403451D01*
X183753046Y-116451070D01*
X183800665Y-116546308D01*
X183800665Y-116784403D01*
X183753046Y-116879641D01*
X183705427Y-116927260D01*
X183610189Y-116974879D01*
X183324475Y-116974879D01*
X183229237Y-116927260D01*
X183181618Y-116879641D01*
%TO.C,J5*%
X200136165Y-116101879D02*
X200136165Y-116816165D01*
X200088546Y-116959022D01*
X199993308Y-117054260D01*
X199850451Y-117101879D01*
X199755213Y-117101879D01*
X201088546Y-116101879D02*
X200612356Y-116101879D01*
X200564737Y-116578070D01*
X200612356Y-116530451D01*
X200707594Y-116482832D01*
X200945689Y-116482832D01*
X201040927Y-116530451D01*
X201088546Y-116578070D01*
X201136165Y-116673308D01*
X201136165Y-116911403D01*
X201088546Y-117006641D01*
X201040927Y-117054260D01*
X200945689Y-117101879D01*
X200707594Y-117101879D01*
X200612356Y-117054260D01*
X200564737Y-117006641D01*
%TO.C,D1*%
X234016904Y-121886380D02*
X234016904Y-120886380D01*
X234255000Y-120886380D01*
X234397857Y-120934000D01*
X234493095Y-121029238D01*
X234540714Y-121124476D01*
X234588333Y-121314952D01*
X234588333Y-121457809D01*
X234540714Y-121648285D01*
X234493095Y-121743523D01*
X234397857Y-121838761D01*
X234255000Y-121886380D01*
X234016904Y-121886380D01*
X235540714Y-121886380D02*
X234969285Y-121886380D01*
X235255000Y-121886380D02*
X235255000Y-120886380D01*
X235159761Y-121029238D01*
X235064523Y-121124476D01*
X234969285Y-121172095D01*
%TD*%
M02*
