%TF.GenerationSoftware,KiCad,Pcbnew,(5.1.9)-1*%
%TF.CreationDate,2022-03-25T19:47:40-04:00*%
%TF.ProjectId,Baja_Pi_Expansion,42616a61-5f50-4695-9f45-7870616e7369,rev?*%
%TF.SameCoordinates,Original*%
%TF.FileFunction,Copper,L1,Top*%
%TF.FilePolarity,Positive*%
%FSLAX46Y46*%
G04 Gerber Fmt 4.6, Leading zero omitted, Abs format (unit mm)*
G04 Created by KiCad (PCBNEW (5.1.9)-1) date 2022-03-25 19:47:40*
%MOMM*%
%LPD*%
G01*
G04 APERTURE LIST*
%TA.AperFunction,ComponentPad*%
%ADD10R,1.700000X1.700000*%
%TD*%
%TA.AperFunction,ComponentPad*%
%ADD11O,1.700000X1.700000*%
%TD*%
%TA.AperFunction,ComponentPad*%
%ADD12C,2.000000*%
%TD*%
%TA.AperFunction,ViaPad*%
%ADD13C,0.800000*%
%TD*%
%TA.AperFunction,Conductor*%
%ADD14C,0.250000*%
%TD*%
%TA.AperFunction,Conductor*%
%ADD15C,0.254000*%
%TD*%
%TA.AperFunction,Conductor*%
%ADD16C,0.100000*%
%TD*%
G04 APERTURE END LIST*
D10*
%TO.P,J1,1*%
%TO.N,/3v3*%
X163000000Y-86570000D03*
D11*
%TO.P,J1,2*%
%TO.N,/5v*%
X165540000Y-86570000D03*
%TO.P,J1,3*%
%TO.N,/sda2*%
X163000000Y-89110000D03*
%TO.P,J1,4*%
%TO.N,/5v*%
X165540000Y-89110000D03*
%TO.P,J1,5*%
%TO.N,/scl2*%
X163000000Y-91650000D03*
%TO.P,J1,6*%
%TO.N,/gnd*%
X165540000Y-91650000D03*
%TO.P,J1,7*%
%TO.N,/gpio1*%
X163000000Y-94190000D03*
%TO.P,J1,8*%
%TO.N,/uart_tx*%
X165540000Y-94190000D03*
%TO.P,J1,9*%
%TO.N,/gnd*%
X163000000Y-96730000D03*
%TO.P,J1,10*%
%TO.N,/uart_rx*%
X165540000Y-96730000D03*
%TO.P,J1,11*%
%TO.N,/spi2_ce1*%
X163000000Y-99270000D03*
%TO.P,J1,12*%
%TO.N,/spi2_ce0*%
X165540000Y-99270000D03*
%TO.P,J1,13*%
%TO.N,/gpio11*%
X163000000Y-101810000D03*
%TO.P,J1,14*%
%TO.N,/gnd*%
X165540000Y-101810000D03*
%TO.P,J1,15*%
%TO.N,/gpio6*%
X163000000Y-104350000D03*
%TO.P,J1,16*%
%TO.N,/gpio7*%
X165540000Y-104350000D03*
%TO.P,J1,17*%
%TO.N,/3v3*%
X163000000Y-106890000D03*
%TO.P,J1,18*%
%TO.N,/gpio8*%
X165540000Y-106890000D03*
%TO.P,J1,19*%
%TO.N,/mosi*%
X163000000Y-109430000D03*
%TO.P,J1,20*%
%TO.N,/gnd*%
X165540000Y-109430000D03*
%TD*%
D10*
%TO.P,J2,1*%
%TO.N,/miso*%
X239500000Y-84030000D03*
D11*
%TO.P,J2,2*%
%TO.N,/gpio9*%
X242040000Y-84030000D03*
%TO.P,J2,3*%
%TO.N,/sclk*%
X239500000Y-86570000D03*
%TO.P,J2,4*%
%TO.N,/spi_ce0*%
X242040000Y-86570000D03*
%TO.P,J2,5*%
%TO.N,/gnd*%
X239500000Y-89110000D03*
%TO.P,J2,6*%
%TO.N,/spi_ce1*%
X242040000Y-89110000D03*
%TO.P,J2,7*%
%TO.N,/sda*%
X239500000Y-91650000D03*
%TO.P,J2,8*%
%TO.N,/scl*%
X242040000Y-91650000D03*
%TO.P,J2,9*%
%TO.N,/gpio2*%
X239500000Y-94190000D03*
%TO.P,J2,10*%
%TO.N,/gnd*%
X242040000Y-94190000D03*
%TO.P,J2,11*%
%TO.N,/gpio3*%
X239500000Y-96730000D03*
%TO.P,J2,12*%
%TO.N,/gpio4*%
X242040000Y-96730000D03*
%TO.P,J2,13*%
%TO.N,/gpio5*%
X239500000Y-99270000D03*
%TO.P,J2,14*%
%TO.N,/gnd*%
X242040000Y-99270000D03*
%TO.P,J2,15*%
%TO.N,/miso2_pwm*%
X239500000Y-101810000D03*
%TO.P,J2,16*%
%TO.N,/reset*%
X242040000Y-101810000D03*
%TO.P,J2,17*%
%TO.N,/gpio10*%
X239500000Y-104350000D03*
%TO.P,J2,18*%
%TO.N,/miso2*%
X242040000Y-104350000D03*
%TO.P,J2,19*%
%TO.N,/gnd*%
X239500000Y-106890000D03*
%TO.P,J2,20*%
%TO.N,/sclk2*%
X242040000Y-106890000D03*
%TO.P,J2,21*%
%TO.N,Net-(J2-Pad21)*%
X239500000Y-109430000D03*
%TO.P,J2,22*%
%TO.N,/reset*%
X242040000Y-109430000D03*
%TO.P,J2,23*%
%TO.N,/vcc*%
X239500000Y-111970000D03*
%TO.P,J2,24*%
X242040000Y-111970000D03*
%TD*%
D10*
%TO.P,J4,1*%
%TO.N,/3v3*%
X168370000Y-74770000D03*
D11*
%TO.P,J4,2*%
%TO.N,/5v*%
X168370000Y-72230000D03*
%TO.P,J4,3*%
%TO.N,/sda2*%
X170910000Y-74770000D03*
%TO.P,J4,4*%
%TO.N,/5v*%
X170910000Y-72230000D03*
%TO.P,J4,5*%
%TO.N,/scl2*%
X173450000Y-74770000D03*
%TO.P,J4,6*%
%TO.N,/gnd*%
X173450000Y-72230000D03*
%TO.P,J4,7*%
%TO.N,/gpio1*%
X175990000Y-74770000D03*
%TO.P,J4,8*%
%TO.N,/uart_tx*%
X175990000Y-72230000D03*
%TO.P,J4,9*%
%TO.N,/gnd*%
X178530000Y-74770000D03*
%TO.P,J4,10*%
%TO.N,/uart_rx*%
X178530000Y-72230000D03*
%TO.P,J4,11*%
%TO.N,/spi2_ce1*%
X181070000Y-74770000D03*
%TO.P,J4,12*%
%TO.N,/spi2_ce0*%
X181070000Y-72230000D03*
%TO.P,J4,13*%
%TO.N,/gpio11*%
X183610000Y-74770000D03*
%TO.P,J4,14*%
%TO.N,/gnd*%
X183610000Y-72230000D03*
%TO.P,J4,15*%
%TO.N,/gpio6*%
X186150000Y-74770000D03*
%TO.P,J4,16*%
%TO.N,/gpio7*%
X186150000Y-72230000D03*
%TO.P,J4,17*%
%TO.N,/3v3*%
X188690000Y-74770000D03*
%TO.P,J4,18*%
%TO.N,/gpio8*%
X188690000Y-72230000D03*
%TO.P,J4,19*%
%TO.N,/mosi*%
X191230000Y-74770000D03*
%TO.P,J4,20*%
%TO.N,/gnd*%
X191230000Y-72230000D03*
%TO.P,J4,21*%
%TO.N,/miso*%
X193770000Y-74770000D03*
%TO.P,J4,22*%
%TO.N,/gpio9*%
X193770000Y-72230000D03*
%TO.P,J4,23*%
%TO.N,/sclk*%
X196310000Y-74770000D03*
%TO.P,J4,24*%
%TO.N,/spi_ce0*%
X196310000Y-72230000D03*
%TO.P,J4,25*%
%TO.N,/gnd*%
X198850000Y-74770000D03*
%TO.P,J4,26*%
%TO.N,/spi_ce1*%
X198850000Y-72230000D03*
%TO.P,J4,27*%
%TO.N,/sda*%
X201390000Y-74770000D03*
%TO.P,J4,28*%
%TO.N,/scl*%
X201390000Y-72230000D03*
%TO.P,J4,29*%
%TO.N,/gpio2*%
X203930000Y-74770000D03*
%TO.P,J4,30*%
%TO.N,/gnd*%
X203930000Y-72230000D03*
%TO.P,J4,31*%
%TO.N,/gpio3*%
X206470000Y-74770000D03*
%TO.P,J4,32*%
%TO.N,/gpio4*%
X206470000Y-72230000D03*
%TO.P,J4,33*%
%TO.N,/gpio5*%
X209010000Y-74770000D03*
%TO.P,J4,34*%
%TO.N,/gnd*%
X209010000Y-72230000D03*
%TO.P,J4,35*%
%TO.N,/miso2_pwm*%
X211550000Y-74770000D03*
%TO.P,J4,36*%
%TO.N,/reset*%
X211550000Y-72230000D03*
%TO.P,J4,37*%
%TO.N,/gpio10*%
X214090000Y-74770000D03*
%TO.P,J4,38*%
%TO.N,/miso2*%
X214090000Y-72230000D03*
%TO.P,J4,39*%
%TO.N,/gnd*%
X216630000Y-74770000D03*
%TO.P,J4,40*%
%TO.N,/sclk2*%
X216630000Y-72230000D03*
%TD*%
%TO.P,R1,1*%
%TO.N,/5v*%
%TA.AperFunction,SMDPad,CuDef*%
G36*
G01*
X177142000Y-87350000D02*
X177142000Y-86800000D01*
G75*
G02*
X177342000Y-86600000I200000J0D01*
G01*
X177742000Y-86600000D01*
G75*
G02*
X177942000Y-86800000I0J-200000D01*
G01*
X177942000Y-87350000D01*
G75*
G02*
X177742000Y-87550000I-200000J0D01*
G01*
X177342000Y-87550000D01*
G75*
G02*
X177142000Y-87350000I0J200000D01*
G01*
G37*
%TD.AperFunction*%
%TO.P,R1,2*%
%TO.N,/sda2*%
%TA.AperFunction,SMDPad,CuDef*%
G36*
G01*
X178792000Y-87350000D02*
X178792000Y-86800000D01*
G75*
G02*
X178992000Y-86600000I200000J0D01*
G01*
X179392000Y-86600000D01*
G75*
G02*
X179592000Y-86800000I0J-200000D01*
G01*
X179592000Y-87350000D01*
G75*
G02*
X179392000Y-87550000I-200000J0D01*
G01*
X178992000Y-87550000D01*
G75*
G02*
X178792000Y-87350000I0J200000D01*
G01*
G37*
%TD.AperFunction*%
%TD*%
%TO.P,R2,2*%
%TO.N,/5v*%
%TA.AperFunction,SMDPad,CuDef*%
G36*
G01*
X178797000Y-92096000D02*
X178797000Y-91546000D01*
G75*
G02*
X178997000Y-91346000I200000J0D01*
G01*
X179397000Y-91346000D01*
G75*
G02*
X179597000Y-91546000I0J-200000D01*
G01*
X179597000Y-92096000D01*
G75*
G02*
X179397000Y-92296000I-200000J0D01*
G01*
X178997000Y-92296000D01*
G75*
G02*
X178797000Y-92096000I0J200000D01*
G01*
G37*
%TD.AperFunction*%
%TO.P,R2,1*%
%TO.N,/scl2*%
%TA.AperFunction,SMDPad,CuDef*%
G36*
G01*
X177147000Y-92096000D02*
X177147000Y-91546000D01*
G75*
G02*
X177347000Y-91346000I200000J0D01*
G01*
X177747000Y-91346000D01*
G75*
G02*
X177947000Y-91546000I0J-200000D01*
G01*
X177947000Y-92096000D01*
G75*
G02*
X177747000Y-92296000I-200000J0D01*
G01*
X177347000Y-92296000D01*
G75*
G02*
X177147000Y-92096000I0J200000D01*
G01*
G37*
%TD.AperFunction*%
%TD*%
%TO.P,R5,1*%
%TO.N,/Vcc*%
%TA.AperFunction,SMDPad,CuDef*%
G36*
G01*
X189275000Y-89683000D02*
X189275000Y-89133000D01*
G75*
G02*
X189475000Y-88933000I200000J0D01*
G01*
X189875000Y-88933000D01*
G75*
G02*
X190075000Y-89133000I0J-200000D01*
G01*
X190075000Y-89683000D01*
G75*
G02*
X189875000Y-89883000I-200000J0D01*
G01*
X189475000Y-89883000D01*
G75*
G02*
X189275000Y-89683000I0J200000D01*
G01*
G37*
%TD.AperFunction*%
%TO.P,R5,2*%
%TO.N,Net-(D1-Pad2)*%
%TA.AperFunction,SMDPad,CuDef*%
G36*
G01*
X190925000Y-89683000D02*
X190925000Y-89133000D01*
G75*
G02*
X191125000Y-88933000I200000J0D01*
G01*
X191525000Y-88933000D01*
G75*
G02*
X191725000Y-89133000I0J-200000D01*
G01*
X191725000Y-89683000D01*
G75*
G02*
X191525000Y-89883000I-200000J0D01*
G01*
X191125000Y-89883000D01*
G75*
G02*
X190925000Y-89683000I0J200000D01*
G01*
G37*
%TD.AperFunction*%
%TD*%
D12*
%TO.P,J3,4*%
%TO.N,/gnd*%
X191646000Y-120717000D03*
%TO.P,J3,3*%
%TO.N,/vcc*%
X188146000Y-120717000D03*
%TO.P,J3,2*%
%TO.N,/gnd*%
X184646000Y-120717000D03*
%TO.P,J3,1*%
%TO.N,/vcc*%
X181146000Y-120717000D03*
%TD*%
%TO.P,J5,1*%
%TO.N,/vcc*%
X198766000Y-120717000D03*
%TO.P,J5,2*%
%TO.N,/gnd*%
X202266000Y-120717000D03*
%TO.P,J5,3*%
%TO.N,/vcc*%
X205766000Y-120717000D03*
%TO.P,J5,4*%
%TO.N,/gnd*%
X209266000Y-120717000D03*
%TD*%
%TO.P,D1,1*%
%TO.N,/GND*%
%TA.AperFunction,SMDPad,CuDef*%
G36*
G01*
X232730000Y-123879000D02*
X232730000Y-122629000D01*
G75*
G02*
X232980000Y-122379000I250000J0D01*
G01*
X233730000Y-122379000D01*
G75*
G02*
X233980000Y-122629000I0J-250000D01*
G01*
X233980000Y-123879000D01*
G75*
G02*
X233730000Y-124129000I-250000J0D01*
G01*
X232980000Y-124129000D01*
G75*
G02*
X232730000Y-123879000I0J250000D01*
G01*
G37*
%TD.AperFunction*%
%TO.P,D1,2*%
%TO.N,Net-(D1-Pad2)*%
%TA.AperFunction,SMDPad,CuDef*%
G36*
G01*
X235530000Y-123879000D02*
X235530000Y-122629000D01*
G75*
G02*
X235780000Y-122379000I250000J0D01*
G01*
X236530000Y-122379000D01*
G75*
G02*
X236780000Y-122629000I0J-250000D01*
G01*
X236780000Y-123879000D01*
G75*
G02*
X236530000Y-124129000I-250000J0D01*
G01*
X235780000Y-124129000D01*
G75*
G02*
X235530000Y-123879000I0J250000D01*
G01*
G37*
%TD.AperFunction*%
%TD*%
D13*
%TO.N,/spi_ce1*%
X228341900Y-83694700D03*
%TO.N,/sda*%
X226385500Y-91074800D03*
%TO.N,/gpio5*%
X220659200Y-81300600D03*
%TO.N,/gpio2*%
X219928400Y-88309500D03*
%TO.N,/gpio3*%
X223690800Y-81828100D03*
%TD*%
D14*
%TO.N,/vcc*%
X188146000Y-119340000D02*
X188146000Y-120717000D01*
X189675000Y-89408000D02*
X188146000Y-90937000D01*
X188146000Y-90937000D02*
X188146000Y-119340000D01*
X188146000Y-119340000D02*
X182523000Y-119340000D01*
X182523000Y-119340000D02*
X181146000Y-120717000D01*
X198766000Y-120717000D02*
X197440600Y-122042400D01*
X197440600Y-122042400D02*
X189471400Y-122042400D01*
X189471400Y-122042400D02*
X188146000Y-120717000D01*
X198766000Y-120717000D02*
X200146200Y-122097200D01*
X200146200Y-122097200D02*
X204385800Y-122097200D01*
X204385800Y-122097200D02*
X205766000Y-120717000D01*
%TO.N,/5v*%
X177542000Y-88444900D02*
X167380400Y-88444900D01*
X167380400Y-88444900D02*
X166715300Y-89110000D01*
X179197000Y-91821000D02*
X179197000Y-90099900D01*
X179197000Y-90099900D02*
X177542000Y-88444900D01*
X177542000Y-88444900D02*
X177542000Y-87075000D01*
X165540000Y-89110000D02*
X166715300Y-89110000D01*
%TO.N,Net-(D1-Pad2)*%
X236155000Y-123254000D02*
X202309000Y-89408000D01*
X202309000Y-89408000D02*
X191325000Y-89408000D01*
%TO.N,/3v3*%
X168370000Y-74770000D02*
X169545300Y-74770000D01*
X188690000Y-74770000D02*
X187514700Y-74770000D01*
X187514700Y-74770000D02*
X187514700Y-74402700D01*
X187514700Y-74402700D02*
X186706700Y-73594700D01*
X186706700Y-73594700D02*
X170353200Y-73594700D01*
X170353200Y-73594700D02*
X169545300Y-74402600D01*
X169545300Y-74402600D02*
X169545300Y-74770000D01*
%TO.N,/sda2*%
X170910000Y-83857400D02*
X170910000Y-74770000D01*
X179192000Y-87075000D02*
X175974400Y-83857400D01*
X175974400Y-83857400D02*
X170910000Y-83857400D01*
X170910000Y-83857400D02*
X166832700Y-87934700D01*
X166832700Y-87934700D02*
X164983200Y-87934700D01*
X164983200Y-87934700D02*
X164175300Y-88742600D01*
X164175300Y-88742600D02*
X164175300Y-89110000D01*
X163000000Y-89110000D02*
X164175300Y-89110000D01*
%TO.N,/scl2*%
X163000000Y-91650000D02*
X164175300Y-91650000D01*
X177547000Y-91821000D02*
X176542700Y-92825300D01*
X176542700Y-92825300D02*
X164983200Y-92825300D01*
X164983200Y-92825300D02*
X164175300Y-92017400D01*
X164175300Y-92017400D02*
X164175300Y-91650000D01*
%TO.N,/uart_tx*%
X165540000Y-94190000D02*
X164364700Y-94190000D01*
X175990000Y-72230000D02*
X174814700Y-72230000D01*
X174814700Y-72230000D02*
X174814700Y-71862700D01*
X174814700Y-71862700D02*
X174000700Y-71048700D01*
X174000700Y-71048700D02*
X167854200Y-71048700D01*
X167854200Y-71048700D02*
X167191600Y-71711300D01*
X167191600Y-71711300D02*
X167191600Y-77295500D01*
X167191600Y-77295500D02*
X161821700Y-82665400D01*
X161821700Y-82665400D02*
X161821700Y-92174500D01*
X161821700Y-92174500D02*
X162661900Y-93014700D01*
X162661900Y-93014700D02*
X163556800Y-93014700D01*
X163556800Y-93014700D02*
X164364700Y-93822600D01*
X164364700Y-93822600D02*
X164364700Y-94190000D01*
%TO.N,/gpio6*%
X163000000Y-104350000D02*
X164175300Y-104350000D01*
X186150000Y-74770000D02*
X186150000Y-86086000D01*
X186150000Y-86086000D02*
X169061300Y-103174700D01*
X169061300Y-103174700D02*
X164983200Y-103174700D01*
X164983200Y-103174700D02*
X164175300Y-103982600D01*
X164175300Y-103982600D02*
X164175300Y-104350000D01*
%TO.N,/mosi*%
X163000000Y-109430000D02*
X164175300Y-109430000D01*
X191230000Y-74770000D02*
X191230000Y-82904300D01*
X191230000Y-82904300D02*
X165879600Y-108254700D01*
X165879600Y-108254700D02*
X164983200Y-108254700D01*
X164983200Y-108254700D02*
X164175300Y-109062600D01*
X164175300Y-109062600D02*
X164175300Y-109430000D01*
%TO.N,/gpio9*%
X242040000Y-84030000D02*
X240864700Y-84030000D01*
X193770000Y-72230000D02*
X195464300Y-70535700D01*
X195464300Y-70535700D02*
X201452100Y-70535700D01*
X201452100Y-70535700D02*
X202660000Y-71743600D01*
X202660000Y-71743600D02*
X202660000Y-75178100D01*
X202660000Y-75178100D02*
X210336600Y-82854700D01*
X210336600Y-82854700D02*
X240497500Y-82854700D01*
X240497500Y-82854700D02*
X240864700Y-83221900D01*
X240864700Y-83221900D02*
X240864700Y-84030000D01*
%TO.N,/sclk*%
X238324700Y-86570000D02*
X208110000Y-86570000D01*
X208110000Y-86570000D02*
X196310000Y-74770000D01*
X239500000Y-86570000D02*
X238324700Y-86570000D01*
%TO.N,/spi_ce0*%
X242040000Y-86570000D02*
X240864700Y-86570000D01*
X196310000Y-72230000D02*
X196310000Y-73405300D01*
X196310000Y-73405300D02*
X196677400Y-73405300D01*
X196677400Y-73405300D02*
X197485300Y-74213200D01*
X197485300Y-74213200D02*
X197485300Y-75070500D01*
X197485300Y-75070500D02*
X207809500Y-85394700D01*
X207809500Y-85394700D02*
X240056800Y-85394700D01*
X240056800Y-85394700D02*
X240864700Y-86202600D01*
X240864700Y-86202600D02*
X240864700Y-86570000D01*
%TO.N,/spi_ce1*%
X198850000Y-72230000D02*
X198850000Y-73405300D01*
X198850000Y-73405300D02*
X199217400Y-73405300D01*
X199217400Y-73405300D02*
X200025300Y-74213200D01*
X200025300Y-74213200D02*
X200025300Y-75069700D01*
X200025300Y-75069700D02*
X208650300Y-83694700D01*
X208650300Y-83694700D02*
X228341900Y-83694700D01*
%TO.N,/sda*%
X239500000Y-91650000D02*
X238324700Y-91650000D01*
X226385500Y-91074800D02*
X237749500Y-91074800D01*
X237749500Y-91074800D02*
X238324700Y-91650000D01*
%TO.N,/scl*%
X242040000Y-91650000D02*
X240864700Y-91650000D01*
X201390000Y-72230000D02*
X200214700Y-72230000D01*
X200214700Y-72230000D02*
X200214700Y-71862700D01*
X200214700Y-71862700D02*
X199389500Y-71037500D01*
X199389500Y-71037500D02*
X195817300Y-71037500D01*
X195817300Y-71037500D02*
X195129900Y-71724900D01*
X195129900Y-71724900D02*
X195129900Y-75265800D01*
X195129900Y-75265800D02*
X207007000Y-87142900D01*
X207007000Y-87142900D02*
X223479500Y-87142900D01*
X223479500Y-87142900D02*
X226811300Y-90474700D01*
X226811300Y-90474700D02*
X240056800Y-90474700D01*
X240056800Y-90474700D02*
X240864700Y-91282600D01*
X240864700Y-91282600D02*
X240864700Y-91650000D01*
%TO.N,/gpio5*%
X209010000Y-74770000D02*
X210185300Y-74770000D01*
X210185300Y-74770000D02*
X210185300Y-75137300D01*
X210185300Y-75137300D02*
X216348600Y-81300600D01*
X216348600Y-81300600D02*
X220659200Y-81300600D01*
%TO.N,/sclk2*%
X242040000Y-106890000D02*
X242040000Y-105714700D01*
X216630000Y-72230000D02*
X216630000Y-73405300D01*
X216630000Y-73405300D02*
X217040300Y-73405300D01*
X217040300Y-73405300D02*
X217805300Y-74170300D01*
X217805300Y-74170300D02*
X217805300Y-74425500D01*
X217805300Y-74425500D02*
X225132000Y-81752200D01*
X225132000Y-81752200D02*
X241503400Y-81752200D01*
X241503400Y-81752200D02*
X243215300Y-83464100D01*
X243215300Y-83464100D02*
X243215300Y-104906800D01*
X243215300Y-104906800D02*
X242407400Y-105714700D01*
X242407400Y-105714700D02*
X242040000Y-105714700D01*
%TO.N,/gpio2*%
X219928400Y-88309500D02*
X225808900Y-94190000D01*
X225808900Y-94190000D02*
X239500000Y-94190000D01*
%TO.N,/gpio3*%
X206470000Y-74770000D02*
X207645300Y-74770000D01*
X207645300Y-74770000D02*
X207645300Y-75137300D01*
X207645300Y-75137300D02*
X214541600Y-82033600D01*
X214541600Y-82033600D02*
X223485300Y-82033600D01*
X223485300Y-82033600D02*
X223690800Y-81828100D01*
%TD*%
D15*
%TO.N,/gnd*%
X238433000Y-73760000D02*
X238434276Y-73777961D01*
X238454276Y-73917961D01*
X238455049Y-73922718D01*
X238474613Y-74030320D01*
X238484276Y-74097961D01*
X238486024Y-74107550D01*
X238505287Y-74194235D01*
X238524728Y-74310879D01*
X238531465Y-74335590D01*
X238580428Y-74462893D01*
X238619517Y-74580161D01*
X238622083Y-74587167D01*
X238662083Y-74687167D01*
X238663269Y-74690028D01*
X238723269Y-74830028D01*
X238729439Y-74842491D01*
X238859439Y-75072491D01*
X238863170Y-75078676D01*
X238953170Y-75218676D01*
X238955958Y-75222830D01*
X239024054Y-75320110D01*
X239072304Y-75397310D01*
X239080830Y-75409336D01*
X239120830Y-75459336D01*
X239126381Y-75465817D01*
X239236381Y-75585817D01*
X239240197Y-75589803D01*
X239360197Y-75709803D01*
X239367349Y-75716426D01*
X239433646Y-75773252D01*
X239490197Y-75829803D01*
X239498697Y-75837564D01*
X239558697Y-75887564D01*
X239565302Y-75892709D01*
X239674532Y-75972149D01*
X239793800Y-76061600D01*
X239807737Y-76070690D01*
X239967737Y-76160690D01*
X239968323Y-76161018D01*
X240148323Y-76261018D01*
X240161154Y-76267231D01*
X240281154Y-76317231D01*
X240286095Y-76319170D01*
X240476095Y-76389170D01*
X240479839Y-76390483D01*
X240629839Y-76440483D01*
X240637679Y-76442818D01*
X240827679Y-76492818D01*
X240831443Y-76493748D01*
X240961443Y-76523748D01*
X240974248Y-76526019D01*
X241214248Y-76556019D01*
X241222078Y-76556753D01*
X241382078Y-76566753D01*
X241390000Y-76567000D01*
X241509717Y-76567000D01*
X244340000Y-76573304D01*
X244340001Y-119413000D01*
X241230000Y-119413000D01*
X241212039Y-119414276D01*
X241072039Y-119434276D01*
X241067282Y-119435049D01*
X240959680Y-119454613D01*
X240892039Y-119464276D01*
X240882450Y-119466024D01*
X240795765Y-119485287D01*
X240679121Y-119504728D01*
X240654410Y-119511465D01*
X240527107Y-119560428D01*
X240409839Y-119599517D01*
X240402833Y-119602083D01*
X240302833Y-119642083D01*
X240299972Y-119643269D01*
X240159972Y-119703269D01*
X240147509Y-119709439D01*
X239917509Y-119839439D01*
X239911324Y-119843170D01*
X239771324Y-119933170D01*
X239767170Y-119935958D01*
X239669890Y-120004054D01*
X239592690Y-120052304D01*
X239580664Y-120060830D01*
X239530664Y-120100830D01*
X239524183Y-120106381D01*
X239404183Y-120216381D01*
X239400197Y-120220197D01*
X239280197Y-120340197D01*
X239273574Y-120347349D01*
X239216748Y-120413646D01*
X239160197Y-120470197D01*
X239152436Y-120478697D01*
X239102436Y-120538697D01*
X239097291Y-120545302D01*
X239017851Y-120654532D01*
X238928400Y-120773800D01*
X238919310Y-120787737D01*
X238829310Y-120947737D01*
X238828982Y-120948323D01*
X238728982Y-121128323D01*
X238722769Y-121141154D01*
X238672769Y-121261154D01*
X238670830Y-121266095D01*
X238600830Y-121456095D01*
X238599517Y-121459839D01*
X238549517Y-121609839D01*
X238547182Y-121617679D01*
X238497182Y-121807679D01*
X238496252Y-121811443D01*
X238466252Y-121941443D01*
X238463981Y-121954248D01*
X238433981Y-122194248D01*
X238433247Y-122202078D01*
X238423247Y-122362078D01*
X238423000Y-122370000D01*
X238423000Y-122489717D01*
X238416652Y-125340000D01*
X222753702Y-125340000D01*
X222951580Y-125252054D01*
X222956796Y-125249592D01*
X223156796Y-125149592D01*
X223170447Y-125141670D01*
X223395447Y-124991670D01*
X223401200Y-124987600D01*
X223501200Y-124912600D01*
X223514803Y-124900803D01*
X223789803Y-124625803D01*
X223797564Y-124617303D01*
X224047564Y-124317303D01*
X224055670Y-124306447D01*
X224205670Y-124081447D01*
X224210267Y-124074010D01*
X224310267Y-123899010D01*
X224316731Y-123886028D01*
X224391731Y-123711028D01*
X224395483Y-123701161D01*
X224444739Y-123553393D01*
X224518914Y-123355593D01*
X224524181Y-123337610D01*
X224599181Y-122987610D01*
X224601223Y-122975025D01*
X224626223Y-122750025D01*
X224627000Y-122736000D01*
X224627000Y-122361000D01*
X224626370Y-122348363D01*
X224601370Y-122098363D01*
X224600272Y-122090121D01*
X224575272Y-121940121D01*
X224572525Y-121927584D01*
X224497525Y-121652584D01*
X224494601Y-121643285D01*
X224369601Y-121293285D01*
X224366731Y-121285972D01*
X224291731Y-121110972D01*
X224283902Y-121095659D01*
X224133902Y-120845659D01*
X224128344Y-120837183D01*
X224003344Y-120662183D01*
X223997564Y-120654697D01*
X223872564Y-120504697D01*
X223870577Y-120502370D01*
X223695577Y-120302370D01*
X223683630Y-120290423D01*
X223483630Y-120115423D01*
X223471715Y-120106186D01*
X222996715Y-119781186D01*
X222976580Y-119769946D01*
X222751580Y-119669946D01*
X222744593Y-119667086D01*
X222544593Y-119592086D01*
X222530802Y-119587792D01*
X222230802Y-119512792D01*
X222224907Y-119511466D01*
X221974907Y-119461466D01*
X221962637Y-119459630D01*
X221712637Y-119434630D01*
X221700000Y-119434000D01*
X221350000Y-119434000D01*
X221332039Y-119435276D01*
X220982039Y-119485276D01*
X220969198Y-119487792D01*
X220769198Y-119537792D01*
X220759839Y-119540517D01*
X220609839Y-119590517D01*
X220605407Y-119592086D01*
X220205407Y-119742086D01*
X220186990Y-119750733D01*
X220011990Y-119850733D01*
X220004553Y-119855330D01*
X219704553Y-120055330D01*
X219695664Y-120061830D01*
X219570664Y-120161830D01*
X219560197Y-120171197D01*
X219285197Y-120446197D01*
X219275830Y-120456664D01*
X219075830Y-120706664D01*
X219070582Y-120713710D01*
X218845582Y-121038710D01*
X218836408Y-121054204D01*
X218786408Y-121154204D01*
X218782083Y-121163833D01*
X218732083Y-121288833D01*
X218731086Y-121291407D01*
X218656575Y-121490103D01*
X218607083Y-121613833D01*
X218601792Y-121630198D01*
X218576792Y-121730198D01*
X218576024Y-121733450D01*
X218526024Y-121958450D01*
X218524276Y-121968039D01*
X218499276Y-122143039D01*
X218498000Y-122161000D01*
X218498000Y-122886000D01*
X218500466Y-122910907D01*
X218575466Y-123285907D01*
X218577886Y-123295890D01*
X218627886Y-123470890D01*
X218632083Y-123483167D01*
X218681575Y-123606897D01*
X218756086Y-123805593D01*
X218766098Y-123826341D01*
X218838593Y-123947166D01*
X218886408Y-124042796D01*
X218891098Y-124051341D01*
X218966098Y-124176341D01*
X218973400Y-124187200D01*
X219048400Y-124287200D01*
X219053050Y-124293035D01*
X219328050Y-124618035D01*
X219335197Y-124625803D01*
X219585197Y-124875803D01*
X219593697Y-124883564D01*
X219743697Y-125008564D01*
X219758440Y-125019161D01*
X220083440Y-125219161D01*
X220093204Y-125224592D01*
X220324020Y-125340000D01*
X166577000Y-125340000D01*
X166577000Y-122230000D01*
X166575724Y-122212039D01*
X166555724Y-122072039D01*
X166554951Y-122067282D01*
X166535387Y-121959680D01*
X166525724Y-121892039D01*
X166523976Y-121882450D01*
X166504713Y-121795765D01*
X166485272Y-121679121D01*
X166478535Y-121654410D01*
X166429573Y-121527108D01*
X166390483Y-121409839D01*
X166387917Y-121402833D01*
X166347917Y-121302833D01*
X166346731Y-121299972D01*
X166286731Y-121159972D01*
X166280561Y-121147509D01*
X166150561Y-120917509D01*
X166146830Y-120911324D01*
X166056830Y-120771324D01*
X166054042Y-120767170D01*
X165985946Y-120669890D01*
X165937696Y-120592690D01*
X165929170Y-120580664D01*
X165909413Y-120555967D01*
X179511000Y-120555967D01*
X179511000Y-120878033D01*
X179573832Y-121193912D01*
X179697082Y-121491463D01*
X179876013Y-121759252D01*
X180103748Y-121986987D01*
X180371537Y-122165918D01*
X180669088Y-122289168D01*
X180984967Y-122352000D01*
X181307033Y-122352000D01*
X181622912Y-122289168D01*
X181920463Y-122165918D01*
X182188252Y-121986987D01*
X182322826Y-121852413D01*
X183690192Y-121852413D01*
X183785956Y-122116814D01*
X184075571Y-122257704D01*
X184387108Y-122339384D01*
X184708595Y-122358718D01*
X185027675Y-122314961D01*
X185332088Y-122209795D01*
X185506044Y-122116814D01*
X185601808Y-121852413D01*
X184646000Y-120896605D01*
X183690192Y-121852413D01*
X182322826Y-121852413D01*
X182415987Y-121759252D01*
X182594918Y-121491463D01*
X182718168Y-121193912D01*
X182781000Y-120878033D01*
X182781000Y-120555967D01*
X182718168Y-120240088D01*
X182712177Y-120225625D01*
X182837802Y-120100000D01*
X183127952Y-120100000D01*
X183105296Y-120146571D01*
X183023616Y-120458108D01*
X183004282Y-120779595D01*
X183048039Y-121098675D01*
X183153205Y-121403088D01*
X183246186Y-121577044D01*
X183510587Y-121672808D01*
X184466395Y-120717000D01*
X184452253Y-120702858D01*
X184631858Y-120523253D01*
X184646000Y-120537395D01*
X184660143Y-120523253D01*
X184839748Y-120702858D01*
X184825605Y-120717000D01*
X185781413Y-121672808D01*
X186045814Y-121577044D01*
X186186704Y-121287429D01*
X186268384Y-120975892D01*
X186287718Y-120654405D01*
X186243961Y-120335325D01*
X186162663Y-120100000D01*
X186631859Y-120100000D01*
X186573832Y-120240088D01*
X186511000Y-120555967D01*
X186511000Y-120878033D01*
X186573832Y-121193912D01*
X186697082Y-121491463D01*
X186876013Y-121759252D01*
X187103748Y-121986987D01*
X187371537Y-122165918D01*
X187669088Y-122289168D01*
X187984967Y-122352000D01*
X188307033Y-122352000D01*
X188622912Y-122289168D01*
X188637375Y-122283177D01*
X188907601Y-122553403D01*
X188931399Y-122582401D01*
X189047124Y-122677374D01*
X189179153Y-122747946D01*
X189322414Y-122791403D01*
X189434067Y-122802400D01*
X189434075Y-122802400D01*
X189471400Y-122806076D01*
X189508725Y-122802400D01*
X197403278Y-122802400D01*
X197440600Y-122806076D01*
X197477922Y-122802400D01*
X197477933Y-122802400D01*
X197589586Y-122791403D01*
X197732847Y-122747946D01*
X197864876Y-122677374D01*
X197980601Y-122582401D01*
X198004404Y-122553397D01*
X198274624Y-122283177D01*
X198289088Y-122289168D01*
X198604967Y-122352000D01*
X198927033Y-122352000D01*
X199242912Y-122289168D01*
X199257375Y-122283177D01*
X199582401Y-122608203D01*
X199606199Y-122637201D01*
X199635197Y-122660999D01*
X199721924Y-122732174D01*
X199853953Y-122802746D01*
X199997214Y-122846203D01*
X200146200Y-122860877D01*
X200183533Y-122857200D01*
X204348478Y-122857200D01*
X204385800Y-122860876D01*
X204423122Y-122857200D01*
X204423133Y-122857200D01*
X204534786Y-122846203D01*
X204678047Y-122802746D01*
X204810076Y-122732174D01*
X204925801Y-122637201D01*
X204949604Y-122608197D01*
X205274624Y-122283177D01*
X205289088Y-122289168D01*
X205604967Y-122352000D01*
X205927033Y-122352000D01*
X206242912Y-122289168D01*
X206540463Y-122165918D01*
X206808252Y-121986987D01*
X206942826Y-121852413D01*
X208310192Y-121852413D01*
X208405956Y-122116814D01*
X208695571Y-122257704D01*
X209007108Y-122339384D01*
X209328595Y-122358718D01*
X209647675Y-122314961D01*
X209952088Y-122209795D01*
X210126044Y-122116814D01*
X210221808Y-121852413D01*
X209266000Y-120896605D01*
X208310192Y-121852413D01*
X206942826Y-121852413D01*
X207035987Y-121759252D01*
X207214918Y-121491463D01*
X207338168Y-121193912D01*
X207401000Y-120878033D01*
X207401000Y-120779595D01*
X207624282Y-120779595D01*
X207668039Y-121098675D01*
X207773205Y-121403088D01*
X207866186Y-121577044D01*
X208130587Y-121672808D01*
X209086395Y-120717000D01*
X209445605Y-120717000D01*
X210401413Y-121672808D01*
X210665814Y-121577044D01*
X210806704Y-121287429D01*
X210888384Y-120975892D01*
X210907718Y-120654405D01*
X210863961Y-120335325D01*
X210758795Y-120030912D01*
X210665814Y-119856956D01*
X210401413Y-119761192D01*
X209445605Y-120717000D01*
X209086395Y-120717000D01*
X208130587Y-119761192D01*
X207866186Y-119856956D01*
X207725296Y-120146571D01*
X207643616Y-120458108D01*
X207624282Y-120779595D01*
X207401000Y-120779595D01*
X207401000Y-120555967D01*
X207338168Y-120240088D01*
X207214918Y-119942537D01*
X207035987Y-119674748D01*
X206942826Y-119581587D01*
X208310192Y-119581587D01*
X209266000Y-120537395D01*
X210221808Y-119581587D01*
X210126044Y-119317186D01*
X209836429Y-119176296D01*
X209524892Y-119094616D01*
X209203405Y-119075282D01*
X208884325Y-119119039D01*
X208579912Y-119224205D01*
X208405956Y-119317186D01*
X208310192Y-119581587D01*
X206942826Y-119581587D01*
X206808252Y-119447013D01*
X206540463Y-119268082D01*
X206242912Y-119144832D01*
X205927033Y-119082000D01*
X205604967Y-119082000D01*
X205289088Y-119144832D01*
X204991537Y-119268082D01*
X204723748Y-119447013D01*
X204496013Y-119674748D01*
X204317082Y-119942537D01*
X204193832Y-120240088D01*
X204131000Y-120555967D01*
X204131000Y-120878033D01*
X204193832Y-121193912D01*
X204199823Y-121208376D01*
X204070999Y-121337200D01*
X203782492Y-121337200D01*
X203806704Y-121287429D01*
X203888384Y-120975892D01*
X203907718Y-120654405D01*
X203863961Y-120335325D01*
X203758795Y-120030912D01*
X203665814Y-119856956D01*
X203401413Y-119761192D01*
X202445605Y-120717000D01*
X202459748Y-120731143D01*
X202280143Y-120910748D01*
X202266000Y-120896605D01*
X202251858Y-120910748D01*
X202072253Y-120731143D01*
X202086395Y-120717000D01*
X201130587Y-119761192D01*
X200866186Y-119856956D01*
X200725296Y-120146571D01*
X200643616Y-120458108D01*
X200624282Y-120779595D01*
X200668039Y-121098675D01*
X200750443Y-121337200D01*
X200461002Y-121337200D01*
X200332177Y-121208375D01*
X200338168Y-121193912D01*
X200401000Y-120878033D01*
X200401000Y-120555967D01*
X200338168Y-120240088D01*
X200214918Y-119942537D01*
X200035987Y-119674748D01*
X199942826Y-119581587D01*
X201310192Y-119581587D01*
X202266000Y-120537395D01*
X203221808Y-119581587D01*
X203126044Y-119317186D01*
X202836429Y-119176296D01*
X202524892Y-119094616D01*
X202203405Y-119075282D01*
X201884325Y-119119039D01*
X201579912Y-119224205D01*
X201405956Y-119317186D01*
X201310192Y-119581587D01*
X199942826Y-119581587D01*
X199808252Y-119447013D01*
X199540463Y-119268082D01*
X199242912Y-119144832D01*
X198927033Y-119082000D01*
X198604967Y-119082000D01*
X198289088Y-119144832D01*
X197991537Y-119268082D01*
X197723748Y-119447013D01*
X197496013Y-119674748D01*
X197317082Y-119942537D01*
X197193832Y-120240088D01*
X197131000Y-120555967D01*
X197131000Y-120878033D01*
X197193832Y-121193912D01*
X197199823Y-121208376D01*
X197125799Y-121282400D01*
X193188023Y-121282400D01*
X193268384Y-120975892D01*
X193287718Y-120654405D01*
X193243961Y-120335325D01*
X193138795Y-120030912D01*
X193045814Y-119856956D01*
X192781413Y-119761192D01*
X191825605Y-120717000D01*
X191839748Y-120731143D01*
X191660143Y-120910748D01*
X191646000Y-120896605D01*
X191631858Y-120910748D01*
X191452253Y-120731143D01*
X191466395Y-120717000D01*
X190510587Y-119761192D01*
X190246186Y-119856956D01*
X190105296Y-120146571D01*
X190023616Y-120458108D01*
X190004282Y-120779595D01*
X190048039Y-121098675D01*
X190111511Y-121282400D01*
X189786202Y-121282400D01*
X189712177Y-121208375D01*
X189718168Y-121193912D01*
X189781000Y-120878033D01*
X189781000Y-120555967D01*
X189718168Y-120240088D01*
X189594918Y-119942537D01*
X189415987Y-119674748D01*
X189322826Y-119581587D01*
X190690192Y-119581587D01*
X191646000Y-120537395D01*
X192601808Y-119581587D01*
X192506044Y-119317186D01*
X192216429Y-119176296D01*
X191904892Y-119094616D01*
X191583405Y-119075282D01*
X191264325Y-119119039D01*
X190959912Y-119224205D01*
X190785956Y-119317186D01*
X190690192Y-119581587D01*
X189322826Y-119581587D01*
X189188252Y-119447013D01*
X188920463Y-119268082D01*
X188906000Y-119262091D01*
X188906000Y-97650000D01*
X199448000Y-97650000D01*
X199448000Y-98375000D01*
X199450466Y-98399907D01*
X199525466Y-98774907D01*
X199527886Y-98784890D01*
X199577886Y-98959890D01*
X199582083Y-98972167D01*
X199631575Y-99095897D01*
X199706086Y-99294593D01*
X199716098Y-99315341D01*
X199788593Y-99436166D01*
X199836408Y-99531796D01*
X199841098Y-99540341D01*
X199916098Y-99665341D01*
X199923400Y-99676200D01*
X199998400Y-99776200D01*
X200003050Y-99782035D01*
X200278050Y-100107035D01*
X200285197Y-100114803D01*
X200535197Y-100364803D01*
X200543697Y-100372564D01*
X200693697Y-100497564D01*
X200708440Y-100508161D01*
X201033440Y-100708161D01*
X201043204Y-100713592D01*
X201293204Y-100838592D01*
X201309839Y-100845483D01*
X201609839Y-100945483D01*
X201615110Y-100947114D01*
X201790110Y-100997114D01*
X201800093Y-100999534D01*
X202050093Y-101049534D01*
X202068325Y-101051824D01*
X202543325Y-101076824D01*
X202559740Y-101076626D01*
X202884740Y-101051626D01*
X202894311Y-101050523D01*
X203219311Y-101000523D01*
X203240161Y-100995483D01*
X203390161Y-100945483D01*
X203393401Y-100944354D01*
X203668401Y-100844354D01*
X203676580Y-100841054D01*
X203901580Y-100741054D01*
X203906796Y-100738592D01*
X204106796Y-100638592D01*
X204120447Y-100630670D01*
X204345447Y-100480670D01*
X204351200Y-100476600D01*
X204451200Y-100401600D01*
X204464803Y-100389803D01*
X204739803Y-100114803D01*
X204747564Y-100106303D01*
X204997564Y-99806303D01*
X205005670Y-99795447D01*
X205155670Y-99570447D01*
X205160267Y-99563010D01*
X205260267Y-99388010D01*
X205266731Y-99375028D01*
X205341731Y-99200028D01*
X205345483Y-99190161D01*
X205394739Y-99042393D01*
X205468914Y-98844593D01*
X205474181Y-98826610D01*
X205549181Y-98476610D01*
X205551223Y-98464025D01*
X205576223Y-98239025D01*
X205577000Y-98225000D01*
X205577000Y-97850000D01*
X205576370Y-97837363D01*
X205551370Y-97587363D01*
X205550272Y-97579121D01*
X205525272Y-97429121D01*
X205522525Y-97416584D01*
X205447525Y-97141584D01*
X205444601Y-97132285D01*
X205319601Y-96782285D01*
X205316731Y-96774972D01*
X205241731Y-96599972D01*
X205233902Y-96584659D01*
X205083902Y-96334659D01*
X205078344Y-96326183D01*
X204953344Y-96151183D01*
X204947564Y-96143697D01*
X204822564Y-95993697D01*
X204820577Y-95991370D01*
X204645577Y-95791370D01*
X204633630Y-95779423D01*
X204433630Y-95604423D01*
X204421715Y-95595186D01*
X203946715Y-95270186D01*
X203926580Y-95258946D01*
X203701580Y-95158946D01*
X203694593Y-95156086D01*
X203494593Y-95081086D01*
X203480802Y-95076792D01*
X203180802Y-95001792D01*
X203174907Y-95000466D01*
X202924907Y-94950466D01*
X202912637Y-94948630D01*
X202662637Y-94923630D01*
X202650000Y-94923000D01*
X202300000Y-94923000D01*
X202282039Y-94924276D01*
X201932039Y-94974276D01*
X201919198Y-94976792D01*
X201719198Y-95026792D01*
X201709839Y-95029517D01*
X201559839Y-95079517D01*
X201555407Y-95081086D01*
X201155407Y-95231086D01*
X201136990Y-95239733D01*
X200961990Y-95339733D01*
X200954553Y-95344330D01*
X200654553Y-95544330D01*
X200645664Y-95550830D01*
X200520664Y-95650830D01*
X200510197Y-95660197D01*
X200235197Y-95935197D01*
X200225830Y-95945664D01*
X200025830Y-96195664D01*
X200020582Y-96202710D01*
X199795582Y-96527710D01*
X199786408Y-96543204D01*
X199736408Y-96643204D01*
X199732083Y-96652833D01*
X199682083Y-96777833D01*
X199681086Y-96780407D01*
X199606575Y-96979103D01*
X199557083Y-97102833D01*
X199551792Y-97119198D01*
X199526792Y-97219198D01*
X199526024Y-97222450D01*
X199476024Y-97447450D01*
X199474276Y-97457039D01*
X199449276Y-97632039D01*
X199448000Y-97650000D01*
X188906000Y-97650000D01*
X188906000Y-91251801D01*
X189636730Y-90521072D01*
X189875000Y-90521072D01*
X190038500Y-90504969D01*
X190195716Y-90457278D01*
X190340608Y-90379831D01*
X190467606Y-90275606D01*
X190500000Y-90236134D01*
X190532394Y-90275606D01*
X190659392Y-90379831D01*
X190804284Y-90457278D01*
X190961500Y-90504969D01*
X191125000Y-90521072D01*
X191525000Y-90521072D01*
X191688500Y-90504969D01*
X191845716Y-90457278D01*
X191990608Y-90379831D01*
X192117606Y-90275606D01*
X192205916Y-90168000D01*
X201994199Y-90168000D01*
X233567126Y-121740928D01*
X232980000Y-121740928D01*
X232806746Y-121757992D01*
X232640150Y-121808528D01*
X232486614Y-121890595D01*
X232352038Y-122001038D01*
X232241595Y-122135614D01*
X232159528Y-122289150D01*
X232108992Y-122455746D01*
X232091928Y-122629000D01*
X232091928Y-123879000D01*
X232108992Y-124052254D01*
X232159528Y-124218850D01*
X232241595Y-124372386D01*
X232352038Y-124506962D01*
X232486614Y-124617405D01*
X232640150Y-124699472D01*
X232806746Y-124750008D01*
X232980000Y-124767072D01*
X233730000Y-124767072D01*
X233903254Y-124750008D01*
X234069850Y-124699472D01*
X234223386Y-124617405D01*
X234357962Y-124506962D01*
X234468405Y-124372386D01*
X234550472Y-124218850D01*
X234601008Y-124052254D01*
X234618072Y-123879000D01*
X234618072Y-122791874D01*
X234891928Y-123065730D01*
X234891928Y-123879000D01*
X234908992Y-124052254D01*
X234959528Y-124218850D01*
X235041595Y-124372386D01*
X235152038Y-124506962D01*
X235286614Y-124617405D01*
X235440150Y-124699472D01*
X235606746Y-124750008D01*
X235780000Y-124767072D01*
X236530000Y-124767072D01*
X236703254Y-124750008D01*
X236869850Y-124699472D01*
X237023386Y-124617405D01*
X237157962Y-124506962D01*
X237268405Y-124372386D01*
X237350472Y-124218850D01*
X237401008Y-124052254D01*
X237418072Y-123879000D01*
X237418072Y-122629000D01*
X237401008Y-122455746D01*
X237350472Y-122289150D01*
X237268405Y-122135614D01*
X237157962Y-122001038D01*
X237023386Y-121890595D01*
X236869850Y-121808528D01*
X236703254Y-121757992D01*
X236530000Y-121740928D01*
X235780000Y-121740928D01*
X235722403Y-121746601D01*
X202872804Y-88897003D01*
X202849001Y-88867999D01*
X202733276Y-88773026D01*
X202601247Y-88702454D01*
X202457986Y-88658997D01*
X202346333Y-88648000D01*
X202346322Y-88648000D01*
X202309000Y-88644324D01*
X202271678Y-88648000D01*
X192205916Y-88648000D01*
X192117606Y-88540394D01*
X191990608Y-88436169D01*
X191845716Y-88358722D01*
X191688500Y-88311031D01*
X191525000Y-88294928D01*
X191125000Y-88294928D01*
X190961500Y-88311031D01*
X190804284Y-88358722D01*
X190659392Y-88436169D01*
X190532394Y-88540394D01*
X190500000Y-88579866D01*
X190467606Y-88540394D01*
X190340608Y-88436169D01*
X190195716Y-88358722D01*
X190038500Y-88311031D01*
X189875000Y-88294928D01*
X189475000Y-88294928D01*
X189311500Y-88311031D01*
X189154284Y-88358722D01*
X189009392Y-88436169D01*
X188882394Y-88540394D01*
X188778169Y-88667392D01*
X188700722Y-88812284D01*
X188653031Y-88969500D01*
X188636928Y-89133000D01*
X188636928Y-89371270D01*
X187635003Y-90373196D01*
X187605999Y-90396999D01*
X187559091Y-90454157D01*
X187511026Y-90512724D01*
X187499227Y-90534799D01*
X187440454Y-90644754D01*
X187396997Y-90788015D01*
X187386000Y-90899668D01*
X187386000Y-90899678D01*
X187382324Y-90937000D01*
X187386000Y-90974322D01*
X187386001Y-118580000D01*
X182560322Y-118580000D01*
X182522999Y-118576324D01*
X182485676Y-118580000D01*
X182485667Y-118580000D01*
X182374014Y-118590997D01*
X182230753Y-118634454D01*
X182098723Y-118705026D01*
X182015083Y-118773668D01*
X181982999Y-118799999D01*
X181959201Y-118828997D01*
X181637375Y-119150823D01*
X181622912Y-119144832D01*
X181307033Y-119082000D01*
X180984967Y-119082000D01*
X180669088Y-119144832D01*
X180371537Y-119268082D01*
X180103748Y-119447013D01*
X179876013Y-119674748D01*
X179697082Y-119942537D01*
X179573832Y-120240088D01*
X179511000Y-120555967D01*
X165909413Y-120555967D01*
X165889170Y-120530664D01*
X165883619Y-120524183D01*
X165773619Y-120404183D01*
X165769803Y-120400197D01*
X165649803Y-120280197D01*
X165642651Y-120273574D01*
X165576354Y-120216748D01*
X165519803Y-120160197D01*
X165511303Y-120152436D01*
X165451303Y-120102436D01*
X165444698Y-120097291D01*
X165335468Y-120017851D01*
X165216200Y-119928400D01*
X165202263Y-119919310D01*
X165042263Y-119829310D01*
X165041677Y-119828982D01*
X164861677Y-119728982D01*
X164848846Y-119722769D01*
X164728846Y-119672769D01*
X164723905Y-119670830D01*
X164533905Y-119600830D01*
X164530161Y-119599517D01*
X164380161Y-119549517D01*
X164372321Y-119547182D01*
X164182321Y-119497182D01*
X164178557Y-119496252D01*
X164048557Y-119466252D01*
X164035752Y-119463981D01*
X163795752Y-119433981D01*
X163787922Y-119433247D01*
X163627922Y-119423247D01*
X163620000Y-119423000D01*
X163500283Y-119423000D01*
X160660000Y-119416674D01*
X160660000Y-76577000D01*
X163760000Y-76577000D01*
X163777961Y-76575724D01*
X163917961Y-76555724D01*
X163922718Y-76554951D01*
X164030320Y-76535387D01*
X164097961Y-76525724D01*
X164107550Y-76523976D01*
X164194235Y-76504713D01*
X164310879Y-76485272D01*
X164335590Y-76478535D01*
X164462892Y-76429573D01*
X164580161Y-76390483D01*
X164587167Y-76387917D01*
X164687167Y-76347917D01*
X164690028Y-76346731D01*
X164830028Y-76286731D01*
X164842491Y-76280561D01*
X165072491Y-76150561D01*
X165078676Y-76146830D01*
X165218676Y-76056830D01*
X165222830Y-76054042D01*
X165320110Y-75985946D01*
X165397310Y-75937696D01*
X165409336Y-75929170D01*
X165459336Y-75889170D01*
X165465817Y-75883619D01*
X165585817Y-75773619D01*
X165589803Y-75769803D01*
X165709803Y-75649803D01*
X165716426Y-75642651D01*
X165773252Y-75576354D01*
X165829803Y-75519803D01*
X165837564Y-75511303D01*
X165887564Y-75451303D01*
X165892709Y-75444698D01*
X165972149Y-75335468D01*
X166061600Y-75216200D01*
X166070690Y-75202263D01*
X166160690Y-75042263D01*
X166161018Y-75041677D01*
X166261018Y-74861677D01*
X166267231Y-74848846D01*
X166317231Y-74728846D01*
X166319170Y-74723905D01*
X166389170Y-74533905D01*
X166390483Y-74530161D01*
X166431600Y-74406809D01*
X166431601Y-76980696D01*
X161310703Y-82101596D01*
X161281699Y-82125399D01*
X161257162Y-82155298D01*
X161186726Y-82241124D01*
X161141441Y-82325846D01*
X161116154Y-82373154D01*
X161072697Y-82516415D01*
X161061700Y-82628068D01*
X161061700Y-82628078D01*
X161058024Y-82665400D01*
X161061700Y-82702722D01*
X161061701Y-92137168D01*
X161058024Y-92174500D01*
X161061701Y-92211833D01*
X161072698Y-92323486D01*
X161082423Y-92355546D01*
X161116154Y-92466746D01*
X161186726Y-92598776D01*
X161257901Y-92685502D01*
X161281700Y-92714501D01*
X161310698Y-92738299D01*
X161834205Y-93261806D01*
X161684010Y-93486589D01*
X161572068Y-93756842D01*
X161515000Y-94043740D01*
X161515000Y-94336260D01*
X161572068Y-94623158D01*
X161684010Y-94893411D01*
X161846525Y-95136632D01*
X162053368Y-95343475D01*
X162235534Y-95465195D01*
X162118645Y-95534822D01*
X161902412Y-95729731D01*
X161728359Y-95963080D01*
X161603175Y-96225901D01*
X161558524Y-96373110D01*
X161679845Y-96603000D01*
X162873000Y-96603000D01*
X162873000Y-96583000D01*
X163127000Y-96583000D01*
X163127000Y-96603000D01*
X163147000Y-96603000D01*
X163147000Y-96857000D01*
X163127000Y-96857000D01*
X163127000Y-96877000D01*
X162873000Y-96877000D01*
X162873000Y-96857000D01*
X161679845Y-96857000D01*
X161558524Y-97086890D01*
X161603175Y-97234099D01*
X161728359Y-97496920D01*
X161902412Y-97730269D01*
X162118645Y-97925178D01*
X162235534Y-97994805D01*
X162053368Y-98116525D01*
X161846525Y-98323368D01*
X161684010Y-98566589D01*
X161572068Y-98836842D01*
X161515000Y-99123740D01*
X161515000Y-99416260D01*
X161572068Y-99703158D01*
X161684010Y-99973411D01*
X161846525Y-100216632D01*
X162053368Y-100423475D01*
X162227760Y-100540000D01*
X162053368Y-100656525D01*
X161846525Y-100863368D01*
X161684010Y-101106589D01*
X161572068Y-101376842D01*
X161515000Y-101663740D01*
X161515000Y-101956260D01*
X161572068Y-102243158D01*
X161684010Y-102513411D01*
X161846525Y-102756632D01*
X162053368Y-102963475D01*
X162227760Y-103080000D01*
X162053368Y-103196525D01*
X161846525Y-103403368D01*
X161684010Y-103646589D01*
X161572068Y-103916842D01*
X161515000Y-104203740D01*
X161515000Y-104496260D01*
X161572068Y-104783158D01*
X161684010Y-105053411D01*
X161846525Y-105296632D01*
X162053368Y-105503475D01*
X162227760Y-105620000D01*
X162053368Y-105736525D01*
X161846525Y-105943368D01*
X161684010Y-106186589D01*
X161572068Y-106456842D01*
X161515000Y-106743740D01*
X161515000Y-107036260D01*
X161572068Y-107323158D01*
X161684010Y-107593411D01*
X161846525Y-107836632D01*
X162053368Y-108043475D01*
X162227760Y-108160000D01*
X162053368Y-108276525D01*
X161846525Y-108483368D01*
X161684010Y-108726589D01*
X161572068Y-108996842D01*
X161515000Y-109283740D01*
X161515000Y-109576260D01*
X161572068Y-109863158D01*
X161684010Y-110133411D01*
X161846525Y-110376632D01*
X162053368Y-110583475D01*
X162296589Y-110745990D01*
X162566842Y-110857932D01*
X162853740Y-110915000D01*
X163146260Y-110915000D01*
X163433158Y-110857932D01*
X163703411Y-110745990D01*
X163946632Y-110583475D01*
X164153475Y-110376632D01*
X164271100Y-110200594D01*
X164442412Y-110430269D01*
X164658645Y-110625178D01*
X164908748Y-110774157D01*
X165183109Y-110871481D01*
X165413000Y-110750814D01*
X165413000Y-109557000D01*
X165667000Y-109557000D01*
X165667000Y-110750814D01*
X165896891Y-110871481D01*
X166171252Y-110774157D01*
X166421355Y-110625178D01*
X166637588Y-110430269D01*
X166811641Y-110196920D01*
X166936825Y-109934099D01*
X166981476Y-109786890D01*
X166860155Y-109557000D01*
X165667000Y-109557000D01*
X165413000Y-109557000D01*
X165393000Y-109557000D01*
X165393000Y-109303000D01*
X165413000Y-109303000D01*
X165413000Y-109283000D01*
X165667000Y-109283000D01*
X165667000Y-109303000D01*
X166860155Y-109303000D01*
X166981476Y-109073110D01*
X166936825Y-108925901D01*
X166811641Y-108663080D01*
X166698161Y-108510940D01*
X191741008Y-83468095D01*
X191770001Y-83444301D01*
X191793795Y-83415308D01*
X191793799Y-83415304D01*
X191864973Y-83328577D01*
X191872169Y-83315115D01*
X191935546Y-83196547D01*
X191979003Y-83053286D01*
X191990000Y-82941633D01*
X191990000Y-82941624D01*
X191993676Y-82904301D01*
X191990000Y-82866978D01*
X191990000Y-76048178D01*
X192176632Y-75923475D01*
X192383475Y-75716632D01*
X192500000Y-75542240D01*
X192616525Y-75716632D01*
X192823368Y-75923475D01*
X193066589Y-76085990D01*
X193336842Y-76197932D01*
X193623740Y-76255000D01*
X193916260Y-76255000D01*
X194203158Y-76197932D01*
X194473411Y-76085990D01*
X194714319Y-75925020D01*
X206443200Y-87653902D01*
X206466999Y-87682901D01*
X206495997Y-87706699D01*
X206582723Y-87777874D01*
X206669024Y-87824003D01*
X206714753Y-87848446D01*
X206858014Y-87891903D01*
X206969667Y-87902900D01*
X206969677Y-87902900D01*
X207007000Y-87906576D01*
X207044323Y-87902900D01*
X218976543Y-87902900D01*
X218933174Y-88007602D01*
X218893400Y-88207561D01*
X218893400Y-88411439D01*
X218933174Y-88611398D01*
X219011195Y-88799756D01*
X219124463Y-88969274D01*
X219268626Y-89113437D01*
X219438144Y-89226705D01*
X219626502Y-89304726D01*
X219826461Y-89344500D01*
X219888599Y-89344500D01*
X225245101Y-94701003D01*
X225268899Y-94730001D01*
X225384624Y-94824974D01*
X225516653Y-94895546D01*
X225659914Y-94939003D01*
X225771567Y-94950000D01*
X225771577Y-94950000D01*
X225808900Y-94953676D01*
X225846223Y-94950000D01*
X238221822Y-94950000D01*
X238346525Y-95136632D01*
X238553368Y-95343475D01*
X238727760Y-95460000D01*
X238553368Y-95576525D01*
X238346525Y-95783368D01*
X238184010Y-96026589D01*
X238072068Y-96296842D01*
X238015000Y-96583740D01*
X238015000Y-96876260D01*
X238072068Y-97163158D01*
X238184010Y-97433411D01*
X238346525Y-97676632D01*
X238553368Y-97883475D01*
X238727760Y-98000000D01*
X238553368Y-98116525D01*
X238346525Y-98323368D01*
X238184010Y-98566589D01*
X238072068Y-98836842D01*
X238015000Y-99123740D01*
X238015000Y-99416260D01*
X238072068Y-99703158D01*
X238184010Y-99973411D01*
X238346525Y-100216632D01*
X238553368Y-100423475D01*
X238727760Y-100540000D01*
X238553368Y-100656525D01*
X238346525Y-100863368D01*
X238184010Y-101106589D01*
X238072068Y-101376842D01*
X238015000Y-101663740D01*
X238015000Y-101956260D01*
X238072068Y-102243158D01*
X238184010Y-102513411D01*
X238346525Y-102756632D01*
X238553368Y-102963475D01*
X238727760Y-103080000D01*
X238553368Y-103196525D01*
X238346525Y-103403368D01*
X238184010Y-103646589D01*
X238072068Y-103916842D01*
X238015000Y-104203740D01*
X238015000Y-104496260D01*
X238072068Y-104783158D01*
X238184010Y-105053411D01*
X238346525Y-105296632D01*
X238553368Y-105503475D01*
X238735534Y-105625195D01*
X238618645Y-105694822D01*
X238402412Y-105889731D01*
X238228359Y-106123080D01*
X238103175Y-106385901D01*
X238058524Y-106533110D01*
X238179845Y-106763000D01*
X239373000Y-106763000D01*
X239373000Y-106743000D01*
X239627000Y-106743000D01*
X239627000Y-106763000D01*
X239647000Y-106763000D01*
X239647000Y-107017000D01*
X239627000Y-107017000D01*
X239627000Y-107037000D01*
X239373000Y-107037000D01*
X239373000Y-107017000D01*
X238179845Y-107017000D01*
X238058524Y-107246890D01*
X238103175Y-107394099D01*
X238228359Y-107656920D01*
X238402412Y-107890269D01*
X238618645Y-108085178D01*
X238735534Y-108154805D01*
X238553368Y-108276525D01*
X238346525Y-108483368D01*
X238184010Y-108726589D01*
X238072068Y-108996842D01*
X238015000Y-109283740D01*
X238015000Y-109576260D01*
X238072068Y-109863158D01*
X238184010Y-110133411D01*
X238346525Y-110376632D01*
X238553368Y-110583475D01*
X238727760Y-110700000D01*
X238553368Y-110816525D01*
X238346525Y-111023368D01*
X238184010Y-111266589D01*
X238072068Y-111536842D01*
X238015000Y-111823740D01*
X238015000Y-112116260D01*
X238072068Y-112403158D01*
X238184010Y-112673411D01*
X238346525Y-112916632D01*
X238553368Y-113123475D01*
X238796589Y-113285990D01*
X239066842Y-113397932D01*
X239353740Y-113455000D01*
X239646260Y-113455000D01*
X239933158Y-113397932D01*
X240203411Y-113285990D01*
X240446632Y-113123475D01*
X240653475Y-112916632D01*
X240770000Y-112742240D01*
X240886525Y-112916632D01*
X241093368Y-113123475D01*
X241336589Y-113285990D01*
X241606842Y-113397932D01*
X241893740Y-113455000D01*
X242186260Y-113455000D01*
X242473158Y-113397932D01*
X242743411Y-113285990D01*
X242986632Y-113123475D01*
X243193475Y-112916632D01*
X243355990Y-112673411D01*
X243467932Y-112403158D01*
X243525000Y-112116260D01*
X243525000Y-111823740D01*
X243467932Y-111536842D01*
X243355990Y-111266589D01*
X243193475Y-111023368D01*
X242986632Y-110816525D01*
X242812240Y-110700000D01*
X242986632Y-110583475D01*
X243193475Y-110376632D01*
X243355990Y-110133411D01*
X243467932Y-109863158D01*
X243525000Y-109576260D01*
X243525000Y-109283740D01*
X243467932Y-108996842D01*
X243355990Y-108726589D01*
X243193475Y-108483368D01*
X242986632Y-108276525D01*
X242812240Y-108160000D01*
X242986632Y-108043475D01*
X243193475Y-107836632D01*
X243355990Y-107593411D01*
X243467932Y-107323158D01*
X243525000Y-107036260D01*
X243525000Y-106743740D01*
X243467932Y-106456842D01*
X243355990Y-106186589D01*
X243217531Y-105979370D01*
X243726302Y-105470599D01*
X243755301Y-105446801D01*
X243789606Y-105405000D01*
X243850274Y-105331077D01*
X243920846Y-105199047D01*
X243946742Y-105113677D01*
X243964303Y-105055786D01*
X243975300Y-104944133D01*
X243975300Y-104944124D01*
X243978976Y-104906801D01*
X243975300Y-104869478D01*
X243975300Y-83501422D01*
X243978976Y-83464099D01*
X243975300Y-83426776D01*
X243975300Y-83426767D01*
X243964303Y-83315114D01*
X243920846Y-83171853D01*
X243850274Y-83039824D01*
X243755301Y-82924099D01*
X243726304Y-82900302D01*
X242067204Y-81241203D01*
X242043401Y-81212199D01*
X241927676Y-81117226D01*
X241795647Y-81046654D01*
X241652386Y-81003197D01*
X241540733Y-80992200D01*
X241540722Y-80992200D01*
X241503400Y-80988524D01*
X241466078Y-80992200D01*
X225446802Y-80992200D01*
X220966396Y-76511795D01*
X221100093Y-76538534D01*
X221118325Y-76540824D01*
X221593325Y-76565824D01*
X221609740Y-76565626D01*
X221934740Y-76540626D01*
X221944311Y-76539523D01*
X222269311Y-76489523D01*
X222290161Y-76484483D01*
X222440161Y-76434483D01*
X222443401Y-76433354D01*
X222718401Y-76333354D01*
X222726580Y-76330054D01*
X222951580Y-76230054D01*
X222956796Y-76227592D01*
X223156796Y-76127592D01*
X223170447Y-76119670D01*
X223395447Y-75969670D01*
X223401200Y-75965600D01*
X223501200Y-75890600D01*
X223514803Y-75878803D01*
X223789803Y-75603803D01*
X223797564Y-75595303D01*
X224047564Y-75295303D01*
X224055670Y-75284447D01*
X224205670Y-75059447D01*
X224210267Y-75052010D01*
X224310267Y-74877010D01*
X224316731Y-74864028D01*
X224391731Y-74689028D01*
X224395483Y-74679161D01*
X224444739Y-74531393D01*
X224518914Y-74333593D01*
X224524181Y-74315610D01*
X224599181Y-73965610D01*
X224601223Y-73953025D01*
X224626223Y-73728025D01*
X224627000Y-73714000D01*
X224627000Y-73339000D01*
X224626370Y-73326363D01*
X224601370Y-73076363D01*
X224600272Y-73068121D01*
X224575272Y-72918121D01*
X224572525Y-72905584D01*
X224497525Y-72630584D01*
X224494601Y-72621285D01*
X224369601Y-72271285D01*
X224366731Y-72263972D01*
X224291731Y-72088972D01*
X224283902Y-72073659D01*
X224133902Y-71823659D01*
X224128344Y-71815183D01*
X224003344Y-71640183D01*
X223997564Y-71632697D01*
X223872564Y-71482697D01*
X223870577Y-71480370D01*
X223695577Y-71280370D01*
X223683630Y-71268423D01*
X223483630Y-71093423D01*
X223471715Y-71084186D01*
X222996715Y-70759186D01*
X222976580Y-70747946D01*
X222778701Y-70660000D01*
X238433000Y-70660000D01*
X238433000Y-73760000D01*
%TA.AperFunction,Conductor*%
D16*
G36*
X238433000Y-73760000D02*
G01*
X238434276Y-73777961D01*
X238454276Y-73917961D01*
X238455049Y-73922718D01*
X238474613Y-74030320D01*
X238484276Y-74097961D01*
X238486024Y-74107550D01*
X238505287Y-74194235D01*
X238524728Y-74310879D01*
X238531465Y-74335590D01*
X238580428Y-74462893D01*
X238619517Y-74580161D01*
X238622083Y-74587167D01*
X238662083Y-74687167D01*
X238663269Y-74690028D01*
X238723269Y-74830028D01*
X238729439Y-74842491D01*
X238859439Y-75072491D01*
X238863170Y-75078676D01*
X238953170Y-75218676D01*
X238955958Y-75222830D01*
X239024054Y-75320110D01*
X239072304Y-75397310D01*
X239080830Y-75409336D01*
X239120830Y-75459336D01*
X239126381Y-75465817D01*
X239236381Y-75585817D01*
X239240197Y-75589803D01*
X239360197Y-75709803D01*
X239367349Y-75716426D01*
X239433646Y-75773252D01*
X239490197Y-75829803D01*
X239498697Y-75837564D01*
X239558697Y-75887564D01*
X239565302Y-75892709D01*
X239674532Y-75972149D01*
X239793800Y-76061600D01*
X239807737Y-76070690D01*
X239967737Y-76160690D01*
X239968323Y-76161018D01*
X240148323Y-76261018D01*
X240161154Y-76267231D01*
X240281154Y-76317231D01*
X240286095Y-76319170D01*
X240476095Y-76389170D01*
X240479839Y-76390483D01*
X240629839Y-76440483D01*
X240637679Y-76442818D01*
X240827679Y-76492818D01*
X240831443Y-76493748D01*
X240961443Y-76523748D01*
X240974248Y-76526019D01*
X241214248Y-76556019D01*
X241222078Y-76556753D01*
X241382078Y-76566753D01*
X241390000Y-76567000D01*
X241509717Y-76567000D01*
X244340000Y-76573304D01*
X244340001Y-119413000D01*
X241230000Y-119413000D01*
X241212039Y-119414276D01*
X241072039Y-119434276D01*
X241067282Y-119435049D01*
X240959680Y-119454613D01*
X240892039Y-119464276D01*
X240882450Y-119466024D01*
X240795765Y-119485287D01*
X240679121Y-119504728D01*
X240654410Y-119511465D01*
X240527107Y-119560428D01*
X240409839Y-119599517D01*
X240402833Y-119602083D01*
X240302833Y-119642083D01*
X240299972Y-119643269D01*
X240159972Y-119703269D01*
X240147509Y-119709439D01*
X239917509Y-119839439D01*
X239911324Y-119843170D01*
X239771324Y-119933170D01*
X239767170Y-119935958D01*
X239669890Y-120004054D01*
X239592690Y-120052304D01*
X239580664Y-120060830D01*
X239530664Y-120100830D01*
X239524183Y-120106381D01*
X239404183Y-120216381D01*
X239400197Y-120220197D01*
X239280197Y-120340197D01*
X239273574Y-120347349D01*
X239216748Y-120413646D01*
X239160197Y-120470197D01*
X239152436Y-120478697D01*
X239102436Y-120538697D01*
X239097291Y-120545302D01*
X239017851Y-120654532D01*
X238928400Y-120773800D01*
X238919310Y-120787737D01*
X238829310Y-120947737D01*
X238828982Y-120948323D01*
X238728982Y-121128323D01*
X238722769Y-121141154D01*
X238672769Y-121261154D01*
X238670830Y-121266095D01*
X238600830Y-121456095D01*
X238599517Y-121459839D01*
X238549517Y-121609839D01*
X238547182Y-121617679D01*
X238497182Y-121807679D01*
X238496252Y-121811443D01*
X238466252Y-121941443D01*
X238463981Y-121954248D01*
X238433981Y-122194248D01*
X238433247Y-122202078D01*
X238423247Y-122362078D01*
X238423000Y-122370000D01*
X238423000Y-122489717D01*
X238416652Y-125340000D01*
X222753702Y-125340000D01*
X222951580Y-125252054D01*
X222956796Y-125249592D01*
X223156796Y-125149592D01*
X223170447Y-125141670D01*
X223395447Y-124991670D01*
X223401200Y-124987600D01*
X223501200Y-124912600D01*
X223514803Y-124900803D01*
X223789803Y-124625803D01*
X223797564Y-124617303D01*
X224047564Y-124317303D01*
X224055670Y-124306447D01*
X224205670Y-124081447D01*
X224210267Y-124074010D01*
X224310267Y-123899010D01*
X224316731Y-123886028D01*
X224391731Y-123711028D01*
X224395483Y-123701161D01*
X224444739Y-123553393D01*
X224518914Y-123355593D01*
X224524181Y-123337610D01*
X224599181Y-122987610D01*
X224601223Y-122975025D01*
X224626223Y-122750025D01*
X224627000Y-122736000D01*
X224627000Y-122361000D01*
X224626370Y-122348363D01*
X224601370Y-122098363D01*
X224600272Y-122090121D01*
X224575272Y-121940121D01*
X224572525Y-121927584D01*
X224497525Y-121652584D01*
X224494601Y-121643285D01*
X224369601Y-121293285D01*
X224366731Y-121285972D01*
X224291731Y-121110972D01*
X224283902Y-121095659D01*
X224133902Y-120845659D01*
X224128344Y-120837183D01*
X224003344Y-120662183D01*
X223997564Y-120654697D01*
X223872564Y-120504697D01*
X223870577Y-120502370D01*
X223695577Y-120302370D01*
X223683630Y-120290423D01*
X223483630Y-120115423D01*
X223471715Y-120106186D01*
X222996715Y-119781186D01*
X222976580Y-119769946D01*
X222751580Y-119669946D01*
X222744593Y-119667086D01*
X222544593Y-119592086D01*
X222530802Y-119587792D01*
X222230802Y-119512792D01*
X222224907Y-119511466D01*
X221974907Y-119461466D01*
X221962637Y-119459630D01*
X221712637Y-119434630D01*
X221700000Y-119434000D01*
X221350000Y-119434000D01*
X221332039Y-119435276D01*
X220982039Y-119485276D01*
X220969198Y-119487792D01*
X220769198Y-119537792D01*
X220759839Y-119540517D01*
X220609839Y-119590517D01*
X220605407Y-119592086D01*
X220205407Y-119742086D01*
X220186990Y-119750733D01*
X220011990Y-119850733D01*
X220004553Y-119855330D01*
X219704553Y-120055330D01*
X219695664Y-120061830D01*
X219570664Y-120161830D01*
X219560197Y-120171197D01*
X219285197Y-120446197D01*
X219275830Y-120456664D01*
X219075830Y-120706664D01*
X219070582Y-120713710D01*
X218845582Y-121038710D01*
X218836408Y-121054204D01*
X218786408Y-121154204D01*
X218782083Y-121163833D01*
X218732083Y-121288833D01*
X218731086Y-121291407D01*
X218656575Y-121490103D01*
X218607083Y-121613833D01*
X218601792Y-121630198D01*
X218576792Y-121730198D01*
X218576024Y-121733450D01*
X218526024Y-121958450D01*
X218524276Y-121968039D01*
X218499276Y-122143039D01*
X218498000Y-122161000D01*
X218498000Y-122886000D01*
X218500466Y-122910907D01*
X218575466Y-123285907D01*
X218577886Y-123295890D01*
X218627886Y-123470890D01*
X218632083Y-123483167D01*
X218681575Y-123606897D01*
X218756086Y-123805593D01*
X218766098Y-123826341D01*
X218838593Y-123947166D01*
X218886408Y-124042796D01*
X218891098Y-124051341D01*
X218966098Y-124176341D01*
X218973400Y-124187200D01*
X219048400Y-124287200D01*
X219053050Y-124293035D01*
X219328050Y-124618035D01*
X219335197Y-124625803D01*
X219585197Y-124875803D01*
X219593697Y-124883564D01*
X219743697Y-125008564D01*
X219758440Y-125019161D01*
X220083440Y-125219161D01*
X220093204Y-125224592D01*
X220324020Y-125340000D01*
X166577000Y-125340000D01*
X166577000Y-122230000D01*
X166575724Y-122212039D01*
X166555724Y-122072039D01*
X166554951Y-122067282D01*
X166535387Y-121959680D01*
X166525724Y-121892039D01*
X166523976Y-121882450D01*
X166504713Y-121795765D01*
X166485272Y-121679121D01*
X166478535Y-121654410D01*
X166429573Y-121527108D01*
X166390483Y-121409839D01*
X166387917Y-121402833D01*
X166347917Y-121302833D01*
X166346731Y-121299972D01*
X166286731Y-121159972D01*
X166280561Y-121147509D01*
X166150561Y-120917509D01*
X166146830Y-120911324D01*
X166056830Y-120771324D01*
X166054042Y-120767170D01*
X165985946Y-120669890D01*
X165937696Y-120592690D01*
X165929170Y-120580664D01*
X165909413Y-120555967D01*
X179511000Y-120555967D01*
X179511000Y-120878033D01*
X179573832Y-121193912D01*
X179697082Y-121491463D01*
X179876013Y-121759252D01*
X180103748Y-121986987D01*
X180371537Y-122165918D01*
X180669088Y-122289168D01*
X180984967Y-122352000D01*
X181307033Y-122352000D01*
X181622912Y-122289168D01*
X181920463Y-122165918D01*
X182188252Y-121986987D01*
X182322826Y-121852413D01*
X183690192Y-121852413D01*
X183785956Y-122116814D01*
X184075571Y-122257704D01*
X184387108Y-122339384D01*
X184708595Y-122358718D01*
X185027675Y-122314961D01*
X185332088Y-122209795D01*
X185506044Y-122116814D01*
X185601808Y-121852413D01*
X184646000Y-120896605D01*
X183690192Y-121852413D01*
X182322826Y-121852413D01*
X182415987Y-121759252D01*
X182594918Y-121491463D01*
X182718168Y-121193912D01*
X182781000Y-120878033D01*
X182781000Y-120555967D01*
X182718168Y-120240088D01*
X182712177Y-120225625D01*
X182837802Y-120100000D01*
X183127952Y-120100000D01*
X183105296Y-120146571D01*
X183023616Y-120458108D01*
X183004282Y-120779595D01*
X183048039Y-121098675D01*
X183153205Y-121403088D01*
X183246186Y-121577044D01*
X183510587Y-121672808D01*
X184466395Y-120717000D01*
X184452253Y-120702858D01*
X184631858Y-120523253D01*
X184646000Y-120537395D01*
X184660143Y-120523253D01*
X184839748Y-120702858D01*
X184825605Y-120717000D01*
X185781413Y-121672808D01*
X186045814Y-121577044D01*
X186186704Y-121287429D01*
X186268384Y-120975892D01*
X186287718Y-120654405D01*
X186243961Y-120335325D01*
X186162663Y-120100000D01*
X186631859Y-120100000D01*
X186573832Y-120240088D01*
X186511000Y-120555967D01*
X186511000Y-120878033D01*
X186573832Y-121193912D01*
X186697082Y-121491463D01*
X186876013Y-121759252D01*
X187103748Y-121986987D01*
X187371537Y-122165918D01*
X187669088Y-122289168D01*
X187984967Y-122352000D01*
X188307033Y-122352000D01*
X188622912Y-122289168D01*
X188637375Y-122283177D01*
X188907601Y-122553403D01*
X188931399Y-122582401D01*
X189047124Y-122677374D01*
X189179153Y-122747946D01*
X189322414Y-122791403D01*
X189434067Y-122802400D01*
X189434075Y-122802400D01*
X189471400Y-122806076D01*
X189508725Y-122802400D01*
X197403278Y-122802400D01*
X197440600Y-122806076D01*
X197477922Y-122802400D01*
X197477933Y-122802400D01*
X197589586Y-122791403D01*
X197732847Y-122747946D01*
X197864876Y-122677374D01*
X197980601Y-122582401D01*
X198004404Y-122553397D01*
X198274624Y-122283177D01*
X198289088Y-122289168D01*
X198604967Y-122352000D01*
X198927033Y-122352000D01*
X199242912Y-122289168D01*
X199257375Y-122283177D01*
X199582401Y-122608203D01*
X199606199Y-122637201D01*
X199635197Y-122660999D01*
X199721924Y-122732174D01*
X199853953Y-122802746D01*
X199997214Y-122846203D01*
X200146200Y-122860877D01*
X200183533Y-122857200D01*
X204348478Y-122857200D01*
X204385800Y-122860876D01*
X204423122Y-122857200D01*
X204423133Y-122857200D01*
X204534786Y-122846203D01*
X204678047Y-122802746D01*
X204810076Y-122732174D01*
X204925801Y-122637201D01*
X204949604Y-122608197D01*
X205274624Y-122283177D01*
X205289088Y-122289168D01*
X205604967Y-122352000D01*
X205927033Y-122352000D01*
X206242912Y-122289168D01*
X206540463Y-122165918D01*
X206808252Y-121986987D01*
X206942826Y-121852413D01*
X208310192Y-121852413D01*
X208405956Y-122116814D01*
X208695571Y-122257704D01*
X209007108Y-122339384D01*
X209328595Y-122358718D01*
X209647675Y-122314961D01*
X209952088Y-122209795D01*
X210126044Y-122116814D01*
X210221808Y-121852413D01*
X209266000Y-120896605D01*
X208310192Y-121852413D01*
X206942826Y-121852413D01*
X207035987Y-121759252D01*
X207214918Y-121491463D01*
X207338168Y-121193912D01*
X207401000Y-120878033D01*
X207401000Y-120779595D01*
X207624282Y-120779595D01*
X207668039Y-121098675D01*
X207773205Y-121403088D01*
X207866186Y-121577044D01*
X208130587Y-121672808D01*
X209086395Y-120717000D01*
X209445605Y-120717000D01*
X210401413Y-121672808D01*
X210665814Y-121577044D01*
X210806704Y-121287429D01*
X210888384Y-120975892D01*
X210907718Y-120654405D01*
X210863961Y-120335325D01*
X210758795Y-120030912D01*
X210665814Y-119856956D01*
X210401413Y-119761192D01*
X209445605Y-120717000D01*
X209086395Y-120717000D01*
X208130587Y-119761192D01*
X207866186Y-119856956D01*
X207725296Y-120146571D01*
X207643616Y-120458108D01*
X207624282Y-120779595D01*
X207401000Y-120779595D01*
X207401000Y-120555967D01*
X207338168Y-120240088D01*
X207214918Y-119942537D01*
X207035987Y-119674748D01*
X206942826Y-119581587D01*
X208310192Y-119581587D01*
X209266000Y-120537395D01*
X210221808Y-119581587D01*
X210126044Y-119317186D01*
X209836429Y-119176296D01*
X209524892Y-119094616D01*
X209203405Y-119075282D01*
X208884325Y-119119039D01*
X208579912Y-119224205D01*
X208405956Y-119317186D01*
X208310192Y-119581587D01*
X206942826Y-119581587D01*
X206808252Y-119447013D01*
X206540463Y-119268082D01*
X206242912Y-119144832D01*
X205927033Y-119082000D01*
X205604967Y-119082000D01*
X205289088Y-119144832D01*
X204991537Y-119268082D01*
X204723748Y-119447013D01*
X204496013Y-119674748D01*
X204317082Y-119942537D01*
X204193832Y-120240088D01*
X204131000Y-120555967D01*
X204131000Y-120878033D01*
X204193832Y-121193912D01*
X204199823Y-121208376D01*
X204070999Y-121337200D01*
X203782492Y-121337200D01*
X203806704Y-121287429D01*
X203888384Y-120975892D01*
X203907718Y-120654405D01*
X203863961Y-120335325D01*
X203758795Y-120030912D01*
X203665814Y-119856956D01*
X203401413Y-119761192D01*
X202445605Y-120717000D01*
X202459748Y-120731143D01*
X202280143Y-120910748D01*
X202266000Y-120896605D01*
X202251858Y-120910748D01*
X202072253Y-120731143D01*
X202086395Y-120717000D01*
X201130587Y-119761192D01*
X200866186Y-119856956D01*
X200725296Y-120146571D01*
X200643616Y-120458108D01*
X200624282Y-120779595D01*
X200668039Y-121098675D01*
X200750443Y-121337200D01*
X200461002Y-121337200D01*
X200332177Y-121208375D01*
X200338168Y-121193912D01*
X200401000Y-120878033D01*
X200401000Y-120555967D01*
X200338168Y-120240088D01*
X200214918Y-119942537D01*
X200035987Y-119674748D01*
X199942826Y-119581587D01*
X201310192Y-119581587D01*
X202266000Y-120537395D01*
X203221808Y-119581587D01*
X203126044Y-119317186D01*
X202836429Y-119176296D01*
X202524892Y-119094616D01*
X202203405Y-119075282D01*
X201884325Y-119119039D01*
X201579912Y-119224205D01*
X201405956Y-119317186D01*
X201310192Y-119581587D01*
X199942826Y-119581587D01*
X199808252Y-119447013D01*
X199540463Y-119268082D01*
X199242912Y-119144832D01*
X198927033Y-119082000D01*
X198604967Y-119082000D01*
X198289088Y-119144832D01*
X197991537Y-119268082D01*
X197723748Y-119447013D01*
X197496013Y-119674748D01*
X197317082Y-119942537D01*
X197193832Y-120240088D01*
X197131000Y-120555967D01*
X197131000Y-120878033D01*
X197193832Y-121193912D01*
X197199823Y-121208376D01*
X197125799Y-121282400D01*
X193188023Y-121282400D01*
X193268384Y-120975892D01*
X193287718Y-120654405D01*
X193243961Y-120335325D01*
X193138795Y-120030912D01*
X193045814Y-119856956D01*
X192781413Y-119761192D01*
X191825605Y-120717000D01*
X191839748Y-120731143D01*
X191660143Y-120910748D01*
X191646000Y-120896605D01*
X191631858Y-120910748D01*
X191452253Y-120731143D01*
X191466395Y-120717000D01*
X190510587Y-119761192D01*
X190246186Y-119856956D01*
X190105296Y-120146571D01*
X190023616Y-120458108D01*
X190004282Y-120779595D01*
X190048039Y-121098675D01*
X190111511Y-121282400D01*
X189786202Y-121282400D01*
X189712177Y-121208375D01*
X189718168Y-121193912D01*
X189781000Y-120878033D01*
X189781000Y-120555967D01*
X189718168Y-120240088D01*
X189594918Y-119942537D01*
X189415987Y-119674748D01*
X189322826Y-119581587D01*
X190690192Y-119581587D01*
X191646000Y-120537395D01*
X192601808Y-119581587D01*
X192506044Y-119317186D01*
X192216429Y-119176296D01*
X191904892Y-119094616D01*
X191583405Y-119075282D01*
X191264325Y-119119039D01*
X190959912Y-119224205D01*
X190785956Y-119317186D01*
X190690192Y-119581587D01*
X189322826Y-119581587D01*
X189188252Y-119447013D01*
X188920463Y-119268082D01*
X188906000Y-119262091D01*
X188906000Y-97650000D01*
X199448000Y-97650000D01*
X199448000Y-98375000D01*
X199450466Y-98399907D01*
X199525466Y-98774907D01*
X199527886Y-98784890D01*
X199577886Y-98959890D01*
X199582083Y-98972167D01*
X199631575Y-99095897D01*
X199706086Y-99294593D01*
X199716098Y-99315341D01*
X199788593Y-99436166D01*
X199836408Y-99531796D01*
X199841098Y-99540341D01*
X199916098Y-99665341D01*
X199923400Y-99676200D01*
X199998400Y-99776200D01*
X200003050Y-99782035D01*
X200278050Y-100107035D01*
X200285197Y-100114803D01*
X200535197Y-100364803D01*
X200543697Y-100372564D01*
X200693697Y-100497564D01*
X200708440Y-100508161D01*
X201033440Y-100708161D01*
X201043204Y-100713592D01*
X201293204Y-100838592D01*
X201309839Y-100845483D01*
X201609839Y-100945483D01*
X201615110Y-100947114D01*
X201790110Y-100997114D01*
X201800093Y-100999534D01*
X202050093Y-101049534D01*
X202068325Y-101051824D01*
X202543325Y-101076824D01*
X202559740Y-101076626D01*
X202884740Y-101051626D01*
X202894311Y-101050523D01*
X203219311Y-101000523D01*
X203240161Y-100995483D01*
X203390161Y-100945483D01*
X203393401Y-100944354D01*
X203668401Y-100844354D01*
X203676580Y-100841054D01*
X203901580Y-100741054D01*
X203906796Y-100738592D01*
X204106796Y-100638592D01*
X204120447Y-100630670D01*
X204345447Y-100480670D01*
X204351200Y-100476600D01*
X204451200Y-100401600D01*
X204464803Y-100389803D01*
X204739803Y-100114803D01*
X204747564Y-100106303D01*
X204997564Y-99806303D01*
X205005670Y-99795447D01*
X205155670Y-99570447D01*
X205160267Y-99563010D01*
X205260267Y-99388010D01*
X205266731Y-99375028D01*
X205341731Y-99200028D01*
X205345483Y-99190161D01*
X205394739Y-99042393D01*
X205468914Y-98844593D01*
X205474181Y-98826610D01*
X205549181Y-98476610D01*
X205551223Y-98464025D01*
X205576223Y-98239025D01*
X205577000Y-98225000D01*
X205577000Y-97850000D01*
X205576370Y-97837363D01*
X205551370Y-97587363D01*
X205550272Y-97579121D01*
X205525272Y-97429121D01*
X205522525Y-97416584D01*
X205447525Y-97141584D01*
X205444601Y-97132285D01*
X205319601Y-96782285D01*
X205316731Y-96774972D01*
X205241731Y-96599972D01*
X205233902Y-96584659D01*
X205083902Y-96334659D01*
X205078344Y-96326183D01*
X204953344Y-96151183D01*
X204947564Y-96143697D01*
X204822564Y-95993697D01*
X204820577Y-95991370D01*
X204645577Y-95791370D01*
X204633630Y-95779423D01*
X204433630Y-95604423D01*
X204421715Y-95595186D01*
X203946715Y-95270186D01*
X203926580Y-95258946D01*
X203701580Y-95158946D01*
X203694593Y-95156086D01*
X203494593Y-95081086D01*
X203480802Y-95076792D01*
X203180802Y-95001792D01*
X203174907Y-95000466D01*
X202924907Y-94950466D01*
X202912637Y-94948630D01*
X202662637Y-94923630D01*
X202650000Y-94923000D01*
X202300000Y-94923000D01*
X202282039Y-94924276D01*
X201932039Y-94974276D01*
X201919198Y-94976792D01*
X201719198Y-95026792D01*
X201709839Y-95029517D01*
X201559839Y-95079517D01*
X201555407Y-95081086D01*
X201155407Y-95231086D01*
X201136990Y-95239733D01*
X200961990Y-95339733D01*
X200954553Y-95344330D01*
X200654553Y-95544330D01*
X200645664Y-95550830D01*
X200520664Y-95650830D01*
X200510197Y-95660197D01*
X200235197Y-95935197D01*
X200225830Y-95945664D01*
X200025830Y-96195664D01*
X200020582Y-96202710D01*
X199795582Y-96527710D01*
X199786408Y-96543204D01*
X199736408Y-96643204D01*
X199732083Y-96652833D01*
X199682083Y-96777833D01*
X199681086Y-96780407D01*
X199606575Y-96979103D01*
X199557083Y-97102833D01*
X199551792Y-97119198D01*
X199526792Y-97219198D01*
X199526024Y-97222450D01*
X199476024Y-97447450D01*
X199474276Y-97457039D01*
X199449276Y-97632039D01*
X199448000Y-97650000D01*
X188906000Y-97650000D01*
X188906000Y-91251801D01*
X189636730Y-90521072D01*
X189875000Y-90521072D01*
X190038500Y-90504969D01*
X190195716Y-90457278D01*
X190340608Y-90379831D01*
X190467606Y-90275606D01*
X190500000Y-90236134D01*
X190532394Y-90275606D01*
X190659392Y-90379831D01*
X190804284Y-90457278D01*
X190961500Y-90504969D01*
X191125000Y-90521072D01*
X191525000Y-90521072D01*
X191688500Y-90504969D01*
X191845716Y-90457278D01*
X191990608Y-90379831D01*
X192117606Y-90275606D01*
X192205916Y-90168000D01*
X201994199Y-90168000D01*
X233567126Y-121740928D01*
X232980000Y-121740928D01*
X232806746Y-121757992D01*
X232640150Y-121808528D01*
X232486614Y-121890595D01*
X232352038Y-122001038D01*
X232241595Y-122135614D01*
X232159528Y-122289150D01*
X232108992Y-122455746D01*
X232091928Y-122629000D01*
X232091928Y-123879000D01*
X232108992Y-124052254D01*
X232159528Y-124218850D01*
X232241595Y-124372386D01*
X232352038Y-124506962D01*
X232486614Y-124617405D01*
X232640150Y-124699472D01*
X232806746Y-124750008D01*
X232980000Y-124767072D01*
X233730000Y-124767072D01*
X233903254Y-124750008D01*
X234069850Y-124699472D01*
X234223386Y-124617405D01*
X234357962Y-124506962D01*
X234468405Y-124372386D01*
X234550472Y-124218850D01*
X234601008Y-124052254D01*
X234618072Y-123879000D01*
X234618072Y-122791874D01*
X234891928Y-123065730D01*
X234891928Y-123879000D01*
X234908992Y-124052254D01*
X234959528Y-124218850D01*
X235041595Y-124372386D01*
X235152038Y-124506962D01*
X235286614Y-124617405D01*
X235440150Y-124699472D01*
X235606746Y-124750008D01*
X235780000Y-124767072D01*
X236530000Y-124767072D01*
X236703254Y-124750008D01*
X236869850Y-124699472D01*
X237023386Y-124617405D01*
X237157962Y-124506962D01*
X237268405Y-124372386D01*
X237350472Y-124218850D01*
X237401008Y-124052254D01*
X237418072Y-123879000D01*
X237418072Y-122629000D01*
X237401008Y-122455746D01*
X237350472Y-122289150D01*
X237268405Y-122135614D01*
X237157962Y-122001038D01*
X237023386Y-121890595D01*
X236869850Y-121808528D01*
X236703254Y-121757992D01*
X236530000Y-121740928D01*
X235780000Y-121740928D01*
X235722403Y-121746601D01*
X202872804Y-88897003D01*
X202849001Y-88867999D01*
X202733276Y-88773026D01*
X202601247Y-88702454D01*
X202457986Y-88658997D01*
X202346333Y-88648000D01*
X202346322Y-88648000D01*
X202309000Y-88644324D01*
X202271678Y-88648000D01*
X192205916Y-88648000D01*
X192117606Y-88540394D01*
X191990608Y-88436169D01*
X191845716Y-88358722D01*
X191688500Y-88311031D01*
X191525000Y-88294928D01*
X191125000Y-88294928D01*
X190961500Y-88311031D01*
X190804284Y-88358722D01*
X190659392Y-88436169D01*
X190532394Y-88540394D01*
X190500000Y-88579866D01*
X190467606Y-88540394D01*
X190340608Y-88436169D01*
X190195716Y-88358722D01*
X190038500Y-88311031D01*
X189875000Y-88294928D01*
X189475000Y-88294928D01*
X189311500Y-88311031D01*
X189154284Y-88358722D01*
X189009392Y-88436169D01*
X188882394Y-88540394D01*
X188778169Y-88667392D01*
X188700722Y-88812284D01*
X188653031Y-88969500D01*
X188636928Y-89133000D01*
X188636928Y-89371270D01*
X187635003Y-90373196D01*
X187605999Y-90396999D01*
X187559091Y-90454157D01*
X187511026Y-90512724D01*
X187499227Y-90534799D01*
X187440454Y-90644754D01*
X187396997Y-90788015D01*
X187386000Y-90899668D01*
X187386000Y-90899678D01*
X187382324Y-90937000D01*
X187386000Y-90974322D01*
X187386001Y-118580000D01*
X182560322Y-118580000D01*
X182522999Y-118576324D01*
X182485676Y-118580000D01*
X182485667Y-118580000D01*
X182374014Y-118590997D01*
X182230753Y-118634454D01*
X182098723Y-118705026D01*
X182015083Y-118773668D01*
X181982999Y-118799999D01*
X181959201Y-118828997D01*
X181637375Y-119150823D01*
X181622912Y-119144832D01*
X181307033Y-119082000D01*
X180984967Y-119082000D01*
X180669088Y-119144832D01*
X180371537Y-119268082D01*
X180103748Y-119447013D01*
X179876013Y-119674748D01*
X179697082Y-119942537D01*
X179573832Y-120240088D01*
X179511000Y-120555967D01*
X165909413Y-120555967D01*
X165889170Y-120530664D01*
X165883619Y-120524183D01*
X165773619Y-120404183D01*
X165769803Y-120400197D01*
X165649803Y-120280197D01*
X165642651Y-120273574D01*
X165576354Y-120216748D01*
X165519803Y-120160197D01*
X165511303Y-120152436D01*
X165451303Y-120102436D01*
X165444698Y-120097291D01*
X165335468Y-120017851D01*
X165216200Y-119928400D01*
X165202263Y-119919310D01*
X165042263Y-119829310D01*
X165041677Y-119828982D01*
X164861677Y-119728982D01*
X164848846Y-119722769D01*
X164728846Y-119672769D01*
X164723905Y-119670830D01*
X164533905Y-119600830D01*
X164530161Y-119599517D01*
X164380161Y-119549517D01*
X164372321Y-119547182D01*
X164182321Y-119497182D01*
X164178557Y-119496252D01*
X164048557Y-119466252D01*
X164035752Y-119463981D01*
X163795752Y-119433981D01*
X163787922Y-119433247D01*
X163627922Y-119423247D01*
X163620000Y-119423000D01*
X163500283Y-119423000D01*
X160660000Y-119416674D01*
X160660000Y-76577000D01*
X163760000Y-76577000D01*
X163777961Y-76575724D01*
X163917961Y-76555724D01*
X163922718Y-76554951D01*
X164030320Y-76535387D01*
X164097961Y-76525724D01*
X164107550Y-76523976D01*
X164194235Y-76504713D01*
X164310879Y-76485272D01*
X164335590Y-76478535D01*
X164462892Y-76429573D01*
X164580161Y-76390483D01*
X164587167Y-76387917D01*
X164687167Y-76347917D01*
X164690028Y-76346731D01*
X164830028Y-76286731D01*
X164842491Y-76280561D01*
X165072491Y-76150561D01*
X165078676Y-76146830D01*
X165218676Y-76056830D01*
X165222830Y-76054042D01*
X165320110Y-75985946D01*
X165397310Y-75937696D01*
X165409336Y-75929170D01*
X165459336Y-75889170D01*
X165465817Y-75883619D01*
X165585817Y-75773619D01*
X165589803Y-75769803D01*
X165709803Y-75649803D01*
X165716426Y-75642651D01*
X165773252Y-75576354D01*
X165829803Y-75519803D01*
X165837564Y-75511303D01*
X165887564Y-75451303D01*
X165892709Y-75444698D01*
X165972149Y-75335468D01*
X166061600Y-75216200D01*
X166070690Y-75202263D01*
X166160690Y-75042263D01*
X166161018Y-75041677D01*
X166261018Y-74861677D01*
X166267231Y-74848846D01*
X166317231Y-74728846D01*
X166319170Y-74723905D01*
X166389170Y-74533905D01*
X166390483Y-74530161D01*
X166431600Y-74406809D01*
X166431601Y-76980696D01*
X161310703Y-82101596D01*
X161281699Y-82125399D01*
X161257162Y-82155298D01*
X161186726Y-82241124D01*
X161141441Y-82325846D01*
X161116154Y-82373154D01*
X161072697Y-82516415D01*
X161061700Y-82628068D01*
X161061700Y-82628078D01*
X161058024Y-82665400D01*
X161061700Y-82702722D01*
X161061701Y-92137168D01*
X161058024Y-92174500D01*
X161061701Y-92211833D01*
X161072698Y-92323486D01*
X161082423Y-92355546D01*
X161116154Y-92466746D01*
X161186726Y-92598776D01*
X161257901Y-92685502D01*
X161281700Y-92714501D01*
X161310698Y-92738299D01*
X161834205Y-93261806D01*
X161684010Y-93486589D01*
X161572068Y-93756842D01*
X161515000Y-94043740D01*
X161515000Y-94336260D01*
X161572068Y-94623158D01*
X161684010Y-94893411D01*
X161846525Y-95136632D01*
X162053368Y-95343475D01*
X162235534Y-95465195D01*
X162118645Y-95534822D01*
X161902412Y-95729731D01*
X161728359Y-95963080D01*
X161603175Y-96225901D01*
X161558524Y-96373110D01*
X161679845Y-96603000D01*
X162873000Y-96603000D01*
X162873000Y-96583000D01*
X163127000Y-96583000D01*
X163127000Y-96603000D01*
X163147000Y-96603000D01*
X163147000Y-96857000D01*
X163127000Y-96857000D01*
X163127000Y-96877000D01*
X162873000Y-96877000D01*
X162873000Y-96857000D01*
X161679845Y-96857000D01*
X161558524Y-97086890D01*
X161603175Y-97234099D01*
X161728359Y-97496920D01*
X161902412Y-97730269D01*
X162118645Y-97925178D01*
X162235534Y-97994805D01*
X162053368Y-98116525D01*
X161846525Y-98323368D01*
X161684010Y-98566589D01*
X161572068Y-98836842D01*
X161515000Y-99123740D01*
X161515000Y-99416260D01*
X161572068Y-99703158D01*
X161684010Y-99973411D01*
X161846525Y-100216632D01*
X162053368Y-100423475D01*
X162227760Y-100540000D01*
X162053368Y-100656525D01*
X161846525Y-100863368D01*
X161684010Y-101106589D01*
X161572068Y-101376842D01*
X161515000Y-101663740D01*
X161515000Y-101956260D01*
X161572068Y-102243158D01*
X161684010Y-102513411D01*
X161846525Y-102756632D01*
X162053368Y-102963475D01*
X162227760Y-103080000D01*
X162053368Y-103196525D01*
X161846525Y-103403368D01*
X161684010Y-103646589D01*
X161572068Y-103916842D01*
X161515000Y-104203740D01*
X161515000Y-104496260D01*
X161572068Y-104783158D01*
X161684010Y-105053411D01*
X161846525Y-105296632D01*
X162053368Y-105503475D01*
X162227760Y-105620000D01*
X162053368Y-105736525D01*
X161846525Y-105943368D01*
X161684010Y-106186589D01*
X161572068Y-106456842D01*
X161515000Y-106743740D01*
X161515000Y-107036260D01*
X161572068Y-107323158D01*
X161684010Y-107593411D01*
X161846525Y-107836632D01*
X162053368Y-108043475D01*
X162227760Y-108160000D01*
X162053368Y-108276525D01*
X161846525Y-108483368D01*
X161684010Y-108726589D01*
X161572068Y-108996842D01*
X161515000Y-109283740D01*
X161515000Y-109576260D01*
X161572068Y-109863158D01*
X161684010Y-110133411D01*
X161846525Y-110376632D01*
X162053368Y-110583475D01*
X162296589Y-110745990D01*
X162566842Y-110857932D01*
X162853740Y-110915000D01*
X163146260Y-110915000D01*
X163433158Y-110857932D01*
X163703411Y-110745990D01*
X163946632Y-110583475D01*
X164153475Y-110376632D01*
X164271100Y-110200594D01*
X164442412Y-110430269D01*
X164658645Y-110625178D01*
X164908748Y-110774157D01*
X165183109Y-110871481D01*
X165413000Y-110750814D01*
X165413000Y-109557000D01*
X165667000Y-109557000D01*
X165667000Y-110750814D01*
X165896891Y-110871481D01*
X166171252Y-110774157D01*
X166421355Y-110625178D01*
X166637588Y-110430269D01*
X166811641Y-110196920D01*
X166936825Y-109934099D01*
X166981476Y-109786890D01*
X166860155Y-109557000D01*
X165667000Y-109557000D01*
X165413000Y-109557000D01*
X165393000Y-109557000D01*
X165393000Y-109303000D01*
X165413000Y-109303000D01*
X165413000Y-109283000D01*
X165667000Y-109283000D01*
X165667000Y-109303000D01*
X166860155Y-109303000D01*
X166981476Y-109073110D01*
X166936825Y-108925901D01*
X166811641Y-108663080D01*
X166698161Y-108510940D01*
X191741008Y-83468095D01*
X191770001Y-83444301D01*
X191793795Y-83415308D01*
X191793799Y-83415304D01*
X191864973Y-83328577D01*
X191872169Y-83315115D01*
X191935546Y-83196547D01*
X191979003Y-83053286D01*
X191990000Y-82941633D01*
X191990000Y-82941624D01*
X191993676Y-82904301D01*
X191990000Y-82866978D01*
X191990000Y-76048178D01*
X192176632Y-75923475D01*
X192383475Y-75716632D01*
X192500000Y-75542240D01*
X192616525Y-75716632D01*
X192823368Y-75923475D01*
X193066589Y-76085990D01*
X193336842Y-76197932D01*
X193623740Y-76255000D01*
X193916260Y-76255000D01*
X194203158Y-76197932D01*
X194473411Y-76085990D01*
X194714319Y-75925020D01*
X206443200Y-87653902D01*
X206466999Y-87682901D01*
X206495997Y-87706699D01*
X206582723Y-87777874D01*
X206669024Y-87824003D01*
X206714753Y-87848446D01*
X206858014Y-87891903D01*
X206969667Y-87902900D01*
X206969677Y-87902900D01*
X207007000Y-87906576D01*
X207044323Y-87902900D01*
X218976543Y-87902900D01*
X218933174Y-88007602D01*
X218893400Y-88207561D01*
X218893400Y-88411439D01*
X218933174Y-88611398D01*
X219011195Y-88799756D01*
X219124463Y-88969274D01*
X219268626Y-89113437D01*
X219438144Y-89226705D01*
X219626502Y-89304726D01*
X219826461Y-89344500D01*
X219888599Y-89344500D01*
X225245101Y-94701003D01*
X225268899Y-94730001D01*
X225384624Y-94824974D01*
X225516653Y-94895546D01*
X225659914Y-94939003D01*
X225771567Y-94950000D01*
X225771577Y-94950000D01*
X225808900Y-94953676D01*
X225846223Y-94950000D01*
X238221822Y-94950000D01*
X238346525Y-95136632D01*
X238553368Y-95343475D01*
X238727760Y-95460000D01*
X238553368Y-95576525D01*
X238346525Y-95783368D01*
X238184010Y-96026589D01*
X238072068Y-96296842D01*
X238015000Y-96583740D01*
X238015000Y-96876260D01*
X238072068Y-97163158D01*
X238184010Y-97433411D01*
X238346525Y-97676632D01*
X238553368Y-97883475D01*
X238727760Y-98000000D01*
X238553368Y-98116525D01*
X238346525Y-98323368D01*
X238184010Y-98566589D01*
X238072068Y-98836842D01*
X238015000Y-99123740D01*
X238015000Y-99416260D01*
X238072068Y-99703158D01*
X238184010Y-99973411D01*
X238346525Y-100216632D01*
X238553368Y-100423475D01*
X238727760Y-100540000D01*
X238553368Y-100656525D01*
X238346525Y-100863368D01*
X238184010Y-101106589D01*
X238072068Y-101376842D01*
X238015000Y-101663740D01*
X238015000Y-101956260D01*
X238072068Y-102243158D01*
X238184010Y-102513411D01*
X238346525Y-102756632D01*
X238553368Y-102963475D01*
X238727760Y-103080000D01*
X238553368Y-103196525D01*
X238346525Y-103403368D01*
X238184010Y-103646589D01*
X238072068Y-103916842D01*
X238015000Y-104203740D01*
X238015000Y-104496260D01*
X238072068Y-104783158D01*
X238184010Y-105053411D01*
X238346525Y-105296632D01*
X238553368Y-105503475D01*
X238735534Y-105625195D01*
X238618645Y-105694822D01*
X238402412Y-105889731D01*
X238228359Y-106123080D01*
X238103175Y-106385901D01*
X238058524Y-106533110D01*
X238179845Y-106763000D01*
X239373000Y-106763000D01*
X239373000Y-106743000D01*
X239627000Y-106743000D01*
X239627000Y-106763000D01*
X239647000Y-106763000D01*
X239647000Y-107017000D01*
X239627000Y-107017000D01*
X239627000Y-107037000D01*
X239373000Y-107037000D01*
X239373000Y-107017000D01*
X238179845Y-107017000D01*
X238058524Y-107246890D01*
X238103175Y-107394099D01*
X238228359Y-107656920D01*
X238402412Y-107890269D01*
X238618645Y-108085178D01*
X238735534Y-108154805D01*
X238553368Y-108276525D01*
X238346525Y-108483368D01*
X238184010Y-108726589D01*
X238072068Y-108996842D01*
X238015000Y-109283740D01*
X238015000Y-109576260D01*
X238072068Y-109863158D01*
X238184010Y-110133411D01*
X238346525Y-110376632D01*
X238553368Y-110583475D01*
X238727760Y-110700000D01*
X238553368Y-110816525D01*
X238346525Y-111023368D01*
X238184010Y-111266589D01*
X238072068Y-111536842D01*
X238015000Y-111823740D01*
X238015000Y-112116260D01*
X238072068Y-112403158D01*
X238184010Y-112673411D01*
X238346525Y-112916632D01*
X238553368Y-113123475D01*
X238796589Y-113285990D01*
X239066842Y-113397932D01*
X239353740Y-113455000D01*
X239646260Y-113455000D01*
X239933158Y-113397932D01*
X240203411Y-113285990D01*
X240446632Y-113123475D01*
X240653475Y-112916632D01*
X240770000Y-112742240D01*
X240886525Y-112916632D01*
X241093368Y-113123475D01*
X241336589Y-113285990D01*
X241606842Y-113397932D01*
X241893740Y-113455000D01*
X242186260Y-113455000D01*
X242473158Y-113397932D01*
X242743411Y-113285990D01*
X242986632Y-113123475D01*
X243193475Y-112916632D01*
X243355990Y-112673411D01*
X243467932Y-112403158D01*
X243525000Y-112116260D01*
X243525000Y-111823740D01*
X243467932Y-111536842D01*
X243355990Y-111266589D01*
X243193475Y-111023368D01*
X242986632Y-110816525D01*
X242812240Y-110700000D01*
X242986632Y-110583475D01*
X243193475Y-110376632D01*
X243355990Y-110133411D01*
X243467932Y-109863158D01*
X243525000Y-109576260D01*
X243525000Y-109283740D01*
X243467932Y-108996842D01*
X243355990Y-108726589D01*
X243193475Y-108483368D01*
X242986632Y-108276525D01*
X242812240Y-108160000D01*
X242986632Y-108043475D01*
X243193475Y-107836632D01*
X243355990Y-107593411D01*
X243467932Y-107323158D01*
X243525000Y-107036260D01*
X243525000Y-106743740D01*
X243467932Y-106456842D01*
X243355990Y-106186589D01*
X243217531Y-105979370D01*
X243726302Y-105470599D01*
X243755301Y-105446801D01*
X243789606Y-105405000D01*
X243850274Y-105331077D01*
X243920846Y-105199047D01*
X243946742Y-105113677D01*
X243964303Y-105055786D01*
X243975300Y-104944133D01*
X243975300Y-104944124D01*
X243978976Y-104906801D01*
X243975300Y-104869478D01*
X243975300Y-83501422D01*
X243978976Y-83464099D01*
X243975300Y-83426776D01*
X243975300Y-83426767D01*
X243964303Y-83315114D01*
X243920846Y-83171853D01*
X243850274Y-83039824D01*
X243755301Y-82924099D01*
X243726304Y-82900302D01*
X242067204Y-81241203D01*
X242043401Y-81212199D01*
X241927676Y-81117226D01*
X241795647Y-81046654D01*
X241652386Y-81003197D01*
X241540733Y-80992200D01*
X241540722Y-80992200D01*
X241503400Y-80988524D01*
X241466078Y-80992200D01*
X225446802Y-80992200D01*
X220966396Y-76511795D01*
X221100093Y-76538534D01*
X221118325Y-76540824D01*
X221593325Y-76565824D01*
X221609740Y-76565626D01*
X221934740Y-76540626D01*
X221944311Y-76539523D01*
X222269311Y-76489523D01*
X222290161Y-76484483D01*
X222440161Y-76434483D01*
X222443401Y-76433354D01*
X222718401Y-76333354D01*
X222726580Y-76330054D01*
X222951580Y-76230054D01*
X222956796Y-76227592D01*
X223156796Y-76127592D01*
X223170447Y-76119670D01*
X223395447Y-75969670D01*
X223401200Y-75965600D01*
X223501200Y-75890600D01*
X223514803Y-75878803D01*
X223789803Y-75603803D01*
X223797564Y-75595303D01*
X224047564Y-75295303D01*
X224055670Y-75284447D01*
X224205670Y-75059447D01*
X224210267Y-75052010D01*
X224310267Y-74877010D01*
X224316731Y-74864028D01*
X224391731Y-74689028D01*
X224395483Y-74679161D01*
X224444739Y-74531393D01*
X224518914Y-74333593D01*
X224524181Y-74315610D01*
X224599181Y-73965610D01*
X224601223Y-73953025D01*
X224626223Y-73728025D01*
X224627000Y-73714000D01*
X224627000Y-73339000D01*
X224626370Y-73326363D01*
X224601370Y-73076363D01*
X224600272Y-73068121D01*
X224575272Y-72918121D01*
X224572525Y-72905584D01*
X224497525Y-72630584D01*
X224494601Y-72621285D01*
X224369601Y-72271285D01*
X224366731Y-72263972D01*
X224291731Y-72088972D01*
X224283902Y-72073659D01*
X224133902Y-71823659D01*
X224128344Y-71815183D01*
X224003344Y-71640183D01*
X223997564Y-71632697D01*
X223872564Y-71482697D01*
X223870577Y-71480370D01*
X223695577Y-71280370D01*
X223683630Y-71268423D01*
X223483630Y-71093423D01*
X223471715Y-71084186D01*
X222996715Y-70759186D01*
X222976580Y-70747946D01*
X222778701Y-70660000D01*
X238433000Y-70660000D01*
X238433000Y-73760000D01*
G37*
%TD.AperFunction*%
D15*
X178404394Y-92688606D02*
X178441852Y-92719347D01*
X168746499Y-102414700D01*
X166888908Y-102414700D01*
X166936825Y-102314099D01*
X166981476Y-102166890D01*
X166860155Y-101937000D01*
X165667000Y-101937000D01*
X165667000Y-101957000D01*
X165413000Y-101957000D01*
X165413000Y-101937000D01*
X165393000Y-101937000D01*
X165393000Y-101683000D01*
X165413000Y-101683000D01*
X165413000Y-101663000D01*
X165667000Y-101663000D01*
X165667000Y-101683000D01*
X166860155Y-101683000D01*
X166981476Y-101453110D01*
X166936825Y-101305901D01*
X166811641Y-101043080D01*
X166637588Y-100809731D01*
X166421355Y-100614822D01*
X166304466Y-100545195D01*
X166486632Y-100423475D01*
X166693475Y-100216632D01*
X166855990Y-99973411D01*
X166967932Y-99703158D01*
X167025000Y-99416260D01*
X167025000Y-99123740D01*
X166967932Y-98836842D01*
X166855990Y-98566589D01*
X166693475Y-98323368D01*
X166486632Y-98116525D01*
X166312240Y-98000000D01*
X166486632Y-97883475D01*
X166693475Y-97676632D01*
X166855990Y-97433411D01*
X166967932Y-97163158D01*
X167025000Y-96876260D01*
X167025000Y-96583740D01*
X166967932Y-96296842D01*
X166855990Y-96026589D01*
X166693475Y-95783368D01*
X166486632Y-95576525D01*
X166312240Y-95460000D01*
X166486632Y-95343475D01*
X166693475Y-95136632D01*
X166855990Y-94893411D01*
X166967932Y-94623158D01*
X167025000Y-94336260D01*
X167025000Y-94043740D01*
X166967932Y-93756842D01*
X166896877Y-93585300D01*
X176505378Y-93585300D01*
X176542700Y-93588976D01*
X176580022Y-93585300D01*
X176580033Y-93585300D01*
X176691686Y-93574303D01*
X176834947Y-93530846D01*
X176966976Y-93460274D01*
X177082701Y-93365301D01*
X177106504Y-93336298D01*
X177508729Y-92934072D01*
X177747000Y-92934072D01*
X177910500Y-92917969D01*
X178067716Y-92870278D01*
X178212608Y-92792831D01*
X178339606Y-92688606D01*
X178372000Y-92649134D01*
X178404394Y-92688606D01*
%TA.AperFunction,Conductor*%
D16*
G36*
X178404394Y-92688606D02*
G01*
X178441852Y-92719347D01*
X168746499Y-102414700D01*
X166888908Y-102414700D01*
X166936825Y-102314099D01*
X166981476Y-102166890D01*
X166860155Y-101937000D01*
X165667000Y-101937000D01*
X165667000Y-101957000D01*
X165413000Y-101957000D01*
X165413000Y-101937000D01*
X165393000Y-101937000D01*
X165393000Y-101683000D01*
X165413000Y-101683000D01*
X165413000Y-101663000D01*
X165667000Y-101663000D01*
X165667000Y-101683000D01*
X166860155Y-101683000D01*
X166981476Y-101453110D01*
X166936825Y-101305901D01*
X166811641Y-101043080D01*
X166637588Y-100809731D01*
X166421355Y-100614822D01*
X166304466Y-100545195D01*
X166486632Y-100423475D01*
X166693475Y-100216632D01*
X166855990Y-99973411D01*
X166967932Y-99703158D01*
X167025000Y-99416260D01*
X167025000Y-99123740D01*
X166967932Y-98836842D01*
X166855990Y-98566589D01*
X166693475Y-98323368D01*
X166486632Y-98116525D01*
X166312240Y-98000000D01*
X166486632Y-97883475D01*
X166693475Y-97676632D01*
X166855990Y-97433411D01*
X166967932Y-97163158D01*
X167025000Y-96876260D01*
X167025000Y-96583740D01*
X166967932Y-96296842D01*
X166855990Y-96026589D01*
X166693475Y-95783368D01*
X166486632Y-95576525D01*
X166312240Y-95460000D01*
X166486632Y-95343475D01*
X166693475Y-95136632D01*
X166855990Y-94893411D01*
X166967932Y-94623158D01*
X167025000Y-94336260D01*
X167025000Y-94043740D01*
X166967932Y-93756842D01*
X166896877Y-93585300D01*
X176505378Y-93585300D01*
X176542700Y-93588976D01*
X176580022Y-93585300D01*
X176580033Y-93585300D01*
X176691686Y-93574303D01*
X176834947Y-93530846D01*
X176966976Y-93460274D01*
X177082701Y-93365301D01*
X177106504Y-93336298D01*
X177508729Y-92934072D01*
X177747000Y-92934072D01*
X177910500Y-92917969D01*
X178067716Y-92870278D01*
X178212608Y-92792831D01*
X178339606Y-92688606D01*
X178372000Y-92649134D01*
X178404394Y-92688606D01*
G37*
%TD.AperFunction*%
D15*
X242167000Y-99143000D02*
X242187000Y-99143000D01*
X242187000Y-99397000D01*
X242167000Y-99397000D01*
X242167000Y-99417000D01*
X241913000Y-99417000D01*
X241913000Y-99397000D01*
X241893000Y-99397000D01*
X241893000Y-99143000D01*
X241913000Y-99143000D01*
X241913000Y-99123000D01*
X242167000Y-99123000D01*
X242167000Y-99143000D01*
%TA.AperFunction,Conductor*%
D16*
G36*
X242167000Y-99143000D02*
G01*
X242187000Y-99143000D01*
X242187000Y-99397000D01*
X242167000Y-99397000D01*
X242167000Y-99417000D01*
X241913000Y-99417000D01*
X241913000Y-99397000D01*
X241893000Y-99397000D01*
X241893000Y-99143000D01*
X241913000Y-99143000D01*
X241913000Y-99123000D01*
X242167000Y-99123000D01*
X242167000Y-99143000D01*
G37*
%TD.AperFunction*%
D15*
X242167000Y-94063000D02*
X242187000Y-94063000D01*
X242187000Y-94317000D01*
X242167000Y-94317000D01*
X242167000Y-94337000D01*
X241913000Y-94337000D01*
X241913000Y-94317000D01*
X241893000Y-94317000D01*
X241893000Y-94063000D01*
X241913000Y-94063000D01*
X241913000Y-94043000D01*
X242167000Y-94043000D01*
X242167000Y-94063000D01*
%TA.AperFunction,Conductor*%
D16*
G36*
X242167000Y-94063000D02*
G01*
X242187000Y-94063000D01*
X242187000Y-94317000D01*
X242167000Y-94317000D01*
X242167000Y-94337000D01*
X241913000Y-94337000D01*
X241913000Y-94317000D01*
X241893000Y-94317000D01*
X241893000Y-94063000D01*
X241913000Y-94063000D01*
X241913000Y-94043000D01*
X242167000Y-94043000D01*
X242167000Y-94063000D01*
G37*
%TD.AperFunction*%
D15*
X178437001Y-90414704D02*
X178437001Y-90926634D01*
X178404394Y-90953394D01*
X178372000Y-90992866D01*
X178339606Y-90953394D01*
X178212608Y-90849169D01*
X178067716Y-90771722D01*
X177910500Y-90724031D01*
X177747000Y-90707928D01*
X177347000Y-90707928D01*
X177183500Y-90724031D01*
X177026284Y-90771722D01*
X176881392Y-90849169D01*
X176754394Y-90953394D01*
X176650169Y-91080392D01*
X176572722Y-91225284D01*
X176525031Y-91382500D01*
X176508928Y-91546000D01*
X176508928Y-91784270D01*
X176227899Y-92065300D01*
X166963759Y-92065300D01*
X166981476Y-92006890D01*
X166860155Y-91777000D01*
X165667000Y-91777000D01*
X165667000Y-91797000D01*
X165413000Y-91797000D01*
X165413000Y-91777000D01*
X165393000Y-91777000D01*
X165393000Y-91523000D01*
X165413000Y-91523000D01*
X165413000Y-91503000D01*
X165667000Y-91503000D01*
X165667000Y-91523000D01*
X166860155Y-91523000D01*
X166981476Y-91293110D01*
X166936825Y-91145901D01*
X166811641Y-90883080D01*
X166637588Y-90649731D01*
X166421355Y-90454822D01*
X166304466Y-90385195D01*
X166486632Y-90263475D01*
X166693475Y-90056632D01*
X166822796Y-89863089D01*
X166864286Y-89859003D01*
X167007547Y-89815546D01*
X167139576Y-89744974D01*
X167255301Y-89650001D01*
X167279103Y-89620998D01*
X167695202Y-89204900D01*
X177227199Y-89204900D01*
X178437001Y-90414704D01*
%TA.AperFunction,Conductor*%
D16*
G36*
X178437001Y-90414704D02*
G01*
X178437001Y-90926634D01*
X178404394Y-90953394D01*
X178372000Y-90992866D01*
X178339606Y-90953394D01*
X178212608Y-90849169D01*
X178067716Y-90771722D01*
X177910500Y-90724031D01*
X177747000Y-90707928D01*
X177347000Y-90707928D01*
X177183500Y-90724031D01*
X177026284Y-90771722D01*
X176881392Y-90849169D01*
X176754394Y-90953394D01*
X176650169Y-91080392D01*
X176572722Y-91225284D01*
X176525031Y-91382500D01*
X176508928Y-91546000D01*
X176508928Y-91784270D01*
X176227899Y-92065300D01*
X166963759Y-92065300D01*
X166981476Y-92006890D01*
X166860155Y-91777000D01*
X165667000Y-91777000D01*
X165667000Y-91797000D01*
X165413000Y-91797000D01*
X165413000Y-91777000D01*
X165393000Y-91777000D01*
X165393000Y-91523000D01*
X165413000Y-91523000D01*
X165413000Y-91503000D01*
X165667000Y-91503000D01*
X165667000Y-91523000D01*
X166860155Y-91523000D01*
X166981476Y-91293110D01*
X166936825Y-91145901D01*
X166811641Y-90883080D01*
X166637588Y-90649731D01*
X166421355Y-90454822D01*
X166304466Y-90385195D01*
X166486632Y-90263475D01*
X166693475Y-90056632D01*
X166822796Y-89863089D01*
X166864286Y-89859003D01*
X167007547Y-89815546D01*
X167139576Y-89744974D01*
X167255301Y-89650001D01*
X167279103Y-89620998D01*
X167695202Y-89204900D01*
X177227199Y-89204900D01*
X178437001Y-90414704D01*
G37*
%TD.AperFunction*%
D15*
X178657000Y-74643000D02*
X178677000Y-74643000D01*
X178677000Y-74897000D01*
X178657000Y-74897000D01*
X178657000Y-76090155D01*
X178886890Y-76211476D01*
X179034099Y-76166825D01*
X179296920Y-76041641D01*
X179530269Y-75867588D01*
X179725178Y-75651355D01*
X179794805Y-75534466D01*
X179916525Y-75716632D01*
X180123368Y-75923475D01*
X180366589Y-76085990D01*
X180636842Y-76197932D01*
X180923740Y-76255000D01*
X181216260Y-76255000D01*
X181503158Y-76197932D01*
X181773411Y-76085990D01*
X182016632Y-75923475D01*
X182223475Y-75716632D01*
X182340000Y-75542240D01*
X182456525Y-75716632D01*
X182663368Y-75923475D01*
X182906589Y-76085990D01*
X183176842Y-76197932D01*
X183463740Y-76255000D01*
X183756260Y-76255000D01*
X184043158Y-76197932D01*
X184313411Y-76085990D01*
X184556632Y-75923475D01*
X184763475Y-75716632D01*
X184880000Y-75542240D01*
X184996525Y-75716632D01*
X185203368Y-75923475D01*
X185390000Y-76048179D01*
X185390001Y-85771197D01*
X180087960Y-91073238D01*
X179989606Y-90953394D01*
X179957000Y-90926635D01*
X179957000Y-90137222D01*
X179960676Y-90099899D01*
X179957000Y-90062576D01*
X179957000Y-90062567D01*
X179946003Y-89950914D01*
X179902546Y-89807653D01*
X179831974Y-89675624D01*
X179781482Y-89614099D01*
X179760799Y-89588896D01*
X179760795Y-89588892D01*
X179737001Y-89559899D01*
X179708008Y-89536105D01*
X178302000Y-88130099D01*
X178302000Y-87969365D01*
X178334606Y-87942606D01*
X178367000Y-87903134D01*
X178399394Y-87942606D01*
X178526392Y-88046831D01*
X178671284Y-88124278D01*
X178828500Y-88171969D01*
X178992000Y-88188072D01*
X179392000Y-88188072D01*
X179555500Y-88171969D01*
X179712716Y-88124278D01*
X179857608Y-88046831D01*
X179984606Y-87942606D01*
X180088831Y-87815608D01*
X180166278Y-87670716D01*
X180213969Y-87513500D01*
X180230072Y-87350000D01*
X180230072Y-86800000D01*
X180213969Y-86636500D01*
X180166278Y-86479284D01*
X180088831Y-86334392D01*
X179984606Y-86207394D01*
X179857608Y-86103169D01*
X179712716Y-86025722D01*
X179555500Y-85978031D01*
X179392000Y-85961928D01*
X179153730Y-85961928D01*
X176538204Y-83346403D01*
X176514401Y-83317399D01*
X176398676Y-83222426D01*
X176266647Y-83151854D01*
X176123386Y-83108397D01*
X176011733Y-83097400D01*
X176011722Y-83097400D01*
X175974400Y-83093724D01*
X175937078Y-83097400D01*
X171670000Y-83097400D01*
X171670000Y-76048178D01*
X171856632Y-75923475D01*
X172063475Y-75716632D01*
X172180000Y-75542240D01*
X172296525Y-75716632D01*
X172503368Y-75923475D01*
X172746589Y-76085990D01*
X173016842Y-76197932D01*
X173303740Y-76255000D01*
X173596260Y-76255000D01*
X173883158Y-76197932D01*
X174153411Y-76085990D01*
X174396632Y-75923475D01*
X174603475Y-75716632D01*
X174720000Y-75542240D01*
X174836525Y-75716632D01*
X175043368Y-75923475D01*
X175286589Y-76085990D01*
X175556842Y-76197932D01*
X175843740Y-76255000D01*
X176136260Y-76255000D01*
X176423158Y-76197932D01*
X176693411Y-76085990D01*
X176936632Y-75923475D01*
X177143475Y-75716632D01*
X177265195Y-75534466D01*
X177334822Y-75651355D01*
X177529731Y-75867588D01*
X177763080Y-76041641D01*
X178025901Y-76166825D01*
X178173110Y-76211476D01*
X178403000Y-76090155D01*
X178403000Y-74897000D01*
X178383000Y-74897000D01*
X178383000Y-74643000D01*
X178403000Y-74643000D01*
X178403000Y-74623000D01*
X178657000Y-74623000D01*
X178657000Y-74643000D01*
%TA.AperFunction,Conductor*%
D16*
G36*
X178657000Y-74643000D02*
G01*
X178677000Y-74643000D01*
X178677000Y-74897000D01*
X178657000Y-74897000D01*
X178657000Y-76090155D01*
X178886890Y-76211476D01*
X179034099Y-76166825D01*
X179296920Y-76041641D01*
X179530269Y-75867588D01*
X179725178Y-75651355D01*
X179794805Y-75534466D01*
X179916525Y-75716632D01*
X180123368Y-75923475D01*
X180366589Y-76085990D01*
X180636842Y-76197932D01*
X180923740Y-76255000D01*
X181216260Y-76255000D01*
X181503158Y-76197932D01*
X181773411Y-76085990D01*
X182016632Y-75923475D01*
X182223475Y-75716632D01*
X182340000Y-75542240D01*
X182456525Y-75716632D01*
X182663368Y-75923475D01*
X182906589Y-76085990D01*
X183176842Y-76197932D01*
X183463740Y-76255000D01*
X183756260Y-76255000D01*
X184043158Y-76197932D01*
X184313411Y-76085990D01*
X184556632Y-75923475D01*
X184763475Y-75716632D01*
X184880000Y-75542240D01*
X184996525Y-75716632D01*
X185203368Y-75923475D01*
X185390000Y-76048179D01*
X185390001Y-85771197D01*
X180087960Y-91073238D01*
X179989606Y-90953394D01*
X179957000Y-90926635D01*
X179957000Y-90137222D01*
X179960676Y-90099899D01*
X179957000Y-90062576D01*
X179957000Y-90062567D01*
X179946003Y-89950914D01*
X179902546Y-89807653D01*
X179831974Y-89675624D01*
X179781482Y-89614099D01*
X179760799Y-89588896D01*
X179760795Y-89588892D01*
X179737001Y-89559899D01*
X179708008Y-89536105D01*
X178302000Y-88130099D01*
X178302000Y-87969365D01*
X178334606Y-87942606D01*
X178367000Y-87903134D01*
X178399394Y-87942606D01*
X178526392Y-88046831D01*
X178671284Y-88124278D01*
X178828500Y-88171969D01*
X178992000Y-88188072D01*
X179392000Y-88188072D01*
X179555500Y-88171969D01*
X179712716Y-88124278D01*
X179857608Y-88046831D01*
X179984606Y-87942606D01*
X180088831Y-87815608D01*
X180166278Y-87670716D01*
X180213969Y-87513500D01*
X180230072Y-87350000D01*
X180230072Y-86800000D01*
X180213969Y-86636500D01*
X180166278Y-86479284D01*
X180088831Y-86334392D01*
X179984606Y-86207394D01*
X179857608Y-86103169D01*
X179712716Y-86025722D01*
X179555500Y-85978031D01*
X179392000Y-85961928D01*
X179153730Y-85961928D01*
X176538204Y-83346403D01*
X176514401Y-83317399D01*
X176398676Y-83222426D01*
X176266647Y-83151854D01*
X176123386Y-83108397D01*
X176011733Y-83097400D01*
X176011722Y-83097400D01*
X175974400Y-83093724D01*
X175937078Y-83097400D01*
X171670000Y-83097400D01*
X171670000Y-76048178D01*
X171856632Y-75923475D01*
X172063475Y-75716632D01*
X172180000Y-75542240D01*
X172296525Y-75716632D01*
X172503368Y-75923475D01*
X172746589Y-76085990D01*
X173016842Y-76197932D01*
X173303740Y-76255000D01*
X173596260Y-76255000D01*
X173883158Y-76197932D01*
X174153411Y-76085990D01*
X174396632Y-75923475D01*
X174603475Y-75716632D01*
X174720000Y-75542240D01*
X174836525Y-75716632D01*
X175043368Y-75923475D01*
X175286589Y-76085990D01*
X175556842Y-76197932D01*
X175843740Y-76255000D01*
X176136260Y-76255000D01*
X176423158Y-76197932D01*
X176693411Y-76085990D01*
X176936632Y-75923475D01*
X177143475Y-75716632D01*
X177265195Y-75534466D01*
X177334822Y-75651355D01*
X177529731Y-75867588D01*
X177763080Y-76041641D01*
X178025901Y-76166825D01*
X178173110Y-76211476D01*
X178403000Y-76090155D01*
X178403000Y-74897000D01*
X178383000Y-74897000D01*
X178383000Y-74643000D01*
X178403000Y-74643000D01*
X178403000Y-74623000D01*
X178657000Y-74623000D01*
X178657000Y-74643000D01*
G37*
%TD.AperFunction*%
D15*
X238346525Y-87516632D02*
X238553368Y-87723475D01*
X238735534Y-87845195D01*
X238618645Y-87914822D01*
X238402412Y-88109731D01*
X238228359Y-88343080D01*
X238103175Y-88605901D01*
X238058524Y-88753110D01*
X238179845Y-88983000D01*
X239373000Y-88983000D01*
X239373000Y-88963000D01*
X239627000Y-88963000D01*
X239627000Y-88983000D01*
X239647000Y-88983000D01*
X239647000Y-89237000D01*
X239627000Y-89237000D01*
X239627000Y-89257000D01*
X239373000Y-89257000D01*
X239373000Y-89237000D01*
X238179845Y-89237000D01*
X238058524Y-89466890D01*
X238103175Y-89614099D01*
X238151092Y-89714700D01*
X227126102Y-89714700D01*
X224741401Y-87330000D01*
X238221822Y-87330000D01*
X238346525Y-87516632D01*
%TA.AperFunction,Conductor*%
D16*
G36*
X238346525Y-87516632D02*
G01*
X238553368Y-87723475D01*
X238735534Y-87845195D01*
X238618645Y-87914822D01*
X238402412Y-88109731D01*
X238228359Y-88343080D01*
X238103175Y-88605901D01*
X238058524Y-88753110D01*
X238179845Y-88983000D01*
X239373000Y-88983000D01*
X239373000Y-88963000D01*
X239627000Y-88963000D01*
X239627000Y-88983000D01*
X239647000Y-88983000D01*
X239647000Y-89237000D01*
X239627000Y-89237000D01*
X239627000Y-89257000D01*
X239373000Y-89257000D01*
X239373000Y-89237000D01*
X238179845Y-89237000D01*
X238058524Y-89466890D01*
X238103175Y-89614099D01*
X238151092Y-89714700D01*
X227126102Y-89714700D01*
X224741401Y-87330000D01*
X238221822Y-87330000D01*
X238346525Y-87516632D01*
G37*
%TD.AperFunction*%
D15*
X216757000Y-74643000D02*
X216777000Y-74643000D01*
X216777000Y-74897000D01*
X216757000Y-74897000D01*
X216757000Y-76090155D01*
X216986890Y-76211476D01*
X217134099Y-76166825D01*
X217396920Y-76041641D01*
X217630269Y-75867588D01*
X217825178Y-75651355D01*
X217874147Y-75569148D01*
X223211397Y-80906399D01*
X223200544Y-80910895D01*
X223031026Y-81024163D01*
X222886863Y-81168326D01*
X222816521Y-81273600D01*
X221694200Y-81273600D01*
X221694200Y-81198661D01*
X221654426Y-80998702D01*
X221576405Y-80810344D01*
X221463137Y-80640826D01*
X221318974Y-80496663D01*
X221149456Y-80383395D01*
X220961098Y-80305374D01*
X220761139Y-80265600D01*
X220557261Y-80265600D01*
X220357302Y-80305374D01*
X220168944Y-80383395D01*
X219999426Y-80496663D01*
X219955489Y-80540600D01*
X216663403Y-80540600D01*
X212221860Y-76099059D01*
X212253411Y-76085990D01*
X212496632Y-75923475D01*
X212703475Y-75716632D01*
X212820000Y-75542240D01*
X212936525Y-75716632D01*
X213143368Y-75923475D01*
X213386589Y-76085990D01*
X213656842Y-76197932D01*
X213943740Y-76255000D01*
X214236260Y-76255000D01*
X214523158Y-76197932D01*
X214793411Y-76085990D01*
X215036632Y-75923475D01*
X215243475Y-75716632D01*
X215365195Y-75534466D01*
X215434822Y-75651355D01*
X215629731Y-75867588D01*
X215863080Y-76041641D01*
X216125901Y-76166825D01*
X216273110Y-76211476D01*
X216503000Y-76090155D01*
X216503000Y-74897000D01*
X216483000Y-74897000D01*
X216483000Y-74643000D01*
X216503000Y-74643000D01*
X216503000Y-74623000D01*
X216757000Y-74623000D01*
X216757000Y-74643000D01*
%TA.AperFunction,Conductor*%
D16*
G36*
X216757000Y-74643000D02*
G01*
X216777000Y-74643000D01*
X216777000Y-74897000D01*
X216757000Y-74897000D01*
X216757000Y-76090155D01*
X216986890Y-76211476D01*
X217134099Y-76166825D01*
X217396920Y-76041641D01*
X217630269Y-75867588D01*
X217825178Y-75651355D01*
X217874147Y-75569148D01*
X223211397Y-80906399D01*
X223200544Y-80910895D01*
X223031026Y-81024163D01*
X222886863Y-81168326D01*
X222816521Y-81273600D01*
X221694200Y-81273600D01*
X221694200Y-81198661D01*
X221654426Y-80998702D01*
X221576405Y-80810344D01*
X221463137Y-80640826D01*
X221318974Y-80496663D01*
X221149456Y-80383395D01*
X220961098Y-80305374D01*
X220761139Y-80265600D01*
X220557261Y-80265600D01*
X220357302Y-80305374D01*
X220168944Y-80383395D01*
X219999426Y-80496663D01*
X219955489Y-80540600D01*
X216663403Y-80540600D01*
X212221860Y-76099059D01*
X212253411Y-76085990D01*
X212496632Y-75923475D01*
X212703475Y-75716632D01*
X212820000Y-75542240D01*
X212936525Y-75716632D01*
X213143368Y-75923475D01*
X213386589Y-76085990D01*
X213656842Y-76197932D01*
X213943740Y-76255000D01*
X214236260Y-76255000D01*
X214523158Y-76197932D01*
X214793411Y-76085990D01*
X215036632Y-75923475D01*
X215243475Y-75716632D01*
X215365195Y-75534466D01*
X215434822Y-75651355D01*
X215629731Y-75867588D01*
X215863080Y-76041641D01*
X216125901Y-76166825D01*
X216273110Y-76211476D01*
X216503000Y-76090155D01*
X216503000Y-74897000D01*
X216483000Y-74897000D01*
X216483000Y-74643000D01*
X216503000Y-74643000D01*
X216503000Y-74623000D01*
X216757000Y-74623000D01*
X216757000Y-74643000D01*
G37*
%TD.AperFunction*%
D15*
X198977000Y-74643000D02*
X198997000Y-74643000D01*
X198997000Y-74897000D01*
X198977000Y-74897000D01*
X198977000Y-74917000D01*
X198723000Y-74917000D01*
X198723000Y-74897000D01*
X198703000Y-74897000D01*
X198703000Y-74643000D01*
X198723000Y-74643000D01*
X198723000Y-74623000D01*
X198977000Y-74623000D01*
X198977000Y-74643000D01*
%TA.AperFunction,Conductor*%
D16*
G36*
X198977000Y-74643000D02*
G01*
X198997000Y-74643000D01*
X198997000Y-74897000D01*
X198977000Y-74897000D01*
X198977000Y-74917000D01*
X198723000Y-74917000D01*
X198723000Y-74897000D01*
X198703000Y-74897000D01*
X198703000Y-74643000D01*
X198723000Y-74643000D01*
X198723000Y-74623000D01*
X198977000Y-74623000D01*
X198977000Y-74643000D01*
G37*
%TD.AperFunction*%
D15*
X220205407Y-70720086D02*
X220186990Y-70728733D01*
X220011990Y-70828733D01*
X220004553Y-70833330D01*
X219704553Y-71033330D01*
X219695664Y-71039830D01*
X219570664Y-71139830D01*
X219560197Y-71149197D01*
X219285197Y-71424197D01*
X219275830Y-71434664D01*
X219075830Y-71684664D01*
X219070582Y-71691710D01*
X218845582Y-72016710D01*
X218836408Y-72032204D01*
X218786408Y-72132204D01*
X218782083Y-72141833D01*
X218732083Y-72266833D01*
X218731086Y-72269407D01*
X218656575Y-72468103D01*
X218607083Y-72591833D01*
X218601792Y-72608198D01*
X218576792Y-72708198D01*
X218576024Y-72711450D01*
X218526024Y-72936450D01*
X218524276Y-72946039D01*
X218499276Y-73121039D01*
X218498000Y-73139000D01*
X218498000Y-73854020D01*
X218440274Y-73746024D01*
X218404306Y-73702197D01*
X218369099Y-73659296D01*
X218369095Y-73659292D01*
X218345301Y-73630299D01*
X218316309Y-73606506D01*
X217824714Y-73114913D01*
X217945990Y-72933411D01*
X218057932Y-72663158D01*
X218115000Y-72376260D01*
X218115000Y-72083740D01*
X218057932Y-71796842D01*
X217945990Y-71526589D01*
X217783475Y-71283368D01*
X217576632Y-71076525D01*
X217333411Y-70914010D01*
X217063158Y-70802068D01*
X216776260Y-70745000D01*
X216483740Y-70745000D01*
X216196842Y-70802068D01*
X215926589Y-70914010D01*
X215683368Y-71076525D01*
X215476525Y-71283368D01*
X215360000Y-71457760D01*
X215243475Y-71283368D01*
X215036632Y-71076525D01*
X214793411Y-70914010D01*
X214523158Y-70802068D01*
X214236260Y-70745000D01*
X213943740Y-70745000D01*
X213656842Y-70802068D01*
X213386589Y-70914010D01*
X213143368Y-71076525D01*
X212936525Y-71283368D01*
X212820000Y-71457760D01*
X212703475Y-71283368D01*
X212496632Y-71076525D01*
X212253411Y-70914010D01*
X211983158Y-70802068D01*
X211696260Y-70745000D01*
X211403740Y-70745000D01*
X211116842Y-70802068D01*
X210846589Y-70914010D01*
X210603368Y-71076525D01*
X210396525Y-71283368D01*
X210274805Y-71465534D01*
X210205178Y-71348645D01*
X210010269Y-71132412D01*
X209776920Y-70958359D01*
X209514099Y-70833175D01*
X209366890Y-70788524D01*
X209137000Y-70909845D01*
X209137000Y-72103000D01*
X209157000Y-72103000D01*
X209157000Y-72357000D01*
X209137000Y-72357000D01*
X209137000Y-72377000D01*
X208883000Y-72377000D01*
X208883000Y-72357000D01*
X208863000Y-72357000D01*
X208863000Y-72103000D01*
X208883000Y-72103000D01*
X208883000Y-70909845D01*
X208653110Y-70788524D01*
X208505901Y-70833175D01*
X208243080Y-70958359D01*
X208009731Y-71132412D01*
X207814822Y-71348645D01*
X207745195Y-71465534D01*
X207623475Y-71283368D01*
X207416632Y-71076525D01*
X207173411Y-70914010D01*
X206903158Y-70802068D01*
X206616260Y-70745000D01*
X206323740Y-70745000D01*
X206036842Y-70802068D01*
X205766589Y-70914010D01*
X205523368Y-71076525D01*
X205316525Y-71283368D01*
X205194805Y-71465534D01*
X205125178Y-71348645D01*
X204930269Y-71132412D01*
X204696920Y-70958359D01*
X204434099Y-70833175D01*
X204286890Y-70788524D01*
X204057000Y-70909845D01*
X204057000Y-72103000D01*
X204077000Y-72103000D01*
X204077000Y-72357000D01*
X204057000Y-72357000D01*
X204057000Y-72377000D01*
X203803000Y-72377000D01*
X203803000Y-72357000D01*
X203783000Y-72357000D01*
X203783000Y-72103000D01*
X203803000Y-72103000D01*
X203803000Y-70909845D01*
X203573110Y-70788524D01*
X203425901Y-70833175D01*
X203163080Y-70958359D01*
X203040782Y-71049580D01*
X202651202Y-70660000D01*
X220365636Y-70660000D01*
X220205407Y-70720086D01*
%TA.AperFunction,Conductor*%
D16*
G36*
X220205407Y-70720086D02*
G01*
X220186990Y-70728733D01*
X220011990Y-70828733D01*
X220004553Y-70833330D01*
X219704553Y-71033330D01*
X219695664Y-71039830D01*
X219570664Y-71139830D01*
X219560197Y-71149197D01*
X219285197Y-71424197D01*
X219275830Y-71434664D01*
X219075830Y-71684664D01*
X219070582Y-71691710D01*
X218845582Y-72016710D01*
X218836408Y-72032204D01*
X218786408Y-72132204D01*
X218782083Y-72141833D01*
X218732083Y-72266833D01*
X218731086Y-72269407D01*
X218656575Y-72468103D01*
X218607083Y-72591833D01*
X218601792Y-72608198D01*
X218576792Y-72708198D01*
X218576024Y-72711450D01*
X218526024Y-72936450D01*
X218524276Y-72946039D01*
X218499276Y-73121039D01*
X218498000Y-73139000D01*
X218498000Y-73854020D01*
X218440274Y-73746024D01*
X218404306Y-73702197D01*
X218369099Y-73659296D01*
X218369095Y-73659292D01*
X218345301Y-73630299D01*
X218316309Y-73606506D01*
X217824714Y-73114913D01*
X217945990Y-72933411D01*
X218057932Y-72663158D01*
X218115000Y-72376260D01*
X218115000Y-72083740D01*
X218057932Y-71796842D01*
X217945990Y-71526589D01*
X217783475Y-71283368D01*
X217576632Y-71076525D01*
X217333411Y-70914010D01*
X217063158Y-70802068D01*
X216776260Y-70745000D01*
X216483740Y-70745000D01*
X216196842Y-70802068D01*
X215926589Y-70914010D01*
X215683368Y-71076525D01*
X215476525Y-71283368D01*
X215360000Y-71457760D01*
X215243475Y-71283368D01*
X215036632Y-71076525D01*
X214793411Y-70914010D01*
X214523158Y-70802068D01*
X214236260Y-70745000D01*
X213943740Y-70745000D01*
X213656842Y-70802068D01*
X213386589Y-70914010D01*
X213143368Y-71076525D01*
X212936525Y-71283368D01*
X212820000Y-71457760D01*
X212703475Y-71283368D01*
X212496632Y-71076525D01*
X212253411Y-70914010D01*
X211983158Y-70802068D01*
X211696260Y-70745000D01*
X211403740Y-70745000D01*
X211116842Y-70802068D01*
X210846589Y-70914010D01*
X210603368Y-71076525D01*
X210396525Y-71283368D01*
X210274805Y-71465534D01*
X210205178Y-71348645D01*
X210010269Y-71132412D01*
X209776920Y-70958359D01*
X209514099Y-70833175D01*
X209366890Y-70788524D01*
X209137000Y-70909845D01*
X209137000Y-72103000D01*
X209157000Y-72103000D01*
X209157000Y-72357000D01*
X209137000Y-72357000D01*
X209137000Y-72377000D01*
X208883000Y-72377000D01*
X208883000Y-72357000D01*
X208863000Y-72357000D01*
X208863000Y-72103000D01*
X208883000Y-72103000D01*
X208883000Y-70909845D01*
X208653110Y-70788524D01*
X208505901Y-70833175D01*
X208243080Y-70958359D01*
X208009731Y-71132412D01*
X207814822Y-71348645D01*
X207745195Y-71465534D01*
X207623475Y-71283368D01*
X207416632Y-71076525D01*
X207173411Y-70914010D01*
X206903158Y-70802068D01*
X206616260Y-70745000D01*
X206323740Y-70745000D01*
X206036842Y-70802068D01*
X205766589Y-70914010D01*
X205523368Y-71076525D01*
X205316525Y-71283368D01*
X205194805Y-71465534D01*
X205125178Y-71348645D01*
X204930269Y-71132412D01*
X204696920Y-70958359D01*
X204434099Y-70833175D01*
X204286890Y-70788524D01*
X204057000Y-70909845D01*
X204057000Y-72103000D01*
X204077000Y-72103000D01*
X204077000Y-72357000D01*
X204057000Y-72357000D01*
X204057000Y-72377000D01*
X203803000Y-72377000D01*
X203803000Y-72357000D01*
X203783000Y-72357000D01*
X203783000Y-72103000D01*
X203803000Y-72103000D01*
X203803000Y-70909845D01*
X203573110Y-70788524D01*
X203425901Y-70833175D01*
X203163080Y-70958359D01*
X203040782Y-71049580D01*
X202651202Y-70660000D01*
X220365636Y-70660000D01*
X220205407Y-70720086D01*
G37*
%TD.AperFunction*%
D15*
X173577000Y-72103000D02*
X173597000Y-72103000D01*
X173597000Y-72357000D01*
X173577000Y-72357000D01*
X173577000Y-72377000D01*
X173323000Y-72377000D01*
X173323000Y-72357000D01*
X173303000Y-72357000D01*
X173303000Y-72103000D01*
X173323000Y-72103000D01*
X173323000Y-72083000D01*
X173577000Y-72083000D01*
X173577000Y-72103000D01*
%TA.AperFunction,Conductor*%
D16*
G36*
X173577000Y-72103000D02*
G01*
X173597000Y-72103000D01*
X173597000Y-72357000D01*
X173577000Y-72357000D01*
X173577000Y-72377000D01*
X173323000Y-72377000D01*
X173323000Y-72357000D01*
X173303000Y-72357000D01*
X173303000Y-72103000D01*
X173323000Y-72103000D01*
X173323000Y-72083000D01*
X173577000Y-72083000D01*
X173577000Y-72103000D01*
G37*
%TD.AperFunction*%
D15*
X194136408Y-70788790D02*
X193916260Y-70745000D01*
X193623740Y-70745000D01*
X193336842Y-70802068D01*
X193066589Y-70914010D01*
X192823368Y-71076525D01*
X192616525Y-71283368D01*
X192494805Y-71465534D01*
X192425178Y-71348645D01*
X192230269Y-71132412D01*
X191996920Y-70958359D01*
X191734099Y-70833175D01*
X191586890Y-70788524D01*
X191357000Y-70909845D01*
X191357000Y-72103000D01*
X191377000Y-72103000D01*
X191377000Y-72357000D01*
X191357000Y-72357000D01*
X191357000Y-72377000D01*
X191103000Y-72377000D01*
X191103000Y-72357000D01*
X191083000Y-72357000D01*
X191083000Y-72103000D01*
X191103000Y-72103000D01*
X191103000Y-70909845D01*
X190873110Y-70788524D01*
X190725901Y-70833175D01*
X190463080Y-70958359D01*
X190229731Y-71132412D01*
X190034822Y-71348645D01*
X189965195Y-71465534D01*
X189843475Y-71283368D01*
X189636632Y-71076525D01*
X189393411Y-70914010D01*
X189123158Y-70802068D01*
X188836260Y-70745000D01*
X188543740Y-70745000D01*
X188256842Y-70802068D01*
X187986589Y-70914010D01*
X187743368Y-71076525D01*
X187536525Y-71283368D01*
X187420000Y-71457760D01*
X187303475Y-71283368D01*
X187096632Y-71076525D01*
X186853411Y-70914010D01*
X186583158Y-70802068D01*
X186296260Y-70745000D01*
X186003740Y-70745000D01*
X185716842Y-70802068D01*
X185446589Y-70914010D01*
X185203368Y-71076525D01*
X184996525Y-71283368D01*
X184874805Y-71465534D01*
X184805178Y-71348645D01*
X184610269Y-71132412D01*
X184376920Y-70958359D01*
X184114099Y-70833175D01*
X183966890Y-70788524D01*
X183737000Y-70909845D01*
X183737000Y-72103000D01*
X183757000Y-72103000D01*
X183757000Y-72357000D01*
X183737000Y-72357000D01*
X183737000Y-72377000D01*
X183483000Y-72377000D01*
X183483000Y-72357000D01*
X183463000Y-72357000D01*
X183463000Y-72103000D01*
X183483000Y-72103000D01*
X183483000Y-70909845D01*
X183253110Y-70788524D01*
X183105901Y-70833175D01*
X182843080Y-70958359D01*
X182609731Y-71132412D01*
X182414822Y-71348645D01*
X182345195Y-71465534D01*
X182223475Y-71283368D01*
X182016632Y-71076525D01*
X181773411Y-70914010D01*
X181503158Y-70802068D01*
X181216260Y-70745000D01*
X180923740Y-70745000D01*
X180636842Y-70802068D01*
X180366589Y-70914010D01*
X180123368Y-71076525D01*
X179916525Y-71283368D01*
X179800000Y-71457760D01*
X179683475Y-71283368D01*
X179476632Y-71076525D01*
X179233411Y-70914010D01*
X178963158Y-70802068D01*
X178676260Y-70745000D01*
X178383740Y-70745000D01*
X178096842Y-70802068D01*
X177826589Y-70914010D01*
X177583368Y-71076525D01*
X177376525Y-71283368D01*
X177260000Y-71457760D01*
X177143475Y-71283368D01*
X176936632Y-71076525D01*
X176693411Y-70914010D01*
X176423158Y-70802068D01*
X176136260Y-70745000D01*
X175843740Y-70745000D01*
X175556842Y-70802068D01*
X175286589Y-70914010D01*
X175079311Y-71052509D01*
X174686801Y-70660000D01*
X194265198Y-70660000D01*
X194136408Y-70788790D01*
%TA.AperFunction,Conductor*%
D16*
G36*
X194136408Y-70788790D02*
G01*
X193916260Y-70745000D01*
X193623740Y-70745000D01*
X193336842Y-70802068D01*
X193066589Y-70914010D01*
X192823368Y-71076525D01*
X192616525Y-71283368D01*
X192494805Y-71465534D01*
X192425178Y-71348645D01*
X192230269Y-71132412D01*
X191996920Y-70958359D01*
X191734099Y-70833175D01*
X191586890Y-70788524D01*
X191357000Y-70909845D01*
X191357000Y-72103000D01*
X191377000Y-72103000D01*
X191377000Y-72357000D01*
X191357000Y-72357000D01*
X191357000Y-72377000D01*
X191103000Y-72377000D01*
X191103000Y-72357000D01*
X191083000Y-72357000D01*
X191083000Y-72103000D01*
X191103000Y-72103000D01*
X191103000Y-70909845D01*
X190873110Y-70788524D01*
X190725901Y-70833175D01*
X190463080Y-70958359D01*
X190229731Y-71132412D01*
X190034822Y-71348645D01*
X189965195Y-71465534D01*
X189843475Y-71283368D01*
X189636632Y-71076525D01*
X189393411Y-70914010D01*
X189123158Y-70802068D01*
X188836260Y-70745000D01*
X188543740Y-70745000D01*
X188256842Y-70802068D01*
X187986589Y-70914010D01*
X187743368Y-71076525D01*
X187536525Y-71283368D01*
X187420000Y-71457760D01*
X187303475Y-71283368D01*
X187096632Y-71076525D01*
X186853411Y-70914010D01*
X186583158Y-70802068D01*
X186296260Y-70745000D01*
X186003740Y-70745000D01*
X185716842Y-70802068D01*
X185446589Y-70914010D01*
X185203368Y-71076525D01*
X184996525Y-71283368D01*
X184874805Y-71465534D01*
X184805178Y-71348645D01*
X184610269Y-71132412D01*
X184376920Y-70958359D01*
X184114099Y-70833175D01*
X183966890Y-70788524D01*
X183737000Y-70909845D01*
X183737000Y-72103000D01*
X183757000Y-72103000D01*
X183757000Y-72357000D01*
X183737000Y-72357000D01*
X183737000Y-72377000D01*
X183483000Y-72377000D01*
X183483000Y-72357000D01*
X183463000Y-72357000D01*
X183463000Y-72103000D01*
X183483000Y-72103000D01*
X183483000Y-70909845D01*
X183253110Y-70788524D01*
X183105901Y-70833175D01*
X182843080Y-70958359D01*
X182609731Y-71132412D01*
X182414822Y-71348645D01*
X182345195Y-71465534D01*
X182223475Y-71283368D01*
X182016632Y-71076525D01*
X181773411Y-70914010D01*
X181503158Y-70802068D01*
X181216260Y-70745000D01*
X180923740Y-70745000D01*
X180636842Y-70802068D01*
X180366589Y-70914010D01*
X180123368Y-71076525D01*
X179916525Y-71283368D01*
X179800000Y-71457760D01*
X179683475Y-71283368D01*
X179476632Y-71076525D01*
X179233411Y-70914010D01*
X178963158Y-70802068D01*
X178676260Y-70745000D01*
X178383740Y-70745000D01*
X178096842Y-70802068D01*
X177826589Y-70914010D01*
X177583368Y-71076525D01*
X177376525Y-71283368D01*
X177260000Y-71457760D01*
X177143475Y-71283368D01*
X176936632Y-71076525D01*
X176693411Y-70914010D01*
X176423158Y-70802068D01*
X176136260Y-70745000D01*
X175843740Y-70745000D01*
X175556842Y-70802068D01*
X175286589Y-70914010D01*
X175079311Y-71052509D01*
X174686801Y-70660000D01*
X194265198Y-70660000D01*
X194136408Y-70788790D01*
G37*
%TD.AperFunction*%
%TD*%
M02*
