%TF.GenerationSoftware,KiCad,Pcbnew,(6.0.4)*%
%TF.CreationDate,2022-03-25T16:17:33-04:00*%
%TF.ProjectId,relay_board,72656c61-795f-4626-9f61-72642e6b6963,rev?*%
%TF.SameCoordinates,Original*%
%TF.FileFunction,Legend,Top*%
%TF.FilePolarity,Positive*%
%FSLAX46Y46*%
G04 Gerber Fmt 4.6, Leading zero omitted, Abs format (unit mm)*
G04 Created by KiCad (PCBNEW (6.0.4)) date 2022-03-25 16:17:33*
%MOMM*%
%LPD*%
G01*
G04 APERTURE LIST*
%ADD10C,0.150000*%
%ADD11C,0.180000*%
%ADD12C,0.120000*%
G04 APERTURE END LIST*
D10*
X168950000Y-85761904D02*
X168902380Y-85857142D01*
X168902380Y-86000000D01*
X168950000Y-86142857D01*
X169045238Y-86238095D01*
X169140476Y-86285714D01*
X169330952Y-86333333D01*
X169473809Y-86333333D01*
X169664285Y-86285714D01*
X169759523Y-86238095D01*
X169854761Y-86142857D01*
X169902380Y-86000000D01*
X169902380Y-85904761D01*
X169854761Y-85761904D01*
X169807142Y-85714285D01*
X169473809Y-85714285D01*
X169473809Y-85904761D01*
X169902380Y-85285714D02*
X168902380Y-85285714D01*
X169902380Y-84714285D01*
X168902380Y-84714285D01*
X169902380Y-84238095D02*
X168902380Y-84238095D01*
X168902380Y-84000000D01*
X168950000Y-83857142D01*
X169045238Y-83761904D01*
X169140476Y-83714285D01*
X169330952Y-83666666D01*
X169473809Y-83666666D01*
X169664285Y-83714285D01*
X169759523Y-83761904D01*
X169854761Y-83857142D01*
X169902380Y-84000000D01*
X169902380Y-84238095D01*
X172402380Y-86283333D02*
X173402380Y-85950000D01*
X172402380Y-85616666D01*
X173307142Y-84711904D02*
X173354761Y-84759523D01*
X173402380Y-84902380D01*
X173402380Y-84997619D01*
X173354761Y-85140476D01*
X173259523Y-85235714D01*
X173164285Y-85283333D01*
X172973809Y-85330952D01*
X172830952Y-85330952D01*
X172640476Y-85283333D01*
X172545238Y-85235714D01*
X172450000Y-85140476D01*
X172402380Y-84997619D01*
X172402380Y-84902380D01*
X172450000Y-84759523D01*
X172497619Y-84711904D01*
X173307142Y-83711904D02*
X173354761Y-83759523D01*
X173402380Y-83902380D01*
X173402380Y-83997619D01*
X173354761Y-84140476D01*
X173259523Y-84235714D01*
X173164285Y-84283333D01*
X172973809Y-84330952D01*
X172830952Y-84330952D01*
X172640476Y-84283333D01*
X172545238Y-84235714D01*
X172450000Y-84140476D01*
X172402380Y-83997619D01*
X172402380Y-83902380D01*
X172450000Y-83759523D01*
X172497619Y-83711904D01*
D11*
X185735714Y-85621428D02*
X186021428Y-85621428D01*
X186164285Y-85550000D01*
X186235714Y-85478571D01*
X186378571Y-85264285D01*
X186450000Y-84978571D01*
X186450000Y-84407142D01*
X186378571Y-84264285D01*
X186307142Y-84192857D01*
X186164285Y-84121428D01*
X185878571Y-84121428D01*
X185735714Y-84192857D01*
X185664285Y-84264285D01*
X185592857Y-84407142D01*
X185592857Y-84764285D01*
X185664285Y-84907142D01*
X185735714Y-84978571D01*
X185878571Y-85050000D01*
X186164285Y-85050000D01*
X186307142Y-84978571D01*
X186378571Y-84907142D01*
X186450000Y-84764285D01*
X180450000Y-84550000D02*
X179735714Y-84550000D01*
X180592857Y-84121428D02*
X180092857Y-85621428D01*
X179592857Y-84121428D01*
X176307142Y-84907142D02*
X176092857Y-84835714D01*
X176021428Y-84764285D01*
X175950000Y-84621428D01*
X175950000Y-84407142D01*
X176021428Y-84264285D01*
X176092857Y-84192857D01*
X176235714Y-84121428D01*
X176807142Y-84121428D01*
X176807142Y-85621428D01*
X176307142Y-85621428D01*
X176164285Y-85550000D01*
X176092857Y-85478571D01*
X176021428Y-85335714D01*
X176021428Y-85192857D01*
X176092857Y-85050000D01*
X176164285Y-84978571D01*
X176307142Y-84907142D01*
X176807142Y-84907142D01*
D10*
X187100000Y-86400000D02*
X175500000Y-86400000D01*
X175500000Y-86400000D02*
X175500000Y-83400000D01*
X175500000Y-83400000D02*
X187100000Y-83400000D01*
X187100000Y-83400000D02*
X187100000Y-86400000D01*
D11*
X196621428Y-85671428D02*
X197335714Y-85671428D01*
X197407142Y-84957142D01*
X197335714Y-85028571D01*
X197192857Y-85100000D01*
X196835714Y-85100000D01*
X196692857Y-85028571D01*
X196621428Y-84957142D01*
X196550000Y-84814285D01*
X196550000Y-84457142D01*
X196621428Y-84314285D01*
X196692857Y-84242857D01*
X196835714Y-84171428D01*
X197192857Y-84171428D01*
X197335714Y-84242857D01*
X197407142Y-84314285D01*
X193692857Y-84600000D02*
X192978571Y-84600000D01*
X193835714Y-84171428D02*
X193335714Y-85671428D01*
X192835714Y-84171428D01*
X189550000Y-84957142D02*
X189335714Y-84885714D01*
X189264285Y-84814285D01*
X189192857Y-84671428D01*
X189192857Y-84457142D01*
X189264285Y-84314285D01*
X189335714Y-84242857D01*
X189478571Y-84171428D01*
X190050000Y-84171428D01*
X190050000Y-85671428D01*
X189550000Y-85671428D01*
X189407142Y-85600000D01*
X189335714Y-85528571D01*
X189264285Y-85385714D01*
X189264285Y-85242857D01*
X189335714Y-85100000D01*
X189407142Y-85028571D01*
X189550000Y-84957142D01*
X190050000Y-84957142D01*
D10*
X197800000Y-86400000D02*
X188200000Y-86400000D01*
X188200000Y-86400000D02*
X188200000Y-83400000D01*
X188200000Y-83400000D02*
X197800000Y-83400000D01*
X197800000Y-83400000D02*
X197800000Y-86400000D01*
D11*
X206907142Y-110978571D02*
X206907142Y-111978571D01*
X206550000Y-110407142D02*
X206192857Y-111478571D01*
X207121428Y-111478571D01*
X209907142Y-111550000D02*
X210621428Y-111550000D01*
X209764285Y-111978571D02*
X210264285Y-110478571D01*
X210764285Y-111978571D01*
X214050000Y-111192857D02*
X214264285Y-111264285D01*
X214335714Y-111335714D01*
X214407142Y-111478571D01*
X214407142Y-111692857D01*
X214335714Y-111835714D01*
X214264285Y-111907142D01*
X214121428Y-111978571D01*
X213550000Y-111978571D01*
X213550000Y-110478571D01*
X214050000Y-110478571D01*
X214192857Y-110550000D01*
X214264285Y-110621428D01*
X214335714Y-110764285D01*
X214335714Y-110907142D01*
X214264285Y-111050000D01*
X214192857Y-111121428D01*
X214050000Y-111192857D01*
X213550000Y-111192857D01*
D10*
X205700000Y-109700000D02*
X215300000Y-109700000D01*
X215300000Y-109700000D02*
X215300000Y-112700000D01*
X215300000Y-112700000D02*
X205700000Y-112700000D01*
X205700000Y-112700000D02*
X205700000Y-109700000D01*
D11*
X193078571Y-110478571D02*
X194007142Y-110478571D01*
X193507142Y-111050000D01*
X193721428Y-111050000D01*
X193864285Y-111121428D01*
X193935714Y-111192857D01*
X194007142Y-111335714D01*
X194007142Y-111692857D01*
X193935714Y-111835714D01*
X193864285Y-111907142D01*
X193721428Y-111978571D01*
X193292857Y-111978571D01*
X193150000Y-111907142D01*
X193078571Y-111835714D01*
X196864285Y-111550000D02*
X197578571Y-111550000D01*
X196721428Y-111978571D02*
X197221428Y-110478571D01*
X197721428Y-111978571D01*
X203292857Y-111192857D02*
X203507142Y-111264285D01*
X203578571Y-111335714D01*
X203650000Y-111478571D01*
X203650000Y-111692857D01*
X203578571Y-111835714D01*
X203507142Y-111907142D01*
X203364285Y-111978571D01*
X202792857Y-111978571D01*
X202792857Y-110478571D01*
X203292857Y-110478571D01*
X203435714Y-110550000D01*
X203507142Y-110621428D01*
X203578571Y-110764285D01*
X203578571Y-110907142D01*
X203507142Y-111050000D01*
X203435714Y-111121428D01*
X203292857Y-111192857D01*
X202792857Y-111192857D01*
D10*
X192200000Y-109700000D02*
X204400000Y-109700000D01*
X204400000Y-109700000D02*
X204400000Y-112700000D01*
X204400000Y-112700000D02*
X192200000Y-112700000D01*
X192200000Y-112700000D02*
X192200000Y-109700000D01*
D11*
X179864285Y-110621428D02*
X179935714Y-110550000D01*
X180078571Y-110478571D01*
X180435714Y-110478571D01*
X180578571Y-110550000D01*
X180650000Y-110621428D01*
X180721428Y-110764285D01*
X180721428Y-110907142D01*
X180650000Y-111121428D01*
X179792857Y-111978571D01*
X180721428Y-111978571D01*
X185507142Y-111550000D02*
X186221428Y-111550000D01*
X185364285Y-111978571D02*
X185864285Y-110478571D01*
X186364285Y-111978571D01*
X189650000Y-111192857D02*
X189864285Y-111264285D01*
X189935714Y-111335714D01*
X190007142Y-111478571D01*
X190007142Y-111692857D01*
X189935714Y-111835714D01*
X189864285Y-111907142D01*
X189721428Y-111978571D01*
X189150000Y-111978571D01*
X189150000Y-110478571D01*
X189650000Y-110478571D01*
X189792857Y-110550000D01*
X189864285Y-110621428D01*
X189935714Y-110764285D01*
X189935714Y-110907142D01*
X189864285Y-111050000D01*
X189792857Y-111121428D01*
X189650000Y-111192857D01*
X189150000Y-111192857D01*
D10*
X179300000Y-109700000D02*
X190900000Y-109700000D01*
X190900000Y-109700000D02*
X190900000Y-112700000D01*
X190900000Y-112700000D02*
X179300000Y-112700000D01*
X179300000Y-112700000D02*
X179300000Y-109700000D01*
X168400000Y-109700000D02*
X178000000Y-109700000D01*
X178000000Y-109700000D02*
X178000000Y-112700000D01*
X178000000Y-112700000D02*
X168400000Y-112700000D01*
X168400000Y-112700000D02*
X168400000Y-109700000D01*
D11*
X169750000Y-111978571D02*
X168892857Y-111978571D01*
X169321428Y-111978571D02*
X169321428Y-110478571D01*
X169178571Y-110692857D01*
X169035714Y-110835714D01*
X168892857Y-110907142D01*
X172607142Y-111550000D02*
X173321428Y-111550000D01*
X172464285Y-111978571D02*
X172964285Y-110478571D01*
X173464285Y-111978571D01*
X176750000Y-111192857D02*
X176964285Y-111264285D01*
X177035714Y-111335714D01*
X177107142Y-111478571D01*
X177107142Y-111692857D01*
X177035714Y-111835714D01*
X176964285Y-111907142D01*
X176821428Y-111978571D01*
X176250000Y-111978571D01*
X176250000Y-110478571D01*
X176750000Y-110478571D01*
X176892857Y-110550000D01*
X176964285Y-110621428D01*
X177035714Y-110764285D01*
X177035714Y-110907142D01*
X176964285Y-111050000D01*
X176892857Y-111121428D01*
X176750000Y-111192857D01*
X176250000Y-111192857D01*
D10*
%TO.C,Ue*%
X182342380Y-93024285D02*
X183151904Y-93024285D01*
X183247142Y-92976666D01*
X183294761Y-92929047D01*
X183342380Y-92833809D01*
X183342380Y-92643333D01*
X183294761Y-92548095D01*
X183247142Y-92500476D01*
X183151904Y-92452857D01*
X182342380Y-92452857D01*
X183294761Y-91595714D02*
X183342380Y-91690952D01*
X183342380Y-91881428D01*
X183294761Y-91976666D01*
X183199523Y-92024285D01*
X182818571Y-92024285D01*
X182723333Y-91976666D01*
X182675714Y-91881428D01*
X182675714Y-91690952D01*
X182723333Y-91595714D01*
X182818571Y-91548095D01*
X182913809Y-91548095D01*
X183009047Y-92024285D01*
X183056666Y-94905238D02*
X183056666Y-94429047D01*
X183342380Y-95000476D02*
X182342380Y-94667142D01*
X183342380Y-94333809D01*
X183342380Y-93524285D02*
X183342380Y-94000476D01*
X182342380Y-94000476D01*
X183437619Y-92524285D02*
X183390000Y-92619523D01*
X183294761Y-92714761D01*
X183151904Y-92857619D01*
X183104285Y-92952857D01*
X183104285Y-93048095D01*
X183342380Y-93000476D02*
X183294761Y-93095714D01*
X183199523Y-93190952D01*
X183009047Y-93238571D01*
X182675714Y-93238571D01*
X182485238Y-93190952D01*
X182390000Y-93095714D01*
X182342380Y-93000476D01*
X182342380Y-92810000D01*
X182390000Y-92714761D01*
X182485238Y-92619523D01*
X182675714Y-92571904D01*
X183009047Y-92571904D01*
X183199523Y-92619523D01*
X183294761Y-92714761D01*
X183342380Y-92810000D01*
X183342380Y-93000476D01*
X183342380Y-91619523D02*
X183342380Y-92190952D01*
X183342380Y-91905238D02*
X182342380Y-91905238D01*
X182485238Y-92000476D01*
X182580476Y-92095714D01*
X182628095Y-92190952D01*
X182342380Y-91000476D02*
X182342380Y-90905238D01*
X182390000Y-90810000D01*
X182437619Y-90762380D01*
X182532857Y-90714761D01*
X182723333Y-90667142D01*
X182961428Y-90667142D01*
X183151904Y-90714761D01*
X183247142Y-90762380D01*
X183294761Y-90810000D01*
X183342380Y-90905238D01*
X183342380Y-91000476D01*
X183294761Y-91095714D01*
X183247142Y-91143333D01*
X183151904Y-91190952D01*
X182961428Y-91238571D01*
X182723333Y-91238571D01*
X182532857Y-91190952D01*
X182437619Y-91143333D01*
X182390000Y-91095714D01*
X182342380Y-91000476D01*
X182342380Y-89762380D02*
X182342380Y-90238571D01*
X182818571Y-90286190D01*
X182770952Y-90238571D01*
X182723333Y-90143333D01*
X182723333Y-89905238D01*
X182770952Y-89810000D01*
X182818571Y-89762380D01*
X182913809Y-89714761D01*
X183151904Y-89714761D01*
X183247142Y-89762380D01*
X183294761Y-89810000D01*
X183342380Y-89905238D01*
X183342380Y-90143333D01*
X183294761Y-90238571D01*
X183247142Y-90286190D01*
%TO.C,U4*%
X224342380Y-89071904D02*
X225151904Y-89071904D01*
X225247142Y-89024285D01*
X225294761Y-88976666D01*
X225342380Y-88881428D01*
X225342380Y-88690952D01*
X225294761Y-88595714D01*
X225247142Y-88548095D01*
X225151904Y-88500476D01*
X224342380Y-88500476D01*
X224675714Y-87595714D02*
X225342380Y-87595714D01*
X224294761Y-87833809D02*
X225009047Y-88071904D01*
X225009047Y-87452857D01*
X225056666Y-90905238D02*
X225056666Y-90429047D01*
X225342380Y-91000476D02*
X224342380Y-90667142D01*
X225342380Y-90333809D01*
X225342380Y-89524285D02*
X225342380Y-90000476D01*
X224342380Y-90000476D01*
X225437619Y-88524285D02*
X225390000Y-88619523D01*
X225294761Y-88714761D01*
X225151904Y-88857619D01*
X225104285Y-88952857D01*
X225104285Y-89048095D01*
X225342380Y-89000476D02*
X225294761Y-89095714D01*
X225199523Y-89190952D01*
X225009047Y-89238571D01*
X224675714Y-89238571D01*
X224485238Y-89190952D01*
X224390000Y-89095714D01*
X224342380Y-89000476D01*
X224342380Y-88810000D01*
X224390000Y-88714761D01*
X224485238Y-88619523D01*
X224675714Y-88571904D01*
X225009047Y-88571904D01*
X225199523Y-88619523D01*
X225294761Y-88714761D01*
X225342380Y-88810000D01*
X225342380Y-89000476D01*
X225342380Y-87619523D02*
X225342380Y-88190952D01*
X225342380Y-87905238D02*
X224342380Y-87905238D01*
X224485238Y-88000476D01*
X224580476Y-88095714D01*
X224628095Y-88190952D01*
X224342380Y-87000476D02*
X224342380Y-86905238D01*
X224390000Y-86810000D01*
X224437619Y-86762380D01*
X224532857Y-86714761D01*
X224723333Y-86667142D01*
X224961428Y-86667142D01*
X225151904Y-86714761D01*
X225247142Y-86762380D01*
X225294761Y-86810000D01*
X225342380Y-86905238D01*
X225342380Y-87000476D01*
X225294761Y-87095714D01*
X225247142Y-87143333D01*
X225151904Y-87190952D01*
X224961428Y-87238571D01*
X224723333Y-87238571D01*
X224532857Y-87190952D01*
X224437619Y-87143333D01*
X224390000Y-87095714D01*
X224342380Y-87000476D01*
X224342380Y-85762380D02*
X224342380Y-86238571D01*
X224818571Y-86286190D01*
X224770952Y-86238571D01*
X224723333Y-86143333D01*
X224723333Y-85905238D01*
X224770952Y-85810000D01*
X224818571Y-85762380D01*
X224913809Y-85714761D01*
X225151904Y-85714761D01*
X225247142Y-85762380D01*
X225294761Y-85810000D01*
X225342380Y-85905238D01*
X225342380Y-86143333D01*
X225294761Y-86238571D01*
X225247142Y-86286190D01*
%TO.C,U5*%
X206428095Y-80392380D02*
X206428095Y-81201904D01*
X206475714Y-81297142D01*
X206523333Y-81344761D01*
X206618571Y-81392380D01*
X206809047Y-81392380D01*
X206904285Y-81344761D01*
X206951904Y-81297142D01*
X206999523Y-81201904D01*
X206999523Y-80392380D01*
X207951904Y-80392380D02*
X207475714Y-80392380D01*
X207428095Y-80868571D01*
X207475714Y-80820952D01*
X207570952Y-80773333D01*
X207809047Y-80773333D01*
X207904285Y-80820952D01*
X207951904Y-80868571D01*
X207999523Y-80963809D01*
X207999523Y-81201904D01*
X207951904Y-81297142D01*
X207904285Y-81344761D01*
X207809047Y-81392380D01*
X207570952Y-81392380D01*
X207475714Y-81344761D01*
X207428095Y-81297142D01*
X204594761Y-81106666D02*
X205070952Y-81106666D01*
X204499523Y-81392380D02*
X204832857Y-80392380D01*
X205166190Y-81392380D01*
X205975714Y-81392380D02*
X205499523Y-81392380D01*
X205499523Y-80392380D01*
X206975714Y-81487619D02*
X206880476Y-81440000D01*
X206785238Y-81344761D01*
X206642380Y-81201904D01*
X206547142Y-81154285D01*
X206451904Y-81154285D01*
X206499523Y-81392380D02*
X206404285Y-81344761D01*
X206309047Y-81249523D01*
X206261428Y-81059047D01*
X206261428Y-80725714D01*
X206309047Y-80535238D01*
X206404285Y-80440000D01*
X206499523Y-80392380D01*
X206690000Y-80392380D01*
X206785238Y-80440000D01*
X206880476Y-80535238D01*
X206928095Y-80725714D01*
X206928095Y-81059047D01*
X206880476Y-81249523D01*
X206785238Y-81344761D01*
X206690000Y-81392380D01*
X206499523Y-81392380D01*
X207880476Y-81392380D02*
X207309047Y-81392380D01*
X207594761Y-81392380D02*
X207594761Y-80392380D01*
X207499523Y-80535238D01*
X207404285Y-80630476D01*
X207309047Y-80678095D01*
X208499523Y-80392380D02*
X208594761Y-80392380D01*
X208690000Y-80440000D01*
X208737619Y-80487619D01*
X208785238Y-80582857D01*
X208832857Y-80773333D01*
X208832857Y-81011428D01*
X208785238Y-81201904D01*
X208737619Y-81297142D01*
X208690000Y-81344761D01*
X208594761Y-81392380D01*
X208499523Y-81392380D01*
X208404285Y-81344761D01*
X208356666Y-81297142D01*
X208309047Y-81201904D01*
X208261428Y-81011428D01*
X208261428Y-80773333D01*
X208309047Y-80582857D01*
X208356666Y-80487619D01*
X208404285Y-80440000D01*
X208499523Y-80392380D01*
X209737619Y-80392380D02*
X209261428Y-80392380D01*
X209213809Y-80868571D01*
X209261428Y-80820952D01*
X209356666Y-80773333D01*
X209594761Y-80773333D01*
X209690000Y-80820952D01*
X209737619Y-80868571D01*
X209785238Y-80963809D01*
X209785238Y-81201904D01*
X209737619Y-81297142D01*
X209690000Y-81344761D01*
X209594761Y-81392380D01*
X209356666Y-81392380D01*
X209261428Y-81344761D01*
X209213809Y-81297142D01*
X203380000Y-67599247D02*
X203380000Y-67837343D01*
X203141904Y-67742105D02*
X203380000Y-67837343D01*
X203618095Y-67742105D01*
X203237142Y-68027819D02*
X203380000Y-67837343D01*
X203522857Y-68027819D01*
X203380000Y-67599247D02*
X203380000Y-67837343D01*
X203141904Y-67742105D02*
X203380000Y-67837343D01*
X203618095Y-67742105D01*
X203237142Y-68027819D02*
X203380000Y-67837343D01*
X203522857Y-68027819D01*
%TO.C,U2*%
X182342380Y-104571904D02*
X183151904Y-104571904D01*
X183247142Y-104524285D01*
X183294761Y-104476666D01*
X183342380Y-104381428D01*
X183342380Y-104190952D01*
X183294761Y-104095714D01*
X183247142Y-104048095D01*
X183151904Y-104000476D01*
X182342380Y-104000476D01*
X182437619Y-103571904D02*
X182390000Y-103524285D01*
X182342380Y-103429047D01*
X182342380Y-103190952D01*
X182390000Y-103095714D01*
X182437619Y-103048095D01*
X182532857Y-103000476D01*
X182628095Y-103000476D01*
X182770952Y-103048095D01*
X183342380Y-103619523D01*
X183342380Y-103000476D01*
X183056666Y-106405238D02*
X183056666Y-105929047D01*
X183342380Y-106500476D02*
X182342380Y-106167142D01*
X183342380Y-105833809D01*
X183342380Y-105024285D02*
X183342380Y-105500476D01*
X182342380Y-105500476D01*
X183437619Y-104024285D02*
X183390000Y-104119523D01*
X183294761Y-104214761D01*
X183151904Y-104357619D01*
X183104285Y-104452857D01*
X183104285Y-104548095D01*
X183342380Y-104500476D02*
X183294761Y-104595714D01*
X183199523Y-104690952D01*
X183009047Y-104738571D01*
X182675714Y-104738571D01*
X182485238Y-104690952D01*
X182390000Y-104595714D01*
X182342380Y-104500476D01*
X182342380Y-104310000D01*
X182390000Y-104214761D01*
X182485238Y-104119523D01*
X182675714Y-104071904D01*
X183009047Y-104071904D01*
X183199523Y-104119523D01*
X183294761Y-104214761D01*
X183342380Y-104310000D01*
X183342380Y-104500476D01*
X183342380Y-103119523D02*
X183342380Y-103690952D01*
X183342380Y-103405238D02*
X182342380Y-103405238D01*
X182485238Y-103500476D01*
X182580476Y-103595714D01*
X182628095Y-103690952D01*
X182342380Y-102500476D02*
X182342380Y-102405238D01*
X182390000Y-102310000D01*
X182437619Y-102262380D01*
X182532857Y-102214761D01*
X182723333Y-102167142D01*
X182961428Y-102167142D01*
X183151904Y-102214761D01*
X183247142Y-102262380D01*
X183294761Y-102310000D01*
X183342380Y-102405238D01*
X183342380Y-102500476D01*
X183294761Y-102595714D01*
X183247142Y-102643333D01*
X183151904Y-102690952D01*
X182961428Y-102738571D01*
X182723333Y-102738571D01*
X182532857Y-102690952D01*
X182437619Y-102643333D01*
X182390000Y-102595714D01*
X182342380Y-102500476D01*
X182342380Y-101262380D02*
X182342380Y-101738571D01*
X182818571Y-101786190D01*
X182770952Y-101738571D01*
X182723333Y-101643333D01*
X182723333Y-101405238D01*
X182770952Y-101310000D01*
X182818571Y-101262380D01*
X182913809Y-101214761D01*
X183151904Y-101214761D01*
X183247142Y-101262380D01*
X183294761Y-101310000D01*
X183342380Y-101405238D01*
X183342380Y-101643333D01*
X183294761Y-101738571D01*
X183247142Y-101786190D01*
%TO.C,U6*%
X224342380Y-76571904D02*
X225151904Y-76571904D01*
X225247142Y-76524285D01*
X225294761Y-76476666D01*
X225342380Y-76381428D01*
X225342380Y-76190952D01*
X225294761Y-76095714D01*
X225247142Y-76048095D01*
X225151904Y-76000476D01*
X224342380Y-76000476D01*
X224342380Y-75095714D02*
X224342380Y-75286190D01*
X224390000Y-75381428D01*
X224437619Y-75429047D01*
X224580476Y-75524285D01*
X224770952Y-75571904D01*
X225151904Y-75571904D01*
X225247142Y-75524285D01*
X225294761Y-75476666D01*
X225342380Y-75381428D01*
X225342380Y-75190952D01*
X225294761Y-75095714D01*
X225247142Y-75048095D01*
X225151904Y-75000476D01*
X224913809Y-75000476D01*
X224818571Y-75048095D01*
X224770952Y-75095714D01*
X224723333Y-75190952D01*
X224723333Y-75381428D01*
X224770952Y-75476666D01*
X224818571Y-75524285D01*
X224913809Y-75571904D01*
X225056666Y-78405238D02*
X225056666Y-77929047D01*
X225342380Y-78500476D02*
X224342380Y-78167142D01*
X225342380Y-77833809D01*
X225342380Y-77024285D02*
X225342380Y-77500476D01*
X224342380Y-77500476D01*
X225437619Y-76024285D02*
X225390000Y-76119523D01*
X225294761Y-76214761D01*
X225151904Y-76357619D01*
X225104285Y-76452857D01*
X225104285Y-76548095D01*
X225342380Y-76500476D02*
X225294761Y-76595714D01*
X225199523Y-76690952D01*
X225009047Y-76738571D01*
X224675714Y-76738571D01*
X224485238Y-76690952D01*
X224390000Y-76595714D01*
X224342380Y-76500476D01*
X224342380Y-76310000D01*
X224390000Y-76214761D01*
X224485238Y-76119523D01*
X224675714Y-76071904D01*
X225009047Y-76071904D01*
X225199523Y-76119523D01*
X225294761Y-76214761D01*
X225342380Y-76310000D01*
X225342380Y-76500476D01*
X225342380Y-75119523D02*
X225342380Y-75690952D01*
X225342380Y-75405238D02*
X224342380Y-75405238D01*
X224485238Y-75500476D01*
X224580476Y-75595714D01*
X224628095Y-75690952D01*
X224342380Y-74500476D02*
X224342380Y-74405238D01*
X224390000Y-74310000D01*
X224437619Y-74262380D01*
X224532857Y-74214761D01*
X224723333Y-74167142D01*
X224961428Y-74167142D01*
X225151904Y-74214761D01*
X225247142Y-74262380D01*
X225294761Y-74310000D01*
X225342380Y-74405238D01*
X225342380Y-74500476D01*
X225294761Y-74595714D01*
X225247142Y-74643333D01*
X225151904Y-74690952D01*
X224961428Y-74738571D01*
X224723333Y-74738571D01*
X224532857Y-74690952D01*
X224437619Y-74643333D01*
X224390000Y-74595714D01*
X224342380Y-74500476D01*
X224342380Y-73262380D02*
X224342380Y-73738571D01*
X224818571Y-73786190D01*
X224770952Y-73738571D01*
X224723333Y-73643333D01*
X224723333Y-73405238D01*
X224770952Y-73310000D01*
X224818571Y-73262380D01*
X224913809Y-73214761D01*
X225151904Y-73214761D01*
X225247142Y-73262380D01*
X225294761Y-73310000D01*
X225342380Y-73405238D01*
X225342380Y-73643333D01*
X225294761Y-73738571D01*
X225247142Y-73786190D01*
%TO.C,J6*%
X240436666Y-81152380D02*
X240436666Y-81866666D01*
X240389047Y-82009523D01*
X240293809Y-82104761D01*
X240150952Y-82152380D01*
X240055714Y-82152380D01*
X241341428Y-81152380D02*
X241150952Y-81152380D01*
X241055714Y-81200000D01*
X241008095Y-81247619D01*
X240912857Y-81390476D01*
X240865238Y-81580952D01*
X240865238Y-81961904D01*
X240912857Y-82057142D01*
X240960476Y-82104761D01*
X241055714Y-82152380D01*
X241246190Y-82152380D01*
X241341428Y-82104761D01*
X241389047Y-82057142D01*
X241436666Y-81961904D01*
X241436666Y-81723809D01*
X241389047Y-81628571D01*
X241341428Y-81580952D01*
X241246190Y-81533333D01*
X241055714Y-81533333D01*
X240960476Y-81580952D01*
X240912857Y-81628571D01*
X240865238Y-81723809D01*
%TO.C,R1*%
X229883333Y-122522380D02*
X229550000Y-122046190D01*
X229311904Y-122522380D02*
X229311904Y-121522380D01*
X229692857Y-121522380D01*
X229788095Y-121570000D01*
X229835714Y-121617619D01*
X229883333Y-121712857D01*
X229883333Y-121855714D01*
X229835714Y-121950952D01*
X229788095Y-121998571D01*
X229692857Y-122046190D01*
X229311904Y-122046190D01*
X230835714Y-122522380D02*
X230264285Y-122522380D01*
X230550000Y-122522380D02*
X230550000Y-121522380D01*
X230454761Y-121665238D01*
X230359523Y-121760476D01*
X230264285Y-121808095D01*
%TO.C,J5*%
X163936666Y-83692380D02*
X163936666Y-84406666D01*
X163889047Y-84549523D01*
X163793809Y-84644761D01*
X163650952Y-84692380D01*
X163555714Y-84692380D01*
X164889047Y-83692380D02*
X164412857Y-83692380D01*
X164365238Y-84168571D01*
X164412857Y-84120952D01*
X164508095Y-84073333D01*
X164746190Y-84073333D01*
X164841428Y-84120952D01*
X164889047Y-84168571D01*
X164936666Y-84263809D01*
X164936666Y-84501904D01*
X164889047Y-84597142D01*
X164841428Y-84644761D01*
X164746190Y-84692380D01*
X164508095Y-84692380D01*
X164412857Y-84644761D01*
X164365238Y-84597142D01*
%TO.C,U1*%
X224342380Y-101571904D02*
X225151904Y-101571904D01*
X225247142Y-101524285D01*
X225294761Y-101476666D01*
X225342380Y-101381428D01*
X225342380Y-101190952D01*
X225294761Y-101095714D01*
X225247142Y-101048095D01*
X225151904Y-101000476D01*
X224342380Y-101000476D01*
X225342380Y-100000476D02*
X225342380Y-100571904D01*
X225342380Y-100286190D02*
X224342380Y-100286190D01*
X224485238Y-100381428D01*
X224580476Y-100476666D01*
X224628095Y-100571904D01*
X225056666Y-103405238D02*
X225056666Y-102929047D01*
X225342380Y-103500476D02*
X224342380Y-103167142D01*
X225342380Y-102833809D01*
X225342380Y-102024285D02*
X225342380Y-102500476D01*
X224342380Y-102500476D01*
X225437619Y-101024285D02*
X225390000Y-101119523D01*
X225294761Y-101214761D01*
X225151904Y-101357619D01*
X225104285Y-101452857D01*
X225104285Y-101548095D01*
X225342380Y-101500476D02*
X225294761Y-101595714D01*
X225199523Y-101690952D01*
X225009047Y-101738571D01*
X224675714Y-101738571D01*
X224485238Y-101690952D01*
X224390000Y-101595714D01*
X224342380Y-101500476D01*
X224342380Y-101310000D01*
X224390000Y-101214761D01*
X224485238Y-101119523D01*
X224675714Y-101071904D01*
X225009047Y-101071904D01*
X225199523Y-101119523D01*
X225294761Y-101214761D01*
X225342380Y-101310000D01*
X225342380Y-101500476D01*
X225342380Y-100119523D02*
X225342380Y-100690952D01*
X225342380Y-100405238D02*
X224342380Y-100405238D01*
X224485238Y-100500476D01*
X224580476Y-100595714D01*
X224628095Y-100690952D01*
X224342380Y-99500476D02*
X224342380Y-99405238D01*
X224390000Y-99310000D01*
X224437619Y-99262380D01*
X224532857Y-99214761D01*
X224723333Y-99167142D01*
X224961428Y-99167142D01*
X225151904Y-99214761D01*
X225247142Y-99262380D01*
X225294761Y-99310000D01*
X225342380Y-99405238D01*
X225342380Y-99500476D01*
X225294761Y-99595714D01*
X225247142Y-99643333D01*
X225151904Y-99690952D01*
X224961428Y-99738571D01*
X224723333Y-99738571D01*
X224532857Y-99690952D01*
X224437619Y-99643333D01*
X224390000Y-99595714D01*
X224342380Y-99500476D01*
X224342380Y-98262380D02*
X224342380Y-98738571D01*
X224818571Y-98786190D01*
X224770952Y-98738571D01*
X224723333Y-98643333D01*
X224723333Y-98405238D01*
X224770952Y-98310000D01*
X224818571Y-98262380D01*
X224913809Y-98214761D01*
X225151904Y-98214761D01*
X225247142Y-98262380D01*
X225294761Y-98310000D01*
X225342380Y-98405238D01*
X225342380Y-98643333D01*
X225294761Y-98738571D01*
X225247142Y-98786190D01*
%TO.C,D1*%
X234261904Y-122132380D02*
X234261904Y-121132380D01*
X234500000Y-121132380D01*
X234642857Y-121180000D01*
X234738095Y-121275238D01*
X234785714Y-121370476D01*
X234833333Y-121560952D01*
X234833333Y-121703809D01*
X234785714Y-121894285D01*
X234738095Y-121989523D01*
X234642857Y-122084761D01*
X234500000Y-122132380D01*
X234261904Y-122132380D01*
X235785714Y-122132380D02*
X235214285Y-122132380D01*
X235500000Y-122132380D02*
X235500000Y-121132380D01*
X235404761Y-121275238D01*
X235309523Y-121370476D01*
X235214285Y-121418095D01*
D12*
%TO.C,Ue*%
X193011900Y-87179200D02*
X172768100Y-87179200D01*
X193011900Y-97440800D02*
X193011900Y-87179200D01*
X172768100Y-97440800D02*
X193011900Y-97440800D01*
X172768100Y-87179200D02*
X172768100Y-97440800D01*
%TO.C,J1*%
X166873000Y-113072999D02*
X166873000Y-125326998D01*
X166873000Y-125326998D02*
X182627000Y-125326998D01*
X182627000Y-113072999D02*
X166873000Y-113072999D01*
X182627000Y-125326998D02*
X182627000Y-113072999D01*
X166619000Y-120500000D02*
G75*
G03*
X166619000Y-120500000I-381000J0D01*
G01*
%TO.C,U4*%
X235011900Y-83179200D02*
X214768100Y-83179200D01*
X214768100Y-93440800D02*
X235011900Y-93440800D01*
X235011900Y-93440800D02*
X235011900Y-83179200D01*
X214768100Y-83179200D02*
X214768100Y-93440800D01*
%TO.C,U5*%
X202059200Y-70818100D02*
X202059200Y-91061900D01*
X212320800Y-91061900D02*
X212320800Y-70818100D01*
X212320800Y-70818100D02*
X202059200Y-70818100D01*
X202059200Y-91061900D02*
X212320800Y-91061900D01*
%TO.C,J7*%
X166873000Y-70673002D02*
X166873000Y-82927001D01*
X166873000Y-82927001D02*
X182627000Y-82927001D01*
X182627000Y-70673002D02*
X166873000Y-70673002D01*
X182627000Y-82927001D02*
X182627000Y-70673002D01*
X183643000Y-75500000D02*
G75*
G03*
X183643000Y-75500000I-381000J0D01*
G01*
%TO.C,U2*%
X193011900Y-98679200D02*
X172768100Y-98679200D01*
X172768100Y-108940800D02*
X193011900Y-108940800D01*
X172768100Y-98679200D02*
X172768100Y-108940800D01*
X193011900Y-108940800D02*
X193011900Y-98679200D01*
%TO.C,U6*%
X214768100Y-70679200D02*
X214768100Y-80940800D01*
X214768100Y-80940800D02*
X235011900Y-80940800D01*
X235011900Y-70679200D02*
X214768100Y-70679200D01*
X235011900Y-80940800D02*
X235011900Y-70679200D01*
%TO.C,J6*%
X238170000Y-85300000D02*
X238170000Y-113300000D01*
X238170000Y-84030000D02*
X238170000Y-82700000D01*
X238170000Y-82700000D02*
X239500000Y-82700000D01*
X243370000Y-82700000D02*
X243370000Y-113300000D01*
X238170000Y-113300000D02*
X243370000Y-113300000D01*
X238170000Y-85300000D02*
X240770000Y-85300000D01*
X240770000Y-85300000D02*
X240770000Y-82700000D01*
X240770000Y-82700000D02*
X243370000Y-82700000D01*
%TO.C,J*%
X200373000Y-113072999D02*
X200373000Y-125326998D01*
X216127000Y-125326998D02*
X216127000Y-113072999D01*
X216127000Y-113072999D02*
X200373000Y-113072999D01*
X200373000Y-125326998D02*
X216127000Y-125326998D01*
X200119000Y-120500000D02*
G75*
G03*
X200119000Y-120500000I-381000J0D01*
G01*
%TO.C,R1*%
X229812742Y-122977500D02*
X230287258Y-122977500D01*
X229812742Y-124022500D02*
X230287258Y-124022500D01*
%TO.C,J2*%
X199377000Y-113072999D02*
X183623000Y-113072999D01*
X199377000Y-125326998D02*
X199377000Y-113072999D01*
X183623000Y-125326998D02*
X199377000Y-125326998D01*
X183623000Y-113072999D02*
X183623000Y-125326998D01*
X183369000Y-120500000D02*
G75*
G03*
X183369000Y-120500000I-381000J0D01*
G01*
%TO.C,J4*%
X199377000Y-82927001D02*
X199377000Y-70673002D01*
X183623000Y-82927001D02*
X199377000Y-82927001D01*
X199377000Y-70673002D02*
X183623000Y-70673002D01*
X183623000Y-70673002D02*
X183623000Y-82927001D01*
X200393000Y-75500000D02*
G75*
G03*
X200393000Y-75500000I-381000J0D01*
G01*
%TO.C,J5*%
X161670000Y-87840000D02*
X161670000Y-110760000D01*
X164270000Y-87840000D02*
X164270000Y-85240000D01*
X161670000Y-110760000D02*
X166870000Y-110760000D01*
X161670000Y-87840000D02*
X164270000Y-87840000D01*
X161670000Y-86570000D02*
X161670000Y-85240000D01*
X161670000Y-85240000D02*
X163000000Y-85240000D01*
X166870000Y-85240000D02*
X166870000Y-110760000D01*
X164270000Y-85240000D02*
X166870000Y-85240000D01*
%TO.C,U1*%
X214768100Y-105940800D02*
X235011900Y-105940800D01*
X235011900Y-105940800D02*
X235011900Y-95679200D01*
X214768100Y-95679200D02*
X214768100Y-105940800D01*
X235011900Y-95679200D02*
X214768100Y-95679200D01*
%TO.C,D1*%
X232715000Y-122365000D02*
X232715000Y-124635000D01*
X236600000Y-122365000D02*
X232715000Y-122365000D01*
X232715000Y-124635000D02*
X236600000Y-124635000D01*
%TD*%
M02*
