%TF.GenerationSoftware,KiCad,Pcbnew,(6.0.4)*%
%TF.CreationDate,2022-03-25T16:17:33-04:00*%
%TF.ProjectId,relay_board,72656c61-795f-4626-9f61-72642e6b6963,rev?*%
%TF.SameCoordinates,Original*%
%TF.FileFunction,Copper,L2,Bot*%
%TF.FilePolarity,Positive*%
%FSLAX46Y46*%
G04 Gerber Fmt 4.6, Leading zero omitted, Abs format (unit mm)*
G04 Created by KiCad (PCBNEW (6.0.4)) date 2022-03-25 16:17:33*
%MOMM*%
%LPD*%
G01*
G04 APERTURE LIST*
%TA.AperFunction,ComponentPad*%
%ADD10C,1.549400*%
%TD*%
%TA.AperFunction,ComponentPad*%
%ADD11C,1.498600*%
%TD*%
%TA.AperFunction,ComponentPad*%
%ADD12R,1.700000X1.700000*%
%TD*%
%TA.AperFunction,ComponentPad*%
%ADD13O,1.700000X1.700000*%
%TD*%
%TA.AperFunction,Conductor*%
%ADD14C,0.250000*%
%TD*%
G04 APERTURE END LIST*
D10*
%TO.P,Ue,1,1*%
%TO.N,/Ch2A*%
X174000000Y-88500000D03*
%TO.P,Ue,2,2*%
%TO.N,/Ch2*%
X181620000Y-88500000D03*
%TO.P,Ue,3,3*%
%TO.N,/R1*%
X191780000Y-88500000D03*
%TO.P,Ue,4,4*%
%TO.N,/GND*%
X191780000Y-96120000D03*
%TO.P,Ue,5,5*%
%TO.N,/Ch2B*%
X176540000Y-96120000D03*
%TD*%
D11*
%TO.P,J1,1,Pin_1*%
%TO.N,/Ch1*%
X169500000Y-120500000D03*
%TO.P,J1,2,Pin_2*%
%TO.N,/Ch1A*%
X173000001Y-120500000D03*
%TO.P,J1,3,Pin_3*%
%TO.N,/Ch1B*%
X176500001Y-120500000D03*
%TO.P,J1,4,Pin_4*%
%TO.N,/Ch2*%
X180000002Y-120500000D03*
%TD*%
D10*
%TO.P,U4,1,1*%
%TO.N,/Ch5A*%
X216000000Y-84500000D03*
%TO.P,U4,2,2*%
%TO.N,/Ch5*%
X223620000Y-84500000D03*
%TO.P,U4,3,3*%
%TO.N,/R4*%
X233780000Y-84500000D03*
%TO.P,U4,4,4*%
%TO.N,/GND*%
X233780000Y-92120000D03*
%TO.P,U4,5,5*%
%TO.N,/Ch5B*%
X218540000Y-92120000D03*
%TD*%
%TO.P,U5,5,5*%
%TO.N,/Ch3B*%
X203380000Y-74590000D03*
%TO.P,U5,4,4*%
%TO.N,/GND*%
X203380000Y-89830000D03*
%TO.P,U5,3,3*%
%TO.N,/R2*%
X211000000Y-89830000D03*
%TO.P,U5,2,2*%
%TO.N,/Ch3*%
X211000000Y-79670000D03*
%TO.P,U5,1,1*%
%TO.N,/Ch3A*%
X211000000Y-72050000D03*
%TD*%
D11*
%TO.P,J7,1,Pin_1*%
%TO.N,/Ch6A*%
X180000000Y-75500000D03*
%TO.P,J7,2,Pin_2*%
%TO.N,/Ch6B*%
X176499999Y-75500000D03*
%TO.P,J7,3,Pin_3*%
%TO.N,/VCC*%
X172999999Y-75500000D03*
%TO.P,J7,4,Pin_4*%
%TO.N,/GND*%
X169499998Y-75500000D03*
%TD*%
D10*
%TO.P,U2,1,1*%
%TO.N,/Ch4A*%
X174000000Y-100000000D03*
%TO.P,U2,2,2*%
%TO.N,/Ch4*%
X181620000Y-100000000D03*
%TO.P,U2,3,3*%
%TO.N,/R3*%
X191780000Y-100000000D03*
%TO.P,U2,4,4*%
%TO.N,/GND*%
X191780000Y-107620000D03*
%TO.P,U2,5,5*%
%TO.N,/Ch4B*%
X176540000Y-107620000D03*
%TD*%
%TO.P,U6,1,1*%
%TO.N,/Ch6A*%
X216000000Y-72000000D03*
%TO.P,U6,2,2*%
%TO.N,/Ch6*%
X223620000Y-72000000D03*
%TO.P,U6,3,3*%
%TO.N,/R5*%
X233780000Y-72000000D03*
%TO.P,U6,4,4*%
%TO.N,/GND*%
X233780000Y-79620000D03*
%TO.P,U6,5,5*%
%TO.N,/Ch6B*%
X218540000Y-79620000D03*
%TD*%
D12*
%TO.P,J6,1,Pin_1*%
%TO.N,unconnected-(J6-Pad1)*%
X239500000Y-84030000D03*
D13*
%TO.P,J6,2,Pin_2*%
%TO.N,/R3*%
X242040000Y-84030000D03*
%TO.P,J6,3,Pin_3*%
%TO.N,unconnected-(J6-Pad3)*%
X239500000Y-86570000D03*
%TO.P,J6,4,Pin_4*%
%TO.N,unconnected-(J6-Pad4)*%
X242040000Y-86570000D03*
%TO.P,J6,5,Pin_5*%
%TO.N,/GND*%
X239500000Y-89110000D03*
%TO.P,J6,6,Pin_6*%
%TO.N,unconnected-(J6-Pad6)*%
X242040000Y-89110000D03*
%TO.P,J6,7,Pin_7*%
%TO.N,unconnected-(J6-Pad7)*%
X239500000Y-91650000D03*
%TO.P,J6,8,Pin_8*%
%TO.N,unconnected-(J6-Pad8)*%
X242040000Y-91650000D03*
%TO.P,J6,9,Pin_9*%
%TO.N,unconnected-(J6-Pad9)*%
X239500000Y-94190000D03*
%TO.P,J6,10,Pin_10*%
%TO.N,/GND*%
X242040000Y-94190000D03*
%TO.P,J6,11,Pin_11*%
%TO.N,unconnected-(J6-Pad11)*%
X239500000Y-96730000D03*
%TO.P,J6,12,Pin_12*%
%TO.N,unconnected-(J6-Pad12)*%
X242040000Y-96730000D03*
%TO.P,J6,13,Pin_13*%
%TO.N,unconnected-(J6-Pad13)*%
X239500000Y-99270000D03*
%TO.P,J6,14,Pin_14*%
%TO.N,/GND*%
X242040000Y-99270000D03*
%TO.P,J6,15,Pin_15*%
%TO.N,unconnected-(J6-Pad15)*%
X239500000Y-101810000D03*
%TO.P,J6,16,Pin_16*%
%TO.N,unconnected-(J6-Pad16)*%
X242040000Y-101810000D03*
%TO.P,J6,17,Pin_17*%
%TO.N,/R4*%
X239500000Y-104350000D03*
%TO.P,J6,18,Pin_18*%
%TO.N,unconnected-(J6-Pad18)*%
X242040000Y-104350000D03*
%TO.P,J6,19,Pin_19*%
%TO.N,/GND*%
X239500000Y-106890000D03*
%TO.P,J6,20,Pin_20*%
%TO.N,unconnected-(J6-Pad20)*%
X242040000Y-106890000D03*
%TO.P,J6,21,Pin_21*%
%TO.N,unconnected-(J6-Pad21)*%
X239500000Y-109430000D03*
%TO.P,J6,22,Pin_22*%
%TO.N,/Reset*%
X242040000Y-109430000D03*
%TO.P,J6,23,Pin_23*%
%TO.N,/VCC*%
X239500000Y-111970000D03*
%TO.P,J6,24,Pin_24*%
X242040000Y-111970000D03*
%TD*%
D11*
%TO.P,J,1,Pin_1*%
%TO.N,/Ch3B*%
X203000000Y-120500000D03*
%TO.P,J,2,Pin_2*%
%TO.N,/Ch4*%
X206500001Y-120500000D03*
%TO.P,J,3,Pin_3*%
%TO.N,/Ch4A*%
X210000001Y-120500000D03*
%TO.P,J,4,Pin_4*%
%TO.N,/Ch4B*%
X213500002Y-120500000D03*
%TD*%
%TO.P,J2,1,Pin_1*%
%TO.N,/Ch2A*%
X186250000Y-120500000D03*
%TO.P,J2,2,Pin_2*%
%TO.N,/Ch2B*%
X189750001Y-120500000D03*
%TO.P,J2,3,Pin_3*%
%TO.N,/Ch3*%
X193250001Y-120500000D03*
%TO.P,J2,4,Pin_4*%
%TO.N,/Ch3A*%
X196750002Y-120500000D03*
%TD*%
%TO.P,J4,1,Pin_1*%
%TO.N,/Ch5*%
X196750000Y-75500000D03*
%TO.P,J4,2,Pin_2*%
%TO.N,/Ch5A*%
X193249999Y-75500000D03*
%TO.P,J4,3,Pin_3*%
%TO.N,/Ch5B*%
X189749999Y-75500000D03*
%TO.P,J4,4,Pin_4*%
%TO.N,/Ch6*%
X186249998Y-75500000D03*
%TD*%
D12*
%TO.P,J5,1,Pin_1*%
%TO.N,unconnected-(J5-Pad1)*%
X163000000Y-86570000D03*
D13*
%TO.P,J5,2,Pin_2*%
%TO.N,unconnected-(J5-Pad2)*%
X165540000Y-86570000D03*
%TO.P,J5,3,Pin_3*%
%TO.N,unconnected-(J5-Pad3)*%
X163000000Y-89110000D03*
%TO.P,J5,4,Pin_4*%
%TO.N,unconnected-(J5-Pad4)*%
X165540000Y-89110000D03*
%TO.P,J5,5,Pin_5*%
%TO.N,unconnected-(J5-Pad5)*%
X163000000Y-91650000D03*
%TO.P,J5,6,Pin_6*%
%TO.N,/GND*%
X165540000Y-91650000D03*
%TO.P,J5,7,Pin_7*%
%TO.N,unconnected-(J5-Pad7)*%
X163000000Y-94190000D03*
%TO.P,J5,8,Pin_8*%
%TO.N,unconnected-(J5-Pad8)*%
X165540000Y-94190000D03*
%TO.P,J5,9,Pin_9*%
%TO.N,/GND*%
X163000000Y-96730000D03*
%TO.P,J5,10,Pin_10*%
%TO.N,unconnected-(J5-Pad10)*%
X165540000Y-96730000D03*
%TO.P,J5,11,Pin_11*%
%TO.N,unconnected-(J5-Pad11)*%
X163000000Y-99270000D03*
%TO.P,J5,12,Pin_12*%
%TO.N,unconnected-(J5-Pad12)*%
X165540000Y-99270000D03*
%TO.P,J5,13,Pin_13*%
%TO.N,/R5*%
X163000000Y-101810000D03*
%TO.P,J5,14,Pin_14*%
%TO.N,/GND*%
X165540000Y-101810000D03*
%TO.P,J5,15,Pin_15*%
%TO.N,/R0*%
X163000000Y-104350000D03*
%TO.P,J5,16,Pin_16*%
%TO.N,/R1*%
X165540000Y-104350000D03*
%TO.P,J5,17,Pin_17*%
%TO.N,unconnected-(J5-Pad17)*%
X163000000Y-106890000D03*
%TO.P,J5,18,Pin_18*%
%TO.N,/R2*%
X165540000Y-106890000D03*
%TO.P,J5,19,Pin_19*%
%TO.N,unconnected-(J5-Pad19)*%
X163000000Y-109430000D03*
%TO.P,J5,20,Pin_20*%
%TO.N,/GND*%
X165540000Y-109430000D03*
%TD*%
D10*
%TO.P,U1,1,1*%
%TO.N,/Ch1A*%
X216000000Y-97000000D03*
%TO.P,U1,2,2*%
%TO.N,/Ch1*%
X223620000Y-97000000D03*
%TO.P,U1,3,3*%
%TO.N,/R0*%
X233780000Y-97000000D03*
%TO.P,U1,4,4*%
%TO.N,/GND*%
X233780000Y-104620000D03*
%TO.P,U1,5,5*%
%TO.N,/Ch1B*%
X218540000Y-104620000D03*
%TD*%
D14*
%TO.N,/VCC*%
X177569900Y-70930100D02*
X173000000Y-75500000D01*
X211679300Y-70930100D02*
X177569900Y-70930100D01*
X225932300Y-85183100D02*
X211679300Y-70930100D01*
X225932300Y-98328800D02*
X225932300Y-85183100D01*
X238398200Y-110794700D02*
X225932300Y-98328800D01*
X239500000Y-110794700D02*
X238398200Y-110794700D01*
X239500000Y-111970000D02*
X239500000Y-110794700D01*
%TO.N,/R4*%
X238324700Y-89044700D02*
X233780000Y-84500000D01*
X238324700Y-102366800D02*
X238324700Y-89044700D01*
X239132600Y-103174700D02*
X238324700Y-102366800D01*
X239500000Y-103174700D02*
X239132600Y-103174700D01*
X239500000Y-104350000D02*
X239500000Y-103174700D01*
%TO.N,/Ch5B*%
X218540000Y-85010100D02*
X218540000Y-92120000D01*
X206994300Y-73464400D02*
X218540000Y-85010100D01*
X191785600Y-73464400D02*
X206994300Y-73464400D01*
X189750000Y-75500000D02*
X191785600Y-73464400D01*
%TO.N,/Ch4B*%
X211066400Y-122933600D02*
X213500000Y-120500000D01*
X190017600Y-122933600D02*
X211066400Y-122933600D01*
X187612200Y-120528200D02*
X190017600Y-122933600D01*
X187612200Y-118692200D02*
X187612200Y-120528200D01*
X176540000Y-107620000D02*
X187612200Y-118692200D01*
%TO.N,/Ch4A*%
X208021500Y-122478500D02*
X210000000Y-120500000D01*
X190208700Y-122478500D02*
X208021500Y-122478500D01*
X188236900Y-120506700D02*
X190208700Y-122478500D01*
X188236900Y-114236900D02*
X188236900Y-120506700D01*
X174000000Y-100000000D02*
X188236900Y-114236900D01*
%TO.N,/Ch4*%
X191673000Y-110053000D02*
X181620000Y-100000000D01*
X191673000Y-120487900D02*
X191673000Y-110053000D01*
X193213300Y-122028200D02*
X191673000Y-120487900D01*
X204971800Y-122028200D02*
X193213300Y-122028200D01*
X206500000Y-120500000D02*
X204971800Y-122028200D01*
%TO.N,/Ch3B*%
X212133600Y-111366400D02*
X203000000Y-120500000D01*
X212133600Y-79240600D02*
X212133600Y-111366400D01*
X207483000Y-74590000D02*
X212133600Y-79240600D01*
X203380000Y-74590000D02*
X207483000Y-74590000D01*
%TO.N,/Ch3A*%
X197827800Y-121577800D02*
X196750000Y-120500000D01*
X203447800Y-121577800D02*
X197827800Y-121577800D01*
X219689800Y-105335800D02*
X203447800Y-121577800D01*
X219689800Y-84995500D02*
X219689800Y-105335800D01*
X211000000Y-76305700D02*
X219689800Y-84995500D01*
X211000000Y-72050000D02*
X211000000Y-76305700D01*
%TO.N,/Ch3*%
X193250000Y-97420000D02*
X211000000Y-79670000D01*
X193250000Y-120500000D02*
X193250000Y-97420000D01*
%TO.N,/Ch2B*%
X189750000Y-112987000D02*
X189750000Y-120500000D01*
X176540000Y-99777000D02*
X189750000Y-112987000D01*
X176540000Y-96120000D02*
X176540000Y-99777000D01*
%TO.N,/Ch2A*%
X172433200Y-90066800D02*
X174000000Y-88500000D01*
X172433200Y-114508600D02*
X172433200Y-90066800D01*
X179499200Y-121574600D02*
X172433200Y-114508600D01*
X185175400Y-121574600D02*
X179499200Y-121574600D01*
X186250000Y-120500000D02*
X185175400Y-121574600D01*
%TO.N,/Ch2*%
X172883900Y-97236100D02*
X181620000Y-88500000D01*
X172883900Y-113383900D02*
X172883900Y-97236100D01*
X180000000Y-120500000D02*
X172883900Y-113383900D01*
%TD*%
%TA.AperFunction,Conductor*%
%TO.N,/GND*%
G36*
X176859527Y-70528502D02*
G01*
X176906020Y-70582158D01*
X176916124Y-70652432D01*
X176886630Y-70717012D01*
X176880502Y-70723594D01*
X175118848Y-72485247D01*
X173371851Y-74232244D01*
X173309539Y-74266270D01*
X173250147Y-74264856D01*
X173219248Y-74256577D01*
X173213781Y-74256099D01*
X173213777Y-74256098D01*
X173005474Y-74237874D01*
X172999999Y-74237395D01*
X172780750Y-74256577D01*
X172775436Y-74258001D01*
X172775435Y-74258001D01*
X172573473Y-74312116D01*
X172573471Y-74312117D01*
X172568163Y-74313539D01*
X172563183Y-74315861D01*
X172563181Y-74315862D01*
X172373678Y-74404229D01*
X172373675Y-74404231D01*
X172368697Y-74406552D01*
X172188412Y-74532788D01*
X172032787Y-74688413D01*
X171906551Y-74868698D01*
X171904230Y-74873676D01*
X171904228Y-74873679D01*
X171828751Y-75035539D01*
X171813538Y-75068164D01*
X171756576Y-75280751D01*
X171737394Y-75500000D01*
X171756576Y-75719249D01*
X171758000Y-75724563D01*
X171758000Y-75724564D01*
X171778326Y-75800420D01*
X171813538Y-75931836D01*
X171815860Y-75936816D01*
X171815861Y-75936818D01*
X171882722Y-76080200D01*
X171906551Y-76131302D01*
X172032787Y-76311587D01*
X172188412Y-76467212D01*
X172192920Y-76470369D01*
X172192923Y-76470371D01*
X172323318Y-76561674D01*
X172368696Y-76593448D01*
X172373678Y-76595771D01*
X172373683Y-76595774D01*
X172562169Y-76683666D01*
X172568163Y-76686461D01*
X172573471Y-76687883D01*
X172573473Y-76687884D01*
X172775435Y-76741999D01*
X172775436Y-76741999D01*
X172780750Y-76743423D01*
X172999999Y-76762605D01*
X173219248Y-76743423D01*
X173224562Y-76741999D01*
X173224563Y-76741999D01*
X173426525Y-76687884D01*
X173426527Y-76687883D01*
X173431835Y-76686461D01*
X173437829Y-76683666D01*
X173626315Y-76595774D01*
X173626320Y-76595771D01*
X173631302Y-76593448D01*
X173676680Y-76561674D01*
X173807075Y-76470371D01*
X173807078Y-76470369D01*
X173811586Y-76467212D01*
X173967211Y-76311587D01*
X174093447Y-76131302D01*
X174117277Y-76080200D01*
X174184137Y-75936818D01*
X174184138Y-75936816D01*
X174186460Y-75931836D01*
X174221673Y-75800420D01*
X174241998Y-75724564D01*
X174241998Y-75724563D01*
X174243422Y-75719249D01*
X174262604Y-75500000D01*
X175237394Y-75500000D01*
X175256576Y-75719249D01*
X175258000Y-75724563D01*
X175258000Y-75724564D01*
X175278326Y-75800420D01*
X175313538Y-75931836D01*
X175315860Y-75936816D01*
X175315861Y-75936818D01*
X175382722Y-76080200D01*
X175406551Y-76131302D01*
X175532787Y-76311587D01*
X175688412Y-76467212D01*
X175692920Y-76470369D01*
X175692923Y-76470371D01*
X175823318Y-76561674D01*
X175868696Y-76593448D01*
X175873678Y-76595771D01*
X175873683Y-76595774D01*
X176062169Y-76683666D01*
X176068163Y-76686461D01*
X176073471Y-76687883D01*
X176073473Y-76687884D01*
X176275435Y-76741999D01*
X176275436Y-76741999D01*
X176280750Y-76743423D01*
X176499999Y-76762605D01*
X176719248Y-76743423D01*
X176724562Y-76741999D01*
X176724563Y-76741999D01*
X176926525Y-76687884D01*
X176926527Y-76687883D01*
X176931835Y-76686461D01*
X176937829Y-76683666D01*
X177126315Y-76595774D01*
X177126320Y-76595771D01*
X177131302Y-76593448D01*
X177176680Y-76561674D01*
X177307075Y-76470371D01*
X177307078Y-76470369D01*
X177311586Y-76467212D01*
X177467211Y-76311587D01*
X177593447Y-76131302D01*
X177617277Y-76080200D01*
X177684137Y-75936818D01*
X177684138Y-75936816D01*
X177686460Y-75931836D01*
X177721673Y-75800420D01*
X177741998Y-75724564D01*
X177741998Y-75724563D01*
X177743422Y-75719249D01*
X177762604Y-75500000D01*
X178737395Y-75500000D01*
X178756577Y-75719249D01*
X178758001Y-75724563D01*
X178758001Y-75724564D01*
X178778327Y-75800420D01*
X178813539Y-75931836D01*
X178815861Y-75936816D01*
X178815862Y-75936818D01*
X178882723Y-76080200D01*
X178906552Y-76131302D01*
X179032788Y-76311587D01*
X179188413Y-76467212D01*
X179192921Y-76470369D01*
X179192924Y-76470371D01*
X179323319Y-76561674D01*
X179368697Y-76593448D01*
X179373679Y-76595771D01*
X179373684Y-76595774D01*
X179562170Y-76683666D01*
X179568164Y-76686461D01*
X179573472Y-76687883D01*
X179573474Y-76687884D01*
X179775436Y-76741999D01*
X179775437Y-76741999D01*
X179780751Y-76743423D01*
X180000000Y-76762605D01*
X180219249Y-76743423D01*
X180224563Y-76741999D01*
X180224564Y-76741999D01*
X180426526Y-76687884D01*
X180426528Y-76687883D01*
X180431836Y-76686461D01*
X180437830Y-76683666D01*
X180626316Y-76595774D01*
X180626321Y-76595771D01*
X180631303Y-76593448D01*
X180676681Y-76561674D01*
X180807076Y-76470371D01*
X180807079Y-76470369D01*
X180811587Y-76467212D01*
X180967212Y-76311587D01*
X181093448Y-76131302D01*
X181117278Y-76080200D01*
X181184138Y-75936818D01*
X181184139Y-75936816D01*
X181186461Y-75931836D01*
X181221674Y-75800420D01*
X181241999Y-75724564D01*
X181241999Y-75724563D01*
X181243423Y-75719249D01*
X181262605Y-75500000D01*
X184987393Y-75500000D01*
X185006575Y-75719249D01*
X185007999Y-75724563D01*
X185007999Y-75724564D01*
X185028325Y-75800420D01*
X185063537Y-75931836D01*
X185065859Y-75936816D01*
X185065860Y-75936818D01*
X185132721Y-76080200D01*
X185156550Y-76131302D01*
X185282786Y-76311587D01*
X185438411Y-76467212D01*
X185442919Y-76470369D01*
X185442922Y-76470371D01*
X185573317Y-76561674D01*
X185618695Y-76593448D01*
X185623677Y-76595771D01*
X185623682Y-76595774D01*
X185812168Y-76683666D01*
X185818162Y-76686461D01*
X185823470Y-76687883D01*
X185823472Y-76687884D01*
X186025434Y-76741999D01*
X186025435Y-76741999D01*
X186030749Y-76743423D01*
X186249998Y-76762605D01*
X186469247Y-76743423D01*
X186474561Y-76741999D01*
X186474562Y-76741999D01*
X186676524Y-76687884D01*
X186676526Y-76687883D01*
X186681834Y-76686461D01*
X186687828Y-76683666D01*
X186876314Y-76595774D01*
X186876319Y-76595771D01*
X186881301Y-76593448D01*
X186926679Y-76561674D01*
X187057074Y-76470371D01*
X187057077Y-76470369D01*
X187061585Y-76467212D01*
X187217210Y-76311587D01*
X187343446Y-76131302D01*
X187367276Y-76080200D01*
X187434136Y-75936818D01*
X187434137Y-75936816D01*
X187436459Y-75931836D01*
X187471672Y-75800420D01*
X187491997Y-75724564D01*
X187491997Y-75724563D01*
X187493421Y-75719249D01*
X187512603Y-75500000D01*
X187493421Y-75280751D01*
X187436459Y-75068164D01*
X187421246Y-75035539D01*
X187345769Y-74873679D01*
X187345767Y-74873676D01*
X187343446Y-74868698D01*
X187217210Y-74688413D01*
X187061585Y-74532788D01*
X187057077Y-74529631D01*
X187057074Y-74529629D01*
X186885810Y-74409709D01*
X186885807Y-74409707D01*
X186881301Y-74406552D01*
X186876319Y-74404229D01*
X186876314Y-74404226D01*
X186686816Y-74315862D01*
X186686815Y-74315861D01*
X186681834Y-74313539D01*
X186676526Y-74312117D01*
X186676524Y-74312116D01*
X186474562Y-74258001D01*
X186474561Y-74258001D01*
X186469247Y-74256577D01*
X186249998Y-74237395D01*
X186030749Y-74256577D01*
X186025435Y-74258001D01*
X186025434Y-74258001D01*
X185823472Y-74312116D01*
X185823470Y-74312117D01*
X185818162Y-74313539D01*
X185813182Y-74315861D01*
X185813180Y-74315862D01*
X185623677Y-74404229D01*
X185623674Y-74404231D01*
X185618696Y-74406552D01*
X185438411Y-74532788D01*
X185282786Y-74688413D01*
X185156550Y-74868698D01*
X185154229Y-74873676D01*
X185154227Y-74873679D01*
X185078750Y-75035539D01*
X185063537Y-75068164D01*
X185006575Y-75280751D01*
X184987393Y-75500000D01*
X181262605Y-75500000D01*
X181243423Y-75280751D01*
X181186461Y-75068164D01*
X181171248Y-75035539D01*
X181095771Y-74873679D01*
X181095769Y-74873676D01*
X181093448Y-74868698D01*
X180967212Y-74688413D01*
X180811587Y-74532788D01*
X180807079Y-74529631D01*
X180807076Y-74529629D01*
X180635812Y-74409709D01*
X180635809Y-74409707D01*
X180631303Y-74406552D01*
X180626321Y-74404229D01*
X180626316Y-74404226D01*
X180436818Y-74315862D01*
X180436817Y-74315861D01*
X180431836Y-74313539D01*
X180426528Y-74312117D01*
X180426526Y-74312116D01*
X180224564Y-74258001D01*
X180224563Y-74258001D01*
X180219249Y-74256577D01*
X180000000Y-74237395D01*
X179780751Y-74256577D01*
X179775437Y-74258001D01*
X179775436Y-74258001D01*
X179573474Y-74312116D01*
X179573472Y-74312117D01*
X179568164Y-74313539D01*
X179563184Y-74315861D01*
X179563182Y-74315862D01*
X179373679Y-74404229D01*
X179373676Y-74404231D01*
X179368698Y-74406552D01*
X179188413Y-74532788D01*
X179032788Y-74688413D01*
X178906552Y-74868698D01*
X178904231Y-74873676D01*
X178904229Y-74873679D01*
X178828752Y-75035539D01*
X178813539Y-75068164D01*
X178756577Y-75280751D01*
X178737395Y-75500000D01*
X177762604Y-75500000D01*
X177743422Y-75280751D01*
X177686460Y-75068164D01*
X177671247Y-75035539D01*
X177595770Y-74873679D01*
X177595768Y-74873676D01*
X177593447Y-74868698D01*
X177467211Y-74688413D01*
X177311586Y-74532788D01*
X177307078Y-74529631D01*
X177307075Y-74529629D01*
X177135811Y-74409709D01*
X177135808Y-74409707D01*
X177131302Y-74406552D01*
X177126320Y-74404229D01*
X177126315Y-74404226D01*
X176936817Y-74315862D01*
X176936816Y-74315861D01*
X176931835Y-74313539D01*
X176926527Y-74312117D01*
X176926525Y-74312116D01*
X176724563Y-74258001D01*
X176724562Y-74258001D01*
X176719248Y-74256577D01*
X176499999Y-74237395D01*
X176280750Y-74256577D01*
X176275436Y-74258001D01*
X176275435Y-74258001D01*
X176073473Y-74312116D01*
X176073471Y-74312117D01*
X176068163Y-74313539D01*
X176063183Y-74315861D01*
X176063181Y-74315862D01*
X175873678Y-74404229D01*
X175873675Y-74404231D01*
X175868697Y-74406552D01*
X175688412Y-74532788D01*
X175532787Y-74688413D01*
X175406551Y-74868698D01*
X175404230Y-74873676D01*
X175404228Y-74873679D01*
X175328751Y-75035539D01*
X175313538Y-75068164D01*
X175256576Y-75280751D01*
X175237394Y-75500000D01*
X174262604Y-75500000D01*
X174243422Y-75280751D01*
X174235144Y-75249857D01*
X174236832Y-75178880D01*
X174267755Y-75128149D01*
X177795399Y-71600505D01*
X177857711Y-71566479D01*
X177884494Y-71563600D01*
X209637657Y-71563600D01*
X209705778Y-71583602D01*
X209752271Y-71637258D01*
X209762375Y-71707532D01*
X209759365Y-71722208D01*
X209731467Y-71826323D01*
X209711898Y-72050000D01*
X209731467Y-72273677D01*
X209789580Y-72490557D01*
X209791902Y-72495538D01*
X209791903Y-72495539D01*
X209882145Y-72689064D01*
X209882148Y-72689069D01*
X209884471Y-72694051D01*
X209887628Y-72698559D01*
X210008166Y-72870705D01*
X210013257Y-72877976D01*
X210172024Y-73036743D01*
X210176532Y-73039900D01*
X210176535Y-73039902D01*
X210201499Y-73057382D01*
X210312772Y-73135296D01*
X210357099Y-73190752D01*
X210366500Y-73238508D01*
X210366500Y-75636505D01*
X210346498Y-75704626D01*
X210292842Y-75751119D01*
X210222568Y-75761223D01*
X210157988Y-75731729D01*
X210151405Y-75725600D01*
X207497952Y-73072147D01*
X207490412Y-73063861D01*
X207486300Y-73057382D01*
X207436648Y-73010756D01*
X207433807Y-73008002D01*
X207414070Y-72988265D01*
X207410873Y-72985785D01*
X207401851Y-72978080D01*
X207388422Y-72965469D01*
X207369621Y-72947814D01*
X207362675Y-72943995D01*
X207362672Y-72943993D01*
X207351866Y-72938052D01*
X207335347Y-72927201D01*
X207334883Y-72926841D01*
X207319341Y-72914786D01*
X207312072Y-72911641D01*
X207312068Y-72911638D01*
X207278763Y-72897226D01*
X207268113Y-72892009D01*
X207229360Y-72870705D01*
X207209737Y-72865667D01*
X207191034Y-72859263D01*
X207179720Y-72854367D01*
X207179719Y-72854367D01*
X207172445Y-72851219D01*
X207164622Y-72849980D01*
X207164612Y-72849977D01*
X207128776Y-72844301D01*
X207117156Y-72841895D01*
X207082011Y-72832872D01*
X207082010Y-72832872D01*
X207074330Y-72830900D01*
X207054076Y-72830900D01*
X207034365Y-72829349D01*
X207025697Y-72827976D01*
X207014357Y-72826180D01*
X206985086Y-72828947D01*
X206970339Y-72830341D01*
X206958481Y-72830900D01*
X191864367Y-72830900D01*
X191853184Y-72830373D01*
X191845691Y-72828698D01*
X191837765Y-72828947D01*
X191837764Y-72828947D01*
X191777614Y-72830838D01*
X191773655Y-72830900D01*
X191745744Y-72830900D01*
X191741810Y-72831397D01*
X191741809Y-72831397D01*
X191741744Y-72831405D01*
X191729907Y-72832338D01*
X191698090Y-72833338D01*
X191693629Y-72833478D01*
X191685710Y-72833727D01*
X191668054Y-72838856D01*
X191666258Y-72839378D01*
X191646906Y-72843386D01*
X191639835Y-72844280D01*
X191626803Y-72845926D01*
X191619434Y-72848843D01*
X191619432Y-72848844D01*
X191585697Y-72862200D01*
X191574469Y-72866045D01*
X191532007Y-72878382D01*
X191525184Y-72882417D01*
X191525182Y-72882418D01*
X191514572Y-72888693D01*
X191496824Y-72897388D01*
X191477983Y-72904848D01*
X191471567Y-72909510D01*
X191471566Y-72909510D01*
X191442213Y-72930836D01*
X191432293Y-72937352D01*
X191401065Y-72955820D01*
X191401062Y-72955822D01*
X191394238Y-72959858D01*
X191379917Y-72974179D01*
X191364884Y-72987019D01*
X191348493Y-72998928D01*
X191339817Y-73009416D01*
X191320302Y-73033005D01*
X191312312Y-73041784D01*
X190121852Y-74232244D01*
X190059540Y-74266270D01*
X190000146Y-74264856D01*
X189974563Y-74258001D01*
X189974561Y-74258001D01*
X189969248Y-74256577D01*
X189749999Y-74237395D01*
X189530750Y-74256577D01*
X189525436Y-74258001D01*
X189525435Y-74258001D01*
X189323473Y-74312116D01*
X189323471Y-74312117D01*
X189318163Y-74313539D01*
X189313183Y-74315861D01*
X189313181Y-74315862D01*
X189123678Y-74404229D01*
X189123675Y-74404231D01*
X189118697Y-74406552D01*
X188938412Y-74532788D01*
X188782787Y-74688413D01*
X188656551Y-74868698D01*
X188654230Y-74873676D01*
X188654228Y-74873679D01*
X188578751Y-75035539D01*
X188563538Y-75068164D01*
X188506576Y-75280751D01*
X188487394Y-75500000D01*
X188506576Y-75719249D01*
X188508000Y-75724563D01*
X188508000Y-75724564D01*
X188528326Y-75800420D01*
X188563538Y-75931836D01*
X188565860Y-75936816D01*
X188565861Y-75936818D01*
X188632722Y-76080200D01*
X188656551Y-76131302D01*
X188782787Y-76311587D01*
X188938412Y-76467212D01*
X188942920Y-76470369D01*
X188942923Y-76470371D01*
X189073318Y-76561674D01*
X189118696Y-76593448D01*
X189123678Y-76595771D01*
X189123683Y-76595774D01*
X189312169Y-76683666D01*
X189318163Y-76686461D01*
X189323471Y-76687883D01*
X189323473Y-76687884D01*
X189525435Y-76741999D01*
X189525436Y-76741999D01*
X189530750Y-76743423D01*
X189749999Y-76762605D01*
X189969248Y-76743423D01*
X189974562Y-76741999D01*
X189974563Y-76741999D01*
X190176525Y-76687884D01*
X190176527Y-76687883D01*
X190181835Y-76686461D01*
X190187829Y-76683666D01*
X190376315Y-76595774D01*
X190376320Y-76595771D01*
X190381302Y-76593448D01*
X190426680Y-76561674D01*
X190557075Y-76470371D01*
X190557078Y-76470369D01*
X190561586Y-76467212D01*
X190717211Y-76311587D01*
X190843447Y-76131302D01*
X190867277Y-76080200D01*
X190934137Y-75936818D01*
X190934138Y-75936816D01*
X190936460Y-75931836D01*
X190971673Y-75800420D01*
X190991998Y-75724564D01*
X190991998Y-75724563D01*
X190993422Y-75719249D01*
X191012604Y-75500000D01*
X190993422Y-75280751D01*
X190991998Y-75275436D01*
X190991997Y-75275429D01*
X190985144Y-75249853D01*
X190986835Y-75178877D01*
X191017756Y-75128149D01*
X192011100Y-74134805D01*
X192073412Y-74100779D01*
X192100195Y-74097900D01*
X192712253Y-74097900D01*
X192780374Y-74117902D01*
X192826867Y-74171558D01*
X192836971Y-74241832D01*
X192807477Y-74306412D01*
X192765503Y-74338095D01*
X192623678Y-74404229D01*
X192623675Y-74404231D01*
X192618697Y-74406552D01*
X192438412Y-74532788D01*
X192282787Y-74688413D01*
X192156551Y-74868698D01*
X192154230Y-74873676D01*
X192154228Y-74873679D01*
X192078751Y-75035539D01*
X192063538Y-75068164D01*
X192006576Y-75280751D01*
X191987394Y-75500000D01*
X192006576Y-75719249D01*
X192008000Y-75724563D01*
X192008000Y-75724564D01*
X192028326Y-75800420D01*
X192063538Y-75931836D01*
X192065860Y-75936816D01*
X192065861Y-75936818D01*
X192132722Y-76080200D01*
X192156551Y-76131302D01*
X192282787Y-76311587D01*
X192438412Y-76467212D01*
X192442920Y-76470369D01*
X192442923Y-76470371D01*
X192573318Y-76561674D01*
X192618696Y-76593448D01*
X192623678Y-76595771D01*
X192623683Y-76595774D01*
X192812169Y-76683666D01*
X192818163Y-76686461D01*
X192823471Y-76687883D01*
X192823473Y-76687884D01*
X193025435Y-76741999D01*
X193025436Y-76741999D01*
X193030750Y-76743423D01*
X193249999Y-76762605D01*
X193469248Y-76743423D01*
X193474562Y-76741999D01*
X193474563Y-76741999D01*
X193676525Y-76687884D01*
X193676527Y-76687883D01*
X193681835Y-76686461D01*
X193687829Y-76683666D01*
X193876315Y-76595774D01*
X193876320Y-76595771D01*
X193881302Y-76593448D01*
X193926680Y-76561674D01*
X194057075Y-76470371D01*
X194057078Y-76470369D01*
X194061586Y-76467212D01*
X194217211Y-76311587D01*
X194343447Y-76131302D01*
X194367277Y-76080200D01*
X194434137Y-75936818D01*
X194434138Y-75936816D01*
X194436460Y-75931836D01*
X194471673Y-75800420D01*
X194491998Y-75724564D01*
X194491998Y-75724563D01*
X194493422Y-75719249D01*
X194512604Y-75500000D01*
X194493422Y-75280751D01*
X194436460Y-75068164D01*
X194421247Y-75035539D01*
X194345770Y-74873679D01*
X194345768Y-74873676D01*
X194343447Y-74868698D01*
X194217211Y-74688413D01*
X194061586Y-74532788D01*
X194057078Y-74529631D01*
X194057075Y-74529629D01*
X193885811Y-74409709D01*
X193885808Y-74409707D01*
X193881302Y-74406552D01*
X193876320Y-74404229D01*
X193876315Y-74404226D01*
X193734496Y-74338095D01*
X193681211Y-74291178D01*
X193661750Y-74222900D01*
X193682292Y-74154940D01*
X193736315Y-74108875D01*
X193787746Y-74097900D01*
X196212254Y-74097900D01*
X196280375Y-74117902D01*
X196326868Y-74171558D01*
X196336972Y-74241832D01*
X196307478Y-74306412D01*
X196265504Y-74338095D01*
X196123679Y-74404229D01*
X196123676Y-74404231D01*
X196118698Y-74406552D01*
X195938413Y-74532788D01*
X195782788Y-74688413D01*
X195656552Y-74868698D01*
X195654231Y-74873676D01*
X195654229Y-74873679D01*
X195578752Y-75035539D01*
X195563539Y-75068164D01*
X195506577Y-75280751D01*
X195487395Y-75500000D01*
X195506577Y-75719249D01*
X195508001Y-75724563D01*
X195508001Y-75724564D01*
X195528327Y-75800420D01*
X195563539Y-75931836D01*
X195565861Y-75936816D01*
X195565862Y-75936818D01*
X195632723Y-76080200D01*
X195656552Y-76131302D01*
X195782788Y-76311587D01*
X195938413Y-76467212D01*
X195942921Y-76470369D01*
X195942924Y-76470371D01*
X196073319Y-76561674D01*
X196118697Y-76593448D01*
X196123679Y-76595771D01*
X196123684Y-76595774D01*
X196312170Y-76683666D01*
X196318164Y-76686461D01*
X196323472Y-76687883D01*
X196323474Y-76687884D01*
X196525436Y-76741999D01*
X196525437Y-76741999D01*
X196530751Y-76743423D01*
X196750000Y-76762605D01*
X196969249Y-76743423D01*
X196974563Y-76741999D01*
X196974564Y-76741999D01*
X197176526Y-76687884D01*
X197176528Y-76687883D01*
X197181836Y-76686461D01*
X197187830Y-76683666D01*
X197376316Y-76595774D01*
X197376321Y-76595771D01*
X197381303Y-76593448D01*
X197426681Y-76561674D01*
X197557076Y-76470371D01*
X197557079Y-76470369D01*
X197561587Y-76467212D01*
X197717212Y-76311587D01*
X197843448Y-76131302D01*
X197867278Y-76080200D01*
X197934138Y-75936818D01*
X197934139Y-75936816D01*
X197936461Y-75931836D01*
X197971674Y-75800420D01*
X197991999Y-75724564D01*
X197991999Y-75724563D01*
X197993423Y-75719249D01*
X198012605Y-75500000D01*
X197993423Y-75280751D01*
X197936461Y-75068164D01*
X197921248Y-75035539D01*
X197845771Y-74873679D01*
X197845769Y-74873676D01*
X197843448Y-74868698D01*
X197717212Y-74688413D01*
X197561587Y-74532788D01*
X197557079Y-74529631D01*
X197557076Y-74529629D01*
X197385812Y-74409709D01*
X197385809Y-74409707D01*
X197381303Y-74406552D01*
X197376321Y-74404229D01*
X197376316Y-74404226D01*
X197234497Y-74338095D01*
X197181212Y-74291178D01*
X197161751Y-74222900D01*
X197182293Y-74154940D01*
X197236316Y-74108875D01*
X197287747Y-74097900D01*
X202019184Y-74097900D01*
X202087305Y-74117902D01*
X202133798Y-74171558D01*
X202143902Y-74241832D01*
X202140891Y-74256511D01*
X202124862Y-74316334D01*
X202111467Y-74366323D01*
X202091898Y-74590000D01*
X202111467Y-74813677D01*
X202112891Y-74818990D01*
X202112891Y-74818992D01*
X202127545Y-74873679D01*
X202169580Y-75030557D01*
X202171902Y-75035538D01*
X202171903Y-75035539D01*
X202262145Y-75229064D01*
X202262148Y-75229069D01*
X202264471Y-75234051D01*
X202393257Y-75417976D01*
X202552024Y-75576743D01*
X202556532Y-75579900D01*
X202556535Y-75579902D01*
X202633152Y-75633549D01*
X202735949Y-75705529D01*
X202740931Y-75707852D01*
X202740936Y-75707855D01*
X202934461Y-75798097D01*
X202939443Y-75800420D01*
X202944751Y-75801842D01*
X202944753Y-75801843D01*
X203151008Y-75857109D01*
X203151010Y-75857109D01*
X203156323Y-75858533D01*
X203380000Y-75878102D01*
X203603677Y-75858533D01*
X203608990Y-75857109D01*
X203608992Y-75857109D01*
X203815247Y-75801843D01*
X203815249Y-75801842D01*
X203820557Y-75800420D01*
X203825539Y-75798097D01*
X204019064Y-75707855D01*
X204019069Y-75707852D01*
X204024051Y-75705529D01*
X204126848Y-75633549D01*
X204203465Y-75579902D01*
X204203468Y-75579900D01*
X204207976Y-75576743D01*
X204366743Y-75417976D01*
X204465296Y-75277228D01*
X204520752Y-75232901D01*
X204568508Y-75223500D01*
X207168406Y-75223500D01*
X207236527Y-75243502D01*
X207257501Y-75260405D01*
X210364825Y-78367729D01*
X210398851Y-78430041D01*
X210393786Y-78500856D01*
X210348000Y-78560037D01*
X210176540Y-78680094D01*
X210176534Y-78680099D01*
X210172024Y-78683257D01*
X210013257Y-78842024D01*
X209884471Y-79025949D01*
X209882148Y-79030931D01*
X209882145Y-79030936D01*
X209815138Y-79174633D01*
X209789580Y-79229443D01*
X209788158Y-79234751D01*
X209788157Y-79234753D01*
X209732891Y-79441008D01*
X209731467Y-79446323D01*
X209711898Y-79670000D01*
X209731467Y-79893677D01*
X209732892Y-79898995D01*
X209744116Y-79940887D01*
X209742426Y-80011864D01*
X209711504Y-80062592D01*
X193240553Y-96533542D01*
X193178241Y-96567568D01*
X193107426Y-96562503D01*
X193050590Y-96519956D01*
X193025779Y-96453436D01*
X193029751Y-96411835D01*
X193046614Y-96348901D01*
X193048517Y-96338109D01*
X193067121Y-96125475D01*
X193067121Y-96114525D01*
X193048517Y-95901891D01*
X193046614Y-95891096D01*
X192991371Y-95684925D01*
X192987625Y-95674633D01*
X192897419Y-95481185D01*
X192891940Y-95471695D01*
X192859324Y-95425115D01*
X192848848Y-95416741D01*
X192835400Y-95423810D01*
X191083088Y-97176122D01*
X191076658Y-97187896D01*
X191085954Y-97199912D01*
X191131695Y-97231940D01*
X191141185Y-97237419D01*
X191334633Y-97327625D01*
X191344925Y-97331371D01*
X191551096Y-97386614D01*
X191561891Y-97388517D01*
X191774525Y-97407121D01*
X191785475Y-97407121D01*
X191998109Y-97388517D01*
X192008904Y-97386614D01*
X192215075Y-97331371D01*
X192225367Y-97327625D01*
X192418814Y-97237419D01*
X192427496Y-97232406D01*
X192496491Y-97215666D01*
X192563584Y-97238884D01*
X192607473Y-97294689D01*
X192616500Y-97341523D01*
X192616500Y-97360224D01*
X192614949Y-97379934D01*
X192611780Y-97399943D01*
X192614908Y-97433028D01*
X192615941Y-97443961D01*
X192616500Y-97455819D01*
X192616500Y-98777897D01*
X192596498Y-98846018D01*
X192542842Y-98892511D01*
X192472568Y-98902615D01*
X192427864Y-98887141D01*
X192424051Y-98884471D01*
X192419073Y-98882150D01*
X192419070Y-98882148D01*
X192225539Y-98791903D01*
X192225538Y-98791902D01*
X192220557Y-98789580D01*
X192215249Y-98788158D01*
X192215247Y-98788157D01*
X192008992Y-98732891D01*
X192008990Y-98732891D01*
X192003677Y-98731467D01*
X191780000Y-98711898D01*
X191556323Y-98731467D01*
X191551010Y-98732891D01*
X191551008Y-98732891D01*
X191344753Y-98788157D01*
X191344751Y-98788158D01*
X191339443Y-98789580D01*
X191334462Y-98791902D01*
X191334461Y-98791903D01*
X191140936Y-98882145D01*
X191140931Y-98882148D01*
X191135949Y-98884471D01*
X191124467Y-98892511D01*
X190956535Y-99010098D01*
X190956532Y-99010100D01*
X190952024Y-99013257D01*
X190793257Y-99172024D01*
X190664471Y-99355949D01*
X190662148Y-99360931D01*
X190662145Y-99360936D01*
X190573284Y-99551500D01*
X190569580Y-99559443D01*
X190568158Y-99564751D01*
X190568157Y-99564753D01*
X190529213Y-99710093D01*
X190511467Y-99776323D01*
X190491898Y-100000000D01*
X190511467Y-100223677D01*
X190512891Y-100228990D01*
X190512891Y-100228992D01*
X190560983Y-100408471D01*
X190569580Y-100440557D01*
X190571902Y-100445538D01*
X190571903Y-100445539D01*
X190662145Y-100639064D01*
X190662148Y-100639069D01*
X190664471Y-100644051D01*
X190688398Y-100678222D01*
X190785740Y-100817240D01*
X190793257Y-100827976D01*
X190952024Y-100986743D01*
X190956532Y-100989900D01*
X190956535Y-100989902D01*
X191033152Y-101043549D01*
X191135949Y-101115529D01*
X191140931Y-101117852D01*
X191140936Y-101117855D01*
X191297400Y-101190815D01*
X191339443Y-101210420D01*
X191344751Y-101211842D01*
X191344753Y-101211843D01*
X191551008Y-101267109D01*
X191551010Y-101267109D01*
X191556323Y-101268533D01*
X191780000Y-101288102D01*
X192003677Y-101268533D01*
X192008990Y-101267109D01*
X192008992Y-101267109D01*
X192215247Y-101211843D01*
X192215249Y-101211842D01*
X192220557Y-101210420D01*
X192262600Y-101190815D01*
X192419070Y-101117852D01*
X192419073Y-101117850D01*
X192424051Y-101115529D01*
X192427781Y-101112917D01*
X192496491Y-101096246D01*
X192563584Y-101119464D01*
X192607473Y-101175270D01*
X192616500Y-101222103D01*
X192616500Y-106398477D01*
X192596498Y-106466598D01*
X192542842Y-106513091D01*
X192472568Y-106523195D01*
X192427496Y-106507594D01*
X192418814Y-106502581D01*
X192225367Y-106412375D01*
X192215075Y-106408629D01*
X192008904Y-106353386D01*
X191998109Y-106351483D01*
X191785475Y-106332879D01*
X191774525Y-106332879D01*
X191561891Y-106351483D01*
X191551096Y-106353386D01*
X191344925Y-106408629D01*
X191334633Y-106412375D01*
X191141185Y-106502581D01*
X191131695Y-106508060D01*
X191085115Y-106540676D01*
X191076741Y-106551152D01*
X191083810Y-106564600D01*
X192050115Y-107530905D01*
X192084141Y-107593217D01*
X192079076Y-107664032D01*
X192050115Y-107709095D01*
X191869095Y-107890115D01*
X191806783Y-107924141D01*
X191735968Y-107919076D01*
X191690905Y-107890115D01*
X190723878Y-106923088D01*
X190712104Y-106916658D01*
X190700088Y-106925954D01*
X190668060Y-106971695D01*
X190662581Y-106981185D01*
X190572375Y-107174633D01*
X190568629Y-107184925D01*
X190513386Y-107391096D01*
X190511483Y-107401891D01*
X190492879Y-107614525D01*
X190492879Y-107625475D01*
X190496408Y-107665811D01*
X190482419Y-107735416D01*
X190433019Y-107786408D01*
X190363894Y-107802599D01*
X190296988Y-107778847D01*
X190281792Y-107765888D01*
X187475734Y-104959829D01*
X182908496Y-100392591D01*
X182874470Y-100330279D01*
X182875884Y-100270886D01*
X182887108Y-100228995D01*
X182887109Y-100228992D01*
X182888533Y-100223677D01*
X182908102Y-100000000D01*
X182888533Y-99776323D01*
X182870787Y-99710093D01*
X182831843Y-99564753D01*
X182831842Y-99564751D01*
X182830420Y-99559443D01*
X182826716Y-99551500D01*
X182737855Y-99360936D01*
X182737852Y-99360931D01*
X182735529Y-99355949D01*
X182606743Y-99172024D01*
X182447976Y-99013257D01*
X182443468Y-99010100D01*
X182443465Y-99010098D01*
X182275533Y-98892511D01*
X182264051Y-98884471D01*
X182259069Y-98882148D01*
X182259064Y-98882145D01*
X182065539Y-98791903D01*
X182065538Y-98791902D01*
X182060557Y-98789580D01*
X182055249Y-98788158D01*
X182055247Y-98788157D01*
X181848992Y-98732891D01*
X181848990Y-98732891D01*
X181843677Y-98731467D01*
X181620000Y-98711898D01*
X181396323Y-98731467D01*
X181391010Y-98732891D01*
X181391008Y-98732891D01*
X181184753Y-98788157D01*
X181184751Y-98788158D01*
X181179443Y-98789580D01*
X181174462Y-98791902D01*
X181174461Y-98791903D01*
X180980936Y-98882145D01*
X180980931Y-98882148D01*
X180975949Y-98884471D01*
X180964467Y-98892511D01*
X180796535Y-99010098D01*
X180796532Y-99010100D01*
X180792024Y-99013257D01*
X180633257Y-99172024D01*
X180504471Y-99355949D01*
X180502148Y-99360931D01*
X180502145Y-99360936D01*
X180413284Y-99551500D01*
X180409580Y-99559443D01*
X180408158Y-99564751D01*
X180408157Y-99564753D01*
X180369213Y-99710093D01*
X180351467Y-99776323D01*
X180331898Y-100000000D01*
X180351467Y-100223677D01*
X180352891Y-100228990D01*
X180352891Y-100228992D01*
X180400983Y-100408471D01*
X180409580Y-100440557D01*
X180411902Y-100445538D01*
X180411903Y-100445539D01*
X180502145Y-100639064D01*
X180502148Y-100639069D01*
X180504471Y-100644051D01*
X180528398Y-100678222D01*
X180625740Y-100817240D01*
X180633257Y-100827976D01*
X180792024Y-100986743D01*
X180796532Y-100989900D01*
X180796535Y-100989902D01*
X180873152Y-101043549D01*
X180975949Y-101115529D01*
X180980931Y-101117852D01*
X180980936Y-101117855D01*
X181137400Y-101190815D01*
X181179443Y-101210420D01*
X181184751Y-101211842D01*
X181184753Y-101211843D01*
X181391008Y-101267109D01*
X181391010Y-101267109D01*
X181396323Y-101268533D01*
X181620000Y-101288102D01*
X181843677Y-101268533D01*
X181852162Y-101266259D01*
X181890887Y-101255884D01*
X181961864Y-101257574D01*
X182012592Y-101288496D01*
X186510204Y-105786109D01*
X191002595Y-110278500D01*
X191036621Y-110340812D01*
X191039500Y-110367595D01*
X191039500Y-119749067D01*
X191019498Y-119817188D01*
X190965842Y-119863681D01*
X190895568Y-119873785D01*
X190830988Y-119844291D01*
X190810287Y-119821337D01*
X190720372Y-119692925D01*
X190717213Y-119688413D01*
X190561588Y-119532788D01*
X190437230Y-119445712D01*
X190392901Y-119390255D01*
X190383500Y-119342499D01*
X190383500Y-113065767D01*
X190384027Y-113054584D01*
X190385702Y-113047091D01*
X190383562Y-112979014D01*
X190383500Y-112975055D01*
X190383500Y-112947144D01*
X190382995Y-112943144D01*
X190382062Y-112931301D01*
X190380922Y-112895029D01*
X190380673Y-112887110D01*
X190375022Y-112867658D01*
X190371014Y-112848306D01*
X190369467Y-112836063D01*
X190368474Y-112828203D01*
X190365556Y-112820832D01*
X190352200Y-112787097D01*
X190348355Y-112775870D01*
X190346849Y-112770688D01*
X190336018Y-112733407D01*
X190331984Y-112726585D01*
X190331981Y-112726579D01*
X190325706Y-112715968D01*
X190317010Y-112698218D01*
X190312472Y-112686756D01*
X190312469Y-112686751D01*
X190309552Y-112679383D01*
X190296901Y-112661970D01*
X190283573Y-112643625D01*
X190277057Y-112633707D01*
X190258575Y-112602457D01*
X190254542Y-112595637D01*
X190240218Y-112581313D01*
X190227376Y-112566278D01*
X190215472Y-112549893D01*
X190181406Y-112521711D01*
X190172627Y-112513722D01*
X177210405Y-99551500D01*
X177176379Y-99489188D01*
X177173500Y-99462405D01*
X177173500Y-97308508D01*
X177193502Y-97240387D01*
X177227228Y-97205296D01*
X177323852Y-97137639D01*
X177363465Y-97109902D01*
X177363468Y-97109900D01*
X177367976Y-97106743D01*
X177526743Y-96947976D01*
X177540731Y-96928000D01*
X177619021Y-96816190D01*
X177655529Y-96764051D01*
X177657852Y-96759069D01*
X177657855Y-96759064D01*
X177748097Y-96565539D01*
X177748098Y-96565538D01*
X177750420Y-96560557D01*
X177752054Y-96554461D01*
X177807109Y-96348992D01*
X177807109Y-96348990D01*
X177808533Y-96343677D01*
X177827623Y-96125475D01*
X190492879Y-96125475D01*
X190511483Y-96338109D01*
X190513386Y-96348904D01*
X190568629Y-96555075D01*
X190572375Y-96565367D01*
X190662581Y-96758815D01*
X190668060Y-96768305D01*
X190700676Y-96814885D01*
X190711152Y-96823259D01*
X190724600Y-96816190D01*
X191407978Y-96132812D01*
X191415592Y-96118868D01*
X191415461Y-96117035D01*
X191411210Y-96110420D01*
X190723878Y-95423088D01*
X190712104Y-95416658D01*
X190700088Y-95425954D01*
X190668060Y-95471695D01*
X190662581Y-95481185D01*
X190572375Y-95674633D01*
X190568629Y-95684925D01*
X190513386Y-95891096D01*
X190511483Y-95901891D01*
X190492879Y-96114525D01*
X190492879Y-96125475D01*
X177827623Y-96125475D01*
X177828102Y-96120000D01*
X177808533Y-95896323D01*
X177803198Y-95876411D01*
X177751843Y-95684753D01*
X177751842Y-95684751D01*
X177750420Y-95679443D01*
X177701306Y-95574118D01*
X177657855Y-95480936D01*
X177657852Y-95480931D01*
X177655529Y-95475949D01*
X177567148Y-95349728D01*
X177529902Y-95296535D01*
X177529900Y-95296532D01*
X177526743Y-95292024D01*
X177367976Y-95133257D01*
X177363468Y-95130100D01*
X177363465Y-95130098D01*
X177280778Y-95072200D01*
X177250718Y-95051152D01*
X191076741Y-95051152D01*
X191083810Y-95064600D01*
X191767188Y-95747978D01*
X191781132Y-95755592D01*
X191782965Y-95755461D01*
X191789580Y-95751210D01*
X192476912Y-95063878D01*
X192483342Y-95052104D01*
X192474046Y-95040088D01*
X192428305Y-95008060D01*
X192418815Y-95002581D01*
X192225367Y-94912375D01*
X192215075Y-94908629D01*
X192008904Y-94853386D01*
X191998109Y-94851483D01*
X191785475Y-94832879D01*
X191774525Y-94832879D01*
X191561891Y-94851483D01*
X191551096Y-94853386D01*
X191344925Y-94908629D01*
X191334633Y-94912375D01*
X191141185Y-95002581D01*
X191131695Y-95008060D01*
X191085115Y-95040676D01*
X191076741Y-95051152D01*
X177250718Y-95051152D01*
X177184051Y-95004471D01*
X177179069Y-95002148D01*
X177179064Y-95002145D01*
X176985539Y-94911903D01*
X176985538Y-94911902D01*
X176980557Y-94909580D01*
X176975249Y-94908158D01*
X176975247Y-94908157D01*
X176768992Y-94852891D01*
X176768990Y-94852891D01*
X176763677Y-94851467D01*
X176540000Y-94831898D01*
X176534525Y-94832377D01*
X176534514Y-94832377D01*
X176494739Y-94835857D01*
X176425134Y-94821869D01*
X176374142Y-94772470D01*
X176357951Y-94703344D01*
X176381703Y-94636438D01*
X176394662Y-94621242D01*
X178706048Y-92309857D01*
X181227409Y-89788496D01*
X181289721Y-89754470D01*
X181349114Y-89755884D01*
X181387778Y-89766243D01*
X181396323Y-89768533D01*
X181620000Y-89788102D01*
X181843677Y-89768533D01*
X181848990Y-89767109D01*
X181848992Y-89767109D01*
X182055247Y-89711843D01*
X182055249Y-89711842D01*
X182060557Y-89710420D01*
X182086274Y-89698428D01*
X182259064Y-89617855D01*
X182259069Y-89617852D01*
X182264051Y-89615529D01*
X182411054Y-89512596D01*
X182443465Y-89489902D01*
X182443468Y-89489900D01*
X182447976Y-89486743D01*
X182606743Y-89327976D01*
X182630151Y-89294547D01*
X182702525Y-89191185D01*
X182735529Y-89144051D01*
X182737852Y-89139069D01*
X182737855Y-89139064D01*
X182828097Y-88945539D01*
X182828098Y-88945538D01*
X182830420Y-88940557D01*
X182843273Y-88892591D01*
X182887109Y-88728992D01*
X182887109Y-88728990D01*
X182888533Y-88723677D01*
X182908102Y-88500000D01*
X190491898Y-88500000D01*
X190511467Y-88723677D01*
X190512891Y-88728990D01*
X190512891Y-88728992D01*
X190556728Y-88892591D01*
X190569580Y-88940557D01*
X190571902Y-88945538D01*
X190571903Y-88945539D01*
X190662145Y-89139064D01*
X190662148Y-89139069D01*
X190664471Y-89144051D01*
X190697475Y-89191185D01*
X190769850Y-89294547D01*
X190793257Y-89327976D01*
X190952024Y-89486743D01*
X190956532Y-89489900D01*
X190956535Y-89489902D01*
X190988946Y-89512596D01*
X191135949Y-89615529D01*
X191140931Y-89617852D01*
X191140936Y-89617855D01*
X191313726Y-89698428D01*
X191339443Y-89710420D01*
X191344751Y-89711842D01*
X191344753Y-89711843D01*
X191551008Y-89767109D01*
X191551010Y-89767109D01*
X191556323Y-89768533D01*
X191780000Y-89788102D01*
X192003677Y-89768533D01*
X192008990Y-89767109D01*
X192008992Y-89767109D01*
X192215247Y-89711843D01*
X192215249Y-89711842D01*
X192220557Y-89710420D01*
X192246274Y-89698428D01*
X192419064Y-89617855D01*
X192419069Y-89617852D01*
X192424051Y-89615529D01*
X192571054Y-89512596D01*
X192603465Y-89489902D01*
X192603468Y-89489900D01*
X192607976Y-89486743D01*
X192766743Y-89327976D01*
X192790151Y-89294547D01*
X192862525Y-89191185D01*
X192895529Y-89144051D01*
X192897852Y-89139069D01*
X192897855Y-89139064D01*
X192988097Y-88945539D01*
X192988098Y-88945538D01*
X192990420Y-88940557D01*
X193003273Y-88892591D01*
X193047109Y-88728992D01*
X193047109Y-88728990D01*
X193048533Y-88723677D01*
X193068102Y-88500000D01*
X193048533Y-88276323D01*
X193043198Y-88256411D01*
X192991843Y-88064753D01*
X192991842Y-88064751D01*
X192990420Y-88059443D01*
X192987249Y-88052642D01*
X192897855Y-87860936D01*
X192897852Y-87860931D01*
X192895529Y-87855949D01*
X192807180Y-87729774D01*
X192769902Y-87676535D01*
X192769900Y-87676532D01*
X192766743Y-87672024D01*
X192607976Y-87513257D01*
X192603468Y-87510100D01*
X192603465Y-87510098D01*
X192516625Y-87449292D01*
X192424051Y-87384471D01*
X192419069Y-87382148D01*
X192419064Y-87382145D01*
X192225539Y-87291903D01*
X192225538Y-87291902D01*
X192220557Y-87289580D01*
X192215249Y-87288158D01*
X192215247Y-87288157D01*
X192008992Y-87232891D01*
X192008990Y-87232891D01*
X192003677Y-87231467D01*
X191780000Y-87211898D01*
X191556323Y-87231467D01*
X191551010Y-87232891D01*
X191551008Y-87232891D01*
X191344753Y-87288157D01*
X191344751Y-87288158D01*
X191339443Y-87289580D01*
X191334462Y-87291902D01*
X191334461Y-87291903D01*
X191140936Y-87382145D01*
X191140931Y-87382148D01*
X191135949Y-87384471D01*
X191043375Y-87449292D01*
X190956535Y-87510098D01*
X190956532Y-87510100D01*
X190952024Y-87513257D01*
X190793257Y-87672024D01*
X190790100Y-87676532D01*
X190790098Y-87676535D01*
X190752820Y-87729774D01*
X190664471Y-87855949D01*
X190662148Y-87860931D01*
X190662145Y-87860936D01*
X190572751Y-88052642D01*
X190569580Y-88059443D01*
X190568158Y-88064751D01*
X190568157Y-88064753D01*
X190516802Y-88256411D01*
X190511467Y-88276323D01*
X190491898Y-88500000D01*
X182908102Y-88500000D01*
X182888533Y-88276323D01*
X182883198Y-88256411D01*
X182831843Y-88064753D01*
X182831842Y-88064751D01*
X182830420Y-88059443D01*
X182827249Y-88052642D01*
X182737855Y-87860936D01*
X182737852Y-87860931D01*
X182735529Y-87855949D01*
X182647180Y-87729774D01*
X182609902Y-87676535D01*
X182609900Y-87676532D01*
X182606743Y-87672024D01*
X182447976Y-87513257D01*
X182443468Y-87510100D01*
X182443465Y-87510098D01*
X182356625Y-87449292D01*
X182264051Y-87384471D01*
X182259069Y-87382148D01*
X182259064Y-87382145D01*
X182065539Y-87291903D01*
X182065538Y-87291902D01*
X182060557Y-87289580D01*
X182055249Y-87288158D01*
X182055247Y-87288157D01*
X181848992Y-87232891D01*
X181848990Y-87232891D01*
X181843677Y-87231467D01*
X181620000Y-87211898D01*
X181396323Y-87231467D01*
X181391010Y-87232891D01*
X181391008Y-87232891D01*
X181184753Y-87288157D01*
X181184751Y-87288158D01*
X181179443Y-87289580D01*
X181174462Y-87291902D01*
X181174461Y-87291903D01*
X180980936Y-87382145D01*
X180980931Y-87382148D01*
X180975949Y-87384471D01*
X180883375Y-87449292D01*
X180796535Y-87510098D01*
X180796532Y-87510100D01*
X180792024Y-87513257D01*
X180633257Y-87672024D01*
X180630100Y-87676532D01*
X180630098Y-87676535D01*
X180592820Y-87729774D01*
X180504471Y-87855949D01*
X180502148Y-87860931D01*
X180502145Y-87860936D01*
X180412751Y-88052642D01*
X180409580Y-88059443D01*
X180408158Y-88064751D01*
X180408157Y-88064753D01*
X180356802Y-88256411D01*
X180351467Y-88276323D01*
X180331898Y-88500000D01*
X180351467Y-88723677D01*
X180352891Y-88728992D01*
X180352892Y-88728995D01*
X180364116Y-88770887D01*
X180362426Y-88841864D01*
X180331504Y-88892592D01*
X173281795Y-95942300D01*
X173219483Y-95976326D01*
X173148668Y-95971261D01*
X173091832Y-95928714D01*
X173067021Y-95862194D01*
X173066700Y-95853205D01*
X173066700Y-90381395D01*
X173086702Y-90313274D01*
X173103605Y-90292299D01*
X173607410Y-89788495D01*
X173669722Y-89754470D01*
X173729116Y-89755884D01*
X173771008Y-89767109D01*
X173771010Y-89767109D01*
X173776323Y-89768533D01*
X174000000Y-89788102D01*
X174223677Y-89768533D01*
X174228990Y-89767109D01*
X174228992Y-89767109D01*
X174435247Y-89711843D01*
X174435249Y-89711842D01*
X174440557Y-89710420D01*
X174466274Y-89698428D01*
X174639064Y-89617855D01*
X174639069Y-89617852D01*
X174644051Y-89615529D01*
X174791054Y-89512596D01*
X174823465Y-89489902D01*
X174823468Y-89489900D01*
X174827976Y-89486743D01*
X174986743Y-89327976D01*
X175010151Y-89294547D01*
X175082525Y-89191185D01*
X175115529Y-89144051D01*
X175117852Y-89139069D01*
X175117855Y-89139064D01*
X175208097Y-88945539D01*
X175208098Y-88945538D01*
X175210420Y-88940557D01*
X175223273Y-88892591D01*
X175267109Y-88728992D01*
X175267109Y-88728990D01*
X175268533Y-88723677D01*
X175288102Y-88500000D01*
X175268533Y-88276323D01*
X175263198Y-88256411D01*
X175211843Y-88064753D01*
X175211842Y-88064751D01*
X175210420Y-88059443D01*
X175207249Y-88052642D01*
X175117855Y-87860936D01*
X175117852Y-87860931D01*
X175115529Y-87855949D01*
X175027180Y-87729774D01*
X174989902Y-87676535D01*
X174989900Y-87676532D01*
X174986743Y-87672024D01*
X174827976Y-87513257D01*
X174823468Y-87510100D01*
X174823465Y-87510098D01*
X174736625Y-87449292D01*
X174644051Y-87384471D01*
X174639069Y-87382148D01*
X174639064Y-87382145D01*
X174445539Y-87291903D01*
X174445538Y-87291902D01*
X174440557Y-87289580D01*
X174435249Y-87288158D01*
X174435247Y-87288157D01*
X174228992Y-87232891D01*
X174228990Y-87232891D01*
X174223677Y-87231467D01*
X174000000Y-87211898D01*
X173776323Y-87231467D01*
X173771010Y-87232891D01*
X173771008Y-87232891D01*
X173564753Y-87288157D01*
X173564751Y-87288158D01*
X173559443Y-87289580D01*
X173554462Y-87291902D01*
X173554461Y-87291903D01*
X173360936Y-87382145D01*
X173360931Y-87382148D01*
X173355949Y-87384471D01*
X173263375Y-87449292D01*
X173176535Y-87510098D01*
X173176532Y-87510100D01*
X173172024Y-87513257D01*
X173013257Y-87672024D01*
X173010100Y-87676532D01*
X173010098Y-87676535D01*
X172972820Y-87729774D01*
X172884471Y-87855949D01*
X172882148Y-87860931D01*
X172882145Y-87860936D01*
X172792751Y-88052642D01*
X172789580Y-88059443D01*
X172788158Y-88064751D01*
X172788157Y-88064753D01*
X172736802Y-88256411D01*
X172731467Y-88276323D01*
X172711898Y-88500000D01*
X172731467Y-88723677D01*
X172732891Y-88728992D01*
X172732892Y-88728995D01*
X172744116Y-88770886D01*
X172742426Y-88841862D01*
X172711504Y-88892591D01*
X172040947Y-89563148D01*
X172032661Y-89570688D01*
X172026182Y-89574800D01*
X172020757Y-89580577D01*
X171979557Y-89624451D01*
X171976802Y-89627293D01*
X171957065Y-89647030D01*
X171954585Y-89650227D01*
X171946882Y-89659247D01*
X171916614Y-89691479D01*
X171912795Y-89698425D01*
X171912793Y-89698428D01*
X171906852Y-89709234D01*
X171896001Y-89725753D01*
X171883586Y-89741759D01*
X171880441Y-89749028D01*
X171880438Y-89749032D01*
X171866026Y-89782337D01*
X171860809Y-89792987D01*
X171839505Y-89831740D01*
X171837534Y-89839415D01*
X171837534Y-89839416D01*
X171834467Y-89851362D01*
X171828063Y-89870066D01*
X171820019Y-89888655D01*
X171818780Y-89896478D01*
X171818777Y-89896488D01*
X171813101Y-89932324D01*
X171810695Y-89943944D01*
X171799700Y-89986770D01*
X171799700Y-90007024D01*
X171798149Y-90026734D01*
X171794980Y-90046743D01*
X171795726Y-90054635D01*
X171799141Y-90090761D01*
X171799700Y-90102619D01*
X171799700Y-114429833D01*
X171799173Y-114441016D01*
X171797498Y-114448509D01*
X171797747Y-114456435D01*
X171797747Y-114456436D01*
X171799638Y-114516586D01*
X171799700Y-114520545D01*
X171799700Y-114548456D01*
X171800197Y-114552390D01*
X171800197Y-114552391D01*
X171800205Y-114552456D01*
X171801138Y-114564293D01*
X171802527Y-114608489D01*
X171808178Y-114627939D01*
X171812187Y-114647300D01*
X171814726Y-114667397D01*
X171817645Y-114674768D01*
X171817645Y-114674770D01*
X171831004Y-114708512D01*
X171834849Y-114719742D01*
X171847182Y-114762193D01*
X171851215Y-114769012D01*
X171851217Y-114769017D01*
X171857493Y-114779628D01*
X171866188Y-114797376D01*
X171873648Y-114816217D01*
X171878310Y-114822633D01*
X171878310Y-114822634D01*
X171899636Y-114851987D01*
X171906152Y-114861907D01*
X171928658Y-114899962D01*
X171942979Y-114914283D01*
X171955819Y-114929316D01*
X171967728Y-114945707D01*
X171973834Y-114950758D01*
X172001805Y-114973898D01*
X172010584Y-114981888D01*
X176129999Y-119101303D01*
X176164025Y-119163615D01*
X176158960Y-119234430D01*
X176116413Y-119291266D01*
X176078457Y-119309706D01*
X176078649Y-119310233D01*
X176073558Y-119312086D01*
X176073525Y-119312102D01*
X176073483Y-119312113D01*
X176073472Y-119312117D01*
X176068165Y-119313539D01*
X176063185Y-119315861D01*
X176063183Y-119315862D01*
X175873680Y-119404229D01*
X175873677Y-119404231D01*
X175868699Y-119406552D01*
X175688414Y-119532788D01*
X175532789Y-119688413D01*
X175406553Y-119868698D01*
X175313540Y-120068164D01*
X175256578Y-120280751D01*
X175237396Y-120500000D01*
X175256578Y-120719249D01*
X175258002Y-120724563D01*
X175258002Y-120724564D01*
X175312100Y-120926460D01*
X175313540Y-120931836D01*
X175315862Y-120936816D01*
X175315863Y-120936818D01*
X175325264Y-120956977D01*
X175406553Y-121131302D01*
X175532789Y-121311587D01*
X175688414Y-121467212D01*
X175692922Y-121470369D01*
X175692925Y-121470371D01*
X175864189Y-121590291D01*
X175868698Y-121593448D01*
X175873680Y-121595771D01*
X175873685Y-121595774D01*
X175979009Y-121644887D01*
X176068165Y-121686461D01*
X176073473Y-121687883D01*
X176073475Y-121687884D01*
X176275437Y-121741999D01*
X176275438Y-121741999D01*
X176280752Y-121743423D01*
X176500001Y-121762605D01*
X176719250Y-121743423D01*
X176724564Y-121741999D01*
X176724565Y-121741999D01*
X176926527Y-121687884D01*
X176926529Y-121687883D01*
X176931837Y-121686461D01*
X177020993Y-121644887D01*
X177126317Y-121595774D01*
X177126322Y-121595771D01*
X177131304Y-121593448D01*
X177135813Y-121590291D01*
X177307077Y-121470371D01*
X177307080Y-121470369D01*
X177311588Y-121467212D01*
X177467213Y-121311587D01*
X177593449Y-121131302D01*
X177674739Y-120956977D01*
X177684139Y-120936818D01*
X177684140Y-120936816D01*
X177686462Y-120931836D01*
X177687886Y-120926523D01*
X177687888Y-120926518D01*
X177687899Y-120926476D01*
X177687909Y-120926460D01*
X177689768Y-120921352D01*
X177690795Y-120921726D01*
X177724855Y-120865856D01*
X177788719Y-120834840D01*
X177859212Y-120843274D01*
X177898698Y-120870002D01*
X178492010Y-121463315D01*
X178995548Y-121966853D01*
X179003088Y-121975139D01*
X179007200Y-121981618D01*
X179012977Y-121987043D01*
X179056851Y-122028243D01*
X179059693Y-122030998D01*
X179079430Y-122050735D01*
X179082627Y-122053215D01*
X179091647Y-122060918D01*
X179123879Y-122091186D01*
X179130825Y-122095005D01*
X179130828Y-122095007D01*
X179141634Y-122100948D01*
X179158153Y-122111799D01*
X179174159Y-122124214D01*
X179181428Y-122127359D01*
X179181432Y-122127362D01*
X179214737Y-122141774D01*
X179225387Y-122146991D01*
X179264140Y-122168295D01*
X179271815Y-122170266D01*
X179271816Y-122170266D01*
X179283762Y-122173333D01*
X179302467Y-122179737D01*
X179321055Y-122187781D01*
X179328878Y-122189020D01*
X179328888Y-122189023D01*
X179364724Y-122194699D01*
X179376344Y-122197105D01*
X179408159Y-122205273D01*
X179419170Y-122208100D01*
X179439424Y-122208100D01*
X179459134Y-122209651D01*
X179479143Y-122212820D01*
X179487035Y-122212074D01*
X179505780Y-122210302D01*
X179523162Y-122208659D01*
X179535019Y-122208100D01*
X185096633Y-122208100D01*
X185107816Y-122208627D01*
X185115309Y-122210302D01*
X185123235Y-122210053D01*
X185123236Y-122210053D01*
X185183386Y-122208162D01*
X185187345Y-122208100D01*
X185215256Y-122208100D01*
X185219191Y-122207603D01*
X185219256Y-122207595D01*
X185231093Y-122206662D01*
X185263351Y-122205648D01*
X185267370Y-122205522D01*
X185275289Y-122205273D01*
X185294743Y-122199621D01*
X185314100Y-122195613D01*
X185326330Y-122194068D01*
X185326331Y-122194068D01*
X185334197Y-122193074D01*
X185341568Y-122190155D01*
X185341570Y-122190155D01*
X185375312Y-122176796D01*
X185386542Y-122172951D01*
X185421383Y-122162829D01*
X185421384Y-122162829D01*
X185428993Y-122160618D01*
X185435812Y-122156585D01*
X185435817Y-122156583D01*
X185446428Y-122150307D01*
X185464176Y-122141612D01*
X185483017Y-122134152D01*
X185518787Y-122108164D01*
X185528707Y-122101648D01*
X185559935Y-122083180D01*
X185559938Y-122083178D01*
X185566762Y-122079142D01*
X185581083Y-122064821D01*
X185596117Y-122051980D01*
X185606094Y-122044731D01*
X185612507Y-122040072D01*
X185617557Y-122033968D01*
X185617562Y-122033963D01*
X185640693Y-122006002D01*
X185648683Y-121997221D01*
X185878149Y-121767756D01*
X185940461Y-121733731D01*
X185999853Y-121735145D01*
X186025429Y-121741998D01*
X186025440Y-121742000D01*
X186030751Y-121743423D01*
X186250000Y-121762605D01*
X186469249Y-121743423D01*
X186474563Y-121741999D01*
X186474564Y-121741999D01*
X186676526Y-121687884D01*
X186676528Y-121687883D01*
X186681836Y-121686461D01*
X186770992Y-121644887D01*
X186876316Y-121595774D01*
X186876321Y-121595771D01*
X186881303Y-121593448D01*
X186885812Y-121590291D01*
X187057076Y-121470371D01*
X187057079Y-121470369D01*
X187061587Y-121467212D01*
X187217212Y-121311587D01*
X187220363Y-121307086D01*
X187220367Y-121307082D01*
X187247416Y-121268452D01*
X187302873Y-121224124D01*
X187373493Y-121216815D01*
X187439724Y-121251628D01*
X189513943Y-123325847D01*
X189521487Y-123334137D01*
X189525600Y-123340618D01*
X189531377Y-123346043D01*
X189575267Y-123387258D01*
X189578109Y-123390013D01*
X189597830Y-123409734D01*
X189601025Y-123412212D01*
X189610047Y-123419918D01*
X189642279Y-123450186D01*
X189649228Y-123454006D01*
X189660032Y-123459946D01*
X189676556Y-123470799D01*
X189692559Y-123483213D01*
X189733143Y-123500776D01*
X189743773Y-123505983D01*
X189782540Y-123527295D01*
X189790217Y-123529266D01*
X189790222Y-123529268D01*
X189802158Y-123532332D01*
X189820866Y-123538737D01*
X189839455Y-123546781D01*
X189847283Y-123548021D01*
X189847290Y-123548023D01*
X189883124Y-123553699D01*
X189894744Y-123556105D01*
X189926559Y-123564273D01*
X189937570Y-123567100D01*
X189957824Y-123567100D01*
X189977534Y-123568651D01*
X189997543Y-123571820D01*
X190005435Y-123571074D01*
X190024180Y-123569302D01*
X190041562Y-123567659D01*
X190053419Y-123567100D01*
X210987633Y-123567100D01*
X210998816Y-123567627D01*
X211006309Y-123569302D01*
X211014235Y-123569053D01*
X211014236Y-123569053D01*
X211074386Y-123567162D01*
X211078345Y-123567100D01*
X211106256Y-123567100D01*
X211110191Y-123566603D01*
X211110256Y-123566595D01*
X211122093Y-123565662D01*
X211154351Y-123564648D01*
X211158370Y-123564522D01*
X211166289Y-123564273D01*
X211185743Y-123558621D01*
X211205100Y-123554613D01*
X211217330Y-123553068D01*
X211217331Y-123553068D01*
X211225197Y-123552074D01*
X211232568Y-123549155D01*
X211232570Y-123549155D01*
X211266312Y-123535796D01*
X211277542Y-123531951D01*
X211312383Y-123521829D01*
X211312384Y-123521829D01*
X211319993Y-123519618D01*
X211326812Y-123515585D01*
X211326817Y-123515583D01*
X211337428Y-123509307D01*
X211355176Y-123500612D01*
X211374017Y-123493152D01*
X211394387Y-123478353D01*
X211409787Y-123467164D01*
X211419707Y-123460648D01*
X211450935Y-123442180D01*
X211450938Y-123442178D01*
X211457762Y-123438142D01*
X211472083Y-123423821D01*
X211487117Y-123410980D01*
X211488832Y-123409734D01*
X211503507Y-123399072D01*
X211531698Y-123364995D01*
X211539688Y-123356216D01*
X213128148Y-121767756D01*
X213190460Y-121733730D01*
X213249853Y-121735144D01*
X213273469Y-121741471D01*
X213280753Y-121743423D01*
X213500002Y-121762605D01*
X213719251Y-121743423D01*
X213724565Y-121741999D01*
X213724566Y-121741999D01*
X213926528Y-121687884D01*
X213926530Y-121687883D01*
X213931838Y-121686461D01*
X214020994Y-121644887D01*
X214126318Y-121595774D01*
X214126323Y-121595771D01*
X214131305Y-121593448D01*
X214135814Y-121590291D01*
X214307078Y-121470371D01*
X214307081Y-121470369D01*
X214311589Y-121467212D01*
X214467214Y-121311587D01*
X214593450Y-121131302D01*
X214674740Y-120956977D01*
X214684140Y-120936818D01*
X214684141Y-120936816D01*
X214686463Y-120931836D01*
X214687904Y-120926460D01*
X214742001Y-120724564D01*
X214742001Y-120724563D01*
X214743425Y-120719249D01*
X214762607Y-120500000D01*
X214743425Y-120280751D01*
X214686463Y-120068164D01*
X214593450Y-119868698D01*
X214467214Y-119688413D01*
X214311589Y-119532788D01*
X214307081Y-119529631D01*
X214307078Y-119529629D01*
X214135814Y-119409709D01*
X214135811Y-119409707D01*
X214131305Y-119406552D01*
X214126323Y-119404229D01*
X214126318Y-119404226D01*
X213936820Y-119315862D01*
X213936819Y-119315861D01*
X213931838Y-119313539D01*
X213926530Y-119312117D01*
X213926528Y-119312116D01*
X213724566Y-119258001D01*
X213724565Y-119258001D01*
X213719251Y-119256577D01*
X213500002Y-119237395D01*
X213280753Y-119256577D01*
X213275439Y-119258001D01*
X213275438Y-119258001D01*
X213073476Y-119312116D01*
X213073474Y-119312117D01*
X213068166Y-119313539D01*
X213063186Y-119315861D01*
X213063184Y-119315862D01*
X212873681Y-119404229D01*
X212873678Y-119404231D01*
X212868700Y-119406552D01*
X212688415Y-119532788D01*
X212532790Y-119688413D01*
X212406554Y-119868698D01*
X212313541Y-120068164D01*
X212256579Y-120280751D01*
X212237397Y-120500000D01*
X212256579Y-120719249D01*
X212258002Y-120724560D01*
X212258004Y-120724571D01*
X212264857Y-120750147D01*
X212263166Y-120821123D01*
X212232245Y-120871851D01*
X210840900Y-122263195D01*
X210778588Y-122297221D01*
X210751805Y-122300100D01*
X209399994Y-122300100D01*
X209331873Y-122280098D01*
X209285380Y-122226442D01*
X209275276Y-122156168D01*
X209304770Y-122091588D01*
X209310899Y-122085005D01*
X209628148Y-121767756D01*
X209690460Y-121733730D01*
X209749854Y-121735144D01*
X209775437Y-121741999D01*
X209775439Y-121741999D01*
X209780752Y-121743423D01*
X210000001Y-121762605D01*
X210219250Y-121743423D01*
X210224564Y-121741999D01*
X210224565Y-121741999D01*
X210426527Y-121687884D01*
X210426529Y-121687883D01*
X210431837Y-121686461D01*
X210520993Y-121644887D01*
X210626317Y-121595774D01*
X210626322Y-121595771D01*
X210631304Y-121593448D01*
X210635813Y-121590291D01*
X210807077Y-121470371D01*
X210807080Y-121470369D01*
X210811588Y-121467212D01*
X210967213Y-121311587D01*
X211093449Y-121131302D01*
X211174739Y-120956977D01*
X211184139Y-120936818D01*
X211184140Y-120936816D01*
X211186462Y-120931836D01*
X211187903Y-120926460D01*
X211242000Y-120724564D01*
X211242000Y-120724563D01*
X211243424Y-120719249D01*
X211262606Y-120500000D01*
X211243424Y-120280751D01*
X211186462Y-120068164D01*
X211093449Y-119868698D01*
X210967213Y-119688413D01*
X210811588Y-119532788D01*
X210807080Y-119529631D01*
X210807077Y-119529629D01*
X210635813Y-119409709D01*
X210635810Y-119409707D01*
X210631304Y-119406552D01*
X210626322Y-119404229D01*
X210626317Y-119404226D01*
X210436819Y-119315862D01*
X210436818Y-119315861D01*
X210431837Y-119313539D01*
X210426529Y-119312117D01*
X210426527Y-119312116D01*
X210224565Y-119258001D01*
X210224564Y-119258001D01*
X210219250Y-119256577D01*
X210000001Y-119237395D01*
X209780752Y-119256577D01*
X209775438Y-119258001D01*
X209775437Y-119258001D01*
X209573475Y-119312116D01*
X209573473Y-119312117D01*
X209568165Y-119313539D01*
X209563185Y-119315861D01*
X209563183Y-119315862D01*
X209373680Y-119404229D01*
X209373677Y-119404231D01*
X209368699Y-119406552D01*
X209188414Y-119532788D01*
X209032789Y-119688413D01*
X208906553Y-119868698D01*
X208813540Y-120068164D01*
X208756578Y-120280751D01*
X208737396Y-120500000D01*
X208756578Y-120719249D01*
X208758001Y-120724560D01*
X208758003Y-120724571D01*
X208764856Y-120750147D01*
X208763165Y-120821123D01*
X208732244Y-120871851D01*
X207796000Y-121808095D01*
X207733688Y-121842121D01*
X207706905Y-121845000D01*
X207160199Y-121845000D01*
X207092078Y-121824998D01*
X207045585Y-121771342D01*
X207035481Y-121701068D01*
X207064975Y-121636488D01*
X207106949Y-121604805D01*
X207126317Y-121595774D01*
X207126322Y-121595771D01*
X207131304Y-121593448D01*
X207135813Y-121590291D01*
X207307077Y-121470371D01*
X207307080Y-121470369D01*
X207311588Y-121467212D01*
X207467213Y-121311587D01*
X207593449Y-121131302D01*
X207674739Y-120956977D01*
X207684139Y-120936818D01*
X207684140Y-120936816D01*
X207686462Y-120931836D01*
X207687903Y-120926460D01*
X207742000Y-120724564D01*
X207742000Y-120724563D01*
X207743424Y-120719249D01*
X207762606Y-120500000D01*
X207743424Y-120280751D01*
X207686462Y-120068164D01*
X207593449Y-119868698D01*
X207467213Y-119688413D01*
X207311588Y-119532788D01*
X207307080Y-119529631D01*
X207307077Y-119529629D01*
X207135813Y-119409709D01*
X207135810Y-119409707D01*
X207131304Y-119406552D01*
X207126322Y-119404229D01*
X207126317Y-119404226D01*
X206936819Y-119315862D01*
X206936818Y-119315861D01*
X206931837Y-119313539D01*
X206926529Y-119312117D01*
X206926527Y-119312116D01*
X206887209Y-119301581D01*
X206826586Y-119264629D01*
X206795565Y-119200769D01*
X206803993Y-119130274D01*
X206830725Y-119090779D01*
X220082047Y-105839457D01*
X220090337Y-105831913D01*
X220096818Y-105827800D01*
X220143459Y-105778132D01*
X220146213Y-105775291D01*
X220165935Y-105755569D01*
X220168412Y-105752376D01*
X220176117Y-105743355D01*
X220181282Y-105737855D01*
X220206386Y-105711121D01*
X220214331Y-105696669D01*
X220216146Y-105693368D01*
X220227002Y-105676841D01*
X220234557Y-105667102D01*
X220234558Y-105667100D01*
X220239414Y-105660840D01*
X220256974Y-105620260D01*
X220262191Y-105609612D01*
X220279675Y-105577809D01*
X220279676Y-105577807D01*
X220283495Y-105570860D01*
X220285998Y-105561114D01*
X220288533Y-105551238D01*
X220294937Y-105532534D01*
X220299833Y-105521220D01*
X220299833Y-105521219D01*
X220302981Y-105513945D01*
X220304220Y-105506122D01*
X220304223Y-105506112D01*
X220309899Y-105470276D01*
X220312305Y-105458656D01*
X220321328Y-105423511D01*
X220321328Y-105423510D01*
X220323300Y-105415830D01*
X220323300Y-105395576D01*
X220324851Y-105375865D01*
X220326780Y-105363686D01*
X220328020Y-105355857D01*
X220323859Y-105311838D01*
X220323300Y-105299981D01*
X220323300Y-97000000D01*
X222331898Y-97000000D01*
X222351467Y-97223677D01*
X222352891Y-97228990D01*
X222352891Y-97228992D01*
X222407563Y-97433028D01*
X222409580Y-97440557D01*
X222411902Y-97445538D01*
X222411903Y-97445539D01*
X222502145Y-97639064D01*
X222502148Y-97639069D01*
X222504471Y-97644051D01*
X222633257Y-97827976D01*
X222792024Y-97986743D01*
X222796532Y-97989900D01*
X222796535Y-97989902D01*
X222840111Y-98020414D01*
X222975949Y-98115529D01*
X222980931Y-98117852D01*
X222980936Y-98117855D01*
X223174461Y-98208097D01*
X223179443Y-98210420D01*
X223184751Y-98211842D01*
X223184753Y-98211843D01*
X223391008Y-98267109D01*
X223391010Y-98267109D01*
X223396323Y-98268533D01*
X223620000Y-98288102D01*
X223843677Y-98268533D01*
X223848990Y-98267109D01*
X223848992Y-98267109D01*
X224055247Y-98211843D01*
X224055249Y-98211842D01*
X224060557Y-98210420D01*
X224065539Y-98208097D01*
X224259064Y-98117855D01*
X224259069Y-98117852D01*
X224264051Y-98115529D01*
X224399889Y-98020414D01*
X224443465Y-97989902D01*
X224443468Y-97989900D01*
X224447976Y-97986743D01*
X224606743Y-97827976D01*
X224735529Y-97644051D01*
X224737852Y-97639069D01*
X224737855Y-97639064D01*
X224828097Y-97445539D01*
X224828098Y-97445538D01*
X224830420Y-97440557D01*
X224832438Y-97433028D01*
X224887109Y-97228992D01*
X224887109Y-97228990D01*
X224888533Y-97223677D01*
X224908102Y-97000000D01*
X224888533Y-96776323D01*
X224885245Y-96764051D01*
X224831843Y-96564753D01*
X224831842Y-96564751D01*
X224830420Y-96559443D01*
X224812007Y-96519956D01*
X224737855Y-96360936D01*
X224737852Y-96360931D01*
X224735529Y-96355949D01*
X224606743Y-96172024D01*
X224447976Y-96013257D01*
X224443468Y-96010100D01*
X224443465Y-96010098D01*
X224288929Y-95901891D01*
X224264051Y-95884471D01*
X224259069Y-95882148D01*
X224259064Y-95882145D01*
X224065539Y-95791903D01*
X224065538Y-95791902D01*
X224060557Y-95789580D01*
X224055249Y-95788158D01*
X224055247Y-95788157D01*
X223848992Y-95732891D01*
X223848990Y-95732891D01*
X223843677Y-95731467D01*
X223620000Y-95711898D01*
X223396323Y-95731467D01*
X223391010Y-95732891D01*
X223391008Y-95732891D01*
X223184753Y-95788157D01*
X223184751Y-95788158D01*
X223179443Y-95789580D01*
X223174462Y-95791902D01*
X223174461Y-95791903D01*
X222980936Y-95882145D01*
X222980931Y-95882148D01*
X222975949Y-95884471D01*
X222951071Y-95901891D01*
X222796535Y-96010098D01*
X222796532Y-96010100D01*
X222792024Y-96013257D01*
X222633257Y-96172024D01*
X222504471Y-96355949D01*
X222502148Y-96360931D01*
X222502145Y-96360936D01*
X222427993Y-96519956D01*
X222409580Y-96559443D01*
X222408158Y-96564751D01*
X222408157Y-96564753D01*
X222354755Y-96764051D01*
X222351467Y-96776323D01*
X222331898Y-97000000D01*
X220323300Y-97000000D01*
X220323300Y-85074267D01*
X220323827Y-85063084D01*
X220325502Y-85055591D01*
X220324519Y-85024303D01*
X220323362Y-84987514D01*
X220323300Y-84983555D01*
X220323300Y-84955644D01*
X220322795Y-84951644D01*
X220321862Y-84939801D01*
X220321539Y-84929507D01*
X220320473Y-84895611D01*
X220314821Y-84876157D01*
X220310813Y-84856800D01*
X220309268Y-84844570D01*
X220309268Y-84844569D01*
X220308274Y-84836703D01*
X220295149Y-84803553D01*
X220291996Y-84795588D01*
X220288151Y-84784358D01*
X220278029Y-84749517D01*
X220278029Y-84749516D01*
X220275818Y-84741907D01*
X220271785Y-84735088D01*
X220271783Y-84735083D01*
X220265507Y-84724472D01*
X220256812Y-84706724D01*
X220249352Y-84687883D01*
X220223364Y-84652113D01*
X220216848Y-84642193D01*
X220198380Y-84610965D01*
X220198378Y-84610962D01*
X220194342Y-84604138D01*
X220180021Y-84589817D01*
X220167180Y-84574783D01*
X220159931Y-84564806D01*
X220155272Y-84558393D01*
X220121195Y-84530202D01*
X220112416Y-84522212D01*
X211670405Y-76080200D01*
X211636379Y-76017888D01*
X211633500Y-75991105D01*
X211633500Y-73238508D01*
X211653502Y-73170387D01*
X211687228Y-73135296D01*
X211798501Y-73057382D01*
X211823465Y-73039902D01*
X211823468Y-73039900D01*
X211827976Y-73036743D01*
X211986743Y-72877976D01*
X211991835Y-72870705D01*
X212112372Y-72698559D01*
X212115529Y-72694051D01*
X212117852Y-72689069D01*
X212117855Y-72689064D01*
X212170775Y-72575576D01*
X212176805Y-72562643D01*
X212223722Y-72509359D01*
X212292000Y-72489898D01*
X212359959Y-72510440D01*
X212380095Y-72526799D01*
X218083660Y-78230365D01*
X218117686Y-78292677D01*
X218112621Y-78363492D01*
X218070074Y-78420328D01*
X218047818Y-78433653D01*
X217982108Y-78464294D01*
X217900936Y-78502145D01*
X217900931Y-78502148D01*
X217895949Y-78504471D01*
X217845083Y-78540088D01*
X217716535Y-78630098D01*
X217716532Y-78630100D01*
X217712024Y-78633257D01*
X217553257Y-78792024D01*
X217550100Y-78796532D01*
X217550098Y-78796535D01*
X217515088Y-78846535D01*
X217424471Y-78975949D01*
X217422148Y-78980931D01*
X217422145Y-78980936D01*
X217398830Y-79030936D01*
X217329580Y-79179443D01*
X217271467Y-79396323D01*
X217251898Y-79620000D01*
X217271467Y-79843677D01*
X217272891Y-79848990D01*
X217272891Y-79848992D01*
X217295043Y-79931662D01*
X217329580Y-80060557D01*
X217331902Y-80065538D01*
X217331903Y-80065539D01*
X217422145Y-80259064D01*
X217422148Y-80259069D01*
X217424471Y-80264051D01*
X217553257Y-80447976D01*
X217712024Y-80606743D01*
X217716532Y-80609900D01*
X217716535Y-80609902D01*
X217793152Y-80663549D01*
X217895949Y-80735529D01*
X217900931Y-80737852D01*
X217900936Y-80737855D01*
X218093449Y-80827625D01*
X218099443Y-80830420D01*
X218104751Y-80831842D01*
X218104753Y-80831843D01*
X218311008Y-80887109D01*
X218311010Y-80887109D01*
X218316323Y-80888533D01*
X218540000Y-80908102D01*
X218763677Y-80888533D01*
X218768990Y-80887109D01*
X218768992Y-80887109D01*
X218975247Y-80831843D01*
X218975249Y-80831842D01*
X218980557Y-80830420D01*
X218986551Y-80827625D01*
X219179064Y-80737855D01*
X219179069Y-80737852D01*
X219184051Y-80735529D01*
X219286848Y-80663549D01*
X219363465Y-80609902D01*
X219363468Y-80609900D01*
X219367976Y-80606743D01*
X219526743Y-80447976D01*
X219655529Y-80264051D01*
X219657852Y-80259069D01*
X219657855Y-80259064D01*
X219695706Y-80177892D01*
X219726346Y-80112184D01*
X219773262Y-80058900D01*
X219841539Y-80039439D01*
X219909499Y-80059981D01*
X219929635Y-80076340D01*
X223027263Y-83173968D01*
X223061289Y-83236280D01*
X223056224Y-83307095D01*
X223013677Y-83363931D01*
X222991419Y-83377257D01*
X222975949Y-83384471D01*
X222873152Y-83456451D01*
X222796535Y-83510098D01*
X222796532Y-83510100D01*
X222792024Y-83513257D01*
X222633257Y-83672024D01*
X222504471Y-83855949D01*
X222502148Y-83860931D01*
X222502145Y-83860936D01*
X222421740Y-84033365D01*
X222409580Y-84059443D01*
X222351467Y-84276323D01*
X222331898Y-84500000D01*
X222351467Y-84723677D01*
X222352891Y-84728990D01*
X222352891Y-84728992D01*
X222405336Y-84924717D01*
X222409580Y-84940557D01*
X222411902Y-84945538D01*
X222411903Y-84945539D01*
X222502145Y-85139064D01*
X222502146Y-85139065D01*
X222504471Y-85144051D01*
X222552676Y-85212894D01*
X222623021Y-85313357D01*
X222633257Y-85327976D01*
X222792024Y-85486743D01*
X222796532Y-85489900D01*
X222796535Y-85489902D01*
X222873152Y-85543549D01*
X222975949Y-85615529D01*
X222980931Y-85617852D01*
X222980936Y-85617855D01*
X223174461Y-85708097D01*
X223179443Y-85710420D01*
X223184751Y-85711842D01*
X223184753Y-85711843D01*
X223391008Y-85767109D01*
X223391010Y-85767109D01*
X223396323Y-85768533D01*
X223620000Y-85788102D01*
X223843677Y-85768533D01*
X223848990Y-85767109D01*
X223848992Y-85767109D01*
X224055247Y-85711843D01*
X224055249Y-85711842D01*
X224060557Y-85710420D01*
X224065539Y-85708097D01*
X224259064Y-85617855D01*
X224259069Y-85617852D01*
X224264051Y-85615529D01*
X224366848Y-85543549D01*
X224443465Y-85489902D01*
X224443468Y-85489900D01*
X224447976Y-85486743D01*
X224606743Y-85327976D01*
X224616980Y-85313357D01*
X224687324Y-85212894D01*
X224735529Y-85144051D01*
X224742742Y-85128583D01*
X224789658Y-85075298D01*
X224857934Y-85055836D01*
X224925895Y-85076377D01*
X224946032Y-85092737D01*
X225261895Y-85408600D01*
X225295921Y-85470912D01*
X225298800Y-85497695D01*
X225298800Y-98250033D01*
X225298273Y-98261216D01*
X225296598Y-98268709D01*
X225296847Y-98276635D01*
X225296847Y-98276636D01*
X225298738Y-98336786D01*
X225298800Y-98340745D01*
X225298800Y-98368656D01*
X225299297Y-98372590D01*
X225299297Y-98372591D01*
X225299305Y-98372656D01*
X225300238Y-98384493D01*
X225301627Y-98428689D01*
X225307278Y-98448139D01*
X225311287Y-98467500D01*
X225313826Y-98487597D01*
X225316745Y-98494968D01*
X225316745Y-98494970D01*
X225330104Y-98528712D01*
X225333949Y-98539942D01*
X225342703Y-98570074D01*
X225346282Y-98582393D01*
X225350315Y-98589212D01*
X225350317Y-98589217D01*
X225356593Y-98599828D01*
X225365288Y-98617576D01*
X225372748Y-98636417D01*
X225377410Y-98642833D01*
X225377410Y-98642834D01*
X225398736Y-98672187D01*
X225405252Y-98682107D01*
X225423154Y-98712377D01*
X225427758Y-98720162D01*
X225442079Y-98734483D01*
X225454919Y-98749516D01*
X225466828Y-98765907D01*
X225485563Y-98781406D01*
X225500905Y-98794098D01*
X225509684Y-98802088D01*
X237894548Y-111186953D01*
X237902088Y-111195239D01*
X237906200Y-111201718D01*
X237911977Y-111207143D01*
X237955851Y-111248343D01*
X237958693Y-111251098D01*
X237978430Y-111270835D01*
X237981627Y-111273315D01*
X237990647Y-111281018D01*
X238022879Y-111311286D01*
X238029825Y-111315105D01*
X238029828Y-111315107D01*
X238040634Y-111321048D01*
X238057153Y-111331899D01*
X238073159Y-111344314D01*
X238080428Y-111347459D01*
X238080432Y-111347462D01*
X238113737Y-111361874D01*
X238124387Y-111367091D01*
X238152408Y-111382495D01*
X238202466Y-111432838D01*
X238217360Y-111502254D01*
X238213125Y-111526575D01*
X238160989Y-111714570D01*
X238137251Y-111936695D01*
X238137548Y-111941848D01*
X238137548Y-111941851D01*
X238143011Y-112036590D01*
X238150110Y-112159715D01*
X238151247Y-112164761D01*
X238151248Y-112164767D01*
X238171119Y-112252939D01*
X238199222Y-112377639D01*
X238237461Y-112471811D01*
X238269167Y-112549893D01*
X238283266Y-112584616D01*
X238334019Y-112667438D01*
X238397291Y-112770688D01*
X238399987Y-112775088D01*
X238546250Y-112943938D01*
X238718126Y-113086632D01*
X238911000Y-113199338D01*
X239119692Y-113279030D01*
X239124760Y-113280061D01*
X239124763Y-113280062D01*
X239230597Y-113301594D01*
X239338597Y-113323567D01*
X239343772Y-113323757D01*
X239343774Y-113323757D01*
X239556673Y-113331564D01*
X239556677Y-113331564D01*
X239561837Y-113331753D01*
X239566957Y-113331097D01*
X239566959Y-113331097D01*
X239778288Y-113304025D01*
X239778289Y-113304025D01*
X239783416Y-113303368D01*
X239789329Y-113301594D01*
X239992429Y-113240661D01*
X239992434Y-113240659D01*
X239997384Y-113239174D01*
X240197994Y-113140896D01*
X240379860Y-113011173D01*
X240414111Y-112977042D01*
X240461209Y-112930107D01*
X240538096Y-112853489D01*
X240541821Y-112848306D01*
X240668453Y-112672077D01*
X240669776Y-112673028D01*
X240716645Y-112629857D01*
X240786580Y-112617625D01*
X240852026Y-112645144D01*
X240879875Y-112676994D01*
X240939987Y-112775088D01*
X241086250Y-112943938D01*
X241258126Y-113086632D01*
X241451000Y-113199338D01*
X241659692Y-113279030D01*
X241664760Y-113280061D01*
X241664763Y-113280062D01*
X241770597Y-113301594D01*
X241878597Y-113323567D01*
X241883772Y-113323757D01*
X241883774Y-113323757D01*
X242096673Y-113331564D01*
X242096677Y-113331564D01*
X242101837Y-113331753D01*
X242106957Y-113331097D01*
X242106959Y-113331097D01*
X242318288Y-113304025D01*
X242318289Y-113304025D01*
X242323416Y-113303368D01*
X242329329Y-113301594D01*
X242532429Y-113240661D01*
X242532434Y-113240659D01*
X242537384Y-113239174D01*
X242737994Y-113140896D01*
X242919860Y-113011173D01*
X242954111Y-112977042D01*
X243001209Y-112930107D01*
X243078096Y-112853489D01*
X243081821Y-112848306D01*
X243205435Y-112676277D01*
X243208453Y-112672077D01*
X243229320Y-112629857D01*
X243305136Y-112476453D01*
X243305137Y-112476451D01*
X243307430Y-112471811D01*
X243372370Y-112258069D01*
X243401529Y-112036590D01*
X243403156Y-111970000D01*
X243384852Y-111747361D01*
X243330431Y-111530702D01*
X243241354Y-111325840D01*
X243191219Y-111248343D01*
X243122822Y-111142617D01*
X243122820Y-111142614D01*
X243120014Y-111138277D01*
X242969670Y-110973051D01*
X242965619Y-110969852D01*
X242965615Y-110969848D01*
X242798414Y-110837800D01*
X242798410Y-110837798D01*
X242794359Y-110834598D01*
X242753053Y-110811796D01*
X242703084Y-110761364D01*
X242688312Y-110691921D01*
X242713428Y-110625516D01*
X242740780Y-110598909D01*
X242784603Y-110567650D01*
X242919860Y-110471173D01*
X243078096Y-110313489D01*
X243137594Y-110230689D01*
X243205435Y-110136277D01*
X243208453Y-110132077D01*
X243217837Y-110113091D01*
X243305136Y-109936453D01*
X243305137Y-109936451D01*
X243307430Y-109931811D01*
X243372370Y-109718069D01*
X243401529Y-109496590D01*
X243403156Y-109430000D01*
X243384852Y-109207361D01*
X243330431Y-108990702D01*
X243241354Y-108785840D01*
X243120014Y-108598277D01*
X242969670Y-108433051D01*
X242965619Y-108429852D01*
X242965615Y-108429848D01*
X242798414Y-108297800D01*
X242798410Y-108297798D01*
X242794359Y-108294598D01*
X242753053Y-108271796D01*
X242703084Y-108221364D01*
X242688312Y-108151921D01*
X242713428Y-108085516D01*
X242740780Y-108058909D01*
X242784603Y-108027650D01*
X242919860Y-107931173D01*
X242932000Y-107919076D01*
X243074435Y-107777137D01*
X243078096Y-107773489D01*
X243137594Y-107690689D01*
X243205435Y-107596277D01*
X243208453Y-107592077D01*
X243221995Y-107564678D01*
X243305136Y-107396453D01*
X243305137Y-107396451D01*
X243307430Y-107391811D01*
X243372370Y-107178069D01*
X243401529Y-106956590D01*
X243403156Y-106890000D01*
X243384852Y-106667361D01*
X243330431Y-106450702D01*
X243241354Y-106245840D01*
X243120014Y-106058277D01*
X242969670Y-105893051D01*
X242965619Y-105889852D01*
X242965615Y-105889848D01*
X242798414Y-105757800D01*
X242798410Y-105757798D01*
X242794359Y-105754598D01*
X242753053Y-105731796D01*
X242703084Y-105681364D01*
X242688312Y-105611921D01*
X242713428Y-105545516D01*
X242740780Y-105518909D01*
X242808961Y-105470276D01*
X242919860Y-105391173D01*
X242925395Y-105385658D01*
X243074435Y-105237137D01*
X243078096Y-105233489D01*
X243137594Y-105150689D01*
X243205435Y-105056277D01*
X243208453Y-105052077D01*
X243229320Y-105009857D01*
X243305136Y-104856453D01*
X243305137Y-104856451D01*
X243307430Y-104851811D01*
X243372370Y-104638069D01*
X243401529Y-104416590D01*
X243403156Y-104350000D01*
X243384852Y-104127361D01*
X243330431Y-103910702D01*
X243241354Y-103705840D01*
X243120014Y-103518277D01*
X242969670Y-103353051D01*
X242965619Y-103349852D01*
X242965615Y-103349848D01*
X242798414Y-103217800D01*
X242798410Y-103217798D01*
X242794359Y-103214598D01*
X242753053Y-103191796D01*
X242703084Y-103141364D01*
X242688312Y-103071921D01*
X242713428Y-103005516D01*
X242740780Y-102978909D01*
X242784603Y-102947650D01*
X242919860Y-102851173D01*
X242967292Y-102803907D01*
X243013197Y-102758162D01*
X243078096Y-102693489D01*
X243087190Y-102680834D01*
X243205435Y-102516277D01*
X243208453Y-102512077D01*
X243216567Y-102495661D01*
X243305136Y-102316453D01*
X243305137Y-102316451D01*
X243307430Y-102311811D01*
X243372370Y-102098069D01*
X243401529Y-101876590D01*
X243403156Y-101810000D01*
X243384852Y-101587361D01*
X243330431Y-101370702D01*
X243241354Y-101165840D01*
X243120014Y-100978277D01*
X242969670Y-100813051D01*
X242965619Y-100809852D01*
X242965615Y-100809848D01*
X242798414Y-100677800D01*
X242798410Y-100677798D01*
X242794359Y-100674598D01*
X242752569Y-100651529D01*
X242702598Y-100601097D01*
X242687826Y-100531654D01*
X242712942Y-100465248D01*
X242740294Y-100438641D01*
X242915328Y-100313792D01*
X242923200Y-100307139D01*
X243074052Y-100156812D01*
X243080730Y-100148965D01*
X243205003Y-99976020D01*
X243210313Y-99967183D01*
X243304670Y-99776267D01*
X243308469Y-99766672D01*
X243370377Y-99562910D01*
X243372555Y-99552837D01*
X243373986Y-99541962D01*
X243371775Y-99527778D01*
X243358617Y-99524000D01*
X241912000Y-99524000D01*
X241843879Y-99503998D01*
X241797386Y-99450342D01*
X241786000Y-99398000D01*
X241786000Y-99142000D01*
X241806002Y-99073879D01*
X241859658Y-99027386D01*
X241912000Y-99016000D01*
X243358344Y-99016000D01*
X243371875Y-99012027D01*
X243373180Y-99002947D01*
X243331214Y-98835875D01*
X243327894Y-98826124D01*
X243242972Y-98630814D01*
X243238105Y-98621739D01*
X243122426Y-98442926D01*
X243116136Y-98434757D01*
X242972806Y-98277240D01*
X242965273Y-98270215D01*
X242798139Y-98138222D01*
X242789556Y-98132520D01*
X242752602Y-98112120D01*
X242702631Y-98061687D01*
X242687859Y-97992245D01*
X242712975Y-97925839D01*
X242740327Y-97899232D01*
X242763797Y-97882491D01*
X242919860Y-97771173D01*
X243078096Y-97613489D01*
X243154683Y-97506907D01*
X243205435Y-97436277D01*
X243208453Y-97432077D01*
X243221995Y-97404678D01*
X243305136Y-97236453D01*
X243305137Y-97236451D01*
X243307430Y-97231811D01*
X243372370Y-97018069D01*
X243401529Y-96796590D01*
X243403156Y-96730000D01*
X243384852Y-96507361D01*
X243330431Y-96290702D01*
X243241354Y-96085840D01*
X243169430Y-95974662D01*
X243122822Y-95902617D01*
X243122820Y-95902614D01*
X243120014Y-95898277D01*
X242969670Y-95733051D01*
X242965619Y-95729852D01*
X242965615Y-95729848D01*
X242798414Y-95597800D01*
X242798410Y-95597798D01*
X242794359Y-95594598D01*
X242752569Y-95571529D01*
X242702598Y-95521097D01*
X242687826Y-95451654D01*
X242712942Y-95385248D01*
X242740294Y-95358641D01*
X242915328Y-95233792D01*
X242923200Y-95227139D01*
X243074052Y-95076812D01*
X243080730Y-95068965D01*
X243205003Y-94896020D01*
X243210313Y-94887183D01*
X243304670Y-94696267D01*
X243308469Y-94686672D01*
X243370377Y-94482910D01*
X243372555Y-94472837D01*
X243373986Y-94461962D01*
X243371775Y-94447778D01*
X243358617Y-94444000D01*
X241912000Y-94444000D01*
X241843879Y-94423998D01*
X241797386Y-94370342D01*
X241786000Y-94318000D01*
X241786000Y-94062000D01*
X241806002Y-93993879D01*
X241859658Y-93947386D01*
X241912000Y-93936000D01*
X243358344Y-93936000D01*
X243371875Y-93932027D01*
X243373180Y-93922947D01*
X243331214Y-93755875D01*
X243327894Y-93746124D01*
X243242972Y-93550814D01*
X243238105Y-93541739D01*
X243122426Y-93362926D01*
X243116136Y-93354757D01*
X242972806Y-93197240D01*
X242965273Y-93190215D01*
X242798139Y-93058222D01*
X242789556Y-93052520D01*
X242752602Y-93032120D01*
X242702631Y-92981687D01*
X242687859Y-92912245D01*
X242712975Y-92845839D01*
X242740327Y-92819232D01*
X242763797Y-92802491D01*
X242919860Y-92691173D01*
X243078096Y-92533489D01*
X243137594Y-92450689D01*
X243205435Y-92356277D01*
X243208453Y-92352077D01*
X243215357Y-92338109D01*
X243305136Y-92156453D01*
X243305137Y-92156451D01*
X243307430Y-92151811D01*
X243372370Y-91938069D01*
X243401529Y-91716590D01*
X243402554Y-91674633D01*
X243403074Y-91653365D01*
X243403074Y-91653361D01*
X243403156Y-91650000D01*
X243384852Y-91427361D01*
X243330431Y-91210702D01*
X243241354Y-91005840D01*
X243141496Y-90851483D01*
X243122822Y-90822617D01*
X243122820Y-90822614D01*
X243120014Y-90818277D01*
X242969670Y-90653051D01*
X242965619Y-90649852D01*
X242965615Y-90649848D01*
X242798414Y-90517800D01*
X242798410Y-90517798D01*
X242794359Y-90514598D01*
X242753053Y-90491796D01*
X242703084Y-90441364D01*
X242688312Y-90371921D01*
X242713428Y-90305516D01*
X242740780Y-90278909D01*
X242784603Y-90247650D01*
X242919860Y-90151173D01*
X242980484Y-90090761D01*
X243032512Y-90038914D01*
X243078096Y-89993489D01*
X243088444Y-89979089D01*
X243205435Y-89816277D01*
X243208453Y-89812077D01*
X243217883Y-89792998D01*
X243305136Y-89616453D01*
X243305137Y-89616451D01*
X243307430Y-89611811D01*
X243372370Y-89398069D01*
X243401529Y-89176590D01*
X243402446Y-89139064D01*
X243403074Y-89113365D01*
X243403074Y-89113361D01*
X243403156Y-89110000D01*
X243384852Y-88887361D01*
X243330431Y-88670702D01*
X243241354Y-88465840D01*
X243164465Y-88346988D01*
X243122822Y-88282617D01*
X243122820Y-88282614D01*
X243120014Y-88278277D01*
X242969670Y-88113051D01*
X242965619Y-88109852D01*
X242965615Y-88109848D01*
X242798414Y-87977800D01*
X242798410Y-87977798D01*
X242794359Y-87974598D01*
X242753053Y-87951796D01*
X242703084Y-87901364D01*
X242688312Y-87831921D01*
X242713428Y-87765516D01*
X242740780Y-87738909D01*
X242784603Y-87707650D01*
X242919860Y-87611173D01*
X243078096Y-87453489D01*
X243137594Y-87370689D01*
X243205435Y-87276277D01*
X243208453Y-87272077D01*
X243228761Y-87230988D01*
X243305136Y-87076453D01*
X243305137Y-87076451D01*
X243307430Y-87071811D01*
X243372370Y-86858069D01*
X243401529Y-86636590D01*
X243403156Y-86570000D01*
X243384852Y-86347361D01*
X243330431Y-86130702D01*
X243241354Y-85925840D01*
X243152247Y-85788102D01*
X243122822Y-85742617D01*
X243122820Y-85742614D01*
X243120014Y-85738277D01*
X242969670Y-85573051D01*
X242965619Y-85569852D01*
X242965615Y-85569848D01*
X242798414Y-85437800D01*
X242798410Y-85437798D01*
X242794359Y-85434598D01*
X242753053Y-85411796D01*
X242703084Y-85361364D01*
X242688312Y-85291921D01*
X242713428Y-85225516D01*
X242740780Y-85198909D01*
X242784603Y-85167650D01*
X242919860Y-85071173D01*
X243078096Y-84913489D01*
X243096410Y-84888003D01*
X243205435Y-84736277D01*
X243208453Y-84732077D01*
X243233467Y-84681466D01*
X243305136Y-84536453D01*
X243305137Y-84536451D01*
X243307430Y-84531811D01*
X243372370Y-84318069D01*
X243401529Y-84096590D01*
X243402437Y-84059443D01*
X243403074Y-84033365D01*
X243403074Y-84033361D01*
X243403156Y-84030000D01*
X243384852Y-83807361D01*
X243330431Y-83590702D01*
X243241354Y-83385840D01*
X243141176Y-83230988D01*
X243122822Y-83202617D01*
X243122820Y-83202614D01*
X243120014Y-83198277D01*
X242969670Y-83033051D01*
X242965619Y-83029852D01*
X242965615Y-83029848D01*
X242798414Y-82897800D01*
X242798410Y-82897798D01*
X242794359Y-82894598D01*
X242598789Y-82786638D01*
X242593920Y-82784914D01*
X242593916Y-82784912D01*
X242393087Y-82713795D01*
X242393083Y-82713794D01*
X242388212Y-82712069D01*
X242383119Y-82711162D01*
X242383116Y-82711161D01*
X242173373Y-82673800D01*
X242173367Y-82673799D01*
X242168284Y-82672894D01*
X242094452Y-82671992D01*
X241950081Y-82670228D01*
X241950079Y-82670228D01*
X241944911Y-82670165D01*
X241724091Y-82703955D01*
X241511756Y-82773357D01*
X241313607Y-82876507D01*
X241309474Y-82879610D01*
X241309471Y-82879612D01*
X241139100Y-83007530D01*
X241134965Y-83010635D01*
X241078537Y-83069684D01*
X241054283Y-83095064D01*
X240992759Y-83130494D01*
X240921846Y-83127037D01*
X240864060Y-83085791D01*
X240845207Y-83052243D01*
X240803767Y-82941703D01*
X240800615Y-82933295D01*
X240713261Y-82816739D01*
X240596705Y-82729385D01*
X240460316Y-82678255D01*
X240398134Y-82671500D01*
X238601866Y-82671500D01*
X238539684Y-82678255D01*
X238403295Y-82729385D01*
X238286739Y-82816739D01*
X238199385Y-82933295D01*
X238148255Y-83069684D01*
X238141500Y-83131866D01*
X238141500Y-84928134D01*
X238148255Y-84990316D01*
X238199385Y-85126705D01*
X238286739Y-85243261D01*
X238403295Y-85330615D01*
X238411704Y-85333767D01*
X238411705Y-85333768D01*
X238520451Y-85374535D01*
X238577216Y-85417176D01*
X238601916Y-85483738D01*
X238586709Y-85553087D01*
X238567316Y-85579568D01*
X238483729Y-85667037D01*
X238440629Y-85712138D01*
X238437720Y-85716403D01*
X238437714Y-85716411D01*
X238409635Y-85757574D01*
X238314743Y-85896680D01*
X238220688Y-86099305D01*
X238160989Y-86314570D01*
X238137251Y-86536695D01*
X238137548Y-86541848D01*
X238137548Y-86541851D01*
X238143011Y-86636590D01*
X238150110Y-86759715D01*
X238151247Y-86764761D01*
X238151248Y-86764767D01*
X238171119Y-86852939D01*
X238199222Y-86977639D01*
X238283266Y-87184616D01*
X238334019Y-87267438D01*
X238397291Y-87370688D01*
X238399987Y-87375088D01*
X238546250Y-87543938D01*
X238718126Y-87686632D01*
X238791445Y-87729476D01*
X238791955Y-87729774D01*
X238840679Y-87781412D01*
X238853750Y-87851195D01*
X238827019Y-87916967D01*
X238786562Y-87950327D01*
X238778457Y-87954546D01*
X238769738Y-87960036D01*
X238599433Y-88087905D01*
X238591726Y-88094748D01*
X238523880Y-88165744D01*
X238462356Y-88201173D01*
X238391444Y-88197716D01*
X238343692Y-88167787D01*
X235068496Y-84892591D01*
X235034470Y-84830279D01*
X235035884Y-84770886D01*
X235047108Y-84728995D01*
X235047109Y-84728992D01*
X235048533Y-84723677D01*
X235068102Y-84500000D01*
X235048533Y-84276323D01*
X234990420Y-84059443D01*
X234978260Y-84033365D01*
X234897855Y-83860936D01*
X234897852Y-83860931D01*
X234895529Y-83855949D01*
X234766743Y-83672024D01*
X234607976Y-83513257D01*
X234603468Y-83510100D01*
X234603465Y-83510098D01*
X234526848Y-83456451D01*
X234424051Y-83384471D01*
X234419069Y-83382148D01*
X234419064Y-83382145D01*
X234225539Y-83291903D01*
X234225538Y-83291902D01*
X234220557Y-83289580D01*
X234215249Y-83288158D01*
X234215247Y-83288157D01*
X234008992Y-83232891D01*
X234008990Y-83232891D01*
X234003677Y-83231467D01*
X233780000Y-83211898D01*
X233556323Y-83231467D01*
X233551010Y-83232891D01*
X233551008Y-83232891D01*
X233344753Y-83288157D01*
X233344751Y-83288158D01*
X233339443Y-83289580D01*
X233334462Y-83291902D01*
X233334461Y-83291903D01*
X233140936Y-83382145D01*
X233140931Y-83382148D01*
X233135949Y-83384471D01*
X233033152Y-83456451D01*
X232956535Y-83510098D01*
X232956532Y-83510100D01*
X232952024Y-83513257D01*
X232793257Y-83672024D01*
X232664471Y-83855949D01*
X232662148Y-83860931D01*
X232662145Y-83860936D01*
X232581740Y-84033365D01*
X232569580Y-84059443D01*
X232511467Y-84276323D01*
X232491898Y-84500000D01*
X232511467Y-84723677D01*
X232512891Y-84728990D01*
X232512891Y-84728992D01*
X232565336Y-84924717D01*
X232569580Y-84940557D01*
X232571902Y-84945538D01*
X232571903Y-84945539D01*
X232662145Y-85139064D01*
X232662146Y-85139065D01*
X232664471Y-85144051D01*
X232712676Y-85212894D01*
X232783021Y-85313357D01*
X232793257Y-85327976D01*
X232952024Y-85486743D01*
X232956532Y-85489900D01*
X232956535Y-85489902D01*
X233033152Y-85543549D01*
X233135949Y-85615529D01*
X233140931Y-85617852D01*
X233140936Y-85617855D01*
X233334461Y-85708097D01*
X233339443Y-85710420D01*
X233344751Y-85711842D01*
X233344753Y-85711843D01*
X233551008Y-85767109D01*
X233551010Y-85767109D01*
X233556323Y-85768533D01*
X233780000Y-85788102D01*
X234003677Y-85768533D01*
X234012162Y-85766259D01*
X234050887Y-85755884D01*
X234121864Y-85757574D01*
X234172592Y-85788496D01*
X237654295Y-89270199D01*
X237688321Y-89332511D01*
X237691200Y-89359294D01*
X237691200Y-102288033D01*
X237690673Y-102299216D01*
X237688998Y-102306709D01*
X237689247Y-102314635D01*
X237689247Y-102314636D01*
X237691138Y-102374786D01*
X237691200Y-102378745D01*
X237691200Y-102406656D01*
X237691697Y-102410590D01*
X237691697Y-102410591D01*
X237691705Y-102410656D01*
X237692638Y-102422493D01*
X237694027Y-102466689D01*
X237699389Y-102485144D01*
X237699678Y-102486139D01*
X237703687Y-102505500D01*
X237705049Y-102516277D01*
X237706226Y-102525597D01*
X237709145Y-102532968D01*
X237709145Y-102532970D01*
X237722504Y-102566712D01*
X237726349Y-102577942D01*
X237735863Y-102610689D01*
X237738682Y-102620393D01*
X237742715Y-102627212D01*
X237742717Y-102627217D01*
X237748993Y-102637828D01*
X237757688Y-102655576D01*
X237765148Y-102674417D01*
X237769810Y-102680833D01*
X237769810Y-102680834D01*
X237791136Y-102710187D01*
X237797652Y-102720107D01*
X237820158Y-102758162D01*
X237834479Y-102772483D01*
X237847319Y-102787516D01*
X237859228Y-102803907D01*
X237865334Y-102808958D01*
X237893305Y-102832098D01*
X237902084Y-102840088D01*
X238412821Y-103350825D01*
X238446847Y-103413137D01*
X238441782Y-103483952D01*
X238427814Y-103510924D01*
X238314743Y-103676680D01*
X238220688Y-103879305D01*
X238160989Y-104094570D01*
X238137251Y-104316695D01*
X238137548Y-104321848D01*
X238137548Y-104321851D01*
X238143011Y-104416590D01*
X238150110Y-104539715D01*
X238151247Y-104544761D01*
X238151248Y-104544767D01*
X238165316Y-104607188D01*
X238199222Y-104757639D01*
X238283266Y-104964616D01*
X238334019Y-105047438D01*
X238397291Y-105150688D01*
X238399987Y-105155088D01*
X238546250Y-105323938D01*
X238718126Y-105466632D01*
X238724362Y-105470276D01*
X238791955Y-105509774D01*
X238840679Y-105561412D01*
X238853750Y-105631195D01*
X238827019Y-105696967D01*
X238786562Y-105730327D01*
X238778457Y-105734546D01*
X238769738Y-105740036D01*
X238599433Y-105867905D01*
X238591726Y-105874748D01*
X238444590Y-106028717D01*
X238438104Y-106036727D01*
X238318098Y-106212649D01*
X238313000Y-106221623D01*
X238223338Y-106414783D01*
X238219775Y-106424470D01*
X238164389Y-106624183D01*
X238165912Y-106632607D01*
X238178292Y-106636000D01*
X239628000Y-106636000D01*
X239696121Y-106656002D01*
X239742614Y-106709658D01*
X239754000Y-106762000D01*
X239754000Y-107018000D01*
X239733998Y-107086121D01*
X239680342Y-107132614D01*
X239628000Y-107144000D01*
X238183225Y-107144000D01*
X238169694Y-107147973D01*
X238168257Y-107157966D01*
X238198565Y-107292446D01*
X238201645Y-107302275D01*
X238281770Y-107499603D01*
X238286413Y-107508794D01*
X238397694Y-107690388D01*
X238403777Y-107698699D01*
X238543213Y-107859667D01*
X238550580Y-107866883D01*
X238714434Y-108002916D01*
X238722881Y-108008831D01*
X238791969Y-108049203D01*
X238840693Y-108100842D01*
X238853764Y-108170625D01*
X238827033Y-108236396D01*
X238786584Y-108269752D01*
X238773607Y-108276507D01*
X238769474Y-108279610D01*
X238769471Y-108279612D01*
X238745247Y-108297800D01*
X238594965Y-108410635D01*
X238440629Y-108572138D01*
X238314743Y-108756680D01*
X238280514Y-108830420D01*
X238235106Y-108928245D01*
X238220688Y-108959305D01*
X238160989Y-109174570D01*
X238160440Y-109179704D01*
X238160440Y-109179706D01*
X238141976Y-109352484D01*
X238114848Y-109418094D01*
X238056556Y-109458622D01*
X237985606Y-109461201D01*
X237927594Y-109428190D01*
X234418640Y-105919236D01*
X234384614Y-105856924D01*
X234389679Y-105786109D01*
X234435464Y-105726928D01*
X234474884Y-105699325D01*
X234483259Y-105688848D01*
X234476190Y-105675400D01*
X233421922Y-104621132D01*
X234144408Y-104621132D01*
X234144539Y-104622965D01*
X234148790Y-104629580D01*
X234836122Y-105316912D01*
X234847896Y-105323342D01*
X234859912Y-105314046D01*
X234891940Y-105268305D01*
X234897419Y-105258815D01*
X234987625Y-105065367D01*
X234991371Y-105055075D01*
X235046614Y-104848904D01*
X235048517Y-104838109D01*
X235067121Y-104625475D01*
X235067121Y-104614525D01*
X235048517Y-104401891D01*
X235046614Y-104391096D01*
X234991371Y-104184925D01*
X234987625Y-104174633D01*
X234897419Y-103981185D01*
X234891940Y-103971695D01*
X234859324Y-103925115D01*
X234848848Y-103916741D01*
X234835400Y-103923810D01*
X234152022Y-104607188D01*
X234144408Y-104621132D01*
X233421922Y-104621132D01*
X232723878Y-103923088D01*
X232712104Y-103916658D01*
X232700087Y-103925955D01*
X232673072Y-103964536D01*
X232617614Y-104008864D01*
X232546995Y-104016173D01*
X232480764Y-103981360D01*
X232360811Y-103861406D01*
X232050557Y-103551152D01*
X233076741Y-103551152D01*
X233083810Y-103564600D01*
X233767188Y-104247978D01*
X233781132Y-104255592D01*
X233782965Y-104255461D01*
X233789580Y-104251210D01*
X234476912Y-103563878D01*
X234483342Y-103552104D01*
X234474046Y-103540088D01*
X234428305Y-103508060D01*
X234418815Y-103502581D01*
X234225367Y-103412375D01*
X234215075Y-103408629D01*
X234008904Y-103353386D01*
X233998109Y-103351483D01*
X233785475Y-103332879D01*
X233774525Y-103332879D01*
X233561891Y-103351483D01*
X233551096Y-103353386D01*
X233344925Y-103408629D01*
X233334633Y-103412375D01*
X233141185Y-103502581D01*
X233131695Y-103508060D01*
X233085115Y-103540676D01*
X233076741Y-103551152D01*
X232050557Y-103551152D01*
X226602705Y-98103300D01*
X226568679Y-98040988D01*
X226565800Y-98014205D01*
X226565800Y-97000000D01*
X232491898Y-97000000D01*
X232511467Y-97223677D01*
X232512891Y-97228990D01*
X232512891Y-97228992D01*
X232567563Y-97433028D01*
X232569580Y-97440557D01*
X232571902Y-97445538D01*
X232571903Y-97445539D01*
X232662145Y-97639064D01*
X232662148Y-97639069D01*
X232664471Y-97644051D01*
X232793257Y-97827976D01*
X232952024Y-97986743D01*
X232956532Y-97989900D01*
X232956535Y-97989902D01*
X233000111Y-98020414D01*
X233135949Y-98115529D01*
X233140931Y-98117852D01*
X233140936Y-98117855D01*
X233334461Y-98208097D01*
X233339443Y-98210420D01*
X233344751Y-98211842D01*
X233344753Y-98211843D01*
X233551008Y-98267109D01*
X233551010Y-98267109D01*
X233556323Y-98268533D01*
X233780000Y-98288102D01*
X234003677Y-98268533D01*
X234008990Y-98267109D01*
X234008992Y-98267109D01*
X234215247Y-98211843D01*
X234215249Y-98211842D01*
X234220557Y-98210420D01*
X234225539Y-98208097D01*
X234419064Y-98117855D01*
X234419069Y-98117852D01*
X234424051Y-98115529D01*
X234559889Y-98020414D01*
X234603465Y-97989902D01*
X234603468Y-97989900D01*
X234607976Y-97986743D01*
X234766743Y-97827976D01*
X234895529Y-97644051D01*
X234897852Y-97639069D01*
X234897855Y-97639064D01*
X234988097Y-97445539D01*
X234988098Y-97445538D01*
X234990420Y-97440557D01*
X234992438Y-97433028D01*
X235047109Y-97228992D01*
X235047109Y-97228990D01*
X235048533Y-97223677D01*
X235068102Y-97000000D01*
X235048533Y-96776323D01*
X235045245Y-96764051D01*
X234991843Y-96564753D01*
X234991842Y-96564751D01*
X234990420Y-96559443D01*
X234972007Y-96519956D01*
X234897855Y-96360936D01*
X234897852Y-96360931D01*
X234895529Y-96355949D01*
X234766743Y-96172024D01*
X234607976Y-96013257D01*
X234603468Y-96010100D01*
X234603465Y-96010098D01*
X234448929Y-95901891D01*
X234424051Y-95884471D01*
X234419069Y-95882148D01*
X234419064Y-95882145D01*
X234225539Y-95791903D01*
X234225538Y-95791902D01*
X234220557Y-95789580D01*
X234215249Y-95788158D01*
X234215247Y-95788157D01*
X234008992Y-95732891D01*
X234008990Y-95732891D01*
X234003677Y-95731467D01*
X233780000Y-95711898D01*
X233556323Y-95731467D01*
X233551010Y-95732891D01*
X233551008Y-95732891D01*
X233344753Y-95788157D01*
X233344751Y-95788158D01*
X233339443Y-95789580D01*
X233334462Y-95791902D01*
X233334461Y-95791903D01*
X233140936Y-95882145D01*
X233140931Y-95882148D01*
X233135949Y-95884471D01*
X233111071Y-95901891D01*
X232956535Y-96010098D01*
X232956532Y-96010100D01*
X232952024Y-96013257D01*
X232793257Y-96172024D01*
X232664471Y-96355949D01*
X232662148Y-96360931D01*
X232662145Y-96360936D01*
X232587993Y-96519956D01*
X232569580Y-96559443D01*
X232568158Y-96564751D01*
X232568157Y-96564753D01*
X232514755Y-96764051D01*
X232511467Y-96776323D01*
X232491898Y-97000000D01*
X226565800Y-97000000D01*
X226565800Y-93187896D01*
X233076658Y-93187896D01*
X233085954Y-93199912D01*
X233131695Y-93231940D01*
X233141185Y-93237419D01*
X233334633Y-93327625D01*
X233344925Y-93331371D01*
X233551096Y-93386614D01*
X233561891Y-93388517D01*
X233774525Y-93407121D01*
X233785475Y-93407121D01*
X233998109Y-93388517D01*
X234008904Y-93386614D01*
X234215075Y-93331371D01*
X234225367Y-93327625D01*
X234418815Y-93237419D01*
X234428305Y-93231940D01*
X234474885Y-93199324D01*
X234483259Y-93188848D01*
X234476190Y-93175400D01*
X233792812Y-92492022D01*
X233778868Y-92484408D01*
X233777035Y-92484539D01*
X233770420Y-92488790D01*
X233083088Y-93176122D01*
X233076658Y-93187896D01*
X226565800Y-93187896D01*
X226565800Y-92125475D01*
X232492879Y-92125475D01*
X232511483Y-92338109D01*
X232513386Y-92348904D01*
X232568629Y-92555075D01*
X232572375Y-92565367D01*
X232662581Y-92758815D01*
X232668060Y-92768305D01*
X232700676Y-92814885D01*
X232711152Y-92823259D01*
X232724600Y-92816190D01*
X233407978Y-92132812D01*
X233414356Y-92121132D01*
X234144408Y-92121132D01*
X234144539Y-92122965D01*
X234148790Y-92129580D01*
X234836122Y-92816912D01*
X234847896Y-92823342D01*
X234859912Y-92814046D01*
X234891940Y-92768305D01*
X234897419Y-92758815D01*
X234987625Y-92565367D01*
X234991371Y-92555075D01*
X235046614Y-92348904D01*
X235048517Y-92338109D01*
X235067121Y-92125475D01*
X235067121Y-92114525D01*
X235048517Y-91901891D01*
X235046614Y-91891096D01*
X234991371Y-91684925D01*
X234987625Y-91674633D01*
X234897419Y-91481185D01*
X234891940Y-91471695D01*
X234859324Y-91425115D01*
X234848848Y-91416741D01*
X234835400Y-91423810D01*
X234152022Y-92107188D01*
X234144408Y-92121132D01*
X233414356Y-92121132D01*
X233415592Y-92118868D01*
X233415461Y-92117035D01*
X233411210Y-92110420D01*
X232723878Y-91423088D01*
X232712104Y-91416658D01*
X232700088Y-91425954D01*
X232668060Y-91471695D01*
X232662581Y-91481185D01*
X232572375Y-91674633D01*
X232568629Y-91684925D01*
X232513386Y-91891096D01*
X232511483Y-91901891D01*
X232492879Y-92114525D01*
X232492879Y-92125475D01*
X226565800Y-92125475D01*
X226565800Y-91051152D01*
X233076741Y-91051152D01*
X233083810Y-91064600D01*
X233767188Y-91747978D01*
X233781132Y-91755592D01*
X233782965Y-91755461D01*
X233789580Y-91751210D01*
X234476912Y-91063878D01*
X234483342Y-91052104D01*
X234474046Y-91040088D01*
X234428305Y-91008060D01*
X234418815Y-91002581D01*
X234225367Y-90912375D01*
X234215075Y-90908629D01*
X234008904Y-90853386D01*
X233998109Y-90851483D01*
X233785475Y-90832879D01*
X233774525Y-90832879D01*
X233561891Y-90851483D01*
X233551096Y-90853386D01*
X233344925Y-90908629D01*
X233334633Y-90912375D01*
X233141185Y-91002581D01*
X233131695Y-91008060D01*
X233085115Y-91040676D01*
X233076741Y-91051152D01*
X226565800Y-91051152D01*
X226565800Y-85261867D01*
X226566327Y-85250684D01*
X226568002Y-85243191D01*
X226567447Y-85225516D01*
X226565862Y-85175101D01*
X226565800Y-85171143D01*
X226565800Y-85143244D01*
X226565296Y-85139253D01*
X226564363Y-85127411D01*
X226563223Y-85091136D01*
X226562974Y-85083211D01*
X226560762Y-85075597D01*
X226560761Y-85075592D01*
X226557323Y-85063759D01*
X226553312Y-85044395D01*
X226551767Y-85032164D01*
X226550774Y-85024303D01*
X226547857Y-85016936D01*
X226547856Y-85016931D01*
X226534498Y-84983192D01*
X226530654Y-84971965D01*
X226525033Y-84952618D01*
X226518318Y-84929507D01*
X226508007Y-84912072D01*
X226499312Y-84894324D01*
X226491852Y-84875483D01*
X226465864Y-84839713D01*
X226459348Y-84829793D01*
X226440880Y-84798565D01*
X226440878Y-84798562D01*
X226436842Y-84791738D01*
X226422521Y-84777417D01*
X226409680Y-84762383D01*
X226402431Y-84752406D01*
X226397772Y-84745993D01*
X226363695Y-84717802D01*
X226354916Y-84709812D01*
X222333000Y-80687896D01*
X233076658Y-80687896D01*
X233085954Y-80699912D01*
X233131695Y-80731940D01*
X233141185Y-80737419D01*
X233334633Y-80827625D01*
X233344925Y-80831371D01*
X233551096Y-80886614D01*
X233561891Y-80888517D01*
X233774525Y-80907121D01*
X233785475Y-80907121D01*
X233998109Y-80888517D01*
X234008904Y-80886614D01*
X234215075Y-80831371D01*
X234225367Y-80827625D01*
X234418815Y-80737419D01*
X234428305Y-80731940D01*
X234474885Y-80699324D01*
X234483259Y-80688848D01*
X234476190Y-80675400D01*
X233792812Y-79992022D01*
X233778868Y-79984408D01*
X233777035Y-79984539D01*
X233770420Y-79988790D01*
X233083088Y-80676122D01*
X233076658Y-80687896D01*
X222333000Y-80687896D01*
X221270579Y-79625475D01*
X232492879Y-79625475D01*
X232511483Y-79838109D01*
X232513386Y-79848904D01*
X232568629Y-80055075D01*
X232572375Y-80065367D01*
X232662581Y-80258815D01*
X232668060Y-80268305D01*
X232700676Y-80314885D01*
X232711152Y-80323259D01*
X232724600Y-80316190D01*
X233407978Y-79632812D01*
X233414356Y-79621132D01*
X234144408Y-79621132D01*
X234144539Y-79622965D01*
X234148790Y-79629580D01*
X234836122Y-80316912D01*
X234847896Y-80323342D01*
X234859912Y-80314046D01*
X234891940Y-80268305D01*
X234897419Y-80258815D01*
X234987625Y-80065367D01*
X234991371Y-80055075D01*
X235046614Y-79848904D01*
X235048517Y-79838109D01*
X235067121Y-79625475D01*
X235067121Y-79614525D01*
X235048517Y-79401891D01*
X235046614Y-79391096D01*
X234991371Y-79184925D01*
X234987625Y-79174633D01*
X234897419Y-78981185D01*
X234891940Y-78971695D01*
X234859324Y-78925115D01*
X234848848Y-78916741D01*
X234835400Y-78923810D01*
X234152022Y-79607188D01*
X234144408Y-79621132D01*
X233414356Y-79621132D01*
X233415592Y-79618868D01*
X233415461Y-79617035D01*
X233411210Y-79610420D01*
X232723878Y-78923088D01*
X232712104Y-78916658D01*
X232700088Y-78925954D01*
X232668060Y-78971695D01*
X232662581Y-78981185D01*
X232572375Y-79174633D01*
X232568629Y-79184925D01*
X232513386Y-79391096D01*
X232511483Y-79401891D01*
X232492879Y-79614525D01*
X232492879Y-79625475D01*
X221270579Y-79625475D01*
X220196256Y-78551152D01*
X233076741Y-78551152D01*
X233083810Y-78564600D01*
X233767188Y-79247978D01*
X233781132Y-79255592D01*
X233782965Y-79255461D01*
X233789580Y-79251210D01*
X234476912Y-78563878D01*
X234483342Y-78552104D01*
X234474046Y-78540088D01*
X234428305Y-78508060D01*
X234418815Y-78502581D01*
X234225367Y-78412375D01*
X234215075Y-78408629D01*
X234008904Y-78353386D01*
X233998109Y-78351483D01*
X233785475Y-78332879D01*
X233774525Y-78332879D01*
X233561891Y-78351483D01*
X233551096Y-78353386D01*
X233344925Y-78408629D01*
X233334633Y-78412375D01*
X233141185Y-78502581D01*
X233131695Y-78508060D01*
X233085115Y-78540676D01*
X233076741Y-78551152D01*
X220196256Y-78551152D01*
X212368700Y-70723595D01*
X212334674Y-70661283D01*
X212339739Y-70590468D01*
X212382286Y-70533632D01*
X212448806Y-70508821D01*
X212457795Y-70508500D01*
X215651381Y-70508500D01*
X215719502Y-70528502D01*
X215765995Y-70582158D01*
X215776099Y-70652432D01*
X215746605Y-70717012D01*
X215683992Y-70756207D01*
X215564753Y-70788157D01*
X215564751Y-70788158D01*
X215559443Y-70789580D01*
X215554462Y-70791902D01*
X215554461Y-70791903D01*
X215360936Y-70882145D01*
X215360931Y-70882148D01*
X215355949Y-70884471D01*
X215324790Y-70906289D01*
X215176535Y-71010098D01*
X215176532Y-71010100D01*
X215172024Y-71013257D01*
X215013257Y-71172024D01*
X214884471Y-71355949D01*
X214882148Y-71360931D01*
X214882145Y-71360936D01*
X214791903Y-71554461D01*
X214789580Y-71559443D01*
X214788158Y-71564751D01*
X214788157Y-71564753D01*
X214748877Y-71711349D01*
X214731467Y-71776323D01*
X214711898Y-72000000D01*
X214731467Y-72223677D01*
X214732891Y-72228990D01*
X214732891Y-72228992D01*
X214746289Y-72278992D01*
X214789580Y-72440557D01*
X214791902Y-72445538D01*
X214791903Y-72445539D01*
X214882145Y-72639064D01*
X214882148Y-72639069D01*
X214884471Y-72644051D01*
X215013257Y-72827976D01*
X215172024Y-72986743D01*
X215176532Y-72989900D01*
X215176535Y-72989902D01*
X215178202Y-72991069D01*
X215355949Y-73115529D01*
X215360931Y-73117852D01*
X215360936Y-73117855D01*
X215524020Y-73193902D01*
X215559443Y-73210420D01*
X215564751Y-73211842D01*
X215564753Y-73211843D01*
X215771008Y-73267109D01*
X215771010Y-73267109D01*
X215776323Y-73268533D01*
X216000000Y-73288102D01*
X216223677Y-73268533D01*
X216228990Y-73267109D01*
X216228992Y-73267109D01*
X216435247Y-73211843D01*
X216435249Y-73211842D01*
X216440557Y-73210420D01*
X216475980Y-73193902D01*
X216639064Y-73117855D01*
X216639069Y-73117852D01*
X216644051Y-73115529D01*
X216821798Y-72991069D01*
X216823465Y-72989902D01*
X216823468Y-72989900D01*
X216827976Y-72986743D01*
X216986743Y-72827976D01*
X217115529Y-72644051D01*
X217117852Y-72639069D01*
X217117855Y-72639064D01*
X217208097Y-72445539D01*
X217208098Y-72445538D01*
X217210420Y-72440557D01*
X217253712Y-72278992D01*
X217267109Y-72228992D01*
X217267109Y-72228990D01*
X217268533Y-72223677D01*
X217288102Y-72000000D01*
X217268533Y-71776323D01*
X217251123Y-71711349D01*
X217211843Y-71564753D01*
X217211842Y-71564751D01*
X217210420Y-71559443D01*
X217208097Y-71554461D01*
X217117855Y-71360936D01*
X217117852Y-71360931D01*
X217115529Y-71355949D01*
X216986743Y-71172024D01*
X216827976Y-71013257D01*
X216823468Y-71010100D01*
X216823465Y-71010098D01*
X216675210Y-70906289D01*
X216644051Y-70884471D01*
X216639069Y-70882148D01*
X216639064Y-70882145D01*
X216445539Y-70791903D01*
X216445538Y-70791902D01*
X216440557Y-70789580D01*
X216435249Y-70788158D01*
X216435247Y-70788157D01*
X216316008Y-70756207D01*
X216255385Y-70719255D01*
X216224364Y-70655394D01*
X216232792Y-70584900D01*
X216277995Y-70530153D01*
X216348619Y-70508500D01*
X223271381Y-70508500D01*
X223339502Y-70528502D01*
X223385995Y-70582158D01*
X223396099Y-70652432D01*
X223366605Y-70717012D01*
X223303992Y-70756207D01*
X223184753Y-70788157D01*
X223184751Y-70788158D01*
X223179443Y-70789580D01*
X223174462Y-70791902D01*
X223174461Y-70791903D01*
X222980936Y-70882145D01*
X222980931Y-70882148D01*
X222975949Y-70884471D01*
X222944790Y-70906289D01*
X222796535Y-71010098D01*
X222796532Y-71010100D01*
X222792024Y-71013257D01*
X222633257Y-71172024D01*
X222504471Y-71355949D01*
X222502148Y-71360931D01*
X222502145Y-71360936D01*
X222411903Y-71554461D01*
X222409580Y-71559443D01*
X222408158Y-71564751D01*
X222408157Y-71564753D01*
X222368877Y-71711349D01*
X222351467Y-71776323D01*
X222331898Y-72000000D01*
X222351467Y-72223677D01*
X222352891Y-72228990D01*
X222352891Y-72228992D01*
X222366289Y-72278992D01*
X222409580Y-72440557D01*
X222411902Y-72445538D01*
X222411903Y-72445539D01*
X222502145Y-72639064D01*
X222502148Y-72639069D01*
X222504471Y-72644051D01*
X222633257Y-72827976D01*
X222792024Y-72986743D01*
X222796532Y-72989900D01*
X222796535Y-72989902D01*
X222798202Y-72991069D01*
X222975949Y-73115529D01*
X222980931Y-73117852D01*
X222980936Y-73117855D01*
X223144020Y-73193902D01*
X223179443Y-73210420D01*
X223184751Y-73211842D01*
X223184753Y-73211843D01*
X223391008Y-73267109D01*
X223391010Y-73267109D01*
X223396323Y-73268533D01*
X223620000Y-73288102D01*
X223843677Y-73268533D01*
X223848990Y-73267109D01*
X223848992Y-73267109D01*
X224055247Y-73211843D01*
X224055249Y-73211842D01*
X224060557Y-73210420D01*
X224095980Y-73193902D01*
X224259064Y-73117855D01*
X224259069Y-73117852D01*
X224264051Y-73115529D01*
X224441798Y-72991069D01*
X224443465Y-72989902D01*
X224443468Y-72989900D01*
X224447976Y-72986743D01*
X224606743Y-72827976D01*
X224735529Y-72644051D01*
X224737852Y-72639069D01*
X224737855Y-72639064D01*
X224828097Y-72445539D01*
X224828098Y-72445538D01*
X224830420Y-72440557D01*
X224873712Y-72278992D01*
X224887109Y-72228992D01*
X224887109Y-72228990D01*
X224888533Y-72223677D01*
X224908102Y-72000000D01*
X224888533Y-71776323D01*
X224871123Y-71711349D01*
X224831843Y-71564753D01*
X224831842Y-71564751D01*
X224830420Y-71559443D01*
X224828097Y-71554461D01*
X224737855Y-71360936D01*
X224737852Y-71360931D01*
X224735529Y-71355949D01*
X224606743Y-71172024D01*
X224447976Y-71013257D01*
X224443468Y-71010100D01*
X224443465Y-71010098D01*
X224295210Y-70906289D01*
X224264051Y-70884471D01*
X224259069Y-70882148D01*
X224259064Y-70882145D01*
X224065539Y-70791903D01*
X224065538Y-70791902D01*
X224060557Y-70789580D01*
X224055249Y-70788158D01*
X224055247Y-70788157D01*
X223936008Y-70756207D01*
X223875385Y-70719255D01*
X223844364Y-70655394D01*
X223852792Y-70584900D01*
X223897995Y-70530153D01*
X223968619Y-70508500D01*
X233431381Y-70508500D01*
X233499502Y-70528502D01*
X233545995Y-70582158D01*
X233556099Y-70652432D01*
X233526605Y-70717012D01*
X233463992Y-70756207D01*
X233344753Y-70788157D01*
X233344751Y-70788158D01*
X233339443Y-70789580D01*
X233334462Y-70791902D01*
X233334461Y-70791903D01*
X233140936Y-70882145D01*
X233140931Y-70882148D01*
X233135949Y-70884471D01*
X233104790Y-70906289D01*
X232956535Y-71010098D01*
X232956532Y-71010100D01*
X232952024Y-71013257D01*
X232793257Y-71172024D01*
X232664471Y-71355949D01*
X232662148Y-71360931D01*
X232662145Y-71360936D01*
X232571903Y-71554461D01*
X232569580Y-71559443D01*
X232568158Y-71564751D01*
X232568157Y-71564753D01*
X232528877Y-71711349D01*
X232511467Y-71776323D01*
X232491898Y-72000000D01*
X232511467Y-72223677D01*
X232512891Y-72228990D01*
X232512891Y-72228992D01*
X232526289Y-72278992D01*
X232569580Y-72440557D01*
X232571902Y-72445538D01*
X232571903Y-72445539D01*
X232662145Y-72639064D01*
X232662148Y-72639069D01*
X232664471Y-72644051D01*
X232793257Y-72827976D01*
X232952024Y-72986743D01*
X232956532Y-72989900D01*
X232956535Y-72989902D01*
X232958202Y-72991069D01*
X233135949Y-73115529D01*
X233140931Y-73117852D01*
X233140936Y-73117855D01*
X233304020Y-73193902D01*
X233339443Y-73210420D01*
X233344751Y-73211842D01*
X233344753Y-73211843D01*
X233551008Y-73267109D01*
X233551010Y-73267109D01*
X233556323Y-73268533D01*
X233780000Y-73288102D01*
X234003677Y-73268533D01*
X234008990Y-73267109D01*
X234008992Y-73267109D01*
X234215247Y-73211843D01*
X234215249Y-73211842D01*
X234220557Y-73210420D01*
X234255980Y-73193902D01*
X234419064Y-73117855D01*
X234419069Y-73117852D01*
X234424051Y-73115529D01*
X234601798Y-72991069D01*
X234603465Y-72989902D01*
X234603468Y-72989900D01*
X234607976Y-72986743D01*
X234766743Y-72827976D01*
X234895529Y-72644051D01*
X234897852Y-72639069D01*
X234897855Y-72639064D01*
X234988097Y-72445539D01*
X234988098Y-72445538D01*
X234990420Y-72440557D01*
X235033712Y-72278992D01*
X235047109Y-72228992D01*
X235047109Y-72228990D01*
X235048533Y-72223677D01*
X235068102Y-72000000D01*
X235048533Y-71776323D01*
X235031123Y-71711349D01*
X234991843Y-71564753D01*
X234991842Y-71564751D01*
X234990420Y-71559443D01*
X234988097Y-71554461D01*
X234897855Y-71360936D01*
X234897852Y-71360931D01*
X234895529Y-71355949D01*
X234766743Y-71172024D01*
X234607976Y-71013257D01*
X234603468Y-71010100D01*
X234603465Y-71010098D01*
X234455210Y-70906289D01*
X234424051Y-70884471D01*
X234419069Y-70882148D01*
X234419064Y-70882145D01*
X234225539Y-70791903D01*
X234225538Y-70791902D01*
X234220557Y-70789580D01*
X234215249Y-70788158D01*
X234215247Y-70788157D01*
X234096008Y-70756207D01*
X234035385Y-70719255D01*
X234004364Y-70655394D01*
X234012792Y-70584900D01*
X234057995Y-70530153D01*
X234128619Y-70508500D01*
X241450633Y-70508500D01*
X241470018Y-70510000D01*
X241484851Y-70512310D01*
X241484855Y-70512310D01*
X241493724Y-70513691D01*
X241512436Y-70511244D01*
X241535366Y-70510353D01*
X241806103Y-70524542D01*
X241819209Y-70525919D01*
X242034134Y-70559960D01*
X242115445Y-70572838D01*
X242128345Y-70575580D01*
X242273196Y-70614393D01*
X242418052Y-70653207D01*
X242430586Y-70657279D01*
X242710587Y-70764762D01*
X242722635Y-70770126D01*
X242989870Y-70906289D01*
X243001286Y-70912880D01*
X243252832Y-71076236D01*
X243263495Y-71083984D01*
X243496573Y-71272727D01*
X243506374Y-71281552D01*
X243718448Y-71493626D01*
X243727273Y-71503427D01*
X243778332Y-71566479D01*
X243916016Y-71736505D01*
X243923764Y-71747168D01*
X243975168Y-71826323D01*
X244087117Y-71998709D01*
X244093711Y-72010130D01*
X244229874Y-72277365D01*
X244235238Y-72289413D01*
X244342719Y-72569409D01*
X244346795Y-72581953D01*
X244424420Y-72871655D01*
X244427162Y-72884555D01*
X244431452Y-72911638D01*
X244471664Y-73165529D01*
X244474080Y-73180785D01*
X244475458Y-73193902D01*
X244489262Y-73457299D01*
X244487935Y-73483276D01*
X244487691Y-73484846D01*
X244487691Y-73484850D01*
X244486309Y-73493724D01*
X244487473Y-73502626D01*
X244487473Y-73502628D01*
X244490436Y-73525283D01*
X244491500Y-73541621D01*
X244491500Y-122450633D01*
X244490000Y-122470018D01*
X244487690Y-122484851D01*
X244487690Y-122484855D01*
X244486309Y-122493724D01*
X244488135Y-122507683D01*
X244488756Y-122512433D01*
X244489647Y-122535368D01*
X244475458Y-122806099D01*
X244474080Y-122819215D01*
X244427162Y-123115445D01*
X244424420Y-123128345D01*
X244348689Y-123410980D01*
X244346795Y-123418047D01*
X244342721Y-123430586D01*
X244288982Y-123570580D01*
X244235238Y-123710587D01*
X244229874Y-123722635D01*
X244093711Y-123989870D01*
X244087120Y-124001286D01*
X243923764Y-124252832D01*
X243916016Y-124263495D01*
X243727273Y-124496573D01*
X243718448Y-124506374D01*
X243506374Y-124718448D01*
X243496573Y-124727273D01*
X243263495Y-124916016D01*
X243252832Y-124923764D01*
X243001286Y-125087120D01*
X242989870Y-125093711D01*
X242722635Y-125229874D01*
X242710588Y-125235237D01*
X242430586Y-125342721D01*
X242418052Y-125346793D01*
X242273196Y-125385608D01*
X242128345Y-125424420D01*
X242115445Y-125427162D01*
X242034134Y-125440040D01*
X241819209Y-125474081D01*
X241806101Y-125475458D01*
X241730937Y-125479397D01*
X241542701Y-125489262D01*
X241516724Y-125487935D01*
X241515154Y-125487691D01*
X241515150Y-125487691D01*
X241506276Y-125486309D01*
X241497374Y-125487473D01*
X241497372Y-125487473D01*
X241482323Y-125489441D01*
X241474714Y-125490436D01*
X241458379Y-125491500D01*
X163549367Y-125491500D01*
X163529982Y-125490000D01*
X163515149Y-125487690D01*
X163515145Y-125487690D01*
X163506276Y-125486309D01*
X163487564Y-125488756D01*
X163464634Y-125489647D01*
X163193897Y-125475458D01*
X163180791Y-125474081D01*
X162965866Y-125440040D01*
X162884555Y-125427162D01*
X162871655Y-125424420D01*
X162726804Y-125385608D01*
X162581948Y-125346793D01*
X162569414Y-125342721D01*
X162289412Y-125235237D01*
X162277365Y-125229874D01*
X162010130Y-125093711D01*
X161998714Y-125087120D01*
X161747168Y-124923764D01*
X161736505Y-124916016D01*
X161503427Y-124727273D01*
X161493626Y-124718448D01*
X161281552Y-124506374D01*
X161272727Y-124496573D01*
X161083984Y-124263495D01*
X161076236Y-124252832D01*
X160912880Y-124001286D01*
X160906289Y-123989870D01*
X160770126Y-123722635D01*
X160764762Y-123710587D01*
X160711018Y-123570580D01*
X160657279Y-123430586D01*
X160653205Y-123418047D01*
X160651312Y-123410980D01*
X160575580Y-123128345D01*
X160572838Y-123115445D01*
X160525920Y-122819215D01*
X160524542Y-122806098D01*
X160510932Y-122546410D01*
X160512505Y-122518915D01*
X160513576Y-122512552D01*
X160513729Y-122500000D01*
X160509773Y-122472376D01*
X160508500Y-122454514D01*
X160508500Y-120500000D01*
X168237395Y-120500000D01*
X168256577Y-120719249D01*
X168258001Y-120724563D01*
X168258001Y-120724564D01*
X168312099Y-120926460D01*
X168313539Y-120931836D01*
X168315861Y-120936816D01*
X168315862Y-120936818D01*
X168325263Y-120956977D01*
X168406552Y-121131302D01*
X168532788Y-121311587D01*
X168688413Y-121467212D01*
X168692921Y-121470369D01*
X168692924Y-121470371D01*
X168864188Y-121590291D01*
X168868697Y-121593448D01*
X168873679Y-121595771D01*
X168873684Y-121595774D01*
X168979008Y-121644887D01*
X169068164Y-121686461D01*
X169073472Y-121687883D01*
X169073474Y-121687884D01*
X169275436Y-121741999D01*
X169275437Y-121741999D01*
X169280751Y-121743423D01*
X169500000Y-121762605D01*
X169719249Y-121743423D01*
X169724563Y-121741999D01*
X169724564Y-121741999D01*
X169926526Y-121687884D01*
X169926528Y-121687883D01*
X169931836Y-121686461D01*
X170020992Y-121644887D01*
X170126316Y-121595774D01*
X170126321Y-121595771D01*
X170131303Y-121593448D01*
X170135812Y-121590291D01*
X170307076Y-121470371D01*
X170307079Y-121470369D01*
X170311587Y-121467212D01*
X170467212Y-121311587D01*
X170593448Y-121131302D01*
X170674738Y-120956977D01*
X170684138Y-120936818D01*
X170684139Y-120936816D01*
X170686461Y-120931836D01*
X170687902Y-120926460D01*
X170741999Y-120724564D01*
X170741999Y-120724563D01*
X170743423Y-120719249D01*
X170762605Y-120500000D01*
X171737396Y-120500000D01*
X171756578Y-120719249D01*
X171758002Y-120724563D01*
X171758002Y-120724564D01*
X171812100Y-120926460D01*
X171813540Y-120931836D01*
X171815862Y-120936816D01*
X171815863Y-120936818D01*
X171825264Y-120956977D01*
X171906553Y-121131302D01*
X172032789Y-121311587D01*
X172188414Y-121467212D01*
X172192922Y-121470369D01*
X172192925Y-121470371D01*
X172364189Y-121590291D01*
X172368698Y-121593448D01*
X172373680Y-121595771D01*
X172373685Y-121595774D01*
X172479009Y-121644887D01*
X172568165Y-121686461D01*
X172573473Y-121687883D01*
X172573475Y-121687884D01*
X172775437Y-121741999D01*
X172775438Y-121741999D01*
X172780752Y-121743423D01*
X173000001Y-121762605D01*
X173219250Y-121743423D01*
X173224564Y-121741999D01*
X173224565Y-121741999D01*
X173426527Y-121687884D01*
X173426529Y-121687883D01*
X173431837Y-121686461D01*
X173520993Y-121644887D01*
X173626317Y-121595774D01*
X173626322Y-121595771D01*
X173631304Y-121593448D01*
X173635813Y-121590291D01*
X173807077Y-121470371D01*
X173807080Y-121470369D01*
X173811588Y-121467212D01*
X173967213Y-121311587D01*
X174093449Y-121131302D01*
X174174739Y-120956977D01*
X174184139Y-120936818D01*
X174184140Y-120936816D01*
X174186462Y-120931836D01*
X174187903Y-120926460D01*
X174242000Y-120724564D01*
X174242000Y-120724563D01*
X174243424Y-120719249D01*
X174262606Y-120500000D01*
X174243424Y-120280751D01*
X174186462Y-120068164D01*
X174093449Y-119868698D01*
X173967213Y-119688413D01*
X173811588Y-119532788D01*
X173807080Y-119529631D01*
X173807077Y-119529629D01*
X173635813Y-119409709D01*
X173635810Y-119409707D01*
X173631304Y-119406552D01*
X173626322Y-119404229D01*
X173626317Y-119404226D01*
X173436819Y-119315862D01*
X173436818Y-119315861D01*
X173431837Y-119313539D01*
X173426529Y-119312117D01*
X173426527Y-119312116D01*
X173224565Y-119258001D01*
X173224564Y-119258001D01*
X173219250Y-119256577D01*
X173000001Y-119237395D01*
X172780752Y-119256577D01*
X172775438Y-119258001D01*
X172775437Y-119258001D01*
X172573475Y-119312116D01*
X172573473Y-119312117D01*
X172568165Y-119313539D01*
X172563185Y-119315861D01*
X172563183Y-119315862D01*
X172373680Y-119404229D01*
X172373677Y-119404231D01*
X172368699Y-119406552D01*
X172188414Y-119532788D01*
X172032789Y-119688413D01*
X171906553Y-119868698D01*
X171813540Y-120068164D01*
X171756578Y-120280751D01*
X171737396Y-120500000D01*
X170762605Y-120500000D01*
X170743423Y-120280751D01*
X170686461Y-120068164D01*
X170593448Y-119868698D01*
X170467212Y-119688413D01*
X170311587Y-119532788D01*
X170307079Y-119529631D01*
X170307076Y-119529629D01*
X170135812Y-119409709D01*
X170135809Y-119409707D01*
X170131303Y-119406552D01*
X170126321Y-119404229D01*
X170126316Y-119404226D01*
X169936818Y-119315862D01*
X169936817Y-119315861D01*
X169931836Y-119313539D01*
X169926528Y-119312117D01*
X169926526Y-119312116D01*
X169724564Y-119258001D01*
X169724563Y-119258001D01*
X169719249Y-119256577D01*
X169500000Y-119237395D01*
X169280751Y-119256577D01*
X169275437Y-119258001D01*
X169275436Y-119258001D01*
X169073474Y-119312116D01*
X169073472Y-119312117D01*
X169068164Y-119313539D01*
X169063184Y-119315861D01*
X169063182Y-119315862D01*
X168873679Y-119404229D01*
X168873676Y-119404231D01*
X168868698Y-119406552D01*
X168688413Y-119532788D01*
X168532788Y-119688413D01*
X168406552Y-119868698D01*
X168313539Y-120068164D01*
X168256577Y-120280751D01*
X168237395Y-120500000D01*
X160508500Y-120500000D01*
X160508500Y-109396695D01*
X161637251Y-109396695D01*
X161637548Y-109401848D01*
X161637548Y-109401851D01*
X161643011Y-109496590D01*
X161650110Y-109619715D01*
X161651247Y-109624761D01*
X161651248Y-109624767D01*
X161656330Y-109647317D01*
X161699222Y-109837639D01*
X161783266Y-110044616D01*
X161820370Y-110105164D01*
X161897291Y-110230688D01*
X161899987Y-110235088D01*
X162046250Y-110403938D01*
X162218126Y-110546632D01*
X162411000Y-110659338D01*
X162415825Y-110661180D01*
X162415826Y-110661181D01*
X162488612Y-110688975D01*
X162619692Y-110739030D01*
X162624760Y-110740061D01*
X162624763Y-110740062D01*
X162719862Y-110759410D01*
X162838597Y-110783567D01*
X162843772Y-110783757D01*
X162843774Y-110783757D01*
X163056673Y-110791564D01*
X163056677Y-110791564D01*
X163061837Y-110791753D01*
X163066957Y-110791097D01*
X163066959Y-110791097D01*
X163278288Y-110764025D01*
X163278289Y-110764025D01*
X163283416Y-110763368D01*
X163288366Y-110761883D01*
X163492429Y-110700661D01*
X163492434Y-110700659D01*
X163497384Y-110699174D01*
X163697994Y-110600896D01*
X163879860Y-110471173D01*
X164038096Y-110313489D01*
X164097594Y-110230689D01*
X164168453Y-110132077D01*
X164169640Y-110132930D01*
X164216960Y-110089362D01*
X164286897Y-110077145D01*
X164352338Y-110104678D01*
X164380166Y-110136511D01*
X164437694Y-110230388D01*
X164443777Y-110238699D01*
X164583213Y-110399667D01*
X164590580Y-110406883D01*
X164754434Y-110542916D01*
X164762881Y-110548831D01*
X164946756Y-110656279D01*
X164956042Y-110660729D01*
X165155001Y-110736703D01*
X165164899Y-110739579D01*
X165268250Y-110760606D01*
X165282299Y-110759410D01*
X165286000Y-110749065D01*
X165286000Y-110748517D01*
X165794000Y-110748517D01*
X165798064Y-110762359D01*
X165811478Y-110764393D01*
X165818184Y-110763534D01*
X165828262Y-110761392D01*
X166032255Y-110700191D01*
X166041842Y-110696433D01*
X166233095Y-110602739D01*
X166241945Y-110597464D01*
X166415328Y-110473792D01*
X166423200Y-110467139D01*
X166574052Y-110316812D01*
X166580730Y-110308965D01*
X166705003Y-110136020D01*
X166710313Y-110127183D01*
X166804670Y-109936267D01*
X166808469Y-109926672D01*
X166870377Y-109722910D01*
X166872555Y-109712837D01*
X166873986Y-109701962D01*
X166871775Y-109687778D01*
X166858617Y-109684000D01*
X165812115Y-109684000D01*
X165796876Y-109688475D01*
X165795671Y-109689865D01*
X165794000Y-109697548D01*
X165794000Y-110748517D01*
X165286000Y-110748517D01*
X165286000Y-109302000D01*
X165306002Y-109233879D01*
X165359658Y-109187386D01*
X165412000Y-109176000D01*
X166858344Y-109176000D01*
X166871875Y-109172027D01*
X166873180Y-109162947D01*
X166831214Y-108995875D01*
X166827894Y-108986124D01*
X166742972Y-108790814D01*
X166738105Y-108781739D01*
X166622426Y-108602926D01*
X166616136Y-108594757D01*
X166472806Y-108437240D01*
X166465273Y-108430215D01*
X166298139Y-108298222D01*
X166289556Y-108292520D01*
X166252602Y-108272120D01*
X166202631Y-108221687D01*
X166187859Y-108152245D01*
X166212975Y-108085839D01*
X166240327Y-108059232D01*
X166263797Y-108042491D01*
X166419860Y-107931173D01*
X166432000Y-107919076D01*
X166574435Y-107777137D01*
X166578096Y-107773489D01*
X166637594Y-107690689D01*
X166705435Y-107596277D01*
X166708453Y-107592077D01*
X166721995Y-107564678D01*
X166805136Y-107396453D01*
X166805137Y-107396451D01*
X166807430Y-107391811D01*
X166872370Y-107178069D01*
X166901529Y-106956590D01*
X166903156Y-106890000D01*
X166884852Y-106667361D01*
X166830431Y-106450702D01*
X166741354Y-106245840D01*
X166620014Y-106058277D01*
X166469670Y-105893051D01*
X166465619Y-105889852D01*
X166465615Y-105889848D01*
X166298414Y-105757800D01*
X166298410Y-105757798D01*
X166294359Y-105754598D01*
X166253053Y-105731796D01*
X166203084Y-105681364D01*
X166188312Y-105611921D01*
X166213428Y-105545516D01*
X166240780Y-105518909D01*
X166308961Y-105470276D01*
X166419860Y-105391173D01*
X166425395Y-105385658D01*
X166574435Y-105237137D01*
X166578096Y-105233489D01*
X166637594Y-105150689D01*
X166705435Y-105056277D01*
X166708453Y-105052077D01*
X166729320Y-105009857D01*
X166805136Y-104856453D01*
X166805137Y-104856451D01*
X166807430Y-104851811D01*
X166872370Y-104638069D01*
X166901529Y-104416590D01*
X166903156Y-104350000D01*
X166884852Y-104127361D01*
X166830431Y-103910702D01*
X166741354Y-103705840D01*
X166620014Y-103518277D01*
X166469670Y-103353051D01*
X166465619Y-103349852D01*
X166465615Y-103349848D01*
X166298414Y-103217800D01*
X166298410Y-103217798D01*
X166294359Y-103214598D01*
X166252569Y-103191529D01*
X166202598Y-103141097D01*
X166187826Y-103071654D01*
X166212942Y-103005248D01*
X166240294Y-102978641D01*
X166415328Y-102853792D01*
X166423200Y-102847139D01*
X166574052Y-102696812D01*
X166580730Y-102688965D01*
X166705003Y-102516020D01*
X166710313Y-102507183D01*
X166804670Y-102316267D01*
X166808469Y-102306672D01*
X166870377Y-102102910D01*
X166872555Y-102092837D01*
X166873986Y-102081962D01*
X166871775Y-102067778D01*
X166858617Y-102064000D01*
X165412000Y-102064000D01*
X165343879Y-102043998D01*
X165297386Y-101990342D01*
X165286000Y-101938000D01*
X165286000Y-101682000D01*
X165306002Y-101613879D01*
X165359658Y-101567386D01*
X165412000Y-101556000D01*
X166858344Y-101556000D01*
X166871875Y-101552027D01*
X166873180Y-101542947D01*
X166831214Y-101375875D01*
X166827894Y-101366124D01*
X166742972Y-101170814D01*
X166738105Y-101161739D01*
X166622426Y-100982926D01*
X166616136Y-100974757D01*
X166472806Y-100817240D01*
X166465273Y-100810215D01*
X166298139Y-100678222D01*
X166289556Y-100672520D01*
X166252602Y-100652120D01*
X166202631Y-100601687D01*
X166187859Y-100532245D01*
X166212975Y-100465839D01*
X166240327Y-100439232D01*
X166290483Y-100403456D01*
X166419860Y-100311173D01*
X166453509Y-100277642D01*
X166574435Y-100157137D01*
X166578096Y-100153489D01*
X166637594Y-100070689D01*
X166705435Y-99976277D01*
X166708453Y-99972077D01*
X166718858Y-99951025D01*
X166805136Y-99776453D01*
X166805137Y-99776451D01*
X166807430Y-99771811D01*
X166872370Y-99558069D01*
X166901529Y-99336590D01*
X166902130Y-99312007D01*
X166903074Y-99273365D01*
X166903074Y-99273361D01*
X166903156Y-99270000D01*
X166884852Y-99047361D01*
X166830431Y-98830702D01*
X166741354Y-98625840D01*
X166685784Y-98539942D01*
X166622822Y-98442617D01*
X166622820Y-98442614D01*
X166620014Y-98438277D01*
X166469670Y-98273051D01*
X166465619Y-98269852D01*
X166465615Y-98269848D01*
X166298414Y-98137800D01*
X166298410Y-98137798D01*
X166294359Y-98134598D01*
X166253053Y-98111796D01*
X166203084Y-98061364D01*
X166188312Y-97991921D01*
X166213428Y-97925516D01*
X166240780Y-97898909D01*
X166284603Y-97867650D01*
X166419860Y-97771173D01*
X166578096Y-97613489D01*
X166654683Y-97506907D01*
X166705435Y-97436277D01*
X166708453Y-97432077D01*
X166721995Y-97404678D01*
X166805136Y-97236453D01*
X166805137Y-97236451D01*
X166807430Y-97231811D01*
X166872370Y-97018069D01*
X166901529Y-96796590D01*
X166903156Y-96730000D01*
X166884852Y-96507361D01*
X166830431Y-96290702D01*
X166741354Y-96085840D01*
X166669430Y-95974662D01*
X166622822Y-95902617D01*
X166622820Y-95902614D01*
X166620014Y-95898277D01*
X166469670Y-95733051D01*
X166465619Y-95729852D01*
X166465615Y-95729848D01*
X166298414Y-95597800D01*
X166298410Y-95597798D01*
X166294359Y-95594598D01*
X166253053Y-95571796D01*
X166203084Y-95521364D01*
X166188312Y-95451921D01*
X166213428Y-95385516D01*
X166240780Y-95358909D01*
X166284603Y-95327650D01*
X166419860Y-95231173D01*
X166477893Y-95173343D01*
X166552720Y-95098776D01*
X166578096Y-95073489D01*
X166584484Y-95064600D01*
X166705435Y-94896277D01*
X166708453Y-94892077D01*
X166721995Y-94864678D01*
X166805136Y-94696453D01*
X166805137Y-94696451D01*
X166807430Y-94691811D01*
X166872370Y-94478069D01*
X166901529Y-94256590D01*
X166903156Y-94190000D01*
X166884852Y-93967361D01*
X166830431Y-93750702D01*
X166741354Y-93545840D01*
X166652247Y-93408102D01*
X166622822Y-93362617D01*
X166622820Y-93362614D01*
X166620014Y-93358277D01*
X166469670Y-93193051D01*
X166465619Y-93189852D01*
X166465615Y-93189848D01*
X166298414Y-93057800D01*
X166298410Y-93057798D01*
X166294359Y-93054598D01*
X166252569Y-93031529D01*
X166202598Y-92981097D01*
X166187826Y-92911654D01*
X166212942Y-92845248D01*
X166240294Y-92818641D01*
X166415328Y-92693792D01*
X166423200Y-92687139D01*
X166574052Y-92536812D01*
X166580730Y-92528965D01*
X166705003Y-92356020D01*
X166710313Y-92347183D01*
X166804670Y-92156267D01*
X166808469Y-92146672D01*
X166870377Y-91942910D01*
X166872555Y-91932837D01*
X166873986Y-91921962D01*
X166871775Y-91907778D01*
X166858617Y-91904000D01*
X165412000Y-91904000D01*
X165343879Y-91883998D01*
X165297386Y-91830342D01*
X165286000Y-91778000D01*
X165286000Y-91522000D01*
X165306002Y-91453879D01*
X165359658Y-91407386D01*
X165412000Y-91396000D01*
X166858344Y-91396000D01*
X166871875Y-91392027D01*
X166873180Y-91382947D01*
X166831214Y-91215875D01*
X166827894Y-91206124D01*
X166742971Y-91010812D01*
X166738105Y-91001739D01*
X166622426Y-90822926D01*
X166616136Y-90814757D01*
X166472806Y-90657240D01*
X166465273Y-90650215D01*
X166298139Y-90518222D01*
X166289556Y-90512520D01*
X166252602Y-90492120D01*
X166202631Y-90441687D01*
X166187859Y-90372245D01*
X166212975Y-90305839D01*
X166240327Y-90279232D01*
X166263797Y-90262491D01*
X166419860Y-90151173D01*
X166480484Y-90090761D01*
X166532512Y-90038914D01*
X166578096Y-89993489D01*
X166588444Y-89979089D01*
X166705435Y-89816277D01*
X166708453Y-89812077D01*
X166717883Y-89792998D01*
X166805136Y-89616453D01*
X166805137Y-89616451D01*
X166807430Y-89611811D01*
X166872370Y-89398069D01*
X166901529Y-89176590D01*
X166902446Y-89139064D01*
X166903074Y-89113365D01*
X166903074Y-89113361D01*
X166903156Y-89110000D01*
X166884852Y-88887361D01*
X166830431Y-88670702D01*
X166741354Y-88465840D01*
X166664465Y-88346988D01*
X166622822Y-88282617D01*
X166622820Y-88282614D01*
X166620014Y-88278277D01*
X166469670Y-88113051D01*
X166465619Y-88109852D01*
X166465615Y-88109848D01*
X166298414Y-87977800D01*
X166298410Y-87977798D01*
X166294359Y-87974598D01*
X166253053Y-87951796D01*
X166203084Y-87901364D01*
X166188312Y-87831921D01*
X166213428Y-87765516D01*
X166240780Y-87738909D01*
X166284603Y-87707650D01*
X166419860Y-87611173D01*
X166578096Y-87453489D01*
X166637594Y-87370689D01*
X166705435Y-87276277D01*
X166708453Y-87272077D01*
X166728761Y-87230988D01*
X166805136Y-87076453D01*
X166805137Y-87076451D01*
X166807430Y-87071811D01*
X166872370Y-86858069D01*
X166901529Y-86636590D01*
X166903156Y-86570000D01*
X166884852Y-86347361D01*
X166830431Y-86130702D01*
X166741354Y-85925840D01*
X166652247Y-85788102D01*
X166622822Y-85742617D01*
X166622820Y-85742614D01*
X166620014Y-85738277D01*
X166469670Y-85573051D01*
X166465619Y-85569852D01*
X166465615Y-85569848D01*
X166298414Y-85437800D01*
X166298410Y-85437798D01*
X166294359Y-85434598D01*
X166098789Y-85326638D01*
X166093920Y-85324914D01*
X166093916Y-85324912D01*
X165893087Y-85253795D01*
X165893083Y-85253794D01*
X165888212Y-85252069D01*
X165883119Y-85251162D01*
X165883116Y-85251161D01*
X165673373Y-85213800D01*
X165673367Y-85213799D01*
X165668284Y-85212894D01*
X165594452Y-85211992D01*
X165450081Y-85210228D01*
X165450079Y-85210228D01*
X165444911Y-85210165D01*
X165224091Y-85243955D01*
X165011756Y-85313357D01*
X164813607Y-85416507D01*
X164809474Y-85419610D01*
X164809471Y-85419612D01*
X164685567Y-85512642D01*
X164634965Y-85550635D01*
X164578537Y-85609684D01*
X164554283Y-85635064D01*
X164492759Y-85670494D01*
X164421846Y-85667037D01*
X164364060Y-85625791D01*
X164345207Y-85592243D01*
X164304530Y-85483738D01*
X164300615Y-85473295D01*
X164213261Y-85356739D01*
X164096705Y-85269385D01*
X163960316Y-85218255D01*
X163898134Y-85211500D01*
X162101866Y-85211500D01*
X162039684Y-85218255D01*
X161903295Y-85269385D01*
X161786739Y-85356739D01*
X161699385Y-85473295D01*
X161648255Y-85609684D01*
X161641500Y-85671866D01*
X161641500Y-87468134D01*
X161648255Y-87530316D01*
X161699385Y-87666705D01*
X161786739Y-87783261D01*
X161903295Y-87870615D01*
X161911704Y-87873767D01*
X161911705Y-87873768D01*
X162020451Y-87914535D01*
X162077216Y-87957176D01*
X162101916Y-88023738D01*
X162086709Y-88093087D01*
X162067316Y-88119568D01*
X161940629Y-88252138D01*
X161814743Y-88436680D01*
X161785351Y-88500000D01*
X161728547Y-88622375D01*
X161720688Y-88639305D01*
X161660989Y-88854570D01*
X161637251Y-89076695D01*
X161637548Y-89081848D01*
X161637548Y-89081851D01*
X161643011Y-89176590D01*
X161650110Y-89299715D01*
X161651247Y-89304761D01*
X161651248Y-89304767D01*
X161669247Y-89384633D01*
X161699222Y-89517639D01*
X161743748Y-89627293D01*
X161777502Y-89710420D01*
X161783266Y-89724616D01*
X161821877Y-89787623D01*
X161897291Y-89910688D01*
X161899987Y-89915088D01*
X162046250Y-90083938D01*
X162218126Y-90226632D01*
X162283914Y-90265075D01*
X162291445Y-90269476D01*
X162340169Y-90321114D01*
X162353240Y-90390897D01*
X162326509Y-90456669D01*
X162286055Y-90490027D01*
X162273607Y-90496507D01*
X162269474Y-90499610D01*
X162269471Y-90499612D01*
X162224547Y-90533342D01*
X162094965Y-90630635D01*
X161940629Y-90792138D01*
X161937720Y-90796403D01*
X161937714Y-90796411D01*
X161922798Y-90818277D01*
X161814743Y-90976680D01*
X161774267Y-91063878D01*
X161723284Y-91173713D01*
X161720688Y-91179305D01*
X161660989Y-91394570D01*
X161637251Y-91616695D01*
X161637548Y-91621848D01*
X161637548Y-91621851D01*
X161646552Y-91778000D01*
X161650110Y-91839715D01*
X161651247Y-91844761D01*
X161651248Y-91844767D01*
X161661689Y-91891096D01*
X161699222Y-92057639D01*
X161783266Y-92264616D01*
X161828302Y-92338109D01*
X161897291Y-92450688D01*
X161899987Y-92455088D01*
X162046250Y-92623938D01*
X162218126Y-92766632D01*
X162288595Y-92807811D01*
X162291445Y-92809476D01*
X162340169Y-92861114D01*
X162353240Y-92930897D01*
X162326509Y-92996669D01*
X162286055Y-93030027D01*
X162273607Y-93036507D01*
X162269474Y-93039610D01*
X162269471Y-93039612D01*
X162099100Y-93167530D01*
X162094965Y-93170635D01*
X161940629Y-93332138D01*
X161937720Y-93336403D01*
X161937714Y-93336411D01*
X161925404Y-93354457D01*
X161814743Y-93516680D01*
X161720688Y-93719305D01*
X161660989Y-93934570D01*
X161637251Y-94156695D01*
X161637548Y-94161848D01*
X161637548Y-94161851D01*
X161643011Y-94256590D01*
X161650110Y-94379715D01*
X161651247Y-94384761D01*
X161651248Y-94384767D01*
X161664597Y-94444000D01*
X161699222Y-94597639D01*
X161783266Y-94804616D01*
X161833863Y-94887183D01*
X161897291Y-94990688D01*
X161899987Y-94995088D01*
X162046250Y-95163938D01*
X162218126Y-95306632D01*
X162290978Y-95349203D01*
X162291955Y-95349774D01*
X162340679Y-95401412D01*
X162353750Y-95471195D01*
X162327019Y-95536967D01*
X162286562Y-95570327D01*
X162278457Y-95574546D01*
X162269738Y-95580036D01*
X162099433Y-95707905D01*
X162091726Y-95714748D01*
X161944590Y-95868717D01*
X161938104Y-95876727D01*
X161818098Y-96052649D01*
X161813000Y-96061623D01*
X161723338Y-96254783D01*
X161719775Y-96264470D01*
X161664389Y-96464183D01*
X161665912Y-96472607D01*
X161678292Y-96476000D01*
X163128000Y-96476000D01*
X163196121Y-96496002D01*
X163242614Y-96549658D01*
X163254000Y-96602000D01*
X163254000Y-96858000D01*
X163233998Y-96926121D01*
X163180342Y-96972614D01*
X163128000Y-96984000D01*
X161683225Y-96984000D01*
X161669694Y-96987973D01*
X161668257Y-96997966D01*
X161698565Y-97132446D01*
X161701645Y-97142275D01*
X161781770Y-97339603D01*
X161786413Y-97348794D01*
X161897694Y-97530388D01*
X161903777Y-97538699D01*
X162043213Y-97699667D01*
X162050580Y-97706883D01*
X162214434Y-97842916D01*
X162222881Y-97848831D01*
X162291969Y-97889203D01*
X162340693Y-97940842D01*
X162353764Y-98010625D01*
X162327033Y-98076396D01*
X162286584Y-98109752D01*
X162273607Y-98116507D01*
X162269474Y-98119610D01*
X162269471Y-98119612D01*
X162099100Y-98247530D01*
X162094965Y-98250635D01*
X161940629Y-98412138D01*
X161937720Y-98416403D01*
X161937714Y-98416411D01*
X161909575Y-98457661D01*
X161814743Y-98596680D01*
X161799003Y-98630590D01*
X161725863Y-98788157D01*
X161720688Y-98799305D01*
X161660989Y-99014570D01*
X161637251Y-99236695D01*
X161637548Y-99241848D01*
X161637548Y-99241851D01*
X161646552Y-99398000D01*
X161650110Y-99459715D01*
X161651247Y-99464761D01*
X161651248Y-99464767D01*
X161662478Y-99514595D01*
X161699222Y-99677639D01*
X161783266Y-99884616D01*
X161821375Y-99946805D01*
X161897291Y-100070688D01*
X161899987Y-100075088D01*
X162046250Y-100243938D01*
X162218126Y-100386632D01*
X162228324Y-100392591D01*
X162291445Y-100429476D01*
X162340169Y-100481114D01*
X162353240Y-100550897D01*
X162326509Y-100616669D01*
X162286055Y-100650027D01*
X162273607Y-100656507D01*
X162269474Y-100659610D01*
X162269471Y-100659612D01*
X162132091Y-100762760D01*
X162094965Y-100790635D01*
X162091393Y-100794373D01*
X161952611Y-100939600D01*
X161940629Y-100952138D01*
X161814743Y-101136680D01*
X161780514Y-101210420D01*
X161744273Y-101288496D01*
X161720688Y-101339305D01*
X161660989Y-101554570D01*
X161637251Y-101776695D01*
X161637548Y-101781848D01*
X161637548Y-101781851D01*
X161643011Y-101876590D01*
X161650110Y-101999715D01*
X161651247Y-102004761D01*
X161651248Y-102004767D01*
X161664597Y-102064000D01*
X161699222Y-102217639D01*
X161783266Y-102424616D01*
X161820967Y-102486139D01*
X161897291Y-102610688D01*
X161899987Y-102615088D01*
X161903367Y-102618990D01*
X161914352Y-102631671D01*
X162046250Y-102783938D01*
X162218126Y-102926632D01*
X162288595Y-102967811D01*
X162291445Y-102969476D01*
X162340169Y-103021114D01*
X162353240Y-103090897D01*
X162326509Y-103156669D01*
X162286055Y-103190027D01*
X162273607Y-103196507D01*
X162269474Y-103199610D01*
X162269471Y-103199612D01*
X162099100Y-103327530D01*
X162094965Y-103330635D01*
X161940629Y-103492138D01*
X161814743Y-103676680D01*
X161720688Y-103879305D01*
X161660989Y-104094570D01*
X161637251Y-104316695D01*
X161637548Y-104321848D01*
X161637548Y-104321851D01*
X161643011Y-104416590D01*
X161650110Y-104539715D01*
X161651247Y-104544761D01*
X161651248Y-104544767D01*
X161665316Y-104607188D01*
X161699222Y-104757639D01*
X161783266Y-104964616D01*
X161834019Y-105047438D01*
X161897291Y-105150688D01*
X161899987Y-105155088D01*
X162046250Y-105323938D01*
X162218126Y-105466632D01*
X162224362Y-105470276D01*
X162291445Y-105509476D01*
X162340169Y-105561114D01*
X162353240Y-105630897D01*
X162326509Y-105696669D01*
X162286055Y-105730027D01*
X162273607Y-105736507D01*
X162269474Y-105739610D01*
X162269471Y-105739612D01*
X162099100Y-105867530D01*
X162094965Y-105870635D01*
X162091393Y-105874373D01*
X161970314Y-106001075D01*
X161940629Y-106032138D01*
X161937720Y-106036403D01*
X161937714Y-106036411D01*
X161925404Y-106054457D01*
X161814743Y-106216680D01*
X161799003Y-106250590D01*
X161723905Y-106412375D01*
X161720688Y-106419305D01*
X161660989Y-106634570D01*
X161637251Y-106856695D01*
X161637548Y-106861848D01*
X161637548Y-106861851D01*
X161644429Y-106981185D01*
X161650110Y-107079715D01*
X161651247Y-107084761D01*
X161651248Y-107084767D01*
X161662031Y-107132614D01*
X161699222Y-107297639D01*
X161783266Y-107504616D01*
X161834019Y-107587438D01*
X161897291Y-107690688D01*
X161899987Y-107695088D01*
X162046250Y-107863938D01*
X162218126Y-108006632D01*
X162228324Y-108012591D01*
X162291445Y-108049476D01*
X162340169Y-108101114D01*
X162353240Y-108170897D01*
X162326509Y-108236669D01*
X162286055Y-108270027D01*
X162273607Y-108276507D01*
X162269474Y-108279610D01*
X162269471Y-108279612D01*
X162245247Y-108297800D01*
X162094965Y-108410635D01*
X161940629Y-108572138D01*
X161814743Y-108756680D01*
X161780514Y-108830420D01*
X161735106Y-108928245D01*
X161720688Y-108959305D01*
X161660989Y-109174570D01*
X161637251Y-109396695D01*
X160508500Y-109396695D01*
X160508500Y-76549659D01*
X168814894Y-76549659D01*
X168824190Y-76561674D01*
X168864438Y-76589856D01*
X168873933Y-76595339D01*
X169063351Y-76683666D01*
X169073643Y-76687412D01*
X169275521Y-76741505D01*
X169286316Y-76743408D01*
X169494523Y-76761624D01*
X169505473Y-76761624D01*
X169713680Y-76743408D01*
X169724475Y-76741505D01*
X169926353Y-76687412D01*
X169936645Y-76683666D01*
X170126063Y-76595339D01*
X170135558Y-76589856D01*
X170176644Y-76561087D01*
X170185019Y-76550610D01*
X170177951Y-76537163D01*
X169512810Y-75872022D01*
X169498866Y-75864408D01*
X169497033Y-75864539D01*
X169490418Y-75868790D01*
X168821324Y-76537884D01*
X168814894Y-76549659D01*
X160508500Y-76549659D01*
X160508500Y-75505475D01*
X168238374Y-75505475D01*
X168256590Y-75713682D01*
X168258493Y-75724477D01*
X168312586Y-75926355D01*
X168316332Y-75936647D01*
X168404659Y-76126064D01*
X168410142Y-76135560D01*
X168438911Y-76176646D01*
X168449388Y-76185021D01*
X168462836Y-76177952D01*
X169127976Y-75512812D01*
X169134354Y-75501132D01*
X169864406Y-75501132D01*
X169864537Y-75502965D01*
X169868788Y-75509580D01*
X170537882Y-76178674D01*
X170549657Y-76185104D01*
X170561672Y-76175808D01*
X170589854Y-76135560D01*
X170595337Y-76126064D01*
X170683664Y-75936647D01*
X170687410Y-75926355D01*
X170741503Y-75724477D01*
X170743406Y-75713682D01*
X170761622Y-75505475D01*
X170761622Y-75494525D01*
X170743406Y-75286318D01*
X170741503Y-75275523D01*
X170687410Y-75073645D01*
X170683664Y-75063353D01*
X170595337Y-74873936D01*
X170589854Y-74864440D01*
X170561085Y-74823354D01*
X170550608Y-74814979D01*
X170537160Y-74822048D01*
X169872020Y-75487188D01*
X169864406Y-75501132D01*
X169134354Y-75501132D01*
X169135590Y-75498868D01*
X169135459Y-75497035D01*
X169131208Y-75490420D01*
X168462114Y-74821326D01*
X168450339Y-74814896D01*
X168438324Y-74824192D01*
X168410142Y-74864440D01*
X168404659Y-74873936D01*
X168316332Y-75063353D01*
X168312586Y-75073645D01*
X168258493Y-75275523D01*
X168256590Y-75286318D01*
X168238374Y-75494525D01*
X168238374Y-75505475D01*
X160508500Y-75505475D01*
X160508500Y-74449390D01*
X168814977Y-74449390D01*
X168822046Y-74462838D01*
X169487186Y-75127978D01*
X169501130Y-75135592D01*
X169502963Y-75135461D01*
X169509578Y-75131210D01*
X170178672Y-74462116D01*
X170185102Y-74450341D01*
X170175806Y-74438326D01*
X170135558Y-74410144D01*
X170126063Y-74404661D01*
X169936645Y-74316334D01*
X169926353Y-74312588D01*
X169724475Y-74258495D01*
X169713680Y-74256592D01*
X169505473Y-74238376D01*
X169494523Y-74238376D01*
X169286316Y-74256592D01*
X169275521Y-74258495D01*
X169073643Y-74312588D01*
X169063351Y-74316334D01*
X168873934Y-74404661D01*
X168864438Y-74410144D01*
X168823352Y-74438913D01*
X168814977Y-74449390D01*
X160508500Y-74449390D01*
X160508500Y-73553250D01*
X160510246Y-73532345D01*
X160512770Y-73517344D01*
X160512770Y-73517341D01*
X160513576Y-73512552D01*
X160513729Y-73500000D01*
X160513039Y-73495180D01*
X160511644Y-73485437D01*
X160510545Y-73460983D01*
X160520631Y-73268533D01*
X160524542Y-73193899D01*
X160525920Y-73180785D01*
X160528337Y-73165529D01*
X160568548Y-72911638D01*
X160572838Y-72884555D01*
X160575580Y-72871655D01*
X160653205Y-72581953D01*
X160657281Y-72569409D01*
X160764762Y-72289413D01*
X160770126Y-72277365D01*
X160906289Y-72010130D01*
X160912883Y-71998709D01*
X161024832Y-71826323D01*
X161076236Y-71747168D01*
X161083984Y-71736505D01*
X161221669Y-71566479D01*
X161272727Y-71503427D01*
X161281552Y-71493626D01*
X161493626Y-71281552D01*
X161503427Y-71272727D01*
X161736505Y-71083984D01*
X161747168Y-71076236D01*
X161998714Y-70912880D01*
X162010130Y-70906289D01*
X162277365Y-70770126D01*
X162289413Y-70764762D01*
X162569414Y-70657279D01*
X162581948Y-70653207D01*
X162726804Y-70614393D01*
X162871655Y-70575580D01*
X162884555Y-70572838D01*
X162965866Y-70559960D01*
X163180791Y-70525919D01*
X163193899Y-70524542D01*
X163269063Y-70520603D01*
X163457299Y-70510738D01*
X163483276Y-70512065D01*
X163484846Y-70512309D01*
X163484850Y-70512309D01*
X163493724Y-70513691D01*
X163502626Y-70512527D01*
X163502628Y-70512527D01*
X163517677Y-70510559D01*
X163525286Y-70509564D01*
X163541621Y-70508500D01*
X176791406Y-70508500D01*
X176859527Y-70528502D01*
G37*
%TD.AperFunction*%
%TA.AperFunction,Conductor*%
G36*
X211412465Y-80908655D02*
G01*
X211471261Y-80948449D01*
X211499209Y-81013713D01*
X211500100Y-81028672D01*
X211500100Y-88471328D01*
X211480098Y-88539449D01*
X211426442Y-88585942D01*
X211356168Y-88596046D01*
X211341497Y-88593037D01*
X211223677Y-88561467D01*
X211000000Y-88541898D01*
X210776323Y-88561467D01*
X210771010Y-88562891D01*
X210771008Y-88562891D01*
X210564753Y-88618157D01*
X210564751Y-88618158D01*
X210559443Y-88619580D01*
X210554462Y-88621902D01*
X210554461Y-88621903D01*
X210360936Y-88712145D01*
X210360931Y-88712148D01*
X210355949Y-88714471D01*
X210350628Y-88718197D01*
X210176535Y-88840098D01*
X210176532Y-88840100D01*
X210172024Y-88843257D01*
X210013257Y-89002024D01*
X209884471Y-89185949D01*
X209882148Y-89190931D01*
X209882145Y-89190936D01*
X209816425Y-89331873D01*
X209789580Y-89389443D01*
X209788158Y-89394751D01*
X209788157Y-89394753D01*
X209733783Y-89597680D01*
X209731467Y-89606323D01*
X209711898Y-89830000D01*
X209731467Y-90053677D01*
X209732891Y-90058990D01*
X209732891Y-90058992D01*
X209778510Y-90229242D01*
X209789580Y-90270557D01*
X209791902Y-90275538D01*
X209791903Y-90275539D01*
X209882145Y-90469064D01*
X209882148Y-90469069D01*
X209884471Y-90474051D01*
X209920979Y-90526190D01*
X210007823Y-90650215D01*
X210013257Y-90657976D01*
X210172024Y-90816743D01*
X210176532Y-90819900D01*
X210176535Y-90819902D01*
X210221638Y-90851483D01*
X210355949Y-90945529D01*
X210360931Y-90947852D01*
X210360936Y-90947855D01*
X210547187Y-91034705D01*
X210559443Y-91040420D01*
X210564751Y-91041842D01*
X210564753Y-91041843D01*
X210771008Y-91097109D01*
X210771010Y-91097109D01*
X210776323Y-91098533D01*
X211000000Y-91118102D01*
X211223677Y-91098533D01*
X211341490Y-91066965D01*
X211412465Y-91068655D01*
X211471261Y-91108449D01*
X211499209Y-91173713D01*
X211500100Y-91188672D01*
X211500100Y-111051806D01*
X211480098Y-111119927D01*
X211463195Y-111140901D01*
X203371851Y-119232244D01*
X203309539Y-119266270D01*
X203250144Y-119264855D01*
X203239227Y-119261930D01*
X203224568Y-119258002D01*
X203224566Y-119258002D01*
X203219249Y-119256577D01*
X203000000Y-119237395D01*
X202780751Y-119256577D01*
X202775437Y-119258001D01*
X202775436Y-119258001D01*
X202573474Y-119312116D01*
X202573472Y-119312117D01*
X202568164Y-119313539D01*
X202563184Y-119315861D01*
X202563182Y-119315862D01*
X202373679Y-119404229D01*
X202373676Y-119404231D01*
X202368698Y-119406552D01*
X202188413Y-119532788D01*
X202032788Y-119688413D01*
X201906552Y-119868698D01*
X201813539Y-120068164D01*
X201756577Y-120280751D01*
X201737395Y-120500000D01*
X201756577Y-120719249D01*
X201758001Y-120724564D01*
X201758002Y-120724567D01*
X201774379Y-120785690D01*
X201772689Y-120856666D01*
X201732894Y-120915462D01*
X201667630Y-120943409D01*
X201652672Y-120944300D01*
X198142395Y-120944300D01*
X198074274Y-120924298D01*
X198053300Y-120907395D01*
X198017758Y-120871853D01*
X197983732Y-120809541D01*
X197985146Y-120750147D01*
X197992001Y-120724564D01*
X197992001Y-120724562D01*
X197993425Y-120719249D01*
X198012607Y-120500000D01*
X197993425Y-120280751D01*
X197936463Y-120068164D01*
X197843450Y-119868698D01*
X197717214Y-119688413D01*
X197561589Y-119532788D01*
X197557081Y-119529631D01*
X197557078Y-119529629D01*
X197385814Y-119409709D01*
X197385811Y-119409707D01*
X197381305Y-119406552D01*
X197376323Y-119404229D01*
X197376318Y-119404226D01*
X197186820Y-119315862D01*
X197186819Y-119315861D01*
X197181838Y-119313539D01*
X197176530Y-119312117D01*
X197176528Y-119312116D01*
X196974566Y-119258001D01*
X196974565Y-119258001D01*
X196969251Y-119256577D01*
X196750002Y-119237395D01*
X196530753Y-119256577D01*
X196525439Y-119258001D01*
X196525438Y-119258001D01*
X196323476Y-119312116D01*
X196323474Y-119312117D01*
X196318166Y-119313539D01*
X196313186Y-119315861D01*
X196313184Y-119315862D01*
X196123681Y-119404229D01*
X196123678Y-119404231D01*
X196118700Y-119406552D01*
X195938415Y-119532788D01*
X195782790Y-119688413D01*
X195656554Y-119868698D01*
X195563541Y-120068164D01*
X195506579Y-120280751D01*
X195487397Y-120500000D01*
X195506579Y-120719249D01*
X195508003Y-120724563D01*
X195508003Y-120724564D01*
X195562101Y-120926460D01*
X195563541Y-120931836D01*
X195565863Y-120936816D01*
X195565864Y-120936818D01*
X195575265Y-120956977D01*
X195656554Y-121131302D01*
X195702158Y-121196432D01*
X195724845Y-121263703D01*
X195707560Y-121332564D01*
X195655790Y-121381148D01*
X195598944Y-121394700D01*
X194401059Y-121394700D01*
X194332938Y-121374698D01*
X194286445Y-121321042D01*
X194276341Y-121250768D01*
X194297845Y-121196432D01*
X194343449Y-121131302D01*
X194424739Y-120956977D01*
X194434139Y-120936818D01*
X194434140Y-120936816D01*
X194436462Y-120931836D01*
X194437903Y-120926460D01*
X194492000Y-120724564D01*
X194492000Y-120724563D01*
X194493424Y-120719249D01*
X194512606Y-120500000D01*
X194493424Y-120280751D01*
X194436462Y-120068164D01*
X194343449Y-119868698D01*
X194217213Y-119688413D01*
X194061588Y-119532788D01*
X193937230Y-119445712D01*
X193892901Y-119390255D01*
X193883500Y-119342499D01*
X193883500Y-98044000D01*
X199542400Y-98044000D01*
X199552822Y-98137800D01*
X199592508Y-98494970D01*
X199593200Y-98501200D01*
X199593937Y-98504518D01*
X199593938Y-98504522D01*
X199640022Y-98711898D01*
X199644000Y-98729800D01*
X199644396Y-98731253D01*
X199644398Y-98731260D01*
X199687044Y-98887628D01*
X199720200Y-99009200D01*
X199722291Y-99013799D01*
X199722293Y-99013806D01*
X199825950Y-99241851D01*
X199847200Y-99288600D01*
X199848292Y-99290602D01*
X199848295Y-99290608D01*
X199996824Y-99562910D01*
X199999600Y-99568000D01*
X200001147Y-99570320D01*
X200150132Y-99793799D01*
X200150138Y-99793807D01*
X200152000Y-99796600D01*
X200154150Y-99799180D01*
X200154153Y-99799184D01*
X200168880Y-99816856D01*
X200279000Y-99949000D01*
X200482200Y-100152200D01*
X200787000Y-100406200D01*
X200790629Y-100408468D01*
X200790633Y-100408471D01*
X200882422Y-100465839D01*
X200990200Y-100533200D01*
X201244200Y-100660200D01*
X201472800Y-100761800D01*
X201777600Y-100863400D01*
X201782156Y-100864204D01*
X201782160Y-100864205D01*
X201973896Y-100898040D01*
X202209400Y-100939600D01*
X202742800Y-100939600D01*
X202921618Y-100914055D01*
X203096016Y-100889141D01*
X203096027Y-100889139D01*
X203098400Y-100888800D01*
X203100744Y-100888279D01*
X203100750Y-100888278D01*
X203174507Y-100871887D01*
X203327000Y-100838000D01*
X203708000Y-100685600D01*
X203710333Y-100684433D01*
X203710343Y-100684429D01*
X204058535Y-100510333D01*
X204058539Y-100510330D01*
X204063600Y-100507800D01*
X204321772Y-100314171D01*
X204366502Y-100280624D01*
X204366510Y-100280617D01*
X204368400Y-100279200D01*
X204571600Y-100101400D01*
X204800200Y-99847400D01*
X205028800Y-99517200D01*
X205130400Y-99314000D01*
X205257400Y-99009200D01*
X205359000Y-98729800D01*
X205409800Y-98450400D01*
X205410631Y-98442926D01*
X205429505Y-98273051D01*
X205434821Y-98225214D01*
X205435760Y-98218443D01*
X205460600Y-98069400D01*
X205450323Y-97925516D01*
X205435319Y-97715461D01*
X205435318Y-97715448D01*
X205435200Y-97713800D01*
X205431276Y-97682404D01*
X205410272Y-97514378D01*
X205409800Y-97510600D01*
X205392289Y-97440557D01*
X205309344Y-97108775D01*
X205309343Y-97108772D01*
X205308200Y-97104200D01*
X205253373Y-96972614D01*
X205181530Y-96800192D01*
X205180850Y-96798525D01*
X205132021Y-96676453D01*
X205130400Y-96672400D01*
X205090172Y-96602000D01*
X205029876Y-96496483D01*
X205028800Y-96494600D01*
X204816757Y-96176535D01*
X204778255Y-96118782D01*
X204778253Y-96118780D01*
X204774800Y-96113600D01*
X204444600Y-95783400D01*
X204190600Y-95580200D01*
X204180879Y-95574124D01*
X204032176Y-95481185D01*
X203987400Y-95453200D01*
X203682600Y-95300800D01*
X203679014Y-95299519D01*
X203679011Y-95299518D01*
X203329290Y-95174618D01*
X203327000Y-95173800D01*
X203047600Y-95097600D01*
X202615800Y-95046800D01*
X202387200Y-95046800D01*
X202158600Y-95072200D01*
X202158219Y-95072248D01*
X202158156Y-95072255D01*
X201999498Y-95092088D01*
X201955400Y-95097600D01*
X201676000Y-95173800D01*
X201561751Y-95211883D01*
X201449148Y-95249417D01*
X201449138Y-95249421D01*
X201447400Y-95250000D01*
X201445704Y-95250678D01*
X201445686Y-95250685D01*
X201299295Y-95309242D01*
X201193400Y-95351600D01*
X201189080Y-95354192D01*
X201189076Y-95354194D01*
X201070555Y-95425307D01*
X201062078Y-95429961D01*
X201017147Y-95452426D01*
X201017133Y-95452434D01*
X201015600Y-95453200D01*
X201014104Y-95454055D01*
X200841672Y-95552587D01*
X200841668Y-95552590D01*
X200837800Y-95554800D01*
X200812963Y-95574118D01*
X200611273Y-95730988D01*
X200609200Y-95732600D01*
X200355200Y-95961200D01*
X200202800Y-96139000D01*
X200200077Y-96143539D01*
X200200073Y-96143544D01*
X200129189Y-96261685D01*
X200123675Y-96270095D01*
X200001673Y-96440897D01*
X200001669Y-96440904D01*
X199999600Y-96443800D01*
X199872600Y-96672400D01*
X199796400Y-96824800D01*
X199795675Y-96826493D01*
X199795667Y-96826509D01*
X199721771Y-96998933D01*
X199721768Y-96998941D01*
X199720200Y-97002600D01*
X199669400Y-97180400D01*
X199593200Y-97459800D01*
X199592646Y-97464233D01*
X199567940Y-97661880D01*
X199567647Y-97664071D01*
X199542400Y-97840800D01*
X199542400Y-98044000D01*
X193883500Y-98044000D01*
X193883500Y-97734594D01*
X193903502Y-97666473D01*
X193920405Y-97645499D01*
X200668009Y-90897896D01*
X202676658Y-90897896D01*
X202685954Y-90909912D01*
X202731695Y-90941940D01*
X202741185Y-90947419D01*
X202934633Y-91037625D01*
X202944925Y-91041371D01*
X203151096Y-91096614D01*
X203161891Y-91098517D01*
X203374525Y-91117121D01*
X203385475Y-91117121D01*
X203598109Y-91098517D01*
X203608904Y-91096614D01*
X203815075Y-91041371D01*
X203825367Y-91037625D01*
X204018815Y-90947419D01*
X204028305Y-90941940D01*
X204074885Y-90909324D01*
X204083259Y-90898848D01*
X204076190Y-90885400D01*
X203392812Y-90202022D01*
X203378868Y-90194408D01*
X203377035Y-90194539D01*
X203370420Y-90198790D01*
X202683088Y-90886122D01*
X202676658Y-90897896D01*
X200668009Y-90897896D01*
X201881792Y-89684113D01*
X201944104Y-89650087D01*
X202014919Y-89655152D01*
X202071755Y-89697699D01*
X202096566Y-89764219D01*
X202096407Y-89784190D01*
X202092879Y-89824514D01*
X202092879Y-89835475D01*
X202111483Y-90048109D01*
X202113386Y-90058904D01*
X202168629Y-90265075D01*
X202172375Y-90275367D01*
X202262581Y-90468815D01*
X202268060Y-90478305D01*
X202300676Y-90524885D01*
X202311152Y-90533259D01*
X202324600Y-90526190D01*
X203019658Y-89831132D01*
X203744408Y-89831132D01*
X203744539Y-89832965D01*
X203748790Y-89839580D01*
X204436122Y-90526912D01*
X204447896Y-90533342D01*
X204459912Y-90524046D01*
X204491940Y-90478305D01*
X204497419Y-90468815D01*
X204587625Y-90275367D01*
X204591371Y-90265075D01*
X204646614Y-90058904D01*
X204648517Y-90048109D01*
X204667121Y-89835475D01*
X204667121Y-89824525D01*
X204648517Y-89611891D01*
X204646614Y-89601096D01*
X204591371Y-89394925D01*
X204587625Y-89384633D01*
X204497419Y-89191185D01*
X204491940Y-89181695D01*
X204459324Y-89135115D01*
X204448848Y-89126741D01*
X204435400Y-89133810D01*
X203752022Y-89817188D01*
X203744408Y-89831132D01*
X203019658Y-89831132D01*
X204076912Y-88773878D01*
X204083342Y-88762104D01*
X204074046Y-88750088D01*
X204028305Y-88718060D01*
X204018815Y-88712581D01*
X203825367Y-88622375D01*
X203815075Y-88618629D01*
X203608904Y-88563386D01*
X203598109Y-88561483D01*
X203385475Y-88542879D01*
X203374514Y-88542879D01*
X203334190Y-88546407D01*
X203264585Y-88532419D01*
X203213593Y-88483020D01*
X203197402Y-88413894D01*
X203221154Y-88346988D01*
X203234113Y-88331792D01*
X210607409Y-80958496D01*
X210669721Y-80924470D01*
X210729114Y-80925884D01*
X210767778Y-80936243D01*
X210776323Y-80938533D01*
X211000000Y-80958102D01*
X211223677Y-80938533D01*
X211341490Y-80906965D01*
X211412465Y-80908655D01*
G37*
%TD.AperFunction*%
%TD*%
M02*
