%TF.GenerationSoftware,KiCad,Pcbnew,(6.0.4)*%
%TF.CreationDate,2022-03-25T16:17:33-04:00*%
%TF.ProjectId,relay_board,72656c61-795f-4626-9f61-72642e6b6963,rev?*%
%TF.SameCoordinates,Original*%
%TF.FileFunction,Soldermask,Top*%
%TF.FilePolarity,Negative*%
%FSLAX46Y46*%
G04 Gerber Fmt 4.6, Leading zero omitted, Abs format (unit mm)*
G04 Created by KiCad (PCBNEW (6.0.4)) date 2022-03-25 16:17:33*
%MOMM*%
%LPD*%
G01*
G04 APERTURE LIST*
G04 Aperture macros list*
%AMRoundRect*
0 Rectangle with rounded corners*
0 $1 Rounding radius*
0 $2 $3 $4 $5 $6 $7 $8 $9 X,Y pos of 4 corners*
0 Add a 4 corners polygon primitive as box body*
4,1,4,$2,$3,$4,$5,$6,$7,$8,$9,$2,$3,0*
0 Add four circle primitives for the rounded corners*
1,1,$1+$1,$2,$3*
1,1,$1+$1,$4,$5*
1,1,$1+$1,$6,$7*
1,1,$1+$1,$8,$9*
0 Add four rect primitives between the rounded corners*
20,1,$1+$1,$2,$3,$4,$5,0*
20,1,$1+$1,$4,$5,$6,$7,0*
20,1,$1+$1,$6,$7,$8,$9,0*
20,1,$1+$1,$8,$9,$2,$3,0*%
G04 Aperture macros list end*
%ADD10C,1.549400*%
%ADD11C,1.498600*%
%ADD12R,1.700000X1.700000*%
%ADD13O,1.700000X1.700000*%
%ADD14RoundRect,0.200000X-0.200000X-0.275000X0.200000X-0.275000X0.200000X0.275000X-0.200000X0.275000X0*%
%ADD15C,2.700000*%
%ADD16RoundRect,0.250000X-0.375000X-0.625000X0.375000X-0.625000X0.375000X0.625000X-0.375000X0.625000X0*%
G04 APERTURE END LIST*
D10*
%TO.C,Ue*%
X174000000Y-88500000D03*
X181620000Y-88500000D03*
X191780000Y-88500000D03*
X191780000Y-96120000D03*
X176540000Y-96120000D03*
%TD*%
D11*
%TO.C,J1*%
X169500000Y-120500000D03*
X173000001Y-120500000D03*
X176500001Y-120500000D03*
X180000002Y-120500000D03*
%TD*%
D10*
%TO.C,U4*%
X216000000Y-84500000D03*
X223620000Y-84500000D03*
X233780000Y-84500000D03*
X233780000Y-92120000D03*
X218540000Y-92120000D03*
%TD*%
%TO.C,U5*%
X203380000Y-74590000D03*
X203380000Y-89830000D03*
X211000000Y-89830000D03*
X211000000Y-79670000D03*
X211000000Y-72050000D03*
%TD*%
D11*
%TO.C,J7*%
X180000000Y-75500000D03*
X176499999Y-75500000D03*
X172999999Y-75500000D03*
X169499998Y-75500000D03*
%TD*%
D10*
%TO.C,U2*%
X174000000Y-100000000D03*
X181620000Y-100000000D03*
X191780000Y-100000000D03*
X191780000Y-107620000D03*
X176540000Y-107620000D03*
%TD*%
%TO.C,U6*%
X216000000Y-72000000D03*
X223620000Y-72000000D03*
X233780000Y-72000000D03*
X233780000Y-79620000D03*
X218540000Y-79620000D03*
%TD*%
D12*
%TO.C,J6*%
X239500000Y-84030000D03*
D13*
X242040000Y-84030000D03*
X239500000Y-86570000D03*
X242040000Y-86570000D03*
X239500000Y-89110000D03*
X242040000Y-89110000D03*
X239500000Y-91650000D03*
X242040000Y-91650000D03*
X239500000Y-94190000D03*
X242040000Y-94190000D03*
X239500000Y-96730000D03*
X242040000Y-96730000D03*
X239500000Y-99270000D03*
X242040000Y-99270000D03*
X239500000Y-101810000D03*
X242040000Y-101810000D03*
X239500000Y-104350000D03*
X242040000Y-104350000D03*
X239500000Y-106890000D03*
X242040000Y-106890000D03*
X239500000Y-109430000D03*
X242040000Y-109430000D03*
X239500000Y-111970000D03*
X242040000Y-111970000D03*
%TD*%
D11*
%TO.C,J*%
X203000000Y-120500000D03*
X206500001Y-120500000D03*
X210000001Y-120500000D03*
X213500002Y-120500000D03*
%TD*%
D14*
%TO.C,R1*%
X229225000Y-123500000D03*
X230875000Y-123500000D03*
%TD*%
D11*
%TO.C,J2*%
X186250000Y-120500000D03*
X189750001Y-120500000D03*
X193250001Y-120500000D03*
X196750002Y-120500000D03*
%TD*%
D15*
%TO.C,REF\u002A\u002A*%
X202500000Y-98000000D03*
%TD*%
D11*
%TO.C,J4*%
X196750000Y-75500000D03*
X193249999Y-75500000D03*
X189749999Y-75500000D03*
X186249998Y-75500000D03*
%TD*%
D12*
%TO.C,J5*%
X163000000Y-86570000D03*
D13*
X165540000Y-86570000D03*
X163000000Y-89110000D03*
X165540000Y-89110000D03*
X163000000Y-91650000D03*
X165540000Y-91650000D03*
X163000000Y-94190000D03*
X165540000Y-94190000D03*
X163000000Y-96730000D03*
X165540000Y-96730000D03*
X163000000Y-99270000D03*
X165540000Y-99270000D03*
X163000000Y-101810000D03*
X165540000Y-101810000D03*
X163000000Y-104350000D03*
X165540000Y-104350000D03*
X163000000Y-106890000D03*
X165540000Y-106890000D03*
X163000000Y-109430000D03*
X165540000Y-109430000D03*
%TD*%
D10*
%TO.C,U1*%
X216000000Y-97000000D03*
X223620000Y-97000000D03*
X233780000Y-97000000D03*
X233780000Y-104620000D03*
X218540000Y-104620000D03*
%TD*%
D16*
%TO.C,D1*%
X233600000Y-123500000D03*
X236400000Y-123500000D03*
%TD*%
M02*
