M48
; DRILL file {KiCad (6.0.4)} date Fri Mar 25 16:17:37 2022
; FORMAT={-:-/ absolute / inch / decimal}
; #@! TF.CreationDate,2022-03-25T16:17:37-04:00
; #@! TF.GenerationSoftware,Kicad,Pcbnew,(6.0.4)
; #@! TF.FileFunction,Plated,1,2,PTH
FMAT,2
INCH
; #@! TA.AperFunction,Plated,PTH,ComponentDrill
T1C0.0390
; #@! TA.AperFunction,Plated,PTH,ComponentDrill
T2C0.0394
; #@! TA.AperFunction,Plated,PTH,ComponentDrill
T3C0.0410
%
G90
G05
T1
X6.6732Y-2.9724
X6.6732Y-4.7441
X6.811Y-2.9724
X6.811Y-4.7441
X6.9488Y-2.9724
X6.9488Y-4.7441
X7.0866Y-2.9724
X7.0866Y-4.7441
X7.3327Y-2.9724
X7.3327Y-4.7441
X7.4705Y-2.9724
X7.4705Y-4.7441
X7.6083Y-2.9724
X7.6083Y-4.7441
X7.7461Y-2.9724
X7.7461Y-4.7441
X7.9921Y-4.7441
X8.1299Y-4.7441
X8.2677Y-4.7441
X8.4055Y-4.7441
T2
X6.4173Y-3.4083
X6.4173Y-3.5083
X6.4173Y-3.6083
X6.4173Y-3.7083
X6.4173Y-3.8083
X6.4173Y-3.9083
X6.4173Y-4.0083
X6.4173Y-4.1083
X6.4173Y-4.2083
X6.4173Y-4.3083
X6.5173Y-3.4083
X6.5173Y-3.5083
X6.5173Y-3.6083
X6.5173Y-3.7083
X6.5173Y-3.8083
X6.5173Y-3.9083
X6.5173Y-4.0083
X6.5173Y-4.1083
X6.5173Y-4.2083
X6.5173Y-4.3083
X9.4291Y-3.3083
X9.4291Y-3.4083
X9.4291Y-3.5083
X9.4291Y-3.6083
X9.4291Y-3.7083
X9.4291Y-3.8083
X9.4291Y-3.9083
X9.4291Y-4.0083
X9.4291Y-4.1083
X9.4291Y-4.2083
X9.4291Y-4.3083
X9.4291Y-4.4083
X9.5291Y-3.3083
X9.5291Y-3.4083
X9.5291Y-3.5083
X9.5291Y-3.6083
X9.5291Y-3.7083
X9.5291Y-3.8083
X9.5291Y-3.9083
X9.5291Y-4.0083
X9.5291Y-4.1083
X9.5291Y-4.2083
X9.5291Y-4.3083
X9.5291Y-4.4083
T3
X6.8504Y-3.4843
X6.8504Y-3.937
X6.9504Y-3.7843
X6.9504Y-4.237
X7.1504Y-3.4843
X7.1504Y-3.937
X7.5504Y-3.4843
X7.5504Y-3.7843
X7.5504Y-3.937
X7.5504Y-4.237
X8.0071Y-2.9366
X8.0071Y-3.5366
X8.3071Y-2.8366
X8.3071Y-3.1366
X8.3071Y-3.5366
X8.5039Y-2.8346
X8.5039Y-3.3268
X8.5039Y-3.8189
X8.6039Y-3.1346
X8.6039Y-3.6268
X8.6039Y-4.1189
X8.8039Y-2.8346
X8.8039Y-3.3268
X8.8039Y-3.8189
X9.2039Y-2.8346
X9.2039Y-3.1346
X9.2039Y-3.3268
X9.2039Y-3.6268
X9.2039Y-3.8189
X9.2039Y-4.1189
T0
M30
