%TF.GenerationSoftware,KiCad,Pcbnew,(5.1.9)-1*%
%TF.CreationDate,2022-02-04T14:39:15-05:00*%
%TF.ProjectId,Baja_Pi_Expansion,42616a61-5f50-4695-9f45-7870616e7369,rev?*%
%TF.SameCoordinates,Original*%
%TF.FileFunction,Paste,Top*%
%TF.FilePolarity,Positive*%
%FSLAX46Y46*%
G04 Gerber Fmt 4.6, Leading zero omitted, Abs format (unit mm)*
G04 Created by KiCad (PCBNEW (5.1.9)-1) date 2022-02-04 14:39:15*
%MOMM*%
%LPD*%
G01*
G04 APERTURE LIST*
G04 APERTURE END LIST*
%TO.C,D1*%
G36*
G01*
X232300000Y-124950001D02*
X232300000Y-122049999D01*
G75*
G02*
X232549999Y-121800000I249999J0D01*
G01*
X233175001Y-121800000D01*
G75*
G02*
X233425000Y-122049999I0J-249999D01*
G01*
X233425000Y-124950001D01*
G75*
G02*
X233175001Y-125200000I-249999J0D01*
G01*
X232549999Y-125200000D01*
G75*
G02*
X232300000Y-124950001I0J249999D01*
G01*
G37*
G36*
G01*
X236575000Y-124950001D02*
X236575000Y-122049999D01*
G75*
G02*
X236824999Y-121800000I249999J0D01*
G01*
X237450001Y-121800000D01*
G75*
G02*
X237700000Y-122049999I0J-249999D01*
G01*
X237700000Y-124950001D01*
G75*
G02*
X237450001Y-125200000I-249999J0D01*
G01*
X236824999Y-125200000D01*
G75*
G02*
X236575000Y-124950001I0J249999D01*
G01*
G37*
%TD*%
%TO.C,R1*%
G36*
G01*
X177142001Y-87350001D02*
X177142001Y-86800001D01*
G75*
G02*
X177342001Y-86600001I200000J0D01*
G01*
X177742001Y-86600001D01*
G75*
G02*
X177942001Y-86800001I0J-200000D01*
G01*
X177942001Y-87350001D01*
G75*
G02*
X177742001Y-87550001I-200000J0D01*
G01*
X177342001Y-87550001D01*
G75*
G02*
X177142001Y-87350001I0J200000D01*
G01*
G37*
G36*
G01*
X178792001Y-87350001D02*
X178792001Y-86800001D01*
G75*
G02*
X178992001Y-86600001I200000J0D01*
G01*
X179392001Y-86600001D01*
G75*
G02*
X179592001Y-86800001I0J-200000D01*
G01*
X179592001Y-87350001D01*
G75*
G02*
X179392001Y-87550001I-200000J0D01*
G01*
X178992001Y-87550001D01*
G75*
G02*
X178792001Y-87350001I0J200000D01*
G01*
G37*
%TD*%
%TO.C,R2*%
G36*
G01*
X178797000Y-92096000D02*
X178797000Y-91546000D01*
G75*
G02*
X178997000Y-91346000I200000J0D01*
G01*
X179397000Y-91346000D01*
G75*
G02*
X179597000Y-91546000I0J-200000D01*
G01*
X179597000Y-92096000D01*
G75*
G02*
X179397000Y-92296000I-200000J0D01*
G01*
X178997000Y-92296000D01*
G75*
G02*
X178797000Y-92096000I0J200000D01*
G01*
G37*
G36*
G01*
X177147000Y-92096000D02*
X177147000Y-91546000D01*
G75*
G02*
X177347000Y-91346000I200000J0D01*
G01*
X177747000Y-91346000D01*
G75*
G02*
X177947000Y-91546000I0J-200000D01*
G01*
X177947000Y-92096000D01*
G75*
G02*
X177747000Y-92296000I-200000J0D01*
G01*
X177347000Y-92296000D01*
G75*
G02*
X177147000Y-92096000I0J200000D01*
G01*
G37*
%TD*%
%TO.C,R3*%
G36*
G01*
X184892000Y-87270000D02*
X184892000Y-86720000D01*
G75*
G02*
X185092000Y-86520000I200000J0D01*
G01*
X185492000Y-86520000D01*
G75*
G02*
X185692000Y-86720000I0J-200000D01*
G01*
X185692000Y-87270000D01*
G75*
G02*
X185492000Y-87470000I-200000J0D01*
G01*
X185092000Y-87470000D01*
G75*
G02*
X184892000Y-87270000I0J200000D01*
G01*
G37*
G36*
G01*
X183242000Y-87270000D02*
X183242000Y-86720000D01*
G75*
G02*
X183442000Y-86520000I200000J0D01*
G01*
X183842000Y-86520000D01*
G75*
G02*
X184042000Y-86720000I0J-200000D01*
G01*
X184042000Y-87270000D01*
G75*
G02*
X183842000Y-87470000I-200000J0D01*
G01*
X183442000Y-87470000D01*
G75*
G02*
X183242000Y-87270000I0J200000D01*
G01*
G37*
%TD*%
%TO.C,R4*%
G36*
G01*
X183369000Y-92096000D02*
X183369000Y-91546000D01*
G75*
G02*
X183569000Y-91346000I200000J0D01*
G01*
X183969000Y-91346000D01*
G75*
G02*
X184169000Y-91546000I0J-200000D01*
G01*
X184169000Y-92096000D01*
G75*
G02*
X183969000Y-92296000I-200000J0D01*
G01*
X183569000Y-92296000D01*
G75*
G02*
X183369000Y-92096000I0J200000D01*
G01*
G37*
G36*
G01*
X185019000Y-92096000D02*
X185019000Y-91546000D01*
G75*
G02*
X185219000Y-91346000I200000J0D01*
G01*
X185619000Y-91346000D01*
G75*
G02*
X185819000Y-91546000I0J-200000D01*
G01*
X185819000Y-92096000D01*
G75*
G02*
X185619000Y-92296000I-200000J0D01*
G01*
X185219000Y-92296000D01*
G75*
G02*
X185019000Y-92096000I0J200000D01*
G01*
G37*
%TD*%
%TO.C,R5*%
G36*
G01*
X189275000Y-89683000D02*
X189275000Y-89133000D01*
G75*
G02*
X189475000Y-88933000I200000J0D01*
G01*
X189875000Y-88933000D01*
G75*
G02*
X190075000Y-89133000I0J-200000D01*
G01*
X190075000Y-89683000D01*
G75*
G02*
X189875000Y-89883000I-200000J0D01*
G01*
X189475000Y-89883000D01*
G75*
G02*
X189275000Y-89683000I0J200000D01*
G01*
G37*
G36*
G01*
X190925000Y-89683000D02*
X190925000Y-89133000D01*
G75*
G02*
X191125000Y-88933000I200000J0D01*
G01*
X191525000Y-88933000D01*
G75*
G02*
X191725000Y-89133000I0J-200000D01*
G01*
X191725000Y-89683000D01*
G75*
G02*
X191525000Y-89883000I-200000J0D01*
G01*
X191125000Y-89883000D01*
G75*
G02*
X190925000Y-89683000I0J200000D01*
G01*
G37*
%TD*%
M02*
