%TF.GenerationSoftware,KiCad,Pcbnew,(5.1.10)-1*%
%TF.CreationDate,2022-02-05T11:09:47-05:00*%
%TF.ProjectId,Baja_Pi_Expansion,42616a61-5f50-4695-9f45-7870616e7369,rev?*%
%TF.SameCoordinates,Original*%
%TF.FileFunction,Soldermask,Bot*%
%TF.FilePolarity,Negative*%
%FSLAX46Y46*%
G04 Gerber Fmt 4.6, Leading zero omitted, Abs format (unit mm)*
G04 Created by KiCad (PCBNEW (5.1.10)-1) date 2022-02-05 11:09:47*
%MOMM*%
%LPD*%
G01*
G04 APERTURE LIST*
%ADD10C,2.700000*%
%ADD11R,1.700000X1.700000*%
%ADD12O,1.700000X1.700000*%
%ADD13R,1.600000X1.600000*%
%ADD14C,1.600000*%
%ADD15C,2.000000*%
G04 APERTURE END LIST*
D10*
%TO.C,H1*%
X202500000Y-98000000D03*
%TD*%
%TO.C,H2*%
X163500000Y-73500000D03*
%TD*%
%TO.C,H3*%
X241500000Y-122500000D03*
%TD*%
%TO.C,H4*%
X221500000Y-122500000D03*
%TD*%
%TO.C,H5*%
X241500000Y-73500000D03*
%TD*%
D11*
%TO.C,J1*%
X163000000Y-86570000D03*
D12*
X165540000Y-86570000D03*
X163000000Y-89110000D03*
X165540000Y-89110000D03*
X163000000Y-91650000D03*
X165540000Y-91650000D03*
X163000000Y-94190000D03*
X165540000Y-94190000D03*
X163000000Y-96730000D03*
X165540000Y-96730000D03*
X163000000Y-99270000D03*
X165540000Y-99270000D03*
X163000000Y-101810000D03*
X165540000Y-101810000D03*
X163000000Y-104350000D03*
X165540000Y-104350000D03*
X163000000Y-106890000D03*
X165540000Y-106890000D03*
X163000000Y-109430000D03*
X165540000Y-109430000D03*
%TD*%
D11*
%TO.C,J2*%
X239500000Y-84030000D03*
D12*
X242040000Y-84030000D03*
X239500000Y-86570000D03*
X242040000Y-86570000D03*
X239500000Y-89110000D03*
X242040000Y-89110000D03*
X239500000Y-91650000D03*
X242040000Y-91650000D03*
X239500000Y-94190000D03*
X242040000Y-94190000D03*
X239500000Y-96730000D03*
X242040000Y-96730000D03*
X239500000Y-99270000D03*
X242040000Y-99270000D03*
X239500000Y-101810000D03*
X242040000Y-101810000D03*
X239500000Y-104350000D03*
X242040000Y-104350000D03*
X239500000Y-106890000D03*
X242040000Y-106890000D03*
X239500000Y-109430000D03*
X242040000Y-109430000D03*
X239500000Y-111970000D03*
X242040000Y-111970000D03*
%TD*%
D11*
%TO.C,J4*%
X168370000Y-74770000D03*
D12*
X168370000Y-72230000D03*
X170910000Y-74770000D03*
X170910000Y-72230000D03*
X173450000Y-74770000D03*
X173450000Y-72230000D03*
X175990000Y-74770000D03*
X175990000Y-72230000D03*
X178530000Y-74770000D03*
X178530000Y-72230000D03*
X181070000Y-74770000D03*
X181070000Y-72230000D03*
X183610000Y-74770000D03*
X183610000Y-72230000D03*
X186150000Y-74770000D03*
X186150000Y-72230000D03*
X188690000Y-74770000D03*
X188690000Y-72230000D03*
X191230000Y-74770000D03*
X191230000Y-72230000D03*
X193770000Y-74770000D03*
X193770000Y-72230000D03*
X196310000Y-74770000D03*
X196310000Y-72230000D03*
X198850000Y-74770000D03*
X198850000Y-72230000D03*
X201390000Y-74770000D03*
X201390000Y-72230000D03*
X203930000Y-74770000D03*
X203930000Y-72230000D03*
X206470000Y-74770000D03*
X206470000Y-72230000D03*
X209010000Y-74770000D03*
X209010000Y-72230000D03*
X211550000Y-74770000D03*
X211550000Y-72230000D03*
X214090000Y-74770000D03*
X214090000Y-72230000D03*
X216630000Y-74770000D03*
X216630000Y-72230000D03*
%TD*%
D13*
%TO.C,U1*%
X226568000Y-77089000D03*
D14*
X229108000Y-77089000D03*
X231648000Y-77089000D03*
X234188000Y-77089000D03*
X236728000Y-77089000D03*
X236728000Y-72009000D03*
X234188000Y-72009000D03*
X231648000Y-72009000D03*
X229108000Y-72009000D03*
X226568000Y-72009000D03*
%TD*%
D10*
%TO.C,H6*%
X221500000Y-73500000D03*
%TD*%
%TO.C,H7*%
X163500000Y-122500000D03*
%TD*%
D15*
%TO.C,J3*%
X191646000Y-120717000D03*
X188146000Y-120717000D03*
X184646000Y-120717000D03*
X181146000Y-120717000D03*
%TD*%
%TO.C,J5*%
X198766000Y-120717000D03*
X202266000Y-120717000D03*
X205766000Y-120717000D03*
X209266000Y-120717000D03*
%TD*%
M02*
