%TF.GenerationSoftware,KiCad,Pcbnew,(5.1.9)-1*%
%TF.CreationDate,2022-02-04T14:39:16-05:00*%
%TF.ProjectId,Baja_Pi_Expansion,42616a61-5f50-4695-9f45-7870616e7369,rev?*%
%TF.SameCoordinates,Original*%
%TF.FileFunction,Soldermask,Top*%
%TF.FilePolarity,Negative*%
%FSLAX46Y46*%
G04 Gerber Fmt 4.6, Leading zero omitted, Abs format (unit mm)*
G04 Created by KiCad (PCBNEW (5.1.9)-1) date 2022-02-04 14:39:16*
%MOMM*%
%LPD*%
G01*
G04 APERTURE LIST*
%ADD10C,2.700000*%
%ADD11R,1.700000X1.700000*%
%ADD12O,1.700000X1.700000*%
%ADD13R,1.600000X1.600000*%
%ADD14C,1.600000*%
%ADD15C,2.000000*%
G04 APERTURE END LIST*
%TO.C,D1*%
G36*
G01*
X232300000Y-124950001D02*
X232300000Y-122049999D01*
G75*
G02*
X232549999Y-121800000I249999J0D01*
G01*
X233175001Y-121800000D01*
G75*
G02*
X233425000Y-122049999I0J-249999D01*
G01*
X233425000Y-124950001D01*
G75*
G02*
X233175001Y-125200000I-249999J0D01*
G01*
X232549999Y-125200000D01*
G75*
G02*
X232300000Y-124950001I0J249999D01*
G01*
G37*
G36*
G01*
X236575000Y-124950001D02*
X236575000Y-122049999D01*
G75*
G02*
X236824999Y-121800000I249999J0D01*
G01*
X237450001Y-121800000D01*
G75*
G02*
X237700000Y-122049999I0J-249999D01*
G01*
X237700000Y-124950001D01*
G75*
G02*
X237450001Y-125200000I-249999J0D01*
G01*
X236824999Y-125200000D01*
G75*
G02*
X236575000Y-124950001I0J249999D01*
G01*
G37*
%TD*%
D10*
%TO.C,H1*%
X202500000Y-98000000D03*
%TD*%
%TO.C,H2*%
X163500000Y-73500000D03*
%TD*%
%TO.C,H3*%
X241500000Y-122500000D03*
%TD*%
%TO.C,H4*%
X221500000Y-122500000D03*
%TD*%
%TO.C,H5*%
X241500000Y-73500000D03*
%TD*%
D11*
%TO.C,J1*%
X163000000Y-86570000D03*
D12*
X165540000Y-86570000D03*
X163000000Y-89110000D03*
X165540000Y-89110000D03*
X163000000Y-91650000D03*
X165540000Y-91650000D03*
X163000000Y-94190000D03*
X165540000Y-94190000D03*
X163000000Y-96730000D03*
X165540000Y-96730000D03*
X163000000Y-99270000D03*
X165540000Y-99270000D03*
X163000000Y-101810000D03*
X165540000Y-101810000D03*
X163000000Y-104350000D03*
X165540000Y-104350000D03*
X163000000Y-106890000D03*
X165540000Y-106890000D03*
X163000000Y-109430000D03*
X165540000Y-109430000D03*
%TD*%
D11*
%TO.C,J2*%
X239500000Y-84030000D03*
D12*
X242040000Y-84030000D03*
X239500000Y-86570000D03*
X242040000Y-86570000D03*
X239500000Y-89110000D03*
X242040000Y-89110000D03*
X239500000Y-91650000D03*
X242040000Y-91650000D03*
X239500000Y-94190000D03*
X242040000Y-94190000D03*
X239500000Y-96730000D03*
X242040000Y-96730000D03*
X239500000Y-99270000D03*
X242040000Y-99270000D03*
X239500000Y-101810000D03*
X242040000Y-101810000D03*
X239500000Y-104350000D03*
X242040000Y-104350000D03*
X239500000Y-106890000D03*
X242040000Y-106890000D03*
X239500000Y-109430000D03*
X242040000Y-109430000D03*
X239500000Y-111970000D03*
X242040000Y-111970000D03*
%TD*%
D11*
%TO.C,J4*%
X168370000Y-74770000D03*
D12*
X168370000Y-72230000D03*
X170910000Y-74770000D03*
X170910000Y-72230000D03*
X173450000Y-74770000D03*
X173450000Y-72230000D03*
X175990000Y-74770000D03*
X175990000Y-72230000D03*
X178530000Y-74770000D03*
X178530000Y-72230000D03*
X181070000Y-74770000D03*
X181070000Y-72230000D03*
X183610000Y-74770000D03*
X183610000Y-72230000D03*
X186150000Y-74770000D03*
X186150000Y-72230000D03*
X188690000Y-74770000D03*
X188690000Y-72230000D03*
X191230000Y-74770000D03*
X191230000Y-72230000D03*
X193770000Y-74770000D03*
X193770000Y-72230000D03*
X196310000Y-74770000D03*
X196310000Y-72230000D03*
X198850000Y-74770000D03*
X198850000Y-72230000D03*
X201390000Y-74770000D03*
X201390000Y-72230000D03*
X203930000Y-74770000D03*
X203930000Y-72230000D03*
X206470000Y-74770000D03*
X206470000Y-72230000D03*
X209010000Y-74770000D03*
X209010000Y-72230000D03*
X211550000Y-74770000D03*
X211550000Y-72230000D03*
X214090000Y-74770000D03*
X214090000Y-72230000D03*
X216630000Y-74770000D03*
X216630000Y-72230000D03*
%TD*%
%TO.C,R1*%
G36*
G01*
X177142001Y-87350001D02*
X177142001Y-86800001D01*
G75*
G02*
X177342001Y-86600001I200000J0D01*
G01*
X177742001Y-86600001D01*
G75*
G02*
X177942001Y-86800001I0J-200000D01*
G01*
X177942001Y-87350001D01*
G75*
G02*
X177742001Y-87550001I-200000J0D01*
G01*
X177342001Y-87550001D01*
G75*
G02*
X177142001Y-87350001I0J200000D01*
G01*
G37*
G36*
G01*
X178792001Y-87350001D02*
X178792001Y-86800001D01*
G75*
G02*
X178992001Y-86600001I200000J0D01*
G01*
X179392001Y-86600001D01*
G75*
G02*
X179592001Y-86800001I0J-200000D01*
G01*
X179592001Y-87350001D01*
G75*
G02*
X179392001Y-87550001I-200000J0D01*
G01*
X178992001Y-87550001D01*
G75*
G02*
X178792001Y-87350001I0J200000D01*
G01*
G37*
%TD*%
%TO.C,R2*%
G36*
G01*
X178797000Y-92096000D02*
X178797000Y-91546000D01*
G75*
G02*
X178997000Y-91346000I200000J0D01*
G01*
X179397000Y-91346000D01*
G75*
G02*
X179597000Y-91546000I0J-200000D01*
G01*
X179597000Y-92096000D01*
G75*
G02*
X179397000Y-92296000I-200000J0D01*
G01*
X178997000Y-92296000D01*
G75*
G02*
X178797000Y-92096000I0J200000D01*
G01*
G37*
G36*
G01*
X177147000Y-92096000D02*
X177147000Y-91546000D01*
G75*
G02*
X177347000Y-91346000I200000J0D01*
G01*
X177747000Y-91346000D01*
G75*
G02*
X177947000Y-91546000I0J-200000D01*
G01*
X177947000Y-92096000D01*
G75*
G02*
X177747000Y-92296000I-200000J0D01*
G01*
X177347000Y-92296000D01*
G75*
G02*
X177147000Y-92096000I0J200000D01*
G01*
G37*
%TD*%
%TO.C,R3*%
G36*
G01*
X184892000Y-87270000D02*
X184892000Y-86720000D01*
G75*
G02*
X185092000Y-86520000I200000J0D01*
G01*
X185492000Y-86520000D01*
G75*
G02*
X185692000Y-86720000I0J-200000D01*
G01*
X185692000Y-87270000D01*
G75*
G02*
X185492000Y-87470000I-200000J0D01*
G01*
X185092000Y-87470000D01*
G75*
G02*
X184892000Y-87270000I0J200000D01*
G01*
G37*
G36*
G01*
X183242000Y-87270000D02*
X183242000Y-86720000D01*
G75*
G02*
X183442000Y-86520000I200000J0D01*
G01*
X183842000Y-86520000D01*
G75*
G02*
X184042000Y-86720000I0J-200000D01*
G01*
X184042000Y-87270000D01*
G75*
G02*
X183842000Y-87470000I-200000J0D01*
G01*
X183442000Y-87470000D01*
G75*
G02*
X183242000Y-87270000I0J200000D01*
G01*
G37*
%TD*%
%TO.C,R4*%
G36*
G01*
X183369000Y-92096000D02*
X183369000Y-91546000D01*
G75*
G02*
X183569000Y-91346000I200000J0D01*
G01*
X183969000Y-91346000D01*
G75*
G02*
X184169000Y-91546000I0J-200000D01*
G01*
X184169000Y-92096000D01*
G75*
G02*
X183969000Y-92296000I-200000J0D01*
G01*
X183569000Y-92296000D01*
G75*
G02*
X183369000Y-92096000I0J200000D01*
G01*
G37*
G36*
G01*
X185019000Y-92096000D02*
X185019000Y-91546000D01*
G75*
G02*
X185219000Y-91346000I200000J0D01*
G01*
X185619000Y-91346000D01*
G75*
G02*
X185819000Y-91546000I0J-200000D01*
G01*
X185819000Y-92096000D01*
G75*
G02*
X185619000Y-92296000I-200000J0D01*
G01*
X185219000Y-92296000D01*
G75*
G02*
X185019000Y-92096000I0J200000D01*
G01*
G37*
%TD*%
%TO.C,R5*%
G36*
G01*
X189275000Y-89683000D02*
X189275000Y-89133000D01*
G75*
G02*
X189475000Y-88933000I200000J0D01*
G01*
X189875000Y-88933000D01*
G75*
G02*
X190075000Y-89133000I0J-200000D01*
G01*
X190075000Y-89683000D01*
G75*
G02*
X189875000Y-89883000I-200000J0D01*
G01*
X189475000Y-89883000D01*
G75*
G02*
X189275000Y-89683000I0J200000D01*
G01*
G37*
G36*
G01*
X190925000Y-89683000D02*
X190925000Y-89133000D01*
G75*
G02*
X191125000Y-88933000I200000J0D01*
G01*
X191525000Y-88933000D01*
G75*
G02*
X191725000Y-89133000I0J-200000D01*
G01*
X191725000Y-89683000D01*
G75*
G02*
X191525000Y-89883000I-200000J0D01*
G01*
X191125000Y-89883000D01*
G75*
G02*
X190925000Y-89683000I0J200000D01*
G01*
G37*
%TD*%
D13*
%TO.C,U1*%
X226568000Y-77089000D03*
D14*
X229108000Y-77089000D03*
X231648000Y-77089000D03*
X234188000Y-77089000D03*
X236728000Y-77089000D03*
X236728000Y-72009000D03*
X234188000Y-72009000D03*
X231648000Y-72009000D03*
X229108000Y-72009000D03*
X226568000Y-72009000D03*
%TD*%
D10*
%TO.C,H6*%
X221500000Y-73500000D03*
%TD*%
%TO.C,H7*%
X163500000Y-122500000D03*
%TD*%
D15*
%TO.C,J3*%
X191646001Y-120717001D03*
X188146001Y-120717001D03*
X184646001Y-120717001D03*
X181146001Y-120717001D03*
%TD*%
%TO.C,J5*%
X198766001Y-120717001D03*
X202266001Y-120717001D03*
X205766001Y-120717001D03*
X209266001Y-120717001D03*
%TD*%
M02*
