%TF.GenerationSoftware,KiCad,Pcbnew,(6.0.4)*%
%TF.CreationDate,2022-03-25T16:17:33-04:00*%
%TF.ProjectId,relay_board,72656c61-795f-4626-9f61-72642e6b6963,rev?*%
%TF.SameCoordinates,Original*%
%TF.FileFunction,Copper,L1,Top*%
%TF.FilePolarity,Positive*%
%FSLAX46Y46*%
G04 Gerber Fmt 4.6, Leading zero omitted, Abs format (unit mm)*
G04 Created by KiCad (PCBNEW (6.0.4)) date 2022-03-25 16:17:33*
%MOMM*%
%LPD*%
G01*
G04 APERTURE LIST*
G04 Aperture macros list*
%AMRoundRect*
0 Rectangle with rounded corners*
0 $1 Rounding radius*
0 $2 $3 $4 $5 $6 $7 $8 $9 X,Y pos of 4 corners*
0 Add a 4 corners polygon primitive as box body*
4,1,4,$2,$3,$4,$5,$6,$7,$8,$9,$2,$3,0*
0 Add four circle primitives for the rounded corners*
1,1,$1+$1,$2,$3*
1,1,$1+$1,$4,$5*
1,1,$1+$1,$6,$7*
1,1,$1+$1,$8,$9*
0 Add four rect primitives between the rounded corners*
20,1,$1+$1,$2,$3,$4,$5,0*
20,1,$1+$1,$4,$5,$6,$7,0*
20,1,$1+$1,$6,$7,$8,$9,0*
20,1,$1+$1,$8,$9,$2,$3,0*%
G04 Aperture macros list end*
%TA.AperFunction,ComponentPad*%
%ADD10C,1.549400*%
%TD*%
%TA.AperFunction,ComponentPad*%
%ADD11C,1.498600*%
%TD*%
%TA.AperFunction,ComponentPad*%
%ADD12R,1.700000X1.700000*%
%TD*%
%TA.AperFunction,ComponentPad*%
%ADD13O,1.700000X1.700000*%
%TD*%
%TA.AperFunction,SMDPad,CuDef*%
%ADD14RoundRect,0.200000X-0.200000X-0.275000X0.200000X-0.275000X0.200000X0.275000X-0.200000X0.275000X0*%
%TD*%
%TA.AperFunction,SMDPad,CuDef*%
%ADD15RoundRect,0.250000X-0.375000X-0.625000X0.375000X-0.625000X0.375000X0.625000X-0.375000X0.625000X0*%
%TD*%
%TA.AperFunction,Conductor*%
%ADD16C,0.250000*%
%TD*%
G04 APERTURE END LIST*
D10*
%TO.P,Ue,1,1*%
%TO.N,/Ch2A*%
X174000000Y-88500000D03*
%TO.P,Ue,2,2*%
%TO.N,/Ch2*%
X181620000Y-88500000D03*
%TO.P,Ue,3,3*%
%TO.N,/R1*%
X191780000Y-88500000D03*
%TO.P,Ue,4,4*%
%TO.N,/GND*%
X191780000Y-96120000D03*
%TO.P,Ue,5,5*%
%TO.N,/Ch2B*%
X176540000Y-96120000D03*
%TD*%
D11*
%TO.P,J1,1,Pin_1*%
%TO.N,/Ch1*%
X169500000Y-120500000D03*
%TO.P,J1,2,Pin_2*%
%TO.N,/Ch1A*%
X173000001Y-120500000D03*
%TO.P,J1,3,Pin_3*%
%TO.N,/Ch1B*%
X176500001Y-120500000D03*
%TO.P,J1,4,Pin_4*%
%TO.N,/Ch2*%
X180000002Y-120500000D03*
%TD*%
D10*
%TO.P,U4,1,1*%
%TO.N,/Ch5A*%
X216000000Y-84500000D03*
%TO.P,U4,2,2*%
%TO.N,/Ch5*%
X223620000Y-84500000D03*
%TO.P,U4,3,3*%
%TO.N,/R4*%
X233780000Y-84500000D03*
%TO.P,U4,4,4*%
%TO.N,/GND*%
X233780000Y-92120000D03*
%TO.P,U4,5,5*%
%TO.N,/Ch5B*%
X218540000Y-92120000D03*
%TD*%
%TO.P,U5,5,5*%
%TO.N,/Ch3B*%
X203380000Y-74590000D03*
%TO.P,U5,4,4*%
%TO.N,/GND*%
X203380000Y-89830000D03*
%TO.P,U5,3,3*%
%TO.N,/R2*%
X211000000Y-89830000D03*
%TO.P,U5,2,2*%
%TO.N,/Ch3*%
X211000000Y-79670000D03*
%TO.P,U5,1,1*%
%TO.N,/Ch3A*%
X211000000Y-72050000D03*
%TD*%
D11*
%TO.P,J7,1,Pin_1*%
%TO.N,/Ch6A*%
X180000000Y-75500000D03*
%TO.P,J7,2,Pin_2*%
%TO.N,/Ch6B*%
X176499999Y-75500000D03*
%TO.P,J7,3,Pin_3*%
%TO.N,/VCC*%
X172999999Y-75500000D03*
%TO.P,J7,4,Pin_4*%
%TO.N,/GND*%
X169499998Y-75500000D03*
%TD*%
D10*
%TO.P,U2,1,1*%
%TO.N,/Ch4A*%
X174000000Y-100000000D03*
%TO.P,U2,2,2*%
%TO.N,/Ch4*%
X181620000Y-100000000D03*
%TO.P,U2,3,3*%
%TO.N,/R3*%
X191780000Y-100000000D03*
%TO.P,U2,4,4*%
%TO.N,/GND*%
X191780000Y-107620000D03*
%TO.P,U2,5,5*%
%TO.N,/Ch4B*%
X176540000Y-107620000D03*
%TD*%
%TO.P,U6,1,1*%
%TO.N,/Ch6A*%
X216000000Y-72000000D03*
%TO.P,U6,2,2*%
%TO.N,/Ch6*%
X223620000Y-72000000D03*
%TO.P,U6,3,3*%
%TO.N,/R5*%
X233780000Y-72000000D03*
%TO.P,U6,4,4*%
%TO.N,/GND*%
X233780000Y-79620000D03*
%TO.P,U6,5,5*%
%TO.N,/Ch6B*%
X218540000Y-79620000D03*
%TD*%
D12*
%TO.P,J6,1,Pin_1*%
%TO.N,unconnected-(J6-Pad1)*%
X239500000Y-84030000D03*
D13*
%TO.P,J6,2,Pin_2*%
%TO.N,/R3*%
X242040000Y-84030000D03*
%TO.P,J6,3,Pin_3*%
%TO.N,unconnected-(J6-Pad3)*%
X239500000Y-86570000D03*
%TO.P,J6,4,Pin_4*%
%TO.N,unconnected-(J6-Pad4)*%
X242040000Y-86570000D03*
%TO.P,J6,5,Pin_5*%
%TO.N,/GND*%
X239500000Y-89110000D03*
%TO.P,J6,6,Pin_6*%
%TO.N,unconnected-(J6-Pad6)*%
X242040000Y-89110000D03*
%TO.P,J6,7,Pin_7*%
%TO.N,unconnected-(J6-Pad7)*%
X239500000Y-91650000D03*
%TO.P,J6,8,Pin_8*%
%TO.N,unconnected-(J6-Pad8)*%
X242040000Y-91650000D03*
%TO.P,J6,9,Pin_9*%
%TO.N,unconnected-(J6-Pad9)*%
X239500000Y-94190000D03*
%TO.P,J6,10,Pin_10*%
%TO.N,/GND*%
X242040000Y-94190000D03*
%TO.P,J6,11,Pin_11*%
%TO.N,unconnected-(J6-Pad11)*%
X239500000Y-96730000D03*
%TO.P,J6,12,Pin_12*%
%TO.N,unconnected-(J6-Pad12)*%
X242040000Y-96730000D03*
%TO.P,J6,13,Pin_13*%
%TO.N,unconnected-(J6-Pad13)*%
X239500000Y-99270000D03*
%TO.P,J6,14,Pin_14*%
%TO.N,/GND*%
X242040000Y-99270000D03*
%TO.P,J6,15,Pin_15*%
%TO.N,unconnected-(J6-Pad15)*%
X239500000Y-101810000D03*
%TO.P,J6,16,Pin_16*%
%TO.N,unconnected-(J6-Pad16)*%
X242040000Y-101810000D03*
%TO.P,J6,17,Pin_17*%
%TO.N,/R4*%
X239500000Y-104350000D03*
%TO.P,J6,18,Pin_18*%
%TO.N,unconnected-(J6-Pad18)*%
X242040000Y-104350000D03*
%TO.P,J6,19,Pin_19*%
%TO.N,/GND*%
X239500000Y-106890000D03*
%TO.P,J6,20,Pin_20*%
%TO.N,unconnected-(J6-Pad20)*%
X242040000Y-106890000D03*
%TO.P,J6,21,Pin_21*%
%TO.N,unconnected-(J6-Pad21)*%
X239500000Y-109430000D03*
%TO.P,J6,22,Pin_22*%
%TO.N,/Reset*%
X242040000Y-109430000D03*
%TO.P,J6,23,Pin_23*%
%TO.N,/VCC*%
X239500000Y-111970000D03*
%TO.P,J6,24,Pin_24*%
X242040000Y-111970000D03*
%TD*%
D11*
%TO.P,J,1,Pin_1*%
%TO.N,/Ch3B*%
X203000000Y-120500000D03*
%TO.P,J,2,Pin_2*%
%TO.N,/Ch4*%
X206500001Y-120500000D03*
%TO.P,J,3,Pin_3*%
%TO.N,/Ch4A*%
X210000001Y-120500000D03*
%TO.P,J,4,Pin_4*%
%TO.N,/Ch4B*%
X213500002Y-120500000D03*
%TD*%
D14*
%TO.P,R1,1*%
%TO.N,/VCC*%
X229225000Y-123500000D03*
%TO.P,R1,2*%
%TO.N,Net-(D1-Pad2)*%
X230875000Y-123500000D03*
%TD*%
D11*
%TO.P,J2,1,Pin_1*%
%TO.N,/Ch2A*%
X186250000Y-120500000D03*
%TO.P,J2,2,Pin_2*%
%TO.N,/Ch2B*%
X189750001Y-120500000D03*
%TO.P,J2,3,Pin_3*%
%TO.N,/Ch3*%
X193250001Y-120500000D03*
%TO.P,J2,4,Pin_4*%
%TO.N,/Ch3A*%
X196750002Y-120500000D03*
%TD*%
%TO.P,J4,1,Pin_1*%
%TO.N,/Ch5*%
X196750000Y-75500000D03*
%TO.P,J4,2,Pin_2*%
%TO.N,/Ch5A*%
X193249999Y-75500000D03*
%TO.P,J4,3,Pin_3*%
%TO.N,/Ch5B*%
X189749999Y-75500000D03*
%TO.P,J4,4,Pin_4*%
%TO.N,/Ch6*%
X186249998Y-75500000D03*
%TD*%
D12*
%TO.P,J5,1,Pin_1*%
%TO.N,unconnected-(J5-Pad1)*%
X163000000Y-86570000D03*
D13*
%TO.P,J5,2,Pin_2*%
%TO.N,unconnected-(J5-Pad2)*%
X165540000Y-86570000D03*
%TO.P,J5,3,Pin_3*%
%TO.N,unconnected-(J5-Pad3)*%
X163000000Y-89110000D03*
%TO.P,J5,4,Pin_4*%
%TO.N,unconnected-(J5-Pad4)*%
X165540000Y-89110000D03*
%TO.P,J5,5,Pin_5*%
%TO.N,unconnected-(J5-Pad5)*%
X163000000Y-91650000D03*
%TO.P,J5,6,Pin_6*%
%TO.N,/GND*%
X165540000Y-91650000D03*
%TO.P,J5,7,Pin_7*%
%TO.N,unconnected-(J5-Pad7)*%
X163000000Y-94190000D03*
%TO.P,J5,8,Pin_8*%
%TO.N,unconnected-(J5-Pad8)*%
X165540000Y-94190000D03*
%TO.P,J5,9,Pin_9*%
%TO.N,/GND*%
X163000000Y-96730000D03*
%TO.P,J5,10,Pin_10*%
%TO.N,unconnected-(J5-Pad10)*%
X165540000Y-96730000D03*
%TO.P,J5,11,Pin_11*%
%TO.N,unconnected-(J5-Pad11)*%
X163000000Y-99270000D03*
%TO.P,J5,12,Pin_12*%
%TO.N,unconnected-(J5-Pad12)*%
X165540000Y-99270000D03*
%TO.P,J5,13,Pin_13*%
%TO.N,/R5*%
X163000000Y-101810000D03*
%TO.P,J5,14,Pin_14*%
%TO.N,/GND*%
X165540000Y-101810000D03*
%TO.P,J5,15,Pin_15*%
%TO.N,/R0*%
X163000000Y-104350000D03*
%TO.P,J5,16,Pin_16*%
%TO.N,/R1*%
X165540000Y-104350000D03*
%TO.P,J5,17,Pin_17*%
%TO.N,unconnected-(J5-Pad17)*%
X163000000Y-106890000D03*
%TO.P,J5,18,Pin_18*%
%TO.N,/R2*%
X165540000Y-106890000D03*
%TO.P,J5,19,Pin_19*%
%TO.N,unconnected-(J5-Pad19)*%
X163000000Y-109430000D03*
%TO.P,J5,20,Pin_20*%
%TO.N,/GND*%
X165540000Y-109430000D03*
%TD*%
D10*
%TO.P,U1,1,1*%
%TO.N,/Ch1A*%
X216000000Y-97000000D03*
%TO.P,U1,2,2*%
%TO.N,/Ch1*%
X223620000Y-97000000D03*
%TO.P,U1,3,3*%
%TO.N,/R0*%
X233780000Y-97000000D03*
%TO.P,U1,4,4*%
%TO.N,/GND*%
X233780000Y-104620000D03*
%TO.P,U1,5,5*%
%TO.N,/Ch1B*%
X218540000Y-104620000D03*
%TD*%
D15*
%TO.P,D1,1,K*%
%TO.N,/GND*%
X233600000Y-123500000D03*
%TO.P,D1,2,A*%
%TO.N,Net-(D1-Pad2)*%
X236400000Y-123500000D03*
%TD*%
D16*
%TO.N,/Ch6B*%
X177592900Y-76592900D02*
X176500000Y-75500000D01*
X190581900Y-76592900D02*
X177592900Y-76592900D01*
X192754400Y-74420400D02*
X190581900Y-76592900D01*
X198973200Y-74420400D02*
X192754400Y-74420400D01*
X201751600Y-77198800D02*
X198973200Y-74420400D01*
X216118800Y-77198800D02*
X201751600Y-77198800D01*
X218540000Y-79620000D02*
X216118800Y-77198800D01*
%TO.N,/Ch6A*%
X184568400Y-70931600D02*
X180000000Y-75500000D01*
X214931600Y-70931600D02*
X184568400Y-70931600D01*
X216000000Y-72000000D02*
X214931600Y-70931600D01*
%TO.N,/VCC*%
X229225000Y-123420300D02*
X239500000Y-113145300D01*
X229225000Y-123500000D02*
X229225000Y-123420300D01*
X239500000Y-111970000D02*
X239500000Y-112557600D01*
X239500000Y-112557600D02*
X239500000Y-113145300D01*
X240277100Y-112557600D02*
X240864700Y-111970000D01*
X239500000Y-112557600D02*
X240277100Y-112557600D01*
X242040000Y-111970000D02*
X240864700Y-111970000D01*
%TO.N,/R3*%
X197812300Y-93967700D02*
X191780000Y-100000000D01*
X226812400Y-93967700D02*
X197812300Y-93967700D01*
X235574800Y-85205300D02*
X226812400Y-93967700D01*
X240497500Y-85205300D02*
X235574800Y-85205300D01*
X240864700Y-84838100D02*
X240497500Y-85205300D01*
X240864700Y-84030000D02*
X240864700Y-84838100D01*
X242040000Y-84030000D02*
X240864700Y-84030000D01*
%TO.N,/R2*%
X208862500Y-91967500D02*
X211000000Y-89830000D01*
X197505700Y-91967500D02*
X208862500Y-91967500D01*
X183758500Y-105714700D02*
X197505700Y-91967500D01*
X167890600Y-105714700D02*
X183758500Y-105714700D01*
X166715300Y-106890000D02*
X167890600Y-105714700D01*
X165540000Y-106890000D02*
X166715300Y-106890000D01*
%TO.N,/R1*%
X188762900Y-91517100D02*
X191780000Y-88500000D01*
X179548200Y-91517100D02*
X188762900Y-91517100D01*
X166715300Y-104350000D02*
X179548200Y-91517100D01*
X165540000Y-104350000D02*
X166715300Y-104350000D01*
%TO.N,/R0*%
X163367400Y-105525300D02*
X163000000Y-105525300D01*
X164175300Y-106333200D02*
X163367400Y-105525300D01*
X164175300Y-107226300D02*
X164175300Y-106333200D01*
X165014400Y-108065400D02*
X164175300Y-107226300D01*
X166264800Y-108065400D02*
X165014400Y-108065400D01*
X168165100Y-106165100D02*
X166264800Y-108065400D01*
X185546800Y-106165100D02*
X168165100Y-106165100D01*
X190250400Y-101461500D02*
X185546800Y-106165100D01*
X205657800Y-101461500D02*
X190250400Y-101461500D01*
X211219800Y-95899500D02*
X205657800Y-101461500D01*
X232679500Y-95899500D02*
X211219800Y-95899500D01*
X233780000Y-97000000D02*
X232679500Y-95899500D01*
X163000000Y-104350000D02*
X163000000Y-105525300D01*
%TO.N,/R5*%
X233780000Y-75915400D02*
X233780000Y-72000000D01*
X224075700Y-85619700D02*
X233780000Y-75915400D01*
X182591000Y-85619700D02*
X224075700Y-85619700D01*
X167576000Y-100634700D02*
X182591000Y-85619700D01*
X164983200Y-100634700D02*
X167576000Y-100634700D01*
X164175300Y-101442600D02*
X164983200Y-100634700D01*
X164175300Y-101810000D02*
X164175300Y-101442600D01*
X163000000Y-101810000D02*
X164175300Y-101810000D01*
%TO.N,/Ch6*%
X222180200Y-73439800D02*
X223620000Y-72000000D01*
X188310200Y-73439800D02*
X222180200Y-73439800D01*
X186250000Y-75500000D02*
X188310200Y-73439800D01*
%TO.N,/Ch5A*%
X202250000Y-84500000D02*
X216000000Y-84500000D01*
X193250000Y-75500000D02*
X202250000Y-84500000D01*
%TO.N,/Ch5*%
X222205700Y-83085700D02*
X223620000Y-84500000D01*
X204335700Y-83085700D02*
X222205700Y-83085700D01*
X196750000Y-75500000D02*
X204335700Y-83085700D01*
%TO.N,/Ch1B*%
X192380000Y-104620000D02*
X176500000Y-120500000D01*
X218540000Y-104620000D02*
X192380000Y-104620000D01*
%TO.N,/Ch1A*%
X190714300Y-102785700D02*
X173000000Y-120500000D01*
X210214300Y-102785700D02*
X190714300Y-102785700D01*
X216000000Y-97000000D02*
X210214300Y-102785700D01*
%TO.N,/Ch1*%
X170619000Y-121619000D02*
X169500000Y-120500000D01*
X176913000Y-121619000D02*
X170619000Y-121619000D01*
X179374100Y-119157900D02*
X176913000Y-121619000D01*
X205569500Y-119157900D02*
X179374100Y-119157900D01*
X223620000Y-101107400D02*
X205569500Y-119157900D01*
X223620000Y-97000000D02*
X223620000Y-101107400D01*
%TO.N,Net-(D1-Pad2)*%
X232107600Y-124732600D02*
X230875000Y-123500000D01*
X235167400Y-124732600D02*
X232107600Y-124732600D01*
X236400000Y-123500000D02*
X235167400Y-124732600D01*
%TD*%
%TA.AperFunction,Conductor*%
%TO.N,/GND*%
G36*
X241470018Y-70510000D02*
G01*
X241484851Y-70512310D01*
X241484855Y-70512310D01*
X241493724Y-70513691D01*
X241512436Y-70511244D01*
X241535366Y-70510353D01*
X241806103Y-70524542D01*
X241819209Y-70525919D01*
X242034134Y-70559960D01*
X242115445Y-70572838D01*
X242128345Y-70575580D01*
X242273196Y-70614393D01*
X242418052Y-70653207D01*
X242430586Y-70657279D01*
X242705851Y-70762944D01*
X242710587Y-70764762D01*
X242722635Y-70770126D01*
X242989870Y-70906289D01*
X243001286Y-70912880D01*
X243252832Y-71076236D01*
X243263495Y-71083984D01*
X243496573Y-71272727D01*
X243506374Y-71281552D01*
X243718448Y-71493626D01*
X243727273Y-71503427D01*
X243910033Y-71729116D01*
X243916016Y-71736505D01*
X243923764Y-71747168D01*
X243975168Y-71826323D01*
X244087117Y-71998709D01*
X244093711Y-72010130D01*
X244229874Y-72277365D01*
X244235237Y-72289412D01*
X244274845Y-72392591D01*
X244342719Y-72569409D01*
X244346793Y-72581948D01*
X244362098Y-72639064D01*
X244424420Y-72871655D01*
X244427162Y-72884555D01*
X244463745Y-73115529D01*
X244474080Y-73180785D01*
X244475458Y-73193902D01*
X244489262Y-73457299D01*
X244487935Y-73483276D01*
X244487691Y-73484846D01*
X244487691Y-73484850D01*
X244486309Y-73493724D01*
X244487473Y-73502626D01*
X244487473Y-73502628D01*
X244490436Y-73525283D01*
X244491500Y-73541621D01*
X244491500Y-122450633D01*
X244490000Y-122470018D01*
X244487690Y-122484851D01*
X244487690Y-122484855D01*
X244486309Y-122493724D01*
X244488135Y-122507683D01*
X244488756Y-122512433D01*
X244489647Y-122535366D01*
X244476866Y-122779243D01*
X244475458Y-122806099D01*
X244474081Y-122819209D01*
X244465996Y-122870253D01*
X244427162Y-123115445D01*
X244424420Y-123128345D01*
X244346795Y-123418047D01*
X244342721Y-123430586D01*
X244235238Y-123710587D01*
X244229874Y-123722635D01*
X244214134Y-123753526D01*
X244093711Y-123989870D01*
X244087120Y-124001286D01*
X243923764Y-124252832D01*
X243916018Y-124263492D01*
X243783010Y-124427744D01*
X243727273Y-124496573D01*
X243718448Y-124506374D01*
X243506374Y-124718448D01*
X243496573Y-124727273D01*
X243304047Y-124883178D01*
X243263495Y-124916016D01*
X243252832Y-124923764D01*
X243001286Y-125087120D01*
X242989870Y-125093711D01*
X242722635Y-125229874D01*
X242710588Y-125235237D01*
X242430586Y-125342721D01*
X242418052Y-125346793D01*
X242350668Y-125364849D01*
X242128345Y-125424420D01*
X242115445Y-125427162D01*
X242034134Y-125440040D01*
X241819209Y-125474081D01*
X241806101Y-125475458D01*
X241730937Y-125479397D01*
X241542701Y-125489262D01*
X241516724Y-125487935D01*
X241515154Y-125487691D01*
X241515150Y-125487691D01*
X241506276Y-125486309D01*
X241497374Y-125487473D01*
X241497372Y-125487473D01*
X241482323Y-125489441D01*
X241474714Y-125490436D01*
X241458379Y-125491500D01*
X235589245Y-125491500D01*
X235521124Y-125471498D01*
X235474631Y-125417842D01*
X235464527Y-125347568D01*
X235494021Y-125282988D01*
X235525105Y-125257047D01*
X235551935Y-125241180D01*
X235551938Y-125241178D01*
X235558762Y-125237142D01*
X235573083Y-125222821D01*
X235588117Y-125209980D01*
X235589831Y-125208735D01*
X235604507Y-125198072D01*
X235632698Y-125163995D01*
X235640688Y-125155216D01*
X235875985Y-124919919D01*
X235938297Y-124885893D01*
X235971478Y-124883180D01*
X235974600Y-124883500D01*
X236825400Y-124883500D01*
X236828646Y-124883163D01*
X236828650Y-124883163D01*
X236924308Y-124873238D01*
X236924312Y-124873237D01*
X236931166Y-124872526D01*
X236937702Y-124870345D01*
X236937704Y-124870345D01*
X237091998Y-124818868D01*
X237098946Y-124816550D01*
X237249348Y-124723478D01*
X237374305Y-124598303D01*
X237467115Y-124447738D01*
X237522797Y-124279861D01*
X237533500Y-124175400D01*
X237533500Y-122824600D01*
X237532265Y-122812697D01*
X237523238Y-122725692D01*
X237523237Y-122725688D01*
X237522526Y-122718834D01*
X237466550Y-122551054D01*
X237373478Y-122400652D01*
X237248303Y-122275695D01*
X237217121Y-122256474D01*
X237103968Y-122186725D01*
X237103966Y-122186724D01*
X237097738Y-122182885D01*
X237017282Y-122156199D01*
X236936389Y-122129368D01*
X236936387Y-122129368D01*
X236929861Y-122127203D01*
X236923025Y-122126503D01*
X236923022Y-122126502D01*
X236879969Y-122122091D01*
X236825400Y-122116500D01*
X235974600Y-122116500D01*
X235971354Y-122116837D01*
X235971350Y-122116837D01*
X235875692Y-122126762D01*
X235875688Y-122126763D01*
X235868834Y-122127474D01*
X235862298Y-122129655D01*
X235862296Y-122129655D01*
X235793630Y-122152564D01*
X235701054Y-122183450D01*
X235550652Y-122276522D01*
X235425695Y-122401697D01*
X235421855Y-122407927D01*
X235421854Y-122407928D01*
X235343299Y-122535368D01*
X235332885Y-122552262D01*
X235277203Y-122720139D01*
X235266500Y-122824600D01*
X235266500Y-123685405D01*
X235246498Y-123753526D01*
X235229595Y-123774500D01*
X234948095Y-124056000D01*
X234885783Y-124090026D01*
X234814968Y-124084961D01*
X234758132Y-124042414D01*
X234733321Y-123975894D01*
X234733000Y-123966905D01*
X234733000Y-123772115D01*
X234728525Y-123756876D01*
X234727135Y-123755671D01*
X234719452Y-123754000D01*
X232485116Y-123754000D01*
X232469877Y-123758475D01*
X232468672Y-123759865D01*
X232467001Y-123767548D01*
X232467001Y-123891906D01*
X232446999Y-123960027D01*
X232393343Y-124006520D01*
X232323069Y-124016624D01*
X232258489Y-123987130D01*
X232251905Y-123981001D01*
X232045405Y-123774500D01*
X231820404Y-123549499D01*
X231786379Y-123487187D01*
X231783500Y-123460404D01*
X231783499Y-123227885D01*
X232467000Y-123227885D01*
X232471475Y-123243124D01*
X232472865Y-123244329D01*
X232480548Y-123246000D01*
X233327885Y-123246000D01*
X233343124Y-123241525D01*
X233344329Y-123240135D01*
X233346000Y-123232452D01*
X233346000Y-123227885D01*
X233854000Y-123227885D01*
X233858475Y-123243124D01*
X233859865Y-123244329D01*
X233867548Y-123246000D01*
X234714884Y-123246000D01*
X234730123Y-123241525D01*
X234731328Y-123240135D01*
X234732999Y-123232452D01*
X234732999Y-122827905D01*
X234732662Y-122821386D01*
X234722743Y-122725794D01*
X234719851Y-122712400D01*
X234668412Y-122558216D01*
X234662239Y-122545038D01*
X234576937Y-122407193D01*
X234567901Y-122395792D01*
X234453171Y-122281261D01*
X234441760Y-122272249D01*
X234303757Y-122187184D01*
X234290576Y-122181037D01*
X234136290Y-122129862D01*
X234122914Y-122126995D01*
X234028562Y-122117328D01*
X234022145Y-122117000D01*
X233872115Y-122117000D01*
X233856876Y-122121475D01*
X233855671Y-122122865D01*
X233854000Y-122130548D01*
X233854000Y-123227885D01*
X233346000Y-123227885D01*
X233346000Y-122135116D01*
X233341525Y-122119877D01*
X233340135Y-122118672D01*
X233332452Y-122117001D01*
X233177905Y-122117001D01*
X233171386Y-122117338D01*
X233075794Y-122127257D01*
X233062400Y-122130149D01*
X232908216Y-122181588D01*
X232895038Y-122187761D01*
X232757193Y-122273063D01*
X232745792Y-122282099D01*
X232631261Y-122396829D01*
X232622249Y-122408240D01*
X232537184Y-122546243D01*
X232531037Y-122559424D01*
X232479862Y-122713710D01*
X232476995Y-122727086D01*
X232467328Y-122821438D01*
X232467000Y-122827855D01*
X232467000Y-123227885D01*
X231783499Y-123227885D01*
X231783499Y-123171249D01*
X231783499Y-123168366D01*
X231783234Y-123165474D01*
X231777364Y-123101592D01*
X231776753Y-123094938D01*
X231725472Y-122931301D01*
X231636639Y-122784619D01*
X231515381Y-122663361D01*
X231368699Y-122574528D01*
X231361452Y-122572257D01*
X231361450Y-122572256D01*
X231261131Y-122540818D01*
X231202109Y-122501360D01*
X231173789Y-122436257D01*
X231185162Y-122366177D01*
X231209715Y-122331489D01*
X239892247Y-113648957D01*
X239900537Y-113641413D01*
X239907018Y-113637300D01*
X239953659Y-113587632D01*
X239956413Y-113584791D01*
X239976134Y-113565070D01*
X239978612Y-113561875D01*
X239986318Y-113552853D01*
X240011158Y-113526401D01*
X240016586Y-113520621D01*
X240026346Y-113502868D01*
X240037199Y-113486345D01*
X240044753Y-113476606D01*
X240049613Y-113470341D01*
X240067176Y-113429757D01*
X240072383Y-113419127D01*
X240093695Y-113380360D01*
X240095666Y-113372683D01*
X240095668Y-113372678D01*
X240098732Y-113360742D01*
X240105138Y-113342030D01*
X240110034Y-113330717D01*
X240113181Y-113323445D01*
X240117071Y-113298884D01*
X240147483Y-113234731D01*
X240207751Y-113197204D01*
X240237561Y-113192656D01*
X240285086Y-113191162D01*
X240289045Y-113191100D01*
X240316956Y-113191100D01*
X240320891Y-113190603D01*
X240320956Y-113190595D01*
X240332793Y-113189662D01*
X240365051Y-113188648D01*
X240369070Y-113188522D01*
X240376989Y-113188273D01*
X240396443Y-113182621D01*
X240415800Y-113178613D01*
X240428030Y-113177068D01*
X240428031Y-113177068D01*
X240435897Y-113176074D01*
X240443268Y-113173155D01*
X240443270Y-113173155D01*
X240477012Y-113159796D01*
X240488242Y-113155951D01*
X240523083Y-113145829D01*
X240523084Y-113145829D01*
X240530693Y-113143618D01*
X240537512Y-113139585D01*
X240537517Y-113139583D01*
X240548128Y-113133307D01*
X240565876Y-113124612D01*
X240584717Y-113117152D01*
X240620487Y-113091164D01*
X240630407Y-113084648D01*
X240661635Y-113066180D01*
X240661638Y-113066178D01*
X240668462Y-113062142D01*
X240682783Y-113047821D01*
X240697817Y-113034980D01*
X240707793Y-113027732D01*
X240714207Y-113023072D01*
X240742393Y-112989001D01*
X240750382Y-112980222D01*
X240851485Y-112879119D01*
X240913797Y-112845093D01*
X240984612Y-112850158D01*
X241035815Y-112885715D01*
X241086250Y-112943938D01*
X241258126Y-113086632D01*
X241451000Y-113199338D01*
X241659692Y-113279030D01*
X241664760Y-113280061D01*
X241664763Y-113280062D01*
X241757277Y-113298884D01*
X241878597Y-113323567D01*
X241883772Y-113323757D01*
X241883774Y-113323757D01*
X242096673Y-113331564D01*
X242096677Y-113331564D01*
X242101837Y-113331753D01*
X242106957Y-113331097D01*
X242106959Y-113331097D01*
X242318288Y-113304025D01*
X242318289Y-113304025D01*
X242323416Y-113303368D01*
X242338362Y-113298884D01*
X242532429Y-113240661D01*
X242532434Y-113240659D01*
X242537384Y-113239174D01*
X242737994Y-113140896D01*
X242919860Y-113011173D01*
X242950920Y-112980222D01*
X243074435Y-112857137D01*
X243078096Y-112853489D01*
X243137594Y-112770689D01*
X243205435Y-112676277D01*
X243208453Y-112672077D01*
X243307430Y-112471811D01*
X243372370Y-112258069D01*
X243401529Y-112036590D01*
X243403156Y-111970000D01*
X243384852Y-111747361D01*
X243330431Y-111530702D01*
X243241354Y-111325840D01*
X243120014Y-111138277D01*
X242969670Y-110973051D01*
X242965619Y-110969852D01*
X242965615Y-110969848D01*
X242798414Y-110837800D01*
X242798410Y-110837798D01*
X242794359Y-110834598D01*
X242753053Y-110811796D01*
X242703084Y-110761364D01*
X242688312Y-110691921D01*
X242713428Y-110625516D01*
X242740780Y-110598909D01*
X242784603Y-110567650D01*
X242919860Y-110471173D01*
X243078096Y-110313489D01*
X243137594Y-110230689D01*
X243205435Y-110136277D01*
X243208453Y-110132077D01*
X243221995Y-110104678D01*
X243305136Y-109936453D01*
X243305137Y-109936451D01*
X243307430Y-109931811D01*
X243372370Y-109718069D01*
X243401529Y-109496590D01*
X243403156Y-109430000D01*
X243384852Y-109207361D01*
X243330431Y-108990702D01*
X243241354Y-108785840D01*
X243201906Y-108724862D01*
X243122822Y-108602617D01*
X243122820Y-108602614D01*
X243120014Y-108598277D01*
X242969670Y-108433051D01*
X242965619Y-108429852D01*
X242965615Y-108429848D01*
X242798414Y-108297800D01*
X242798410Y-108297798D01*
X242794359Y-108294598D01*
X242753053Y-108271796D01*
X242703084Y-108221364D01*
X242688312Y-108151921D01*
X242713428Y-108085516D01*
X242740780Y-108058909D01*
X242784603Y-108027650D01*
X242919860Y-107931173D01*
X242972156Y-107879060D01*
X243074435Y-107777137D01*
X243078096Y-107773489D01*
X243137594Y-107690689D01*
X243205435Y-107596277D01*
X243208453Y-107592077D01*
X243212927Y-107583026D01*
X243305136Y-107396453D01*
X243305137Y-107396451D01*
X243307430Y-107391811D01*
X243372370Y-107178069D01*
X243401529Y-106956590D01*
X243401611Y-106953240D01*
X243403074Y-106893365D01*
X243403074Y-106893361D01*
X243403156Y-106890000D01*
X243384852Y-106667361D01*
X243330431Y-106450702D01*
X243241354Y-106245840D01*
X243201528Y-106184278D01*
X243122822Y-106062617D01*
X243122820Y-106062614D01*
X243120014Y-106058277D01*
X242969670Y-105893051D01*
X242965619Y-105889852D01*
X242965615Y-105889848D01*
X242798414Y-105757800D01*
X242798410Y-105757798D01*
X242794359Y-105754598D01*
X242753053Y-105731796D01*
X242703084Y-105681364D01*
X242688312Y-105611921D01*
X242713428Y-105545516D01*
X242740780Y-105518909D01*
X242784603Y-105487650D01*
X242919860Y-105391173D01*
X242995106Y-105316190D01*
X243043158Y-105268305D01*
X243078096Y-105233489D01*
X243137594Y-105150689D01*
X243205435Y-105056277D01*
X243208453Y-105052077D01*
X243229320Y-105009857D01*
X243305136Y-104856453D01*
X243305137Y-104856451D01*
X243307430Y-104851811D01*
X243372370Y-104638069D01*
X243401529Y-104416590D01*
X243403156Y-104350000D01*
X243384852Y-104127361D01*
X243330431Y-103910702D01*
X243241354Y-103705840D01*
X243120014Y-103518277D01*
X242969670Y-103353051D01*
X242965619Y-103349852D01*
X242965615Y-103349848D01*
X242798414Y-103217800D01*
X242798410Y-103217798D01*
X242794359Y-103214598D01*
X242753053Y-103191796D01*
X242703084Y-103141364D01*
X242688312Y-103071921D01*
X242713428Y-103005516D01*
X242740780Y-102978909D01*
X242784603Y-102947650D01*
X242919860Y-102851173D01*
X243078096Y-102693489D01*
X243137594Y-102610689D01*
X243205435Y-102516277D01*
X243208453Y-102512077D01*
X243221995Y-102484678D01*
X243305136Y-102316453D01*
X243305137Y-102316451D01*
X243307430Y-102311811D01*
X243351358Y-102167226D01*
X243370865Y-102103023D01*
X243370865Y-102103021D01*
X243372370Y-102098069D01*
X243401529Y-101876590D01*
X243401693Y-101869883D01*
X243403074Y-101813365D01*
X243403074Y-101813361D01*
X243403156Y-101810000D01*
X243384852Y-101587361D01*
X243330431Y-101370702D01*
X243241354Y-101165840D01*
X243188046Y-101083439D01*
X243122822Y-100982617D01*
X243122820Y-100982614D01*
X243120014Y-100978277D01*
X242969670Y-100813051D01*
X242965619Y-100809852D01*
X242965615Y-100809848D01*
X242798414Y-100677800D01*
X242798410Y-100677798D01*
X242794359Y-100674598D01*
X242752569Y-100651529D01*
X242702598Y-100601097D01*
X242687826Y-100531654D01*
X242712942Y-100465248D01*
X242740294Y-100438641D01*
X242915328Y-100313792D01*
X242923200Y-100307139D01*
X243074052Y-100156812D01*
X243080730Y-100148965D01*
X243205003Y-99976020D01*
X243210313Y-99967183D01*
X243304670Y-99776267D01*
X243308469Y-99766672D01*
X243370377Y-99562910D01*
X243372555Y-99552837D01*
X243373986Y-99541962D01*
X243371775Y-99527778D01*
X243358617Y-99524000D01*
X241912000Y-99524000D01*
X241843879Y-99503998D01*
X241797386Y-99450342D01*
X241786000Y-99398000D01*
X241786000Y-99142000D01*
X241806002Y-99073879D01*
X241859658Y-99027386D01*
X241912000Y-99016000D01*
X243358344Y-99016000D01*
X243371875Y-99012027D01*
X243373180Y-99002947D01*
X243331214Y-98835875D01*
X243327894Y-98826124D01*
X243242972Y-98630814D01*
X243238105Y-98621739D01*
X243122426Y-98442926D01*
X243116136Y-98434757D01*
X242972806Y-98277240D01*
X242965273Y-98270215D01*
X242798139Y-98138222D01*
X242789556Y-98132520D01*
X242752602Y-98112120D01*
X242702631Y-98061687D01*
X242687859Y-97992245D01*
X242712975Y-97925839D01*
X242740327Y-97899232D01*
X242763797Y-97882491D01*
X242919860Y-97771173D01*
X243078096Y-97613489D01*
X243137594Y-97530689D01*
X243205435Y-97436277D01*
X243208453Y-97432077D01*
X243221995Y-97404678D01*
X243305136Y-97236453D01*
X243305137Y-97236451D01*
X243307430Y-97231811D01*
X243372370Y-97018069D01*
X243401529Y-96796590D01*
X243402324Y-96764051D01*
X243403074Y-96733365D01*
X243403074Y-96733361D01*
X243403156Y-96730000D01*
X243384852Y-96507361D01*
X243330431Y-96290702D01*
X243241354Y-96085840D01*
X243120014Y-95898277D01*
X242969670Y-95733051D01*
X242965619Y-95729852D01*
X242965615Y-95729848D01*
X242798414Y-95597800D01*
X242798410Y-95597798D01*
X242794359Y-95594598D01*
X242752569Y-95571529D01*
X242702598Y-95521097D01*
X242687826Y-95451654D01*
X242712942Y-95385248D01*
X242740294Y-95358641D01*
X242915328Y-95233792D01*
X242923200Y-95227139D01*
X243074052Y-95076812D01*
X243080730Y-95068965D01*
X243205003Y-94896020D01*
X243210313Y-94887183D01*
X243304670Y-94696267D01*
X243308469Y-94686672D01*
X243370377Y-94482910D01*
X243372555Y-94472837D01*
X243373986Y-94461962D01*
X243371775Y-94447778D01*
X243358617Y-94444000D01*
X241912000Y-94444000D01*
X241843879Y-94423998D01*
X241797386Y-94370342D01*
X241786000Y-94318000D01*
X241786000Y-94062000D01*
X241806002Y-93993879D01*
X241859658Y-93947386D01*
X241912000Y-93936000D01*
X243358344Y-93936000D01*
X243371875Y-93932027D01*
X243373180Y-93922947D01*
X243331214Y-93755875D01*
X243327894Y-93746124D01*
X243242972Y-93550814D01*
X243238105Y-93541739D01*
X243122426Y-93362926D01*
X243116136Y-93354757D01*
X242972806Y-93197240D01*
X242965273Y-93190215D01*
X242798139Y-93058222D01*
X242789556Y-93052520D01*
X242752602Y-93032120D01*
X242702631Y-92981687D01*
X242687859Y-92912245D01*
X242712975Y-92845839D01*
X242740327Y-92819232D01*
X242763797Y-92802491D01*
X242919860Y-92691173D01*
X242973315Y-92637905D01*
X243068344Y-92543207D01*
X243078096Y-92533489D01*
X243082722Y-92527052D01*
X243205435Y-92356277D01*
X243208453Y-92352077D01*
X243215357Y-92338109D01*
X243305136Y-92156453D01*
X243305137Y-92156451D01*
X243307430Y-92151811D01*
X243345752Y-92025680D01*
X243370865Y-91943023D01*
X243370865Y-91943021D01*
X243372370Y-91938069D01*
X243401529Y-91716590D01*
X243402554Y-91674633D01*
X243403074Y-91653365D01*
X243403074Y-91653361D01*
X243403156Y-91650000D01*
X243384852Y-91427361D01*
X243330431Y-91210702D01*
X243241354Y-91005840D01*
X243170351Y-90896086D01*
X243122822Y-90822617D01*
X243122820Y-90822614D01*
X243120014Y-90818277D01*
X242969670Y-90653051D01*
X242965619Y-90649852D01*
X242965615Y-90649848D01*
X242798414Y-90517800D01*
X242798410Y-90517798D01*
X242794359Y-90514598D01*
X242753053Y-90491796D01*
X242703084Y-90441364D01*
X242688312Y-90371921D01*
X242713428Y-90305516D01*
X242740780Y-90278909D01*
X242784603Y-90247650D01*
X242919860Y-90151173D01*
X243078096Y-89993489D01*
X243137594Y-89910689D01*
X243205435Y-89816277D01*
X243208453Y-89812077D01*
X243220108Y-89788496D01*
X243305136Y-89616453D01*
X243305137Y-89616451D01*
X243307430Y-89611811D01*
X243372370Y-89398069D01*
X243401529Y-89176590D01*
X243402522Y-89135954D01*
X243403074Y-89113365D01*
X243403074Y-89113361D01*
X243403156Y-89110000D01*
X243384852Y-88887361D01*
X243330431Y-88670702D01*
X243241354Y-88465840D01*
X243120014Y-88278277D01*
X242969670Y-88113051D01*
X242965619Y-88109852D01*
X242965615Y-88109848D01*
X242798414Y-87977800D01*
X242798410Y-87977798D01*
X242794359Y-87974598D01*
X242753053Y-87951796D01*
X242703084Y-87901364D01*
X242688312Y-87831921D01*
X242713428Y-87765516D01*
X242740780Y-87738909D01*
X242784603Y-87707650D01*
X242919860Y-87611173D01*
X243078096Y-87453489D01*
X243137594Y-87370689D01*
X243205435Y-87276277D01*
X243208453Y-87272077D01*
X243228761Y-87230988D01*
X243305136Y-87076453D01*
X243305137Y-87076451D01*
X243307430Y-87071811D01*
X243372370Y-86858069D01*
X243401529Y-86636590D01*
X243403156Y-86570000D01*
X243384852Y-86347361D01*
X243330431Y-86130702D01*
X243241354Y-85925840D01*
X243152247Y-85788102D01*
X243122822Y-85742617D01*
X243122820Y-85742614D01*
X243120014Y-85738277D01*
X242969670Y-85573051D01*
X242965619Y-85569852D01*
X242965615Y-85569848D01*
X242798414Y-85437800D01*
X242798410Y-85437798D01*
X242794359Y-85434598D01*
X242753053Y-85411796D01*
X242703084Y-85361364D01*
X242688312Y-85291921D01*
X242713428Y-85225516D01*
X242740780Y-85198909D01*
X242794860Y-85160334D01*
X242919860Y-85071173D01*
X242926247Y-85064809D01*
X243074435Y-84917137D01*
X243078096Y-84913489D01*
X243208453Y-84732077D01*
X243213388Y-84722093D01*
X243305136Y-84536453D01*
X243305137Y-84536451D01*
X243307430Y-84531811D01*
X243372370Y-84318069D01*
X243401529Y-84096590D01*
X243402437Y-84059443D01*
X243403074Y-84033365D01*
X243403074Y-84033361D01*
X243403156Y-84030000D01*
X243384852Y-83807361D01*
X243330431Y-83590702D01*
X243241354Y-83385840D01*
X243149669Y-83244116D01*
X243122822Y-83202617D01*
X243122820Y-83202614D01*
X243120014Y-83198277D01*
X242969670Y-83033051D01*
X242965619Y-83029852D01*
X242965615Y-83029848D01*
X242798414Y-82897800D01*
X242798410Y-82897798D01*
X242794359Y-82894598D01*
X242598789Y-82786638D01*
X242593920Y-82784914D01*
X242593916Y-82784912D01*
X242393087Y-82713795D01*
X242393083Y-82713794D01*
X242388212Y-82712069D01*
X242383119Y-82711162D01*
X242383116Y-82711161D01*
X242173373Y-82673800D01*
X242173367Y-82673799D01*
X242168284Y-82672894D01*
X242094452Y-82671992D01*
X241950081Y-82670228D01*
X241950079Y-82670228D01*
X241944911Y-82670165D01*
X241724091Y-82703955D01*
X241511756Y-82773357D01*
X241313607Y-82876507D01*
X241309474Y-82879610D01*
X241309471Y-82879612D01*
X241139100Y-83007530D01*
X241134965Y-83010635D01*
X241078537Y-83069684D01*
X241054283Y-83095064D01*
X240992759Y-83130494D01*
X240921846Y-83127037D01*
X240864060Y-83085791D01*
X240845207Y-83052243D01*
X240803767Y-82941703D01*
X240800615Y-82933295D01*
X240713261Y-82816739D01*
X240596705Y-82729385D01*
X240460316Y-82678255D01*
X240398134Y-82671500D01*
X238601866Y-82671500D01*
X238539684Y-82678255D01*
X238403295Y-82729385D01*
X238286739Y-82816739D01*
X238199385Y-82933295D01*
X238148255Y-83069684D01*
X238141500Y-83131866D01*
X238141500Y-84445800D01*
X238121498Y-84513921D01*
X238067842Y-84560414D01*
X238015500Y-84571800D01*
X235653567Y-84571800D01*
X235642384Y-84571273D01*
X235634891Y-84569598D01*
X235626965Y-84569847D01*
X235626964Y-84569847D01*
X235566801Y-84571738D01*
X235562843Y-84571800D01*
X235534944Y-84571800D01*
X235530954Y-84572304D01*
X235519120Y-84573236D01*
X235474911Y-84574626D01*
X235467297Y-84576838D01*
X235467292Y-84576839D01*
X235455459Y-84580277D01*
X235436096Y-84584288D01*
X235416003Y-84586826D01*
X235408636Y-84589743D01*
X235408631Y-84589744D01*
X235374892Y-84603102D01*
X235363665Y-84606946D01*
X235321207Y-84619282D01*
X235314381Y-84623319D01*
X235303772Y-84629593D01*
X235286024Y-84638288D01*
X235267183Y-84645748D01*
X235260765Y-84650411D01*
X235253821Y-84654228D01*
X235252546Y-84651908D01*
X235197772Y-84671446D01*
X235128622Y-84655360D01*
X235079146Y-84604442D01*
X235065069Y-84534670D01*
X235067623Y-84505476D01*
X235067623Y-84505475D01*
X235068102Y-84500000D01*
X235048533Y-84276323D01*
X234990420Y-84059443D01*
X234978260Y-84033365D01*
X234897855Y-83860936D01*
X234897852Y-83860931D01*
X234895529Y-83855949D01*
X234799776Y-83719200D01*
X234769902Y-83676535D01*
X234769900Y-83676532D01*
X234766743Y-83672024D01*
X234607976Y-83513257D01*
X234603468Y-83510100D01*
X234603465Y-83510098D01*
X234526848Y-83456451D01*
X234424051Y-83384471D01*
X234419069Y-83382148D01*
X234419064Y-83382145D01*
X234225539Y-83291903D01*
X234225538Y-83291902D01*
X234220557Y-83289580D01*
X234215249Y-83288158D01*
X234215247Y-83288157D01*
X234008992Y-83232891D01*
X234008990Y-83232891D01*
X234003677Y-83231467D01*
X233780000Y-83211898D01*
X233556323Y-83231467D01*
X233551010Y-83232891D01*
X233551008Y-83232891D01*
X233344753Y-83288157D01*
X233344751Y-83288158D01*
X233339443Y-83289580D01*
X233334462Y-83291902D01*
X233334461Y-83291903D01*
X233140936Y-83382145D01*
X233140931Y-83382148D01*
X233135949Y-83384471D01*
X233033152Y-83456451D01*
X232956535Y-83510098D01*
X232956532Y-83510100D01*
X232952024Y-83513257D01*
X232793257Y-83672024D01*
X232790100Y-83676532D01*
X232790098Y-83676535D01*
X232760224Y-83719200D01*
X232664471Y-83855949D01*
X232662148Y-83860931D01*
X232662145Y-83860936D01*
X232581740Y-84033365D01*
X232569580Y-84059443D01*
X232511467Y-84276323D01*
X232491898Y-84500000D01*
X232511467Y-84723677D01*
X232512891Y-84728990D01*
X232512891Y-84728992D01*
X232563305Y-84917137D01*
X232569580Y-84940557D01*
X232571902Y-84945538D01*
X232571903Y-84945539D01*
X232662145Y-85139064D01*
X232662148Y-85139069D01*
X232664471Y-85144051D01*
X232712676Y-85212894D01*
X232783021Y-85313357D01*
X232793257Y-85327976D01*
X232952024Y-85486743D01*
X232956532Y-85489900D01*
X232956535Y-85489902D01*
X233033152Y-85543549D01*
X233135949Y-85615529D01*
X233140931Y-85617852D01*
X233140936Y-85617855D01*
X233334461Y-85708097D01*
X233339443Y-85710420D01*
X233344751Y-85711842D01*
X233344753Y-85711843D01*
X233551008Y-85767109D01*
X233551010Y-85767109D01*
X233556323Y-85768533D01*
X233774525Y-85787623D01*
X233780000Y-85788102D01*
X233785475Y-85787623D01*
X233790982Y-85787623D01*
X233790982Y-85789862D01*
X233851161Y-85801968D01*
X233902144Y-85851378D01*
X233918321Y-85920507D01*
X233894556Y-85987408D01*
X233881612Y-86002584D01*
X230176098Y-89708097D01*
X226586900Y-93297295D01*
X226524588Y-93331321D01*
X226497805Y-93334200D01*
X219442340Y-93334200D01*
X219374219Y-93314198D01*
X219327726Y-93260542D01*
X219317622Y-93190268D01*
X219347116Y-93125688D01*
X219361344Y-93111682D01*
X219363468Y-93109899D01*
X219367976Y-93106743D01*
X219526743Y-92947976D01*
X219536980Y-92933357D01*
X219614071Y-92823259D01*
X219655529Y-92764051D01*
X219657852Y-92759069D01*
X219657855Y-92759064D01*
X219748097Y-92565539D01*
X219748098Y-92565538D01*
X219750420Y-92560557D01*
X219756696Y-92537137D01*
X219807109Y-92348992D01*
X219807109Y-92348990D01*
X219808533Y-92343677D01*
X219828102Y-92120000D01*
X219808533Y-91896323D01*
X219791980Y-91834547D01*
X219751843Y-91684753D01*
X219751842Y-91684751D01*
X219750420Y-91679443D01*
X219738260Y-91653365D01*
X219657855Y-91480936D01*
X219657852Y-91480931D01*
X219655529Y-91475949D01*
X219558114Y-91336826D01*
X219529902Y-91296535D01*
X219529900Y-91296532D01*
X219526743Y-91292024D01*
X219367976Y-91133257D01*
X219363468Y-91130100D01*
X219363465Y-91130098D01*
X219268893Y-91063878D01*
X219184051Y-91004471D01*
X219179069Y-91002148D01*
X219179064Y-91002145D01*
X218985539Y-90911903D01*
X218985538Y-90911902D01*
X218980557Y-90909580D01*
X218975249Y-90908158D01*
X218975247Y-90908157D01*
X218768992Y-90852891D01*
X218768990Y-90852891D01*
X218763677Y-90851467D01*
X218540000Y-90831898D01*
X218316323Y-90851467D01*
X218311010Y-90852891D01*
X218311008Y-90852891D01*
X218104753Y-90908157D01*
X218104751Y-90908158D01*
X218099443Y-90909580D01*
X218094462Y-90911902D01*
X218094461Y-90911903D01*
X217900936Y-91002145D01*
X217900931Y-91002148D01*
X217895949Y-91004471D01*
X217811107Y-91063878D01*
X217716535Y-91130098D01*
X217716532Y-91130100D01*
X217712024Y-91133257D01*
X217553257Y-91292024D01*
X217550100Y-91296532D01*
X217550098Y-91296535D01*
X217521886Y-91336826D01*
X217424471Y-91475949D01*
X217422148Y-91480931D01*
X217422145Y-91480936D01*
X217341740Y-91653365D01*
X217329580Y-91679443D01*
X217328158Y-91684751D01*
X217328157Y-91684753D01*
X217288020Y-91834547D01*
X217271467Y-91896323D01*
X217251898Y-92120000D01*
X217271467Y-92343677D01*
X217272891Y-92348990D01*
X217272891Y-92348992D01*
X217323305Y-92537137D01*
X217329580Y-92560557D01*
X217331902Y-92565538D01*
X217331903Y-92565539D01*
X217422145Y-92759064D01*
X217422148Y-92759069D01*
X217424471Y-92764051D01*
X217465929Y-92823259D01*
X217543021Y-92933357D01*
X217553257Y-92947976D01*
X217712024Y-93106743D01*
X217716532Y-93109899D01*
X217718656Y-93111682D01*
X217757980Y-93170794D01*
X217759102Y-93241782D01*
X217721668Y-93302107D01*
X217657562Y-93332618D01*
X217637660Y-93334200D01*
X197891063Y-93334200D01*
X197879879Y-93333673D01*
X197872391Y-93331999D01*
X197864468Y-93332248D01*
X197804333Y-93334138D01*
X197800375Y-93334200D01*
X197772444Y-93334200D01*
X197768529Y-93334695D01*
X197768525Y-93334695D01*
X197768467Y-93334703D01*
X197768438Y-93334706D01*
X197756596Y-93335639D01*
X197712410Y-93337027D01*
X197695044Y-93342072D01*
X197692958Y-93342678D01*
X197673606Y-93346686D01*
X197661368Y-93348232D01*
X197661366Y-93348233D01*
X197653503Y-93349226D01*
X197612386Y-93365506D01*
X197601185Y-93369341D01*
X197558706Y-93381682D01*
X197551887Y-93385715D01*
X197551882Y-93385717D01*
X197541271Y-93391993D01*
X197523521Y-93400690D01*
X197504683Y-93408148D01*
X197498267Y-93412809D01*
X197498266Y-93412810D01*
X197468925Y-93434128D01*
X197459001Y-93440647D01*
X197427760Y-93459122D01*
X197427755Y-93459126D01*
X197420937Y-93463158D01*
X197406613Y-93477482D01*
X197391581Y-93490321D01*
X197375193Y-93502228D01*
X197348395Y-93534621D01*
X197347012Y-93536293D01*
X197339022Y-93545073D01*
X192172591Y-98711504D01*
X192110279Y-98745530D01*
X192050886Y-98744116D01*
X192008995Y-98732892D01*
X192008996Y-98732892D01*
X192003677Y-98731467D01*
X191954984Y-98727207D01*
X191936264Y-98725569D01*
X191870146Y-98699705D01*
X191828506Y-98642202D01*
X191824566Y-98571314D01*
X191858151Y-98510953D01*
X197731199Y-92637905D01*
X197793511Y-92603879D01*
X197820294Y-92601000D01*
X208783733Y-92601000D01*
X208794916Y-92601527D01*
X208802409Y-92603202D01*
X208810335Y-92602953D01*
X208810336Y-92602953D01*
X208870486Y-92601062D01*
X208874445Y-92601000D01*
X208902356Y-92601000D01*
X208906291Y-92600503D01*
X208906356Y-92600495D01*
X208918193Y-92599562D01*
X208950451Y-92598548D01*
X208954470Y-92598422D01*
X208962389Y-92598173D01*
X208981843Y-92592521D01*
X209001200Y-92588513D01*
X209013430Y-92586968D01*
X209013431Y-92586968D01*
X209021297Y-92585974D01*
X209028668Y-92583055D01*
X209028670Y-92583055D01*
X209062412Y-92569696D01*
X209073642Y-92565851D01*
X209108483Y-92555729D01*
X209108484Y-92555729D01*
X209116093Y-92553518D01*
X209122912Y-92549485D01*
X209122917Y-92549483D01*
X209133528Y-92543207D01*
X209151276Y-92534512D01*
X209170117Y-92527052D01*
X209205887Y-92501064D01*
X209215807Y-92494548D01*
X209247035Y-92476080D01*
X209247038Y-92476078D01*
X209253862Y-92472042D01*
X209268183Y-92457721D01*
X209283217Y-92444880D01*
X209293194Y-92437631D01*
X209299607Y-92432972D01*
X209327798Y-92398895D01*
X209335788Y-92390116D01*
X210607408Y-91118496D01*
X210669720Y-91084470D01*
X210729113Y-91085884D01*
X210767838Y-91096259D01*
X210776323Y-91098533D01*
X211000000Y-91118102D01*
X211223677Y-91098533D01*
X211228990Y-91097109D01*
X211228992Y-91097109D01*
X211435247Y-91041843D01*
X211435249Y-91041842D01*
X211440557Y-91040420D01*
X211454548Y-91033896D01*
X211639064Y-90947855D01*
X211639069Y-90947852D01*
X211644051Y-90945529D01*
X211775645Y-90853386D01*
X211823465Y-90819902D01*
X211823468Y-90819900D01*
X211827976Y-90816743D01*
X211986743Y-90657976D01*
X211992178Y-90650215D01*
X212079021Y-90526190D01*
X212115529Y-90474051D01*
X212117852Y-90469069D01*
X212117855Y-90469064D01*
X212208097Y-90275539D01*
X212208098Y-90275538D01*
X212210420Y-90270557D01*
X212221491Y-90229242D01*
X212267109Y-90058992D01*
X212267109Y-90058990D01*
X212268533Y-90053677D01*
X212288102Y-89830000D01*
X212268533Y-89606323D01*
X212246053Y-89522425D01*
X212211843Y-89394753D01*
X212211842Y-89394751D01*
X212210420Y-89389443D01*
X212205068Y-89377966D01*
X212117855Y-89190936D01*
X212117852Y-89190931D01*
X212115529Y-89185949D01*
X211986743Y-89002024D01*
X211827976Y-88843257D01*
X211823468Y-88840100D01*
X211823465Y-88840098D01*
X211694917Y-88750088D01*
X211644051Y-88714471D01*
X211639069Y-88712148D01*
X211639064Y-88712145D01*
X211445539Y-88621903D01*
X211445538Y-88621902D01*
X211440557Y-88619580D01*
X211435249Y-88618158D01*
X211435247Y-88618157D01*
X211228992Y-88562891D01*
X211228990Y-88562891D01*
X211223677Y-88561467D01*
X211000000Y-88541898D01*
X210776323Y-88561467D01*
X210771010Y-88562891D01*
X210771008Y-88562891D01*
X210564753Y-88618157D01*
X210564751Y-88618158D01*
X210559443Y-88619580D01*
X210554462Y-88621902D01*
X210554461Y-88621903D01*
X210360936Y-88712145D01*
X210360931Y-88712148D01*
X210355949Y-88714471D01*
X210305083Y-88750088D01*
X210176535Y-88840098D01*
X210176532Y-88840100D01*
X210172024Y-88843257D01*
X210013257Y-89002024D01*
X209884471Y-89185949D01*
X209882148Y-89190931D01*
X209882145Y-89190936D01*
X209794932Y-89377966D01*
X209789580Y-89389443D01*
X209788158Y-89394751D01*
X209788157Y-89394753D01*
X209753947Y-89522425D01*
X209731467Y-89606323D01*
X209711898Y-89830000D01*
X209731467Y-90053677D01*
X209732891Y-90058992D01*
X209732892Y-90058995D01*
X209744116Y-90100886D01*
X209742426Y-90171862D01*
X209711504Y-90222591D01*
X208637000Y-91297095D01*
X208574688Y-91331121D01*
X208547905Y-91334000D01*
X203680033Y-91334000D01*
X203611912Y-91313998D01*
X203565419Y-91260342D01*
X203555315Y-91190068D01*
X203584809Y-91125488D01*
X203647422Y-91086293D01*
X203815075Y-91041371D01*
X203825367Y-91037625D01*
X204018815Y-90947419D01*
X204028305Y-90941940D01*
X204074885Y-90909324D01*
X204083259Y-90898848D01*
X204076190Y-90885400D01*
X203392812Y-90202022D01*
X203378868Y-90194408D01*
X203377035Y-90194539D01*
X203370420Y-90198790D01*
X202683088Y-90886122D01*
X202676658Y-90897896D01*
X202685954Y-90909912D01*
X202731695Y-90941940D01*
X202741185Y-90947419D01*
X202934633Y-91037625D01*
X202944925Y-91041371D01*
X203112578Y-91086293D01*
X203173201Y-91123245D01*
X203204222Y-91187105D01*
X203195794Y-91257600D01*
X203150591Y-91312347D01*
X203079967Y-91334000D01*
X197584468Y-91334000D01*
X197573285Y-91333473D01*
X197565792Y-91331798D01*
X197557866Y-91332047D01*
X197557865Y-91332047D01*
X197497702Y-91333938D01*
X197493744Y-91334000D01*
X197465844Y-91334000D01*
X197461854Y-91334504D01*
X197450020Y-91335436D01*
X197405811Y-91336826D01*
X197398195Y-91339039D01*
X197398193Y-91339039D01*
X197386352Y-91342479D01*
X197366993Y-91346488D01*
X197365683Y-91346654D01*
X197346903Y-91349026D01*
X197339537Y-91351942D01*
X197339531Y-91351944D01*
X197305798Y-91365300D01*
X197294568Y-91369145D01*
X197259717Y-91379270D01*
X197252107Y-91381481D01*
X197245284Y-91385516D01*
X197234666Y-91391795D01*
X197216913Y-91400492D01*
X197209268Y-91403519D01*
X197198083Y-91407948D01*
X197178271Y-91422342D01*
X197162312Y-91433937D01*
X197152395Y-91440451D01*
X197114338Y-91462958D01*
X197100017Y-91477279D01*
X197084984Y-91490119D01*
X197068593Y-91502028D01*
X197063542Y-91508134D01*
X197040402Y-91536105D01*
X197032412Y-91544884D01*
X193086113Y-95491183D01*
X193023801Y-95525209D01*
X192952986Y-95520144D01*
X192893804Y-95474358D01*
X192859324Y-95425115D01*
X192848848Y-95416741D01*
X192835400Y-95423810D01*
X191083088Y-97176122D01*
X191076658Y-97187896D01*
X191085954Y-97199911D01*
X191134358Y-97233804D01*
X191178687Y-97289261D01*
X191185996Y-97359880D01*
X191151183Y-97426112D01*
X183533000Y-105044295D01*
X183470688Y-105078321D01*
X183443905Y-105081200D01*
X167969367Y-105081200D01*
X167958184Y-105080673D01*
X167950691Y-105078998D01*
X167942765Y-105079247D01*
X167942764Y-105079247D01*
X167882614Y-105081138D01*
X167878655Y-105081200D01*
X167850744Y-105081200D01*
X167846810Y-105081697D01*
X167846809Y-105081697D01*
X167846744Y-105081705D01*
X167834907Y-105082638D01*
X167803090Y-105083638D01*
X167798629Y-105083778D01*
X167790710Y-105084027D01*
X167773054Y-105089156D01*
X167771258Y-105089678D01*
X167751906Y-105093686D01*
X167744835Y-105094580D01*
X167731803Y-105096226D01*
X167724434Y-105099143D01*
X167724432Y-105099144D01*
X167690697Y-105112500D01*
X167679469Y-105116345D01*
X167637007Y-105128682D01*
X167630185Y-105132716D01*
X167630179Y-105132719D01*
X167619568Y-105138994D01*
X167601818Y-105147690D01*
X167590356Y-105152228D01*
X167590351Y-105152231D01*
X167582983Y-105155148D01*
X167576568Y-105159809D01*
X167547225Y-105181127D01*
X167537307Y-105187643D01*
X167518619Y-105198695D01*
X167499237Y-105210158D01*
X167484913Y-105224482D01*
X167469881Y-105237321D01*
X167453493Y-105249228D01*
X167433412Y-105273502D01*
X167425312Y-105283293D01*
X167417322Y-105292073D01*
X166728229Y-105981166D01*
X166665917Y-106015192D01*
X166595102Y-106010127D01*
X166545940Y-105976870D01*
X166473151Y-105896876D01*
X166473145Y-105896870D01*
X166469670Y-105893051D01*
X166465619Y-105889852D01*
X166465615Y-105889848D01*
X166298414Y-105757800D01*
X166298410Y-105757798D01*
X166294359Y-105754598D01*
X166253053Y-105731796D01*
X166203084Y-105681364D01*
X166188312Y-105611921D01*
X166213428Y-105545516D01*
X166240780Y-105518909D01*
X166284603Y-105487650D01*
X166419860Y-105391173D01*
X166495106Y-105316190D01*
X166543158Y-105268305D01*
X166578096Y-105233489D01*
X166637594Y-105150689D01*
X166705435Y-105056277D01*
X166708453Y-105052077D01*
X166710746Y-105047438D01*
X166713405Y-105043012D01*
X166715108Y-105044035D01*
X166757420Y-104998097D01*
X166802584Y-104981663D01*
X166807262Y-104980922D01*
X166815189Y-104980673D01*
X166834643Y-104975021D01*
X166854000Y-104971013D01*
X166866230Y-104969468D01*
X166866231Y-104969468D01*
X166874097Y-104968474D01*
X166881468Y-104965555D01*
X166881470Y-104965555D01*
X166915212Y-104952196D01*
X166926442Y-104948351D01*
X166961283Y-104938229D01*
X166961284Y-104938229D01*
X166968893Y-104936018D01*
X166975712Y-104931985D01*
X166975717Y-104931983D01*
X166986328Y-104925707D01*
X167004076Y-104917012D01*
X167022917Y-104909552D01*
X167058687Y-104883564D01*
X167068607Y-104877048D01*
X167099835Y-104858580D01*
X167099838Y-104858578D01*
X167106662Y-104854542D01*
X167120983Y-104840221D01*
X167136017Y-104827380D01*
X167145994Y-104820131D01*
X167152407Y-104815472D01*
X167180598Y-104781395D01*
X167188588Y-104772616D01*
X172623148Y-99338056D01*
X172685460Y-99304030D01*
X172756275Y-99309095D01*
X172813111Y-99351642D01*
X172837922Y-99418162D01*
X172826438Y-99480401D01*
X172797732Y-99541962D01*
X172789580Y-99559443D01*
X172788158Y-99564751D01*
X172788157Y-99564753D01*
X172757909Y-99677639D01*
X172731467Y-99776323D01*
X172711898Y-100000000D01*
X172731467Y-100223677D01*
X172732891Y-100228990D01*
X172732891Y-100228992D01*
X172780983Y-100408471D01*
X172789580Y-100440557D01*
X172791902Y-100445538D01*
X172791903Y-100445539D01*
X172882145Y-100639064D01*
X172882148Y-100639069D01*
X172884471Y-100644051D01*
X172929245Y-100707995D01*
X173006954Y-100818974D01*
X173013257Y-100827976D01*
X173172024Y-100986743D01*
X173176532Y-100989900D01*
X173176535Y-100989902D01*
X173233951Y-101030105D01*
X173355949Y-101115529D01*
X173360931Y-101117852D01*
X173360936Y-101117855D01*
X173554461Y-101208097D01*
X173559443Y-101210420D01*
X173564751Y-101211842D01*
X173564753Y-101211843D01*
X173771008Y-101267109D01*
X173771010Y-101267109D01*
X173776323Y-101268533D01*
X174000000Y-101288102D01*
X174223677Y-101268533D01*
X174228990Y-101267109D01*
X174228992Y-101267109D01*
X174435247Y-101211843D01*
X174435249Y-101211842D01*
X174440557Y-101210420D01*
X174445539Y-101208097D01*
X174639064Y-101117855D01*
X174639069Y-101117852D01*
X174644051Y-101115529D01*
X174766049Y-101030105D01*
X174823465Y-100989902D01*
X174823468Y-100989900D01*
X174827976Y-100986743D01*
X174986743Y-100827976D01*
X174993047Y-100818974D01*
X175070755Y-100707995D01*
X175115529Y-100644051D01*
X175117852Y-100639069D01*
X175117855Y-100639064D01*
X175208097Y-100445539D01*
X175208098Y-100445538D01*
X175210420Y-100440557D01*
X175219018Y-100408471D01*
X175267109Y-100228992D01*
X175267109Y-100228990D01*
X175268533Y-100223677D01*
X175288102Y-100000000D01*
X180331898Y-100000000D01*
X180351467Y-100223677D01*
X180352891Y-100228990D01*
X180352891Y-100228992D01*
X180400983Y-100408471D01*
X180409580Y-100440557D01*
X180411902Y-100445538D01*
X180411903Y-100445539D01*
X180502145Y-100639064D01*
X180502148Y-100639069D01*
X180504471Y-100644051D01*
X180549245Y-100707995D01*
X180626954Y-100818974D01*
X180633257Y-100827976D01*
X180792024Y-100986743D01*
X180796532Y-100989900D01*
X180796535Y-100989902D01*
X180853951Y-101030105D01*
X180975949Y-101115529D01*
X180980931Y-101117852D01*
X180980936Y-101117855D01*
X181174461Y-101208097D01*
X181179443Y-101210420D01*
X181184751Y-101211842D01*
X181184753Y-101211843D01*
X181391008Y-101267109D01*
X181391010Y-101267109D01*
X181396323Y-101268533D01*
X181620000Y-101288102D01*
X181843677Y-101268533D01*
X181848990Y-101267109D01*
X181848992Y-101267109D01*
X182055247Y-101211843D01*
X182055249Y-101211842D01*
X182060557Y-101210420D01*
X182065539Y-101208097D01*
X182259064Y-101117855D01*
X182259069Y-101117852D01*
X182264051Y-101115529D01*
X182386049Y-101030105D01*
X182443465Y-100989902D01*
X182443468Y-100989900D01*
X182447976Y-100986743D01*
X182606743Y-100827976D01*
X182613047Y-100818974D01*
X182690755Y-100707995D01*
X182735529Y-100644051D01*
X182737852Y-100639069D01*
X182737855Y-100639064D01*
X182828097Y-100445539D01*
X182828098Y-100445538D01*
X182830420Y-100440557D01*
X182839018Y-100408471D01*
X182887109Y-100228992D01*
X182887109Y-100228990D01*
X182888533Y-100223677D01*
X182908102Y-100000000D01*
X182888533Y-99776323D01*
X182862091Y-99677639D01*
X182831843Y-99564753D01*
X182831842Y-99564751D01*
X182830420Y-99559443D01*
X182827340Y-99552837D01*
X182737855Y-99360936D01*
X182737852Y-99360931D01*
X182735529Y-99355949D01*
X182606743Y-99172024D01*
X182447976Y-99013257D01*
X182443468Y-99010100D01*
X182443465Y-99010098D01*
X182366848Y-98956451D01*
X182264051Y-98884471D01*
X182259069Y-98882148D01*
X182259064Y-98882145D01*
X182065539Y-98791903D01*
X182065538Y-98791902D01*
X182060557Y-98789580D01*
X182055249Y-98788158D01*
X182055247Y-98788157D01*
X181848992Y-98732891D01*
X181848990Y-98732891D01*
X181843677Y-98731467D01*
X181620000Y-98711898D01*
X181396323Y-98731467D01*
X181391010Y-98732891D01*
X181391008Y-98732891D01*
X181184753Y-98788157D01*
X181184751Y-98788158D01*
X181179443Y-98789580D01*
X181174462Y-98791902D01*
X181174461Y-98791903D01*
X180980936Y-98882145D01*
X180980931Y-98882148D01*
X180975949Y-98884471D01*
X180873152Y-98956451D01*
X180796535Y-99010098D01*
X180796532Y-99010100D01*
X180792024Y-99013257D01*
X180633257Y-99172024D01*
X180504471Y-99355949D01*
X180502148Y-99360931D01*
X180502145Y-99360936D01*
X180412660Y-99552837D01*
X180409580Y-99559443D01*
X180408158Y-99564751D01*
X180408157Y-99564753D01*
X180377909Y-99677639D01*
X180351467Y-99776323D01*
X180331898Y-100000000D01*
X175288102Y-100000000D01*
X175268533Y-99776323D01*
X175242091Y-99677639D01*
X175211843Y-99564753D01*
X175211842Y-99564751D01*
X175210420Y-99559443D01*
X175207340Y-99552837D01*
X175117855Y-99360936D01*
X175117852Y-99360931D01*
X175115529Y-99355949D01*
X174986743Y-99172024D01*
X174827976Y-99013257D01*
X174823468Y-99010100D01*
X174823465Y-99010098D01*
X174746848Y-98956451D01*
X174644051Y-98884471D01*
X174639069Y-98882148D01*
X174639064Y-98882145D01*
X174445539Y-98791903D01*
X174445538Y-98791902D01*
X174440557Y-98789580D01*
X174435249Y-98788158D01*
X174435247Y-98788157D01*
X174228992Y-98732891D01*
X174228990Y-98732891D01*
X174223677Y-98731467D01*
X174000000Y-98711898D01*
X173776323Y-98731467D01*
X173771010Y-98732891D01*
X173771008Y-98732891D01*
X173564753Y-98788157D01*
X173564751Y-98788158D01*
X173559443Y-98789580D01*
X173554462Y-98791902D01*
X173554461Y-98791903D01*
X173480401Y-98826438D01*
X173410209Y-98837099D01*
X173345397Y-98808119D01*
X173306540Y-98748699D01*
X173305977Y-98677705D01*
X173338056Y-98623148D01*
X175225506Y-96735698D01*
X175287818Y-96701672D01*
X175358633Y-96706737D01*
X175415469Y-96749284D01*
X175422689Y-96760230D01*
X175424471Y-96764051D01*
X175460979Y-96816190D01*
X175529850Y-96914547D01*
X175553257Y-96947976D01*
X175712024Y-97106743D01*
X175716532Y-97109900D01*
X175716535Y-97109902D01*
X175748946Y-97132596D01*
X175895949Y-97235529D01*
X175900931Y-97237852D01*
X175900936Y-97237855D01*
X176011177Y-97289261D01*
X176099443Y-97330420D01*
X176104751Y-97331842D01*
X176104753Y-97331843D01*
X176311008Y-97387109D01*
X176311010Y-97387109D01*
X176316323Y-97388533D01*
X176540000Y-97408102D01*
X176763677Y-97388533D01*
X176768990Y-97387109D01*
X176768992Y-97387109D01*
X176975247Y-97331843D01*
X176975249Y-97331842D01*
X176980557Y-97330420D01*
X177068823Y-97289261D01*
X177179064Y-97237855D01*
X177179069Y-97237852D01*
X177184051Y-97235529D01*
X177331054Y-97132596D01*
X177363465Y-97109902D01*
X177363468Y-97109900D01*
X177367976Y-97106743D01*
X177526743Y-96947976D01*
X177550151Y-96914547D01*
X177619021Y-96816190D01*
X177655529Y-96764051D01*
X177657852Y-96759069D01*
X177657855Y-96759064D01*
X177748097Y-96565539D01*
X177748098Y-96565538D01*
X177750420Y-96560557D01*
X177752054Y-96554461D01*
X177807109Y-96348992D01*
X177807109Y-96348990D01*
X177808533Y-96343677D01*
X177827623Y-96125475D01*
X190492879Y-96125475D01*
X190511483Y-96338109D01*
X190513386Y-96348904D01*
X190568629Y-96555075D01*
X190572375Y-96565367D01*
X190662581Y-96758815D01*
X190668060Y-96768305D01*
X190700676Y-96814885D01*
X190711152Y-96823259D01*
X190724600Y-96816190D01*
X191407978Y-96132812D01*
X191415592Y-96118868D01*
X191415461Y-96117035D01*
X191411210Y-96110420D01*
X190723878Y-95423088D01*
X190712104Y-95416658D01*
X190700088Y-95425954D01*
X190668060Y-95471695D01*
X190662581Y-95481185D01*
X190572375Y-95674633D01*
X190568629Y-95684925D01*
X190513386Y-95891096D01*
X190511483Y-95901891D01*
X190492879Y-96114525D01*
X190492879Y-96125475D01*
X177827623Y-96125475D01*
X177828102Y-96120000D01*
X177808533Y-95896323D01*
X177803198Y-95876411D01*
X177751843Y-95684753D01*
X177751842Y-95684751D01*
X177750420Y-95679443D01*
X177701306Y-95574118D01*
X177657855Y-95480936D01*
X177657852Y-95480931D01*
X177655529Y-95475949D01*
X177580941Y-95369427D01*
X177529902Y-95296535D01*
X177529900Y-95296532D01*
X177526743Y-95292024D01*
X177367976Y-95133257D01*
X177363468Y-95130100D01*
X177363465Y-95130098D01*
X177250718Y-95051152D01*
X191076741Y-95051152D01*
X191083810Y-95064600D01*
X191767188Y-95747978D01*
X191781132Y-95755592D01*
X191782965Y-95755461D01*
X191789580Y-95751210D01*
X192476912Y-95063878D01*
X192483342Y-95052104D01*
X192474046Y-95040088D01*
X192428305Y-95008060D01*
X192418815Y-95002581D01*
X192225367Y-94912375D01*
X192215075Y-94908629D01*
X192008904Y-94853386D01*
X191998109Y-94851483D01*
X191785475Y-94832879D01*
X191774525Y-94832879D01*
X191561891Y-94851483D01*
X191551096Y-94853386D01*
X191344925Y-94908629D01*
X191334633Y-94912375D01*
X191141185Y-95002581D01*
X191131695Y-95008060D01*
X191085115Y-95040676D01*
X191076741Y-95051152D01*
X177250718Y-95051152D01*
X177234917Y-95040088D01*
X177184051Y-95004471D01*
X177181271Y-95003175D01*
X177132797Y-94952332D01*
X177119364Y-94882618D01*
X177145754Y-94816708D01*
X177155698Y-94805506D01*
X179773699Y-92187505D01*
X179836011Y-92153479D01*
X179862794Y-92150600D01*
X188684133Y-92150600D01*
X188695316Y-92151127D01*
X188702809Y-92152802D01*
X188710735Y-92152553D01*
X188710736Y-92152553D01*
X188770886Y-92150662D01*
X188774845Y-92150600D01*
X188802756Y-92150600D01*
X188806691Y-92150103D01*
X188806756Y-92150095D01*
X188818593Y-92149162D01*
X188850851Y-92148148D01*
X188854870Y-92148022D01*
X188862789Y-92147773D01*
X188882243Y-92142121D01*
X188901600Y-92138113D01*
X188913830Y-92136568D01*
X188913831Y-92136568D01*
X188921697Y-92135574D01*
X188929068Y-92132655D01*
X188929070Y-92132655D01*
X188962812Y-92119296D01*
X188974042Y-92115451D01*
X189008883Y-92105329D01*
X189008884Y-92105329D01*
X189016493Y-92103118D01*
X189023312Y-92099085D01*
X189023317Y-92099083D01*
X189033928Y-92092807D01*
X189051676Y-92084112D01*
X189070517Y-92076652D01*
X189106287Y-92050664D01*
X189116207Y-92044148D01*
X189147435Y-92025680D01*
X189147438Y-92025678D01*
X189154262Y-92021642D01*
X189168583Y-92007321D01*
X189183617Y-91994480D01*
X189193594Y-91987231D01*
X189200007Y-91982572D01*
X189228198Y-91948495D01*
X189236188Y-91939716D01*
X191340430Y-89835475D01*
X202092879Y-89835475D01*
X202111483Y-90048109D01*
X202113386Y-90058904D01*
X202168629Y-90265075D01*
X202172375Y-90275367D01*
X202262581Y-90468815D01*
X202268060Y-90478305D01*
X202300676Y-90524885D01*
X202311152Y-90533259D01*
X202324600Y-90526190D01*
X203007978Y-89842812D01*
X203014356Y-89831132D01*
X203744408Y-89831132D01*
X203744539Y-89832965D01*
X203748790Y-89839580D01*
X204436122Y-90526912D01*
X204447896Y-90533342D01*
X204459912Y-90524046D01*
X204491940Y-90478305D01*
X204497419Y-90468815D01*
X204587625Y-90275367D01*
X204591371Y-90265075D01*
X204646614Y-90058904D01*
X204648517Y-90048109D01*
X204667121Y-89835475D01*
X204667121Y-89824525D01*
X204648517Y-89611891D01*
X204646614Y-89601096D01*
X204591371Y-89394925D01*
X204587625Y-89384633D01*
X204497419Y-89191185D01*
X204491940Y-89181695D01*
X204459324Y-89135115D01*
X204448848Y-89126741D01*
X204435400Y-89133810D01*
X203752022Y-89817188D01*
X203744408Y-89831132D01*
X203014356Y-89831132D01*
X203015592Y-89828868D01*
X203015461Y-89827035D01*
X203011210Y-89820420D01*
X202323878Y-89133088D01*
X202312104Y-89126658D01*
X202300088Y-89135954D01*
X202268060Y-89181695D01*
X202262581Y-89191185D01*
X202172375Y-89384633D01*
X202168629Y-89394925D01*
X202113386Y-89601096D01*
X202111483Y-89611891D01*
X202092879Y-89824525D01*
X202092879Y-89835475D01*
X191340430Y-89835475D01*
X191387409Y-89788496D01*
X191449721Y-89754470D01*
X191509114Y-89755884D01*
X191547778Y-89766243D01*
X191556323Y-89768533D01*
X191780000Y-89788102D01*
X192003677Y-89768533D01*
X192008990Y-89767109D01*
X192008992Y-89767109D01*
X192215247Y-89711843D01*
X192215249Y-89711842D01*
X192220557Y-89710420D01*
X192225539Y-89708097D01*
X192419064Y-89617855D01*
X192419069Y-89617852D01*
X192424051Y-89615529D01*
X192571054Y-89512596D01*
X192603465Y-89489902D01*
X192603468Y-89489900D01*
X192607976Y-89486743D01*
X192766743Y-89327976D01*
X192790151Y-89294547D01*
X192862525Y-89191185D01*
X192895529Y-89144051D01*
X192897852Y-89139069D01*
X192897855Y-89139064D01*
X192988097Y-88945539D01*
X192988098Y-88945538D01*
X192990420Y-88940557D01*
X192993341Y-88929658D01*
X193038492Y-88761152D01*
X202676741Y-88761152D01*
X202683810Y-88774600D01*
X203367188Y-89457978D01*
X203381132Y-89465592D01*
X203382965Y-89465461D01*
X203389580Y-89461210D01*
X204076912Y-88773878D01*
X204083342Y-88762104D01*
X204074046Y-88750088D01*
X204028305Y-88718060D01*
X204018815Y-88712581D01*
X203825367Y-88622375D01*
X203815075Y-88618629D01*
X203608904Y-88563386D01*
X203598109Y-88561483D01*
X203385475Y-88542879D01*
X203374525Y-88542879D01*
X203161891Y-88561483D01*
X203151096Y-88563386D01*
X202944925Y-88618629D01*
X202934633Y-88622375D01*
X202741185Y-88712581D01*
X202731695Y-88718060D01*
X202685115Y-88750676D01*
X202676741Y-88761152D01*
X193038492Y-88761152D01*
X193047109Y-88728992D01*
X193047109Y-88728990D01*
X193048533Y-88723677D01*
X193068102Y-88500000D01*
X193048533Y-88276323D01*
X193043198Y-88256411D01*
X192991843Y-88064753D01*
X192991842Y-88064751D01*
X192990420Y-88059443D01*
X192987249Y-88052642D01*
X192897855Y-87860936D01*
X192897852Y-87860931D01*
X192895529Y-87855949D01*
X192807180Y-87729774D01*
X192769902Y-87676535D01*
X192769900Y-87676532D01*
X192766743Y-87672024D01*
X192607976Y-87513257D01*
X192603468Y-87510100D01*
X192603465Y-87510098D01*
X192516625Y-87449292D01*
X192424051Y-87384471D01*
X192419069Y-87382148D01*
X192419064Y-87382145D01*
X192225539Y-87291903D01*
X192225538Y-87291902D01*
X192220557Y-87289580D01*
X192215249Y-87288158D01*
X192215247Y-87288157D01*
X192008992Y-87232891D01*
X192008990Y-87232891D01*
X192003677Y-87231467D01*
X191780000Y-87211898D01*
X191556323Y-87231467D01*
X191551010Y-87232891D01*
X191551008Y-87232891D01*
X191344753Y-87288157D01*
X191344751Y-87288158D01*
X191339443Y-87289580D01*
X191334462Y-87291902D01*
X191334461Y-87291903D01*
X191140936Y-87382145D01*
X191140931Y-87382148D01*
X191135949Y-87384471D01*
X191043375Y-87449292D01*
X190956535Y-87510098D01*
X190956532Y-87510100D01*
X190952024Y-87513257D01*
X190793257Y-87672024D01*
X190790100Y-87676532D01*
X190790098Y-87676535D01*
X190752820Y-87729774D01*
X190664471Y-87855949D01*
X190662148Y-87860931D01*
X190662145Y-87860936D01*
X190572751Y-88052642D01*
X190569580Y-88059443D01*
X190568158Y-88064751D01*
X190568157Y-88064753D01*
X190516802Y-88256411D01*
X190511467Y-88276323D01*
X190491898Y-88500000D01*
X190511467Y-88723677D01*
X190512891Y-88728992D01*
X190512892Y-88728995D01*
X190524116Y-88770886D01*
X190522426Y-88841862D01*
X190491504Y-88892591D01*
X188537400Y-90846695D01*
X188475088Y-90880721D01*
X188448305Y-90883600D01*
X179626967Y-90883600D01*
X179615784Y-90883073D01*
X179608291Y-90881398D01*
X179600365Y-90881647D01*
X179600364Y-90881647D01*
X179540214Y-90883538D01*
X179536255Y-90883600D01*
X179508344Y-90883600D01*
X179504410Y-90884097D01*
X179504409Y-90884097D01*
X179504344Y-90884105D01*
X179492507Y-90885038D01*
X179460690Y-90886038D01*
X179456229Y-90886178D01*
X179448310Y-90886427D01*
X179430654Y-90891556D01*
X179428858Y-90892078D01*
X179409506Y-90896086D01*
X179402435Y-90896980D01*
X179389403Y-90898626D01*
X179382034Y-90901543D01*
X179382032Y-90901544D01*
X179348297Y-90914900D01*
X179337069Y-90918745D01*
X179294607Y-90931082D01*
X179287785Y-90935116D01*
X179287779Y-90935119D01*
X179277168Y-90941394D01*
X179259418Y-90950090D01*
X179247956Y-90954628D01*
X179247951Y-90954631D01*
X179240583Y-90957548D01*
X179234168Y-90962209D01*
X179204825Y-90983527D01*
X179194907Y-90990043D01*
X179186397Y-90995076D01*
X179156837Y-91012558D01*
X179142513Y-91026882D01*
X179127481Y-91039721D01*
X179111093Y-91051628D01*
X179100362Y-91064600D01*
X179082912Y-91085693D01*
X179074922Y-91094473D01*
X166728229Y-103441166D01*
X166665917Y-103475192D01*
X166595102Y-103470127D01*
X166545940Y-103436870D01*
X166473151Y-103356876D01*
X166473145Y-103356870D01*
X166469670Y-103353051D01*
X166465619Y-103349852D01*
X166465615Y-103349848D01*
X166298414Y-103217800D01*
X166298410Y-103217798D01*
X166294359Y-103214598D01*
X166252569Y-103191529D01*
X166202598Y-103141097D01*
X166187826Y-103071654D01*
X166212942Y-103005248D01*
X166240294Y-102978641D01*
X166415328Y-102853792D01*
X166423200Y-102847139D01*
X166574052Y-102696812D01*
X166580730Y-102688965D01*
X166705003Y-102516020D01*
X166710313Y-102507183D01*
X166804670Y-102316267D01*
X166808469Y-102306672D01*
X166870377Y-102102910D01*
X166872555Y-102092837D01*
X166873986Y-102081962D01*
X166871775Y-102067778D01*
X166858617Y-102064000D01*
X165412000Y-102064000D01*
X165343879Y-102043998D01*
X165297386Y-101990342D01*
X165286000Y-101938000D01*
X165286000Y-101682000D01*
X165306002Y-101613879D01*
X165359658Y-101567386D01*
X165412000Y-101556000D01*
X166858344Y-101556000D01*
X166871875Y-101552027D01*
X166873180Y-101542947D01*
X166843527Y-101424896D01*
X166846331Y-101353955D01*
X166887043Y-101295791D01*
X166952739Y-101268872D01*
X166965731Y-101268200D01*
X167497233Y-101268200D01*
X167508416Y-101268727D01*
X167515909Y-101270402D01*
X167523835Y-101270153D01*
X167523836Y-101270153D01*
X167583986Y-101268262D01*
X167587945Y-101268200D01*
X167615856Y-101268200D01*
X167619791Y-101267703D01*
X167619856Y-101267695D01*
X167631693Y-101266762D01*
X167663951Y-101265748D01*
X167667970Y-101265622D01*
X167675889Y-101265373D01*
X167695343Y-101259721D01*
X167714700Y-101255713D01*
X167726930Y-101254168D01*
X167726931Y-101254168D01*
X167734797Y-101253174D01*
X167742168Y-101250255D01*
X167742170Y-101250255D01*
X167775912Y-101236896D01*
X167787142Y-101233051D01*
X167821983Y-101222929D01*
X167821984Y-101222929D01*
X167829593Y-101220718D01*
X167836412Y-101216685D01*
X167836417Y-101216683D01*
X167847028Y-101210407D01*
X167864776Y-101201712D01*
X167883617Y-101194252D01*
X167916186Y-101170590D01*
X167919387Y-101168264D01*
X167929307Y-101161748D01*
X167960535Y-101143280D01*
X167960538Y-101143278D01*
X167967362Y-101139242D01*
X167981683Y-101124921D01*
X167996717Y-101112080D01*
X168000106Y-101109618D01*
X168013107Y-101100172D01*
X168041298Y-101066095D01*
X168049288Y-101057316D01*
X180205116Y-88901488D01*
X180267428Y-88867462D01*
X180338243Y-88872527D01*
X180395079Y-88915074D01*
X180409010Y-88940823D01*
X180409580Y-88940557D01*
X180502145Y-89139064D01*
X180502148Y-89139069D01*
X180504471Y-89144051D01*
X180537475Y-89191185D01*
X180609850Y-89294547D01*
X180633257Y-89327976D01*
X180792024Y-89486743D01*
X180796532Y-89489900D01*
X180796535Y-89489902D01*
X180828946Y-89512596D01*
X180975949Y-89615529D01*
X180980931Y-89617852D01*
X180980936Y-89617855D01*
X181174461Y-89708097D01*
X181179443Y-89710420D01*
X181184751Y-89711842D01*
X181184753Y-89711843D01*
X181391008Y-89767109D01*
X181391010Y-89767109D01*
X181396323Y-89768533D01*
X181620000Y-89788102D01*
X181843677Y-89768533D01*
X181848990Y-89767109D01*
X181848992Y-89767109D01*
X182055247Y-89711843D01*
X182055249Y-89711842D01*
X182060557Y-89710420D01*
X182065539Y-89708097D01*
X182259064Y-89617855D01*
X182259069Y-89617852D01*
X182264051Y-89615529D01*
X182411054Y-89512596D01*
X182443465Y-89489902D01*
X182443468Y-89489900D01*
X182447976Y-89486743D01*
X182606743Y-89327976D01*
X182630151Y-89294547D01*
X182702525Y-89191185D01*
X182735529Y-89144051D01*
X182737852Y-89139069D01*
X182737855Y-89139064D01*
X182828097Y-88945539D01*
X182828098Y-88945538D01*
X182830420Y-88940557D01*
X182833341Y-88929658D01*
X182887109Y-88728992D01*
X182887109Y-88728990D01*
X182888533Y-88723677D01*
X182908102Y-88500000D01*
X182888533Y-88276323D01*
X182883198Y-88256411D01*
X182831843Y-88064753D01*
X182831842Y-88064751D01*
X182830420Y-88059443D01*
X182827249Y-88052642D01*
X182737855Y-87860936D01*
X182737852Y-87860931D01*
X182735529Y-87855949D01*
X182647180Y-87729774D01*
X182609902Y-87676535D01*
X182609900Y-87676532D01*
X182606743Y-87672024D01*
X182447976Y-87513257D01*
X182443468Y-87510100D01*
X182443465Y-87510098D01*
X182356625Y-87449292D01*
X182264051Y-87384471D01*
X182259069Y-87382148D01*
X182259064Y-87382145D01*
X182060557Y-87289580D01*
X182061274Y-87288042D01*
X182010305Y-87250502D01*
X181984978Y-87184177D01*
X181999529Y-87114688D01*
X182021488Y-87085116D01*
X182816499Y-86290105D01*
X182878811Y-86256079D01*
X182905594Y-86253200D01*
X223996933Y-86253200D01*
X224008116Y-86253727D01*
X224015609Y-86255402D01*
X224023535Y-86255153D01*
X224023536Y-86255153D01*
X224083686Y-86253262D01*
X224087645Y-86253200D01*
X224115556Y-86253200D01*
X224119491Y-86252703D01*
X224119556Y-86252695D01*
X224131393Y-86251762D01*
X224163651Y-86250748D01*
X224167670Y-86250622D01*
X224175589Y-86250373D01*
X224195043Y-86244721D01*
X224214400Y-86240713D01*
X224226630Y-86239168D01*
X224226631Y-86239168D01*
X224234497Y-86238174D01*
X224241868Y-86235255D01*
X224241870Y-86235255D01*
X224275612Y-86221896D01*
X224286842Y-86218051D01*
X224321683Y-86207929D01*
X224321684Y-86207929D01*
X224329293Y-86205718D01*
X224336112Y-86201685D01*
X224336117Y-86201683D01*
X224346728Y-86195407D01*
X224364476Y-86186712D01*
X224383317Y-86179252D01*
X224419087Y-86153264D01*
X224429007Y-86146748D01*
X224460235Y-86128280D01*
X224460238Y-86128278D01*
X224467062Y-86124242D01*
X224481383Y-86109921D01*
X224496417Y-86097080D01*
X224506394Y-86089831D01*
X224512807Y-86085172D01*
X224540998Y-86051095D01*
X224548988Y-86042316D01*
X229903408Y-80687896D01*
X233076658Y-80687896D01*
X233085954Y-80699912D01*
X233131695Y-80731940D01*
X233141185Y-80737419D01*
X233334633Y-80827625D01*
X233344925Y-80831371D01*
X233551096Y-80886614D01*
X233561891Y-80888517D01*
X233774525Y-80907121D01*
X233785475Y-80907121D01*
X233998109Y-80888517D01*
X234008904Y-80886614D01*
X234215075Y-80831371D01*
X234225367Y-80827625D01*
X234418815Y-80737419D01*
X234428305Y-80731940D01*
X234474885Y-80699324D01*
X234483259Y-80688848D01*
X234476190Y-80675400D01*
X233792812Y-79992022D01*
X233778868Y-79984408D01*
X233777035Y-79984539D01*
X233770420Y-79988790D01*
X233083088Y-80676122D01*
X233076658Y-80687896D01*
X229903408Y-80687896D01*
X230965829Y-79625475D01*
X232492879Y-79625475D01*
X232511483Y-79838109D01*
X232513386Y-79848904D01*
X232568629Y-80055075D01*
X232572375Y-80065367D01*
X232662581Y-80258815D01*
X232668060Y-80268305D01*
X232700676Y-80314885D01*
X232711152Y-80323259D01*
X232724600Y-80316190D01*
X233407978Y-79632812D01*
X233414356Y-79621132D01*
X234144408Y-79621132D01*
X234144539Y-79622965D01*
X234148790Y-79629580D01*
X234836122Y-80316912D01*
X234847896Y-80323342D01*
X234859912Y-80314046D01*
X234891940Y-80268305D01*
X234897419Y-80258815D01*
X234987625Y-80065367D01*
X234991371Y-80055075D01*
X235046614Y-79848904D01*
X235048517Y-79838109D01*
X235067121Y-79625475D01*
X235067121Y-79614525D01*
X235048517Y-79401891D01*
X235046614Y-79391096D01*
X234991371Y-79184925D01*
X234987625Y-79174633D01*
X234897419Y-78981185D01*
X234891940Y-78971695D01*
X234859324Y-78925115D01*
X234848848Y-78916741D01*
X234835400Y-78923810D01*
X234152022Y-79607188D01*
X234144408Y-79621132D01*
X233414356Y-79621132D01*
X233415592Y-79618868D01*
X233415461Y-79617035D01*
X233411210Y-79610420D01*
X232723878Y-78923088D01*
X232712104Y-78916658D01*
X232700088Y-78925954D01*
X232668060Y-78971695D01*
X232662581Y-78981185D01*
X232572375Y-79174633D01*
X232568629Y-79184925D01*
X232513386Y-79391096D01*
X232511483Y-79401891D01*
X232492879Y-79614525D01*
X232492879Y-79625475D01*
X230965829Y-79625475D01*
X232040152Y-78551152D01*
X233076741Y-78551152D01*
X233083810Y-78564600D01*
X233767188Y-79247978D01*
X233781132Y-79255592D01*
X233782965Y-79255461D01*
X233789580Y-79251210D01*
X234476912Y-78563878D01*
X234483342Y-78552104D01*
X234474046Y-78540088D01*
X234428305Y-78508060D01*
X234418815Y-78502581D01*
X234225367Y-78412375D01*
X234215075Y-78408629D01*
X234008904Y-78353386D01*
X233998109Y-78351483D01*
X233785475Y-78332879D01*
X233774525Y-78332879D01*
X233561891Y-78351483D01*
X233551096Y-78353386D01*
X233344925Y-78408629D01*
X233334633Y-78412375D01*
X233141185Y-78502581D01*
X233131695Y-78508060D01*
X233085115Y-78540676D01*
X233076741Y-78551152D01*
X232040152Y-78551152D01*
X234172247Y-76419057D01*
X234180537Y-76411513D01*
X234187018Y-76407400D01*
X234233659Y-76357732D01*
X234236413Y-76354891D01*
X234256135Y-76335169D01*
X234258612Y-76331976D01*
X234266317Y-76322955D01*
X234291159Y-76296500D01*
X234296586Y-76290721D01*
X234300407Y-76283771D01*
X234306346Y-76272968D01*
X234317202Y-76256441D01*
X234324757Y-76246702D01*
X234324758Y-76246700D01*
X234329614Y-76240440D01*
X234347174Y-76199860D01*
X234352391Y-76189212D01*
X234369875Y-76157409D01*
X234369876Y-76157407D01*
X234373695Y-76150460D01*
X234378733Y-76130837D01*
X234385137Y-76112134D01*
X234390033Y-76100820D01*
X234390033Y-76100819D01*
X234393181Y-76093545D01*
X234394420Y-76085722D01*
X234394423Y-76085712D01*
X234400099Y-76049876D01*
X234402505Y-76038256D01*
X234411528Y-76003111D01*
X234411528Y-76003110D01*
X234413500Y-75995430D01*
X234413500Y-75975176D01*
X234415051Y-75955465D01*
X234416980Y-75943286D01*
X234418220Y-75935457D01*
X234414059Y-75891438D01*
X234413500Y-75879581D01*
X234413500Y-73188508D01*
X234433502Y-73120387D01*
X234467228Y-73085296D01*
X234577040Y-73008405D01*
X234603465Y-72989902D01*
X234603468Y-72989900D01*
X234607976Y-72986743D01*
X234766743Y-72827976D01*
X234771400Y-72821326D01*
X234858285Y-72697241D01*
X234895529Y-72644051D01*
X234897852Y-72639069D01*
X234897855Y-72639064D01*
X234988097Y-72445539D01*
X234988098Y-72445538D01*
X234990420Y-72440557D01*
X235003273Y-72392591D01*
X235047109Y-72228992D01*
X235047109Y-72228990D01*
X235048533Y-72223677D01*
X235068102Y-72000000D01*
X235048533Y-71776323D01*
X235031123Y-71711349D01*
X234991843Y-71564753D01*
X234991842Y-71564751D01*
X234990420Y-71559443D01*
X234988097Y-71554461D01*
X234897855Y-71360936D01*
X234897852Y-71360931D01*
X234895529Y-71355949D01*
X234766743Y-71172024D01*
X234607976Y-71013257D01*
X234603468Y-71010100D01*
X234603465Y-71010098D01*
X234455210Y-70906289D01*
X234424051Y-70884471D01*
X234419069Y-70882148D01*
X234419064Y-70882145D01*
X234225539Y-70791903D01*
X234225538Y-70791902D01*
X234220557Y-70789580D01*
X234215249Y-70788158D01*
X234215247Y-70788157D01*
X234096008Y-70756207D01*
X234035385Y-70719255D01*
X234004364Y-70655394D01*
X234012792Y-70584900D01*
X234057995Y-70530153D01*
X234128619Y-70508500D01*
X241450633Y-70508500D01*
X241470018Y-70510000D01*
G37*
%TD.AperFunction*%
%TA.AperFunction,Conductor*%
G36*
X183859526Y-70528502D02*
G01*
X183906019Y-70582158D01*
X183916123Y-70652432D01*
X183886629Y-70717012D01*
X183880500Y-70723595D01*
X180371851Y-74232244D01*
X180309539Y-74266270D01*
X180250144Y-74264855D01*
X180239227Y-74261930D01*
X180224568Y-74258002D01*
X180224566Y-74258002D01*
X180219249Y-74256577D01*
X180000000Y-74237395D01*
X179780751Y-74256577D01*
X179775437Y-74258001D01*
X179775436Y-74258001D01*
X179573474Y-74312116D01*
X179573472Y-74312117D01*
X179568164Y-74313539D01*
X179563184Y-74315861D01*
X179563182Y-74315862D01*
X179373679Y-74404229D01*
X179373676Y-74404231D01*
X179368698Y-74406552D01*
X179188413Y-74532788D01*
X179032788Y-74688413D01*
X178906552Y-74868698D01*
X178904231Y-74873676D01*
X178904229Y-74873679D01*
X178828752Y-75035539D01*
X178813539Y-75068164D01*
X178812117Y-75073472D01*
X178812116Y-75073474D01*
X178783683Y-75179589D01*
X178756577Y-75280751D01*
X178737395Y-75500000D01*
X178756577Y-75719249D01*
X178758001Y-75724564D01*
X178758002Y-75724567D01*
X178778425Y-75800790D01*
X178776735Y-75871766D01*
X178736940Y-75930562D01*
X178671676Y-75958509D01*
X178656718Y-75959400D01*
X177907494Y-75959400D01*
X177839373Y-75939398D01*
X177818399Y-75922495D01*
X177767755Y-75871851D01*
X177733729Y-75809539D01*
X177735144Y-75750143D01*
X177741997Y-75724568D01*
X177741998Y-75724564D01*
X177743422Y-75719249D01*
X177762604Y-75500000D01*
X177743422Y-75280751D01*
X177716316Y-75179589D01*
X177687883Y-75073474D01*
X177687882Y-75073472D01*
X177686460Y-75068164D01*
X177671247Y-75035539D01*
X177595770Y-74873679D01*
X177595768Y-74873676D01*
X177593447Y-74868698D01*
X177467211Y-74688413D01*
X177311586Y-74532788D01*
X177307078Y-74529631D01*
X177307075Y-74529629D01*
X177135811Y-74409709D01*
X177135808Y-74409707D01*
X177131302Y-74406552D01*
X177126320Y-74404229D01*
X177126315Y-74404226D01*
X176936817Y-74315862D01*
X176936816Y-74315861D01*
X176931835Y-74313539D01*
X176926527Y-74312117D01*
X176926525Y-74312116D01*
X176724563Y-74258001D01*
X176724562Y-74258001D01*
X176719248Y-74256577D01*
X176499999Y-74237395D01*
X176280750Y-74256577D01*
X176275436Y-74258001D01*
X176275435Y-74258001D01*
X176073473Y-74312116D01*
X176073471Y-74312117D01*
X176068163Y-74313539D01*
X176063183Y-74315861D01*
X176063181Y-74315862D01*
X175873678Y-74404229D01*
X175873675Y-74404231D01*
X175868697Y-74406552D01*
X175688412Y-74532788D01*
X175532787Y-74688413D01*
X175406551Y-74868698D01*
X175404230Y-74873676D01*
X175404228Y-74873679D01*
X175328751Y-75035539D01*
X175313538Y-75068164D01*
X175312116Y-75073472D01*
X175312115Y-75073474D01*
X175283682Y-75179589D01*
X175256576Y-75280751D01*
X175237394Y-75500000D01*
X175256576Y-75719249D01*
X175258000Y-75724563D01*
X175258000Y-75724564D01*
X175282358Y-75815468D01*
X175313538Y-75931836D01*
X175315860Y-75936816D01*
X175315861Y-75936818D01*
X175397613Y-76112134D01*
X175406551Y-76131302D01*
X175532787Y-76311587D01*
X175688412Y-76467212D01*
X175692920Y-76470369D01*
X175692923Y-76470371D01*
X175863566Y-76589856D01*
X175868696Y-76593448D01*
X175873678Y-76595771D01*
X175873683Y-76595774D01*
X176050861Y-76678393D01*
X176068163Y-76686461D01*
X176073471Y-76687883D01*
X176073473Y-76687884D01*
X176275435Y-76741999D01*
X176275436Y-76741999D01*
X176280750Y-76743423D01*
X176499999Y-76762605D01*
X176719248Y-76743423D01*
X176724559Y-76742000D01*
X176724570Y-76741998D01*
X176750144Y-76735145D01*
X176821121Y-76736834D01*
X176871852Y-76767756D01*
X177089253Y-76985158D01*
X177096787Y-76993437D01*
X177100900Y-76999918D01*
X177121995Y-77019727D01*
X177150551Y-77046543D01*
X177153393Y-77049298D01*
X177173130Y-77069035D01*
X177176327Y-77071515D01*
X177185347Y-77079218D01*
X177217579Y-77109486D01*
X177224525Y-77113305D01*
X177224528Y-77113307D01*
X177235334Y-77119248D01*
X177251853Y-77130099D01*
X177267859Y-77142514D01*
X177275128Y-77145659D01*
X177275132Y-77145662D01*
X177308437Y-77160074D01*
X177319087Y-77165291D01*
X177357840Y-77186595D01*
X177365515Y-77188566D01*
X177365516Y-77188566D01*
X177377462Y-77191633D01*
X177396167Y-77198037D01*
X177414755Y-77206081D01*
X177422578Y-77207320D01*
X177422588Y-77207323D01*
X177458424Y-77212999D01*
X177470044Y-77215405D01*
X177501859Y-77223573D01*
X177512870Y-77226400D01*
X177533124Y-77226400D01*
X177552834Y-77227951D01*
X177572843Y-77231120D01*
X177580735Y-77230374D01*
X177599480Y-77228602D01*
X177616862Y-77226959D01*
X177628719Y-77226400D01*
X190503133Y-77226400D01*
X190514316Y-77226927D01*
X190521809Y-77228602D01*
X190529735Y-77228353D01*
X190529736Y-77228353D01*
X190589886Y-77226462D01*
X190593845Y-77226400D01*
X190621756Y-77226400D01*
X190625691Y-77225903D01*
X190625756Y-77225895D01*
X190637593Y-77224962D01*
X190669851Y-77223948D01*
X190673870Y-77223822D01*
X190681789Y-77223573D01*
X190701243Y-77217921D01*
X190720600Y-77213913D01*
X190732830Y-77212368D01*
X190732831Y-77212368D01*
X190740697Y-77211374D01*
X190748068Y-77208455D01*
X190748070Y-77208455D01*
X190781812Y-77195096D01*
X190793042Y-77191251D01*
X190827883Y-77181129D01*
X190827884Y-77181129D01*
X190835493Y-77178918D01*
X190842312Y-77174885D01*
X190842317Y-77174883D01*
X190852928Y-77168607D01*
X190870676Y-77159912D01*
X190889517Y-77152452D01*
X190925287Y-77126464D01*
X190935207Y-77119948D01*
X190966435Y-77101480D01*
X190966438Y-77101478D01*
X190973262Y-77097442D01*
X190987583Y-77083121D01*
X191002617Y-77070280D01*
X191012594Y-77063031D01*
X191019007Y-77058372D01*
X191047198Y-77024295D01*
X191055188Y-77015516D01*
X191961309Y-76109395D01*
X192023621Y-76075369D01*
X192094436Y-76080434D01*
X192151272Y-76122981D01*
X192156046Y-76130219D01*
X192156551Y-76131302D01*
X192159707Y-76135809D01*
X192159708Y-76135811D01*
X192169965Y-76150460D01*
X192282787Y-76311587D01*
X192438412Y-76467212D01*
X192442920Y-76470369D01*
X192442923Y-76470371D01*
X192613566Y-76589856D01*
X192618696Y-76593448D01*
X192623678Y-76595771D01*
X192623683Y-76595774D01*
X192800861Y-76678393D01*
X192818163Y-76686461D01*
X192823471Y-76687883D01*
X192823473Y-76687884D01*
X193025435Y-76741999D01*
X193025436Y-76741999D01*
X193030750Y-76743423D01*
X193249999Y-76762605D01*
X193469248Y-76743423D01*
X193474561Y-76741999D01*
X193474563Y-76741999D01*
X193500146Y-76735144D01*
X193571123Y-76736834D01*
X193621852Y-76767756D01*
X201625200Y-84771105D01*
X201659226Y-84833417D01*
X201654161Y-84904232D01*
X201611614Y-84961068D01*
X201545094Y-84985879D01*
X201536105Y-84986200D01*
X182669768Y-84986200D01*
X182658585Y-84985673D01*
X182651092Y-84983998D01*
X182643166Y-84984247D01*
X182643165Y-84984247D01*
X182583002Y-84986138D01*
X182579044Y-84986200D01*
X182551144Y-84986200D01*
X182547154Y-84986704D01*
X182535320Y-84987636D01*
X182491111Y-84989026D01*
X182483495Y-84991239D01*
X182483493Y-84991239D01*
X182471652Y-84994679D01*
X182452293Y-84998688D01*
X182450983Y-84998854D01*
X182432203Y-85001226D01*
X182424837Y-85004142D01*
X182424831Y-85004144D01*
X182391098Y-85017500D01*
X182379868Y-85021345D01*
X182345017Y-85031470D01*
X182337407Y-85033681D01*
X182330584Y-85037716D01*
X182319966Y-85043995D01*
X182302213Y-85052692D01*
X182294568Y-85055719D01*
X182283383Y-85060148D01*
X182264082Y-85074171D01*
X182247612Y-85086137D01*
X182237695Y-85092651D01*
X182199638Y-85115158D01*
X182185317Y-85129479D01*
X182170284Y-85142319D01*
X182153893Y-85154228D01*
X182148842Y-85160334D01*
X182125702Y-85188305D01*
X182117712Y-85197084D01*
X167350500Y-99964295D01*
X167288188Y-99998321D01*
X167261405Y-100001200D01*
X166896881Y-100001200D01*
X166828760Y-99981198D01*
X166782267Y-99927542D01*
X166772163Y-99857268D01*
X166783923Y-99819374D01*
X166807430Y-99771811D01*
X166872370Y-99558069D01*
X166901529Y-99336590D01*
X166902325Y-99304030D01*
X166903074Y-99273365D01*
X166903074Y-99273361D01*
X166903156Y-99270000D01*
X166884852Y-99047361D01*
X166830431Y-98830702D01*
X166741354Y-98625840D01*
X166627857Y-98450400D01*
X166622822Y-98442617D01*
X166622820Y-98442614D01*
X166620014Y-98438277D01*
X166469670Y-98273051D01*
X166465619Y-98269852D01*
X166465615Y-98269848D01*
X166298414Y-98137800D01*
X166298410Y-98137798D01*
X166294359Y-98134598D01*
X166253053Y-98111796D01*
X166203084Y-98061364D01*
X166188312Y-97991921D01*
X166213428Y-97925516D01*
X166240780Y-97898909D01*
X166284603Y-97867650D01*
X166419860Y-97771173D01*
X166578096Y-97613489D01*
X166637594Y-97530689D01*
X166705435Y-97436277D01*
X166708453Y-97432077D01*
X166721995Y-97404678D01*
X166805136Y-97236453D01*
X166805137Y-97236451D01*
X166807430Y-97231811D01*
X166872370Y-97018069D01*
X166901529Y-96796590D01*
X166902324Y-96764051D01*
X166903074Y-96733365D01*
X166903074Y-96733361D01*
X166903156Y-96730000D01*
X166884852Y-96507361D01*
X166830431Y-96290702D01*
X166741354Y-96085840D01*
X166620014Y-95898277D01*
X166469670Y-95733051D01*
X166465619Y-95729852D01*
X166465615Y-95729848D01*
X166298414Y-95597800D01*
X166298410Y-95597798D01*
X166294359Y-95594598D01*
X166253053Y-95571796D01*
X166203084Y-95521364D01*
X166188312Y-95451921D01*
X166213428Y-95385516D01*
X166240780Y-95358909D01*
X166309879Y-95309621D01*
X166419860Y-95231173D01*
X166477893Y-95173343D01*
X166552720Y-95098776D01*
X166578096Y-95073489D01*
X166584484Y-95064600D01*
X166705435Y-94896277D01*
X166708453Y-94892077D01*
X166721995Y-94864678D01*
X166805136Y-94696453D01*
X166805137Y-94696451D01*
X166807430Y-94691811D01*
X166852519Y-94543407D01*
X166870865Y-94483023D01*
X166870865Y-94483021D01*
X166872370Y-94478069D01*
X166901529Y-94256590D01*
X166903156Y-94190000D01*
X166884852Y-93967361D01*
X166830431Y-93750702D01*
X166741354Y-93545840D01*
X166637766Y-93385717D01*
X166622822Y-93362617D01*
X166622820Y-93362614D01*
X166620014Y-93358277D01*
X166469670Y-93193051D01*
X166465619Y-93189852D01*
X166465615Y-93189848D01*
X166298414Y-93057800D01*
X166298410Y-93057798D01*
X166294359Y-93054598D01*
X166252569Y-93031529D01*
X166202598Y-92981097D01*
X166187826Y-92911654D01*
X166212942Y-92845248D01*
X166240294Y-92818641D01*
X166415328Y-92693792D01*
X166423200Y-92687139D01*
X166574052Y-92536812D01*
X166580730Y-92528965D01*
X166705003Y-92356020D01*
X166710313Y-92347183D01*
X166804670Y-92156267D01*
X166808469Y-92146672D01*
X166870377Y-91942910D01*
X166872555Y-91932837D01*
X166873986Y-91921962D01*
X166871775Y-91907778D01*
X166858617Y-91904000D01*
X165412000Y-91904000D01*
X165343879Y-91883998D01*
X165297386Y-91830342D01*
X165286000Y-91778000D01*
X165286000Y-91522000D01*
X165306002Y-91453879D01*
X165359658Y-91407386D01*
X165412000Y-91396000D01*
X166858344Y-91396000D01*
X166871875Y-91392027D01*
X166873180Y-91382947D01*
X166831214Y-91215875D01*
X166827894Y-91206124D01*
X166742971Y-91010812D01*
X166738105Y-91001739D01*
X166622426Y-90822926D01*
X166616136Y-90814757D01*
X166472806Y-90657240D01*
X166465273Y-90650215D01*
X166298139Y-90518222D01*
X166289556Y-90512520D01*
X166252602Y-90492120D01*
X166202631Y-90441687D01*
X166187859Y-90372245D01*
X166212975Y-90305839D01*
X166240327Y-90279232D01*
X166263797Y-90262491D01*
X166419860Y-90151173D01*
X166578096Y-89993489D01*
X166637594Y-89910689D01*
X166705435Y-89816277D01*
X166708453Y-89812077D01*
X166720108Y-89788496D01*
X166805136Y-89616453D01*
X166805137Y-89616451D01*
X166807430Y-89611811D01*
X166872370Y-89398069D01*
X166901529Y-89176590D01*
X166902522Y-89135954D01*
X166903074Y-89113365D01*
X166903074Y-89113361D01*
X166903156Y-89110000D01*
X166884852Y-88887361D01*
X166830431Y-88670702D01*
X166756207Y-88500000D01*
X172711898Y-88500000D01*
X172731467Y-88723677D01*
X172732891Y-88728990D01*
X172732891Y-88728992D01*
X172786660Y-88929658D01*
X172789580Y-88940557D01*
X172791902Y-88945538D01*
X172791903Y-88945539D01*
X172882145Y-89139064D01*
X172882148Y-89139069D01*
X172884471Y-89144051D01*
X172917475Y-89191185D01*
X172989850Y-89294547D01*
X173013257Y-89327976D01*
X173172024Y-89486743D01*
X173176532Y-89489900D01*
X173176535Y-89489902D01*
X173208946Y-89512596D01*
X173355949Y-89615529D01*
X173360931Y-89617852D01*
X173360936Y-89617855D01*
X173554461Y-89708097D01*
X173559443Y-89710420D01*
X173564751Y-89711842D01*
X173564753Y-89711843D01*
X173771008Y-89767109D01*
X173771010Y-89767109D01*
X173776323Y-89768533D01*
X174000000Y-89788102D01*
X174223677Y-89768533D01*
X174228990Y-89767109D01*
X174228992Y-89767109D01*
X174435247Y-89711843D01*
X174435249Y-89711842D01*
X174440557Y-89710420D01*
X174445539Y-89708097D01*
X174639064Y-89617855D01*
X174639069Y-89617852D01*
X174644051Y-89615529D01*
X174791054Y-89512596D01*
X174823465Y-89489902D01*
X174823468Y-89489900D01*
X174827976Y-89486743D01*
X174986743Y-89327976D01*
X175010151Y-89294547D01*
X175082525Y-89191185D01*
X175115529Y-89144051D01*
X175117852Y-89139069D01*
X175117855Y-89139064D01*
X175208097Y-88945539D01*
X175208098Y-88945538D01*
X175210420Y-88940557D01*
X175213341Y-88929658D01*
X175267109Y-88728992D01*
X175267109Y-88728990D01*
X175268533Y-88723677D01*
X175288102Y-88500000D01*
X175268533Y-88276323D01*
X175263198Y-88256411D01*
X175211843Y-88064753D01*
X175211842Y-88064751D01*
X175210420Y-88059443D01*
X175207249Y-88052642D01*
X175117855Y-87860936D01*
X175117852Y-87860931D01*
X175115529Y-87855949D01*
X175027180Y-87729774D01*
X174989902Y-87676535D01*
X174989900Y-87676532D01*
X174986743Y-87672024D01*
X174827976Y-87513257D01*
X174823468Y-87510100D01*
X174823465Y-87510098D01*
X174736625Y-87449292D01*
X174644051Y-87384471D01*
X174639069Y-87382148D01*
X174639064Y-87382145D01*
X174445539Y-87291903D01*
X174445538Y-87291902D01*
X174440557Y-87289580D01*
X174435249Y-87288158D01*
X174435247Y-87288157D01*
X174228992Y-87232891D01*
X174228990Y-87232891D01*
X174223677Y-87231467D01*
X174000000Y-87211898D01*
X173776323Y-87231467D01*
X173771010Y-87232891D01*
X173771008Y-87232891D01*
X173564753Y-87288157D01*
X173564751Y-87288158D01*
X173559443Y-87289580D01*
X173554462Y-87291902D01*
X173554461Y-87291903D01*
X173360936Y-87382145D01*
X173360931Y-87382148D01*
X173355949Y-87384471D01*
X173263375Y-87449292D01*
X173176535Y-87510098D01*
X173176532Y-87510100D01*
X173172024Y-87513257D01*
X173013257Y-87672024D01*
X173010100Y-87676532D01*
X173010098Y-87676535D01*
X172972820Y-87729774D01*
X172884471Y-87855949D01*
X172882148Y-87860931D01*
X172882145Y-87860936D01*
X172792751Y-88052642D01*
X172789580Y-88059443D01*
X172788158Y-88064751D01*
X172788157Y-88064753D01*
X172736802Y-88256411D01*
X172731467Y-88276323D01*
X172711898Y-88500000D01*
X166756207Y-88500000D01*
X166741354Y-88465840D01*
X166620014Y-88278277D01*
X166469670Y-88113051D01*
X166465619Y-88109852D01*
X166465615Y-88109848D01*
X166298414Y-87977800D01*
X166298410Y-87977798D01*
X166294359Y-87974598D01*
X166253053Y-87951796D01*
X166203084Y-87901364D01*
X166188312Y-87831921D01*
X166213428Y-87765516D01*
X166240780Y-87738909D01*
X166284603Y-87707650D01*
X166419860Y-87611173D01*
X166578096Y-87453489D01*
X166637594Y-87370689D01*
X166705435Y-87276277D01*
X166708453Y-87272077D01*
X166728761Y-87230988D01*
X166805136Y-87076453D01*
X166805137Y-87076451D01*
X166807430Y-87071811D01*
X166872370Y-86858069D01*
X166901529Y-86636590D01*
X166903156Y-86570000D01*
X166884852Y-86347361D01*
X166830431Y-86130702D01*
X166741354Y-85925840D01*
X166652247Y-85788102D01*
X166622822Y-85742617D01*
X166622820Y-85742614D01*
X166620014Y-85738277D01*
X166469670Y-85573051D01*
X166465619Y-85569852D01*
X166465615Y-85569848D01*
X166298414Y-85437800D01*
X166298410Y-85437798D01*
X166294359Y-85434598D01*
X166098789Y-85326638D01*
X166093920Y-85324914D01*
X166093916Y-85324912D01*
X165893087Y-85253795D01*
X165893083Y-85253794D01*
X165888212Y-85252069D01*
X165883119Y-85251162D01*
X165883116Y-85251161D01*
X165673373Y-85213800D01*
X165673367Y-85213799D01*
X165668284Y-85212894D01*
X165594452Y-85211992D01*
X165450081Y-85210228D01*
X165450079Y-85210228D01*
X165444911Y-85210165D01*
X165224091Y-85243955D01*
X165011756Y-85313357D01*
X164813607Y-85416507D01*
X164809474Y-85419610D01*
X164809471Y-85419612D01*
X164639100Y-85547530D01*
X164634965Y-85550635D01*
X164557090Y-85632127D01*
X164554283Y-85635064D01*
X164492759Y-85670494D01*
X164421846Y-85667037D01*
X164364060Y-85625791D01*
X164345207Y-85592243D01*
X164305656Y-85486743D01*
X164300615Y-85473295D01*
X164213261Y-85356739D01*
X164096705Y-85269385D01*
X163960316Y-85218255D01*
X163898134Y-85211500D01*
X162101866Y-85211500D01*
X162039684Y-85218255D01*
X161903295Y-85269385D01*
X161786739Y-85356739D01*
X161699385Y-85473295D01*
X161648255Y-85609684D01*
X161641500Y-85671866D01*
X161641500Y-87468134D01*
X161648255Y-87530316D01*
X161699385Y-87666705D01*
X161786739Y-87783261D01*
X161903295Y-87870615D01*
X161911704Y-87873767D01*
X161911705Y-87873768D01*
X162020451Y-87914535D01*
X162077216Y-87957176D01*
X162101916Y-88023738D01*
X162086709Y-88093087D01*
X162067316Y-88119568D01*
X161940629Y-88252138D01*
X161937720Y-88256403D01*
X161937714Y-88256411D01*
X161927757Y-88271008D01*
X161814743Y-88436680D01*
X161785351Y-88500000D01*
X161728547Y-88622375D01*
X161720688Y-88639305D01*
X161660989Y-88854570D01*
X161637251Y-89076695D01*
X161637548Y-89081848D01*
X161637548Y-89081851D01*
X161643011Y-89176590D01*
X161650110Y-89299715D01*
X161651247Y-89304761D01*
X161651248Y-89304767D01*
X161669247Y-89384633D01*
X161699222Y-89517639D01*
X161737689Y-89612372D01*
X161777502Y-89710420D01*
X161783266Y-89724616D01*
X161821877Y-89787623D01*
X161897291Y-89910688D01*
X161899987Y-89915088D01*
X162046250Y-90083938D01*
X162122376Y-90147139D01*
X162213259Y-90222591D01*
X162218126Y-90226632D01*
X162283914Y-90265075D01*
X162291445Y-90269476D01*
X162340169Y-90321114D01*
X162353240Y-90390897D01*
X162326509Y-90456669D01*
X162286055Y-90490027D01*
X162273607Y-90496507D01*
X162269474Y-90499610D01*
X162269471Y-90499612D01*
X162224547Y-90533342D01*
X162094965Y-90630635D01*
X161940629Y-90792138D01*
X161937720Y-90796403D01*
X161937714Y-90796411D01*
X161860289Y-90909912D01*
X161814743Y-90976680D01*
X161777118Y-91057737D01*
X161742063Y-91133257D01*
X161720688Y-91179305D01*
X161660989Y-91394570D01*
X161637251Y-91616695D01*
X161637548Y-91621848D01*
X161637548Y-91621851D01*
X161646552Y-91778000D01*
X161650110Y-91839715D01*
X161651247Y-91844761D01*
X161651248Y-91844767D01*
X161674625Y-91948495D01*
X161699222Y-92057639D01*
X161783266Y-92264616D01*
X161828302Y-92338109D01*
X161897291Y-92450688D01*
X161899987Y-92455088D01*
X162046250Y-92623938D01*
X162218126Y-92766632D01*
X162288595Y-92807811D01*
X162291445Y-92809476D01*
X162340169Y-92861114D01*
X162353240Y-92930897D01*
X162326509Y-92996669D01*
X162286055Y-93030027D01*
X162273607Y-93036507D01*
X162269474Y-93039610D01*
X162269471Y-93039612D01*
X162099100Y-93167530D01*
X162094965Y-93170635D01*
X161940629Y-93332138D01*
X161937720Y-93336403D01*
X161937714Y-93336411D01*
X161885598Y-93412810D01*
X161814743Y-93516680D01*
X161720688Y-93719305D01*
X161660989Y-93934570D01*
X161637251Y-94156695D01*
X161637548Y-94161848D01*
X161637548Y-94161851D01*
X161643011Y-94256590D01*
X161650110Y-94379715D01*
X161651247Y-94384761D01*
X161651248Y-94384767D01*
X161660781Y-94427066D01*
X161699222Y-94597639D01*
X161783266Y-94804616D01*
X161831066Y-94882618D01*
X161897291Y-94990688D01*
X161899987Y-94995088D01*
X162046250Y-95163938D01*
X162172588Y-95268826D01*
X162211062Y-95300767D01*
X162218126Y-95306632D01*
X162290978Y-95349203D01*
X162291955Y-95349774D01*
X162340679Y-95401412D01*
X162353750Y-95471195D01*
X162327019Y-95536967D01*
X162286562Y-95570327D01*
X162278457Y-95574546D01*
X162269738Y-95580036D01*
X162099433Y-95707905D01*
X162091726Y-95714748D01*
X161944590Y-95868717D01*
X161938104Y-95876727D01*
X161818098Y-96052649D01*
X161813000Y-96061623D01*
X161723338Y-96254783D01*
X161719775Y-96264470D01*
X161664389Y-96464183D01*
X161665912Y-96472607D01*
X161678292Y-96476000D01*
X163128000Y-96476000D01*
X163196121Y-96496002D01*
X163242614Y-96549658D01*
X163254000Y-96602000D01*
X163254000Y-96858000D01*
X163233998Y-96926121D01*
X163180342Y-96972614D01*
X163128000Y-96984000D01*
X161683225Y-96984000D01*
X161669694Y-96987973D01*
X161668257Y-96997966D01*
X161698565Y-97132446D01*
X161701645Y-97142275D01*
X161781770Y-97339603D01*
X161786413Y-97348794D01*
X161897694Y-97530388D01*
X161903777Y-97538699D01*
X162043213Y-97699667D01*
X162050580Y-97706883D01*
X162214434Y-97842916D01*
X162222881Y-97848831D01*
X162291969Y-97889203D01*
X162340693Y-97940842D01*
X162353764Y-98010625D01*
X162327033Y-98076396D01*
X162286584Y-98109752D01*
X162273607Y-98116507D01*
X162269474Y-98119610D01*
X162269471Y-98119612D01*
X162099100Y-98247530D01*
X162094965Y-98250635D01*
X161940629Y-98412138D01*
X161937720Y-98416403D01*
X161937714Y-98416411D01*
X161882187Y-98497811D01*
X161814743Y-98596680D01*
X161777133Y-98677705D01*
X161725863Y-98788157D01*
X161720688Y-98799305D01*
X161660989Y-99014570D01*
X161637251Y-99236695D01*
X161637548Y-99241848D01*
X161637548Y-99241851D01*
X161646552Y-99398000D01*
X161650110Y-99459715D01*
X161651247Y-99464761D01*
X161651248Y-99464767D01*
X161663065Y-99517200D01*
X161699222Y-99677639D01*
X161739293Y-99776323D01*
X161775477Y-99865433D01*
X161783266Y-99884616D01*
X161821375Y-99946805D01*
X161897291Y-100070688D01*
X161899987Y-100075088D01*
X162046250Y-100243938D01*
X162218126Y-100386632D01*
X162246917Y-100403456D01*
X162291445Y-100429476D01*
X162340169Y-100481114D01*
X162353240Y-100550897D01*
X162326509Y-100616669D01*
X162286055Y-100650027D01*
X162273607Y-100656507D01*
X162269474Y-100659610D01*
X162269471Y-100659612D01*
X162115673Y-100775087D01*
X162094965Y-100790635D01*
X161940629Y-100952138D01*
X161937720Y-100956403D01*
X161937714Y-100956411D01*
X161884327Y-101034673D01*
X161814743Y-101136680D01*
X161780520Y-101210407D01*
X161728332Y-101322838D01*
X161720688Y-101339305D01*
X161660989Y-101554570D01*
X161637251Y-101776695D01*
X161637548Y-101781848D01*
X161637548Y-101781851D01*
X161646938Y-101944707D01*
X161650110Y-101999715D01*
X161651247Y-102004761D01*
X161651248Y-102004767D01*
X161660329Y-102045060D01*
X161699222Y-102217639D01*
X161783266Y-102424616D01*
X161833863Y-102507183D01*
X161897291Y-102610688D01*
X161899987Y-102615088D01*
X162046250Y-102783938D01*
X162218126Y-102926632D01*
X162288595Y-102967811D01*
X162291445Y-102969476D01*
X162340169Y-103021114D01*
X162353240Y-103090897D01*
X162326509Y-103156669D01*
X162286055Y-103190027D01*
X162273607Y-103196507D01*
X162269474Y-103199610D01*
X162269471Y-103199612D01*
X162099100Y-103327530D01*
X162094965Y-103330635D01*
X161940629Y-103492138D01*
X161814743Y-103676680D01*
X161720688Y-103879305D01*
X161660989Y-104094570D01*
X161637251Y-104316695D01*
X161637548Y-104321848D01*
X161637548Y-104321851D01*
X161643011Y-104416590D01*
X161650110Y-104539715D01*
X161651247Y-104544761D01*
X161651248Y-104544767D01*
X161665316Y-104607188D01*
X161699222Y-104757639D01*
X161759014Y-104904890D01*
X161776662Y-104948351D01*
X161783266Y-104964616D01*
X161831307Y-105043012D01*
X161897291Y-105150688D01*
X161899987Y-105155088D01*
X162046250Y-105323938D01*
X162218126Y-105466632D01*
X162222593Y-105469242D01*
X162291445Y-105509476D01*
X162340169Y-105561114D01*
X162353240Y-105630897D01*
X162326509Y-105696669D01*
X162286054Y-105730028D01*
X162273607Y-105736507D01*
X162269465Y-105739617D01*
X162134193Y-105841182D01*
X162094965Y-105870635D01*
X161940629Y-106032138D01*
X161937715Y-106036410D01*
X161937714Y-106036411D01*
X161925404Y-106054457D01*
X161814743Y-106216680D01*
X161770187Y-106312669D01*
X161723905Y-106412375D01*
X161720688Y-106419305D01*
X161660989Y-106634570D01*
X161637251Y-106856695D01*
X161637548Y-106861848D01*
X161637548Y-106861851D01*
X161644429Y-106981185D01*
X161650110Y-107079715D01*
X161651247Y-107084761D01*
X161651248Y-107084767D01*
X161662031Y-107132614D01*
X161699222Y-107297639D01*
X161783266Y-107504616D01*
X161785965Y-107509020D01*
X161897291Y-107690688D01*
X161899987Y-107695088D01*
X162046250Y-107863938D01*
X162218126Y-108006632D01*
X162288595Y-108047811D01*
X162291445Y-108049476D01*
X162340169Y-108101114D01*
X162353240Y-108170897D01*
X162326509Y-108236669D01*
X162286055Y-108270027D01*
X162273607Y-108276507D01*
X162269474Y-108279610D01*
X162269471Y-108279612D01*
X162099100Y-108407530D01*
X162094965Y-108410635D01*
X162091393Y-108414373D01*
X162012629Y-108496795D01*
X161940629Y-108572138D01*
X161937720Y-108576403D01*
X161937714Y-108576411D01*
X161864408Y-108683874D01*
X161814743Y-108756680D01*
X161780514Y-108830420D01*
X161744456Y-108908102D01*
X161720688Y-108959305D01*
X161660989Y-109174570D01*
X161637251Y-109396695D01*
X161637548Y-109401848D01*
X161637548Y-109401851D01*
X161643011Y-109496590D01*
X161650110Y-109619715D01*
X161651247Y-109624761D01*
X161651248Y-109624767D01*
X161664597Y-109684000D01*
X161699222Y-109837639D01*
X161783266Y-110044616D01*
X161833863Y-110127183D01*
X161897291Y-110230688D01*
X161899987Y-110235088D01*
X162046250Y-110403938D01*
X162218126Y-110546632D01*
X162411000Y-110659338D01*
X162619692Y-110739030D01*
X162624760Y-110740061D01*
X162624763Y-110740062D01*
X162719862Y-110759410D01*
X162838597Y-110783567D01*
X162843772Y-110783757D01*
X162843774Y-110783757D01*
X163056673Y-110791564D01*
X163056677Y-110791564D01*
X163061837Y-110791753D01*
X163066957Y-110791097D01*
X163066959Y-110791097D01*
X163278288Y-110764025D01*
X163278289Y-110764025D01*
X163283416Y-110763368D01*
X163288366Y-110761883D01*
X163492429Y-110700661D01*
X163492434Y-110700659D01*
X163497384Y-110699174D01*
X163697994Y-110600896D01*
X163879860Y-110471173D01*
X164038096Y-110313489D01*
X164097594Y-110230689D01*
X164168453Y-110132077D01*
X164169640Y-110132930D01*
X164216960Y-110089362D01*
X164286897Y-110077145D01*
X164352338Y-110104678D01*
X164380166Y-110136511D01*
X164437694Y-110230388D01*
X164443777Y-110238699D01*
X164583213Y-110399667D01*
X164590580Y-110406883D01*
X164754434Y-110542916D01*
X164762881Y-110548831D01*
X164946756Y-110656279D01*
X164956042Y-110660729D01*
X165155001Y-110736703D01*
X165164899Y-110739579D01*
X165268250Y-110760606D01*
X165282299Y-110759410D01*
X165286000Y-110749065D01*
X165286000Y-110748517D01*
X165794000Y-110748517D01*
X165798064Y-110762359D01*
X165811478Y-110764393D01*
X165818184Y-110763534D01*
X165828262Y-110761392D01*
X166032255Y-110700191D01*
X166041842Y-110696433D01*
X166233095Y-110602739D01*
X166241945Y-110597464D01*
X166415328Y-110473792D01*
X166423200Y-110467139D01*
X166574052Y-110316812D01*
X166580730Y-110308965D01*
X166705003Y-110136020D01*
X166710313Y-110127183D01*
X166804670Y-109936267D01*
X166808469Y-109926672D01*
X166870377Y-109722910D01*
X166872555Y-109712837D01*
X166873986Y-109701962D01*
X166871775Y-109687778D01*
X166858617Y-109684000D01*
X165812115Y-109684000D01*
X165796876Y-109688475D01*
X165795671Y-109689865D01*
X165794000Y-109697548D01*
X165794000Y-110748517D01*
X165286000Y-110748517D01*
X165286000Y-109302000D01*
X165306002Y-109233879D01*
X165359658Y-109187386D01*
X165412000Y-109176000D01*
X166858344Y-109176000D01*
X166871875Y-109172027D01*
X166873180Y-109162947D01*
X166831214Y-108995875D01*
X166827894Y-108986124D01*
X166742972Y-108790814D01*
X166738105Y-108781739D01*
X166680041Y-108691985D01*
X166659834Y-108623925D01*
X166679630Y-108555744D01*
X166697771Y-108533877D01*
X166701907Y-108530872D01*
X166706951Y-108524775D01*
X166706954Y-108524772D01*
X166730098Y-108496795D01*
X166738088Y-108488016D01*
X168390600Y-106835505D01*
X168452912Y-106801479D01*
X168479695Y-106798600D01*
X175309390Y-106798600D01*
X175377511Y-106818602D01*
X175424004Y-106872258D01*
X175434108Y-106942532D01*
X175423586Y-106977847D01*
X175329580Y-107179443D01*
X175328158Y-107184751D01*
X175328157Y-107184753D01*
X175297909Y-107297639D01*
X175271467Y-107396323D01*
X175251898Y-107620000D01*
X175271467Y-107843677D01*
X175272891Y-107848990D01*
X175272891Y-107848992D01*
X175294912Y-107931173D01*
X175329580Y-108060557D01*
X175331902Y-108065538D01*
X175331903Y-108065539D01*
X175422145Y-108259064D01*
X175422148Y-108259069D01*
X175424471Y-108264051D01*
X175460979Y-108316190D01*
X175540564Y-108429848D01*
X175553257Y-108447976D01*
X175712024Y-108606743D01*
X175716532Y-108609900D01*
X175716535Y-108609902D01*
X175753891Y-108636059D01*
X175895949Y-108735529D01*
X175900931Y-108737852D01*
X175900936Y-108737855D01*
X176093449Y-108827625D01*
X176099443Y-108830420D01*
X176104751Y-108831842D01*
X176104753Y-108831843D01*
X176311008Y-108887109D01*
X176311010Y-108887109D01*
X176316323Y-108888533D01*
X176540000Y-108908102D01*
X176763677Y-108888533D01*
X176768990Y-108887109D01*
X176768992Y-108887109D01*
X176975247Y-108831843D01*
X176975249Y-108831842D01*
X176980557Y-108830420D01*
X176986551Y-108827625D01*
X177179064Y-108737855D01*
X177179069Y-108737852D01*
X177184051Y-108735529D01*
X177326109Y-108636059D01*
X177363465Y-108609902D01*
X177363468Y-108609900D01*
X177367976Y-108606743D01*
X177526743Y-108447976D01*
X177539437Y-108429848D01*
X177619021Y-108316190D01*
X177655529Y-108264051D01*
X177657852Y-108259069D01*
X177657855Y-108259064D01*
X177748097Y-108065539D01*
X177748098Y-108065538D01*
X177750420Y-108060557D01*
X177785089Y-107931173D01*
X177807109Y-107848992D01*
X177807109Y-107848990D01*
X177808533Y-107843677D01*
X177828102Y-107620000D01*
X177808533Y-107396323D01*
X177782091Y-107297639D01*
X177751843Y-107184753D01*
X177751842Y-107184751D01*
X177750420Y-107179443D01*
X177656415Y-106977849D01*
X177645754Y-106907659D01*
X177674734Y-106842846D01*
X177734153Y-106803989D01*
X177770610Y-106798600D01*
X185468033Y-106798600D01*
X185479216Y-106799127D01*
X185486709Y-106800802D01*
X185494632Y-106800553D01*
X185494633Y-106800553D01*
X185494825Y-106800547D01*
X185495480Y-106800526D01*
X185496124Y-106800694D01*
X185502528Y-106801299D01*
X185502430Y-106802332D01*
X185564195Y-106818376D01*
X185612352Y-106870544D01*
X185624661Y-106940465D01*
X185597213Y-107005941D01*
X185588536Y-107015559D01*
X173371852Y-119232243D01*
X173309540Y-119266269D01*
X173250148Y-119264855D01*
X173224572Y-119258002D01*
X173224561Y-119258000D01*
X173219250Y-119256577D01*
X173000001Y-119237395D01*
X172780752Y-119256577D01*
X172775438Y-119258001D01*
X172775437Y-119258001D01*
X172573475Y-119312116D01*
X172573473Y-119312117D01*
X172568165Y-119313539D01*
X172563185Y-119315861D01*
X172563183Y-119315862D01*
X172373680Y-119404229D01*
X172373677Y-119404231D01*
X172368699Y-119406552D01*
X172188414Y-119532788D01*
X172032789Y-119688413D01*
X171906553Y-119868698D01*
X171904232Y-119873676D01*
X171904230Y-119873679D01*
X171875481Y-119935332D01*
X171813540Y-120068164D01*
X171812118Y-120073472D01*
X171812117Y-120073474D01*
X171764857Y-120249853D01*
X171756578Y-120280751D01*
X171737396Y-120500000D01*
X171756578Y-120719249D01*
X171758002Y-120724563D01*
X171758002Y-120724564D01*
X171785420Y-120826889D01*
X171783730Y-120897865D01*
X171743936Y-120956661D01*
X171678672Y-120984609D01*
X171663713Y-120985500D01*
X170933595Y-120985500D01*
X170865474Y-120965498D01*
X170844499Y-120948595D01*
X170767756Y-120871851D01*
X170733731Y-120809538D01*
X170735145Y-120750147D01*
X170741998Y-120724571D01*
X170742000Y-120724560D01*
X170743423Y-120719249D01*
X170762605Y-120500000D01*
X170743423Y-120280751D01*
X170735144Y-120249853D01*
X170687884Y-120073474D01*
X170687883Y-120073472D01*
X170686461Y-120068164D01*
X170624520Y-119935332D01*
X170595771Y-119873679D01*
X170595769Y-119873676D01*
X170593448Y-119868698D01*
X170467212Y-119688413D01*
X170311587Y-119532788D01*
X170307079Y-119529631D01*
X170307076Y-119529629D01*
X170135812Y-119409709D01*
X170135809Y-119409707D01*
X170131303Y-119406552D01*
X170126321Y-119404229D01*
X170126316Y-119404226D01*
X169936818Y-119315862D01*
X169936817Y-119315861D01*
X169931836Y-119313539D01*
X169926528Y-119312117D01*
X169926526Y-119312116D01*
X169724564Y-119258001D01*
X169724563Y-119258001D01*
X169719249Y-119256577D01*
X169500000Y-119237395D01*
X169280751Y-119256577D01*
X169275437Y-119258001D01*
X169275436Y-119258001D01*
X169073474Y-119312116D01*
X169073472Y-119312117D01*
X169068164Y-119313539D01*
X169063184Y-119315861D01*
X169063182Y-119315862D01*
X168873679Y-119404229D01*
X168873676Y-119404231D01*
X168868698Y-119406552D01*
X168688413Y-119532788D01*
X168532788Y-119688413D01*
X168406552Y-119868698D01*
X168404231Y-119873676D01*
X168404229Y-119873679D01*
X168375480Y-119935332D01*
X168313539Y-120068164D01*
X168312117Y-120073472D01*
X168312116Y-120073474D01*
X168264856Y-120249853D01*
X168256577Y-120280751D01*
X168237395Y-120500000D01*
X168256577Y-120719249D01*
X168258001Y-120724563D01*
X168258001Y-120724564D01*
X168308182Y-120911842D01*
X168313539Y-120931836D01*
X168315861Y-120936816D01*
X168315862Y-120936818D01*
X168338148Y-120984609D01*
X168406552Y-121131302D01*
X168532788Y-121311587D01*
X168688413Y-121467212D01*
X168692921Y-121470369D01*
X168692924Y-121470371D01*
X168864188Y-121590291D01*
X168868697Y-121593448D01*
X168873679Y-121595771D01*
X168873684Y-121595774D01*
X169063182Y-121684138D01*
X169068164Y-121686461D01*
X169073472Y-121687883D01*
X169073474Y-121687884D01*
X169275436Y-121741999D01*
X169275437Y-121741999D01*
X169280751Y-121743423D01*
X169500000Y-121762605D01*
X169719249Y-121743423D01*
X169724566Y-121741998D01*
X169724568Y-121741998D01*
X169739227Y-121738070D01*
X169750143Y-121735145D01*
X169821120Y-121736833D01*
X169871851Y-121767756D01*
X170115348Y-122011253D01*
X170122888Y-122019539D01*
X170127000Y-122026018D01*
X170132777Y-122031443D01*
X170176651Y-122072643D01*
X170179493Y-122075398D01*
X170199230Y-122095135D01*
X170202427Y-122097615D01*
X170211447Y-122105318D01*
X170243679Y-122135586D01*
X170250625Y-122139405D01*
X170250628Y-122139407D01*
X170261434Y-122145348D01*
X170277953Y-122156199D01*
X170293959Y-122168614D01*
X170301228Y-122171759D01*
X170301232Y-122171762D01*
X170334537Y-122186174D01*
X170345187Y-122191391D01*
X170383940Y-122212695D01*
X170391615Y-122214666D01*
X170391616Y-122214666D01*
X170403562Y-122217733D01*
X170422267Y-122224137D01*
X170440855Y-122232181D01*
X170448678Y-122233420D01*
X170448688Y-122233423D01*
X170484524Y-122239099D01*
X170496144Y-122241505D01*
X170527959Y-122249673D01*
X170538970Y-122252500D01*
X170559224Y-122252500D01*
X170578934Y-122254051D01*
X170598943Y-122257220D01*
X170606835Y-122256474D01*
X170625580Y-122254702D01*
X170642962Y-122253059D01*
X170654819Y-122252500D01*
X176834233Y-122252500D01*
X176845416Y-122253027D01*
X176852909Y-122254702D01*
X176860835Y-122254453D01*
X176860836Y-122254453D01*
X176920986Y-122252562D01*
X176924945Y-122252500D01*
X176952856Y-122252500D01*
X176956791Y-122252003D01*
X176956856Y-122251995D01*
X176968693Y-122251062D01*
X177000951Y-122250048D01*
X177004970Y-122249922D01*
X177012889Y-122249673D01*
X177032343Y-122244021D01*
X177051700Y-122240013D01*
X177063930Y-122238468D01*
X177063931Y-122238468D01*
X177071797Y-122237474D01*
X177079168Y-122234555D01*
X177079170Y-122234555D01*
X177112912Y-122221196D01*
X177124142Y-122217351D01*
X177158983Y-122207229D01*
X177158984Y-122207229D01*
X177166593Y-122205018D01*
X177173412Y-122200985D01*
X177173417Y-122200983D01*
X177184028Y-122194707D01*
X177201776Y-122186012D01*
X177220617Y-122178552D01*
X177256387Y-122152564D01*
X177266307Y-122146048D01*
X177297535Y-122127580D01*
X177297538Y-122127578D01*
X177304362Y-122123542D01*
X177318683Y-122109221D01*
X177333717Y-122096380D01*
X177343694Y-122089131D01*
X177350107Y-122084472D01*
X177378298Y-122050395D01*
X177386288Y-122041616D01*
X178592134Y-120835771D01*
X178654446Y-120801745D01*
X178725262Y-120806810D01*
X178782097Y-120849357D01*
X178802936Y-120892257D01*
X178813541Y-120931836D01*
X178815863Y-120936816D01*
X178815864Y-120936818D01*
X178838150Y-120984609D01*
X178906554Y-121131302D01*
X179032790Y-121311587D01*
X179188415Y-121467212D01*
X179192923Y-121470369D01*
X179192926Y-121470371D01*
X179364190Y-121590291D01*
X179368699Y-121593448D01*
X179373681Y-121595771D01*
X179373686Y-121595774D01*
X179563184Y-121684138D01*
X179568166Y-121686461D01*
X179573474Y-121687883D01*
X179573476Y-121687884D01*
X179775438Y-121741999D01*
X179775439Y-121741999D01*
X179780753Y-121743423D01*
X180000002Y-121762605D01*
X180219251Y-121743423D01*
X180224565Y-121741999D01*
X180224566Y-121741999D01*
X180426528Y-121687884D01*
X180426530Y-121687883D01*
X180431838Y-121686461D01*
X180436820Y-121684138D01*
X180626318Y-121595774D01*
X180626323Y-121595771D01*
X180631305Y-121593448D01*
X180635814Y-121590291D01*
X180807078Y-121470371D01*
X180807081Y-121470369D01*
X180811589Y-121467212D01*
X180967214Y-121311587D01*
X181093450Y-121131302D01*
X181161855Y-120984609D01*
X181184140Y-120936818D01*
X181184141Y-120936816D01*
X181186463Y-120931836D01*
X181191821Y-120911842D01*
X181242001Y-120724564D01*
X181242001Y-120724563D01*
X181243425Y-120719249D01*
X181262607Y-120500000D01*
X181243425Y-120280751D01*
X181235146Y-120249853D01*
X181187886Y-120073474D01*
X181187885Y-120073472D01*
X181186463Y-120068164D01*
X181140991Y-119970649D01*
X181130330Y-119900459D01*
X181159310Y-119835646D01*
X181218729Y-119796789D01*
X181255186Y-119791400D01*
X184994816Y-119791400D01*
X185062937Y-119811402D01*
X185109430Y-119865058D01*
X185119534Y-119935332D01*
X185109011Y-119970649D01*
X185063539Y-120068164D01*
X185062117Y-120073472D01*
X185062116Y-120073474D01*
X185014856Y-120249853D01*
X185006577Y-120280751D01*
X184987395Y-120500000D01*
X185006577Y-120719249D01*
X185008001Y-120724563D01*
X185008001Y-120724564D01*
X185058182Y-120911842D01*
X185063539Y-120931836D01*
X185065861Y-120936816D01*
X185065862Y-120936818D01*
X185088148Y-120984609D01*
X185156552Y-121131302D01*
X185282788Y-121311587D01*
X185438413Y-121467212D01*
X185442921Y-121470369D01*
X185442924Y-121470371D01*
X185614188Y-121590291D01*
X185618697Y-121593448D01*
X185623679Y-121595771D01*
X185623684Y-121595774D01*
X185813182Y-121684138D01*
X185818164Y-121686461D01*
X185823472Y-121687883D01*
X185823474Y-121687884D01*
X186025436Y-121741999D01*
X186025437Y-121741999D01*
X186030751Y-121743423D01*
X186250000Y-121762605D01*
X186469249Y-121743423D01*
X186474563Y-121741999D01*
X186474564Y-121741999D01*
X186676526Y-121687884D01*
X186676528Y-121687883D01*
X186681836Y-121686461D01*
X186686818Y-121684138D01*
X186876316Y-121595774D01*
X186876321Y-121595771D01*
X186881303Y-121593448D01*
X186885812Y-121590291D01*
X187057076Y-121470371D01*
X187057079Y-121470369D01*
X187061587Y-121467212D01*
X187217212Y-121311587D01*
X187343448Y-121131302D01*
X187411853Y-120984609D01*
X187434138Y-120936818D01*
X187434139Y-120936816D01*
X187436461Y-120931836D01*
X187441819Y-120911842D01*
X187491999Y-120724564D01*
X187491999Y-120724563D01*
X187493423Y-120719249D01*
X187512605Y-120500000D01*
X187493423Y-120280751D01*
X187485144Y-120249853D01*
X187437884Y-120073474D01*
X187437883Y-120073472D01*
X187436461Y-120068164D01*
X187390989Y-119970649D01*
X187380328Y-119900459D01*
X187409308Y-119835646D01*
X187468727Y-119796789D01*
X187505184Y-119791400D01*
X188494817Y-119791400D01*
X188562938Y-119811402D01*
X188609431Y-119865058D01*
X188619535Y-119935332D01*
X188609012Y-119970649D01*
X188563540Y-120068164D01*
X188562118Y-120073472D01*
X188562117Y-120073474D01*
X188514857Y-120249853D01*
X188506578Y-120280751D01*
X188487396Y-120500000D01*
X188506578Y-120719249D01*
X188508002Y-120724563D01*
X188508002Y-120724564D01*
X188558183Y-120911842D01*
X188563540Y-120931836D01*
X188565862Y-120936816D01*
X188565863Y-120936818D01*
X188588149Y-120984609D01*
X188656553Y-121131302D01*
X188782789Y-121311587D01*
X188938414Y-121467212D01*
X188942922Y-121470369D01*
X188942925Y-121470371D01*
X189114189Y-121590291D01*
X189118698Y-121593448D01*
X189123680Y-121595771D01*
X189123685Y-121595774D01*
X189313183Y-121684138D01*
X189318165Y-121686461D01*
X189323473Y-121687883D01*
X189323475Y-121687884D01*
X189525437Y-121741999D01*
X189525438Y-121741999D01*
X189530752Y-121743423D01*
X189750001Y-121762605D01*
X189969250Y-121743423D01*
X189974564Y-121741999D01*
X189974565Y-121741999D01*
X190176527Y-121687884D01*
X190176529Y-121687883D01*
X190181837Y-121686461D01*
X190186819Y-121684138D01*
X190376317Y-121595774D01*
X190376322Y-121595771D01*
X190381304Y-121593448D01*
X190385813Y-121590291D01*
X190557077Y-121470371D01*
X190557080Y-121470369D01*
X190561588Y-121467212D01*
X190717213Y-121311587D01*
X190843449Y-121131302D01*
X190911854Y-120984609D01*
X190934139Y-120936818D01*
X190934140Y-120936816D01*
X190936462Y-120931836D01*
X190941820Y-120911842D01*
X190992000Y-120724564D01*
X190992000Y-120724563D01*
X190993424Y-120719249D01*
X191012606Y-120500000D01*
X190993424Y-120280751D01*
X190985145Y-120249853D01*
X190937885Y-120073474D01*
X190937884Y-120073472D01*
X190936462Y-120068164D01*
X190890990Y-119970649D01*
X190880329Y-119900459D01*
X190909309Y-119835646D01*
X190968728Y-119796789D01*
X191005185Y-119791400D01*
X191994817Y-119791400D01*
X192062938Y-119811402D01*
X192109431Y-119865058D01*
X192119535Y-119935332D01*
X192109012Y-119970649D01*
X192063540Y-120068164D01*
X192062118Y-120073472D01*
X192062117Y-120073474D01*
X192014857Y-120249853D01*
X192006578Y-120280751D01*
X191987396Y-120500000D01*
X192006578Y-120719249D01*
X192008002Y-120724563D01*
X192008002Y-120724564D01*
X192058183Y-120911842D01*
X192063540Y-120931836D01*
X192065862Y-120936816D01*
X192065863Y-120936818D01*
X192088149Y-120984609D01*
X192156553Y-121131302D01*
X192282789Y-121311587D01*
X192438414Y-121467212D01*
X192442922Y-121470369D01*
X192442925Y-121470371D01*
X192614189Y-121590291D01*
X192618698Y-121593448D01*
X192623680Y-121595771D01*
X192623685Y-121595774D01*
X192813183Y-121684138D01*
X192818165Y-121686461D01*
X192823473Y-121687883D01*
X192823475Y-121687884D01*
X193025437Y-121741999D01*
X193025438Y-121741999D01*
X193030752Y-121743423D01*
X193250001Y-121762605D01*
X193469250Y-121743423D01*
X193474564Y-121741999D01*
X193474565Y-121741999D01*
X193676527Y-121687884D01*
X193676529Y-121687883D01*
X193681837Y-121686461D01*
X193686819Y-121684138D01*
X193876317Y-121595774D01*
X193876322Y-121595771D01*
X193881304Y-121593448D01*
X193885813Y-121590291D01*
X194057077Y-121470371D01*
X194057080Y-121470369D01*
X194061588Y-121467212D01*
X194217213Y-121311587D01*
X194343449Y-121131302D01*
X194411854Y-120984609D01*
X194434139Y-120936818D01*
X194434140Y-120936816D01*
X194436462Y-120931836D01*
X194441820Y-120911842D01*
X194492000Y-120724564D01*
X194492000Y-120724563D01*
X194493424Y-120719249D01*
X194512606Y-120500000D01*
X194493424Y-120280751D01*
X194485145Y-120249853D01*
X194437885Y-120073474D01*
X194437884Y-120073472D01*
X194436462Y-120068164D01*
X194390990Y-119970649D01*
X194380329Y-119900459D01*
X194409309Y-119835646D01*
X194468728Y-119796789D01*
X194505185Y-119791400D01*
X195494818Y-119791400D01*
X195562939Y-119811402D01*
X195609432Y-119865058D01*
X195619536Y-119935332D01*
X195609013Y-119970649D01*
X195563541Y-120068164D01*
X195562119Y-120073472D01*
X195562118Y-120073474D01*
X195514858Y-120249853D01*
X195506579Y-120280751D01*
X195487397Y-120500000D01*
X195506579Y-120719249D01*
X195508003Y-120724563D01*
X195508003Y-120724564D01*
X195558184Y-120911842D01*
X195563541Y-120931836D01*
X195565863Y-120936816D01*
X195565864Y-120936818D01*
X195588150Y-120984609D01*
X195656554Y-121131302D01*
X195782790Y-121311587D01*
X195938415Y-121467212D01*
X195942923Y-121470369D01*
X195942926Y-121470371D01*
X196114190Y-121590291D01*
X196118699Y-121593448D01*
X196123681Y-121595771D01*
X196123686Y-121595774D01*
X196313184Y-121684138D01*
X196318166Y-121686461D01*
X196323474Y-121687883D01*
X196323476Y-121687884D01*
X196525438Y-121741999D01*
X196525439Y-121741999D01*
X196530753Y-121743423D01*
X196750002Y-121762605D01*
X196969251Y-121743423D01*
X196974565Y-121741999D01*
X196974566Y-121741999D01*
X197176528Y-121687884D01*
X197176530Y-121687883D01*
X197181838Y-121686461D01*
X197186820Y-121684138D01*
X197376318Y-121595774D01*
X197376323Y-121595771D01*
X197381305Y-121593448D01*
X197385814Y-121590291D01*
X197557078Y-121470371D01*
X197557081Y-121470369D01*
X197561589Y-121467212D01*
X197717214Y-121311587D01*
X197843450Y-121131302D01*
X197911855Y-120984609D01*
X197934140Y-120936818D01*
X197934141Y-120936816D01*
X197936463Y-120931836D01*
X197941821Y-120911842D01*
X197992001Y-120724564D01*
X197992001Y-120724563D01*
X197993425Y-120719249D01*
X198012607Y-120500000D01*
X197993425Y-120280751D01*
X197985146Y-120249853D01*
X197937886Y-120073474D01*
X197937885Y-120073472D01*
X197936463Y-120068164D01*
X197890991Y-119970649D01*
X197880330Y-119900459D01*
X197909310Y-119835646D01*
X197968729Y-119796789D01*
X198005186Y-119791400D01*
X201744816Y-119791400D01*
X201812937Y-119811402D01*
X201859430Y-119865058D01*
X201869534Y-119935332D01*
X201859011Y-119970649D01*
X201813539Y-120068164D01*
X201812117Y-120073472D01*
X201812116Y-120073474D01*
X201764856Y-120249853D01*
X201756577Y-120280751D01*
X201737395Y-120500000D01*
X201756577Y-120719249D01*
X201758001Y-120724563D01*
X201758001Y-120724564D01*
X201808182Y-120911842D01*
X201813539Y-120931836D01*
X201815861Y-120936816D01*
X201815862Y-120936818D01*
X201838148Y-120984609D01*
X201906552Y-121131302D01*
X202032788Y-121311587D01*
X202188413Y-121467212D01*
X202192921Y-121470369D01*
X202192924Y-121470371D01*
X202364188Y-121590291D01*
X202368697Y-121593448D01*
X202373679Y-121595771D01*
X202373684Y-121595774D01*
X202563182Y-121684138D01*
X202568164Y-121686461D01*
X202573472Y-121687883D01*
X202573474Y-121687884D01*
X202775436Y-121741999D01*
X202775437Y-121741999D01*
X202780751Y-121743423D01*
X203000000Y-121762605D01*
X203219249Y-121743423D01*
X203224563Y-121741999D01*
X203224564Y-121741999D01*
X203426526Y-121687884D01*
X203426528Y-121687883D01*
X203431836Y-121686461D01*
X203436818Y-121684138D01*
X203626316Y-121595774D01*
X203626321Y-121595771D01*
X203631303Y-121593448D01*
X203635812Y-121590291D01*
X203807076Y-121470371D01*
X203807079Y-121470369D01*
X203811587Y-121467212D01*
X203967212Y-121311587D01*
X204093448Y-121131302D01*
X204161853Y-120984609D01*
X204184138Y-120936818D01*
X204184139Y-120936816D01*
X204186461Y-120931836D01*
X204191819Y-120911842D01*
X204241999Y-120724564D01*
X204241999Y-120724563D01*
X204243423Y-120719249D01*
X204262605Y-120500000D01*
X204243423Y-120280751D01*
X204235144Y-120249853D01*
X204187884Y-120073474D01*
X204187883Y-120073472D01*
X204186461Y-120068164D01*
X204140989Y-119970649D01*
X204130328Y-119900459D01*
X204159308Y-119835646D01*
X204218727Y-119796789D01*
X204255184Y-119791400D01*
X205244817Y-119791400D01*
X205312938Y-119811402D01*
X205359431Y-119865058D01*
X205369535Y-119935332D01*
X205359012Y-119970649D01*
X205313540Y-120068164D01*
X205312118Y-120073472D01*
X205312117Y-120073474D01*
X205264857Y-120249853D01*
X205256578Y-120280751D01*
X205237396Y-120500000D01*
X205256578Y-120719249D01*
X205258002Y-120724563D01*
X205258002Y-120724564D01*
X205308183Y-120911842D01*
X205313540Y-120931836D01*
X205315862Y-120936816D01*
X205315863Y-120936818D01*
X205338149Y-120984609D01*
X205406553Y-121131302D01*
X205532789Y-121311587D01*
X205688414Y-121467212D01*
X205692922Y-121470369D01*
X205692925Y-121470371D01*
X205864189Y-121590291D01*
X205868698Y-121593448D01*
X205873680Y-121595771D01*
X205873685Y-121595774D01*
X206063183Y-121684138D01*
X206068165Y-121686461D01*
X206073473Y-121687883D01*
X206073475Y-121687884D01*
X206275437Y-121741999D01*
X206275438Y-121741999D01*
X206280752Y-121743423D01*
X206500001Y-121762605D01*
X206719250Y-121743423D01*
X206724564Y-121741999D01*
X206724565Y-121741999D01*
X206926527Y-121687884D01*
X206926529Y-121687883D01*
X206931837Y-121686461D01*
X206936819Y-121684138D01*
X207126317Y-121595774D01*
X207126322Y-121595771D01*
X207131304Y-121593448D01*
X207135813Y-121590291D01*
X207307077Y-121470371D01*
X207307080Y-121470369D01*
X207311588Y-121467212D01*
X207467213Y-121311587D01*
X207593449Y-121131302D01*
X207661854Y-120984609D01*
X207684139Y-120936818D01*
X207684140Y-120936816D01*
X207686462Y-120931836D01*
X207691820Y-120911842D01*
X207742000Y-120724564D01*
X207742000Y-120724563D01*
X207743424Y-120719249D01*
X207762606Y-120500000D01*
X208737396Y-120500000D01*
X208756578Y-120719249D01*
X208758002Y-120724563D01*
X208758002Y-120724564D01*
X208808183Y-120911842D01*
X208813540Y-120931836D01*
X208815862Y-120936816D01*
X208815863Y-120936818D01*
X208838149Y-120984609D01*
X208906553Y-121131302D01*
X209032789Y-121311587D01*
X209188414Y-121467212D01*
X209192922Y-121470369D01*
X209192925Y-121470371D01*
X209364189Y-121590291D01*
X209368698Y-121593448D01*
X209373680Y-121595771D01*
X209373685Y-121595774D01*
X209563183Y-121684138D01*
X209568165Y-121686461D01*
X209573473Y-121687883D01*
X209573475Y-121687884D01*
X209775437Y-121741999D01*
X209775438Y-121741999D01*
X209780752Y-121743423D01*
X210000001Y-121762605D01*
X210219250Y-121743423D01*
X210224564Y-121741999D01*
X210224565Y-121741999D01*
X210426527Y-121687884D01*
X210426529Y-121687883D01*
X210431837Y-121686461D01*
X210436819Y-121684138D01*
X210626317Y-121595774D01*
X210626322Y-121595771D01*
X210631304Y-121593448D01*
X210635813Y-121590291D01*
X210807077Y-121470371D01*
X210807080Y-121470369D01*
X210811588Y-121467212D01*
X210967213Y-121311587D01*
X211093449Y-121131302D01*
X211161854Y-120984609D01*
X211184139Y-120936818D01*
X211184140Y-120936816D01*
X211186462Y-120931836D01*
X211191820Y-120911842D01*
X211242000Y-120724564D01*
X211242000Y-120724563D01*
X211243424Y-120719249D01*
X211262606Y-120500000D01*
X212237397Y-120500000D01*
X212256579Y-120719249D01*
X212258003Y-120724563D01*
X212258003Y-120724564D01*
X212308184Y-120911842D01*
X212313541Y-120931836D01*
X212315863Y-120936816D01*
X212315864Y-120936818D01*
X212338150Y-120984609D01*
X212406554Y-121131302D01*
X212532790Y-121311587D01*
X212688415Y-121467212D01*
X212692923Y-121470369D01*
X212692926Y-121470371D01*
X212864190Y-121590291D01*
X212868699Y-121593448D01*
X212873681Y-121595771D01*
X212873686Y-121595774D01*
X213063184Y-121684138D01*
X213068166Y-121686461D01*
X213073474Y-121687883D01*
X213073476Y-121687884D01*
X213275438Y-121741999D01*
X213275439Y-121741999D01*
X213280753Y-121743423D01*
X213500002Y-121762605D01*
X213719251Y-121743423D01*
X213724565Y-121741999D01*
X213724566Y-121741999D01*
X213926528Y-121687884D01*
X213926530Y-121687883D01*
X213931838Y-121686461D01*
X213936820Y-121684138D01*
X214126318Y-121595774D01*
X214126323Y-121595771D01*
X214131305Y-121593448D01*
X214135814Y-121590291D01*
X214307078Y-121470371D01*
X214307081Y-121470369D01*
X214311589Y-121467212D01*
X214467214Y-121311587D01*
X214593450Y-121131302D01*
X214661855Y-120984609D01*
X214684140Y-120936818D01*
X214684141Y-120936816D01*
X214686463Y-120931836D01*
X214691821Y-120911842D01*
X214742001Y-120724564D01*
X214742001Y-120724563D01*
X214743425Y-120719249D01*
X214762607Y-120500000D01*
X214743425Y-120280751D01*
X214735146Y-120249853D01*
X214687886Y-120073474D01*
X214687885Y-120073472D01*
X214686463Y-120068164D01*
X214624522Y-119935332D01*
X214595773Y-119873679D01*
X214595771Y-119873676D01*
X214593450Y-119868698D01*
X214467214Y-119688413D01*
X214311589Y-119532788D01*
X214307081Y-119529631D01*
X214307078Y-119529629D01*
X214135814Y-119409709D01*
X214135811Y-119409707D01*
X214131305Y-119406552D01*
X214126323Y-119404229D01*
X214126318Y-119404226D01*
X213936820Y-119315862D01*
X213936819Y-119315861D01*
X213931838Y-119313539D01*
X213926530Y-119312117D01*
X213926528Y-119312116D01*
X213724566Y-119258001D01*
X213724565Y-119258001D01*
X213719251Y-119256577D01*
X213500002Y-119237395D01*
X213280753Y-119256577D01*
X213275439Y-119258001D01*
X213275438Y-119258001D01*
X213073476Y-119312116D01*
X213073474Y-119312117D01*
X213068166Y-119313539D01*
X213063186Y-119315861D01*
X213063184Y-119315862D01*
X212873681Y-119404229D01*
X212873678Y-119404231D01*
X212868700Y-119406552D01*
X212688415Y-119532788D01*
X212532790Y-119688413D01*
X212406554Y-119868698D01*
X212404233Y-119873676D01*
X212404231Y-119873679D01*
X212375482Y-119935332D01*
X212313541Y-120068164D01*
X212312119Y-120073472D01*
X212312118Y-120073474D01*
X212264858Y-120249853D01*
X212256579Y-120280751D01*
X212237397Y-120500000D01*
X211262606Y-120500000D01*
X211243424Y-120280751D01*
X211235145Y-120249853D01*
X211187885Y-120073474D01*
X211187884Y-120073472D01*
X211186462Y-120068164D01*
X211124521Y-119935332D01*
X211095772Y-119873679D01*
X211095770Y-119873676D01*
X211093449Y-119868698D01*
X210967213Y-119688413D01*
X210811588Y-119532788D01*
X210807080Y-119529631D01*
X210807077Y-119529629D01*
X210635813Y-119409709D01*
X210635810Y-119409707D01*
X210631304Y-119406552D01*
X210626322Y-119404229D01*
X210626317Y-119404226D01*
X210436819Y-119315862D01*
X210436818Y-119315861D01*
X210431837Y-119313539D01*
X210426529Y-119312117D01*
X210426527Y-119312116D01*
X210224565Y-119258001D01*
X210224564Y-119258001D01*
X210219250Y-119256577D01*
X210000001Y-119237395D01*
X209780752Y-119256577D01*
X209775438Y-119258001D01*
X209775437Y-119258001D01*
X209573475Y-119312116D01*
X209573473Y-119312117D01*
X209568165Y-119313539D01*
X209563185Y-119315861D01*
X209563183Y-119315862D01*
X209373680Y-119404229D01*
X209373677Y-119404231D01*
X209368699Y-119406552D01*
X209188414Y-119532788D01*
X209032789Y-119688413D01*
X208906553Y-119868698D01*
X208904232Y-119873676D01*
X208904230Y-119873679D01*
X208875481Y-119935332D01*
X208813540Y-120068164D01*
X208812118Y-120073472D01*
X208812117Y-120073474D01*
X208764857Y-120249853D01*
X208756578Y-120280751D01*
X208737396Y-120500000D01*
X207762606Y-120500000D01*
X207743424Y-120280751D01*
X207735145Y-120249853D01*
X207687885Y-120073474D01*
X207687884Y-120073472D01*
X207686462Y-120068164D01*
X207624521Y-119935332D01*
X207595772Y-119873679D01*
X207595770Y-119873676D01*
X207593449Y-119868698D01*
X207467213Y-119688413D01*
X207311588Y-119532788D01*
X207307080Y-119529631D01*
X207307077Y-119529629D01*
X207135813Y-119409709D01*
X207135810Y-119409707D01*
X207131304Y-119406552D01*
X207126322Y-119404229D01*
X207126317Y-119404226D01*
X206936819Y-119315862D01*
X206936818Y-119315861D01*
X206931837Y-119313539D01*
X206926529Y-119312117D01*
X206926527Y-119312116D01*
X206724565Y-119258001D01*
X206724564Y-119258001D01*
X206719250Y-119256577D01*
X206713774Y-119256098D01*
X206713769Y-119256097D01*
X206688178Y-119253859D01*
X206664266Y-119251766D01*
X206598149Y-119225904D01*
X206556509Y-119168401D01*
X206552568Y-119097514D01*
X206586153Y-119037151D01*
X215216065Y-110407240D01*
X219935409Y-105687896D01*
X233076658Y-105687896D01*
X233085954Y-105699912D01*
X233131695Y-105731940D01*
X233141185Y-105737419D01*
X233334633Y-105827625D01*
X233344925Y-105831371D01*
X233551096Y-105886614D01*
X233561891Y-105888517D01*
X233774525Y-105907121D01*
X233785475Y-105907121D01*
X233998109Y-105888517D01*
X234008904Y-105886614D01*
X234215075Y-105831371D01*
X234225367Y-105827625D01*
X234418815Y-105737419D01*
X234428305Y-105731940D01*
X234474885Y-105699324D01*
X234483259Y-105688848D01*
X234476190Y-105675400D01*
X233792812Y-104992022D01*
X233778868Y-104984408D01*
X233777035Y-104984539D01*
X233770420Y-104988790D01*
X233083088Y-105676122D01*
X233076658Y-105687896D01*
X219935409Y-105687896D01*
X220997830Y-104625475D01*
X232492879Y-104625475D01*
X232511483Y-104838109D01*
X232513386Y-104848904D01*
X232568629Y-105055075D01*
X232572375Y-105065367D01*
X232662581Y-105258815D01*
X232668060Y-105268305D01*
X232700676Y-105314885D01*
X232711152Y-105323259D01*
X232724600Y-105316190D01*
X233407978Y-104632812D01*
X233414356Y-104621132D01*
X234144408Y-104621132D01*
X234144539Y-104622965D01*
X234148790Y-104629580D01*
X234836122Y-105316912D01*
X234847896Y-105323342D01*
X234859912Y-105314046D01*
X234891940Y-105268305D01*
X234897419Y-105258815D01*
X234987625Y-105065367D01*
X234991371Y-105055075D01*
X235046614Y-104848904D01*
X235048517Y-104838109D01*
X235067121Y-104625475D01*
X235067121Y-104614525D01*
X235048517Y-104401891D01*
X235046614Y-104391096D01*
X234991371Y-104184925D01*
X234987625Y-104174633D01*
X234897419Y-103981185D01*
X234891940Y-103971695D01*
X234859324Y-103925115D01*
X234848848Y-103916741D01*
X234835400Y-103923810D01*
X234152022Y-104607188D01*
X234144408Y-104621132D01*
X233414356Y-104621132D01*
X233415592Y-104618868D01*
X233415461Y-104617035D01*
X233411210Y-104610420D01*
X232723878Y-103923088D01*
X232712104Y-103916658D01*
X232700088Y-103925954D01*
X232668060Y-103971695D01*
X232662581Y-103981185D01*
X232572375Y-104174633D01*
X232568629Y-104184925D01*
X232513386Y-104391096D01*
X232511483Y-104401891D01*
X232492879Y-104614525D01*
X232492879Y-104625475D01*
X220997830Y-104625475D01*
X222072153Y-103551152D01*
X233076741Y-103551152D01*
X233083810Y-103564600D01*
X233767188Y-104247978D01*
X233781132Y-104255592D01*
X233782965Y-104255461D01*
X233789580Y-104251210D01*
X234476912Y-103563878D01*
X234483342Y-103552104D01*
X234474046Y-103540088D01*
X234428305Y-103508060D01*
X234418815Y-103502581D01*
X234225367Y-103412375D01*
X234215075Y-103408629D01*
X234008904Y-103353386D01*
X233998109Y-103351483D01*
X233785475Y-103332879D01*
X233774525Y-103332879D01*
X233561891Y-103351483D01*
X233551096Y-103353386D01*
X233344925Y-103408629D01*
X233334633Y-103412375D01*
X233141185Y-103502581D01*
X233131695Y-103508060D01*
X233085115Y-103540676D01*
X233076741Y-103551152D01*
X222072153Y-103551152D01*
X224012253Y-101611052D01*
X224020539Y-101603512D01*
X224027018Y-101599400D01*
X224073644Y-101549748D01*
X224076398Y-101546907D01*
X224096135Y-101527170D01*
X224098615Y-101523973D01*
X224106320Y-101514951D01*
X224131159Y-101488500D01*
X224136586Y-101482721D01*
X224140405Y-101475775D01*
X224140407Y-101475772D01*
X224146348Y-101464966D01*
X224157199Y-101448447D01*
X224164758Y-101438701D01*
X224169614Y-101432441D01*
X224172759Y-101425172D01*
X224172762Y-101425168D01*
X224187174Y-101391863D01*
X224192391Y-101381213D01*
X224213695Y-101342460D01*
X224218733Y-101322837D01*
X224225137Y-101304134D01*
X224230033Y-101292820D01*
X224230033Y-101292819D01*
X224233181Y-101285545D01*
X224234420Y-101277722D01*
X224234423Y-101277712D01*
X224240099Y-101241876D01*
X224242505Y-101230256D01*
X224251528Y-101195111D01*
X224251528Y-101195110D01*
X224253500Y-101187430D01*
X224253500Y-101167176D01*
X224255051Y-101147465D01*
X224256980Y-101135286D01*
X224258220Y-101127457D01*
X224254059Y-101083438D01*
X224253500Y-101071581D01*
X224253500Y-98188508D01*
X224273502Y-98120387D01*
X224307228Y-98085296D01*
X224391000Y-98026638D01*
X224443465Y-97989902D01*
X224443468Y-97989900D01*
X224447976Y-97986743D01*
X224606743Y-97827976D01*
X224735529Y-97644051D01*
X224737852Y-97639069D01*
X224737855Y-97639064D01*
X224828097Y-97445539D01*
X224828098Y-97445538D01*
X224830420Y-97440557D01*
X224832438Y-97433028D01*
X224887109Y-97228992D01*
X224887109Y-97228990D01*
X224888533Y-97223677D01*
X224908102Y-97000000D01*
X224888533Y-96776323D01*
X224887109Y-96771008D01*
X224887108Y-96771001D01*
X224865835Y-96691612D01*
X224867524Y-96620635D01*
X224907318Y-96561839D01*
X224972582Y-96533891D01*
X224987541Y-96533000D01*
X232364905Y-96533000D01*
X232433026Y-96553002D01*
X232454002Y-96569906D01*
X232491506Y-96607411D01*
X232525530Y-96669723D01*
X232524116Y-96729116D01*
X232516092Y-96759064D01*
X232511467Y-96776323D01*
X232491898Y-97000000D01*
X232511467Y-97223677D01*
X232512891Y-97228990D01*
X232512891Y-97228992D01*
X232567563Y-97433028D01*
X232569580Y-97440557D01*
X232571902Y-97445538D01*
X232571903Y-97445539D01*
X232662145Y-97639064D01*
X232662148Y-97639069D01*
X232664471Y-97644051D01*
X232793257Y-97827976D01*
X232952024Y-97986743D01*
X232956532Y-97989900D01*
X232956535Y-97989902D01*
X233009000Y-98026638D01*
X233135949Y-98115529D01*
X233140931Y-98117852D01*
X233140936Y-98117855D01*
X233334461Y-98208097D01*
X233339443Y-98210420D01*
X233344751Y-98211842D01*
X233344753Y-98211843D01*
X233551008Y-98267109D01*
X233551010Y-98267109D01*
X233556323Y-98268533D01*
X233780000Y-98288102D01*
X234003677Y-98268533D01*
X234008990Y-98267109D01*
X234008992Y-98267109D01*
X234215247Y-98211843D01*
X234215249Y-98211842D01*
X234220557Y-98210420D01*
X234225539Y-98208097D01*
X234419064Y-98117855D01*
X234419069Y-98117852D01*
X234424051Y-98115529D01*
X234551000Y-98026638D01*
X234603465Y-97989902D01*
X234603468Y-97989900D01*
X234607976Y-97986743D01*
X234766743Y-97827976D01*
X234895529Y-97644051D01*
X234897852Y-97639069D01*
X234897855Y-97639064D01*
X234988097Y-97445539D01*
X234988098Y-97445538D01*
X234990420Y-97440557D01*
X234992438Y-97433028D01*
X235047109Y-97228992D01*
X235047109Y-97228990D01*
X235048533Y-97223677D01*
X235068102Y-97000000D01*
X235048533Y-96776323D01*
X235045245Y-96764051D01*
X234991843Y-96564753D01*
X234991842Y-96564751D01*
X234990420Y-96559443D01*
X234978505Y-96533891D01*
X234897855Y-96360936D01*
X234897852Y-96360931D01*
X234895529Y-96355949D01*
X234766743Y-96172024D01*
X234607976Y-96013257D01*
X234603468Y-96010100D01*
X234603465Y-96010098D01*
X234448929Y-95901891D01*
X234424051Y-95884471D01*
X234419069Y-95882148D01*
X234419064Y-95882145D01*
X234225539Y-95791903D01*
X234225538Y-95791902D01*
X234220557Y-95789580D01*
X234215249Y-95788158D01*
X234215247Y-95788157D01*
X234008992Y-95732891D01*
X234008990Y-95732891D01*
X234003677Y-95731467D01*
X233780000Y-95711898D01*
X233556323Y-95731467D01*
X233547778Y-95733757D01*
X233509114Y-95744116D01*
X233438138Y-95742426D01*
X233387409Y-95711504D01*
X233183152Y-95507247D01*
X233175612Y-95498961D01*
X233171500Y-95492482D01*
X233148832Y-95471195D01*
X233121849Y-95445857D01*
X233119007Y-95443102D01*
X233099270Y-95423365D01*
X233096073Y-95420885D01*
X233087051Y-95413180D01*
X233082897Y-95409279D01*
X233054821Y-95382914D01*
X233047875Y-95379095D01*
X233047872Y-95379093D01*
X233037066Y-95373152D01*
X233020547Y-95362301D01*
X233020083Y-95361941D01*
X233004541Y-95349886D01*
X232997272Y-95346741D01*
X232997268Y-95346738D01*
X232963963Y-95332326D01*
X232953313Y-95327109D01*
X232914560Y-95305805D01*
X232894937Y-95300767D01*
X232876234Y-95294363D01*
X232864920Y-95289467D01*
X232864919Y-95289467D01*
X232857645Y-95286319D01*
X232849822Y-95285080D01*
X232849812Y-95285077D01*
X232813976Y-95279401D01*
X232802356Y-95276995D01*
X232767211Y-95267972D01*
X232767210Y-95267972D01*
X232759530Y-95266000D01*
X232739276Y-95266000D01*
X232719565Y-95264449D01*
X232707386Y-95262520D01*
X232699557Y-95261280D01*
X232670286Y-95264047D01*
X232655539Y-95265441D01*
X232643681Y-95266000D01*
X211298567Y-95266000D01*
X211287384Y-95265473D01*
X211279891Y-95263798D01*
X211271965Y-95264047D01*
X211271964Y-95264047D01*
X211211801Y-95265938D01*
X211207843Y-95266000D01*
X211179944Y-95266000D01*
X211175954Y-95266504D01*
X211164120Y-95267436D01*
X211119911Y-95268826D01*
X211112297Y-95271038D01*
X211112292Y-95271039D01*
X211100459Y-95274477D01*
X211081096Y-95278488D01*
X211061003Y-95281026D01*
X211053636Y-95283943D01*
X211053631Y-95283944D01*
X211019892Y-95297302D01*
X211008665Y-95301146D01*
X210966207Y-95313482D01*
X210959381Y-95317519D01*
X210948772Y-95323793D01*
X210931024Y-95332488D01*
X210912183Y-95339948D01*
X210905767Y-95344610D01*
X210905766Y-95344610D01*
X210876413Y-95365936D01*
X210866493Y-95372452D01*
X210835265Y-95390920D01*
X210835262Y-95390922D01*
X210828438Y-95394958D01*
X210814117Y-95409279D01*
X210799084Y-95422119D01*
X210782693Y-95434028D01*
X210754502Y-95468105D01*
X210746512Y-95476884D01*
X205432300Y-100791095D01*
X205369988Y-100825121D01*
X205343205Y-100828000D01*
X203956945Y-100828000D01*
X203888824Y-100807998D01*
X203842331Y-100754342D01*
X203832227Y-100684068D01*
X203861721Y-100619488D01*
X203900596Y-100589302D01*
X204058535Y-100510333D01*
X204058539Y-100510330D01*
X204063600Y-100507800D01*
X204321772Y-100314171D01*
X204366502Y-100280624D01*
X204366510Y-100280617D01*
X204368400Y-100279200D01*
X204571600Y-100101400D01*
X204800200Y-99847400D01*
X205028800Y-99517200D01*
X205130400Y-99314000D01*
X205257400Y-99009200D01*
X205359000Y-98729800D01*
X205409800Y-98450400D01*
X205410631Y-98442926D01*
X205429505Y-98273051D01*
X205434821Y-98225214D01*
X205435760Y-98218443D01*
X205460600Y-98069400D01*
X205450323Y-97925516D01*
X205435319Y-97715461D01*
X205435318Y-97715448D01*
X205435200Y-97713800D01*
X205409800Y-97510600D01*
X205392289Y-97440557D01*
X205309344Y-97108775D01*
X205309343Y-97108772D01*
X205308200Y-97104200D01*
X205253373Y-96972614D01*
X205181530Y-96800192D01*
X205180850Y-96798525D01*
X205132021Y-96676453D01*
X205130400Y-96672400D01*
X205093264Y-96607411D01*
X205029876Y-96496483D01*
X205028800Y-96494600D01*
X204816757Y-96176535D01*
X204778255Y-96118782D01*
X204778253Y-96118780D01*
X204774800Y-96113600D01*
X204444600Y-95783400D01*
X204190600Y-95580200D01*
X204180879Y-95574124D01*
X204032176Y-95481185D01*
X203987400Y-95453200D01*
X203682600Y-95300800D01*
X203679014Y-95299519D01*
X203679011Y-95299518D01*
X203329290Y-95174618D01*
X203327000Y-95173800D01*
X203047600Y-95097600D01*
X202615800Y-95046800D01*
X202387200Y-95046800D01*
X202158600Y-95072200D01*
X202158219Y-95072248D01*
X202158156Y-95072255D01*
X201999498Y-95092088D01*
X201955400Y-95097600D01*
X201676000Y-95173800D01*
X201561751Y-95211883D01*
X201449148Y-95249417D01*
X201449138Y-95249421D01*
X201447400Y-95250000D01*
X201445704Y-95250678D01*
X201445686Y-95250685D01*
X201297123Y-95310111D01*
X201193400Y-95351600D01*
X201189080Y-95354192D01*
X201189076Y-95354194D01*
X201070555Y-95425307D01*
X201062078Y-95429961D01*
X201017147Y-95452426D01*
X201017133Y-95452434D01*
X201015600Y-95453200D01*
X201014104Y-95454055D01*
X200841672Y-95552587D01*
X200841668Y-95552590D01*
X200837800Y-95554800D01*
X200812963Y-95574118D01*
X200611273Y-95730988D01*
X200609200Y-95732600D01*
X200355200Y-95961200D01*
X200202800Y-96139000D01*
X200200077Y-96143539D01*
X200200073Y-96143544D01*
X200129189Y-96261685D01*
X200123675Y-96270095D01*
X200001673Y-96440897D01*
X200001669Y-96440904D01*
X199999600Y-96443800D01*
X199872600Y-96672400D01*
X199796400Y-96824800D01*
X199795675Y-96826493D01*
X199795667Y-96826509D01*
X199721771Y-96998933D01*
X199721768Y-96998941D01*
X199720200Y-97002600D01*
X199669400Y-97180400D01*
X199593200Y-97459800D01*
X199592646Y-97464233D01*
X199567940Y-97661880D01*
X199567647Y-97664071D01*
X199542400Y-97840800D01*
X199542400Y-98044000D01*
X199560633Y-98208097D01*
X199587794Y-98452543D01*
X199593200Y-98501200D01*
X199593937Y-98504518D01*
X199593938Y-98504522D01*
X199620898Y-98625840D01*
X199644000Y-98729800D01*
X199644396Y-98731253D01*
X199644398Y-98731260D01*
X199673263Y-98837099D01*
X199720200Y-99009200D01*
X199722291Y-99013799D01*
X199722293Y-99013806D01*
X199825950Y-99241851D01*
X199847200Y-99288600D01*
X199848292Y-99290602D01*
X199848295Y-99290608D01*
X199996824Y-99562910D01*
X199999600Y-99568000D01*
X200001147Y-99570320D01*
X200150132Y-99793799D01*
X200150138Y-99793807D01*
X200152000Y-99796600D01*
X200279000Y-99949000D01*
X200482200Y-100152200D01*
X200787000Y-100406200D01*
X200790629Y-100408468D01*
X200790633Y-100408471D01*
X200906427Y-100480842D01*
X200990200Y-100533200D01*
X201102404Y-100589302D01*
X201154388Y-100637657D01*
X201171977Y-100706440D01*
X201149586Y-100773814D01*
X201094326Y-100818387D01*
X201046055Y-100828000D01*
X193007011Y-100828000D01*
X192938890Y-100807998D01*
X192892397Y-100754342D01*
X192882293Y-100684068D01*
X192896058Y-100644298D01*
X192895529Y-100644051D01*
X192988097Y-100445539D01*
X192988098Y-100445538D01*
X192990420Y-100440557D01*
X192999018Y-100408471D01*
X193047109Y-100228992D01*
X193047109Y-100228990D01*
X193048533Y-100223677D01*
X193068102Y-100000000D01*
X193048533Y-99776323D01*
X193043538Y-99757680D01*
X193035884Y-99729113D01*
X193037574Y-99658136D01*
X193068496Y-99607408D01*
X198037799Y-94638105D01*
X198100111Y-94604079D01*
X198126894Y-94601200D01*
X226733633Y-94601200D01*
X226744816Y-94601727D01*
X226752309Y-94603402D01*
X226760235Y-94603153D01*
X226760236Y-94603153D01*
X226820386Y-94601262D01*
X226824345Y-94601200D01*
X226852256Y-94601200D01*
X226856191Y-94600703D01*
X226856256Y-94600695D01*
X226868093Y-94599762D01*
X226900351Y-94598748D01*
X226904370Y-94598622D01*
X226912289Y-94598373D01*
X226931743Y-94592721D01*
X226951100Y-94588713D01*
X226963330Y-94587168D01*
X226963331Y-94587168D01*
X226971197Y-94586174D01*
X226978568Y-94583255D01*
X226978570Y-94583255D01*
X227012312Y-94569896D01*
X227023542Y-94566051D01*
X227058383Y-94555929D01*
X227058384Y-94555929D01*
X227065993Y-94553718D01*
X227072812Y-94549685D01*
X227072817Y-94549683D01*
X227083428Y-94543407D01*
X227101176Y-94534712D01*
X227120017Y-94527252D01*
X227155787Y-94501264D01*
X227165707Y-94494748D01*
X227196935Y-94476280D01*
X227196938Y-94476278D01*
X227203762Y-94472242D01*
X227218083Y-94457921D01*
X227233117Y-94445080D01*
X227249507Y-94433172D01*
X227277698Y-94399095D01*
X227285688Y-94390316D01*
X228488108Y-93187896D01*
X233076658Y-93187896D01*
X233085954Y-93199912D01*
X233131695Y-93231940D01*
X233141185Y-93237419D01*
X233334633Y-93327625D01*
X233344925Y-93331371D01*
X233551096Y-93386614D01*
X233561891Y-93388517D01*
X233774525Y-93407121D01*
X233785475Y-93407121D01*
X233998109Y-93388517D01*
X234008904Y-93386614D01*
X234215075Y-93331371D01*
X234225367Y-93327625D01*
X234418815Y-93237419D01*
X234428305Y-93231940D01*
X234474885Y-93199324D01*
X234483259Y-93188848D01*
X234476190Y-93175400D01*
X233792812Y-92492022D01*
X233778868Y-92484408D01*
X233777035Y-92484539D01*
X233770420Y-92488790D01*
X233083088Y-93176122D01*
X233076658Y-93187896D01*
X228488108Y-93187896D01*
X229550529Y-92125475D01*
X232492879Y-92125475D01*
X232511483Y-92338109D01*
X232513386Y-92348904D01*
X232568629Y-92555075D01*
X232572375Y-92565367D01*
X232662581Y-92758815D01*
X232668060Y-92768305D01*
X232700676Y-92814885D01*
X232711152Y-92823259D01*
X232724600Y-92816190D01*
X233407978Y-92132812D01*
X233414356Y-92121132D01*
X234144408Y-92121132D01*
X234144539Y-92122965D01*
X234148790Y-92129580D01*
X234836122Y-92816912D01*
X234847896Y-92823342D01*
X234859912Y-92814046D01*
X234891940Y-92768305D01*
X234897419Y-92758815D01*
X234987625Y-92565367D01*
X234991371Y-92555075D01*
X235046614Y-92348904D01*
X235048517Y-92338109D01*
X235067121Y-92125475D01*
X235067121Y-92114525D01*
X235048517Y-91901891D01*
X235046614Y-91891096D01*
X234991371Y-91684925D01*
X234987625Y-91674633D01*
X234897419Y-91481185D01*
X234891940Y-91471695D01*
X234859324Y-91425115D01*
X234848848Y-91416741D01*
X234835400Y-91423810D01*
X234152022Y-92107188D01*
X234144408Y-92121132D01*
X233414356Y-92121132D01*
X233415592Y-92118868D01*
X233415461Y-92117035D01*
X233411210Y-92110420D01*
X232723878Y-91423088D01*
X232712104Y-91416658D01*
X232700088Y-91425954D01*
X232668060Y-91471695D01*
X232662581Y-91481185D01*
X232572375Y-91674633D01*
X232568629Y-91684925D01*
X232513386Y-91891096D01*
X232511483Y-91901891D01*
X232492879Y-92114525D01*
X232492879Y-92125475D01*
X229550529Y-92125475D01*
X230624852Y-91051152D01*
X233076741Y-91051152D01*
X233083810Y-91064600D01*
X233767188Y-91747978D01*
X233781132Y-91755592D01*
X233782965Y-91755461D01*
X233789580Y-91751210D01*
X234476912Y-91063878D01*
X234483342Y-91052104D01*
X234474046Y-91040088D01*
X234428305Y-91008060D01*
X234418815Y-91002581D01*
X234225367Y-90912375D01*
X234215075Y-90908629D01*
X234008904Y-90853386D01*
X233998109Y-90851483D01*
X233785475Y-90832879D01*
X233774525Y-90832879D01*
X233561891Y-90851483D01*
X233551096Y-90853386D01*
X233344925Y-90908629D01*
X233334633Y-90912375D01*
X233141185Y-91002581D01*
X233131695Y-91008060D01*
X233085115Y-91040676D01*
X233076741Y-91051152D01*
X230624852Y-91051152D01*
X235800300Y-85875705D01*
X235862612Y-85841679D01*
X235889395Y-85838800D01*
X238144210Y-85838800D01*
X238212331Y-85858802D01*
X238258824Y-85912458D01*
X238268928Y-85982732D01*
X238258498Y-86017850D01*
X238225086Y-86089831D01*
X238220688Y-86099305D01*
X238160989Y-86314570D01*
X238137251Y-86536695D01*
X238137548Y-86541848D01*
X238137548Y-86541851D01*
X238143011Y-86636590D01*
X238150110Y-86759715D01*
X238151247Y-86764761D01*
X238151248Y-86764767D01*
X238171119Y-86852939D01*
X238199222Y-86977639D01*
X238283266Y-87184616D01*
X238323641Y-87250502D01*
X238397291Y-87370688D01*
X238399987Y-87375088D01*
X238546250Y-87543938D01*
X238718126Y-87686632D01*
X238791445Y-87729476D01*
X238791955Y-87729774D01*
X238840679Y-87781412D01*
X238853750Y-87851195D01*
X238827019Y-87916967D01*
X238786562Y-87950327D01*
X238778457Y-87954546D01*
X238769738Y-87960036D01*
X238599433Y-88087905D01*
X238591726Y-88094748D01*
X238444590Y-88248717D01*
X238438104Y-88256727D01*
X238318098Y-88432649D01*
X238313000Y-88441623D01*
X238223338Y-88634783D01*
X238219775Y-88644470D01*
X238164389Y-88844183D01*
X238165912Y-88852607D01*
X238178292Y-88856000D01*
X239628000Y-88856000D01*
X239696121Y-88876002D01*
X239742614Y-88929658D01*
X239754000Y-88982000D01*
X239754000Y-89238000D01*
X239733998Y-89306121D01*
X239680342Y-89352614D01*
X239628000Y-89364000D01*
X238183225Y-89364000D01*
X238169694Y-89367973D01*
X238168257Y-89377966D01*
X238198565Y-89512446D01*
X238201645Y-89522275D01*
X238281770Y-89719603D01*
X238286413Y-89728794D01*
X238397694Y-89910388D01*
X238403777Y-89918699D01*
X238543213Y-90079667D01*
X238550580Y-90086883D01*
X238714434Y-90222916D01*
X238722881Y-90228831D01*
X238791969Y-90269203D01*
X238840693Y-90320842D01*
X238853764Y-90390625D01*
X238827033Y-90456396D01*
X238786584Y-90489752D01*
X238773607Y-90496507D01*
X238769474Y-90499610D01*
X238769471Y-90499612D01*
X238724547Y-90533342D01*
X238594965Y-90630635D01*
X238440629Y-90792138D01*
X238437720Y-90796403D01*
X238437714Y-90796411D01*
X238360289Y-90909912D01*
X238314743Y-90976680D01*
X238277118Y-91057737D01*
X238242063Y-91133257D01*
X238220688Y-91179305D01*
X238160989Y-91394570D01*
X238137251Y-91616695D01*
X238137548Y-91621848D01*
X238137548Y-91621851D01*
X238146552Y-91778000D01*
X238150110Y-91839715D01*
X238151247Y-91844761D01*
X238151248Y-91844767D01*
X238174625Y-91948495D01*
X238199222Y-92057639D01*
X238283266Y-92264616D01*
X238328302Y-92338109D01*
X238397291Y-92450688D01*
X238399987Y-92455088D01*
X238546250Y-92623938D01*
X238718126Y-92766632D01*
X238788595Y-92807811D01*
X238791445Y-92809476D01*
X238840169Y-92861114D01*
X238853240Y-92930897D01*
X238826509Y-92996669D01*
X238786055Y-93030027D01*
X238773607Y-93036507D01*
X238769474Y-93039610D01*
X238769471Y-93039612D01*
X238599100Y-93167530D01*
X238594965Y-93170635D01*
X238440629Y-93332138D01*
X238437720Y-93336403D01*
X238437714Y-93336411D01*
X238385598Y-93412810D01*
X238314743Y-93516680D01*
X238220688Y-93719305D01*
X238160989Y-93934570D01*
X238137251Y-94156695D01*
X238137548Y-94161848D01*
X238137548Y-94161851D01*
X238143011Y-94256590D01*
X238150110Y-94379715D01*
X238151247Y-94384761D01*
X238151248Y-94384767D01*
X238160781Y-94427066D01*
X238199222Y-94597639D01*
X238283266Y-94804616D01*
X238331066Y-94882618D01*
X238397291Y-94990688D01*
X238399987Y-94995088D01*
X238546250Y-95163938D01*
X238672588Y-95268826D01*
X238711062Y-95300767D01*
X238718126Y-95306632D01*
X238758059Y-95329967D01*
X238791445Y-95349476D01*
X238840169Y-95401114D01*
X238853240Y-95470897D01*
X238826509Y-95536669D01*
X238786055Y-95570027D01*
X238773607Y-95576507D01*
X238769474Y-95579610D01*
X238769471Y-95579612D01*
X238599100Y-95707530D01*
X238594965Y-95710635D01*
X238440629Y-95872138D01*
X238437720Y-95876403D01*
X238437714Y-95876411D01*
X238433803Y-95882145D01*
X238314743Y-96056680D01*
X238220688Y-96259305D01*
X238160989Y-96474570D01*
X238137251Y-96696695D01*
X238137548Y-96701848D01*
X238137548Y-96701851D01*
X238143011Y-96796590D01*
X238150110Y-96919715D01*
X238151247Y-96924761D01*
X238151248Y-96924767D01*
X238155462Y-96943465D01*
X238199222Y-97137639D01*
X238236318Y-97228995D01*
X238277502Y-97330420D01*
X238283266Y-97344616D01*
X238321877Y-97407623D01*
X238397291Y-97530688D01*
X238399987Y-97535088D01*
X238546250Y-97703938D01*
X238718126Y-97846632D01*
X238788595Y-97887811D01*
X238791445Y-97889476D01*
X238840169Y-97941114D01*
X238853240Y-98010897D01*
X238826509Y-98076669D01*
X238786055Y-98110027D01*
X238773607Y-98116507D01*
X238769474Y-98119610D01*
X238769471Y-98119612D01*
X238599100Y-98247530D01*
X238594965Y-98250635D01*
X238440629Y-98412138D01*
X238437720Y-98416403D01*
X238437714Y-98416411D01*
X238382187Y-98497811D01*
X238314743Y-98596680D01*
X238277133Y-98677705D01*
X238225863Y-98788157D01*
X238220688Y-98799305D01*
X238160989Y-99014570D01*
X238137251Y-99236695D01*
X238137548Y-99241848D01*
X238137548Y-99241851D01*
X238146552Y-99398000D01*
X238150110Y-99459715D01*
X238151247Y-99464761D01*
X238151248Y-99464767D01*
X238163065Y-99517200D01*
X238199222Y-99677639D01*
X238239293Y-99776323D01*
X238275477Y-99865433D01*
X238283266Y-99884616D01*
X238321375Y-99946805D01*
X238397291Y-100070688D01*
X238399987Y-100075088D01*
X238546250Y-100243938D01*
X238718126Y-100386632D01*
X238746917Y-100403456D01*
X238791445Y-100429476D01*
X238840169Y-100481114D01*
X238853240Y-100550897D01*
X238826509Y-100616669D01*
X238786055Y-100650027D01*
X238773607Y-100656507D01*
X238769474Y-100659610D01*
X238769471Y-100659612D01*
X238615673Y-100775087D01*
X238594965Y-100790635D01*
X238440629Y-100952138D01*
X238437720Y-100956403D01*
X238437714Y-100956411D01*
X238384327Y-101034673D01*
X238314743Y-101136680D01*
X238280520Y-101210407D01*
X238228332Y-101322838D01*
X238220688Y-101339305D01*
X238160989Y-101554570D01*
X238137251Y-101776695D01*
X238137548Y-101781848D01*
X238137548Y-101781851D01*
X238146938Y-101944707D01*
X238150110Y-101999715D01*
X238151247Y-102004761D01*
X238151248Y-102004767D01*
X238160329Y-102045060D01*
X238199222Y-102217639D01*
X238283266Y-102424616D01*
X238333863Y-102507183D01*
X238397291Y-102610688D01*
X238399987Y-102615088D01*
X238546250Y-102783938D01*
X238718126Y-102926632D01*
X238788595Y-102967811D01*
X238791445Y-102969476D01*
X238840169Y-103021114D01*
X238853240Y-103090897D01*
X238826509Y-103156669D01*
X238786055Y-103190027D01*
X238773607Y-103196507D01*
X238769474Y-103199610D01*
X238769471Y-103199612D01*
X238599100Y-103327530D01*
X238594965Y-103330635D01*
X238440629Y-103492138D01*
X238314743Y-103676680D01*
X238220688Y-103879305D01*
X238160989Y-104094570D01*
X238137251Y-104316695D01*
X238137548Y-104321848D01*
X238137548Y-104321851D01*
X238143011Y-104416590D01*
X238150110Y-104539715D01*
X238151247Y-104544761D01*
X238151248Y-104544767D01*
X238165316Y-104607188D01*
X238199222Y-104757639D01*
X238259014Y-104904890D01*
X238276662Y-104948351D01*
X238283266Y-104964616D01*
X238331307Y-105043012D01*
X238397291Y-105150688D01*
X238399987Y-105155088D01*
X238546250Y-105323938D01*
X238718126Y-105466632D01*
X238766150Y-105494695D01*
X238791955Y-105509774D01*
X238840679Y-105561412D01*
X238853750Y-105631195D01*
X238827019Y-105696967D01*
X238786562Y-105730327D01*
X238778457Y-105734546D01*
X238769738Y-105740036D01*
X238599433Y-105867905D01*
X238591726Y-105874748D01*
X238444590Y-106028717D01*
X238438104Y-106036727D01*
X238318098Y-106212649D01*
X238313000Y-106221623D01*
X238223338Y-106414783D01*
X238219775Y-106424470D01*
X238164389Y-106624183D01*
X238165912Y-106632607D01*
X238178292Y-106636000D01*
X239628000Y-106636000D01*
X239696121Y-106656002D01*
X239742614Y-106709658D01*
X239754000Y-106762000D01*
X239754000Y-107018000D01*
X239733998Y-107086121D01*
X239680342Y-107132614D01*
X239628000Y-107144000D01*
X238183225Y-107144000D01*
X238169694Y-107147973D01*
X238168257Y-107157966D01*
X238198565Y-107292446D01*
X238201645Y-107302275D01*
X238281770Y-107499603D01*
X238286413Y-107508794D01*
X238397694Y-107690388D01*
X238403777Y-107698699D01*
X238543213Y-107859667D01*
X238550580Y-107866883D01*
X238714434Y-108002916D01*
X238722881Y-108008831D01*
X238791969Y-108049203D01*
X238840693Y-108100842D01*
X238853764Y-108170625D01*
X238827033Y-108236396D01*
X238786584Y-108269752D01*
X238773607Y-108276507D01*
X238769474Y-108279610D01*
X238769471Y-108279612D01*
X238599100Y-108407530D01*
X238594965Y-108410635D01*
X238591393Y-108414373D01*
X238512629Y-108496795D01*
X238440629Y-108572138D01*
X238437720Y-108576403D01*
X238437714Y-108576411D01*
X238364408Y-108683874D01*
X238314743Y-108756680D01*
X238280514Y-108830420D01*
X238244456Y-108908102D01*
X238220688Y-108959305D01*
X238160989Y-109174570D01*
X238137251Y-109396695D01*
X238137548Y-109401848D01*
X238137548Y-109401851D01*
X238143011Y-109496590D01*
X238150110Y-109619715D01*
X238151247Y-109624761D01*
X238151248Y-109624767D01*
X238164597Y-109684000D01*
X238199222Y-109837639D01*
X238283266Y-110044616D01*
X238333863Y-110127183D01*
X238397291Y-110230688D01*
X238399987Y-110235088D01*
X238546250Y-110403938D01*
X238718126Y-110546632D01*
X238788595Y-110587811D01*
X238791445Y-110589476D01*
X238840169Y-110641114D01*
X238853240Y-110710897D01*
X238826509Y-110776669D01*
X238786055Y-110810027D01*
X238773607Y-110816507D01*
X238769474Y-110819610D01*
X238769471Y-110819612D01*
X238745247Y-110837800D01*
X238594965Y-110950635D01*
X238440629Y-111112138D01*
X238314743Y-111296680D01*
X238220688Y-111499305D01*
X238160989Y-111714570D01*
X238137251Y-111936695D01*
X238137548Y-111941848D01*
X238137548Y-111941851D01*
X238143011Y-112036590D01*
X238150110Y-112159715D01*
X238151247Y-112164761D01*
X238151248Y-112164767D01*
X238171119Y-112252939D01*
X238199222Y-112377639D01*
X238283266Y-112584616D01*
X238399987Y-112775088D01*
X238546250Y-112943938D01*
X238577019Y-112969482D01*
X238581524Y-112973223D01*
X238621159Y-113032127D01*
X238622656Y-113103108D01*
X238590133Y-113159262D01*
X229269800Y-122479595D01*
X229207488Y-122513621D01*
X229180706Y-122516500D01*
X228982219Y-122516501D01*
X228968366Y-122516501D01*
X228965508Y-122516764D01*
X228965499Y-122516764D01*
X228929996Y-122520026D01*
X228894938Y-122523247D01*
X228888560Y-122525246D01*
X228888559Y-122525246D01*
X228738550Y-122572256D01*
X228738548Y-122572257D01*
X228731301Y-122574528D01*
X228584619Y-122663361D01*
X228463361Y-122784619D01*
X228374528Y-122931301D01*
X228323247Y-123094938D01*
X228316500Y-123168365D01*
X228316501Y-123831634D01*
X228323247Y-123905062D01*
X228325246Y-123911440D01*
X228325246Y-123911441D01*
X228366291Y-124042414D01*
X228374528Y-124068699D01*
X228463361Y-124215381D01*
X228584619Y-124336639D01*
X228731301Y-124425472D01*
X228738548Y-124427743D01*
X228738550Y-124427744D01*
X228804836Y-124448517D01*
X228894938Y-124476753D01*
X228968365Y-124483500D01*
X228971263Y-124483500D01*
X229225665Y-124483499D01*
X229481634Y-124483499D01*
X229484492Y-124483236D01*
X229484501Y-124483236D01*
X229520004Y-124479974D01*
X229555062Y-124476753D01*
X229627769Y-124453968D01*
X229711450Y-124427744D01*
X229711452Y-124427743D01*
X229718699Y-124425472D01*
X229865381Y-124336639D01*
X229960905Y-124241115D01*
X230023217Y-124207089D01*
X230094032Y-124212154D01*
X230139095Y-124241115D01*
X230234619Y-124336639D01*
X230381301Y-124425472D01*
X230388548Y-124427743D01*
X230388550Y-124427744D01*
X230454836Y-124448517D01*
X230544938Y-124476753D01*
X230618365Y-124483500D01*
X230636474Y-124483500D01*
X230910406Y-124483499D01*
X230978525Y-124503501D01*
X230999500Y-124520404D01*
X231603943Y-125124847D01*
X231611487Y-125133137D01*
X231615600Y-125139618D01*
X231621377Y-125145043D01*
X231665267Y-125186258D01*
X231668109Y-125189013D01*
X231687831Y-125208735D01*
X231690955Y-125211158D01*
X231690959Y-125211162D01*
X231691024Y-125211212D01*
X231700045Y-125218917D01*
X231732279Y-125249186D01*
X231739227Y-125253005D01*
X231739229Y-125253007D01*
X231743007Y-125255084D01*
X231745400Y-125257491D01*
X231745640Y-125257665D01*
X231745612Y-125257704D01*
X231793067Y-125305428D01*
X231807962Y-125374845D01*
X231782963Y-125441294D01*
X231726007Y-125483680D01*
X231682309Y-125491500D01*
X163549367Y-125491500D01*
X163529982Y-125490000D01*
X163515149Y-125487690D01*
X163515145Y-125487690D01*
X163506276Y-125486309D01*
X163487564Y-125488756D01*
X163464634Y-125489647D01*
X163193897Y-125475458D01*
X163180791Y-125474081D01*
X162965866Y-125440040D01*
X162884555Y-125427162D01*
X162871655Y-125424420D01*
X162649332Y-125364849D01*
X162581948Y-125346793D01*
X162569414Y-125342721D01*
X162289412Y-125235237D01*
X162277365Y-125229874D01*
X162010130Y-125093711D01*
X161998714Y-125087120D01*
X161747168Y-124923764D01*
X161736505Y-124916016D01*
X161695954Y-124883178D01*
X161503427Y-124727273D01*
X161493626Y-124718448D01*
X161281552Y-124506374D01*
X161272727Y-124496573D01*
X161216990Y-124427744D01*
X161083982Y-124263492D01*
X161076236Y-124252832D01*
X160912880Y-124001286D01*
X160906289Y-123989870D01*
X160785866Y-123753526D01*
X160770126Y-123722635D01*
X160764762Y-123710587D01*
X160657279Y-123430586D01*
X160653205Y-123418047D01*
X160575580Y-123128345D01*
X160572838Y-123115445D01*
X160534004Y-122870253D01*
X160525919Y-122819209D01*
X160524542Y-122806098D01*
X160520396Y-122726978D01*
X160510932Y-122546409D01*
X160512505Y-122518915D01*
X160513576Y-122512552D01*
X160513729Y-122500000D01*
X160509773Y-122472376D01*
X160508500Y-122454514D01*
X160508500Y-76549659D01*
X168814894Y-76549659D01*
X168824190Y-76561674D01*
X168864438Y-76589856D01*
X168873933Y-76595339D01*
X169063351Y-76683666D01*
X169073643Y-76687412D01*
X169275521Y-76741505D01*
X169286316Y-76743408D01*
X169494523Y-76761624D01*
X169505473Y-76761624D01*
X169713680Y-76743408D01*
X169724475Y-76741505D01*
X169926353Y-76687412D01*
X169936645Y-76683666D01*
X170126063Y-76595339D01*
X170135558Y-76589856D01*
X170176644Y-76561087D01*
X170185019Y-76550610D01*
X170177951Y-76537163D01*
X169512810Y-75872022D01*
X169498866Y-75864408D01*
X169497033Y-75864539D01*
X169490418Y-75868790D01*
X168821324Y-76537884D01*
X168814894Y-76549659D01*
X160508500Y-76549659D01*
X160508500Y-75505475D01*
X168238374Y-75505475D01*
X168256590Y-75713682D01*
X168258493Y-75724477D01*
X168312586Y-75926355D01*
X168316332Y-75936647D01*
X168404659Y-76126064D01*
X168410142Y-76135560D01*
X168438911Y-76176646D01*
X168449388Y-76185021D01*
X168462836Y-76177952D01*
X169127976Y-75512812D01*
X169134354Y-75501132D01*
X169864406Y-75501132D01*
X169864537Y-75502965D01*
X169868788Y-75509580D01*
X170537882Y-76178674D01*
X170549657Y-76185104D01*
X170561672Y-76175808D01*
X170589854Y-76135560D01*
X170595337Y-76126064D01*
X170683664Y-75936647D01*
X170687410Y-75926355D01*
X170741503Y-75724477D01*
X170743406Y-75713682D01*
X170761622Y-75505475D01*
X170761622Y-75500000D01*
X171737394Y-75500000D01*
X171756576Y-75719249D01*
X171758000Y-75724563D01*
X171758000Y-75724564D01*
X171782358Y-75815468D01*
X171813538Y-75931836D01*
X171815860Y-75936816D01*
X171815861Y-75936818D01*
X171897613Y-76112134D01*
X171906551Y-76131302D01*
X172032787Y-76311587D01*
X172188412Y-76467212D01*
X172192920Y-76470369D01*
X172192923Y-76470371D01*
X172363566Y-76589856D01*
X172368696Y-76593448D01*
X172373678Y-76595771D01*
X172373683Y-76595774D01*
X172550861Y-76678393D01*
X172568163Y-76686461D01*
X172573471Y-76687883D01*
X172573473Y-76687884D01*
X172775435Y-76741999D01*
X172775436Y-76741999D01*
X172780750Y-76743423D01*
X172999999Y-76762605D01*
X173219248Y-76743423D01*
X173224562Y-76741999D01*
X173224563Y-76741999D01*
X173426525Y-76687884D01*
X173426527Y-76687883D01*
X173431835Y-76686461D01*
X173449137Y-76678393D01*
X173626315Y-76595774D01*
X173626320Y-76595771D01*
X173631302Y-76593448D01*
X173636432Y-76589856D01*
X173807075Y-76470371D01*
X173807078Y-76470369D01*
X173811586Y-76467212D01*
X173967211Y-76311587D01*
X174093447Y-76131302D01*
X174102386Y-76112134D01*
X174184137Y-75936818D01*
X174184138Y-75936816D01*
X174186460Y-75931836D01*
X174217641Y-75815468D01*
X174241998Y-75724564D01*
X174241998Y-75724563D01*
X174243422Y-75719249D01*
X174262604Y-75500000D01*
X174243422Y-75280751D01*
X174216316Y-75179589D01*
X174187883Y-75073474D01*
X174187882Y-75073472D01*
X174186460Y-75068164D01*
X174171247Y-75035539D01*
X174095770Y-74873679D01*
X174095768Y-74873676D01*
X174093447Y-74868698D01*
X173967211Y-74688413D01*
X173811586Y-74532788D01*
X173807078Y-74529631D01*
X173807075Y-74529629D01*
X173635811Y-74409709D01*
X173635808Y-74409707D01*
X173631302Y-74406552D01*
X173626320Y-74404229D01*
X173626315Y-74404226D01*
X173436817Y-74315862D01*
X173436816Y-74315861D01*
X173431835Y-74313539D01*
X173426527Y-74312117D01*
X173426525Y-74312116D01*
X173224563Y-74258001D01*
X173224562Y-74258001D01*
X173219248Y-74256577D01*
X172999999Y-74237395D01*
X172780750Y-74256577D01*
X172775436Y-74258001D01*
X172775435Y-74258001D01*
X172573473Y-74312116D01*
X172573471Y-74312117D01*
X172568163Y-74313539D01*
X172563183Y-74315861D01*
X172563181Y-74315862D01*
X172373678Y-74404229D01*
X172373675Y-74404231D01*
X172368697Y-74406552D01*
X172188412Y-74532788D01*
X172032787Y-74688413D01*
X171906551Y-74868698D01*
X171904230Y-74873676D01*
X171904228Y-74873679D01*
X171828751Y-75035539D01*
X171813538Y-75068164D01*
X171812116Y-75073472D01*
X171812115Y-75073474D01*
X171783682Y-75179589D01*
X171756576Y-75280751D01*
X171737394Y-75500000D01*
X170761622Y-75500000D01*
X170761622Y-75494525D01*
X170743406Y-75286318D01*
X170741503Y-75275523D01*
X170687410Y-75073645D01*
X170683664Y-75063353D01*
X170595337Y-74873936D01*
X170589854Y-74864440D01*
X170561085Y-74823354D01*
X170550608Y-74814979D01*
X170537160Y-74822048D01*
X169872020Y-75487188D01*
X169864406Y-75501132D01*
X169134354Y-75501132D01*
X169135590Y-75498868D01*
X169135459Y-75497035D01*
X169131208Y-75490420D01*
X168462114Y-74821326D01*
X168450339Y-74814896D01*
X168438324Y-74824192D01*
X168410142Y-74864440D01*
X168404659Y-74873936D01*
X168316332Y-75063353D01*
X168312586Y-75073645D01*
X168258493Y-75275523D01*
X168256590Y-75286318D01*
X168238374Y-75494525D01*
X168238374Y-75505475D01*
X160508500Y-75505475D01*
X160508500Y-74449390D01*
X168814977Y-74449390D01*
X168822046Y-74462838D01*
X169487186Y-75127978D01*
X169501130Y-75135592D01*
X169502963Y-75135461D01*
X169509578Y-75131210D01*
X170178672Y-74462116D01*
X170185102Y-74450341D01*
X170175806Y-74438326D01*
X170135558Y-74410144D01*
X170126063Y-74404661D01*
X169936645Y-74316334D01*
X169926353Y-74312588D01*
X169724475Y-74258495D01*
X169713680Y-74256592D01*
X169505473Y-74238376D01*
X169494523Y-74238376D01*
X169286316Y-74256592D01*
X169275521Y-74258495D01*
X169073643Y-74312588D01*
X169063351Y-74316334D01*
X168873934Y-74404661D01*
X168864438Y-74410144D01*
X168823352Y-74438913D01*
X168814977Y-74449390D01*
X160508500Y-74449390D01*
X160508500Y-73553250D01*
X160510246Y-73532345D01*
X160512770Y-73517344D01*
X160512770Y-73517341D01*
X160513576Y-73512552D01*
X160513729Y-73500000D01*
X160513039Y-73495180D01*
X160511644Y-73485437D01*
X160510545Y-73460983D01*
X160520631Y-73268533D01*
X160524542Y-73193899D01*
X160525920Y-73180785D01*
X160536256Y-73115529D01*
X160572838Y-72884555D01*
X160575580Y-72871655D01*
X160637902Y-72639064D01*
X160653207Y-72581948D01*
X160657281Y-72569409D01*
X160725156Y-72392591D01*
X160764763Y-72289412D01*
X160770126Y-72277365D01*
X160906289Y-72010130D01*
X160912883Y-71998709D01*
X161024832Y-71826323D01*
X161076236Y-71747168D01*
X161083984Y-71736505D01*
X161089968Y-71729116D01*
X161272727Y-71503427D01*
X161281552Y-71493626D01*
X161493626Y-71281552D01*
X161503427Y-71272727D01*
X161736505Y-71083984D01*
X161747168Y-71076236D01*
X161998714Y-70912880D01*
X162010130Y-70906289D01*
X162277365Y-70770126D01*
X162289413Y-70764762D01*
X162294149Y-70762944D01*
X162569414Y-70657279D01*
X162581948Y-70653207D01*
X162726804Y-70614393D01*
X162871655Y-70575580D01*
X162884555Y-70572838D01*
X162965866Y-70559960D01*
X163180791Y-70525919D01*
X163193899Y-70524542D01*
X163269063Y-70520603D01*
X163457299Y-70510738D01*
X163483276Y-70512065D01*
X163484846Y-70512309D01*
X163484850Y-70512309D01*
X163493724Y-70513691D01*
X163502626Y-70512527D01*
X163502628Y-70512527D01*
X163517677Y-70510559D01*
X163525286Y-70509564D01*
X163541621Y-70508500D01*
X183791405Y-70508500D01*
X183859526Y-70528502D01*
G37*
%TD.AperFunction*%
%TA.AperFunction,Conductor*%
G36*
X217419613Y-105273502D02*
G01*
X217454704Y-105307228D01*
X217553257Y-105447976D01*
X217712024Y-105606743D01*
X217716532Y-105609900D01*
X217716535Y-105609902D01*
X217890588Y-105731776D01*
X217934916Y-105787234D01*
X217942225Y-105857853D01*
X217907412Y-105924084D01*
X211578556Y-112252939D01*
X205344000Y-118487495D01*
X205281688Y-118521521D01*
X205254905Y-118524400D01*
X179675694Y-118524400D01*
X179607573Y-118504398D01*
X179561080Y-118450742D01*
X179550976Y-118380468D01*
X179580470Y-118315888D01*
X179586599Y-118309305D01*
X189208008Y-108687896D01*
X191076658Y-108687896D01*
X191085954Y-108699912D01*
X191131695Y-108731940D01*
X191141185Y-108737419D01*
X191334633Y-108827625D01*
X191344925Y-108831371D01*
X191551096Y-108886614D01*
X191561891Y-108888517D01*
X191774525Y-108907121D01*
X191785475Y-108907121D01*
X191998109Y-108888517D01*
X192008904Y-108886614D01*
X192215075Y-108831371D01*
X192225367Y-108827625D01*
X192418815Y-108737419D01*
X192428305Y-108731940D01*
X192474885Y-108699324D01*
X192483259Y-108688848D01*
X192476190Y-108675400D01*
X191792812Y-107992022D01*
X191778868Y-107984408D01*
X191777035Y-107984539D01*
X191770420Y-107988790D01*
X191083088Y-108676122D01*
X191076658Y-108687896D01*
X189208008Y-108687896D01*
X190283917Y-107611987D01*
X190346229Y-107577961D01*
X190417044Y-107583026D01*
X190473880Y-107625573D01*
X190498532Y-107690100D01*
X190511481Y-107838097D01*
X190513386Y-107848904D01*
X190568629Y-108055075D01*
X190572375Y-108065367D01*
X190662581Y-108258815D01*
X190668060Y-108268305D01*
X190700676Y-108314885D01*
X190711152Y-108323259D01*
X190724600Y-108316190D01*
X191419658Y-107621132D01*
X192144408Y-107621132D01*
X192144539Y-107622965D01*
X192148790Y-107629580D01*
X192836122Y-108316912D01*
X192847896Y-108323342D01*
X192859912Y-108314046D01*
X192891940Y-108268305D01*
X192897419Y-108258815D01*
X192987625Y-108065367D01*
X192991371Y-108055075D01*
X193046614Y-107848904D01*
X193048517Y-107838109D01*
X193067121Y-107625475D01*
X193067121Y-107614525D01*
X193048517Y-107401891D01*
X193046614Y-107391096D01*
X192991371Y-107184925D01*
X192987625Y-107174633D01*
X192897419Y-106981185D01*
X192891940Y-106971695D01*
X192859324Y-106925115D01*
X192848848Y-106916741D01*
X192835400Y-106923810D01*
X192152022Y-107607188D01*
X192144408Y-107621132D01*
X191419658Y-107621132D01*
X192476912Y-106563878D01*
X192483342Y-106552104D01*
X192474046Y-106540088D01*
X192428305Y-106508060D01*
X192418815Y-106502581D01*
X192225367Y-106412375D01*
X192215075Y-106408629D01*
X192008904Y-106353386D01*
X191998097Y-106351481D01*
X191850100Y-106338532D01*
X191783982Y-106312669D01*
X191742342Y-106255166D01*
X191738402Y-106184278D01*
X191771987Y-106123917D01*
X192605499Y-105290405D01*
X192667811Y-105256379D01*
X192694594Y-105253500D01*
X217351492Y-105253500D01*
X217419613Y-105273502D01*
G37*
%TD.AperFunction*%
%TD*%
M02*
