%TF.GenerationSoftware,KiCad,Pcbnew,(6.0.4)*%
%TF.CreationDate,2022-03-25T16:17:33-04:00*%
%TF.ProjectId,relay_board,72656c61-795f-4626-9f61-72642e6b6963,rev?*%
%TF.SameCoordinates,Original*%
%TF.FileFunction,Legend,Bot*%
%TF.FilePolarity,Positive*%
%FSLAX46Y46*%
G04 Gerber Fmt 4.6, Leading zero omitted, Abs format (unit mm)*
G04 Created by KiCad (PCBNEW (6.0.4)) date 2022-03-25 16:17:33*
%MOMM*%
%LPD*%
G01*
G04 APERTURE LIST*
%ADD10C,0.170000*%
%ADD11C,0.150000*%
%ADD12C,0.120000*%
G04 APERTURE END LIST*
D10*
X215392857Y-105777142D02*
X215178571Y-105848571D01*
X214821428Y-105848571D01*
X214678571Y-105777142D01*
X214607142Y-105705714D01*
X214535714Y-105562857D01*
X214535714Y-105420000D01*
X214607142Y-105277142D01*
X214678571Y-105205714D01*
X214821428Y-105134285D01*
X215107142Y-105062857D01*
X215250000Y-104991428D01*
X215321428Y-104920000D01*
X215392857Y-104777142D01*
X215392857Y-104634285D01*
X215321428Y-104491428D01*
X215250000Y-104420000D01*
X215107142Y-104348571D01*
X214750000Y-104348571D01*
X214535714Y-104420000D01*
X213892857Y-105848571D02*
X213892857Y-104348571D01*
X213535714Y-104348571D01*
X213321428Y-104420000D01*
X213178571Y-104562857D01*
X213107142Y-104705714D01*
X213035714Y-104991428D01*
X213035714Y-105205714D01*
X213107142Y-105491428D01*
X213178571Y-105634285D01*
X213321428Y-105777142D01*
X213535714Y-105848571D01*
X213892857Y-105848571D01*
X212464285Y-105420000D02*
X211750000Y-105420000D01*
X212607142Y-105848571D02*
X212107142Y-104348571D01*
X211607142Y-105848571D01*
X210107142Y-105991428D02*
X210250000Y-105920000D01*
X210392857Y-105777142D01*
X210607142Y-105562857D01*
X210750000Y-105491428D01*
X210892857Y-105491428D01*
X210821428Y-105848571D02*
X210964285Y-105777142D01*
X211107142Y-105634285D01*
X211178571Y-105348571D01*
X211178571Y-104848571D01*
X211107142Y-104562857D01*
X210964285Y-104420000D01*
X210821428Y-104348571D01*
X210535714Y-104348571D01*
X210392857Y-104420000D01*
X210250000Y-104562857D01*
X210178571Y-104848571D01*
X210178571Y-105348571D01*
X210250000Y-105634285D01*
X210392857Y-105777142D01*
X210535714Y-105848571D01*
X210821428Y-105848571D01*
X208464285Y-105777142D02*
X208250000Y-105848571D01*
X207892857Y-105848571D01*
X207750000Y-105777142D01*
X207678571Y-105705714D01*
X207607142Y-105562857D01*
X207607142Y-105420000D01*
X207678571Y-105277142D01*
X207750000Y-105205714D01*
X207892857Y-105134285D01*
X208178571Y-105062857D01*
X208321428Y-104991428D01*
X208392857Y-104920000D01*
X208464285Y-104777142D01*
X208464285Y-104634285D01*
X208392857Y-104491428D01*
X208321428Y-104420000D01*
X208178571Y-104348571D01*
X207821428Y-104348571D01*
X207607142Y-104420000D01*
X206964285Y-105848571D02*
X206964285Y-104348571D01*
X206392857Y-104348571D01*
X206250000Y-104420000D01*
X206178571Y-104491428D01*
X206107142Y-104634285D01*
X206107142Y-104848571D01*
X206178571Y-104991428D01*
X206250000Y-105062857D01*
X206392857Y-105134285D01*
X206964285Y-105134285D01*
X205464285Y-105848571D02*
X205464285Y-104348571D01*
X205107142Y-104348571D01*
X204892857Y-104420000D01*
X204750000Y-104562857D01*
X204678571Y-104705714D01*
X204607142Y-104991428D01*
X204607142Y-105205714D01*
X204678571Y-105491428D01*
X204750000Y-105634285D01*
X204892857Y-105777142D01*
X205107142Y-105848571D01*
X205464285Y-105848571D01*
X204178571Y-104348571D02*
X203321428Y-104348571D01*
X203750000Y-105848571D02*
X203750000Y-104348571D01*
X200821428Y-105848571D02*
X201321428Y-105134285D01*
X201678571Y-105848571D02*
X201678571Y-104348571D01*
X201107142Y-104348571D01*
X200964285Y-104420000D01*
X200892857Y-104491428D01*
X200821428Y-104634285D01*
X200821428Y-104848571D01*
X200892857Y-104991428D01*
X200964285Y-105062857D01*
X201107142Y-105134285D01*
X201678571Y-105134285D01*
X199607142Y-105777142D02*
X199750000Y-105848571D01*
X200035714Y-105848571D01*
X200178571Y-105777142D01*
X200250000Y-105634285D01*
X200250000Y-105062857D01*
X200178571Y-104920000D01*
X200035714Y-104848571D01*
X199750000Y-104848571D01*
X199607142Y-104920000D01*
X199535714Y-105062857D01*
X199535714Y-105205714D01*
X200250000Y-105348571D01*
X198678571Y-105848571D02*
X198821428Y-105777142D01*
X198892857Y-105634285D01*
X198892857Y-104348571D01*
X197464285Y-105848571D02*
X197464285Y-105062857D01*
X197535714Y-104920000D01*
X197678571Y-104848571D01*
X197964285Y-104848571D01*
X198107142Y-104920000D01*
X197464285Y-105777142D02*
X197607142Y-105848571D01*
X197964285Y-105848571D01*
X198107142Y-105777142D01*
X198178571Y-105634285D01*
X198178571Y-105491428D01*
X198107142Y-105348571D01*
X197964285Y-105277142D01*
X197607142Y-105277142D01*
X197464285Y-105205714D01*
X196892857Y-104848571D02*
X196535714Y-105848571D01*
X196178571Y-104848571D02*
X196535714Y-105848571D01*
X196678571Y-106205714D01*
X196750000Y-106277142D01*
X196892857Y-106348571D01*
X193964285Y-105062857D02*
X193750000Y-105134285D01*
X193678571Y-105205714D01*
X193607142Y-105348571D01*
X193607142Y-105562857D01*
X193678571Y-105705714D01*
X193750000Y-105777142D01*
X193892857Y-105848571D01*
X194464285Y-105848571D01*
X194464285Y-104348571D01*
X193964285Y-104348571D01*
X193821428Y-104420000D01*
X193750000Y-104491428D01*
X193678571Y-104634285D01*
X193678571Y-104777142D01*
X193750000Y-104920000D01*
X193821428Y-104991428D01*
X193964285Y-105062857D01*
X194464285Y-105062857D01*
X192750000Y-105848571D02*
X192892857Y-105777142D01*
X192964285Y-105705714D01*
X193035714Y-105562857D01*
X193035714Y-105134285D01*
X192964285Y-104991428D01*
X192892857Y-104920000D01*
X192750000Y-104848571D01*
X192535714Y-104848571D01*
X192392857Y-104920000D01*
X192321428Y-104991428D01*
X192250000Y-105134285D01*
X192250000Y-105562857D01*
X192321428Y-105705714D01*
X192392857Y-105777142D01*
X192535714Y-105848571D01*
X192750000Y-105848571D01*
X190964285Y-105848571D02*
X190964285Y-105062857D01*
X191035714Y-104920000D01*
X191178571Y-104848571D01*
X191464285Y-104848571D01*
X191607142Y-104920000D01*
X190964285Y-105777142D02*
X191107142Y-105848571D01*
X191464285Y-105848571D01*
X191607142Y-105777142D01*
X191678571Y-105634285D01*
X191678571Y-105491428D01*
X191607142Y-105348571D01*
X191464285Y-105277142D01*
X191107142Y-105277142D01*
X190964285Y-105205714D01*
X190250000Y-105848571D02*
X190250000Y-104848571D01*
X190250000Y-105134285D02*
X190178571Y-104991428D01*
X190107142Y-104920000D01*
X189964285Y-104848571D01*
X189821428Y-104848571D01*
X188678571Y-105848571D02*
X188678571Y-104348571D01*
X188678571Y-105777142D02*
X188821428Y-105848571D01*
X189107142Y-105848571D01*
X189250000Y-105777142D01*
X189321428Y-105705714D01*
X189392857Y-105562857D01*
X189392857Y-105134285D01*
X189321428Y-104991428D01*
X189250000Y-104920000D01*
X189107142Y-104848571D01*
X188821428Y-104848571D01*
X188678571Y-104920000D01*
X206642857Y-108263571D02*
X207142857Y-107549285D01*
X207500000Y-108263571D02*
X207500000Y-106763571D01*
X206928571Y-106763571D01*
X206785714Y-106835000D01*
X206714285Y-106906428D01*
X206642857Y-107049285D01*
X206642857Y-107263571D01*
X206714285Y-107406428D01*
X206785714Y-107477857D01*
X206928571Y-107549285D01*
X207500000Y-107549285D01*
X205428571Y-108192142D02*
X205571428Y-108263571D01*
X205857142Y-108263571D01*
X206000000Y-108192142D01*
X206071428Y-108049285D01*
X206071428Y-107477857D01*
X206000000Y-107335000D01*
X205857142Y-107263571D01*
X205571428Y-107263571D01*
X205428571Y-107335000D01*
X205357142Y-107477857D01*
X205357142Y-107620714D01*
X206071428Y-107763571D01*
X204857142Y-107263571D02*
X204500000Y-108263571D01*
X204142857Y-107263571D01*
X203571428Y-108263571D02*
X203571428Y-107263571D01*
X203571428Y-106763571D02*
X203642857Y-106835000D01*
X203571428Y-106906428D01*
X203500000Y-106835000D01*
X203571428Y-106763571D01*
X203571428Y-106906428D01*
X202928571Y-108192142D02*
X202785714Y-108263571D01*
X202500000Y-108263571D01*
X202357142Y-108192142D01*
X202285714Y-108049285D01*
X202285714Y-107977857D01*
X202357142Y-107835000D01*
X202500000Y-107763571D01*
X202714285Y-107763571D01*
X202857142Y-107692142D01*
X202928571Y-107549285D01*
X202928571Y-107477857D01*
X202857142Y-107335000D01*
X202714285Y-107263571D01*
X202500000Y-107263571D01*
X202357142Y-107335000D01*
X201642857Y-108263571D02*
X201642857Y-107263571D01*
X201642857Y-106763571D02*
X201714285Y-106835000D01*
X201642857Y-106906428D01*
X201571428Y-106835000D01*
X201642857Y-106763571D01*
X201642857Y-106906428D01*
X200714285Y-108263571D02*
X200857142Y-108192142D01*
X200928571Y-108120714D01*
X201000000Y-107977857D01*
X201000000Y-107549285D01*
X200928571Y-107406428D01*
X200857142Y-107335000D01*
X200714285Y-107263571D01*
X200500000Y-107263571D01*
X200357142Y-107335000D01*
X200285714Y-107406428D01*
X200214285Y-107549285D01*
X200214285Y-107977857D01*
X200285714Y-108120714D01*
X200357142Y-108192142D01*
X200500000Y-108263571D01*
X200714285Y-108263571D01*
X199571428Y-107263571D02*
X199571428Y-108263571D01*
X199571428Y-107406428D02*
X199500000Y-107335000D01*
X199357142Y-107263571D01*
X199142857Y-107263571D01*
X199000000Y-107335000D01*
X198928571Y-107477857D01*
X198928571Y-108263571D01*
X197142857Y-107835000D02*
X196428571Y-107835000D01*
X197285714Y-108263571D02*
X196785714Y-106763571D01*
X196285714Y-108263571D01*
X210607142Y-110607142D02*
X210392857Y-110678571D01*
X210035714Y-110678571D01*
X209892857Y-110607142D01*
X209821428Y-110535714D01*
X209750000Y-110392857D01*
X209750000Y-110250000D01*
X209821428Y-110107142D01*
X209892857Y-110035714D01*
X210035714Y-109964285D01*
X210321428Y-109892857D01*
X210464285Y-109821428D01*
X210535714Y-109750000D01*
X210607142Y-109607142D01*
X210607142Y-109464285D01*
X210535714Y-109321428D01*
X210464285Y-109250000D01*
X210321428Y-109178571D01*
X209964285Y-109178571D01*
X209750000Y-109250000D01*
X208464285Y-110678571D02*
X208464285Y-109892857D01*
X208535714Y-109750000D01*
X208678571Y-109678571D01*
X208964285Y-109678571D01*
X209107142Y-109750000D01*
X208464285Y-110607142D02*
X208607142Y-110678571D01*
X208964285Y-110678571D01*
X209107142Y-110607142D01*
X209178571Y-110464285D01*
X209178571Y-110321428D01*
X209107142Y-110178571D01*
X208964285Y-110107142D01*
X208607142Y-110107142D01*
X208464285Y-110035714D01*
X207750000Y-110678571D02*
X207750000Y-109678571D01*
X207750000Y-109821428D02*
X207678571Y-109750000D01*
X207535714Y-109678571D01*
X207321428Y-109678571D01*
X207178571Y-109750000D01*
X207107142Y-109892857D01*
X207107142Y-110678571D01*
X207107142Y-109892857D02*
X207035714Y-109750000D01*
X206892857Y-109678571D01*
X206678571Y-109678571D01*
X206535714Y-109750000D01*
X206464285Y-109892857D01*
X206464285Y-110678571D01*
X205107142Y-109678571D02*
X205107142Y-110678571D01*
X205750000Y-109678571D02*
X205750000Y-110464285D01*
X205678571Y-110607142D01*
X205535714Y-110678571D01*
X205321428Y-110678571D01*
X205178571Y-110607142D01*
X205107142Y-110535714D01*
X203821428Y-110607142D02*
X203964285Y-110678571D01*
X204250000Y-110678571D01*
X204392857Y-110607142D01*
X204464285Y-110464285D01*
X204464285Y-109892857D01*
X204392857Y-109750000D01*
X204250000Y-109678571D01*
X203964285Y-109678571D01*
X203821428Y-109750000D01*
X203750000Y-109892857D01*
X203750000Y-110035714D01*
X204464285Y-110178571D01*
X202892857Y-110678571D02*
X203035714Y-110607142D01*
X203107142Y-110464285D01*
X203107142Y-109178571D01*
X200392857Y-109250000D02*
X200535714Y-109178571D01*
X200750000Y-109178571D01*
X200964285Y-109250000D01*
X201107142Y-109392857D01*
X201178571Y-109535714D01*
X201250000Y-109821428D01*
X201250000Y-110035714D01*
X201178571Y-110321428D01*
X201107142Y-110464285D01*
X200964285Y-110607142D01*
X200750000Y-110678571D01*
X200607142Y-110678571D01*
X200392857Y-110607142D01*
X200321428Y-110535714D01*
X200321428Y-110035714D01*
X200607142Y-110035714D01*
X199678571Y-110678571D02*
X199678571Y-109678571D01*
X199678571Y-109964285D02*
X199607142Y-109821428D01*
X199535714Y-109750000D01*
X199392857Y-109678571D01*
X199250000Y-109678571D01*
X198535714Y-110678571D02*
X198678571Y-110607142D01*
X198750000Y-110535714D01*
X198821428Y-110392857D01*
X198821428Y-109964285D01*
X198750000Y-109821428D01*
X198678571Y-109750000D01*
X198535714Y-109678571D01*
X198321428Y-109678571D01*
X198178571Y-109750000D01*
X198107142Y-109821428D01*
X198035714Y-109964285D01*
X198035714Y-110392857D01*
X198107142Y-110535714D01*
X198178571Y-110607142D01*
X198321428Y-110678571D01*
X198535714Y-110678571D01*
X197464285Y-110607142D02*
X197321428Y-110678571D01*
X197035714Y-110678571D01*
X196892857Y-110607142D01*
X196821428Y-110464285D01*
X196821428Y-110392857D01*
X196892857Y-110250000D01*
X197035714Y-110178571D01*
X197250000Y-110178571D01*
X197392857Y-110107142D01*
X197464285Y-109964285D01*
X197464285Y-109892857D01*
X197392857Y-109750000D01*
X197250000Y-109678571D01*
X197035714Y-109678571D01*
X196892857Y-109750000D01*
X196250000Y-110607142D02*
X196107142Y-110678571D01*
X195821428Y-110678571D01*
X195678571Y-110607142D01*
X195607142Y-110464285D01*
X195607142Y-110392857D01*
X195678571Y-110250000D01*
X195821428Y-110178571D01*
X196035714Y-110178571D01*
X196178571Y-110107142D01*
X196250000Y-109964285D01*
X196250000Y-109892857D01*
X196178571Y-109750000D01*
X196035714Y-109678571D01*
X195821428Y-109678571D01*
X195678571Y-109750000D01*
X194392857Y-110607142D02*
X194535714Y-110678571D01*
X194821428Y-110678571D01*
X194964285Y-110607142D01*
X195035714Y-110464285D01*
X195035714Y-109892857D01*
X194964285Y-109750000D01*
X194821428Y-109678571D01*
X194535714Y-109678571D01*
X194392857Y-109750000D01*
X194321428Y-109892857D01*
X194321428Y-110035714D01*
X195035714Y-110178571D01*
X193678571Y-110678571D02*
X193678571Y-109678571D01*
X193678571Y-109964285D02*
X193607142Y-109821428D01*
X193535714Y-109750000D01*
X193392857Y-109678571D01*
X193250000Y-109678571D01*
X210857142Y-113665000D02*
X210928571Y-113593571D01*
X211071428Y-113379285D01*
X211142857Y-113236428D01*
X211214285Y-113022142D01*
X211285714Y-112665000D01*
X211285714Y-112379285D01*
X211214285Y-112022142D01*
X211142857Y-111807857D01*
X211071428Y-111665000D01*
X210928571Y-111450714D01*
X210857142Y-111379285D01*
X210357142Y-111736428D02*
X210285714Y-111665000D01*
X210142857Y-111593571D01*
X209785714Y-111593571D01*
X209642857Y-111665000D01*
X209571428Y-111736428D01*
X209500000Y-111879285D01*
X209500000Y-112022142D01*
X209571428Y-112236428D01*
X210428571Y-113093571D01*
X209500000Y-113093571D01*
X208071428Y-113093571D02*
X208928571Y-113093571D01*
X208500000Y-113093571D02*
X208500000Y-111593571D01*
X208642857Y-111807857D01*
X208785714Y-111950714D01*
X208928571Y-112022142D01*
X206714285Y-111593571D02*
X207428571Y-111593571D01*
X207500000Y-112307857D01*
X207428571Y-112236428D01*
X207285714Y-112165000D01*
X206928571Y-112165000D01*
X206785714Y-112236428D01*
X206714285Y-112307857D01*
X206642857Y-112450714D01*
X206642857Y-112807857D01*
X206714285Y-112950714D01*
X206785714Y-113022142D01*
X206928571Y-113093571D01*
X207285714Y-113093571D01*
X207428571Y-113022142D01*
X207500000Y-112950714D01*
X206142857Y-113665000D02*
X206071428Y-113593571D01*
X205928571Y-113379285D01*
X205857142Y-113236428D01*
X205785714Y-113022142D01*
X205714285Y-112665000D01*
X205714285Y-112379285D01*
X205785714Y-112022142D01*
X205857142Y-111807857D01*
X205928571Y-111665000D01*
X206071428Y-111450714D01*
X206142857Y-111379285D01*
X203142857Y-111593571D02*
X203857142Y-111593571D01*
X203928571Y-112307857D01*
X203857142Y-112236428D01*
X203714285Y-112165000D01*
X203357142Y-112165000D01*
X203214285Y-112236428D01*
X203142857Y-112307857D01*
X203071428Y-112450714D01*
X203071428Y-112807857D01*
X203142857Y-112950714D01*
X203214285Y-113022142D01*
X203357142Y-113093571D01*
X203714285Y-113093571D01*
X203857142Y-113022142D01*
X203928571Y-112950714D01*
X201642857Y-113093571D02*
X202500000Y-113093571D01*
X202071428Y-113093571D02*
X202071428Y-111593571D01*
X202214285Y-111807857D01*
X202357142Y-111950714D01*
X202500000Y-112022142D01*
X200357142Y-111593571D02*
X200642857Y-111593571D01*
X200785714Y-111665000D01*
X200857142Y-111736428D01*
X201000000Y-111950714D01*
X201071428Y-112236428D01*
X201071428Y-112807857D01*
X201000000Y-112950714D01*
X200928571Y-113022142D01*
X200785714Y-113093571D01*
X200500000Y-113093571D01*
X200357142Y-113022142D01*
X200285714Y-112950714D01*
X200214285Y-112807857D01*
X200214285Y-112450714D01*
X200285714Y-112307857D01*
X200357142Y-112236428D01*
X200500000Y-112165000D01*
X200785714Y-112165000D01*
X200928571Y-112236428D01*
X201000000Y-112307857D01*
X201071428Y-112450714D01*
X199571428Y-112522142D02*
X198428571Y-112522142D01*
X197642857Y-113093571D02*
X197357142Y-113093571D01*
X197214285Y-113022142D01*
X197142857Y-112950714D01*
X197000000Y-112736428D01*
X196928571Y-112450714D01*
X196928571Y-111879285D01*
X197000000Y-111736428D01*
X197071428Y-111665000D01*
X197214285Y-111593571D01*
X197500000Y-111593571D01*
X197642857Y-111665000D01*
X197714285Y-111736428D01*
X197785714Y-111879285D01*
X197785714Y-112236428D01*
X197714285Y-112379285D01*
X197642857Y-112450714D01*
X197500000Y-112522142D01*
X197214285Y-112522142D01*
X197071428Y-112450714D01*
X197000000Y-112379285D01*
X196928571Y-112236428D01*
X196428571Y-111593571D02*
X195428571Y-111593571D01*
X196071428Y-113093571D01*
X194785714Y-113093571D02*
X194500000Y-113093571D01*
X194357142Y-113022142D01*
X194285714Y-112950714D01*
X194142857Y-112736428D01*
X194071428Y-112450714D01*
X194071428Y-111879285D01*
X194142857Y-111736428D01*
X194214285Y-111665000D01*
X194357142Y-111593571D01*
X194642857Y-111593571D01*
X194785714Y-111665000D01*
X194857142Y-111736428D01*
X194928571Y-111879285D01*
X194928571Y-112236428D01*
X194857142Y-112379285D01*
X194785714Y-112450714D01*
X194642857Y-112522142D01*
X194357142Y-112522142D01*
X194214285Y-112450714D01*
X194142857Y-112379285D01*
X194071428Y-112236428D01*
X193357142Y-113093571D02*
X193071428Y-113093571D01*
X192928571Y-113022142D01*
X192857142Y-112950714D01*
X192714285Y-112736428D01*
X192642857Y-112450714D01*
X192642857Y-111879285D01*
X192714285Y-111736428D01*
X192785714Y-111665000D01*
X192928571Y-111593571D01*
X193214285Y-111593571D01*
X193357142Y-111665000D01*
X193428571Y-111736428D01*
X193500000Y-111879285D01*
X193500000Y-112236428D01*
X193428571Y-112379285D01*
X193357142Y-112450714D01*
X193214285Y-112522142D01*
X192928571Y-112522142D01*
X192785714Y-112450714D01*
X192714285Y-112379285D01*
X192642857Y-112236428D01*
X205642857Y-115508571D02*
X206142857Y-114794285D01*
X206500000Y-115508571D02*
X206500000Y-114008571D01*
X205928571Y-114008571D01*
X205785714Y-114080000D01*
X205714285Y-114151428D01*
X205642857Y-114294285D01*
X205642857Y-114508571D01*
X205714285Y-114651428D01*
X205785714Y-114722857D01*
X205928571Y-114794285D01*
X206500000Y-114794285D01*
X205000000Y-115508571D02*
X205000000Y-114008571D01*
X204500000Y-114008571D02*
X203642857Y-114008571D01*
X204071428Y-115508571D02*
X204071428Y-114008571D01*
X201500000Y-114722857D02*
X201285714Y-114794285D01*
X201214285Y-114865714D01*
X201142857Y-115008571D01*
X201142857Y-115222857D01*
X201214285Y-115365714D01*
X201285714Y-115437142D01*
X201428571Y-115508571D01*
X202000000Y-115508571D01*
X202000000Y-114008571D01*
X201500000Y-114008571D01*
X201357142Y-114080000D01*
X201285714Y-114151428D01*
X201214285Y-114294285D01*
X201214285Y-114437142D01*
X201285714Y-114580000D01*
X201357142Y-114651428D01*
X201500000Y-114722857D01*
X202000000Y-114722857D01*
X200571428Y-115080000D02*
X199857142Y-115080000D01*
X200714285Y-115508571D02*
X200214285Y-114008571D01*
X199714285Y-115508571D01*
X198785714Y-114008571D02*
X198785714Y-115080000D01*
X198857142Y-115294285D01*
X199000000Y-115437142D01*
X199214285Y-115508571D01*
X199357142Y-115508571D01*
X198142857Y-115080000D02*
X197428571Y-115080000D01*
X198285714Y-115508571D02*
X197785714Y-114008571D01*
X197285714Y-115508571D01*
D11*
X237003647Y-117816380D02*
X237003647Y-118530666D01*
X237051266Y-118673523D01*
X237146504Y-118768761D01*
X237289361Y-118816380D01*
X237384600Y-118816380D01*
X236051266Y-118816380D02*
X236527457Y-118816380D01*
X236527457Y-117816380D01*
X235146504Y-118721142D02*
X235194123Y-118768761D01*
X235336980Y-118816380D01*
X235432219Y-118816380D01*
X235575076Y-118768761D01*
X235670314Y-118673523D01*
X235717933Y-118578285D01*
X235765552Y-118387809D01*
X235765552Y-118244952D01*
X235717933Y-118054476D01*
X235670314Y-117959238D01*
X235575076Y-117864000D01*
X235432219Y-117816380D01*
X235336980Y-117816380D01*
X235194123Y-117864000D01*
X235146504Y-117911619D01*
X234432219Y-117816380D02*
X234432219Y-118530666D01*
X234479838Y-118673523D01*
X234575076Y-118768761D01*
X234717933Y-118816380D01*
X234813171Y-118816380D01*
X233479838Y-118816380D02*
X233956028Y-118816380D01*
X233956028Y-117816380D01*
X232575076Y-118721142D02*
X232622695Y-118768761D01*
X232765552Y-118816380D01*
X232860790Y-118816380D01*
X233003647Y-118768761D01*
X233098885Y-118673523D01*
X233146504Y-118578285D01*
X233194123Y-118387809D01*
X233194123Y-118244952D01*
X233146504Y-118054476D01*
X233098885Y-117959238D01*
X233003647Y-117864000D01*
X232860790Y-117816380D01*
X232765552Y-117816380D01*
X232622695Y-117864000D01*
X232575076Y-117911619D01*
X231860790Y-117816380D02*
X231860790Y-118530666D01*
X231908409Y-118673523D01*
X232003647Y-118768761D01*
X232146504Y-118816380D01*
X232241742Y-118816380D01*
X230908409Y-118816380D02*
X231384600Y-118816380D01*
X231384600Y-117816380D01*
X230003647Y-118721142D02*
X230051266Y-118768761D01*
X230194123Y-118816380D01*
X230289361Y-118816380D01*
X230432219Y-118768761D01*
X230527457Y-118673523D01*
X230575076Y-118578285D01*
X230622695Y-118387809D01*
X230622695Y-118244952D01*
X230575076Y-118054476D01*
X230527457Y-117959238D01*
X230432219Y-117864000D01*
X230289361Y-117816380D01*
X230194123Y-117816380D01*
X230051266Y-117864000D01*
X230003647Y-117911619D01*
X229289361Y-117816380D02*
X229289361Y-118530666D01*
X229336980Y-118673523D01*
X229432219Y-118768761D01*
X229575076Y-118816380D01*
X229670314Y-118816380D01*
X228336980Y-118816380D02*
X228813171Y-118816380D01*
X228813171Y-117816380D01*
X227432219Y-118721142D02*
X227479838Y-118768761D01*
X227622695Y-118816380D01*
X227717933Y-118816380D01*
X227860790Y-118768761D01*
X227956028Y-118673523D01*
X228003647Y-118578285D01*
X228051266Y-118387809D01*
X228051266Y-118244952D01*
X228003647Y-118054476D01*
X227956028Y-117959238D01*
X227860790Y-117864000D01*
X227717933Y-117816380D01*
X227622695Y-117816380D01*
X227479838Y-117864000D01*
X227432219Y-117911619D01*
D12*
%TO.C,J1*%
X166619000Y-120500000D02*
G75*
G03*
X166619000Y-120500000I-381000J0D01*
G01*
%TO.C,J7*%
X183643000Y-75500000D02*
G75*
G03*
X183643000Y-75500000I-381000J0D01*
G01*
%TO.C,J*%
X200119000Y-120500000D02*
G75*
G03*
X200119000Y-120500000I-381000J0D01*
G01*
%TO.C,J2*%
X183369000Y-120500000D02*
G75*
G03*
X183369000Y-120500000I-381000J0D01*
G01*
%TO.C,J4*%
X200393000Y-75500000D02*
G75*
G03*
X200393000Y-75500000I-381000J0D01*
G01*
%TD*%
M02*
