M48
; DRILL file {KiCad (5.1.9)-1} date 02/04/22 12:49:57
; FORMAT={-:-/ absolute / inch / decimal}
; #@! TF.CreationDate,2022-02-04T12:49:57-05:00
; #@! TF.GenerationSoftware,Kicad,Pcbnew,(5.1.9)-1
; #@! TF.FileFunction,Plated,1,2,PTH
FMAT,2
INCH
T1C0.0394
%
G90
G05
T1
X6.4173Y-3.4083
X6.4173Y-3.5083
X6.4173Y-3.6083
X6.4173Y-3.7083
X6.4173Y-3.8083
X6.4173Y-3.9083
X6.4173Y-4.0083
X6.4173Y-4.1083
X6.4173Y-4.2083
X6.4173Y-4.3083
X6.5173Y-3.4083
X6.5173Y-3.5083
X6.5173Y-3.6083
X6.5173Y-3.7083
X6.5173Y-3.8083
X6.5173Y-3.9083
X6.5173Y-4.0083
X6.5173Y-4.1083
X6.5173Y-4.2083
X6.5173Y-4.3083
X6.7173Y-3.4083
X6.7173Y-3.5083
X6.7173Y-3.6083
X6.7173Y-3.7083
X6.7173Y-3.8083
X6.7173Y-3.9083
X6.7173Y-4.0083
X6.7173Y-4.1083
X6.7173Y-4.2083
X6.7173Y-4.3083
X6.8173Y-3.4083
X6.8173Y-3.5083
X6.8173Y-3.6083
X6.8173Y-3.7083
X6.8173Y-3.8083
X6.8173Y-3.9083
X6.8173Y-4.0083
X6.8173Y-4.1083
X6.8173Y-4.2083
X6.8173Y-4.3083
X7.0173Y-3.4083
X7.0173Y-3.5083
X7.0173Y-3.6083
X7.0173Y-3.7083
X7.0173Y-3.8083
X7.0173Y-3.9083
X7.0173Y-4.0083
X7.0173Y-4.1083
X7.0173Y-4.2083
X7.0173Y-4.3083
X7.1173Y-3.4083
X7.1173Y-3.5083
X7.1173Y-3.6083
X7.1173Y-3.7083
X7.1173Y-3.8083
X7.1173Y-3.9083
X7.1173Y-4.0083
X7.1173Y-4.1083
X7.1173Y-4.2083
X7.1173Y-4.3083
X7.2724Y-2.8449
X7.2724Y-2.9449
X7.2724Y-3.5449
X7.2724Y-3.6449
X7.3224Y-4.2896
X7.3224Y-4.3896
X7.3224Y-4.4896
X7.3224Y-4.5896
X7.3224Y-4.6896
X7.3224Y-4.7896
X7.3724Y-2.8449
X7.3724Y-2.9449
X7.3724Y-3.5449
X7.3724Y-3.6449
X7.4224Y-4.2896
X7.4224Y-4.3896
X7.4224Y-4.4896
X7.4224Y-4.5896
X7.4224Y-4.6896
X7.4224Y-4.7896
X7.4724Y-2.8449
X7.4724Y-2.9449
X7.4724Y-3.5449
X7.4724Y-3.6449
X7.5224Y-4.2896
X7.5224Y-4.3896
X7.5224Y-4.4896
X7.5224Y-4.5896
X7.5224Y-4.6896
X7.5224Y-4.7896
X7.5724Y-2.8449
X7.5724Y-2.9449
X7.5724Y-3.5449
X7.5724Y-3.6449
X7.6224Y-4.2896
X7.6224Y-4.3896
X7.6224Y-4.4896
X7.6224Y-4.5896
X7.6224Y-4.6896
X7.6224Y-4.7896
X7.6724Y-2.8449
X7.6724Y-2.9449
X7.6724Y-3.5449
X7.6724Y-3.6449
X7.7224Y-4.2896
X7.7224Y-4.3896
X7.7224Y-4.4896
X7.7224Y-4.5896
X7.7224Y-4.6896
X7.7224Y-4.7896
X7.7724Y-2.8449
X7.7724Y-2.9449
X7.7724Y-3.5449
X7.7724Y-3.6449
X7.8224Y-4.2896
X7.8224Y-4.3896
X7.8224Y-4.4896
X7.8224Y-4.5896
X7.8224Y-4.6896
X7.8224Y-4.7896
X7.8724Y-2.8449
X7.8724Y-2.9449
X7.8724Y-3.5449
X7.8724Y-3.6449
X7.9224Y-4.2896
X7.9224Y-4.3896
X7.9224Y-4.4896
X7.9224Y-4.5896
X7.9224Y-4.6896
X7.9224Y-4.7896
X7.9724Y-2.8449
X7.9724Y-2.9449
X7.9724Y-3.5449
X7.9724Y-3.6449
X8.0224Y-4.2896
X8.0224Y-4.3896
X8.0224Y-4.4896
X8.0224Y-4.5896
X8.0224Y-4.6896
X8.0224Y-4.7896
X8.0724Y-2.8449
X8.0724Y-2.9449
X8.0724Y-3.5449
X8.0724Y-3.6449
X8.1224Y-4.2896
X8.1224Y-4.3896
X8.1224Y-4.4896
X8.1224Y-4.5896
X8.1224Y-4.6896
X8.1224Y-4.7896
X8.1724Y-2.8449
X8.1724Y-2.9449
X8.1724Y-3.5449
X8.1724Y-3.6449
X8.2224Y-4.2896
X8.2224Y-4.3896
X8.2224Y-4.4896
X8.2224Y-4.5896
X8.2224Y-4.6896
X8.2224Y-4.7896
X8.2724Y-2.8449
X8.2724Y-2.9449
X8.2724Y-3.5449
X8.2724Y-3.6449
X8.3224Y-4.2896
X8.3224Y-4.3896
X8.3224Y-4.4896
X8.3224Y-4.5896
X8.3224Y-4.6896
X8.3224Y-4.7896
X8.3724Y-2.8449
X8.3724Y-2.9449
X8.3724Y-3.5449
X8.3724Y-3.6449
X8.4224Y-4.2896
X8.4224Y-4.3896
X8.4224Y-4.4896
X8.4224Y-4.5896
X8.4224Y-4.6896
X8.4224Y-4.7896
X8.4724Y-2.8449
X8.4724Y-2.9449
X8.4724Y-3.5449
X8.4724Y-3.6449
X8.5224Y-4.2896
X8.5224Y-4.3896
X8.5224Y-4.4896
X8.5224Y-4.5896
X8.5224Y-4.6896
X8.5224Y-4.7896
X8.5724Y-2.8449
X8.5724Y-2.9449
X8.5724Y-3.5449
X8.5724Y-3.6449
X8.6224Y-4.2896
X8.6224Y-4.3896
X8.6224Y-4.4896
X8.6224Y-4.5896
X8.6224Y-4.6896
X8.6224Y-4.7896
X8.6724Y-2.8449
X8.6724Y-2.9449
X8.6724Y-3.5449
X8.6724Y-3.6449
X8.8291Y-3.3083
X8.8291Y-3.4083
X8.8291Y-3.5083
X8.8291Y-3.6083
X8.8291Y-3.7083
X8.8291Y-3.8083
X8.8291Y-3.9083
X8.8291Y-4.0083
X8.8291Y-4.1083
X8.8291Y-4.2083
X8.8291Y-4.3083
X8.8291Y-4.4083
X8.9291Y-3.3083
X8.9291Y-3.4083
X8.9291Y-3.5083
X8.9291Y-3.6083
X8.9291Y-3.7083
X8.9291Y-3.8083
X8.9291Y-3.9083
X8.9291Y-4.0083
X8.9291Y-4.1083
X8.9291Y-4.2083
X8.9291Y-4.3083
X8.9291Y-4.4083
X9.126Y-3.3083
X9.126Y-3.4083
X9.126Y-3.5083
X9.126Y-3.6083
X9.126Y-3.7083
X9.126Y-3.8083
X9.126Y-3.9083
X9.126Y-4.0083
X9.126Y-4.1083
X9.126Y-4.2083
X9.126Y-4.3083
X9.126Y-4.4083
X9.226Y-3.3083
X9.226Y-3.4083
X9.226Y-3.5083
X9.226Y-3.6083
X9.226Y-3.7083
X9.226Y-3.8083
X9.226Y-3.9083
X9.226Y-4.0083
X9.226Y-4.1083
X9.226Y-4.2083
X9.226Y-4.3083
X9.226Y-4.4083
X9.4291Y-3.3083
X9.4291Y-3.4083
X9.4291Y-3.5083
X9.4291Y-3.6083
X9.4291Y-3.7083
X9.4291Y-3.8083
X9.4291Y-3.9083
X9.4291Y-4.0083
X9.4291Y-4.1083
X9.4291Y-4.2083
X9.4291Y-4.3083
X9.4291Y-4.4083
X9.5291Y-3.3083
X9.5291Y-3.4083
X9.5291Y-3.5083
X9.5291Y-3.6083
X9.5291Y-3.7083
X9.5291Y-3.8083
X9.5291Y-3.9083
X9.5291Y-4.0083
X9.5291Y-4.1083
X9.5291Y-4.2083
X9.5291Y-4.3083
X9.5291Y-4.4083
T0
M30
