%TF.GenerationSoftware,KiCad,Pcbnew,(5.1.9)-1*%
%TF.CreationDate,2022-02-04T12:49:55-05:00*%
%TF.ProjectId,Breadboard-Testbed,42726561-6462-46f6-9172-642d54657374,rev?*%
%TF.SameCoordinates,Original*%
%TF.FileFunction,Legend,Bot*%
%TF.FilePolarity,Positive*%
%FSLAX46Y46*%
G04 Gerber Fmt 4.6, Leading zero omitted, Abs format (unit mm)*
G04 Created by KiCad (PCBNEW (5.1.9)-1) date 2022-02-04 12:49:55*
%MOMM*%
%LPD*%
G01*
G04 APERTURE LIST*
%ADD10C,0.200000*%
%ADD11C,0.250000*%
%ADD12C,0.120000*%
G04 APERTURE END LIST*
D10*
X221656285Y-86776642D02*
X221442000Y-86848071D01*
X221084857Y-86848071D01*
X220942000Y-86776642D01*
X220870571Y-86705214D01*
X220799142Y-86562357D01*
X220799142Y-86419500D01*
X220870571Y-86276642D01*
X220942000Y-86205214D01*
X221084857Y-86133785D01*
X221370571Y-86062357D01*
X221513428Y-85990928D01*
X221584857Y-85919500D01*
X221656285Y-85776642D01*
X221656285Y-85633785D01*
X221584857Y-85490928D01*
X221513428Y-85419500D01*
X221370571Y-85348071D01*
X221013428Y-85348071D01*
X220799142Y-85419500D01*
X220156285Y-86848071D02*
X220156285Y-85348071D01*
X219799142Y-85348071D01*
X219584857Y-85419500D01*
X219442000Y-85562357D01*
X219370571Y-85705214D01*
X219299142Y-85990928D01*
X219299142Y-86205214D01*
X219370571Y-86490928D01*
X219442000Y-86633785D01*
X219584857Y-86776642D01*
X219799142Y-86848071D01*
X220156285Y-86848071D01*
X218727714Y-86419500D02*
X218013428Y-86419500D01*
X218870571Y-86848071D02*
X218370571Y-85348071D01*
X217870571Y-86848071D01*
X216370571Y-86990928D02*
X216513428Y-86919500D01*
X216656285Y-86776642D01*
X216870571Y-86562357D01*
X217013428Y-86490928D01*
X217156285Y-86490928D01*
X217084857Y-86848071D02*
X217227714Y-86776642D01*
X217370571Y-86633785D01*
X217442000Y-86348071D01*
X217442000Y-85848071D01*
X217370571Y-85562357D01*
X217227714Y-85419500D01*
X217084857Y-85348071D01*
X216799142Y-85348071D01*
X216656285Y-85419500D01*
X216513428Y-85562357D01*
X216442000Y-85848071D01*
X216442000Y-86348071D01*
X216513428Y-86633785D01*
X216656285Y-86776642D01*
X216799142Y-86848071D01*
X217084857Y-86848071D01*
X214870571Y-85348071D02*
X214013428Y-85348071D01*
X214442000Y-86848071D02*
X214442000Y-85348071D01*
X212942000Y-86776642D02*
X213084857Y-86848071D01*
X213370571Y-86848071D01*
X213513428Y-86776642D01*
X213584857Y-86633785D01*
X213584857Y-86062357D01*
X213513428Y-85919500D01*
X213370571Y-85848071D01*
X213084857Y-85848071D01*
X212942000Y-85919500D01*
X212870571Y-86062357D01*
X212870571Y-86205214D01*
X213584857Y-86348071D01*
X212299142Y-86776642D02*
X212156285Y-86848071D01*
X211870571Y-86848071D01*
X211727714Y-86776642D01*
X211656285Y-86633785D01*
X211656285Y-86562357D01*
X211727714Y-86419500D01*
X211870571Y-86348071D01*
X212084857Y-86348071D01*
X212227714Y-86276642D01*
X212299142Y-86133785D01*
X212299142Y-86062357D01*
X212227714Y-85919500D01*
X212084857Y-85848071D01*
X211870571Y-85848071D01*
X211727714Y-85919500D01*
X211227714Y-85848071D02*
X210656285Y-85848071D01*
X211013428Y-85348071D02*
X211013428Y-86633785D01*
X210942000Y-86776642D01*
X210799142Y-86848071D01*
X210656285Y-86848071D01*
X210156285Y-86848071D02*
X210156285Y-85848071D01*
X210156285Y-85348071D02*
X210227714Y-85419500D01*
X210156285Y-85490928D01*
X210084857Y-85419500D01*
X210156285Y-85348071D01*
X210156285Y-85490928D01*
X209442000Y-85848071D02*
X209442000Y-86848071D01*
X209442000Y-85990928D02*
X209370571Y-85919500D01*
X209227714Y-85848071D01*
X209013428Y-85848071D01*
X208870571Y-85919500D01*
X208799142Y-86062357D01*
X208799142Y-86848071D01*
X207442000Y-85848071D02*
X207442000Y-87062357D01*
X207513428Y-87205214D01*
X207584857Y-87276642D01*
X207727714Y-87348071D01*
X207942000Y-87348071D01*
X208084857Y-87276642D01*
X207442000Y-86776642D02*
X207584857Y-86848071D01*
X207870571Y-86848071D01*
X208013428Y-86776642D01*
X208084857Y-86705214D01*
X208156285Y-86562357D01*
X208156285Y-86133785D01*
X208084857Y-85990928D01*
X208013428Y-85919500D01*
X207870571Y-85848071D01*
X207584857Y-85848071D01*
X207442000Y-85919500D01*
X205584857Y-86848071D02*
X205584857Y-85348071D01*
X205013428Y-85348071D01*
X204870571Y-85419500D01*
X204799142Y-85490928D01*
X204727714Y-85633785D01*
X204727714Y-85848071D01*
X204799142Y-85990928D01*
X204870571Y-86062357D01*
X205013428Y-86133785D01*
X205584857Y-86133785D01*
X203870571Y-86848071D02*
X204013428Y-86776642D01*
X204084857Y-86633785D01*
X204084857Y-85348071D01*
X202656285Y-86848071D02*
X202656285Y-86062357D01*
X202727714Y-85919500D01*
X202870571Y-85848071D01*
X203156285Y-85848071D01*
X203299142Y-85919500D01*
X202656285Y-86776642D02*
X202799142Y-86848071D01*
X203156285Y-86848071D01*
X203299142Y-86776642D01*
X203370571Y-86633785D01*
X203370571Y-86490928D01*
X203299142Y-86348071D01*
X203156285Y-86276642D01*
X202799142Y-86276642D01*
X202656285Y-86205214D01*
X202156285Y-85848071D02*
X201584857Y-85848071D01*
X201942000Y-85348071D02*
X201942000Y-86633785D01*
X201870571Y-86776642D01*
X201727714Y-86848071D01*
X201584857Y-86848071D01*
X201299142Y-85848071D02*
X200727714Y-85848071D01*
X201084857Y-86848071D02*
X201084857Y-85562357D01*
X201013428Y-85419500D01*
X200870571Y-85348071D01*
X200727714Y-85348071D01*
X200013428Y-86848071D02*
X200156285Y-86776642D01*
X200227714Y-86705214D01*
X200299142Y-86562357D01*
X200299142Y-86133785D01*
X200227714Y-85990928D01*
X200156285Y-85919500D01*
X200013428Y-85848071D01*
X199799142Y-85848071D01*
X199656285Y-85919500D01*
X199584857Y-85990928D01*
X199513428Y-86133785D01*
X199513428Y-86562357D01*
X199584857Y-86705214D01*
X199656285Y-86776642D01*
X199799142Y-86848071D01*
X200013428Y-86848071D01*
X198870571Y-86848071D02*
X198870571Y-85848071D01*
X198870571Y-86133785D02*
X198799142Y-85990928D01*
X198727714Y-85919500D01*
X198584857Y-85848071D01*
X198442000Y-85848071D01*
X197942000Y-86848071D02*
X197942000Y-85848071D01*
X197942000Y-85990928D02*
X197870571Y-85919500D01*
X197727714Y-85848071D01*
X197513428Y-85848071D01*
X197370571Y-85919500D01*
X197299142Y-86062357D01*
X197299142Y-86848071D01*
X197299142Y-86062357D02*
X197227714Y-85919500D01*
X197084857Y-85848071D01*
X196870571Y-85848071D01*
X196727714Y-85919500D01*
X196656285Y-86062357D01*
X196656285Y-86848071D01*
X193942000Y-86848071D02*
X194442000Y-86133785D01*
X194799142Y-86848071D02*
X194799142Y-85348071D01*
X194227714Y-85348071D01*
X194084857Y-85419500D01*
X194013428Y-85490928D01*
X193942000Y-85633785D01*
X193942000Y-85848071D01*
X194013428Y-85990928D01*
X194084857Y-86062357D01*
X194227714Y-86133785D01*
X194799142Y-86133785D01*
X192727714Y-86776642D02*
X192870571Y-86848071D01*
X193156285Y-86848071D01*
X193299142Y-86776642D01*
X193370571Y-86633785D01*
X193370571Y-86062357D01*
X193299142Y-85919500D01*
X193156285Y-85848071D01*
X192870571Y-85848071D01*
X192727714Y-85919500D01*
X192656285Y-86062357D01*
X192656285Y-86205214D01*
X193370571Y-86348071D01*
X192156285Y-85848071D02*
X191799142Y-86848071D01*
X191442000Y-85848071D01*
X190870571Y-86848071D02*
X190870571Y-85848071D01*
X190870571Y-85348071D02*
X190942000Y-85419500D01*
X190870571Y-85490928D01*
X190799142Y-85419500D01*
X190870571Y-85348071D01*
X190870571Y-85490928D01*
X190227714Y-86776642D02*
X190084857Y-86848071D01*
X189799142Y-86848071D01*
X189656285Y-86776642D01*
X189584857Y-86633785D01*
X189584857Y-86562357D01*
X189656285Y-86419500D01*
X189799142Y-86348071D01*
X190013428Y-86348071D01*
X190156285Y-86276642D01*
X190227714Y-86133785D01*
X190227714Y-86062357D01*
X190156285Y-85919500D01*
X190013428Y-85848071D01*
X189799142Y-85848071D01*
X189656285Y-85919500D01*
X188942000Y-86848071D02*
X188942000Y-85848071D01*
X188942000Y-85348071D02*
X189013428Y-85419500D01*
X188942000Y-85490928D01*
X188870571Y-85419500D01*
X188942000Y-85348071D01*
X188942000Y-85490928D01*
X188013428Y-86848071D02*
X188156285Y-86776642D01*
X188227714Y-86705214D01*
X188299142Y-86562357D01*
X188299142Y-86133785D01*
X188227714Y-85990928D01*
X188156285Y-85919500D01*
X188013428Y-85848071D01*
X187799142Y-85848071D01*
X187656285Y-85919500D01*
X187584857Y-85990928D01*
X187513428Y-86133785D01*
X187513428Y-86562357D01*
X187584857Y-86705214D01*
X187656285Y-86776642D01*
X187799142Y-86848071D01*
X188013428Y-86848071D01*
X186870571Y-85848071D02*
X186870571Y-86848071D01*
X186870571Y-85990928D02*
X186799142Y-85919500D01*
X186656285Y-85848071D01*
X186442000Y-85848071D01*
X186299142Y-85919500D01*
X186227714Y-86062357D01*
X186227714Y-86848071D01*
X184442000Y-86419500D02*
X183727714Y-86419500D01*
X184584857Y-86848071D02*
X184084857Y-85348071D01*
X183584857Y-86848071D01*
D11*
X181196095Y-73453761D02*
X181196095Y-74882333D01*
X181291333Y-75168047D01*
X181481809Y-75358523D01*
X181767523Y-75453761D01*
X181958000Y-75453761D01*
X179291333Y-75453761D02*
X180243714Y-75453761D01*
X180243714Y-73453761D01*
X177481809Y-75263285D02*
X177577047Y-75358523D01*
X177862761Y-75453761D01*
X178053238Y-75453761D01*
X178338952Y-75358523D01*
X178529428Y-75168047D01*
X178624666Y-74977571D01*
X178719904Y-74596619D01*
X178719904Y-74310904D01*
X178624666Y-73929952D01*
X178529428Y-73739476D01*
X178338952Y-73549000D01*
X178053238Y-73453761D01*
X177862761Y-73453761D01*
X177577047Y-73549000D01*
X177481809Y-73644238D01*
X176053238Y-73453761D02*
X176053238Y-74882333D01*
X176148476Y-75168047D01*
X176338952Y-75358523D01*
X176624666Y-75453761D01*
X176815142Y-75453761D01*
X174148476Y-75453761D02*
X175100857Y-75453761D01*
X175100857Y-73453761D01*
X172338952Y-75263285D02*
X172434190Y-75358523D01*
X172719904Y-75453761D01*
X172910380Y-75453761D01*
X173196095Y-75358523D01*
X173386571Y-75168047D01*
X173481809Y-74977571D01*
X173577047Y-74596619D01*
X173577047Y-74310904D01*
X173481809Y-73929952D01*
X173386571Y-73739476D01*
X173196095Y-73549000D01*
X172910380Y-73453761D01*
X172719904Y-73453761D01*
X172434190Y-73549000D01*
X172338952Y-73644238D01*
X170910380Y-73453761D02*
X170910380Y-74882333D01*
X171005619Y-75168047D01*
X171196095Y-75358523D01*
X171481809Y-75453761D01*
X171672285Y-75453761D01*
X169005619Y-75453761D02*
X169958000Y-75453761D01*
X169958000Y-73453761D01*
X167196095Y-75263285D02*
X167291333Y-75358523D01*
X167577047Y-75453761D01*
X167767523Y-75453761D01*
X168053238Y-75358523D01*
X168243714Y-75168047D01*
X168338952Y-74977571D01*
X168434190Y-74596619D01*
X168434190Y-74310904D01*
X168338952Y-73929952D01*
X168243714Y-73739476D01*
X168053238Y-73549000D01*
X167767523Y-73453761D01*
X167577047Y-73453761D01*
X167291333Y-73549000D01*
X167196095Y-73644238D01*
X165767523Y-73453761D02*
X165767523Y-74882333D01*
X165862761Y-75168047D01*
X166053238Y-75358523D01*
X166338952Y-75453761D01*
X166529428Y-75453761D01*
X163862761Y-75453761D02*
X164815142Y-75453761D01*
X164815142Y-73453761D01*
X162053238Y-75263285D02*
X162148476Y-75358523D01*
X162434190Y-75453761D01*
X162624666Y-75453761D01*
X162910380Y-75358523D01*
X163100857Y-75168047D01*
X163196095Y-74977571D01*
X163291333Y-74596619D01*
X163291333Y-74310904D01*
X163196095Y-73929952D01*
X163100857Y-73739476D01*
X162910380Y-73549000D01*
X162624666Y-73453761D01*
X162434190Y-73453761D01*
X162148476Y-73549000D01*
X162053238Y-73644238D01*
D12*
%TO.C,J3*%
X184660000Y-107625000D02*
X184660000Y-108955000D01*
X185990000Y-107625000D02*
X184660000Y-107625000D01*
X184660000Y-110225000D02*
X184660000Y-112825000D01*
X187260000Y-110225000D02*
X184660000Y-110225000D01*
X187260000Y-107625000D02*
X187260000Y-110225000D01*
X184660000Y-112825000D02*
X220340000Y-112825000D01*
X187260000Y-107625000D02*
X220340000Y-107625000D01*
X220340000Y-107625000D02*
X220340000Y-112825000D01*
%TO.C,J4*%
X220340000Y-112705000D02*
X220340000Y-117905000D01*
X187260000Y-112705000D02*
X220340000Y-112705000D01*
X184660000Y-117905000D02*
X220340000Y-117905000D01*
X187260000Y-112705000D02*
X187260000Y-115305000D01*
X187260000Y-115305000D02*
X184660000Y-115305000D01*
X184660000Y-115305000D02*
X184660000Y-117905000D01*
X185990000Y-112705000D02*
X184660000Y-112705000D01*
X184660000Y-112705000D02*
X184660000Y-114035000D01*
%TO.C,J6*%
X184660000Y-117785000D02*
X184660000Y-119115000D01*
X185990000Y-117785000D02*
X184660000Y-117785000D01*
X184660000Y-120385000D02*
X184660000Y-122985000D01*
X187260000Y-120385000D02*
X184660000Y-120385000D01*
X187260000Y-117785000D02*
X187260000Y-120385000D01*
X184660000Y-122985000D02*
X220340000Y-122985000D01*
X187260000Y-117785000D02*
X220340000Y-117785000D01*
X220340000Y-117785000D02*
X220340000Y-122985000D01*
%TD*%
M02*
