%TF.GenerationSoftware,KiCad,Pcbnew,(5.1.9)-1*%
%TF.CreationDate,2022-02-04T12:49:55-05:00*%
%TF.ProjectId,Breadboard-Testbed,42726561-6462-46f6-9172-642d54657374,rev?*%
%TF.SameCoordinates,Original*%
%TF.FileFunction,Copper,L2,Bot*%
%TF.FilePolarity,Positive*%
%FSLAX46Y46*%
G04 Gerber Fmt 4.6, Leading zero omitted, Abs format (unit mm)*
G04 Created by KiCad (PCBNEW (5.1.9)-1) date 2022-02-04 12:49:55*
%MOMM*%
%LPD*%
G01*
G04 APERTURE LIST*
%TA.AperFunction,ComponentPad*%
%ADD10R,1.700000X1.700000*%
%TD*%
%TA.AperFunction,ComponentPad*%
%ADD11O,1.700000X1.700000*%
%TD*%
%TA.AperFunction,Conductor*%
%ADD12C,0.250000*%
%TD*%
G04 APERTURE END LIST*
D10*
%TO.P,J1,1*%
%TO.N,Net-(J1-Pad1)*%
X163000000Y-86570000D03*
D11*
%TO.P,J1,2*%
%TO.N,Net-(J1-Pad2)*%
X165540000Y-86570000D03*
%TO.P,J1,3*%
%TO.N,Net-(J1-Pad3)*%
X163000000Y-89110000D03*
%TO.P,J1,4*%
%TO.N,Net-(J1-Pad4)*%
X165540000Y-89110000D03*
%TO.P,J1,5*%
%TO.N,Net-(J1-Pad5)*%
X163000000Y-91650000D03*
%TO.P,J1,6*%
%TO.N,Net-(J1-Pad6)*%
X165540000Y-91650000D03*
%TO.P,J1,7*%
%TO.N,Net-(J1-Pad7)*%
X163000000Y-94190000D03*
%TO.P,J1,8*%
%TO.N,Net-(J1-Pad8)*%
X165540000Y-94190000D03*
%TO.P,J1,9*%
%TO.N,Net-(J1-Pad9)*%
X163000000Y-96730000D03*
%TO.P,J1,10*%
%TO.N,Net-(J1-Pad10)*%
X165540000Y-96730000D03*
%TO.P,J1,11*%
%TO.N,Net-(J1-Pad11)*%
X163000000Y-99270000D03*
%TO.P,J1,12*%
%TO.N,Net-(J1-Pad12)*%
X165540000Y-99270000D03*
%TO.P,J1,13*%
%TO.N,Net-(J1-Pad13)*%
X163000000Y-101810000D03*
%TO.P,J1,14*%
%TO.N,Net-(J1-Pad14)*%
X165540000Y-101810000D03*
%TO.P,J1,15*%
%TO.N,Net-(J1-Pad15)*%
X163000000Y-104350000D03*
%TO.P,J1,16*%
%TO.N,Net-(J1-Pad16)*%
X165540000Y-104350000D03*
%TO.P,J1,17*%
%TO.N,Net-(J1-Pad17)*%
X163000000Y-106890000D03*
%TO.P,J1,18*%
%TO.N,Net-(J1-Pad18)*%
X165540000Y-106890000D03*
%TO.P,J1,19*%
%TO.N,Net-(J1-Pad19)*%
X163000000Y-109430000D03*
%TO.P,J1,20*%
%TO.N,Net-(J1-Pad20)*%
X165540000Y-109430000D03*
%TD*%
D10*
%TO.P,J2,1*%
%TO.N,Net-(J2-Pad1)*%
X239500000Y-84030000D03*
D11*
%TO.P,J2,2*%
%TO.N,Net-(J12-Pad1)*%
X242040000Y-84030000D03*
%TO.P,J2,3*%
%TO.N,Net-(J2-Pad3)*%
X239500000Y-86570000D03*
%TO.P,J2,4*%
%TO.N,Net-(J12-Pad3)*%
X242040000Y-86570000D03*
%TO.P,J2,5*%
%TO.N,Net-(J2-Pad5)*%
X239500000Y-89110000D03*
%TO.P,J2,6*%
%TO.N,Net-(J12-Pad5)*%
X242040000Y-89110000D03*
%TO.P,J2,7*%
%TO.N,Net-(J2-Pad7)*%
X239500000Y-91650000D03*
%TO.P,J2,8*%
%TO.N,Net-(J12-Pad7)*%
X242040000Y-91650000D03*
%TO.P,J2,9*%
%TO.N,Net-(J2-Pad9)*%
X239500000Y-94190000D03*
%TO.P,J2,10*%
%TO.N,Net-(J12-Pad10)*%
X242040000Y-94190000D03*
%TO.P,J2,11*%
%TO.N,Net-(J2-Pad11)*%
X239500000Y-96730000D03*
%TO.P,J2,12*%
%TO.N,Net-(J12-Pad11)*%
X242040000Y-96730000D03*
%TO.P,J2,13*%
%TO.N,Net-(J2-Pad13)*%
X239500000Y-99270000D03*
%TO.P,J2,14*%
%TO.N,Net-(J12-Pad13)*%
X242040000Y-99270000D03*
%TO.P,J2,15*%
%TO.N,Net-(J2-Pad15)*%
X239500000Y-101810000D03*
%TO.P,J2,16*%
%TO.N,Net-(J12-Pad15)*%
X242040000Y-101810000D03*
%TO.P,J2,17*%
%TO.N,Net-(J2-Pad17)*%
X239500000Y-104350000D03*
%TO.P,J2,18*%
%TO.N,Net-(J12-Pad17)*%
X242040000Y-104350000D03*
%TO.P,J2,19*%
%TO.N,Net-(J2-Pad19)*%
X239500000Y-106890000D03*
%TO.P,J2,20*%
%TO.N,Net-(J12-Pad19)*%
X242040000Y-106890000D03*
%TO.P,J2,21*%
%TO.N,Net-(J2-Pad21)*%
X239500000Y-109430000D03*
%TO.P,J2,22*%
%TO.N,Net-(J12-Pad21)*%
X242040000Y-109430000D03*
%TO.P,J2,23*%
%TO.N,Net-(J2-Pad23)*%
X239500000Y-111970000D03*
%TO.P,J2,24*%
%TO.N,Net-(J12-Pad23)*%
X242040000Y-111970000D03*
%TD*%
%TO.P,J5,20*%
%TO.N,Net-(J1-Pad19)*%
X173160000Y-109430000D03*
%TO.P,J5,19*%
X170620000Y-109430000D03*
%TO.P,J5,18*%
%TO.N,Net-(J1-Pad17)*%
X173160000Y-106890000D03*
%TO.P,J5,17*%
X170620000Y-106890000D03*
%TO.P,J5,16*%
%TO.N,Net-(J1-Pad15)*%
X173160000Y-104350000D03*
%TO.P,J5,15*%
X170620000Y-104350000D03*
%TO.P,J5,14*%
%TO.N,Net-(J1-Pad13)*%
X173160000Y-101810000D03*
%TO.P,J5,13*%
X170620000Y-101810000D03*
%TO.P,J5,12*%
%TO.N,Net-(J1-Pad11)*%
X173160000Y-99270000D03*
%TO.P,J5,11*%
X170620000Y-99270000D03*
%TO.P,J5,10*%
%TO.N,Net-(J1-Pad9)*%
X173160000Y-96730000D03*
%TO.P,J5,9*%
X170620000Y-96730000D03*
%TO.P,J5,8*%
%TO.N,Net-(J1-Pad7)*%
X173160000Y-94190000D03*
%TO.P,J5,7*%
X170620000Y-94190000D03*
%TO.P,J5,6*%
%TO.N,Net-(J1-Pad5)*%
X173160000Y-91650000D03*
%TO.P,J5,5*%
X170620000Y-91650000D03*
%TO.P,J5,4*%
%TO.N,Net-(J1-Pad3)*%
X173160000Y-89110000D03*
%TO.P,J5,3*%
X170620000Y-89110000D03*
%TO.P,J5,2*%
%TO.N,Net-(J1-Pad1)*%
X173160000Y-86570000D03*
D10*
%TO.P,J5,1*%
X170620000Y-86570000D03*
%TD*%
D11*
%TO.P,J7,30*%
%TO.N,Net-(J7-Pad29)*%
X220280000Y-90040000D03*
%TO.P,J7,29*%
X220280000Y-92580000D03*
%TO.P,J7,28*%
%TO.N,Net-(J7-Pad27)*%
X217740000Y-90040000D03*
%TO.P,J7,27*%
X217740000Y-92580000D03*
%TO.P,J7,26*%
%TO.N,Net-(J7-Pad25)*%
X215200000Y-90040000D03*
%TO.P,J7,25*%
X215200000Y-92580000D03*
%TO.P,J7,24*%
%TO.N,Net-(J7-Pad23)*%
X212660000Y-90040000D03*
%TO.P,J7,23*%
X212660000Y-92580000D03*
%TO.P,J7,22*%
%TO.N,Net-(J7-Pad21)*%
X210120000Y-90040000D03*
%TO.P,J7,21*%
X210120000Y-92580000D03*
%TO.P,J7,20*%
%TO.N,Net-(J7-Pad19)*%
X207580000Y-90040000D03*
%TO.P,J7,19*%
X207580000Y-92580000D03*
%TO.P,J7,18*%
%TO.N,Net-(J7-Pad17)*%
X205040000Y-90040000D03*
%TO.P,J7,17*%
X205040000Y-92580000D03*
%TO.P,J7,16*%
%TO.N,Net-(J7-Pad15)*%
X202500000Y-90040000D03*
%TO.P,J7,15*%
X202500000Y-92580000D03*
%TO.P,J7,14*%
%TO.N,Net-(J7-Pad13)*%
X199960000Y-90040000D03*
%TO.P,J7,13*%
X199960000Y-92580000D03*
%TO.P,J7,12*%
%TO.N,Net-(J7-Pad11)*%
X197420000Y-90040000D03*
%TO.P,J7,11*%
X197420000Y-92580000D03*
%TO.P,J7,10*%
%TO.N,Net-(J7-Pad10)*%
X194880000Y-90040000D03*
%TO.P,J7,9*%
X194880000Y-92580000D03*
%TO.P,J7,8*%
%TO.N,Net-(J7-Pad7)*%
X192340000Y-90040000D03*
%TO.P,J7,7*%
X192340000Y-92580000D03*
%TO.P,J7,6*%
%TO.N,Net-(J7-Pad5)*%
X189800000Y-90040000D03*
%TO.P,J7,5*%
X189800000Y-92580000D03*
%TO.P,J7,4*%
%TO.N,Net-(J7-Pad3)*%
X187260000Y-90040000D03*
%TO.P,J7,3*%
X187260000Y-92580000D03*
%TO.P,J7,2*%
%TO.N,Net-(J7-Pad1)*%
X184720000Y-90040000D03*
D10*
%TO.P,J7,1*%
X184720000Y-92580000D03*
%TD*%
%TO.P,J8,1*%
%TO.N,Net-(J1-Pad2)*%
X178240000Y-86570000D03*
D11*
%TO.P,J8,2*%
X180780000Y-86570000D03*
%TO.P,J8,3*%
%TO.N,Net-(J1-Pad4)*%
X178240000Y-89110000D03*
%TO.P,J8,4*%
X180780000Y-89110000D03*
%TO.P,J8,5*%
%TO.N,Net-(J1-Pad6)*%
X178240000Y-91650000D03*
%TO.P,J8,6*%
X180780000Y-91650000D03*
%TO.P,J8,7*%
%TO.N,Net-(J1-Pad8)*%
X178240000Y-94190000D03*
%TO.P,J8,8*%
X180780000Y-94190000D03*
%TO.P,J8,9*%
%TO.N,Net-(J1-Pad10)*%
X178240000Y-96730000D03*
%TO.P,J8,10*%
X180780000Y-96730000D03*
%TO.P,J8,11*%
%TO.N,Net-(J1-Pad12)*%
X178240000Y-99270000D03*
%TO.P,J8,12*%
X180780000Y-99270000D03*
%TO.P,J8,13*%
%TO.N,Net-(J1-Pad14)*%
X178240000Y-101810000D03*
%TO.P,J8,14*%
X180780000Y-101810000D03*
%TO.P,J8,15*%
%TO.N,Net-(J1-Pad16)*%
X178240000Y-104350000D03*
%TO.P,J8,16*%
X180780000Y-104350000D03*
%TO.P,J8,17*%
%TO.N,Net-(J1-Pad18)*%
X178240000Y-106890000D03*
%TO.P,J8,18*%
X180780000Y-106890000D03*
%TO.P,J8,19*%
%TO.N,Net-(J1-Pad20)*%
X178240000Y-109430000D03*
%TO.P,J8,20*%
X180780000Y-109430000D03*
%TD*%
D10*
%TO.P,J9,1*%
%TO.N,Net-(J2-Pad1)*%
X224260000Y-84030000D03*
D11*
%TO.P,J9,2*%
X226800000Y-84030000D03*
%TO.P,J9,3*%
%TO.N,Net-(J2-Pad3)*%
X224260000Y-86570000D03*
%TO.P,J9,4*%
X226800000Y-86570000D03*
%TO.P,J9,5*%
%TO.N,Net-(J2-Pad5)*%
X224260000Y-89110000D03*
%TO.P,J9,6*%
X226800000Y-89110000D03*
%TO.P,J9,7*%
%TO.N,Net-(J2-Pad7)*%
X224260000Y-91650000D03*
%TO.P,J9,8*%
X226800000Y-91650000D03*
%TO.P,J9,9*%
%TO.N,Net-(J2-Pad9)*%
X224260000Y-94190000D03*
%TO.P,J9,10*%
X226800000Y-94190000D03*
%TO.P,J9,11*%
%TO.N,Net-(J2-Pad11)*%
X224260000Y-96730000D03*
%TO.P,J9,12*%
X226800000Y-96730000D03*
%TO.P,J9,13*%
%TO.N,Net-(J2-Pad13)*%
X224260000Y-99270000D03*
%TO.P,J9,14*%
X226800000Y-99270000D03*
%TO.P,J9,15*%
%TO.N,Net-(J2-Pad15)*%
X224260000Y-101810000D03*
%TO.P,J9,16*%
X226800000Y-101810000D03*
%TO.P,J9,17*%
%TO.N,Net-(J2-Pad17)*%
X224260000Y-104350000D03*
%TO.P,J9,18*%
X226800000Y-104350000D03*
%TO.P,J9,19*%
%TO.N,Net-(J2-Pad19)*%
X224260000Y-106890000D03*
%TO.P,J9,20*%
X226800000Y-106890000D03*
%TO.P,J9,21*%
%TO.N,Net-(J2-Pad21)*%
X224260000Y-109430000D03*
%TO.P,J9,22*%
X226800000Y-109430000D03*
%TO.P,J9,23*%
%TO.N,Net-(J2-Pad23)*%
X224260000Y-111970000D03*
%TO.P,J9,24*%
X226800000Y-111970000D03*
%TD*%
%TO.P,J10,30*%
%TO.N,Net-(J10-Pad29)*%
X220280000Y-72260000D03*
%TO.P,J10,29*%
X220280000Y-74800000D03*
%TO.P,J10,28*%
%TO.N,Net-(J10-Pad27)*%
X217740000Y-72260000D03*
%TO.P,J10,27*%
X217740000Y-74800000D03*
%TO.P,J10,26*%
%TO.N,Net-(J10-Pad25)*%
X215200000Y-72260000D03*
%TO.P,J10,25*%
X215200000Y-74800000D03*
%TO.P,J10,24*%
%TO.N,Net-(J10-Pad23)*%
X212660000Y-72260000D03*
%TO.P,J10,23*%
X212660000Y-74800000D03*
%TO.P,J10,22*%
%TO.N,Net-(J10-Pad21)*%
X210120000Y-72260000D03*
%TO.P,J10,21*%
X210120000Y-74800000D03*
%TO.P,J10,20*%
%TO.N,Net-(J10-Pad19)*%
X207580000Y-72260000D03*
%TO.P,J10,19*%
X207580000Y-74800000D03*
%TO.P,J10,18*%
%TO.N,Net-(J10-Pad17)*%
X205040000Y-72260000D03*
%TO.P,J10,17*%
X205040000Y-74800000D03*
%TO.P,J10,16*%
%TO.N,Net-(J10-Pad15)*%
X202500000Y-72260000D03*
%TO.P,J10,15*%
X202500000Y-74800000D03*
%TO.P,J10,14*%
%TO.N,Net-(J10-Pad13)*%
X199960000Y-72260000D03*
%TO.P,J10,13*%
X199960000Y-74800000D03*
%TO.P,J10,12*%
%TO.N,Net-(J10-Pad11)*%
X197420000Y-72260000D03*
%TO.P,J10,11*%
X197420000Y-74800000D03*
%TO.P,J10,10*%
%TO.N,Net-(J10-Pad10)*%
X194880000Y-72260000D03*
%TO.P,J10,9*%
X194880000Y-74800000D03*
%TO.P,J10,8*%
%TO.N,Net-(J10-Pad7)*%
X192340000Y-72260000D03*
%TO.P,J10,7*%
X192340000Y-74800000D03*
%TO.P,J10,6*%
%TO.N,Net-(J10-Pad5)*%
X189800000Y-72260000D03*
%TO.P,J10,5*%
X189800000Y-74800000D03*
%TO.P,J10,4*%
%TO.N,Net-(J10-Pad3)*%
X187260000Y-72260000D03*
%TO.P,J10,3*%
X187260000Y-74800000D03*
%TO.P,J10,2*%
%TO.N,Net-(J10-Pad1)*%
X184720000Y-72260000D03*
D10*
%TO.P,J10,1*%
X184720000Y-74800000D03*
%TD*%
%TO.P,J12,1*%
%TO.N,Net-(J12-Pad1)*%
X231800000Y-84030000D03*
D11*
%TO.P,J12,2*%
X234340000Y-84030000D03*
%TO.P,J12,3*%
%TO.N,Net-(J12-Pad3)*%
X231800000Y-86570000D03*
%TO.P,J12,4*%
X234340000Y-86570000D03*
%TO.P,J12,5*%
%TO.N,Net-(J12-Pad5)*%
X231800000Y-89110000D03*
%TO.P,J12,6*%
X234340000Y-89110000D03*
%TO.P,J12,7*%
%TO.N,Net-(J12-Pad7)*%
X231800000Y-91650000D03*
%TO.P,J12,8*%
X234340000Y-91650000D03*
%TO.P,J12,9*%
%TO.N,Net-(J12-Pad10)*%
X231800000Y-94190000D03*
%TO.P,J12,10*%
X234340000Y-94190000D03*
%TO.P,J12,11*%
%TO.N,Net-(J12-Pad11)*%
X231800000Y-96730000D03*
%TO.P,J12,12*%
X234340000Y-96730000D03*
%TO.P,J12,13*%
%TO.N,Net-(J12-Pad13)*%
X231800000Y-99270000D03*
%TO.P,J12,14*%
X234340000Y-99270000D03*
%TO.P,J12,15*%
%TO.N,Net-(J12-Pad15)*%
X231800000Y-101810000D03*
%TO.P,J12,16*%
X234340000Y-101810000D03*
%TO.P,J12,17*%
%TO.N,Net-(J12-Pad17)*%
X231800000Y-104350000D03*
%TO.P,J12,18*%
X234340000Y-104350000D03*
%TO.P,J12,19*%
%TO.N,Net-(J12-Pad19)*%
X231800000Y-106890000D03*
%TO.P,J12,20*%
X234340000Y-106890000D03*
%TO.P,J12,21*%
%TO.N,Net-(J12-Pad21)*%
X231800000Y-109430000D03*
%TO.P,J12,22*%
X234340000Y-109430000D03*
%TO.P,J12,23*%
%TO.N,Net-(J12-Pad23)*%
X231800000Y-111970000D03*
%TO.P,J12,24*%
X234340000Y-111970000D03*
%TD*%
D10*
%TO.P,J3,1*%
%TO.N,Net-(J3-Pad1)*%
X185990000Y-108955000D03*
D11*
%TO.P,J3,2*%
X185990000Y-111495000D03*
%TO.P,J3,3*%
%TO.N,Net-(J3-Pad3)*%
X188530000Y-108955000D03*
%TO.P,J3,4*%
X188530000Y-111495000D03*
%TO.P,J3,5*%
%TO.N,Net-(J3-Pad5)*%
X191070000Y-108955000D03*
%TO.P,J3,6*%
X191070000Y-111495000D03*
%TO.P,J3,7*%
%TO.N,Net-(J3-Pad7)*%
X193610000Y-108955000D03*
%TO.P,J3,8*%
X193610000Y-111495000D03*
%TO.P,J3,9*%
%TO.N,Net-(J3-Pad10)*%
X196150000Y-108955000D03*
%TO.P,J3,10*%
X196150000Y-111495000D03*
%TO.P,J3,11*%
%TO.N,Net-(J3-Pad11)*%
X198690000Y-108955000D03*
%TO.P,J3,12*%
X198690000Y-111495000D03*
%TO.P,J3,13*%
%TO.N,Net-(J3-Pad13)*%
X201230000Y-108955000D03*
%TO.P,J3,14*%
X201230000Y-111495000D03*
%TO.P,J3,15*%
%TO.N,Net-(J3-Pad15)*%
X203770000Y-108955000D03*
%TO.P,J3,16*%
X203770000Y-111495000D03*
%TO.P,J3,17*%
%TO.N,Net-(J3-Pad17)*%
X206310000Y-108955000D03*
%TO.P,J3,18*%
X206310000Y-111495000D03*
%TO.P,J3,19*%
%TO.N,Net-(J3-Pad19)*%
X208850000Y-108955000D03*
%TO.P,J3,20*%
X208850000Y-111495000D03*
%TO.P,J3,21*%
%TO.N,Net-(J3-Pad21)*%
X211390000Y-108955000D03*
%TO.P,J3,22*%
X211390000Y-111495000D03*
%TO.P,J3,23*%
%TO.N,Net-(J3-Pad23)*%
X213930000Y-108955000D03*
%TO.P,J3,24*%
X213930000Y-111495000D03*
%TO.P,J3,25*%
%TO.N,Net-(J3-Pad25)*%
X216470000Y-108955000D03*
%TO.P,J3,26*%
X216470000Y-111495000D03*
%TO.P,J3,27*%
%TO.N,Net-(J3-Pad27)*%
X219010000Y-108955000D03*
%TO.P,J3,28*%
X219010000Y-111495000D03*
%TD*%
%TO.P,J4,28*%
%TO.N,Net-(J3-Pad27)*%
X219010000Y-116575000D03*
%TO.P,J4,27*%
X219010000Y-114035000D03*
%TO.P,J4,26*%
%TO.N,Net-(J3-Pad25)*%
X216470000Y-116575000D03*
%TO.P,J4,25*%
X216470000Y-114035000D03*
%TO.P,J4,24*%
%TO.N,Net-(J3-Pad23)*%
X213930000Y-116575000D03*
%TO.P,J4,23*%
X213930000Y-114035000D03*
%TO.P,J4,22*%
%TO.N,Net-(J3-Pad21)*%
X211390000Y-116575000D03*
%TO.P,J4,21*%
X211390000Y-114035000D03*
%TO.P,J4,20*%
%TO.N,Net-(J3-Pad19)*%
X208850000Y-116575000D03*
%TO.P,J4,19*%
X208850000Y-114035000D03*
%TO.P,J4,18*%
%TO.N,Net-(J3-Pad17)*%
X206310000Y-116575000D03*
%TO.P,J4,17*%
X206310000Y-114035000D03*
%TO.P,J4,16*%
%TO.N,Net-(J3-Pad15)*%
X203770000Y-116575000D03*
%TO.P,J4,15*%
X203770000Y-114035000D03*
%TO.P,J4,14*%
%TO.N,Net-(J3-Pad13)*%
X201230000Y-116575000D03*
%TO.P,J4,13*%
X201230000Y-114035000D03*
%TO.P,J4,12*%
%TO.N,Net-(J3-Pad11)*%
X198690000Y-116575000D03*
%TO.P,J4,11*%
X198690000Y-114035000D03*
%TO.P,J4,10*%
%TO.N,Net-(J3-Pad10)*%
X196150000Y-116575000D03*
%TO.P,J4,9*%
X196150000Y-114035000D03*
%TO.P,J4,8*%
%TO.N,Net-(J3-Pad7)*%
X193610000Y-116575000D03*
%TO.P,J4,7*%
X193610000Y-114035000D03*
%TO.P,J4,6*%
%TO.N,Net-(J3-Pad5)*%
X191070000Y-116575000D03*
%TO.P,J4,5*%
X191070000Y-114035000D03*
%TO.P,J4,4*%
%TO.N,Net-(J3-Pad3)*%
X188530000Y-116575000D03*
%TO.P,J4,3*%
X188530000Y-114035000D03*
%TO.P,J4,2*%
%TO.N,Net-(J3-Pad1)*%
X185990000Y-116575000D03*
D10*
%TO.P,J4,1*%
X185990000Y-114035000D03*
%TD*%
%TO.P,J6,1*%
%TO.N,Net-(J3-Pad1)*%
X185990000Y-119115000D03*
D11*
%TO.P,J6,2*%
X185990000Y-121655000D03*
%TO.P,J6,3*%
%TO.N,Net-(J3-Pad3)*%
X188530000Y-119115000D03*
%TO.P,J6,4*%
X188530000Y-121655000D03*
%TO.P,J6,5*%
%TO.N,Net-(J3-Pad5)*%
X191070000Y-119115000D03*
%TO.P,J6,6*%
X191070000Y-121655000D03*
%TO.P,J6,7*%
%TO.N,Net-(J3-Pad7)*%
X193610000Y-119115000D03*
%TO.P,J6,8*%
X193610000Y-121655000D03*
%TO.P,J6,9*%
%TO.N,Net-(J3-Pad10)*%
X196150000Y-119115000D03*
%TO.P,J6,10*%
X196150000Y-121655000D03*
%TO.P,J6,11*%
%TO.N,Net-(J3-Pad11)*%
X198690000Y-119115000D03*
%TO.P,J6,12*%
X198690000Y-121655000D03*
%TO.P,J6,13*%
%TO.N,Net-(J3-Pad13)*%
X201230000Y-119115000D03*
%TO.P,J6,14*%
X201230000Y-121655000D03*
%TO.P,J6,15*%
%TO.N,Net-(J3-Pad15)*%
X203770000Y-119115000D03*
%TO.P,J6,16*%
X203770000Y-121655000D03*
%TO.P,J6,17*%
%TO.N,Net-(J3-Pad17)*%
X206310000Y-119115000D03*
%TO.P,J6,18*%
X206310000Y-121655000D03*
%TO.P,J6,19*%
%TO.N,Net-(J3-Pad19)*%
X208850000Y-119115000D03*
%TO.P,J6,20*%
X208850000Y-121655000D03*
%TO.P,J6,21*%
%TO.N,Net-(J3-Pad21)*%
X211390000Y-119115000D03*
%TO.P,J6,22*%
X211390000Y-121655000D03*
%TO.P,J6,23*%
%TO.N,Net-(J3-Pad23)*%
X213930000Y-119115000D03*
%TO.P,J6,24*%
X213930000Y-121655000D03*
%TO.P,J6,25*%
%TO.N,Net-(J3-Pad25)*%
X216470000Y-119115000D03*
%TO.P,J6,26*%
X216470000Y-121655000D03*
%TO.P,J6,27*%
%TO.N,Net-(J3-Pad27)*%
X219010000Y-119115000D03*
%TO.P,J6,28*%
X219010000Y-121655000D03*
%TD*%
D12*
%TO.N,Net-(J3-Pad1)*%
X185990000Y-116575000D02*
X185990000Y-119115000D01*
X185990000Y-114035000D02*
X185990000Y-116575000D01*
X185990000Y-111495000D02*
X185990000Y-108955000D01*
X185990000Y-114035000D02*
X185990000Y-111495000D01*
X185990000Y-121655000D02*
X185990000Y-119115000D01*
%TO.N,Net-(J3-Pad19)*%
X208850000Y-111495000D02*
X208850000Y-108955000D01*
X208850000Y-114035000D02*
X208850000Y-111495000D01*
X208850000Y-116575000D02*
X208850000Y-114035000D01*
X208850000Y-121655000D02*
X208850000Y-119115000D01*
X208850000Y-116575000D02*
X208850000Y-119115000D01*
%TO.N,Net-(J3-Pad17)*%
X206310000Y-111495000D02*
X206310000Y-108955000D01*
X206310000Y-114035000D02*
X206310000Y-111495000D01*
X206310000Y-116575000D02*
X206310000Y-114035000D01*
X206310000Y-121655000D02*
X206310000Y-119115000D01*
X206310000Y-116575000D02*
X206310000Y-119115000D01*
%TO.N,Net-(J3-Pad15)*%
X203770000Y-111495000D02*
X203770000Y-108955000D01*
X203770000Y-114035000D02*
X203770000Y-111495000D01*
X203770000Y-116575000D02*
X203770000Y-114035000D01*
X203770000Y-121655000D02*
X203770000Y-119115000D01*
X203770000Y-116575000D02*
X203770000Y-119115000D01*
%TO.N,Net-(J3-Pad13)*%
X201230000Y-111495000D02*
X201230000Y-108955000D01*
X201230000Y-114035000D02*
X201230000Y-111495000D01*
X201230000Y-116575000D02*
X201230000Y-114035000D01*
X201230000Y-121655000D02*
X201230000Y-119115000D01*
X201230000Y-116575000D02*
X201230000Y-119115000D01*
%TO.N,Net-(J3-Pad10)*%
X196150000Y-111495000D02*
X196150000Y-108955000D01*
X196150000Y-114035000D02*
X196150000Y-111495000D01*
X196150000Y-116575000D02*
X196150000Y-114035000D01*
X196150000Y-121655000D02*
X196150000Y-119115000D01*
X196150000Y-116575000D02*
X196150000Y-119115000D01*
%TO.N,Net-(J10-Pad1)*%
X184720000Y-74800000D02*
X184720000Y-72260000D01*
%TO.N,Net-(J10-Pad3)*%
X187260000Y-74800000D02*
X187260000Y-72260000D01*
%TO.N,Net-(J10-Pad5)*%
X189800000Y-74800000D02*
X189800000Y-72260000D01*
%TO.N,Net-(J10-Pad7)*%
X192340000Y-74800000D02*
X192340000Y-72260000D01*
%TO.N,Net-(J10-Pad10)*%
X194880000Y-74800000D02*
X194880000Y-72260000D01*
%TO.N,Net-(J10-Pad11)*%
X197420000Y-74800000D02*
X197420000Y-72260000D01*
%TO.N,Net-(J10-Pad13)*%
X199960000Y-74800000D02*
X199960000Y-72260000D01*
%TO.N,Net-(J10-Pad15)*%
X202500000Y-74800000D02*
X202500000Y-72260000D01*
%TO.N,Net-(J10-Pad17)*%
X205040000Y-74800000D02*
X205040000Y-72260000D01*
%TO.N,Net-(J10-Pad19)*%
X207580000Y-74800000D02*
X207580000Y-72260000D01*
%TO.N,Net-(J10-Pad21)*%
X210120000Y-74800000D02*
X210120000Y-72260000D01*
%TO.N,Net-(J10-Pad23)*%
X212660000Y-74800000D02*
X212660000Y-72260000D01*
%TO.N,Net-(J10-Pad25)*%
X215200000Y-74800000D02*
X215200000Y-72260000D01*
%TO.N,Net-(J10-Pad27)*%
X217740000Y-74800000D02*
X217740000Y-72260000D01*
%TO.N,Net-(J10-Pad29)*%
X220280000Y-74800000D02*
X220280000Y-72260000D01*
%TO.N,Net-(J3-Pad11)*%
X198690000Y-111495000D02*
X198690000Y-108955000D01*
X198690000Y-114035000D02*
X198690000Y-111495000D01*
X198690000Y-116575000D02*
X198690000Y-114035000D01*
X198690000Y-121655000D02*
X198690000Y-119115000D01*
X198690000Y-116575000D02*
X198690000Y-119115000D01*
%TO.N,Net-(J3-Pad7)*%
X193610000Y-111495000D02*
X193610000Y-108955000D01*
X193610000Y-114035000D02*
X193610000Y-111495000D01*
X193610000Y-116575000D02*
X193610000Y-114035000D01*
X193610000Y-121655000D02*
X193610000Y-119115000D01*
X193610000Y-116575000D02*
X193610000Y-119115000D01*
%TO.N,Net-(J3-Pad5)*%
X191070000Y-111495000D02*
X191070000Y-108955000D01*
X191070000Y-114035000D02*
X191070000Y-111495000D01*
X191070000Y-116575000D02*
X191070000Y-114035000D01*
X191070000Y-121655000D02*
X191070000Y-119115000D01*
X191070000Y-116575000D02*
X191070000Y-119115000D01*
%TO.N,Net-(J3-Pad3)*%
X188530000Y-111495000D02*
X188530000Y-108955000D01*
X188530000Y-114035000D02*
X188530000Y-111495000D01*
X188530000Y-116575000D02*
X188530000Y-114035000D01*
X188530000Y-121655000D02*
X188530000Y-119115000D01*
X188530000Y-116575000D02*
X188530000Y-119115000D01*
%TO.N,Net-(J1-Pad4)*%
X165540000Y-89110000D02*
X166715300Y-89110000D01*
X178240000Y-89110000D02*
X177064700Y-89110000D01*
X177064700Y-89110000D02*
X175889400Y-87934700D01*
X175889400Y-87934700D02*
X167890600Y-87934700D01*
X167890600Y-87934700D02*
X166715300Y-89110000D01*
%TO.N,Net-(J1-Pad6)*%
X165540000Y-91650000D02*
X166715300Y-91650000D01*
X178240000Y-91650000D02*
X177064700Y-91650000D01*
X177064700Y-91650000D02*
X175889400Y-92825300D01*
X175889400Y-92825300D02*
X167890600Y-92825300D01*
X167890600Y-92825300D02*
X166715300Y-91650000D01*
%TO.N,Net-(J1-Pad8)*%
X165540000Y-94190000D02*
X166715300Y-94190000D01*
X178240000Y-94190000D02*
X177064700Y-94190000D01*
X177064700Y-94190000D02*
X175889400Y-95365300D01*
X175889400Y-95365300D02*
X167890600Y-95365300D01*
X167890600Y-95365300D02*
X166715300Y-94190000D01*
%TO.N,Net-(J1-Pad10)*%
X165540000Y-96730000D02*
X166715300Y-96730000D01*
X178240000Y-96730000D02*
X177064700Y-96730000D01*
X177064700Y-96730000D02*
X175889400Y-97905300D01*
X175889400Y-97905300D02*
X167890600Y-97905300D01*
X167890600Y-97905300D02*
X166715300Y-96730000D01*
%TO.N,Net-(J12-Pad1)*%
X242040000Y-84030000D02*
X240864700Y-84030000D01*
X234340000Y-84030000D02*
X235515300Y-84030000D01*
X235515300Y-84030000D02*
X236690600Y-85205300D01*
X236690600Y-85205300D02*
X240497500Y-85205300D01*
X240497500Y-85205300D02*
X240864700Y-84838100D01*
X240864700Y-84838100D02*
X240864700Y-84030000D01*
%TO.N,Net-(J2-Pad13)*%
X239500000Y-99270000D02*
X238324700Y-99270000D01*
X226800000Y-99270000D02*
X227975300Y-99270000D01*
X227975300Y-99270000D02*
X229150600Y-98094700D01*
X229150600Y-98094700D02*
X237149400Y-98094700D01*
X237149400Y-98094700D02*
X238324700Y-99270000D01*
%TO.N,Net-(J2-Pad19)*%
X239500000Y-106890000D02*
X238324700Y-106890000D01*
X226800000Y-106890000D02*
X227975300Y-106890000D01*
X227975300Y-106890000D02*
X229150600Y-105714700D01*
X229150600Y-105714700D02*
X237149400Y-105714700D01*
X237149400Y-105714700D02*
X238324700Y-106890000D01*
%TO.N,Net-(J2-Pad21)*%
X239500000Y-109430000D02*
X238324700Y-109430000D01*
X226800000Y-109430000D02*
X227975300Y-109430000D01*
X227975300Y-109430000D02*
X229150600Y-108254700D01*
X229150600Y-108254700D02*
X237149400Y-108254700D01*
X237149400Y-108254700D02*
X238324700Y-109430000D01*
%TO.N,Net-(J7-Pad29)*%
X220280000Y-92580000D02*
X220280000Y-90040000D01*
%TO.N,Net-(J7-Pad27)*%
X217740000Y-92580000D02*
X217740000Y-90040000D01*
%TO.N,Net-(J7-Pad25)*%
X215200000Y-92580000D02*
X215200000Y-90040000D01*
%TO.N,Net-(J7-Pad23)*%
X212660000Y-92580000D02*
X212660000Y-90040000D01*
%TO.N,Net-(J7-Pad21)*%
X210120000Y-92580000D02*
X210120000Y-90040000D01*
%TO.N,Net-(J7-Pad19)*%
X207580000Y-92580000D02*
X207580000Y-90040000D01*
%TO.N,Net-(J7-Pad17)*%
X205040000Y-92580000D02*
X205040000Y-90040000D01*
%TO.N,Net-(J7-Pad15)*%
X202500000Y-92580000D02*
X202500000Y-90040000D01*
%TO.N,Net-(J7-Pad13)*%
X199960000Y-92580000D02*
X199960000Y-90040000D01*
%TO.N,Net-(J7-Pad11)*%
X197420000Y-92580000D02*
X197420000Y-90040000D01*
%TO.N,Net-(J7-Pad10)*%
X194880000Y-92580000D02*
X194880000Y-90040000D01*
%TO.N,Net-(J7-Pad7)*%
X192340000Y-92580000D02*
X192340000Y-90040000D01*
%TO.N,Net-(J7-Pad5)*%
X189800000Y-92580000D02*
X189800000Y-90040000D01*
%TO.N,Net-(J7-Pad3)*%
X187260000Y-92580000D02*
X187260000Y-90040000D01*
%TO.N,Net-(J7-Pad1)*%
X184720000Y-92580000D02*
X184720000Y-90040000D01*
%TO.N,Net-(J3-Pad21)*%
X211390000Y-111495000D02*
X211390000Y-108955000D01*
X211390000Y-114035000D02*
X211390000Y-111495000D01*
X211390000Y-116575000D02*
X211390000Y-114035000D01*
X211390000Y-121655000D02*
X211390000Y-119115000D01*
X211390000Y-116575000D02*
X211390000Y-119115000D01*
%TO.N,Net-(J3-Pad23)*%
X213930000Y-111495000D02*
X213930000Y-108955000D01*
X213930000Y-114035000D02*
X213930000Y-111495000D01*
X213930000Y-116575000D02*
X213930000Y-114035000D01*
X213930000Y-121655000D02*
X213930000Y-119115000D01*
X213930000Y-116575000D02*
X213930000Y-119115000D01*
%TO.N,Net-(J3-Pad25)*%
X216470000Y-111495000D02*
X216470000Y-108955000D01*
X216470000Y-114035000D02*
X216470000Y-111495000D01*
X216470000Y-116575000D02*
X216470000Y-114035000D01*
X216470000Y-121655000D02*
X216470000Y-119115000D01*
X216470000Y-116575000D02*
X216470000Y-119115000D01*
%TO.N,Net-(J3-Pad27)*%
X219010000Y-111495000D02*
X219010000Y-108955000D01*
X219010000Y-114035000D02*
X219010000Y-111495000D01*
X219010000Y-116575000D02*
X219010000Y-114035000D01*
X219010000Y-121655000D02*
X219010000Y-119115000D01*
X219010000Y-116575000D02*
X219010000Y-119115000D01*
%TD*%
M02*
