%TF.GenerationSoftware,KiCad,Pcbnew,(5.1.9)-1*%
%TF.CreationDate,2022-02-04T12:49:55-05:00*%
%TF.ProjectId,Breadboard-Testbed,42726561-6462-46f6-9172-642d54657374,rev?*%
%TF.SameCoordinates,Original*%
%TF.FileFunction,Legend,Top*%
%TF.FilePolarity,Positive*%
%FSLAX46Y46*%
G04 Gerber Fmt 4.6, Leading zero omitted, Abs format (unit mm)*
G04 Created by KiCad (PCBNEW (5.1.9)-1) date 2022-02-04 12:49:55*
%MOMM*%
%LPD*%
G01*
G04 APERTURE LIST*
%ADD10C,0.250000*%
%ADD11C,0.750000*%
%ADD12C,0.120000*%
G04 APERTURE END LIST*
D10*
X232775190Y-81803761D02*
X232775190Y-79803761D01*
X233251380Y-79803761D01*
X233537095Y-79899000D01*
X233727571Y-80089476D01*
X233822809Y-80279952D01*
X233918047Y-80660904D01*
X233918047Y-80946619D01*
X233822809Y-81327571D01*
X233727571Y-81518047D01*
X233537095Y-81708523D01*
X233251380Y-81803761D01*
X232775190Y-81803761D01*
X241474690Y-81803761D02*
X241474690Y-79803761D01*
X241950880Y-79803761D01*
X242236595Y-79899000D01*
X242427071Y-80089476D01*
X242522309Y-80279952D01*
X242617547Y-80660904D01*
X242617547Y-80946619D01*
X242522309Y-81327571D01*
X242427071Y-81518047D01*
X242236595Y-81708523D01*
X241950880Y-81803761D01*
X241474690Y-81803761D01*
X226107547Y-81549785D02*
X226012309Y-81645023D01*
X225726595Y-81740261D01*
X225536119Y-81740261D01*
X225250404Y-81645023D01*
X225059928Y-81454547D01*
X224964690Y-81264071D01*
X224869452Y-80883119D01*
X224869452Y-80597404D01*
X224964690Y-80216452D01*
X225059928Y-80025976D01*
X225250404Y-79835500D01*
X225536119Y-79740261D01*
X225726595Y-79740261D01*
X226012309Y-79835500D01*
X226107547Y-79930738D01*
X240077547Y-81613285D02*
X239982309Y-81708523D01*
X239696595Y-81803761D01*
X239506119Y-81803761D01*
X239220404Y-81708523D01*
X239029928Y-81518047D01*
X238934690Y-81327571D01*
X238839452Y-80946619D01*
X238839452Y-80660904D01*
X238934690Y-80279952D01*
X239029928Y-80089476D01*
X239220404Y-79899000D01*
X239506119Y-79803761D01*
X239696595Y-79803761D01*
X239982309Y-79899000D01*
X240077547Y-79994238D01*
X179784357Y-82788142D02*
X180070071Y-82883380D01*
X180165309Y-82978619D01*
X180260547Y-83169095D01*
X180260547Y-83454809D01*
X180165309Y-83645285D01*
X180070071Y-83740523D01*
X179879595Y-83835761D01*
X179117690Y-83835761D01*
X179117690Y-81835761D01*
X179784357Y-81835761D01*
X179974833Y-81931000D01*
X180070071Y-82026238D01*
X180165309Y-82216714D01*
X180165309Y-82407190D01*
X180070071Y-82597666D01*
X179974833Y-82692904D01*
X179784357Y-82788142D01*
X179117690Y-82788142D01*
X165750857Y-82851642D02*
X166036571Y-82946880D01*
X166131809Y-83042119D01*
X166227047Y-83232595D01*
X166227047Y-83518309D01*
X166131809Y-83708785D01*
X166036571Y-83804023D01*
X165846095Y-83899261D01*
X165084190Y-83899261D01*
X165084190Y-81899261D01*
X165750857Y-81899261D01*
X165941333Y-81994500D01*
X166036571Y-82089738D01*
X166131809Y-82280214D01*
X166131809Y-82470690D01*
X166036571Y-82661166D01*
X165941333Y-82756404D01*
X165750857Y-82851642D01*
X165084190Y-82851642D01*
X171481809Y-83200833D02*
X172434190Y-83200833D01*
X171291333Y-83772261D02*
X171958000Y-81772261D01*
X172624666Y-83772261D01*
X162464809Y-83264333D02*
X163417190Y-83264333D01*
X162274333Y-83835761D02*
X162941000Y-81835761D01*
X163607666Y-83835761D01*
X195184047Y-105394142D02*
X195469761Y-105489380D01*
X195565000Y-105584619D01*
X195660238Y-105775095D01*
X195660238Y-106060809D01*
X195565000Y-106251285D01*
X195469761Y-106346523D01*
X195279285Y-106441761D01*
X194517380Y-106441761D01*
X194517380Y-104441761D01*
X195184047Y-104441761D01*
X195374523Y-104537000D01*
X195469761Y-104632238D01*
X195565000Y-104822714D01*
X195565000Y-105013190D01*
X195469761Y-105203666D01*
X195374523Y-105298904D01*
X195184047Y-105394142D01*
X194517380Y-105394142D01*
X196517380Y-106441761D02*
X196517380Y-105108428D01*
X196517380Y-105489380D02*
X196612619Y-105298904D01*
X196707857Y-105203666D01*
X196898333Y-105108428D01*
X197088809Y-105108428D01*
X198517380Y-106346523D02*
X198326904Y-106441761D01*
X197945952Y-106441761D01*
X197755476Y-106346523D01*
X197660238Y-106156047D01*
X197660238Y-105394142D01*
X197755476Y-105203666D01*
X197945952Y-105108428D01*
X198326904Y-105108428D01*
X198517380Y-105203666D01*
X198612619Y-105394142D01*
X198612619Y-105584619D01*
X197660238Y-105775095D01*
X200326904Y-106441761D02*
X200326904Y-105394142D01*
X200231666Y-105203666D01*
X200041190Y-105108428D01*
X199660238Y-105108428D01*
X199469761Y-105203666D01*
X200326904Y-106346523D02*
X200136428Y-106441761D01*
X199660238Y-106441761D01*
X199469761Y-106346523D01*
X199374523Y-106156047D01*
X199374523Y-105965571D01*
X199469761Y-105775095D01*
X199660238Y-105679857D01*
X200136428Y-105679857D01*
X200326904Y-105584619D01*
X202136428Y-106441761D02*
X202136428Y-104441761D01*
X202136428Y-106346523D02*
X201945952Y-106441761D01*
X201565000Y-106441761D01*
X201374523Y-106346523D01*
X201279285Y-106251285D01*
X201184047Y-106060809D01*
X201184047Y-105489380D01*
X201279285Y-105298904D01*
X201374523Y-105203666D01*
X201565000Y-105108428D01*
X201945952Y-105108428D01*
X202136428Y-105203666D01*
X203088809Y-106441761D02*
X203088809Y-104441761D01*
X203088809Y-105203666D02*
X203279285Y-105108428D01*
X203660238Y-105108428D01*
X203850714Y-105203666D01*
X203945952Y-105298904D01*
X204041190Y-105489380D01*
X204041190Y-106060809D01*
X203945952Y-106251285D01*
X203850714Y-106346523D01*
X203660238Y-106441761D01*
X203279285Y-106441761D01*
X203088809Y-106346523D01*
X205184047Y-106441761D02*
X204993571Y-106346523D01*
X204898333Y-106251285D01*
X204803095Y-106060809D01*
X204803095Y-105489380D01*
X204898333Y-105298904D01*
X204993571Y-105203666D01*
X205184047Y-105108428D01*
X205469761Y-105108428D01*
X205660238Y-105203666D01*
X205755476Y-105298904D01*
X205850714Y-105489380D01*
X205850714Y-106060809D01*
X205755476Y-106251285D01*
X205660238Y-106346523D01*
X205469761Y-106441761D01*
X205184047Y-106441761D01*
X207565000Y-106441761D02*
X207565000Y-105394142D01*
X207469761Y-105203666D01*
X207279285Y-105108428D01*
X206898333Y-105108428D01*
X206707857Y-105203666D01*
X207565000Y-106346523D02*
X207374523Y-106441761D01*
X206898333Y-106441761D01*
X206707857Y-106346523D01*
X206612619Y-106156047D01*
X206612619Y-105965571D01*
X206707857Y-105775095D01*
X206898333Y-105679857D01*
X207374523Y-105679857D01*
X207565000Y-105584619D01*
X208517380Y-106441761D02*
X208517380Y-105108428D01*
X208517380Y-105489380D02*
X208612619Y-105298904D01*
X208707857Y-105203666D01*
X208898333Y-105108428D01*
X209088809Y-105108428D01*
X210612619Y-106441761D02*
X210612619Y-104441761D01*
X210612619Y-106346523D02*
X210422142Y-106441761D01*
X210041190Y-106441761D01*
X209850714Y-106346523D01*
X209755476Y-106251285D01*
X209660238Y-106060809D01*
X209660238Y-105489380D01*
X209755476Y-105298904D01*
X209850714Y-105203666D01*
X210041190Y-105108428D01*
X210422142Y-105108428D01*
X210612619Y-105203666D01*
D11*
X193572785Y-82859500D02*
X195001357Y-82859500D01*
X193287071Y-83716642D02*
X194287071Y-80716642D01*
X195287071Y-83716642D01*
X196287071Y-83716642D02*
X196287071Y-81716642D01*
X196287071Y-82288071D02*
X196429928Y-82002357D01*
X196572785Y-81859500D01*
X196858500Y-81716642D01*
X197144214Y-81716642D01*
X199429928Y-83716642D02*
X199429928Y-80716642D01*
X199429928Y-83573785D02*
X199144214Y-83716642D01*
X198572785Y-83716642D01*
X198287071Y-83573785D01*
X198144214Y-83430928D01*
X198001357Y-83145214D01*
X198001357Y-82288071D01*
X198144214Y-82002357D01*
X198287071Y-81859500D01*
X198572785Y-81716642D01*
X199144214Y-81716642D01*
X199429928Y-81859500D01*
X202144214Y-81716642D02*
X202144214Y-83716642D01*
X200858500Y-81716642D02*
X200858500Y-83288071D01*
X201001357Y-83573785D01*
X201287071Y-83716642D01*
X201715642Y-83716642D01*
X202001357Y-83573785D01*
X202144214Y-83430928D01*
X203572785Y-83716642D02*
X203572785Y-81716642D01*
X203572785Y-80716642D02*
X203429928Y-80859500D01*
X203572785Y-81002357D01*
X203715642Y-80859500D01*
X203572785Y-80716642D01*
X203572785Y-81002357D01*
X205001357Y-81716642D02*
X205001357Y-83716642D01*
X205001357Y-82002357D02*
X205144214Y-81859500D01*
X205429928Y-81716642D01*
X205858500Y-81716642D01*
X206144214Y-81859500D01*
X206287071Y-82145214D01*
X206287071Y-83716642D01*
X208144214Y-83716642D02*
X207858500Y-83573785D01*
X207715642Y-83430928D01*
X207572785Y-83145214D01*
X207572785Y-82288071D01*
X207715642Y-82002357D01*
X207858500Y-81859500D01*
X208144214Y-81716642D01*
X208572785Y-81716642D01*
X208858500Y-81859500D01*
X209001357Y-82002357D01*
X209144214Y-82288071D01*
X209144214Y-83145214D01*
X209001357Y-83430928D01*
X208858500Y-83573785D01*
X208572785Y-83716642D01*
X208144214Y-83716642D01*
D12*
%TO.C,J1*%
X161670000Y-85240000D02*
X163000000Y-85240000D01*
X161670000Y-86570000D02*
X161670000Y-85240000D01*
X164270000Y-85240000D02*
X166870000Y-85240000D01*
X164270000Y-87840000D02*
X164270000Y-85240000D01*
X161670000Y-87840000D02*
X164270000Y-87840000D01*
X166870000Y-85240000D02*
X166870000Y-110760000D01*
X161670000Y-87840000D02*
X161670000Y-110760000D01*
X161670000Y-110760000D02*
X166870000Y-110760000D01*
%TO.C,J2*%
X238170000Y-82700000D02*
X239500000Y-82700000D01*
X238170000Y-84030000D02*
X238170000Y-82700000D01*
X240770000Y-82700000D02*
X243370000Y-82700000D01*
X240770000Y-85300000D02*
X240770000Y-82700000D01*
X238170000Y-85300000D02*
X240770000Y-85300000D01*
X243370000Y-82700000D02*
X243370000Y-113300000D01*
X238170000Y-85300000D02*
X238170000Y-113300000D01*
X238170000Y-113300000D02*
X243370000Y-113300000D01*
%TO.C,J5*%
X169290000Y-110760000D02*
X174490000Y-110760000D01*
X169290000Y-87840000D02*
X169290000Y-110760000D01*
X174490000Y-85240000D02*
X174490000Y-110760000D01*
X169290000Y-87840000D02*
X171890000Y-87840000D01*
X171890000Y-87840000D02*
X171890000Y-85240000D01*
X171890000Y-85240000D02*
X174490000Y-85240000D01*
X169290000Y-86570000D02*
X169290000Y-85240000D01*
X169290000Y-85240000D02*
X170620000Y-85240000D01*
%TO.C,J7*%
X221610000Y-93910000D02*
X221610000Y-88710000D01*
X185990000Y-93910000D02*
X221610000Y-93910000D01*
X183390000Y-88710000D02*
X221610000Y-88710000D01*
X185990000Y-93910000D02*
X185990000Y-91310000D01*
X185990000Y-91310000D02*
X183390000Y-91310000D01*
X183390000Y-91310000D02*
X183390000Y-88710000D01*
X184720000Y-93910000D02*
X183390000Y-93910000D01*
X183390000Y-93910000D02*
X183390000Y-92580000D01*
%TO.C,J8*%
X176910000Y-85240000D02*
X178240000Y-85240000D01*
X176910000Y-86570000D02*
X176910000Y-85240000D01*
X179510000Y-85240000D02*
X182110000Y-85240000D01*
X179510000Y-87840000D02*
X179510000Y-85240000D01*
X176910000Y-87840000D02*
X179510000Y-87840000D01*
X182110000Y-85240000D02*
X182110000Y-110760000D01*
X176910000Y-87840000D02*
X176910000Y-110760000D01*
X176910000Y-110760000D02*
X182110000Y-110760000D01*
%TO.C,J9*%
X222930000Y-82700000D02*
X224260000Y-82700000D01*
X222930000Y-84030000D02*
X222930000Y-82700000D01*
X225530000Y-82700000D02*
X228130000Y-82700000D01*
X225530000Y-85300000D02*
X225530000Y-82700000D01*
X222930000Y-85300000D02*
X225530000Y-85300000D01*
X228130000Y-82700000D02*
X228130000Y-113300000D01*
X222930000Y-85300000D02*
X222930000Y-113300000D01*
X222930000Y-113300000D02*
X228130000Y-113300000D01*
%TO.C,J10*%
X221610000Y-76130000D02*
X221610000Y-70930000D01*
X185990000Y-76130000D02*
X221610000Y-76130000D01*
X183390000Y-70930000D02*
X221610000Y-70930000D01*
X185990000Y-76130000D02*
X185990000Y-73530000D01*
X185990000Y-73530000D02*
X183390000Y-73530000D01*
X183390000Y-73530000D02*
X183390000Y-70930000D01*
X184720000Y-76130000D02*
X183390000Y-76130000D01*
X183390000Y-76130000D02*
X183390000Y-74800000D01*
%TO.C,J12*%
X230470000Y-82700000D02*
X231800000Y-82700000D01*
X230470000Y-84030000D02*
X230470000Y-82700000D01*
X233070000Y-82700000D02*
X235670000Y-82700000D01*
X233070000Y-85300000D02*
X233070000Y-82700000D01*
X230470000Y-85300000D02*
X233070000Y-85300000D01*
X235670000Y-82700000D02*
X235670000Y-113300000D01*
X230470000Y-85300000D02*
X230470000Y-113300000D01*
X230470000Y-113300000D02*
X235670000Y-113300000D01*
%TD*%
M02*
