M48
; DRILL file {KiCad (5.1.9)-1} date 10/08/21 15:37:52
; FORMAT={-:-/ absolute / inch / decimal}
; #@! TF.CreationDate,2021-10-08T15:37:52-04:00
; #@! TF.GenerationSoftware,Kicad,Pcbnew,(5.1.9)-1
; #@! TF.FileFunction,Plated,1,4,PTH
FMAT,2
INCH
T1C0.0157
T2C0.0315
T3C0.0394
%
G90
G05
T1
X6.8898Y-4.0362
X7.0866Y-3.8486
X7.2839Y-4.0374
X7.7454Y-3.9574
X7.7651Y-4.274
X8.3161Y-4.0159
X8.4575Y-3.7791
X8.9764Y-3.7854
X9.0Y-3.9949
X9.1646Y-4.863
X9.183Y-3.6081
X9.2889Y-4.9144
T2
X8.8638Y-2.8516
X8.8638Y-3.0516
X8.9638Y-2.8516
X8.9638Y-3.0516
X9.0638Y-2.8516
X9.0638Y-3.0516
X9.1638Y-2.8516
X9.1638Y-3.0516
X9.2638Y-2.8516
X9.2638Y-3.0516
T3
X6.4173Y-3.4083
X6.4173Y-3.5083
X6.4173Y-3.6083
X6.4173Y-3.7083
X6.4173Y-3.8083
X6.4173Y-3.9083
X6.4173Y-4.0083
X6.4173Y-4.1083
X6.4173Y-4.2083
X6.4173Y-4.3083
X6.5173Y-3.4083
X6.5173Y-3.5083
X6.5173Y-3.6083
X6.5173Y-3.7083
X6.5173Y-3.8083
X6.5173Y-3.9083
X6.5173Y-4.0083
X6.5173Y-4.1083
X6.5173Y-4.2083
X6.5173Y-4.3083
X6.6287Y-2.8437
X6.6287Y-2.9437
X6.7287Y-2.8437
X6.7287Y-2.9437
X6.8287Y-2.8437
X6.8287Y-2.9437
X6.9287Y-2.8437
X6.9287Y-2.9437
X7.0287Y-2.8437
X7.0287Y-2.9437
X7.1287Y-2.8437
X7.1287Y-2.9437
X7.2287Y-2.8437
X7.2287Y-2.9437
X7.3287Y-2.8437
X7.3287Y-2.9437
X7.3622Y-4.2913
X7.3622Y-4.8031
X7.4287Y-2.8437
X7.4287Y-2.9437
X7.4622Y-4.2913
X7.4622Y-4.8031
X7.5287Y-2.8437
X7.5287Y-2.9437
X7.5622Y-4.2913
X7.5622Y-4.8031
X7.6287Y-2.8437
X7.6287Y-2.9437
X7.6622Y-4.8031
X7.7287Y-2.8437
X7.7287Y-2.9437
X7.7622Y-4.8031
X7.8287Y-2.8437
X7.8287Y-2.9437
X7.8622Y-4.8031
X7.9287Y-2.8437
X7.9287Y-2.9437
X7.9622Y-4.8031
X8.0287Y-2.8437
X8.0287Y-2.9437
X8.1287Y-2.8437
X8.1287Y-2.9437
X8.2287Y-2.8437
X8.2287Y-2.9437
X8.3071Y-4.8031
X8.3287Y-2.8437
X8.3287Y-2.9437
X8.4071Y-4.8031
X8.4287Y-2.8437
X8.4287Y-2.9437
X8.5071Y-4.8031
X8.5287Y-2.8437
X8.5287Y-2.9437
X8.6071Y-4.8031
X9.4291Y-3.3083
X9.4291Y-3.4083
X9.4291Y-3.5083
X9.4291Y-3.6083
X9.4291Y-3.7083
X9.4291Y-3.8083
X9.4291Y-3.9083
X9.4291Y-4.0083
X9.4291Y-4.1083
X9.4291Y-4.2083
X9.4291Y-4.3083
X9.4291Y-4.4083
X9.5291Y-3.3083
X9.5291Y-3.4083
X9.5291Y-3.5083
X9.5291Y-3.6083
X9.5291Y-3.7083
X9.5291Y-3.8083
X9.5291Y-3.9083
X9.5291Y-4.0083
X9.5291Y-4.1083
X9.5291Y-4.2083
X9.5291Y-4.3083
X9.5291Y-4.4083
T0
M30
