%TF.GenerationSoftware,KiCad,Pcbnew,(5.1.9)-1*%
%TF.CreationDate,2021-10-08T15:37:50-04:00*%
%TF.ProjectId,Baja_Pi_Expansion,42616a61-5f50-4695-9f45-7870616e7369,rev?*%
%TF.SameCoordinates,Original*%
%TF.FileFunction,Copper,L2,Inr*%
%TF.FilePolarity,Positive*%
%FSLAX46Y46*%
G04 Gerber Fmt 4.6, Leading zero omitted, Abs format (unit mm)*
G04 Created by KiCad (PCBNEW (5.1.9)-1) date 2021-10-08 15:37:50*
%MOMM*%
%LPD*%
G01*
G04 APERTURE LIST*
%TA.AperFunction,ComponentPad*%
%ADD10R,1.700000X1.700000*%
%TD*%
%TA.AperFunction,ComponentPad*%
%ADD11O,1.700000X1.700000*%
%TD*%
%TA.AperFunction,ComponentPad*%
%ADD12R,1.600000X1.600000*%
%TD*%
%TA.AperFunction,ComponentPad*%
%ADD13C,1.600000*%
%TD*%
%TA.AperFunction,ViaPad*%
%ADD14C,0.800000*%
%TD*%
%TA.AperFunction,Conductor*%
%ADD15C,0.250000*%
%TD*%
G04 APERTURE END LIST*
D10*
%TO.N,/3v3*%
%TO.C,J1*%
X163000000Y-86570000D03*
D11*
%TO.N,/5v*%
X165540000Y-86570000D03*
%TO.N,/sda2*%
X163000000Y-89110000D03*
%TO.N,/5v*%
X165540000Y-89110000D03*
%TO.N,/scl2*%
X163000000Y-91650000D03*
%TO.N,/gnd*%
X165540000Y-91650000D03*
%TO.N,/gpio1*%
X163000000Y-94190000D03*
%TO.N,/uart_tx*%
X165540000Y-94190000D03*
%TO.N,/gnd*%
X163000000Y-96730000D03*
%TO.N,/uart_rx*%
X165540000Y-96730000D03*
%TO.N,/spi2_ce1*%
X163000000Y-99270000D03*
%TO.N,/spi2_ce0*%
X165540000Y-99270000D03*
%TO.N,/gpio11*%
X163000000Y-101810000D03*
%TO.N,/gnd*%
X165540000Y-101810000D03*
%TO.N,/gpio6*%
X163000000Y-104350000D03*
%TO.N,/gpio7*%
X165540000Y-104350000D03*
%TO.N,/3v3*%
X163000000Y-106890000D03*
%TO.N,/gpio8*%
X165540000Y-106890000D03*
%TO.N,/mosi*%
X163000000Y-109430000D03*
%TO.N,/gnd*%
X165540000Y-109430000D03*
%TD*%
D10*
%TO.N,/miso*%
%TO.C,J2*%
X239500000Y-84030000D03*
D11*
%TO.N,/gpio9*%
X242040000Y-84030000D03*
%TO.N,/sclk*%
X239500000Y-86570000D03*
%TO.N,/spi_ce0*%
X242040000Y-86570000D03*
%TO.N,/gnd*%
X239500000Y-89110000D03*
%TO.N,/spi_ce1*%
X242040000Y-89110000D03*
%TO.N,/sda*%
X239500000Y-91650000D03*
%TO.N,/scl*%
X242040000Y-91650000D03*
%TO.N,/analog_in*%
X239500000Y-94190000D03*
%TO.N,/gnd*%
X242040000Y-94190000D03*
%TO.N,/dig_in*%
X239500000Y-96730000D03*
%TO.N,/gpio4*%
X242040000Y-96730000D03*
%TO.N,/gpio5*%
X239500000Y-99270000D03*
%TO.N,/gnd*%
X242040000Y-99270000D03*
%TO.N,/miso2_pwm*%
X239500000Y-101810000D03*
%TO.N,/reset*%
X242040000Y-101810000D03*
%TO.N,/gpio10*%
X239500000Y-104350000D03*
%TO.N,/miso2*%
X242040000Y-104350000D03*
%TO.N,/gnd*%
X239500000Y-106890000D03*
%TO.N,/sclk2*%
X242040000Y-106890000D03*
%TO.N,Net-(J2-Pad21)*%
X239500000Y-109430000D03*
%TO.N,/reset*%
X242040000Y-109430000D03*
%TO.N,/vcc*%
X239500000Y-111970000D03*
X242040000Y-111970000D03*
%TD*%
D10*
%TO.N,/vcc*%
%TO.C,J3*%
X211000000Y-122000000D03*
D11*
%TO.N,/gnd*%
X213540000Y-122000000D03*
%TO.N,/vcc*%
X216080000Y-122000000D03*
%TO.N,/gnd*%
X218620000Y-122000000D03*
%TD*%
D10*
%TO.N,/3v3*%
%TO.C,J4*%
X168370000Y-74770000D03*
D11*
%TO.N,/5v*%
X168370000Y-72230000D03*
%TO.N,/sda2*%
X170910000Y-74770000D03*
%TO.N,/5v*%
X170910000Y-72230000D03*
%TO.N,/scl2*%
X173450000Y-74770000D03*
%TO.N,/gnd*%
X173450000Y-72230000D03*
%TO.N,/gpio1*%
X175990000Y-74770000D03*
%TO.N,/uart_tx*%
X175990000Y-72230000D03*
%TO.N,/gnd*%
X178530000Y-74770000D03*
%TO.N,/uart_rx*%
X178530000Y-72230000D03*
%TO.N,/spi2_ce1*%
X181070000Y-74770000D03*
%TO.N,/spi2_ce0*%
X181070000Y-72230000D03*
%TO.N,/gpio11*%
X183610000Y-74770000D03*
%TO.N,/gnd*%
X183610000Y-72230000D03*
%TO.N,/gpio6*%
X186150000Y-74770000D03*
%TO.N,/gpio7*%
X186150000Y-72230000D03*
%TO.N,/3v3*%
X188690000Y-74770000D03*
%TO.N,/gpio8*%
X188690000Y-72230000D03*
%TO.N,/mosi*%
X191230000Y-74770000D03*
%TO.N,/gnd*%
X191230000Y-72230000D03*
%TO.N,/miso*%
X193770000Y-74770000D03*
%TO.N,/gpio9*%
X193770000Y-72230000D03*
%TO.N,/sclk*%
X196310000Y-74770000D03*
%TO.N,/spi_ce0*%
X196310000Y-72230000D03*
%TO.N,/gnd*%
X198850000Y-74770000D03*
%TO.N,/spi_ce1*%
X198850000Y-72230000D03*
%TO.N,/sda*%
X201390000Y-74770000D03*
%TO.N,/scl*%
X201390000Y-72230000D03*
%TO.N,/analog_in*%
X203930000Y-74770000D03*
%TO.N,/gnd*%
X203930000Y-72230000D03*
%TO.N,/dig_in*%
X206470000Y-74770000D03*
%TO.N,/gpio4*%
X206470000Y-72230000D03*
%TO.N,/gpio5*%
X209010000Y-74770000D03*
%TO.N,/gnd*%
X209010000Y-72230000D03*
%TO.N,/miso2_pwm*%
X211550000Y-74770000D03*
%TO.N,/reset*%
X211550000Y-72230000D03*
%TO.N,/gpio10*%
X214090000Y-74770000D03*
%TO.N,/miso2*%
X214090000Y-72230000D03*
%TO.N,/gnd*%
X216630000Y-74770000D03*
%TO.N,/sclk2*%
X216630000Y-72230000D03*
%TD*%
D10*
%TO.N,/5v*%
%TO.C,J5*%
X187000000Y-109000000D03*
D11*
%TO.N,/dig_in*%
X189540000Y-109000000D03*
%TO.N,/gnd*%
X192080000Y-109000000D03*
%TD*%
D10*
%TO.N,/5v*%
%TO.C,J6*%
X187000000Y-122000000D03*
D11*
%TO.N,/dig_in*%
X189540000Y-122000000D03*
%TO.N,/gnd*%
X192080000Y-122000000D03*
%TO.N,/5v*%
X194620000Y-122000000D03*
%TO.N,/analog_in*%
X197160000Y-122000000D03*
%TO.N,/gnd*%
X199700000Y-122000000D03*
%TO.N,/brakes*%
X202240000Y-122000000D03*
%TD*%
D12*
%TO.N,/gnd*%
%TO.C,U1*%
X225140000Y-77510000D03*
D13*
%TO.N,/gpio6*%
X227680000Y-77510000D03*
%TO.N,/gpio5*%
X230220000Y-77510000D03*
%TO.N,/gpio7*%
X232760000Y-77510000D03*
%TO.N,/gpio8*%
X235300000Y-77510000D03*
%TO.N,/gnd*%
X235300000Y-72430000D03*
%TO.N,/gpio4*%
X232760000Y-72430000D03*
%TO.N,/gpio9*%
X230220000Y-72430000D03*
%TO.N,/gpio10*%
X227680000Y-72430000D03*
%TO.N,/gpio11*%
X225140000Y-72430000D03*
%TD*%
D14*
%TO.N,/vcc*%
X211230000Y-102002800D03*
%TO.N,/gnd*%
X232780000Y-123520000D03*
X228600000Y-101470000D03*
X228000000Y-96150000D03*
X214820000Y-95990000D03*
X175000000Y-102520000D03*
X185010000Y-102550000D03*
%TO.N,/5v*%
X180000000Y-97753600D03*
%TO.N,Net-(D1-Pad2)*%
X235937500Y-124824600D03*
X196732300Y-100518200D03*
%TO.N,/sclk*%
X233248300Y-91646400D03*
%TO.N,/brakes*%
X197233900Y-108558900D03*
%TD*%
D15*
%TO.N,/vcc*%
X211000000Y-122000000D02*
X211000000Y-102232800D01*
X211000000Y-102232800D02*
X211230000Y-102002800D01*
%TO.N,/5v*%
X187000000Y-122000000D02*
X188175300Y-122000000D01*
X194620000Y-122000000D02*
X193444700Y-122000000D01*
X193444700Y-122000000D02*
X193444700Y-122367300D01*
X193444700Y-122367300D02*
X192636700Y-123175300D01*
X192636700Y-123175300D02*
X188983200Y-123175300D01*
X188983200Y-123175300D02*
X188175300Y-122367400D01*
X188175300Y-122367400D02*
X188175300Y-122000000D01*
X187000000Y-109000000D02*
X187000000Y-107824700D01*
X187000000Y-107824700D02*
X180000000Y-100824700D01*
X180000000Y-100824700D02*
X180000000Y-97753600D01*
X187000000Y-122000000D02*
X187000000Y-109000000D01*
%TO.N,Net-(D1-Pad2)*%
X235937500Y-124824600D02*
X212388200Y-101275300D01*
X212388200Y-101275300D02*
X197489400Y-101275300D01*
X197489400Y-101275300D02*
X196732300Y-100518200D01*
%TO.N,/3v3*%
X168370000Y-74770000D02*
X168370000Y-75945300D01*
X168370000Y-75945300D02*
X163000000Y-81315300D01*
X163000000Y-81315300D02*
X163000000Y-86570000D01*
%TO.N,/sda2*%
X163000000Y-87934700D02*
X163808100Y-87934700D01*
X163808100Y-87934700D02*
X164175300Y-87567500D01*
X164175300Y-87567500D02*
X164175300Y-82680000D01*
X164175300Y-82680000D02*
X170910000Y-75945300D01*
X163000000Y-89110000D02*
X163000000Y-87934700D01*
X170910000Y-74770000D02*
X170910000Y-75945300D01*
%TO.N,/scl2*%
X173450000Y-74770000D02*
X173450000Y-80325000D01*
X173450000Y-80325000D02*
X165840400Y-87934600D01*
X165840400Y-87934600D02*
X165050600Y-87934600D01*
X165050600Y-87934600D02*
X164175300Y-88809900D01*
X164175300Y-88809900D02*
X164175300Y-89666800D01*
X164175300Y-89666800D02*
X163367400Y-90474700D01*
X163367400Y-90474700D02*
X163000000Y-90474700D01*
X163000000Y-91650000D02*
X163000000Y-90474700D01*
%TO.N,/uart_tx*%
X165540000Y-94190000D02*
X165540000Y-93014700D01*
X175990000Y-72230000D02*
X175990000Y-73405300D01*
X175990000Y-73405300D02*
X175622600Y-73405300D01*
X175622600Y-73405300D02*
X174814700Y-74213200D01*
X174814700Y-74213200D02*
X174814700Y-84107300D01*
X174814700Y-84107300D02*
X165907300Y-93014700D01*
X165907300Y-93014700D02*
X165540000Y-93014700D01*
%TO.N,/uart_rx*%
X165540000Y-96730000D02*
X165540000Y-95554700D01*
X178530000Y-72230000D02*
X178530000Y-73405300D01*
X178530000Y-73405300D02*
X178162600Y-73405300D01*
X178162600Y-73405300D02*
X177354700Y-74213200D01*
X177354700Y-74213200D02*
X177354700Y-84107300D01*
X177354700Y-84107300D02*
X165907300Y-95554700D01*
X165907300Y-95554700D02*
X165540000Y-95554700D01*
%TO.N,/spi2_ce0*%
X181070000Y-73405300D02*
X180702600Y-73405300D01*
X180702600Y-73405300D02*
X179894700Y-74213200D01*
X179894700Y-74213200D02*
X179894700Y-84107300D01*
X179894700Y-84107300D02*
X165907300Y-98094700D01*
X165907300Y-98094700D02*
X165540000Y-98094700D01*
X165540000Y-99270000D02*
X165540000Y-98094700D01*
X181070000Y-72230000D02*
X181070000Y-73405300D01*
%TO.N,/gpio11*%
X183610000Y-74770000D02*
X183610000Y-82770300D01*
X183610000Y-82770300D02*
X173140200Y-93240100D01*
X173140200Y-93240100D02*
X173140200Y-93332000D01*
X173140200Y-93332000D02*
X165837500Y-100634700D01*
X165837500Y-100634700D02*
X164983200Y-100634700D01*
X164983200Y-100634700D02*
X164175300Y-101442600D01*
X164175300Y-101442600D02*
X164175300Y-101810000D01*
X163000000Y-101810000D02*
X164175300Y-101810000D01*
%TO.N,/gpio7*%
X186150000Y-73405300D02*
X185782600Y-73405300D01*
X185782600Y-73405300D02*
X184974700Y-74213200D01*
X184974700Y-74213200D02*
X184974700Y-84107300D01*
X184974700Y-84107300D02*
X165907300Y-103174700D01*
X165907300Y-103174700D02*
X165540000Y-103174700D01*
X186150000Y-72230000D02*
X186150000Y-73405300D01*
X165540000Y-104350000D02*
X165540000Y-103174700D01*
%TO.N,/gpio8*%
X235300000Y-77510000D02*
X232389300Y-74599300D01*
X232389300Y-74599300D02*
X222126200Y-74599300D01*
X222126200Y-74599300D02*
X218131300Y-70604400D01*
X218131300Y-70604400D02*
X191123500Y-70604400D01*
X191123500Y-70604400D02*
X189865300Y-71862600D01*
X189865300Y-71862600D02*
X189865300Y-72230000D01*
X188690000Y-72230000D02*
X189865300Y-72230000D01*
X165540000Y-106890000D02*
X165540000Y-105714700D01*
X188690000Y-72230000D02*
X188690000Y-73405300D01*
X188690000Y-73405300D02*
X188322600Y-73405300D01*
X188322600Y-73405300D02*
X187514700Y-74213200D01*
X187514700Y-74213200D02*
X187514700Y-84107300D01*
X187514700Y-84107300D02*
X165907300Y-105714700D01*
X165907300Y-105714700D02*
X165540000Y-105714700D01*
%TO.N,/gpio9*%
X230220000Y-72430000D02*
X231490000Y-73700000D01*
X231490000Y-73700000D02*
X233142600Y-73700000D01*
X233142600Y-73700000D02*
X242040000Y-82597400D01*
X242040000Y-82597400D02*
X242040000Y-84030000D01*
%TO.N,/sclk*%
X233248300Y-91646400D02*
X238324700Y-86570000D01*
X239500000Y-86570000D02*
X238324700Y-86570000D01*
%TO.N,/spi_ce0*%
X242040000Y-86570000D02*
X240864700Y-86570000D01*
X196310000Y-72230000D02*
X197485300Y-72230000D01*
X197485300Y-72230000D02*
X197485300Y-71932100D01*
X197485300Y-71932100D02*
X198362700Y-71054700D01*
X198362700Y-71054700D02*
X217626400Y-71054700D01*
X217626400Y-71054700D02*
X222697000Y-76125300D01*
X222697000Y-76125300D02*
X230449500Y-76125300D01*
X230449500Y-76125300D02*
X231490000Y-77165800D01*
X231490000Y-77165800D02*
X231490000Y-78270900D01*
X231490000Y-78270900D02*
X238613800Y-85394700D01*
X238613800Y-85394700D02*
X240056800Y-85394700D01*
X240056800Y-85394700D02*
X240864700Y-86202600D01*
X240864700Y-86202600D02*
X240864700Y-86570000D01*
%TO.N,/analog_in*%
X203930000Y-74770000D02*
X203930000Y-75945300D01*
X197160000Y-122000000D02*
X197160000Y-120824700D01*
X197160000Y-120824700D02*
X196004800Y-119669500D01*
X196004800Y-119669500D02*
X196004800Y-83870500D01*
X196004800Y-83870500D02*
X203930000Y-75945300D01*
%TO.N,/dig_in*%
X189540000Y-109000000D02*
X189540000Y-122000000D01*
X205294700Y-74770000D02*
X205294700Y-74402600D01*
X205294700Y-74402600D02*
X204486800Y-73594700D01*
X204486800Y-73594700D02*
X203404300Y-73594700D01*
X203404300Y-73594700D02*
X202754600Y-74244400D01*
X202754600Y-74244400D02*
X202754600Y-75305600D01*
X202754600Y-75305600D02*
X189540000Y-88520200D01*
X189540000Y-88520200D02*
X189540000Y-109000000D01*
X206470000Y-74770000D02*
X205294700Y-74770000D01*
%TO.N,/gpio4*%
X242040000Y-96730000D02*
X242040000Y-95554700D01*
X232760000Y-72430000D02*
X243215300Y-82885300D01*
X243215300Y-82885300D02*
X243215300Y-94746800D01*
X243215300Y-94746800D02*
X242407400Y-95554700D01*
X242407400Y-95554700D02*
X242040000Y-95554700D01*
%TO.N,/gpio5*%
X239500000Y-99270000D02*
X239500000Y-98094700D01*
X230220000Y-77510000D02*
X230220000Y-89696200D01*
X230220000Y-89696200D02*
X238618500Y-98094700D01*
X238618500Y-98094700D02*
X239500000Y-98094700D01*
%TO.N,/miso2_pwm*%
X239500000Y-101810000D02*
X238324700Y-101810000D01*
X211550000Y-74770000D02*
X212725300Y-74770000D01*
X212725300Y-74770000D02*
X212725300Y-76210600D01*
X212725300Y-76210600D02*
X238324700Y-101810000D01*
%TO.N,/reset*%
X242040000Y-109430000D02*
X240864700Y-109430000D01*
X211550000Y-72230000D02*
X210374700Y-72230000D01*
X210374700Y-72230000D02*
X210374700Y-72597400D01*
X210374700Y-72597400D02*
X209566800Y-73405300D01*
X209566800Y-73405300D02*
X208673700Y-73405300D01*
X208673700Y-73405300D02*
X207833000Y-74246000D01*
X207833000Y-74246000D02*
X207833000Y-77020800D01*
X207833000Y-77020800D02*
X239066900Y-108254700D01*
X239066900Y-108254700D02*
X240056800Y-108254700D01*
X240056800Y-108254700D02*
X240864700Y-109062600D01*
X240864700Y-109062600D02*
X240864700Y-109430000D01*
%TO.N,/miso2*%
X242040000Y-104350000D02*
X240864700Y-104350000D01*
X214090000Y-72230000D02*
X212914700Y-72230000D01*
X212914700Y-72230000D02*
X212914700Y-72597400D01*
X212914700Y-72597400D02*
X212106800Y-73405300D01*
X212106800Y-73405300D02*
X211213700Y-73405300D01*
X211213700Y-73405300D02*
X210373000Y-74246000D01*
X210373000Y-74246000D02*
X210373000Y-75277000D01*
X210373000Y-75277000D02*
X238270700Y-103174700D01*
X238270700Y-103174700D02*
X240056800Y-103174700D01*
X240056800Y-103174700D02*
X240864700Y-103982600D01*
X240864700Y-103982600D02*
X240864700Y-104350000D01*
%TO.N,/sclk2*%
X242040000Y-106890000D02*
X242040000Y-105714700D01*
X216630000Y-72230000D02*
X216630000Y-73405300D01*
X216630000Y-73405300D02*
X216997400Y-73405300D01*
X216997400Y-73405300D02*
X217805300Y-74213200D01*
X217805300Y-74213200D02*
X217805300Y-79237600D01*
X217805300Y-79237600D02*
X239013100Y-100445400D01*
X239013100Y-100445400D02*
X239799600Y-100445400D01*
X239799600Y-100445400D02*
X240864600Y-101510400D01*
X240864600Y-101510400D02*
X240864600Y-102335600D01*
X240864600Y-102335600D02*
X241609000Y-103080000D01*
X241609000Y-103080000D02*
X242459500Y-103080000D01*
X242459500Y-103080000D02*
X243215300Y-103835800D01*
X243215300Y-103835800D02*
X243215300Y-104906800D01*
X243215300Y-104906800D02*
X242407400Y-105714700D01*
X242407400Y-105714700D02*
X242040000Y-105714700D01*
%TO.N,/brakes*%
X202240000Y-120824700D02*
X197233900Y-115818600D01*
X197233900Y-115818600D02*
X197233900Y-108558900D01*
X202240000Y-122000000D02*
X202240000Y-120824700D01*
%TD*%
M02*
