%TF.GenerationSoftware,KiCad,Pcbnew,(5.1.9)-1*%
%TF.CreationDate,2021-10-08T15:37:50-04:00*%
%TF.ProjectId,Baja_Pi_Expansion,42616a61-5f50-4695-9f45-7870616e7369,rev?*%
%TF.SameCoordinates,Original*%
%TF.FileFunction,Copper,L3,Inr*%
%TF.FilePolarity,Positive*%
%FSLAX46Y46*%
G04 Gerber Fmt 4.6, Leading zero omitted, Abs format (unit mm)*
G04 Created by KiCad (PCBNEW (5.1.9)-1) date 2021-10-08 15:37:50*
%MOMM*%
%LPD*%
G01*
G04 APERTURE LIST*
%TA.AperFunction,ComponentPad*%
%ADD10R,1.700000X1.700000*%
%TD*%
%TA.AperFunction,ComponentPad*%
%ADD11O,1.700000X1.700000*%
%TD*%
%TA.AperFunction,ComponentPad*%
%ADD12R,1.600000X1.600000*%
%TD*%
%TA.AperFunction,ComponentPad*%
%ADD13C,1.600000*%
%TD*%
%TA.AperFunction,ViaPad*%
%ADD14C,0.800000*%
%TD*%
%TA.AperFunction,Conductor*%
%ADD15C,0.250000*%
%TD*%
G04 APERTURE END LIST*
D10*
%TO.N,/3v3*%
%TO.C,J1*%
X163000000Y-86570000D03*
D11*
%TO.N,/5v*%
X165540000Y-86570000D03*
%TO.N,/sda2*%
X163000000Y-89110000D03*
%TO.N,/5v*%
X165540000Y-89110000D03*
%TO.N,/scl2*%
X163000000Y-91650000D03*
%TO.N,/gnd*%
X165540000Y-91650000D03*
%TO.N,/gpio1*%
X163000000Y-94190000D03*
%TO.N,/uart_tx*%
X165540000Y-94190000D03*
%TO.N,/gnd*%
X163000000Y-96730000D03*
%TO.N,/uart_rx*%
X165540000Y-96730000D03*
%TO.N,/spi2_ce1*%
X163000000Y-99270000D03*
%TO.N,/spi2_ce0*%
X165540000Y-99270000D03*
%TO.N,/gpio11*%
X163000000Y-101810000D03*
%TO.N,/gnd*%
X165540000Y-101810000D03*
%TO.N,/gpio6*%
X163000000Y-104350000D03*
%TO.N,/gpio7*%
X165540000Y-104350000D03*
%TO.N,/3v3*%
X163000000Y-106890000D03*
%TO.N,/gpio8*%
X165540000Y-106890000D03*
%TO.N,/mosi*%
X163000000Y-109430000D03*
%TO.N,/gnd*%
X165540000Y-109430000D03*
%TD*%
D10*
%TO.N,/miso*%
%TO.C,J2*%
X239500000Y-84030000D03*
D11*
%TO.N,/gpio9*%
X242040000Y-84030000D03*
%TO.N,/sclk*%
X239500000Y-86570000D03*
%TO.N,/spi_ce0*%
X242040000Y-86570000D03*
%TO.N,/gnd*%
X239500000Y-89110000D03*
%TO.N,/spi_ce1*%
X242040000Y-89110000D03*
%TO.N,/sda*%
X239500000Y-91650000D03*
%TO.N,/scl*%
X242040000Y-91650000D03*
%TO.N,/analog_in*%
X239500000Y-94190000D03*
%TO.N,/gnd*%
X242040000Y-94190000D03*
%TO.N,/dig_in*%
X239500000Y-96730000D03*
%TO.N,/gpio4*%
X242040000Y-96730000D03*
%TO.N,/gpio5*%
X239500000Y-99270000D03*
%TO.N,/gnd*%
X242040000Y-99270000D03*
%TO.N,/miso2_pwm*%
X239500000Y-101810000D03*
%TO.N,/reset*%
X242040000Y-101810000D03*
%TO.N,/gpio10*%
X239500000Y-104350000D03*
%TO.N,/miso2*%
X242040000Y-104350000D03*
%TO.N,/gnd*%
X239500000Y-106890000D03*
%TO.N,/sclk2*%
X242040000Y-106890000D03*
%TO.N,Net-(J2-Pad21)*%
X239500000Y-109430000D03*
%TO.N,/reset*%
X242040000Y-109430000D03*
%TO.N,/vcc*%
X239500000Y-111970000D03*
X242040000Y-111970000D03*
%TD*%
D10*
%TO.N,/vcc*%
%TO.C,J3*%
X211000000Y-122000000D03*
D11*
%TO.N,/gnd*%
X213540000Y-122000000D03*
%TO.N,/vcc*%
X216080000Y-122000000D03*
%TO.N,/gnd*%
X218620000Y-122000000D03*
%TD*%
D10*
%TO.N,/3v3*%
%TO.C,J4*%
X168370000Y-74770000D03*
D11*
%TO.N,/5v*%
X168370000Y-72230000D03*
%TO.N,/sda2*%
X170910000Y-74770000D03*
%TO.N,/5v*%
X170910000Y-72230000D03*
%TO.N,/scl2*%
X173450000Y-74770000D03*
%TO.N,/gnd*%
X173450000Y-72230000D03*
%TO.N,/gpio1*%
X175990000Y-74770000D03*
%TO.N,/uart_tx*%
X175990000Y-72230000D03*
%TO.N,/gnd*%
X178530000Y-74770000D03*
%TO.N,/uart_rx*%
X178530000Y-72230000D03*
%TO.N,/spi2_ce1*%
X181070000Y-74770000D03*
%TO.N,/spi2_ce0*%
X181070000Y-72230000D03*
%TO.N,/gpio11*%
X183610000Y-74770000D03*
%TO.N,/gnd*%
X183610000Y-72230000D03*
%TO.N,/gpio6*%
X186150000Y-74770000D03*
%TO.N,/gpio7*%
X186150000Y-72230000D03*
%TO.N,/3v3*%
X188690000Y-74770000D03*
%TO.N,/gpio8*%
X188690000Y-72230000D03*
%TO.N,/mosi*%
X191230000Y-74770000D03*
%TO.N,/gnd*%
X191230000Y-72230000D03*
%TO.N,/miso*%
X193770000Y-74770000D03*
%TO.N,/gpio9*%
X193770000Y-72230000D03*
%TO.N,/sclk*%
X196310000Y-74770000D03*
%TO.N,/spi_ce0*%
X196310000Y-72230000D03*
%TO.N,/gnd*%
X198850000Y-74770000D03*
%TO.N,/spi_ce1*%
X198850000Y-72230000D03*
%TO.N,/sda*%
X201390000Y-74770000D03*
%TO.N,/scl*%
X201390000Y-72230000D03*
%TO.N,/analog_in*%
X203930000Y-74770000D03*
%TO.N,/gnd*%
X203930000Y-72230000D03*
%TO.N,/dig_in*%
X206470000Y-74770000D03*
%TO.N,/gpio4*%
X206470000Y-72230000D03*
%TO.N,/gpio5*%
X209010000Y-74770000D03*
%TO.N,/gnd*%
X209010000Y-72230000D03*
%TO.N,/miso2_pwm*%
X211550000Y-74770000D03*
%TO.N,/reset*%
X211550000Y-72230000D03*
%TO.N,/gpio10*%
X214090000Y-74770000D03*
%TO.N,/miso2*%
X214090000Y-72230000D03*
%TO.N,/gnd*%
X216630000Y-74770000D03*
%TO.N,/sclk2*%
X216630000Y-72230000D03*
%TD*%
D10*
%TO.N,/5v*%
%TO.C,J5*%
X187000000Y-109000000D03*
D11*
%TO.N,/dig_in*%
X189540000Y-109000000D03*
%TO.N,/gnd*%
X192080000Y-109000000D03*
%TD*%
D10*
%TO.N,/5v*%
%TO.C,J6*%
X187000000Y-122000000D03*
D11*
%TO.N,/dig_in*%
X189540000Y-122000000D03*
%TO.N,/gnd*%
X192080000Y-122000000D03*
%TO.N,/5v*%
X194620000Y-122000000D03*
%TO.N,/analog_in*%
X197160000Y-122000000D03*
%TO.N,/gnd*%
X199700000Y-122000000D03*
%TO.N,/brakes*%
X202240000Y-122000000D03*
%TD*%
D12*
%TO.N,/gnd*%
%TO.C,U1*%
X225140000Y-77510000D03*
D13*
%TO.N,/gpio6*%
X227680000Y-77510000D03*
%TO.N,/gpio5*%
X230220000Y-77510000D03*
%TO.N,/gpio7*%
X232760000Y-77510000D03*
%TO.N,/gpio8*%
X235300000Y-77510000D03*
%TO.N,/gnd*%
X235300000Y-72430000D03*
%TO.N,/gpio4*%
X232760000Y-72430000D03*
%TO.N,/gpio9*%
X230220000Y-72430000D03*
%TO.N,/gpio10*%
X227680000Y-72430000D03*
%TO.N,/gpio11*%
X225140000Y-72430000D03*
%TD*%
D14*
%TO.N,/vcc*%
X211230000Y-102002800D03*
%TO.N,/gnd*%
X232780000Y-123520000D03*
X228600000Y-101470000D03*
X228000000Y-96150000D03*
X214820000Y-95990000D03*
X175000000Y-102520000D03*
X185010000Y-102550000D03*
%TO.N,/5v*%
X180000000Y-97753600D03*
%TO.N,Net-(D1-Pad2)*%
X235937500Y-124824600D03*
X196732300Y-100518200D03*
%TO.N,/sclk*%
X233248300Y-91646400D03*
%TO.N,/brakes*%
X197233900Y-108558900D03*
%TD*%
D15*
%TO.N,/5v*%
X165540000Y-89110000D02*
X165540000Y-86570000D01*
X170910000Y-72230000D02*
X169734700Y-72230000D01*
X168370000Y-72799800D02*
X169164900Y-72799800D01*
X169164900Y-72799800D02*
X169734700Y-72230000D01*
X168370000Y-72230000D02*
X168370000Y-72799800D01*
X168139300Y-72799800D02*
X168370000Y-72799800D01*
X166755010Y-74184090D02*
X168139300Y-72799800D01*
X166005010Y-75624626D02*
X166755010Y-74874626D01*
X166005010Y-75634626D02*
X166005010Y-75624626D01*
X166755010Y-74874626D02*
X166755010Y-74184090D01*
X165860000Y-75779636D02*
X166005010Y-75634626D01*
X165860000Y-86250000D02*
X165860000Y-75779636D01*
X165540000Y-86570000D02*
X165860000Y-86250000D01*
%TO.N,/3v3*%
X168370000Y-74770000D02*
X169545300Y-74770000D01*
X188690000Y-74770000D02*
X187514700Y-74770000D01*
X187514700Y-74770000D02*
X187514700Y-74402700D01*
X187514700Y-74402700D02*
X186706700Y-73594700D01*
X186706700Y-73594700D02*
X170353200Y-73594700D01*
X170353200Y-73594700D02*
X169545300Y-74402600D01*
X169545300Y-74402600D02*
X169545300Y-74770000D01*
X163000000Y-106890000D02*
X163000000Y-105714700D01*
X163000000Y-86570000D02*
X163000000Y-87745300D01*
X163000000Y-87745300D02*
X162632700Y-87745300D01*
X162632700Y-87745300D02*
X161824700Y-88553300D01*
X161824700Y-88553300D02*
X161824700Y-104906800D01*
X161824700Y-104906800D02*
X162632600Y-105714700D01*
X162632600Y-105714700D02*
X163000000Y-105714700D01*
%TO.N,/gpio1*%
X163000000Y-94190000D02*
X163000000Y-93014700D01*
X163000000Y-93014700D02*
X163367400Y-93014700D01*
X163367400Y-93014700D02*
X164175300Y-92206800D01*
X164175300Y-92206800D02*
X164175300Y-91313700D01*
X164175300Y-91313700D02*
X165109000Y-90380000D01*
X165109000Y-90380000D02*
X166012700Y-90380000D01*
X166012700Y-90380000D02*
X175990000Y-80402700D01*
X175990000Y-80402700D02*
X175990000Y-74770000D01*
%TO.N,/spi2_ce1*%
X163000000Y-99270000D02*
X164175300Y-99270000D01*
X181070000Y-74770000D02*
X181070000Y-82905100D01*
X181070000Y-82905100D02*
X165880400Y-98094700D01*
X165880400Y-98094700D02*
X164983200Y-98094700D01*
X164983200Y-98094700D02*
X164175300Y-98902600D01*
X164175300Y-98902600D02*
X164175300Y-99270000D01*
%TO.N,/gpio6*%
X163000000Y-104350000D02*
X164175300Y-104350000D01*
X186150000Y-74770000D02*
X186150000Y-82906600D01*
X186150000Y-82906600D02*
X165881900Y-103174700D01*
X165881900Y-103174700D02*
X164983200Y-103174700D01*
X164983200Y-103174700D02*
X164175300Y-103982600D01*
X164175300Y-103982600D02*
X164175300Y-104350000D01*
%TO.N,/mosi*%
X163000000Y-109430000D02*
X164175300Y-109430000D01*
X191230000Y-74770000D02*
X191230000Y-82920300D01*
X191230000Y-82920300D02*
X165895600Y-108254700D01*
X165895600Y-108254700D02*
X164983200Y-108254700D01*
X164983200Y-108254700D02*
X164175300Y-109062600D01*
X164175300Y-109062600D02*
X164175300Y-109430000D01*
%TO.N,/miso*%
X240675300Y-84030000D02*
X240675300Y-84397400D01*
X240675300Y-84397400D02*
X241483200Y-85205300D01*
X241483200Y-85205300D02*
X242337600Y-85205300D01*
X242337600Y-85205300D02*
X243665800Y-86533500D01*
X243665800Y-86533500D02*
X243665800Y-94226500D01*
X243665800Y-94226500D02*
X242473600Y-95418700D01*
X242473600Y-95418700D02*
X228294600Y-95418700D01*
X228294600Y-95418700D02*
X225890800Y-93014900D01*
X225890800Y-93014900D02*
X212822900Y-93014900D01*
X212822900Y-93014900D02*
X194945300Y-75137300D01*
X194945300Y-75137300D02*
X194945300Y-74770000D01*
X239500000Y-84030000D02*
X240675300Y-84030000D01*
X193770000Y-74770000D02*
X194945300Y-74770000D01*
%TO.N,/gpio9*%
X193770000Y-72230000D02*
X194945300Y-72230000D01*
X230220000Y-72430000D02*
X228378600Y-70588600D01*
X228378600Y-70588600D02*
X196219400Y-70588600D01*
X196219400Y-70588600D02*
X194945300Y-71862700D01*
X194945300Y-71862700D02*
X194945300Y-72230000D01*
%TO.N,/sclk*%
X197485300Y-74770000D02*
X197485300Y-75137300D01*
X197485300Y-75137300D02*
X213994400Y-91646400D01*
X213994400Y-91646400D02*
X233248300Y-91646400D01*
X196310000Y-74770000D02*
X197485300Y-74770000D01*
%TO.N,/spi_ce1*%
X242040000Y-89110000D02*
X242040000Y-87934700D01*
X198850000Y-72230000D02*
X200025300Y-72230000D01*
X200025300Y-72230000D02*
X200025300Y-71862700D01*
X200025300Y-71862700D02*
X200846300Y-71041700D01*
X200846300Y-71041700D02*
X204465900Y-71041700D01*
X204465900Y-71041700D02*
X205105300Y-71681100D01*
X205105300Y-71681100D02*
X205105300Y-72529600D01*
X205105300Y-72529600D02*
X206170300Y-73594600D01*
X206170300Y-73594600D02*
X206995600Y-73594600D01*
X206995600Y-73594600D02*
X207740000Y-74339000D01*
X207740000Y-74339000D02*
X207740000Y-75177700D01*
X207740000Y-75177700D02*
X217862300Y-85300000D01*
X217862300Y-85300000D02*
X239930300Y-85300000D01*
X239930300Y-85300000D02*
X240864700Y-86234400D01*
X240864700Y-86234400D02*
X240864700Y-87126800D01*
X240864700Y-87126800D02*
X241672600Y-87934700D01*
X241672600Y-87934700D02*
X242040000Y-87934700D01*
%TO.N,/sda*%
X238324700Y-91650000D02*
X237595800Y-90921100D01*
X237595800Y-90921100D02*
X217541100Y-90921100D01*
X217541100Y-90921100D02*
X201390000Y-74770000D01*
X239500000Y-91650000D02*
X238324700Y-91650000D01*
%TO.N,/scl*%
X240864700Y-91650000D02*
X240864700Y-91282600D01*
X240864700Y-91282600D02*
X240019600Y-90437500D01*
X240019600Y-90437500D02*
X217926300Y-90437500D01*
X217926300Y-90437500D02*
X202565300Y-75076500D01*
X202565300Y-75076500D02*
X202565300Y-74213200D01*
X202565300Y-74213200D02*
X201757400Y-73405300D01*
X201757400Y-73405300D02*
X201390000Y-73405300D01*
X242040000Y-91650000D02*
X240864700Y-91650000D01*
X201390000Y-72230000D02*
X201390000Y-73405300D01*
%TO.N,/analog_in*%
X239500000Y-94190000D02*
X240675300Y-94190000D01*
X203930000Y-74770000D02*
X205105300Y-74770000D01*
X205105300Y-74770000D02*
X205105300Y-75137300D01*
X205105300Y-75137300D02*
X217808000Y-87840000D01*
X217808000Y-87840000D02*
X239894800Y-87840000D01*
X239894800Y-87840000D02*
X240699400Y-88644600D01*
X240699400Y-88644600D02*
X240699400Y-89485200D01*
X240699400Y-89485200D02*
X241670300Y-90456100D01*
X241670300Y-90456100D02*
X242539400Y-90456100D01*
X242539400Y-90456100D02*
X243215300Y-91132000D01*
X243215300Y-91132000D02*
X243215300Y-92183900D01*
X243215300Y-92183900D02*
X242384500Y-93014700D01*
X242384500Y-93014700D02*
X241483200Y-93014700D01*
X241483200Y-93014700D02*
X240675300Y-93822600D01*
X240675300Y-93822600D02*
X240675300Y-94190000D01*
%TO.N,/dig_in*%
X238324700Y-96730000D02*
X227230000Y-107824700D01*
X227230000Y-107824700D02*
X191523200Y-107824700D01*
X191523200Y-107824700D02*
X190715300Y-108632600D01*
X190715300Y-108632600D02*
X190715300Y-109000000D01*
X239500000Y-96730000D02*
X238324700Y-96730000D01*
X189540000Y-109000000D02*
X190715300Y-109000000D01*
%TO.N,/gpio4*%
X206470000Y-72230000D02*
X207645300Y-72230000D01*
X232760000Y-72430000D02*
X231593300Y-73596700D01*
X231593300Y-73596700D02*
X229711900Y-73596700D01*
X229711900Y-73596700D02*
X228950000Y-72834800D01*
X228950000Y-72834800D02*
X228950000Y-72062900D01*
X228950000Y-72062900D02*
X227941800Y-71054700D01*
X227941800Y-71054700D02*
X208453200Y-71054700D01*
X208453200Y-71054700D02*
X207645300Y-71862600D01*
X207645300Y-71862600D02*
X207645300Y-72230000D01*
%TO.N,/gpio5*%
X209010000Y-74770000D02*
X210185300Y-74770000D01*
X230220000Y-77510000D02*
X228655300Y-75945300D01*
X228655300Y-75945300D02*
X210993200Y-75945300D01*
X210993200Y-75945300D02*
X210185300Y-75137400D01*
X210185300Y-75137400D02*
X210185300Y-74770000D01*
%TO.N,/reset*%
X242040000Y-101810000D02*
X242040000Y-102985300D01*
X242040000Y-109430000D02*
X242040000Y-108254700D01*
X242040000Y-108254700D02*
X242407300Y-108254700D01*
X242407300Y-108254700D02*
X243215300Y-107446700D01*
X243215300Y-107446700D02*
X243215300Y-103793200D01*
X243215300Y-103793200D02*
X242407400Y-102985300D01*
X242407400Y-102985300D02*
X242040000Y-102985300D01*
%TO.N,/gpio10*%
X227680000Y-72430000D02*
X230425400Y-75175400D01*
X230425400Y-75175400D02*
X234915900Y-75175400D01*
X234915900Y-75175400D02*
X244129700Y-84389200D01*
X244129700Y-84389200D02*
X244129700Y-96311900D01*
X244129700Y-96311900D02*
X242347000Y-98094600D01*
X242347000Y-98094600D02*
X241459900Y-98094600D01*
X241459900Y-98094600D02*
X240675300Y-98879200D01*
X240675300Y-98879200D02*
X240675300Y-102366800D01*
X240675300Y-102366800D02*
X239867400Y-103174700D01*
X239867400Y-103174700D02*
X239500000Y-103174700D01*
X239500000Y-104350000D02*
X239500000Y-103174700D01*
X227680000Y-72430000D02*
X226515300Y-73594700D01*
X226515300Y-73594700D02*
X216073200Y-73594700D01*
X216073200Y-73594700D02*
X215265300Y-74402600D01*
X215265300Y-74402600D02*
X215265300Y-74770000D01*
X214090000Y-74770000D02*
X215265300Y-74770000D01*
%TD*%
M02*
