%TF.GenerationSoftware,KiCad,Pcbnew,(5.1.9)-1*%
%TF.CreationDate,2022-04-01T16:36:08-04:00*%
%TF.ProjectId,Baja_Pi_Expansion,42616a61-5f50-4695-9f45-7870616e7369,rev?*%
%TF.SameCoordinates,Original*%
%TF.FileFunction,Copper,L1,Top*%
%TF.FilePolarity,Positive*%
%FSLAX46Y46*%
G04 Gerber Fmt 4.6, Leading zero omitted, Abs format (unit mm)*
G04 Created by KiCad (PCBNEW (5.1.9)-1) date 2022-04-01 16:36:08*
%MOMM*%
%LPD*%
G01*
G04 APERTURE LIST*
%TA.AperFunction,ComponentPad*%
%ADD10R,1.700000X1.700000*%
%TD*%
%TA.AperFunction,ComponentPad*%
%ADD11O,1.700000X1.700000*%
%TD*%
%TA.AperFunction,ComponentPad*%
%ADD12C,2.000000*%
%TD*%
%TA.AperFunction,SMDPad,CuDef*%
%ADD13R,2.997200X0.990600*%
%TD*%
%TA.AperFunction,SMDPad,CuDef*%
%ADD14R,8.712200X10.337800*%
%TD*%
%TA.AperFunction,ViaPad*%
%ADD15C,0.800000*%
%TD*%
%TA.AperFunction,Conductor*%
%ADD16C,0.250000*%
%TD*%
%TA.AperFunction,Conductor*%
%ADD17C,0.254000*%
%TD*%
%TA.AperFunction,Conductor*%
%ADD18C,0.100000*%
%TD*%
G04 APERTURE END LIST*
D10*
%TO.P,J1,1*%
%TO.N,/3v3*%
X163000000Y-86570000D03*
D11*
%TO.P,J1,2*%
%TO.N,/5v*%
X165540000Y-86570000D03*
%TO.P,J1,3*%
%TO.N,/sda2*%
X163000000Y-89110000D03*
%TO.P,J1,4*%
%TO.N,/5v*%
X165540000Y-89110000D03*
%TO.P,J1,5*%
%TO.N,/scl2*%
X163000000Y-91650000D03*
%TO.P,J1,6*%
%TO.N,/gnd*%
X165540000Y-91650000D03*
%TO.P,J1,7*%
%TO.N,/gpio1*%
X163000000Y-94190000D03*
%TO.P,J1,8*%
%TO.N,/uart_tx*%
X165540000Y-94190000D03*
%TO.P,J1,9*%
%TO.N,/gnd*%
X163000000Y-96730000D03*
%TO.P,J1,10*%
%TO.N,/uart_rx*%
X165540000Y-96730000D03*
%TO.P,J1,11*%
%TO.N,/spi2_ce1*%
X163000000Y-99270000D03*
%TO.P,J1,12*%
%TO.N,/spi2_ce0*%
X165540000Y-99270000D03*
%TO.P,J1,13*%
%TO.N,/gpio11*%
X163000000Y-101810000D03*
%TO.P,J1,14*%
%TO.N,/gnd*%
X165540000Y-101810000D03*
%TO.P,J1,15*%
%TO.N,/gpio6*%
X163000000Y-104350000D03*
%TO.P,J1,16*%
%TO.N,/gpio7*%
X165540000Y-104350000D03*
%TO.P,J1,17*%
%TO.N,/3v3*%
X163000000Y-106890000D03*
%TO.P,J1,18*%
%TO.N,/gpio8*%
X165540000Y-106890000D03*
%TO.P,J1,19*%
%TO.N,/mosi*%
X163000000Y-109430000D03*
%TO.P,J1,20*%
%TO.N,/gnd*%
X165540000Y-109430000D03*
%TD*%
D10*
%TO.P,J2,1*%
%TO.N,/miso*%
X239500000Y-84030000D03*
D11*
%TO.P,J2,2*%
%TO.N,/gpio9*%
X242040000Y-84030000D03*
%TO.P,J2,3*%
%TO.N,/sclk*%
X239500000Y-86570000D03*
%TO.P,J2,4*%
%TO.N,/spi_ce0*%
X242040000Y-86570000D03*
%TO.P,J2,5*%
%TO.N,/gnd*%
X239500000Y-89110000D03*
%TO.P,J2,6*%
%TO.N,/spi_ce1*%
X242040000Y-89110000D03*
%TO.P,J2,7*%
%TO.N,/sda*%
X239500000Y-91650000D03*
%TO.P,J2,8*%
%TO.N,/scl*%
X242040000Y-91650000D03*
%TO.P,J2,9*%
%TO.N,/gpio2*%
X239500000Y-94190000D03*
%TO.P,J2,10*%
%TO.N,/gnd*%
X242040000Y-94190000D03*
%TO.P,J2,11*%
%TO.N,/gpio3*%
X239500000Y-96730000D03*
%TO.P,J2,12*%
%TO.N,/gpio4*%
X242040000Y-96730000D03*
%TO.P,J2,13*%
%TO.N,/gpio5*%
X239500000Y-99270000D03*
%TO.P,J2,14*%
%TO.N,/gnd*%
X242040000Y-99270000D03*
%TO.P,J2,15*%
%TO.N,/miso2_pwm*%
X239500000Y-101810000D03*
%TO.P,J2,16*%
%TO.N,/reset*%
X242040000Y-101810000D03*
%TO.P,J2,17*%
%TO.N,/gpio10*%
X239500000Y-104350000D03*
%TO.P,J2,18*%
%TO.N,/miso2*%
X242040000Y-104350000D03*
%TO.P,J2,19*%
%TO.N,/gnd*%
X239500000Y-106890000D03*
%TO.P,J2,20*%
%TO.N,/sclk2*%
X242040000Y-106890000D03*
%TO.P,J2,21*%
%TO.N,Net-(J2-Pad21)*%
X239500000Y-109430000D03*
%TO.P,J2,22*%
%TO.N,/reset*%
X242040000Y-109430000D03*
%TO.P,J2,23*%
%TO.N,/vcc*%
X239500000Y-111970000D03*
%TO.P,J2,24*%
X242040000Y-111970000D03*
%TD*%
D10*
%TO.P,J4,1*%
%TO.N,/3v3*%
X168370000Y-74770000D03*
D11*
%TO.P,J4,2*%
%TO.N,/5v*%
X168370000Y-72230000D03*
%TO.P,J4,3*%
%TO.N,/sda2*%
X170910000Y-74770000D03*
%TO.P,J4,4*%
%TO.N,/5v*%
X170910000Y-72230000D03*
%TO.P,J4,5*%
%TO.N,/scl2*%
X173450000Y-74770000D03*
%TO.P,J4,6*%
%TO.N,/gnd*%
X173450000Y-72230000D03*
%TO.P,J4,7*%
%TO.N,/gpio1*%
X175990000Y-74770000D03*
%TO.P,J4,8*%
%TO.N,/uart_tx*%
X175990000Y-72230000D03*
%TO.P,J4,9*%
%TO.N,/gnd*%
X178530000Y-74770000D03*
%TO.P,J4,10*%
%TO.N,/uart_rx*%
X178530000Y-72230000D03*
%TO.P,J4,11*%
%TO.N,/spi2_ce1*%
X181070000Y-74770000D03*
%TO.P,J4,12*%
%TO.N,/spi2_ce0*%
X181070000Y-72230000D03*
%TO.P,J4,13*%
%TO.N,/gpio11*%
X183610000Y-74770000D03*
%TO.P,J4,14*%
%TO.N,/gnd*%
X183610000Y-72230000D03*
%TO.P,J4,15*%
%TO.N,/gpio6*%
X186150000Y-74770000D03*
%TO.P,J4,16*%
%TO.N,/gpio7*%
X186150000Y-72230000D03*
%TO.P,J4,17*%
%TO.N,/3v3*%
X188690000Y-74770000D03*
%TO.P,J4,18*%
%TO.N,/gpio8*%
X188690000Y-72230000D03*
%TO.P,J4,19*%
%TO.N,/mosi*%
X191230000Y-74770000D03*
%TO.P,J4,20*%
%TO.N,/gnd*%
X191230000Y-72230000D03*
%TO.P,J4,21*%
%TO.N,/miso*%
X193770000Y-74770000D03*
%TO.P,J4,22*%
%TO.N,/gpio9*%
X193770000Y-72230000D03*
%TO.P,J4,23*%
%TO.N,/sclk*%
X196310000Y-74770000D03*
%TO.P,J4,24*%
%TO.N,/spi_ce0*%
X196310000Y-72230000D03*
%TO.P,J4,25*%
%TO.N,/gnd*%
X198850000Y-74770000D03*
%TO.P,J4,26*%
%TO.N,/spi_ce1*%
X198850000Y-72230000D03*
%TO.P,J4,27*%
%TO.N,/sda*%
X201390000Y-74770000D03*
%TO.P,J4,28*%
%TO.N,/scl*%
X201390000Y-72230000D03*
%TO.P,J4,29*%
%TO.N,/gpio2*%
X203930000Y-74770000D03*
%TO.P,J4,30*%
%TO.N,/gnd*%
X203930000Y-72230000D03*
%TO.P,J4,31*%
%TO.N,/gpio3*%
X206470000Y-74770000D03*
%TO.P,J4,32*%
%TO.N,/gpio4*%
X206470000Y-72230000D03*
%TO.P,J4,33*%
%TO.N,/gpio5*%
X209010000Y-74770000D03*
%TO.P,J4,34*%
%TO.N,/gnd*%
X209010000Y-72230000D03*
%TO.P,J4,35*%
%TO.N,/miso2_pwm*%
X211550000Y-74770000D03*
%TO.P,J4,36*%
%TO.N,/reset*%
X211550000Y-72230000D03*
%TO.P,J4,37*%
%TO.N,/gpio10*%
X214090000Y-74770000D03*
%TO.P,J4,38*%
%TO.N,/miso2*%
X214090000Y-72230000D03*
%TO.P,J4,39*%
%TO.N,/gnd*%
X216630000Y-74770000D03*
%TO.P,J4,40*%
%TO.N,/sclk2*%
X216630000Y-72230000D03*
%TD*%
%TO.P,R1,1*%
%TO.N,/5v*%
%TA.AperFunction,SMDPad,CuDef*%
G36*
G01*
X177142000Y-87350000D02*
X177142000Y-86800000D01*
G75*
G02*
X177342000Y-86600000I200000J0D01*
G01*
X177742000Y-86600000D01*
G75*
G02*
X177942000Y-86800000I0J-200000D01*
G01*
X177942000Y-87350000D01*
G75*
G02*
X177742000Y-87550000I-200000J0D01*
G01*
X177342000Y-87550000D01*
G75*
G02*
X177142000Y-87350000I0J200000D01*
G01*
G37*
%TD.AperFunction*%
%TO.P,R1,2*%
%TO.N,/sda2*%
%TA.AperFunction,SMDPad,CuDef*%
G36*
G01*
X178792000Y-87350000D02*
X178792000Y-86800000D01*
G75*
G02*
X178992000Y-86600000I200000J0D01*
G01*
X179392000Y-86600000D01*
G75*
G02*
X179592000Y-86800000I0J-200000D01*
G01*
X179592000Y-87350000D01*
G75*
G02*
X179392000Y-87550000I-200000J0D01*
G01*
X178992000Y-87550000D01*
G75*
G02*
X178792000Y-87350000I0J200000D01*
G01*
G37*
%TD.AperFunction*%
%TD*%
%TO.P,R2,2*%
%TO.N,/5v*%
%TA.AperFunction,SMDPad,CuDef*%
G36*
G01*
X178797000Y-92096000D02*
X178797000Y-91546000D01*
G75*
G02*
X178997000Y-91346000I200000J0D01*
G01*
X179397000Y-91346000D01*
G75*
G02*
X179597000Y-91546000I0J-200000D01*
G01*
X179597000Y-92096000D01*
G75*
G02*
X179397000Y-92296000I-200000J0D01*
G01*
X178997000Y-92296000D01*
G75*
G02*
X178797000Y-92096000I0J200000D01*
G01*
G37*
%TD.AperFunction*%
%TO.P,R2,1*%
%TO.N,/scl2*%
%TA.AperFunction,SMDPad,CuDef*%
G36*
G01*
X177147000Y-92096000D02*
X177147000Y-91546000D01*
G75*
G02*
X177347000Y-91346000I200000J0D01*
G01*
X177747000Y-91346000D01*
G75*
G02*
X177947000Y-91546000I0J-200000D01*
G01*
X177947000Y-92096000D01*
G75*
G02*
X177747000Y-92296000I-200000J0D01*
G01*
X177347000Y-92296000D01*
G75*
G02*
X177147000Y-92096000I0J200000D01*
G01*
G37*
%TD.AperFunction*%
%TD*%
%TO.P,R5,1*%
%TO.N,/vcc*%
%TA.AperFunction,SMDPad,CuDef*%
G36*
G01*
X185275000Y-89683000D02*
X185275000Y-89133000D01*
G75*
G02*
X185475000Y-88933000I200000J0D01*
G01*
X185875000Y-88933000D01*
G75*
G02*
X186075000Y-89133000I0J-200000D01*
G01*
X186075000Y-89683000D01*
G75*
G02*
X185875000Y-89883000I-200000J0D01*
G01*
X185475000Y-89883000D01*
G75*
G02*
X185275000Y-89683000I0J200000D01*
G01*
G37*
%TD.AperFunction*%
%TO.P,R5,2*%
%TO.N,Net-(D1-Pad2)*%
%TA.AperFunction,SMDPad,CuDef*%
G36*
G01*
X186925000Y-89683000D02*
X186925000Y-89133000D01*
G75*
G02*
X187125000Y-88933000I200000J0D01*
G01*
X187525000Y-88933000D01*
G75*
G02*
X187725000Y-89133000I0J-200000D01*
G01*
X187725000Y-89683000D01*
G75*
G02*
X187525000Y-89883000I-200000J0D01*
G01*
X187125000Y-89883000D01*
G75*
G02*
X186925000Y-89683000I0J200000D01*
G01*
G37*
%TD.AperFunction*%
%TD*%
D12*
%TO.P,J3,4*%
%TO.N,/gnd*%
X191646000Y-120717000D03*
%TO.P,J3,3*%
%TO.N,/vcc*%
X188146000Y-120717000D03*
%TO.P,J3,2*%
%TO.N,/gnd*%
X184646000Y-120717000D03*
%TO.P,J3,1*%
%TO.N,/vcc*%
X181146000Y-120717000D03*
%TD*%
%TO.P,J5,1*%
%TO.N,/vcc*%
X198766000Y-120717000D03*
%TO.P,J5,2*%
%TO.N,/gnd*%
X202266000Y-120717000D03*
%TO.P,J5,3*%
%TO.N,/vcc*%
X205766000Y-120717000D03*
%TO.P,J5,4*%
%TO.N,/gnd*%
X209266000Y-120717000D03*
%TD*%
%TO.P,D1,1*%
%TO.N,/gnd*%
%TA.AperFunction,SMDPad,CuDef*%
G36*
G01*
X232730000Y-123879000D02*
X232730000Y-122629000D01*
G75*
G02*
X232980000Y-122379000I250000J0D01*
G01*
X233730000Y-122379000D01*
G75*
G02*
X233980000Y-122629000I0J-250000D01*
G01*
X233980000Y-123879000D01*
G75*
G02*
X233730000Y-124129000I-250000J0D01*
G01*
X232980000Y-124129000D01*
G75*
G02*
X232730000Y-123879000I0J250000D01*
G01*
G37*
%TD.AperFunction*%
%TO.P,D1,2*%
%TO.N,Net-(D1-Pad2)*%
%TA.AperFunction,SMDPad,CuDef*%
G36*
G01*
X235530000Y-123879000D02*
X235530000Y-122629000D01*
G75*
G02*
X235780000Y-122379000I250000J0D01*
G01*
X236530000Y-122379000D01*
G75*
G02*
X236780000Y-122629000I0J-250000D01*
G01*
X236780000Y-123879000D01*
G75*
G02*
X236530000Y-124129000I-250000J0D01*
G01*
X235780000Y-124129000D01*
G75*
G02*
X235530000Y-123879000I0J250000D01*
G01*
G37*
%TD.AperFunction*%
%TD*%
%TO.P,C1,2*%
%TO.N,/gnd*%
%TA.AperFunction,SMDPad,CuDef*%
G36*
G01*
X234513000Y-100961000D02*
X234513000Y-100461000D01*
G75*
G02*
X234738000Y-100236000I225000J0D01*
G01*
X235188000Y-100236000D01*
G75*
G02*
X235413000Y-100461000I0J-225000D01*
G01*
X235413000Y-100961000D01*
G75*
G02*
X235188000Y-101186000I-225000J0D01*
G01*
X234738000Y-101186000D01*
G75*
G02*
X234513000Y-100961000I0J225000D01*
G01*
G37*
%TD.AperFunction*%
%TO.P,C1,1*%
%TO.N,Net-(C1-Pad1)*%
%TA.AperFunction,SMDPad,CuDef*%
G36*
G01*
X232963000Y-100961000D02*
X232963000Y-100461000D01*
G75*
G02*
X233188000Y-100236000I225000J0D01*
G01*
X233638000Y-100236000D01*
G75*
G02*
X233863000Y-100461000I0J-225000D01*
G01*
X233863000Y-100961000D01*
G75*
G02*
X233638000Y-101186000I-225000J0D01*
G01*
X233188000Y-101186000D01*
G75*
G02*
X232963000Y-100961000I0J225000D01*
G01*
G37*
%TD.AperFunction*%
%TD*%
%TO.P,C2,1*%
%TO.N,/5v*%
%TA.AperFunction,SMDPad,CuDef*%
G36*
G01*
X232773000Y-95881000D02*
X232773000Y-95381000D01*
G75*
G02*
X232998000Y-95156000I225000J0D01*
G01*
X233448000Y-95156000D01*
G75*
G02*
X233673000Y-95381000I0J-225000D01*
G01*
X233673000Y-95881000D01*
G75*
G02*
X233448000Y-96106000I-225000J0D01*
G01*
X232998000Y-96106000D01*
G75*
G02*
X232773000Y-95881000I0J225000D01*
G01*
G37*
%TD.AperFunction*%
%TO.P,C2,2*%
%TO.N,/gnd*%
%TA.AperFunction,SMDPad,CuDef*%
G36*
G01*
X234323000Y-95881000D02*
X234323000Y-95381000D01*
G75*
G02*
X234548000Y-95156000I225000J0D01*
G01*
X234998000Y-95156000D01*
G75*
G02*
X235223000Y-95381000I0J-225000D01*
G01*
X235223000Y-95881000D01*
G75*
G02*
X234998000Y-96106000I-225000J0D01*
G01*
X234548000Y-96106000D01*
G75*
G02*
X234323000Y-95881000I0J225000D01*
G01*
G37*
%TD.AperFunction*%
%TD*%
D13*
%TO.P,CR1,1*%
%TO.N,Net-(C1-Pad1)*%
X226885000Y-100584000D03*
%TO.P,CR1,2*%
%TO.N,/gnd*%
X226885000Y-95504000D03*
D14*
%TO.P,CR1,3*%
%TO.N,/5v*%
X215874100Y-98044000D03*
%TD*%
D11*
%TO.P,J6,4*%
%TO.N,Net-(J6-Pad4)*%
X173355000Y-120777000D03*
%TO.P,J6,3*%
%TO.N,/vcc*%
X173355000Y-123317000D03*
%TO.P,J6,2*%
%TO.N,Net-(J6-Pad2)*%
X170815000Y-120777000D03*
D10*
%TO.P,J6,1*%
%TO.N,/vcc*%
X170815000Y-123317000D03*
%TD*%
%TO.P,J7,1*%
%TO.N,Net-(J6-Pad2)*%
X222770000Y-79640000D03*
D11*
%TO.P,J7,2*%
%TO.N,/gnd*%
X220230000Y-79640000D03*
%TO.P,J7,3*%
%TO.N,Net-(J6-Pad4)*%
X222770000Y-82180000D03*
%TO.P,J7,4*%
%TO.N,/gnd*%
X220230000Y-82180000D03*
%TD*%
D15*
%TO.N,/spi2_ce1*%
X169995700Y-94768300D03*
%TO.N,/gpio6*%
X170993200Y-98823500D03*
%TO.N,/spi_ce0*%
X201805500Y-76553600D03*
%TO.N,/sda*%
X229259000Y-84627700D03*
%TO.N,/scl*%
X214858700Y-86503000D03*
%TO.N,/gpio4*%
X218420000Y-86848000D03*
%TO.N,/gpio5*%
X225383300Y-83183300D03*
%TO.N,/miso2_pwm*%
X224809700Y-80139800D03*
%TO.N,/sclk2*%
X218067800Y-75994600D03*
%TO.N,/gpio2*%
X215846800Y-87395100D03*
%TO.N,/gpio3*%
X216655200Y-88489800D03*
%TD*%
D16*
%TO.N,/vcc*%
X188146000Y-120717000D02*
X185675000Y-118246000D01*
X185675000Y-118246000D02*
X185675000Y-89408000D01*
X198766000Y-120717000D02*
X197440600Y-122042400D01*
X197440600Y-122042400D02*
X189471400Y-122042400D01*
X189471400Y-122042400D02*
X188146000Y-120717000D01*
X198766000Y-120717000D02*
X200134800Y-119348200D01*
X200134800Y-119348200D02*
X204397200Y-119348200D01*
X204397200Y-119348200D02*
X205766000Y-120717000D01*
X181146000Y-120717000D02*
X182471400Y-122042400D01*
X182471400Y-122042400D02*
X186820600Y-122042400D01*
X186820600Y-122042400D02*
X188146000Y-120717000D01*
X170815000Y-123317000D02*
X173355000Y-123317000D01*
X242040000Y-111970000D02*
X239500000Y-111970000D01*
%TO.N,/5v*%
X215874100Y-98044000D02*
X211192700Y-98044000D01*
X179197000Y-90099900D02*
X177542000Y-88444900D01*
X179197000Y-91821000D02*
X179197000Y-90099900D01*
X211192700Y-98044000D02*
X201732500Y-88583800D01*
X201732500Y-88583800D02*
X180713100Y-88583800D01*
X180713100Y-88583800D02*
X179197000Y-90099900D01*
X233223000Y-95631000D02*
X230810000Y-98044000D01*
X230810000Y-98044000D02*
X215874100Y-98044000D01*
X170910000Y-72230000D02*
X168370000Y-72230000D01*
X177542000Y-88444900D02*
X167380400Y-88444900D01*
X167380400Y-88444900D02*
X166715300Y-89110000D01*
X177542000Y-88444900D02*
X177542000Y-87075000D01*
X165540000Y-89110000D02*
X166715300Y-89110000D01*
%TO.N,Net-(D1-Pad2)*%
X236155000Y-123254000D02*
X222180600Y-109279600D01*
X222180600Y-109279600D02*
X207196600Y-109279600D01*
X207196600Y-109279600D02*
X187325000Y-89408000D01*
%TO.N,/3v3*%
X168370000Y-74770000D02*
X169545300Y-74770000D01*
X188690000Y-74770000D02*
X187514700Y-74770000D01*
X187514700Y-74770000D02*
X187514700Y-74402700D01*
X187514700Y-74402700D02*
X186706700Y-73594700D01*
X186706700Y-73594700D02*
X170353200Y-73594700D01*
X170353200Y-73594700D02*
X169545300Y-74402600D01*
X169545300Y-74402600D02*
X169545300Y-74770000D01*
%TO.N,/sda2*%
X163000000Y-89110000D02*
X164175300Y-89110000D01*
X179192000Y-87075000D02*
X178382700Y-86265700D01*
X178382700Y-86265700D02*
X169779300Y-86265700D01*
X169779300Y-86265700D02*
X168205000Y-87840000D01*
X168205000Y-87840000D02*
X165127300Y-87840000D01*
X165127300Y-87840000D02*
X164175300Y-88792000D01*
X164175300Y-88792000D02*
X164175300Y-89110000D01*
%TO.N,/scl2*%
X163000000Y-91650000D02*
X164175300Y-91650000D01*
X177547000Y-91821000D02*
X176542700Y-92825300D01*
X176542700Y-92825300D02*
X164983200Y-92825300D01*
X164983200Y-92825300D02*
X164175300Y-92017400D01*
X164175300Y-92017400D02*
X164175300Y-91650000D01*
%TO.N,/gpio1*%
X163000000Y-94190000D02*
X163000000Y-93014700D01*
X175990000Y-74770000D02*
X174814700Y-74770000D01*
X174814700Y-74770000D02*
X174814700Y-75626300D01*
X174814700Y-75626300D02*
X164364600Y-86076400D01*
X164364600Y-86076400D02*
X164364600Y-87407400D01*
X164364600Y-87407400D02*
X164026600Y-87745400D01*
X164026600Y-87745400D02*
X162650300Y-87745400D01*
X162650300Y-87745400D02*
X161824700Y-88571000D01*
X161824700Y-88571000D02*
X161824700Y-92206800D01*
X161824700Y-92206800D02*
X162632600Y-93014700D01*
X162632600Y-93014700D02*
X163000000Y-93014700D01*
%TO.N,/spi2_ce1*%
X163000000Y-99270000D02*
X164175300Y-99270000D01*
X169995700Y-94768300D02*
X166669300Y-98094700D01*
X166669300Y-98094700D02*
X164983200Y-98094700D01*
X164983200Y-98094700D02*
X164175300Y-98902600D01*
X164175300Y-98902600D02*
X164175300Y-99270000D01*
%TO.N,/gpio6*%
X163000000Y-104350000D02*
X164175300Y-104350000D01*
X170993200Y-98823500D02*
X166642000Y-103174700D01*
X166642000Y-103174700D02*
X164983200Y-103174700D01*
X164983200Y-103174700D02*
X164175300Y-103982600D01*
X164175300Y-103982600D02*
X164175300Y-104350000D01*
%TO.N,/miso*%
X239500000Y-84030000D02*
X238324700Y-84030000D01*
X193770000Y-74770000D02*
X194945300Y-74770000D01*
X194945300Y-74770000D02*
X194945300Y-74402700D01*
X194945300Y-74402700D02*
X195753400Y-73594600D01*
X195753400Y-73594600D02*
X201915600Y-73594600D01*
X201915600Y-73594600D02*
X202660000Y-74339000D01*
X202660000Y-74339000D02*
X202660000Y-75164500D01*
X202660000Y-75164500D02*
X211460400Y-83964900D01*
X211460400Y-83964900D02*
X228584900Y-83964900D01*
X228584900Y-83964900D02*
X228672400Y-83877400D01*
X228672400Y-83877400D02*
X238172100Y-83877400D01*
X238172100Y-83877400D02*
X238324700Y-84030000D01*
%TO.N,/gpio9*%
X194945300Y-72230000D02*
X194945300Y-71862700D01*
X194945300Y-71862700D02*
X195804000Y-71004000D01*
X195804000Y-71004000D02*
X204378000Y-71004000D01*
X204378000Y-71004000D02*
X205294600Y-71920600D01*
X205294600Y-71920600D02*
X205294600Y-72809100D01*
X205294600Y-72809100D02*
X206080100Y-73594600D01*
X206080100Y-73594600D02*
X212075600Y-73594600D01*
X212075600Y-73594600D02*
X212820000Y-74339000D01*
X212820000Y-74339000D02*
X212820000Y-75175100D01*
X212820000Y-75175100D02*
X214870700Y-77225800D01*
X214870700Y-77225800D02*
X234868500Y-77225800D01*
X234868500Y-77225800D02*
X240864700Y-83222000D01*
X240864700Y-83222000D02*
X240864700Y-84030000D01*
X242040000Y-84030000D02*
X240864700Y-84030000D01*
X193770000Y-72230000D02*
X194945300Y-72230000D01*
%TO.N,/sclk*%
X238324700Y-86570000D02*
X237586400Y-85831700D01*
X237586400Y-85831700D02*
X219066400Y-85831700D01*
X219066400Y-85831700D02*
X218907100Y-85672400D01*
X218907100Y-85672400D02*
X208057100Y-85672400D01*
X208057100Y-85672400D02*
X197485300Y-75100600D01*
X197485300Y-75100600D02*
X197485300Y-74770000D01*
X239500000Y-86570000D02*
X238324700Y-86570000D01*
X196310000Y-74770000D02*
X197485300Y-74770000D01*
%TO.N,/spi_ce0*%
X240864700Y-86570000D02*
X240864700Y-86202600D01*
X240864700Y-86202600D02*
X240043500Y-85381400D01*
X240043500Y-85381400D02*
X219253000Y-85381400D01*
X219253000Y-85381400D02*
X219093700Y-85222100D01*
X219093700Y-85222100D02*
X210474000Y-85222100D01*
X210474000Y-85222100D02*
X201805500Y-76553600D01*
X242040000Y-86570000D02*
X240864700Y-86570000D01*
%TO.N,/sda*%
X229259000Y-84627700D02*
X211247700Y-84627700D01*
X211247700Y-84627700D02*
X201390000Y-74770000D01*
%TO.N,/scl*%
X240864700Y-91650000D02*
X240864700Y-91282600D01*
X240864700Y-91282600D02*
X240056800Y-90474700D01*
X240056800Y-90474700D02*
X237689500Y-90474700D01*
X237689500Y-90474700D02*
X233496800Y-86282000D01*
X233496800Y-86282000D02*
X218879800Y-86282000D01*
X218879800Y-86282000D02*
X218720500Y-86122700D01*
X218720500Y-86122700D02*
X215239000Y-86122700D01*
X215239000Y-86122700D02*
X214858700Y-86503000D01*
X242040000Y-91650000D02*
X240864700Y-91650000D01*
%TO.N,/gpio4*%
X242040000Y-95554700D02*
X241672600Y-95554700D01*
X241672600Y-95554700D02*
X240864700Y-94746800D01*
X240864700Y-94746800D02*
X240864700Y-93853700D01*
X240864700Y-93853700D02*
X240025600Y-93014600D01*
X240025600Y-93014600D02*
X238964400Y-93014600D01*
X238964400Y-93014600D02*
X232797800Y-86848000D01*
X232797800Y-86848000D02*
X218420000Y-86848000D01*
X242040000Y-96730000D02*
X242040000Y-95554700D01*
%TO.N,/gpio5*%
X210185300Y-74770000D02*
X210185300Y-75145700D01*
X210185300Y-75145700D02*
X218395000Y-83355400D01*
X218395000Y-83355400D02*
X225211200Y-83355400D01*
X225211200Y-83355400D02*
X225383300Y-83183300D01*
X209010000Y-74770000D02*
X210185300Y-74770000D01*
%TO.N,/miso2_pwm*%
X211550000Y-74770000D02*
X214456200Y-77676200D01*
X214456200Y-77676200D02*
X223045900Y-77676200D01*
X223045900Y-77676200D02*
X224809700Y-79440000D01*
X224809700Y-79440000D02*
X224809700Y-80139800D01*
%TO.N,/reset*%
X242040000Y-101810000D02*
X242040000Y-100634700D01*
X211550000Y-72230000D02*
X212725300Y-72230000D01*
X212725300Y-72230000D02*
X212725300Y-71862700D01*
X212725300Y-71862700D02*
X213579000Y-71009000D01*
X213579000Y-71009000D02*
X217085900Y-71009000D01*
X217085900Y-71009000D02*
X217805400Y-71728500D01*
X217805400Y-71728500D02*
X217805400Y-74354600D01*
X217805400Y-74354600D02*
X220226200Y-76775400D01*
X220226200Y-76775400D02*
X236450700Y-76775400D01*
X236450700Y-76775400D02*
X243215300Y-83540000D01*
X243215300Y-83540000D02*
X243215300Y-99826800D01*
X243215300Y-99826800D02*
X242407400Y-100634700D01*
X242407400Y-100634700D02*
X242040000Y-100634700D01*
X242040000Y-109430000D02*
X242040000Y-108254700D01*
X242040000Y-101810000D02*
X242040000Y-102985300D01*
X242040000Y-102985300D02*
X241672700Y-102985300D01*
X241672700Y-102985300D02*
X240864700Y-103793300D01*
X240864700Y-103793300D02*
X240864700Y-107446800D01*
X240864700Y-107446800D02*
X241672600Y-108254700D01*
X241672600Y-108254700D02*
X242040000Y-108254700D01*
%TO.N,/sclk2*%
X216630000Y-72230000D02*
X216630000Y-73405300D01*
X218067800Y-75994600D02*
X216150500Y-75994600D01*
X216150500Y-75994600D02*
X215454600Y-75298700D01*
X215454600Y-75298700D02*
X215454600Y-74213400D01*
X215454600Y-74213400D02*
X216262700Y-73405300D01*
X216262700Y-73405300D02*
X216630000Y-73405300D01*
%TO.N,/gpio2*%
X239500000Y-94190000D02*
X238324700Y-94190000D01*
X215846800Y-87395100D02*
X216200100Y-87748400D01*
X216200100Y-87748400D02*
X231883100Y-87748400D01*
X231883100Y-87748400D02*
X238324700Y-94190000D01*
%TO.N,/gpio3*%
X239500000Y-96730000D02*
X238324700Y-96730000D01*
X216655200Y-88489800D02*
X230084500Y-88489800D01*
X230084500Y-88489800D02*
X238324700Y-96730000D01*
%TO.N,Net-(C1-Pad1)*%
X226885000Y-100584000D02*
X228708900Y-100584000D01*
X228708900Y-100584000D02*
X228835900Y-100711000D01*
X228835900Y-100711000D02*
X233413000Y-100711000D01*
%TD*%
D17*
%TO.N,/gnd*%
X194680690Y-71052509D02*
X194473411Y-70914010D01*
X194203158Y-70802068D01*
X193916260Y-70745000D01*
X193623740Y-70745000D01*
X193336842Y-70802068D01*
X193066589Y-70914010D01*
X192823368Y-71076525D01*
X192616525Y-71283368D01*
X192494805Y-71465534D01*
X192425178Y-71348645D01*
X192230269Y-71132412D01*
X191996920Y-70958359D01*
X191734099Y-70833175D01*
X191586890Y-70788524D01*
X191357000Y-70909845D01*
X191357000Y-72103000D01*
X191377000Y-72103000D01*
X191377000Y-72357000D01*
X191357000Y-72357000D01*
X191357000Y-72377000D01*
X191103000Y-72377000D01*
X191103000Y-72357000D01*
X191083000Y-72357000D01*
X191083000Y-72103000D01*
X191103000Y-72103000D01*
X191103000Y-70909845D01*
X190873110Y-70788524D01*
X190725901Y-70833175D01*
X190463080Y-70958359D01*
X190229731Y-71132412D01*
X190034822Y-71348645D01*
X189965195Y-71465534D01*
X189843475Y-71283368D01*
X189636632Y-71076525D01*
X189393411Y-70914010D01*
X189123158Y-70802068D01*
X188836260Y-70745000D01*
X188543740Y-70745000D01*
X188256842Y-70802068D01*
X187986589Y-70914010D01*
X187743368Y-71076525D01*
X187536525Y-71283368D01*
X187420000Y-71457760D01*
X187303475Y-71283368D01*
X187096632Y-71076525D01*
X186853411Y-70914010D01*
X186583158Y-70802068D01*
X186296260Y-70745000D01*
X186003740Y-70745000D01*
X185716842Y-70802068D01*
X185446589Y-70914010D01*
X185203368Y-71076525D01*
X184996525Y-71283368D01*
X184874805Y-71465534D01*
X184805178Y-71348645D01*
X184610269Y-71132412D01*
X184376920Y-70958359D01*
X184114099Y-70833175D01*
X183966890Y-70788524D01*
X183737000Y-70909845D01*
X183737000Y-72103000D01*
X183757000Y-72103000D01*
X183757000Y-72357000D01*
X183737000Y-72357000D01*
X183737000Y-72377000D01*
X183483000Y-72377000D01*
X183483000Y-72357000D01*
X183463000Y-72357000D01*
X183463000Y-72103000D01*
X183483000Y-72103000D01*
X183483000Y-70909845D01*
X183253110Y-70788524D01*
X183105901Y-70833175D01*
X182843080Y-70958359D01*
X182609731Y-71132412D01*
X182414822Y-71348645D01*
X182345195Y-71465534D01*
X182223475Y-71283368D01*
X182016632Y-71076525D01*
X181773411Y-70914010D01*
X181503158Y-70802068D01*
X181216260Y-70745000D01*
X180923740Y-70745000D01*
X180636842Y-70802068D01*
X180366589Y-70914010D01*
X180123368Y-71076525D01*
X179916525Y-71283368D01*
X179800000Y-71457760D01*
X179683475Y-71283368D01*
X179476632Y-71076525D01*
X179233411Y-70914010D01*
X178963158Y-70802068D01*
X178676260Y-70745000D01*
X178383740Y-70745000D01*
X178096842Y-70802068D01*
X177826589Y-70914010D01*
X177583368Y-71076525D01*
X177376525Y-71283368D01*
X177260000Y-71457760D01*
X177143475Y-71283368D01*
X176936632Y-71076525D01*
X176693411Y-70914010D01*
X176423158Y-70802068D01*
X176136260Y-70745000D01*
X175843740Y-70745000D01*
X175556842Y-70802068D01*
X175286589Y-70914010D01*
X175043368Y-71076525D01*
X174836525Y-71283368D01*
X174714805Y-71465534D01*
X174645178Y-71348645D01*
X174450269Y-71132412D01*
X174216920Y-70958359D01*
X173954099Y-70833175D01*
X173806890Y-70788524D01*
X173577000Y-70909845D01*
X173577000Y-72103000D01*
X173597000Y-72103000D01*
X173597000Y-72357000D01*
X173577000Y-72357000D01*
X173577000Y-72377000D01*
X173323000Y-72377000D01*
X173323000Y-72357000D01*
X173303000Y-72357000D01*
X173303000Y-72103000D01*
X173323000Y-72103000D01*
X173323000Y-70909845D01*
X173093110Y-70788524D01*
X172945901Y-70833175D01*
X172683080Y-70958359D01*
X172449731Y-71132412D01*
X172254822Y-71348645D01*
X172185195Y-71465534D01*
X172063475Y-71283368D01*
X171856632Y-71076525D01*
X171613411Y-70914010D01*
X171343158Y-70802068D01*
X171056260Y-70745000D01*
X170763740Y-70745000D01*
X170476842Y-70802068D01*
X170206589Y-70914010D01*
X169963368Y-71076525D01*
X169756525Y-71283368D01*
X169640000Y-71457760D01*
X169523475Y-71283368D01*
X169316632Y-71076525D01*
X169073411Y-70914010D01*
X168803158Y-70802068D01*
X168516260Y-70745000D01*
X168223740Y-70745000D01*
X167936842Y-70802068D01*
X167666589Y-70914010D01*
X167423368Y-71076525D01*
X167216525Y-71283368D01*
X167054010Y-71526589D01*
X166942068Y-71796842D01*
X166885000Y-72083740D01*
X166885000Y-72376260D01*
X166942068Y-72663158D01*
X167054010Y-72933411D01*
X167216525Y-73176632D01*
X167348380Y-73308487D01*
X167275820Y-73330498D01*
X167165506Y-73389463D01*
X167068815Y-73468815D01*
X166989463Y-73565506D01*
X166930498Y-73675820D01*
X166894188Y-73795518D01*
X166881928Y-73920000D01*
X166881928Y-75620000D01*
X166894188Y-75744482D01*
X166930498Y-75864180D01*
X166989463Y-75974494D01*
X167068815Y-76071185D01*
X167165506Y-76150537D01*
X167275820Y-76209502D01*
X167395518Y-76245812D01*
X167520000Y-76258072D01*
X169220000Y-76258072D01*
X169344482Y-76245812D01*
X169464180Y-76209502D01*
X169574494Y-76150537D01*
X169671185Y-76071185D01*
X169750537Y-75974494D01*
X169809502Y-75864180D01*
X169831513Y-75791620D01*
X169963368Y-75923475D01*
X170206589Y-76085990D01*
X170476842Y-76197932D01*
X170763740Y-76255000D01*
X171056260Y-76255000D01*
X171343158Y-76197932D01*
X171613411Y-76085990D01*
X171856632Y-75923475D01*
X172063475Y-75716632D01*
X172180000Y-75542240D01*
X172296525Y-75716632D01*
X172503368Y-75923475D01*
X172746589Y-76085990D01*
X173016842Y-76197932D01*
X173143143Y-76223055D01*
X164186405Y-85179794D01*
X164094180Y-85130498D01*
X163974482Y-85094188D01*
X163850000Y-85081928D01*
X162150000Y-85081928D01*
X162025518Y-85094188D01*
X161905820Y-85130498D01*
X161795506Y-85189463D01*
X161698815Y-85268815D01*
X161619463Y-85365506D01*
X161560498Y-85475820D01*
X161524188Y-85595518D01*
X161511928Y-85720000D01*
X161511928Y-87420000D01*
X161524188Y-87544482D01*
X161560498Y-87664180D01*
X161594015Y-87726884D01*
X161313702Y-88007197D01*
X161284699Y-88030999D01*
X161239189Y-88086454D01*
X161189726Y-88146724D01*
X161167716Y-88187902D01*
X161119154Y-88278754D01*
X161075697Y-88422015D01*
X161064700Y-88533668D01*
X161064700Y-88533678D01*
X161061024Y-88571000D01*
X161064700Y-88608323D01*
X161064701Y-92169468D01*
X161061024Y-92206800D01*
X161064701Y-92244133D01*
X161064814Y-92245275D01*
X161075698Y-92355785D01*
X161119154Y-92499046D01*
X161189726Y-92631076D01*
X161250395Y-92705000D01*
X161284700Y-92746801D01*
X161313698Y-92770599D01*
X161822469Y-93279371D01*
X161684010Y-93486589D01*
X161572068Y-93756842D01*
X161515000Y-94043740D01*
X161515000Y-94336260D01*
X161572068Y-94623158D01*
X161684010Y-94893411D01*
X161846525Y-95136632D01*
X162053368Y-95343475D01*
X162235534Y-95465195D01*
X162118645Y-95534822D01*
X161902412Y-95729731D01*
X161728359Y-95963080D01*
X161603175Y-96225901D01*
X161558524Y-96373110D01*
X161679845Y-96603000D01*
X162873000Y-96603000D01*
X162873000Y-96583000D01*
X163127000Y-96583000D01*
X163127000Y-96603000D01*
X163147000Y-96603000D01*
X163147000Y-96857000D01*
X163127000Y-96857000D01*
X163127000Y-96877000D01*
X162873000Y-96877000D01*
X162873000Y-96857000D01*
X161679845Y-96857000D01*
X161558524Y-97086890D01*
X161603175Y-97234099D01*
X161728359Y-97496920D01*
X161902412Y-97730269D01*
X162118645Y-97925178D01*
X162235534Y-97994805D01*
X162053368Y-98116525D01*
X161846525Y-98323368D01*
X161684010Y-98566589D01*
X161572068Y-98836842D01*
X161515000Y-99123740D01*
X161515000Y-99416260D01*
X161572068Y-99703158D01*
X161684010Y-99973411D01*
X161846525Y-100216632D01*
X162053368Y-100423475D01*
X162227760Y-100540000D01*
X162053368Y-100656525D01*
X161846525Y-100863368D01*
X161684010Y-101106589D01*
X161572068Y-101376842D01*
X161515000Y-101663740D01*
X161515000Y-101956260D01*
X161572068Y-102243158D01*
X161684010Y-102513411D01*
X161846525Y-102756632D01*
X162053368Y-102963475D01*
X162227760Y-103080000D01*
X162053368Y-103196525D01*
X161846525Y-103403368D01*
X161684010Y-103646589D01*
X161572068Y-103916842D01*
X161515000Y-104203740D01*
X161515000Y-104496260D01*
X161572068Y-104783158D01*
X161684010Y-105053411D01*
X161846525Y-105296632D01*
X162053368Y-105503475D01*
X162227760Y-105620000D01*
X162053368Y-105736525D01*
X161846525Y-105943368D01*
X161684010Y-106186589D01*
X161572068Y-106456842D01*
X161515000Y-106743740D01*
X161515000Y-107036260D01*
X161572068Y-107323158D01*
X161684010Y-107593411D01*
X161846525Y-107836632D01*
X162053368Y-108043475D01*
X162227760Y-108160000D01*
X162053368Y-108276525D01*
X161846525Y-108483368D01*
X161684010Y-108726589D01*
X161572068Y-108996842D01*
X161515000Y-109283740D01*
X161515000Y-109576260D01*
X161572068Y-109863158D01*
X161684010Y-110133411D01*
X161846525Y-110376632D01*
X162053368Y-110583475D01*
X162296589Y-110745990D01*
X162566842Y-110857932D01*
X162853740Y-110915000D01*
X163146260Y-110915000D01*
X163433158Y-110857932D01*
X163703411Y-110745990D01*
X163946632Y-110583475D01*
X164153475Y-110376632D01*
X164271100Y-110200594D01*
X164442412Y-110430269D01*
X164658645Y-110625178D01*
X164908748Y-110774157D01*
X165183109Y-110871481D01*
X165413000Y-110750814D01*
X165413000Y-109557000D01*
X165667000Y-109557000D01*
X165667000Y-110750814D01*
X165896891Y-110871481D01*
X166171252Y-110774157D01*
X166421355Y-110625178D01*
X166637588Y-110430269D01*
X166811641Y-110196920D01*
X166936825Y-109934099D01*
X166981476Y-109786890D01*
X166860155Y-109557000D01*
X165667000Y-109557000D01*
X165413000Y-109557000D01*
X165393000Y-109557000D01*
X165393000Y-109303000D01*
X165413000Y-109303000D01*
X165413000Y-109283000D01*
X165667000Y-109283000D01*
X165667000Y-109303000D01*
X166860155Y-109303000D01*
X166981476Y-109073110D01*
X166936825Y-108925901D01*
X166811641Y-108663080D01*
X166637588Y-108429731D01*
X166421355Y-108234822D01*
X166304466Y-108165195D01*
X166486632Y-108043475D01*
X166693475Y-107836632D01*
X166855990Y-107593411D01*
X166967932Y-107323158D01*
X167025000Y-107036260D01*
X167025000Y-106743740D01*
X166967932Y-106456842D01*
X166855990Y-106186589D01*
X166693475Y-105943368D01*
X166486632Y-105736525D01*
X166312240Y-105620000D01*
X166486632Y-105503475D01*
X166693475Y-105296632D01*
X166855990Y-105053411D01*
X166967932Y-104783158D01*
X167025000Y-104496260D01*
X167025000Y-104203740D01*
X166967932Y-103916842D01*
X166949415Y-103872138D01*
X167066276Y-103809674D01*
X167182001Y-103714701D01*
X167205804Y-103685697D01*
X171033002Y-99858500D01*
X171095139Y-99858500D01*
X171295098Y-99818726D01*
X171483456Y-99740705D01*
X171652974Y-99627437D01*
X171797137Y-99483274D01*
X171910405Y-99313756D01*
X171988426Y-99125398D01*
X172028200Y-98925439D01*
X172028200Y-98721561D01*
X171988426Y-98521602D01*
X171910405Y-98333244D01*
X171797137Y-98163726D01*
X171652974Y-98019563D01*
X171483456Y-97906295D01*
X171295098Y-97828274D01*
X171095139Y-97788500D01*
X170891261Y-97788500D01*
X170691302Y-97828274D01*
X170502944Y-97906295D01*
X170333426Y-98019563D01*
X170189263Y-98163726D01*
X170075995Y-98333244D01*
X169997974Y-98521602D01*
X169958200Y-98721561D01*
X169958200Y-98783698D01*
X167025000Y-101716899D01*
X167025000Y-101682998D01*
X166860156Y-101682998D01*
X166981476Y-101453110D01*
X166936825Y-101305901D01*
X166811641Y-101043080D01*
X166637588Y-100809731D01*
X166421355Y-100614822D01*
X166304466Y-100545195D01*
X166486632Y-100423475D01*
X166693475Y-100216632D01*
X166855990Y-99973411D01*
X166967932Y-99703158D01*
X167025000Y-99416260D01*
X167025000Y-99123740D01*
X166967932Y-98836842D01*
X166953753Y-98802610D01*
X166961547Y-98800246D01*
X167093576Y-98729674D01*
X167209301Y-98634701D01*
X167233104Y-98605697D01*
X170035502Y-95803300D01*
X170097639Y-95803300D01*
X170297598Y-95763526D01*
X170485956Y-95685505D01*
X170655474Y-95572237D01*
X170799637Y-95428074D01*
X170912905Y-95258556D01*
X170990926Y-95070198D01*
X171030700Y-94870239D01*
X171030700Y-94666361D01*
X170990926Y-94466402D01*
X170912905Y-94278044D01*
X170799637Y-94108526D01*
X170655474Y-93964363D01*
X170485956Y-93851095D01*
X170297598Y-93773074D01*
X170097639Y-93733300D01*
X169893761Y-93733300D01*
X169693802Y-93773074D01*
X169505444Y-93851095D01*
X169335926Y-93964363D01*
X169191763Y-94108526D01*
X169078495Y-94278044D01*
X169000474Y-94466402D01*
X168960700Y-94666361D01*
X168960700Y-94728498D01*
X167025000Y-96664199D01*
X167025000Y-96583740D01*
X166967932Y-96296842D01*
X166855990Y-96026589D01*
X166693475Y-95783368D01*
X166486632Y-95576525D01*
X166312240Y-95460000D01*
X166486632Y-95343475D01*
X166693475Y-95136632D01*
X166855990Y-94893411D01*
X166967932Y-94623158D01*
X167025000Y-94336260D01*
X167025000Y-94043740D01*
X166967932Y-93756842D01*
X166896877Y-93585300D01*
X176505378Y-93585300D01*
X176542700Y-93588976D01*
X176580022Y-93585300D01*
X176580033Y-93585300D01*
X176691686Y-93574303D01*
X176834947Y-93530846D01*
X176966976Y-93460274D01*
X177082701Y-93365301D01*
X177106504Y-93336298D01*
X177508729Y-92934072D01*
X177747000Y-92934072D01*
X177910500Y-92917969D01*
X178067716Y-92870278D01*
X178212608Y-92792831D01*
X178339606Y-92688606D01*
X178372000Y-92649134D01*
X178404394Y-92688606D01*
X178531392Y-92792831D01*
X178676284Y-92870278D01*
X178833500Y-92917969D01*
X178997000Y-92934072D01*
X179397000Y-92934072D01*
X179560500Y-92917969D01*
X179717716Y-92870278D01*
X179862608Y-92792831D01*
X179989606Y-92688606D01*
X180093831Y-92561608D01*
X180171278Y-92416716D01*
X180218969Y-92259500D01*
X180235072Y-92096000D01*
X180235072Y-91546000D01*
X180218969Y-91382500D01*
X180171278Y-91225284D01*
X180093831Y-91080392D01*
X179989606Y-90953394D01*
X179957000Y-90926635D01*
X179957000Y-90414701D01*
X181027902Y-89343800D01*
X184636928Y-89343800D01*
X184636928Y-89683000D01*
X184653031Y-89846500D01*
X184700722Y-90003716D01*
X184778169Y-90148608D01*
X184882394Y-90275606D01*
X184915001Y-90302366D01*
X184915000Y-118208678D01*
X184911324Y-118246000D01*
X184915000Y-118283322D01*
X184915000Y-118283332D01*
X184925997Y-118394985D01*
X184969454Y-118538246D01*
X185040026Y-118670276D01*
X185075275Y-118713226D01*
X185134999Y-118786001D01*
X185164003Y-118809804D01*
X186579823Y-120225625D01*
X186573832Y-120240088D01*
X186511000Y-120555967D01*
X186511000Y-120878033D01*
X186573832Y-121193912D01*
X186579823Y-121208376D01*
X186505799Y-121282400D01*
X186188023Y-121282400D01*
X186268384Y-120975892D01*
X186287718Y-120654405D01*
X186243961Y-120335325D01*
X186138795Y-120030912D01*
X186045814Y-119856956D01*
X185781413Y-119761192D01*
X184825605Y-120717000D01*
X184839748Y-120731143D01*
X184660143Y-120910748D01*
X184646000Y-120896605D01*
X184631858Y-120910748D01*
X184452253Y-120731143D01*
X184466395Y-120717000D01*
X183510587Y-119761192D01*
X183246186Y-119856956D01*
X183105296Y-120146571D01*
X183023616Y-120458108D01*
X183004282Y-120779595D01*
X183048039Y-121098675D01*
X183111511Y-121282400D01*
X182786202Y-121282400D01*
X182712177Y-121208375D01*
X182718168Y-121193912D01*
X182781000Y-120878033D01*
X182781000Y-120555967D01*
X182718168Y-120240088D01*
X182594918Y-119942537D01*
X182415987Y-119674748D01*
X182322826Y-119581587D01*
X183690192Y-119581587D01*
X184646000Y-120537395D01*
X185601808Y-119581587D01*
X185506044Y-119317186D01*
X185216429Y-119176296D01*
X184904892Y-119094616D01*
X184583405Y-119075282D01*
X184264325Y-119119039D01*
X183959912Y-119224205D01*
X183785956Y-119317186D01*
X183690192Y-119581587D01*
X182322826Y-119581587D01*
X182188252Y-119447013D01*
X181920463Y-119268082D01*
X181622912Y-119144832D01*
X181307033Y-119082000D01*
X180984967Y-119082000D01*
X180669088Y-119144832D01*
X180371537Y-119268082D01*
X180103748Y-119447013D01*
X179876013Y-119674748D01*
X179697082Y-119942537D01*
X179573832Y-120240088D01*
X179511000Y-120555967D01*
X179511000Y-120878033D01*
X179573832Y-121193912D01*
X179697082Y-121491463D01*
X179876013Y-121759252D01*
X180103748Y-121986987D01*
X180371537Y-122165918D01*
X180669088Y-122289168D01*
X180984967Y-122352000D01*
X181307033Y-122352000D01*
X181622912Y-122289168D01*
X181637375Y-122283177D01*
X181907601Y-122553403D01*
X181931399Y-122582401D01*
X182047124Y-122677374D01*
X182179153Y-122747946D01*
X182322414Y-122791403D01*
X182434067Y-122802400D01*
X182434075Y-122802400D01*
X182471400Y-122806076D01*
X182508725Y-122802400D01*
X186783278Y-122802400D01*
X186820600Y-122806076D01*
X186857922Y-122802400D01*
X186857933Y-122802400D01*
X186969586Y-122791403D01*
X187112847Y-122747946D01*
X187244876Y-122677374D01*
X187360601Y-122582401D01*
X187384404Y-122553397D01*
X187654624Y-122283177D01*
X187669088Y-122289168D01*
X187984967Y-122352000D01*
X188307033Y-122352000D01*
X188622912Y-122289168D01*
X188637375Y-122283177D01*
X188907601Y-122553403D01*
X188931399Y-122582401D01*
X189047124Y-122677374D01*
X189179153Y-122747946D01*
X189322414Y-122791403D01*
X189434067Y-122802400D01*
X189434075Y-122802400D01*
X189471400Y-122806076D01*
X189508725Y-122802400D01*
X197403278Y-122802400D01*
X197440600Y-122806076D01*
X197477922Y-122802400D01*
X197477933Y-122802400D01*
X197589586Y-122791403D01*
X197732847Y-122747946D01*
X197864876Y-122677374D01*
X197980601Y-122582401D01*
X198004404Y-122553397D01*
X198274624Y-122283177D01*
X198289088Y-122289168D01*
X198604967Y-122352000D01*
X198927033Y-122352000D01*
X199242912Y-122289168D01*
X199540463Y-122165918D01*
X199808252Y-121986987D01*
X199942826Y-121852413D01*
X201310192Y-121852413D01*
X201405956Y-122116814D01*
X201695571Y-122257704D01*
X202007108Y-122339384D01*
X202328595Y-122358718D01*
X202647675Y-122314961D01*
X202952088Y-122209795D01*
X203126044Y-122116814D01*
X203221808Y-121852413D01*
X202266000Y-120896605D01*
X201310192Y-121852413D01*
X199942826Y-121852413D01*
X200035987Y-121759252D01*
X200214918Y-121491463D01*
X200338168Y-121193912D01*
X200401000Y-120878033D01*
X200401000Y-120555967D01*
X200338168Y-120240088D01*
X200332177Y-120225625D01*
X200449602Y-120108200D01*
X200743962Y-120108200D01*
X200725296Y-120146571D01*
X200643616Y-120458108D01*
X200624282Y-120779595D01*
X200668039Y-121098675D01*
X200773205Y-121403088D01*
X200866186Y-121577044D01*
X201130587Y-121672808D01*
X202086395Y-120717000D01*
X202072253Y-120702858D01*
X202251858Y-120523253D01*
X202266000Y-120537395D01*
X202280143Y-120523253D01*
X202459748Y-120702858D01*
X202445605Y-120717000D01*
X203401413Y-121672808D01*
X203665814Y-121577044D01*
X203806704Y-121287429D01*
X203888384Y-120975892D01*
X203907718Y-120654405D01*
X203863961Y-120335325D01*
X203785496Y-120108200D01*
X204082399Y-120108200D01*
X204199823Y-120225624D01*
X204193832Y-120240088D01*
X204131000Y-120555967D01*
X204131000Y-120878033D01*
X204193832Y-121193912D01*
X204317082Y-121491463D01*
X204496013Y-121759252D01*
X204723748Y-121986987D01*
X204991537Y-122165918D01*
X205289088Y-122289168D01*
X205604967Y-122352000D01*
X205927033Y-122352000D01*
X206242912Y-122289168D01*
X206540463Y-122165918D01*
X206808252Y-121986987D01*
X206942826Y-121852413D01*
X208310192Y-121852413D01*
X208405956Y-122116814D01*
X208695571Y-122257704D01*
X209007108Y-122339384D01*
X209328595Y-122358718D01*
X209647675Y-122314961D01*
X209952088Y-122209795D01*
X210126044Y-122116814D01*
X210221808Y-121852413D01*
X209266000Y-120896605D01*
X208310192Y-121852413D01*
X206942826Y-121852413D01*
X207035987Y-121759252D01*
X207214918Y-121491463D01*
X207338168Y-121193912D01*
X207401000Y-120878033D01*
X207401000Y-120779595D01*
X207624282Y-120779595D01*
X207668039Y-121098675D01*
X207773205Y-121403088D01*
X207866186Y-121577044D01*
X208130587Y-121672808D01*
X209086395Y-120717000D01*
X209445605Y-120717000D01*
X210401413Y-121672808D01*
X210665814Y-121577044D01*
X210806704Y-121287429D01*
X210888384Y-120975892D01*
X210907718Y-120654405D01*
X210863961Y-120335325D01*
X210758795Y-120030912D01*
X210665814Y-119856956D01*
X210401413Y-119761192D01*
X209445605Y-120717000D01*
X209086395Y-120717000D01*
X208130587Y-119761192D01*
X207866186Y-119856956D01*
X207725296Y-120146571D01*
X207643616Y-120458108D01*
X207624282Y-120779595D01*
X207401000Y-120779595D01*
X207401000Y-120555967D01*
X207338168Y-120240088D01*
X207214918Y-119942537D01*
X207035987Y-119674748D01*
X206942826Y-119581587D01*
X208310192Y-119581587D01*
X209266000Y-120537395D01*
X210221808Y-119581587D01*
X210126044Y-119317186D01*
X209836429Y-119176296D01*
X209524892Y-119094616D01*
X209203405Y-119075282D01*
X208884325Y-119119039D01*
X208579912Y-119224205D01*
X208405956Y-119317186D01*
X208310192Y-119581587D01*
X206942826Y-119581587D01*
X206808252Y-119447013D01*
X206540463Y-119268082D01*
X206242912Y-119144832D01*
X205927033Y-119082000D01*
X205604967Y-119082000D01*
X205289088Y-119144832D01*
X205274624Y-119150823D01*
X204961004Y-118837203D01*
X204937201Y-118808199D01*
X204821476Y-118713226D01*
X204689447Y-118642654D01*
X204546186Y-118599197D01*
X204434533Y-118588200D01*
X204434522Y-118588200D01*
X204397200Y-118584524D01*
X204359878Y-118588200D01*
X200172133Y-118588200D01*
X200134800Y-118584523D01*
X200097467Y-118588200D01*
X199985814Y-118599197D01*
X199842553Y-118642654D01*
X199710524Y-118713226D01*
X199594799Y-118808199D01*
X199571001Y-118837197D01*
X199257375Y-119150823D01*
X199242912Y-119144832D01*
X198927033Y-119082000D01*
X198604967Y-119082000D01*
X198289088Y-119144832D01*
X197991537Y-119268082D01*
X197723748Y-119447013D01*
X197496013Y-119674748D01*
X197317082Y-119942537D01*
X197193832Y-120240088D01*
X197131000Y-120555967D01*
X197131000Y-120878033D01*
X197193832Y-121193912D01*
X197199823Y-121208376D01*
X197125799Y-121282400D01*
X193188023Y-121282400D01*
X193268384Y-120975892D01*
X193287718Y-120654405D01*
X193243961Y-120335325D01*
X193138795Y-120030912D01*
X193045814Y-119856956D01*
X192781413Y-119761192D01*
X191825605Y-120717000D01*
X191839748Y-120731143D01*
X191660143Y-120910748D01*
X191646000Y-120896605D01*
X191631858Y-120910748D01*
X191452253Y-120731143D01*
X191466395Y-120717000D01*
X190510587Y-119761192D01*
X190246186Y-119856956D01*
X190105296Y-120146571D01*
X190023616Y-120458108D01*
X190004282Y-120779595D01*
X190048039Y-121098675D01*
X190111511Y-121282400D01*
X189786202Y-121282400D01*
X189712177Y-121208375D01*
X189718168Y-121193912D01*
X189781000Y-120878033D01*
X189781000Y-120555967D01*
X189718168Y-120240088D01*
X189594918Y-119942537D01*
X189415987Y-119674748D01*
X189322826Y-119581587D01*
X190690192Y-119581587D01*
X191646000Y-120537395D01*
X192601808Y-119581587D01*
X192506044Y-119317186D01*
X192216429Y-119176296D01*
X191904892Y-119094616D01*
X191583405Y-119075282D01*
X191264325Y-119119039D01*
X190959912Y-119224205D01*
X190785956Y-119317186D01*
X190690192Y-119581587D01*
X189322826Y-119581587D01*
X189188252Y-119447013D01*
X188920463Y-119268082D01*
X188622912Y-119144832D01*
X188307033Y-119082000D01*
X187984967Y-119082000D01*
X187669088Y-119144832D01*
X187654625Y-119150823D01*
X186435000Y-117931199D01*
X186435000Y-90302365D01*
X186467606Y-90275606D01*
X186500000Y-90236134D01*
X186532394Y-90275606D01*
X186659392Y-90379831D01*
X186804284Y-90457278D01*
X186961500Y-90504969D01*
X187125000Y-90521072D01*
X187363271Y-90521072D01*
X206632800Y-109790602D01*
X206656599Y-109819601D01*
X206772324Y-109914574D01*
X206904353Y-109985146D01*
X207047614Y-110028603D01*
X207159267Y-110039600D01*
X207159276Y-110039600D01*
X207196599Y-110043276D01*
X207233922Y-110039600D01*
X221865799Y-110039600D01*
X233605474Y-121779276D01*
X233482000Y-121902750D01*
X233482000Y-123127000D01*
X234456250Y-123127000D01*
X234615000Y-122968250D01*
X234615931Y-122789733D01*
X234891928Y-123065730D01*
X234891928Y-123879000D01*
X234908992Y-124052254D01*
X234959528Y-124218850D01*
X235041595Y-124372386D01*
X235152038Y-124506962D01*
X235286614Y-124617405D01*
X235440150Y-124699472D01*
X235606746Y-124750008D01*
X235780000Y-124767072D01*
X236530000Y-124767072D01*
X236703254Y-124750008D01*
X236869850Y-124699472D01*
X237023386Y-124617405D01*
X237157962Y-124506962D01*
X237268405Y-124372386D01*
X237350472Y-124218850D01*
X237401008Y-124052254D01*
X237418072Y-123879000D01*
X237418072Y-122629000D01*
X237401008Y-122455746D01*
X237350472Y-122289150D01*
X237268405Y-122135614D01*
X237157962Y-122001038D01*
X237023386Y-121890595D01*
X236869850Y-121808528D01*
X236703254Y-121757992D01*
X236530000Y-121740928D01*
X235780000Y-121740928D01*
X235722403Y-121746601D01*
X222744404Y-108768603D01*
X222720601Y-108739599D01*
X222604876Y-108644626D01*
X222472847Y-108574054D01*
X222329586Y-108530597D01*
X222217933Y-108519600D01*
X222217922Y-108519600D01*
X222180600Y-108515924D01*
X222143278Y-108519600D01*
X207511402Y-108519600D01*
X196641802Y-97650000D01*
X199448000Y-97650000D01*
X199448000Y-98375000D01*
X199450466Y-98399907D01*
X199525466Y-98774907D01*
X199527886Y-98784890D01*
X199577886Y-98959890D01*
X199582083Y-98972167D01*
X199631575Y-99095897D01*
X199706086Y-99294593D01*
X199716098Y-99315341D01*
X199788593Y-99436166D01*
X199836408Y-99531796D01*
X199841098Y-99540341D01*
X199916098Y-99665341D01*
X199923400Y-99676200D01*
X199998400Y-99776200D01*
X200003050Y-99782035D01*
X200278050Y-100107035D01*
X200285197Y-100114803D01*
X200535197Y-100364803D01*
X200543697Y-100372564D01*
X200693697Y-100497564D01*
X200708440Y-100508161D01*
X201033440Y-100708161D01*
X201043204Y-100713592D01*
X201293204Y-100838592D01*
X201309839Y-100845483D01*
X201609839Y-100945483D01*
X201615110Y-100947114D01*
X201790110Y-100997114D01*
X201800093Y-100999534D01*
X202050093Y-101049534D01*
X202068325Y-101051824D01*
X202543325Y-101076824D01*
X202559740Y-101076626D01*
X202884740Y-101051626D01*
X202894311Y-101050523D01*
X203219311Y-101000523D01*
X203240161Y-100995483D01*
X203390161Y-100945483D01*
X203393401Y-100944354D01*
X203668401Y-100844354D01*
X203676580Y-100841054D01*
X203901580Y-100741054D01*
X203906796Y-100738592D01*
X204106796Y-100638592D01*
X204120447Y-100630670D01*
X204345447Y-100480670D01*
X204351200Y-100476600D01*
X204451200Y-100401600D01*
X204464803Y-100389803D01*
X204739803Y-100114803D01*
X204747564Y-100106303D01*
X204997564Y-99806303D01*
X205005670Y-99795447D01*
X205155670Y-99570447D01*
X205160267Y-99563010D01*
X205260267Y-99388010D01*
X205266731Y-99375028D01*
X205341731Y-99200028D01*
X205345483Y-99190161D01*
X205394739Y-99042393D01*
X205468914Y-98844593D01*
X205474181Y-98826610D01*
X205549181Y-98476610D01*
X205551223Y-98464025D01*
X205576223Y-98239025D01*
X205577000Y-98225000D01*
X205577000Y-97850000D01*
X205576370Y-97837363D01*
X205551370Y-97587363D01*
X205550272Y-97579121D01*
X205525272Y-97429121D01*
X205522525Y-97416584D01*
X205447525Y-97141584D01*
X205444601Y-97132285D01*
X205319601Y-96782285D01*
X205316731Y-96774972D01*
X205241731Y-96599972D01*
X205233902Y-96584659D01*
X205083902Y-96334659D01*
X205078344Y-96326183D01*
X204953344Y-96151183D01*
X204947564Y-96143697D01*
X204822564Y-95993697D01*
X204820577Y-95991370D01*
X204645577Y-95791370D01*
X204633630Y-95779423D01*
X204433630Y-95604423D01*
X204421715Y-95595186D01*
X203946715Y-95270186D01*
X203926580Y-95258946D01*
X203701580Y-95158946D01*
X203694593Y-95156086D01*
X203494593Y-95081086D01*
X203480802Y-95076792D01*
X203180802Y-95001792D01*
X203174907Y-95000466D01*
X202924907Y-94950466D01*
X202912637Y-94948630D01*
X202662637Y-94923630D01*
X202650000Y-94923000D01*
X202300000Y-94923000D01*
X202282039Y-94924276D01*
X201932039Y-94974276D01*
X201919198Y-94976792D01*
X201719198Y-95026792D01*
X201709839Y-95029517D01*
X201559839Y-95079517D01*
X201555407Y-95081086D01*
X201155407Y-95231086D01*
X201136990Y-95239733D01*
X200961990Y-95339733D01*
X200954553Y-95344330D01*
X200654553Y-95544330D01*
X200645664Y-95550830D01*
X200520664Y-95650830D01*
X200510197Y-95660197D01*
X200235197Y-95935197D01*
X200225830Y-95945664D01*
X200025830Y-96195664D01*
X200020582Y-96202710D01*
X199795582Y-96527710D01*
X199786408Y-96543204D01*
X199736408Y-96643204D01*
X199732083Y-96652833D01*
X199682083Y-96777833D01*
X199681086Y-96780407D01*
X199606575Y-96979103D01*
X199557083Y-97102833D01*
X199551792Y-97119198D01*
X199526792Y-97219198D01*
X199526024Y-97222450D01*
X199476024Y-97447450D01*
X199474276Y-97457039D01*
X199449276Y-97632039D01*
X199448000Y-97650000D01*
X196641802Y-97650000D01*
X188363072Y-89371271D01*
X188363072Y-89343800D01*
X201417699Y-89343800D01*
X210628901Y-98555003D01*
X210652699Y-98584001D01*
X210681697Y-98607799D01*
X210768423Y-98678974D01*
X210879928Y-98738575D01*
X210879928Y-103212900D01*
X210892188Y-103337382D01*
X210928498Y-103457080D01*
X210987463Y-103567394D01*
X211066815Y-103664085D01*
X211163506Y-103743437D01*
X211273820Y-103802402D01*
X211393518Y-103838712D01*
X211518000Y-103850972D01*
X220230200Y-103850972D01*
X220354682Y-103838712D01*
X220474380Y-103802402D01*
X220584694Y-103743437D01*
X220681385Y-103664085D01*
X220760737Y-103567394D01*
X220819702Y-103457080D01*
X220856012Y-103337382D01*
X220868272Y-103212900D01*
X220868272Y-100088700D01*
X224748328Y-100088700D01*
X224748328Y-101079300D01*
X224760588Y-101203782D01*
X224796898Y-101323480D01*
X224855863Y-101433794D01*
X224935215Y-101530485D01*
X225031906Y-101609837D01*
X225142220Y-101668802D01*
X225261918Y-101705112D01*
X225386400Y-101717372D01*
X228383600Y-101717372D01*
X228508082Y-101705112D01*
X228627780Y-101668802D01*
X228738094Y-101609837D01*
X228834785Y-101530485D01*
X228883603Y-101471000D01*
X232495415Y-101471000D01*
X232577716Y-101571284D01*
X232708503Y-101678618D01*
X232857717Y-101758375D01*
X233019623Y-101807488D01*
X233188000Y-101824072D01*
X233638000Y-101824072D01*
X233806377Y-101807488D01*
X233968283Y-101758375D01*
X234114351Y-101680300D01*
X234158506Y-101716537D01*
X234268820Y-101775502D01*
X234388518Y-101811812D01*
X234513000Y-101824072D01*
X234677250Y-101821000D01*
X234836000Y-101662250D01*
X234836000Y-100838000D01*
X235090000Y-100838000D01*
X235090000Y-101662250D01*
X235248750Y-101821000D01*
X235413000Y-101824072D01*
X235537482Y-101811812D01*
X235657180Y-101775502D01*
X235767494Y-101716537D01*
X235864185Y-101637185D01*
X235943537Y-101540494D01*
X236002502Y-101430180D01*
X236038812Y-101310482D01*
X236051072Y-101186000D01*
X236048000Y-100996750D01*
X235889250Y-100838000D01*
X235090000Y-100838000D01*
X234836000Y-100838000D01*
X234816000Y-100838000D01*
X234816000Y-100584000D01*
X234836000Y-100584000D01*
X234836000Y-99759750D01*
X235090000Y-99759750D01*
X235090000Y-100584000D01*
X235889250Y-100584000D01*
X236048000Y-100425250D01*
X236051072Y-100236000D01*
X236038812Y-100111518D01*
X236002502Y-99991820D01*
X235943537Y-99881506D01*
X235864185Y-99784815D01*
X235767494Y-99705463D01*
X235657180Y-99646498D01*
X235537482Y-99610188D01*
X235413000Y-99597928D01*
X235248750Y-99601000D01*
X235090000Y-99759750D01*
X234836000Y-99759750D01*
X234677250Y-99601000D01*
X234513000Y-99597928D01*
X234388518Y-99610188D01*
X234268820Y-99646498D01*
X234158506Y-99705463D01*
X234114351Y-99741700D01*
X233968283Y-99663625D01*
X233806377Y-99614512D01*
X233638000Y-99597928D01*
X233188000Y-99597928D01*
X233019623Y-99614512D01*
X232857717Y-99663625D01*
X232708503Y-99743382D01*
X232577716Y-99850716D01*
X232495415Y-99951000D01*
X229135581Y-99951000D01*
X229133176Y-99949026D01*
X229001147Y-99878454D01*
X228981597Y-99872524D01*
X228973102Y-99844520D01*
X228914137Y-99734206D01*
X228834785Y-99637515D01*
X228738094Y-99558163D01*
X228627780Y-99499198D01*
X228508082Y-99462888D01*
X228383600Y-99450628D01*
X225386400Y-99450628D01*
X225261918Y-99462888D01*
X225142220Y-99499198D01*
X225031906Y-99558163D01*
X224935215Y-99637515D01*
X224855863Y-99734206D01*
X224796898Y-99844520D01*
X224760588Y-99964218D01*
X224748328Y-100088700D01*
X220868272Y-100088700D01*
X220868272Y-98804000D01*
X230772678Y-98804000D01*
X230810000Y-98807676D01*
X230847322Y-98804000D01*
X230847333Y-98804000D01*
X230958986Y-98793003D01*
X231102247Y-98749546D01*
X231234276Y-98678974D01*
X231350001Y-98584001D01*
X231373804Y-98554997D01*
X233184730Y-96744072D01*
X233448000Y-96744072D01*
X233616377Y-96727488D01*
X233778283Y-96678375D01*
X233924351Y-96600300D01*
X233968506Y-96636537D01*
X234078820Y-96695502D01*
X234198518Y-96731812D01*
X234323000Y-96744072D01*
X234487250Y-96741000D01*
X234646000Y-96582250D01*
X234646000Y-95758000D01*
X234900000Y-95758000D01*
X234900000Y-96582250D01*
X235058750Y-96741000D01*
X235223000Y-96744072D01*
X235347482Y-96731812D01*
X235467180Y-96695502D01*
X235577494Y-96636537D01*
X235674185Y-96557185D01*
X235753537Y-96460494D01*
X235812502Y-96350180D01*
X235848812Y-96230482D01*
X235861072Y-96106000D01*
X235858000Y-95916750D01*
X235699250Y-95758000D01*
X234900000Y-95758000D01*
X234646000Y-95758000D01*
X234626000Y-95758000D01*
X234626000Y-95504000D01*
X234646000Y-95504000D01*
X234646000Y-94679750D01*
X234487250Y-94521000D01*
X234323000Y-94517928D01*
X234198518Y-94530188D01*
X234078820Y-94566498D01*
X233968506Y-94625463D01*
X233924351Y-94661700D01*
X233778283Y-94583625D01*
X233616377Y-94534512D01*
X233448000Y-94517928D01*
X232998000Y-94517928D01*
X232829623Y-94534512D01*
X232667717Y-94583625D01*
X232518503Y-94663382D01*
X232387716Y-94770716D01*
X232280382Y-94901503D01*
X232200625Y-95050717D01*
X232151512Y-95212623D01*
X232134928Y-95381000D01*
X232134928Y-95644270D01*
X230495199Y-97284000D01*
X220868272Y-97284000D01*
X220868272Y-95999300D01*
X224748328Y-95999300D01*
X224760588Y-96123782D01*
X224796898Y-96243480D01*
X224855863Y-96353794D01*
X224935215Y-96450485D01*
X225031906Y-96529837D01*
X225142220Y-96588802D01*
X225261918Y-96625112D01*
X225386400Y-96637372D01*
X226599250Y-96634300D01*
X226758000Y-96475550D01*
X226758000Y-95631000D01*
X227012000Y-95631000D01*
X227012000Y-96475550D01*
X227170750Y-96634300D01*
X228383600Y-96637372D01*
X228508082Y-96625112D01*
X228627780Y-96588802D01*
X228738094Y-96529837D01*
X228834785Y-96450485D01*
X228914137Y-96353794D01*
X228973102Y-96243480D01*
X229009412Y-96123782D01*
X229021672Y-95999300D01*
X229018600Y-95789750D01*
X228859850Y-95631000D01*
X227012000Y-95631000D01*
X226758000Y-95631000D01*
X224910150Y-95631000D01*
X224751400Y-95789750D01*
X224748328Y-95999300D01*
X220868272Y-95999300D01*
X220868272Y-95008700D01*
X224748328Y-95008700D01*
X224751400Y-95218250D01*
X224910150Y-95377000D01*
X226758000Y-95377000D01*
X226758000Y-94532450D01*
X227012000Y-94532450D01*
X227012000Y-95377000D01*
X228859850Y-95377000D01*
X229018600Y-95218250D01*
X229021672Y-95008700D01*
X229009412Y-94884218D01*
X228973102Y-94764520D01*
X228914137Y-94654206D01*
X228834785Y-94557515D01*
X228738094Y-94478163D01*
X228627780Y-94419198D01*
X228508082Y-94382888D01*
X228383600Y-94370628D01*
X227170750Y-94373700D01*
X227012000Y-94532450D01*
X226758000Y-94532450D01*
X226599250Y-94373700D01*
X225386400Y-94370628D01*
X225261918Y-94382888D01*
X225142220Y-94419198D01*
X225031906Y-94478163D01*
X224935215Y-94557515D01*
X224855863Y-94654206D01*
X224796898Y-94764520D01*
X224760588Y-94884218D01*
X224748328Y-95008700D01*
X220868272Y-95008700D01*
X220868272Y-92875100D01*
X220856012Y-92750618D01*
X220819702Y-92630920D01*
X220760737Y-92520606D01*
X220681385Y-92423915D01*
X220584694Y-92344563D01*
X220474380Y-92285598D01*
X220354682Y-92249288D01*
X220230200Y-92237028D01*
X211518000Y-92237028D01*
X211393518Y-92249288D01*
X211273820Y-92285598D01*
X211163506Y-92344563D01*
X211066815Y-92423915D01*
X210987463Y-92520606D01*
X210928498Y-92630920D01*
X210892188Y-92750618D01*
X210879928Y-92875100D01*
X210879928Y-96656426D01*
X202296304Y-88072803D01*
X202272501Y-88043799D01*
X202156776Y-87948826D01*
X202024747Y-87878254D01*
X201881486Y-87834797D01*
X201769833Y-87823800D01*
X201769822Y-87823800D01*
X201732500Y-87820124D01*
X201695178Y-87823800D01*
X180750422Y-87823800D01*
X180713099Y-87820124D01*
X180675776Y-87823800D01*
X180675767Y-87823800D01*
X180564114Y-87834797D01*
X180420853Y-87878254D01*
X180288824Y-87948826D01*
X180173099Y-88043799D01*
X180149301Y-88072797D01*
X179197000Y-89025098D01*
X178302000Y-88130099D01*
X178302000Y-87969365D01*
X178334606Y-87942606D01*
X178367000Y-87903134D01*
X178399394Y-87942606D01*
X178526392Y-88046831D01*
X178671284Y-88124278D01*
X178828500Y-88171969D01*
X178992000Y-88188072D01*
X179392000Y-88188072D01*
X179555500Y-88171969D01*
X179712716Y-88124278D01*
X179857608Y-88046831D01*
X179984606Y-87942606D01*
X180088831Y-87815608D01*
X180166278Y-87670716D01*
X180213969Y-87513500D01*
X180230072Y-87350000D01*
X180230072Y-86800000D01*
X180213969Y-86636500D01*
X180166278Y-86479284D01*
X180088831Y-86334392D01*
X179984606Y-86207394D01*
X179857608Y-86103169D01*
X179712716Y-86025722D01*
X179555500Y-85978031D01*
X179392000Y-85961928D01*
X179153729Y-85961928D01*
X178946503Y-85754702D01*
X178922701Y-85725699D01*
X178806976Y-85630726D01*
X178674947Y-85560154D01*
X178531686Y-85516697D01*
X178420033Y-85505700D01*
X178420022Y-85505700D01*
X178382700Y-85502024D01*
X178345378Y-85505700D01*
X169816622Y-85505700D01*
X169779299Y-85502024D01*
X169741976Y-85505700D01*
X169741967Y-85505700D01*
X169630314Y-85516697D01*
X169487053Y-85560154D01*
X169355024Y-85630726D01*
X169355022Y-85630727D01*
X169355023Y-85630727D01*
X169268296Y-85701901D01*
X169268292Y-85701905D01*
X169239299Y-85725699D01*
X169215505Y-85754692D01*
X167890199Y-87080000D01*
X166936103Y-87080000D01*
X166967932Y-87003158D01*
X167025000Y-86716260D01*
X167025000Y-86423740D01*
X166967932Y-86136842D01*
X166855990Y-85866589D01*
X166693475Y-85623368D01*
X166486632Y-85416525D01*
X166254429Y-85261372D01*
X175325703Y-76190099D01*
X175354701Y-76166301D01*
X175386610Y-76127420D01*
X175556842Y-76197932D01*
X175843740Y-76255000D01*
X176136260Y-76255000D01*
X176423158Y-76197932D01*
X176693411Y-76085990D01*
X176936632Y-75923475D01*
X177143475Y-75716632D01*
X177265195Y-75534466D01*
X177334822Y-75651355D01*
X177529731Y-75867588D01*
X177763080Y-76041641D01*
X178025901Y-76166825D01*
X178173110Y-76211476D01*
X178403000Y-76090155D01*
X178403000Y-74897000D01*
X178383000Y-74897000D01*
X178383000Y-74643000D01*
X178403000Y-74643000D01*
X178403000Y-74623000D01*
X178657000Y-74623000D01*
X178657000Y-74643000D01*
X178677000Y-74643000D01*
X178677000Y-74897000D01*
X178657000Y-74897000D01*
X178657000Y-76090155D01*
X178886890Y-76211476D01*
X179034099Y-76166825D01*
X179296920Y-76041641D01*
X179530269Y-75867588D01*
X179725178Y-75651355D01*
X179794805Y-75534466D01*
X179916525Y-75716632D01*
X180123368Y-75923475D01*
X180366589Y-76085990D01*
X180636842Y-76197932D01*
X180923740Y-76255000D01*
X181216260Y-76255000D01*
X181503158Y-76197932D01*
X181773411Y-76085990D01*
X182016632Y-75923475D01*
X182223475Y-75716632D01*
X182340000Y-75542240D01*
X182456525Y-75716632D01*
X182663368Y-75923475D01*
X182906589Y-76085990D01*
X183176842Y-76197932D01*
X183463740Y-76255000D01*
X183756260Y-76255000D01*
X184043158Y-76197932D01*
X184313411Y-76085990D01*
X184556632Y-75923475D01*
X184763475Y-75716632D01*
X184880000Y-75542240D01*
X184996525Y-75716632D01*
X185203368Y-75923475D01*
X185446589Y-76085990D01*
X185716842Y-76197932D01*
X186003740Y-76255000D01*
X186296260Y-76255000D01*
X186583158Y-76197932D01*
X186853411Y-76085990D01*
X187096632Y-75923475D01*
X187303475Y-75716632D01*
X187420000Y-75542240D01*
X187536525Y-75716632D01*
X187743368Y-75923475D01*
X187986589Y-76085990D01*
X188256842Y-76197932D01*
X188543740Y-76255000D01*
X188836260Y-76255000D01*
X189123158Y-76197932D01*
X189393411Y-76085990D01*
X189636632Y-75923475D01*
X189843475Y-75716632D01*
X189960000Y-75542240D01*
X190076525Y-75716632D01*
X190283368Y-75923475D01*
X190526589Y-76085990D01*
X190796842Y-76197932D01*
X191083740Y-76255000D01*
X191376260Y-76255000D01*
X191663158Y-76197932D01*
X191933411Y-76085990D01*
X192176632Y-75923475D01*
X192383475Y-75716632D01*
X192500000Y-75542240D01*
X192616525Y-75716632D01*
X192823368Y-75923475D01*
X193066589Y-76085990D01*
X193336842Y-76197932D01*
X193623740Y-76255000D01*
X193916260Y-76255000D01*
X194203158Y-76197932D01*
X194473411Y-76085990D01*
X194716632Y-75923475D01*
X194923475Y-75716632D01*
X195040000Y-75542240D01*
X195156525Y-75716632D01*
X195363368Y-75923475D01*
X195606589Y-76085990D01*
X195876842Y-76197932D01*
X196163740Y-76255000D01*
X196456260Y-76255000D01*
X196743158Y-76197932D01*
X197013411Y-76085990D01*
X197242690Y-75932791D01*
X207493300Y-86183402D01*
X207517099Y-86212401D01*
X207546097Y-86236199D01*
X207632823Y-86307374D01*
X207720082Y-86354015D01*
X207764853Y-86377946D01*
X207908114Y-86421403D01*
X208019767Y-86432400D01*
X208019777Y-86432400D01*
X208057100Y-86436076D01*
X208094423Y-86432400D01*
X213823700Y-86432400D01*
X213823700Y-86604939D01*
X213863474Y-86804898D01*
X213941495Y-86993256D01*
X214054763Y-87162774D01*
X214198926Y-87306937D01*
X214368444Y-87420205D01*
X214556802Y-87498226D01*
X214756761Y-87538000D01*
X214819948Y-87538000D01*
X214851574Y-87696998D01*
X214929595Y-87885356D01*
X215042863Y-88054874D01*
X215187026Y-88199037D01*
X215356544Y-88312305D01*
X215544902Y-88390326D01*
X215620200Y-88405304D01*
X215620200Y-88591739D01*
X215659974Y-88791698D01*
X215737995Y-88980056D01*
X215851263Y-89149574D01*
X215995426Y-89293737D01*
X216164944Y-89407005D01*
X216353302Y-89485026D01*
X216553261Y-89524800D01*
X216757139Y-89524800D01*
X216957098Y-89485026D01*
X217145456Y-89407005D01*
X217314974Y-89293737D01*
X217358911Y-89249800D01*
X229769699Y-89249800D01*
X235049824Y-94529926D01*
X234900000Y-94679750D01*
X234900000Y-95504000D01*
X235699250Y-95504000D01*
X235858000Y-95345250D01*
X235858114Y-95338216D01*
X237760901Y-97241003D01*
X237784699Y-97270001D01*
X237813697Y-97293799D01*
X237900424Y-97364974D01*
X238032453Y-97435546D01*
X238175714Y-97479003D01*
X238217204Y-97483089D01*
X238346525Y-97676632D01*
X238553368Y-97883475D01*
X238727760Y-98000000D01*
X238553368Y-98116525D01*
X238346525Y-98323368D01*
X238184010Y-98566589D01*
X238072068Y-98836842D01*
X238015000Y-99123740D01*
X238015000Y-99416260D01*
X238072068Y-99703158D01*
X238184010Y-99973411D01*
X238346525Y-100216632D01*
X238553368Y-100423475D01*
X238727760Y-100540000D01*
X238553368Y-100656525D01*
X238346525Y-100863368D01*
X238184010Y-101106589D01*
X238072068Y-101376842D01*
X238015000Y-101663740D01*
X238015000Y-101956260D01*
X238072068Y-102243158D01*
X238184010Y-102513411D01*
X238346525Y-102756632D01*
X238553368Y-102963475D01*
X238727760Y-103080000D01*
X238553368Y-103196525D01*
X238346525Y-103403368D01*
X238184010Y-103646589D01*
X238072068Y-103916842D01*
X238015000Y-104203740D01*
X238015000Y-104496260D01*
X238072068Y-104783158D01*
X238184010Y-105053411D01*
X238346525Y-105296632D01*
X238553368Y-105503475D01*
X238735534Y-105625195D01*
X238618645Y-105694822D01*
X238402412Y-105889731D01*
X238228359Y-106123080D01*
X238103175Y-106385901D01*
X238058524Y-106533110D01*
X238179845Y-106763000D01*
X239373000Y-106763000D01*
X239373000Y-106743000D01*
X239627000Y-106743000D01*
X239627000Y-106763000D01*
X239647000Y-106763000D01*
X239647000Y-107017000D01*
X239627000Y-107017000D01*
X239627000Y-107037000D01*
X239373000Y-107037000D01*
X239373000Y-107017000D01*
X238179845Y-107017000D01*
X238058524Y-107246890D01*
X238103175Y-107394099D01*
X238228359Y-107656920D01*
X238402412Y-107890269D01*
X238618645Y-108085178D01*
X238735534Y-108154805D01*
X238553368Y-108276525D01*
X238346525Y-108483368D01*
X238184010Y-108726589D01*
X238072068Y-108996842D01*
X238015000Y-109283740D01*
X238015000Y-109576260D01*
X238072068Y-109863158D01*
X238184010Y-110133411D01*
X238346525Y-110376632D01*
X238553368Y-110583475D01*
X238727760Y-110700000D01*
X238553368Y-110816525D01*
X238346525Y-111023368D01*
X238184010Y-111266589D01*
X238072068Y-111536842D01*
X238015000Y-111823740D01*
X238015000Y-112116260D01*
X238072068Y-112403158D01*
X238184010Y-112673411D01*
X238346525Y-112916632D01*
X238553368Y-113123475D01*
X238796589Y-113285990D01*
X239066842Y-113397932D01*
X239353740Y-113455000D01*
X239646260Y-113455000D01*
X239933158Y-113397932D01*
X240203411Y-113285990D01*
X240446632Y-113123475D01*
X240653475Y-112916632D01*
X240770000Y-112742240D01*
X240886525Y-112916632D01*
X241093368Y-113123475D01*
X241336589Y-113285990D01*
X241606842Y-113397932D01*
X241893740Y-113455000D01*
X242186260Y-113455000D01*
X242473158Y-113397932D01*
X242743411Y-113285990D01*
X242986632Y-113123475D01*
X243193475Y-112916632D01*
X243355990Y-112673411D01*
X243467932Y-112403158D01*
X243525000Y-112116260D01*
X243525000Y-111823740D01*
X243467932Y-111536842D01*
X243355990Y-111266589D01*
X243193475Y-111023368D01*
X242986632Y-110816525D01*
X242812240Y-110700000D01*
X242986632Y-110583475D01*
X243193475Y-110376632D01*
X243355990Y-110133411D01*
X243467932Y-109863158D01*
X243525000Y-109576260D01*
X243525000Y-109283740D01*
X243467932Y-108996842D01*
X243355990Y-108726589D01*
X243193475Y-108483368D01*
X242986632Y-108276525D01*
X242812240Y-108160000D01*
X242986632Y-108043475D01*
X243193475Y-107836632D01*
X243355990Y-107593411D01*
X243467932Y-107323158D01*
X243525000Y-107036260D01*
X243525000Y-106743740D01*
X243467932Y-106456842D01*
X243355990Y-106186589D01*
X243193475Y-105943368D01*
X242986632Y-105736525D01*
X242812240Y-105620000D01*
X242986632Y-105503475D01*
X243193475Y-105296632D01*
X243355990Y-105053411D01*
X243467932Y-104783158D01*
X243525000Y-104496260D01*
X243525000Y-104203740D01*
X243467932Y-103916842D01*
X243355990Y-103646589D01*
X243193475Y-103403368D01*
X242986632Y-103196525D01*
X242812240Y-103080000D01*
X242986632Y-102963475D01*
X243193475Y-102756632D01*
X243355990Y-102513411D01*
X243467932Y-102243158D01*
X243525000Y-101956260D01*
X243525000Y-101663740D01*
X243467932Y-101376842D01*
X243355990Y-101106589D01*
X243217531Y-100899370D01*
X243726302Y-100390599D01*
X243755301Y-100366801D01*
X243789606Y-100325000D01*
X243850274Y-100251077D01*
X243920846Y-100119047D01*
X243928232Y-100094699D01*
X243964303Y-99975786D01*
X243975300Y-99864133D01*
X243975300Y-99864124D01*
X243978976Y-99826801D01*
X243975300Y-99789478D01*
X243975300Y-83577322D01*
X243978976Y-83539999D01*
X243975300Y-83502676D01*
X243975300Y-83502667D01*
X243964303Y-83391014D01*
X243920846Y-83247753D01*
X243887126Y-83184668D01*
X243850274Y-83115723D01*
X243779099Y-83028997D01*
X243755301Y-82999999D01*
X243726304Y-82976202D01*
X237014504Y-76264403D01*
X236990701Y-76235399D01*
X236874976Y-76140426D01*
X236742947Y-76069854D01*
X236599686Y-76026397D01*
X236488033Y-76015400D01*
X236488022Y-76015400D01*
X236450700Y-76011724D01*
X236413378Y-76015400D01*
X223326852Y-76015400D01*
X223395447Y-75969670D01*
X223401200Y-75965600D01*
X223501200Y-75890600D01*
X223514803Y-75878803D01*
X223789803Y-75603803D01*
X223797564Y-75595303D01*
X224047564Y-75295303D01*
X224055670Y-75284447D01*
X224205670Y-75059447D01*
X224210267Y-75052010D01*
X224310267Y-74877010D01*
X224316731Y-74864028D01*
X224391731Y-74689028D01*
X224395483Y-74679161D01*
X224444739Y-74531393D01*
X224518914Y-74333593D01*
X224524181Y-74315610D01*
X224599181Y-73965610D01*
X224601223Y-73953025D01*
X224626223Y-73728025D01*
X224627000Y-73714000D01*
X224627000Y-73339000D01*
X224626370Y-73326363D01*
X224601370Y-73076363D01*
X224600272Y-73068121D01*
X224575272Y-72918121D01*
X224572525Y-72905584D01*
X224497525Y-72630584D01*
X224494601Y-72621285D01*
X224369601Y-72271285D01*
X224366731Y-72263972D01*
X224291731Y-72088972D01*
X224283902Y-72073659D01*
X224133902Y-71823659D01*
X224128344Y-71815183D01*
X224003344Y-71640183D01*
X223997564Y-71632697D01*
X223872564Y-71482697D01*
X223870577Y-71480370D01*
X223695577Y-71280370D01*
X223683630Y-71268423D01*
X223483630Y-71093423D01*
X223471715Y-71084186D01*
X222996715Y-70759186D01*
X222976580Y-70747946D01*
X222778701Y-70660000D01*
X238433000Y-70660000D01*
X238433000Y-73760000D01*
X238434276Y-73777961D01*
X238454276Y-73917961D01*
X238455049Y-73922718D01*
X238474613Y-74030320D01*
X238484276Y-74097961D01*
X238486024Y-74107550D01*
X238505287Y-74194235D01*
X238524728Y-74310879D01*
X238531465Y-74335590D01*
X238580428Y-74462893D01*
X238619517Y-74580161D01*
X238622083Y-74587167D01*
X238662083Y-74687167D01*
X238663269Y-74690028D01*
X238723269Y-74830028D01*
X238729439Y-74842491D01*
X238859439Y-75072491D01*
X238863170Y-75078676D01*
X238953170Y-75218676D01*
X238955958Y-75222830D01*
X239024054Y-75320110D01*
X239072304Y-75397310D01*
X239080830Y-75409336D01*
X239120830Y-75459336D01*
X239126381Y-75465817D01*
X239236381Y-75585817D01*
X239240197Y-75589803D01*
X239360197Y-75709803D01*
X239367349Y-75716426D01*
X239433646Y-75773252D01*
X239490197Y-75829803D01*
X239498697Y-75837564D01*
X239558697Y-75887564D01*
X239565302Y-75892709D01*
X239674532Y-75972149D01*
X239793800Y-76061600D01*
X239807737Y-76070690D01*
X239967737Y-76160690D01*
X239968323Y-76161018D01*
X240148323Y-76261018D01*
X240161154Y-76267231D01*
X240281154Y-76317231D01*
X240286095Y-76319170D01*
X240476095Y-76389170D01*
X240479839Y-76390483D01*
X240629839Y-76440483D01*
X240637679Y-76442818D01*
X240827679Y-76492818D01*
X240831443Y-76493748D01*
X240961443Y-76523748D01*
X240974248Y-76526019D01*
X241214248Y-76556019D01*
X241222078Y-76556753D01*
X241382078Y-76566753D01*
X241390000Y-76567000D01*
X241509717Y-76567000D01*
X244340000Y-76573304D01*
X244340001Y-119413000D01*
X241230000Y-119413000D01*
X241212039Y-119414276D01*
X241072039Y-119434276D01*
X241067282Y-119435049D01*
X240959680Y-119454613D01*
X240892039Y-119464276D01*
X240882450Y-119466024D01*
X240795765Y-119485287D01*
X240679121Y-119504728D01*
X240654410Y-119511465D01*
X240527107Y-119560428D01*
X240409839Y-119599517D01*
X240402833Y-119602083D01*
X240302833Y-119642083D01*
X240299972Y-119643269D01*
X240159972Y-119703269D01*
X240147509Y-119709439D01*
X239917509Y-119839439D01*
X239911324Y-119843170D01*
X239771324Y-119933170D01*
X239767170Y-119935958D01*
X239669890Y-120004054D01*
X239592690Y-120052304D01*
X239580664Y-120060830D01*
X239530664Y-120100830D01*
X239524183Y-120106381D01*
X239404183Y-120216381D01*
X239400197Y-120220197D01*
X239280197Y-120340197D01*
X239273574Y-120347349D01*
X239216748Y-120413646D01*
X239160197Y-120470197D01*
X239152436Y-120478697D01*
X239102436Y-120538697D01*
X239097291Y-120545302D01*
X239017851Y-120654532D01*
X238928400Y-120773800D01*
X238919310Y-120787737D01*
X238829310Y-120947737D01*
X238828982Y-120948323D01*
X238728982Y-121128323D01*
X238722769Y-121141154D01*
X238672769Y-121261154D01*
X238670830Y-121266095D01*
X238600830Y-121456095D01*
X238599517Y-121459839D01*
X238549517Y-121609839D01*
X238547182Y-121617679D01*
X238497182Y-121807679D01*
X238496252Y-121811443D01*
X238466252Y-121941443D01*
X238463981Y-121954248D01*
X238433981Y-122194248D01*
X238433247Y-122202078D01*
X238423247Y-122362078D01*
X238423000Y-122370000D01*
X238423000Y-122489717D01*
X238416652Y-125340000D01*
X222753702Y-125340000D01*
X222951580Y-125252054D01*
X222956796Y-125249592D01*
X223156796Y-125149592D01*
X223170447Y-125141670D01*
X223395447Y-124991670D01*
X223401200Y-124987600D01*
X223501200Y-124912600D01*
X223514803Y-124900803D01*
X223789803Y-124625803D01*
X223797564Y-124617303D01*
X224047564Y-124317303D01*
X224055670Y-124306447D01*
X224173968Y-124129000D01*
X232091928Y-124129000D01*
X232104188Y-124253482D01*
X232140498Y-124373180D01*
X232199463Y-124483494D01*
X232278815Y-124580185D01*
X232375506Y-124659537D01*
X232485820Y-124718502D01*
X232605518Y-124754812D01*
X232730000Y-124767072D01*
X233069250Y-124764000D01*
X233228000Y-124605250D01*
X233228000Y-123381000D01*
X233482000Y-123381000D01*
X233482000Y-124605250D01*
X233640750Y-124764000D01*
X233980000Y-124767072D01*
X234104482Y-124754812D01*
X234224180Y-124718502D01*
X234334494Y-124659537D01*
X234431185Y-124580185D01*
X234510537Y-124483494D01*
X234569502Y-124373180D01*
X234605812Y-124253482D01*
X234618072Y-124129000D01*
X234615000Y-123539750D01*
X234456250Y-123381000D01*
X233482000Y-123381000D01*
X233228000Y-123381000D01*
X232253750Y-123381000D01*
X232095000Y-123539750D01*
X232091928Y-124129000D01*
X224173968Y-124129000D01*
X224205670Y-124081447D01*
X224210267Y-124074010D01*
X224310267Y-123899010D01*
X224316731Y-123886028D01*
X224391731Y-123711028D01*
X224395483Y-123701161D01*
X224444739Y-123553393D01*
X224518914Y-123355593D01*
X224524181Y-123337610D01*
X224599181Y-122987610D01*
X224601223Y-122975025D01*
X224626223Y-122750025D01*
X224627000Y-122736000D01*
X224627000Y-122379000D01*
X232091928Y-122379000D01*
X232095000Y-122968250D01*
X232253750Y-123127000D01*
X233228000Y-123127000D01*
X233228000Y-121902750D01*
X233069250Y-121744000D01*
X232730000Y-121740928D01*
X232605518Y-121753188D01*
X232485820Y-121789498D01*
X232375506Y-121848463D01*
X232278815Y-121927815D01*
X232199463Y-122024506D01*
X232140498Y-122134820D01*
X232104188Y-122254518D01*
X232091928Y-122379000D01*
X224627000Y-122379000D01*
X224627000Y-122361000D01*
X224626370Y-122348363D01*
X224601370Y-122098363D01*
X224600272Y-122090121D01*
X224575272Y-121940121D01*
X224572525Y-121927584D01*
X224497525Y-121652584D01*
X224494601Y-121643285D01*
X224369601Y-121293285D01*
X224366731Y-121285972D01*
X224291731Y-121110972D01*
X224283902Y-121095659D01*
X224133902Y-120845659D01*
X224128344Y-120837183D01*
X224003344Y-120662183D01*
X223997564Y-120654697D01*
X223872564Y-120504697D01*
X223870577Y-120502370D01*
X223695577Y-120302370D01*
X223683630Y-120290423D01*
X223483630Y-120115423D01*
X223471715Y-120106186D01*
X222996715Y-119781186D01*
X222976580Y-119769946D01*
X222751580Y-119669946D01*
X222744593Y-119667086D01*
X222544593Y-119592086D01*
X222530802Y-119587792D01*
X222230802Y-119512792D01*
X222224907Y-119511466D01*
X221974907Y-119461466D01*
X221962637Y-119459630D01*
X221712637Y-119434630D01*
X221700000Y-119434000D01*
X221350000Y-119434000D01*
X221332039Y-119435276D01*
X220982039Y-119485276D01*
X220969198Y-119487792D01*
X220769198Y-119537792D01*
X220759839Y-119540517D01*
X220609839Y-119590517D01*
X220605407Y-119592086D01*
X220205407Y-119742086D01*
X220186990Y-119750733D01*
X220011990Y-119850733D01*
X220004553Y-119855330D01*
X219704553Y-120055330D01*
X219695664Y-120061830D01*
X219570664Y-120161830D01*
X219560197Y-120171197D01*
X219285197Y-120446197D01*
X219275830Y-120456664D01*
X219075830Y-120706664D01*
X219070582Y-120713710D01*
X218845582Y-121038710D01*
X218836408Y-121054204D01*
X218786408Y-121154204D01*
X218782083Y-121163833D01*
X218732083Y-121288833D01*
X218731086Y-121291407D01*
X218656575Y-121490103D01*
X218607083Y-121613833D01*
X218601792Y-121630198D01*
X218576792Y-121730198D01*
X218576024Y-121733450D01*
X218526024Y-121958450D01*
X218524276Y-121968039D01*
X218499276Y-122143039D01*
X218498000Y-122161000D01*
X218498000Y-122886000D01*
X218500466Y-122910907D01*
X218575466Y-123285907D01*
X218577886Y-123295890D01*
X218627886Y-123470890D01*
X218632083Y-123483167D01*
X218681575Y-123606897D01*
X218756086Y-123805593D01*
X218766098Y-123826341D01*
X218838593Y-123947166D01*
X218886408Y-124042796D01*
X218891098Y-124051341D01*
X218966098Y-124176341D01*
X218973400Y-124187200D01*
X219048400Y-124287200D01*
X219053050Y-124293035D01*
X219328050Y-124618035D01*
X219335197Y-124625803D01*
X219585197Y-124875803D01*
X219593697Y-124883564D01*
X219743697Y-125008564D01*
X219758440Y-125019161D01*
X220083440Y-125219161D01*
X220093204Y-125224592D01*
X220324020Y-125340000D01*
X166577000Y-125340000D01*
X166577000Y-122467000D01*
X169326928Y-122467000D01*
X169326928Y-124167000D01*
X169339188Y-124291482D01*
X169375498Y-124411180D01*
X169434463Y-124521494D01*
X169513815Y-124618185D01*
X169610506Y-124697537D01*
X169720820Y-124756502D01*
X169840518Y-124792812D01*
X169965000Y-124805072D01*
X171665000Y-124805072D01*
X171789482Y-124792812D01*
X171909180Y-124756502D01*
X172019494Y-124697537D01*
X172116185Y-124618185D01*
X172195537Y-124521494D01*
X172254502Y-124411180D01*
X172276513Y-124338620D01*
X172408368Y-124470475D01*
X172651589Y-124632990D01*
X172921842Y-124744932D01*
X173208740Y-124802000D01*
X173501260Y-124802000D01*
X173788158Y-124744932D01*
X174058411Y-124632990D01*
X174301632Y-124470475D01*
X174508475Y-124263632D01*
X174670990Y-124020411D01*
X174782932Y-123750158D01*
X174840000Y-123463260D01*
X174840000Y-123170740D01*
X174782932Y-122883842D01*
X174670990Y-122613589D01*
X174508475Y-122370368D01*
X174301632Y-122163525D01*
X174127240Y-122047000D01*
X174301632Y-121930475D01*
X174508475Y-121723632D01*
X174670990Y-121480411D01*
X174782932Y-121210158D01*
X174840000Y-120923260D01*
X174840000Y-120630740D01*
X174782932Y-120343842D01*
X174670990Y-120073589D01*
X174508475Y-119830368D01*
X174301632Y-119623525D01*
X174058411Y-119461010D01*
X173788158Y-119349068D01*
X173501260Y-119292000D01*
X173208740Y-119292000D01*
X172921842Y-119349068D01*
X172651589Y-119461010D01*
X172408368Y-119623525D01*
X172201525Y-119830368D01*
X172085000Y-120004760D01*
X171968475Y-119830368D01*
X171761632Y-119623525D01*
X171518411Y-119461010D01*
X171248158Y-119349068D01*
X170961260Y-119292000D01*
X170668740Y-119292000D01*
X170381842Y-119349068D01*
X170111589Y-119461010D01*
X169868368Y-119623525D01*
X169661525Y-119830368D01*
X169499010Y-120073589D01*
X169387068Y-120343842D01*
X169330000Y-120630740D01*
X169330000Y-120923260D01*
X169387068Y-121210158D01*
X169499010Y-121480411D01*
X169661525Y-121723632D01*
X169793380Y-121855487D01*
X169720820Y-121877498D01*
X169610506Y-121936463D01*
X169513815Y-122015815D01*
X169434463Y-122112506D01*
X169375498Y-122222820D01*
X169339188Y-122342518D01*
X169326928Y-122467000D01*
X166577000Y-122467000D01*
X166577000Y-122230000D01*
X166575724Y-122212039D01*
X166555724Y-122072039D01*
X166554951Y-122067282D01*
X166535387Y-121959680D01*
X166525724Y-121892039D01*
X166523976Y-121882450D01*
X166504713Y-121795765D01*
X166485272Y-121679121D01*
X166478535Y-121654410D01*
X166429573Y-121527108D01*
X166390483Y-121409839D01*
X166387917Y-121402833D01*
X166347917Y-121302833D01*
X166346731Y-121299972D01*
X166286731Y-121159972D01*
X166280561Y-121147509D01*
X166150561Y-120917509D01*
X166146830Y-120911324D01*
X166056830Y-120771324D01*
X166054042Y-120767170D01*
X165985946Y-120669890D01*
X165937696Y-120592690D01*
X165929170Y-120580664D01*
X165889170Y-120530664D01*
X165883619Y-120524183D01*
X165773619Y-120404183D01*
X165769803Y-120400197D01*
X165649803Y-120280197D01*
X165642651Y-120273574D01*
X165576354Y-120216748D01*
X165519803Y-120160197D01*
X165511303Y-120152436D01*
X165451303Y-120102436D01*
X165444698Y-120097291D01*
X165335468Y-120017851D01*
X165216200Y-119928400D01*
X165202263Y-119919310D01*
X165042263Y-119829310D01*
X165041677Y-119828982D01*
X164861677Y-119728982D01*
X164848846Y-119722769D01*
X164728846Y-119672769D01*
X164723905Y-119670830D01*
X164533905Y-119600830D01*
X164530161Y-119599517D01*
X164380161Y-119549517D01*
X164372321Y-119547182D01*
X164182321Y-119497182D01*
X164178557Y-119496252D01*
X164048557Y-119466252D01*
X164035752Y-119463981D01*
X163795752Y-119433981D01*
X163787922Y-119433247D01*
X163627922Y-119423247D01*
X163620000Y-119423000D01*
X163500283Y-119423000D01*
X160660000Y-119416674D01*
X160660000Y-76577000D01*
X163760000Y-76577000D01*
X163777961Y-76575724D01*
X163917961Y-76555724D01*
X163922718Y-76554951D01*
X164030320Y-76535387D01*
X164097961Y-76525724D01*
X164107550Y-76523976D01*
X164194235Y-76504713D01*
X164310879Y-76485272D01*
X164335590Y-76478535D01*
X164462892Y-76429573D01*
X164580161Y-76390483D01*
X164587167Y-76387917D01*
X164687167Y-76347917D01*
X164690028Y-76346731D01*
X164830028Y-76286731D01*
X164842491Y-76280561D01*
X165072491Y-76150561D01*
X165078676Y-76146830D01*
X165218676Y-76056830D01*
X165222830Y-76054042D01*
X165320110Y-75985946D01*
X165397310Y-75937696D01*
X165409336Y-75929170D01*
X165459336Y-75889170D01*
X165465817Y-75883619D01*
X165585817Y-75773619D01*
X165589803Y-75769803D01*
X165709803Y-75649803D01*
X165716426Y-75642651D01*
X165773252Y-75576354D01*
X165829803Y-75519803D01*
X165837564Y-75511303D01*
X165887564Y-75451303D01*
X165892709Y-75444698D01*
X165972149Y-75335468D01*
X166061600Y-75216200D01*
X166070690Y-75202263D01*
X166160690Y-75042263D01*
X166161018Y-75041677D01*
X166261018Y-74861677D01*
X166267231Y-74848846D01*
X166317231Y-74728846D01*
X166319170Y-74723905D01*
X166389170Y-74533905D01*
X166390483Y-74530161D01*
X166440483Y-74380161D01*
X166442818Y-74372321D01*
X166492818Y-74182321D01*
X166493748Y-74178557D01*
X166523748Y-74048557D01*
X166526019Y-74035752D01*
X166556019Y-73795752D01*
X166556753Y-73787922D01*
X166566753Y-73627922D01*
X166567000Y-73620000D01*
X166567000Y-73500283D01*
X166573326Y-70660000D01*
X195073198Y-70660000D01*
X194680690Y-71052509D01*
%TA.AperFunction,Conductor*%
D18*
G36*
X194680690Y-71052509D02*
G01*
X194473411Y-70914010D01*
X194203158Y-70802068D01*
X193916260Y-70745000D01*
X193623740Y-70745000D01*
X193336842Y-70802068D01*
X193066589Y-70914010D01*
X192823368Y-71076525D01*
X192616525Y-71283368D01*
X192494805Y-71465534D01*
X192425178Y-71348645D01*
X192230269Y-71132412D01*
X191996920Y-70958359D01*
X191734099Y-70833175D01*
X191586890Y-70788524D01*
X191357000Y-70909845D01*
X191357000Y-72103000D01*
X191377000Y-72103000D01*
X191377000Y-72357000D01*
X191357000Y-72357000D01*
X191357000Y-72377000D01*
X191103000Y-72377000D01*
X191103000Y-72357000D01*
X191083000Y-72357000D01*
X191083000Y-72103000D01*
X191103000Y-72103000D01*
X191103000Y-70909845D01*
X190873110Y-70788524D01*
X190725901Y-70833175D01*
X190463080Y-70958359D01*
X190229731Y-71132412D01*
X190034822Y-71348645D01*
X189965195Y-71465534D01*
X189843475Y-71283368D01*
X189636632Y-71076525D01*
X189393411Y-70914010D01*
X189123158Y-70802068D01*
X188836260Y-70745000D01*
X188543740Y-70745000D01*
X188256842Y-70802068D01*
X187986589Y-70914010D01*
X187743368Y-71076525D01*
X187536525Y-71283368D01*
X187420000Y-71457760D01*
X187303475Y-71283368D01*
X187096632Y-71076525D01*
X186853411Y-70914010D01*
X186583158Y-70802068D01*
X186296260Y-70745000D01*
X186003740Y-70745000D01*
X185716842Y-70802068D01*
X185446589Y-70914010D01*
X185203368Y-71076525D01*
X184996525Y-71283368D01*
X184874805Y-71465534D01*
X184805178Y-71348645D01*
X184610269Y-71132412D01*
X184376920Y-70958359D01*
X184114099Y-70833175D01*
X183966890Y-70788524D01*
X183737000Y-70909845D01*
X183737000Y-72103000D01*
X183757000Y-72103000D01*
X183757000Y-72357000D01*
X183737000Y-72357000D01*
X183737000Y-72377000D01*
X183483000Y-72377000D01*
X183483000Y-72357000D01*
X183463000Y-72357000D01*
X183463000Y-72103000D01*
X183483000Y-72103000D01*
X183483000Y-70909845D01*
X183253110Y-70788524D01*
X183105901Y-70833175D01*
X182843080Y-70958359D01*
X182609731Y-71132412D01*
X182414822Y-71348645D01*
X182345195Y-71465534D01*
X182223475Y-71283368D01*
X182016632Y-71076525D01*
X181773411Y-70914010D01*
X181503158Y-70802068D01*
X181216260Y-70745000D01*
X180923740Y-70745000D01*
X180636842Y-70802068D01*
X180366589Y-70914010D01*
X180123368Y-71076525D01*
X179916525Y-71283368D01*
X179800000Y-71457760D01*
X179683475Y-71283368D01*
X179476632Y-71076525D01*
X179233411Y-70914010D01*
X178963158Y-70802068D01*
X178676260Y-70745000D01*
X178383740Y-70745000D01*
X178096842Y-70802068D01*
X177826589Y-70914010D01*
X177583368Y-71076525D01*
X177376525Y-71283368D01*
X177260000Y-71457760D01*
X177143475Y-71283368D01*
X176936632Y-71076525D01*
X176693411Y-70914010D01*
X176423158Y-70802068D01*
X176136260Y-70745000D01*
X175843740Y-70745000D01*
X175556842Y-70802068D01*
X175286589Y-70914010D01*
X175043368Y-71076525D01*
X174836525Y-71283368D01*
X174714805Y-71465534D01*
X174645178Y-71348645D01*
X174450269Y-71132412D01*
X174216920Y-70958359D01*
X173954099Y-70833175D01*
X173806890Y-70788524D01*
X173577000Y-70909845D01*
X173577000Y-72103000D01*
X173597000Y-72103000D01*
X173597000Y-72357000D01*
X173577000Y-72357000D01*
X173577000Y-72377000D01*
X173323000Y-72377000D01*
X173323000Y-72357000D01*
X173303000Y-72357000D01*
X173303000Y-72103000D01*
X173323000Y-72103000D01*
X173323000Y-70909845D01*
X173093110Y-70788524D01*
X172945901Y-70833175D01*
X172683080Y-70958359D01*
X172449731Y-71132412D01*
X172254822Y-71348645D01*
X172185195Y-71465534D01*
X172063475Y-71283368D01*
X171856632Y-71076525D01*
X171613411Y-70914010D01*
X171343158Y-70802068D01*
X171056260Y-70745000D01*
X170763740Y-70745000D01*
X170476842Y-70802068D01*
X170206589Y-70914010D01*
X169963368Y-71076525D01*
X169756525Y-71283368D01*
X169640000Y-71457760D01*
X169523475Y-71283368D01*
X169316632Y-71076525D01*
X169073411Y-70914010D01*
X168803158Y-70802068D01*
X168516260Y-70745000D01*
X168223740Y-70745000D01*
X167936842Y-70802068D01*
X167666589Y-70914010D01*
X167423368Y-71076525D01*
X167216525Y-71283368D01*
X167054010Y-71526589D01*
X166942068Y-71796842D01*
X166885000Y-72083740D01*
X166885000Y-72376260D01*
X166942068Y-72663158D01*
X167054010Y-72933411D01*
X167216525Y-73176632D01*
X167348380Y-73308487D01*
X167275820Y-73330498D01*
X167165506Y-73389463D01*
X167068815Y-73468815D01*
X166989463Y-73565506D01*
X166930498Y-73675820D01*
X166894188Y-73795518D01*
X166881928Y-73920000D01*
X166881928Y-75620000D01*
X166894188Y-75744482D01*
X166930498Y-75864180D01*
X166989463Y-75974494D01*
X167068815Y-76071185D01*
X167165506Y-76150537D01*
X167275820Y-76209502D01*
X167395518Y-76245812D01*
X167520000Y-76258072D01*
X169220000Y-76258072D01*
X169344482Y-76245812D01*
X169464180Y-76209502D01*
X169574494Y-76150537D01*
X169671185Y-76071185D01*
X169750537Y-75974494D01*
X169809502Y-75864180D01*
X169831513Y-75791620D01*
X169963368Y-75923475D01*
X170206589Y-76085990D01*
X170476842Y-76197932D01*
X170763740Y-76255000D01*
X171056260Y-76255000D01*
X171343158Y-76197932D01*
X171613411Y-76085990D01*
X171856632Y-75923475D01*
X172063475Y-75716632D01*
X172180000Y-75542240D01*
X172296525Y-75716632D01*
X172503368Y-75923475D01*
X172746589Y-76085990D01*
X173016842Y-76197932D01*
X173143143Y-76223055D01*
X164186405Y-85179794D01*
X164094180Y-85130498D01*
X163974482Y-85094188D01*
X163850000Y-85081928D01*
X162150000Y-85081928D01*
X162025518Y-85094188D01*
X161905820Y-85130498D01*
X161795506Y-85189463D01*
X161698815Y-85268815D01*
X161619463Y-85365506D01*
X161560498Y-85475820D01*
X161524188Y-85595518D01*
X161511928Y-85720000D01*
X161511928Y-87420000D01*
X161524188Y-87544482D01*
X161560498Y-87664180D01*
X161594015Y-87726884D01*
X161313702Y-88007197D01*
X161284699Y-88030999D01*
X161239189Y-88086454D01*
X161189726Y-88146724D01*
X161167716Y-88187902D01*
X161119154Y-88278754D01*
X161075697Y-88422015D01*
X161064700Y-88533668D01*
X161064700Y-88533678D01*
X161061024Y-88571000D01*
X161064700Y-88608323D01*
X161064701Y-92169468D01*
X161061024Y-92206800D01*
X161064701Y-92244133D01*
X161064814Y-92245275D01*
X161075698Y-92355785D01*
X161119154Y-92499046D01*
X161189726Y-92631076D01*
X161250395Y-92705000D01*
X161284700Y-92746801D01*
X161313698Y-92770599D01*
X161822469Y-93279371D01*
X161684010Y-93486589D01*
X161572068Y-93756842D01*
X161515000Y-94043740D01*
X161515000Y-94336260D01*
X161572068Y-94623158D01*
X161684010Y-94893411D01*
X161846525Y-95136632D01*
X162053368Y-95343475D01*
X162235534Y-95465195D01*
X162118645Y-95534822D01*
X161902412Y-95729731D01*
X161728359Y-95963080D01*
X161603175Y-96225901D01*
X161558524Y-96373110D01*
X161679845Y-96603000D01*
X162873000Y-96603000D01*
X162873000Y-96583000D01*
X163127000Y-96583000D01*
X163127000Y-96603000D01*
X163147000Y-96603000D01*
X163147000Y-96857000D01*
X163127000Y-96857000D01*
X163127000Y-96877000D01*
X162873000Y-96877000D01*
X162873000Y-96857000D01*
X161679845Y-96857000D01*
X161558524Y-97086890D01*
X161603175Y-97234099D01*
X161728359Y-97496920D01*
X161902412Y-97730269D01*
X162118645Y-97925178D01*
X162235534Y-97994805D01*
X162053368Y-98116525D01*
X161846525Y-98323368D01*
X161684010Y-98566589D01*
X161572068Y-98836842D01*
X161515000Y-99123740D01*
X161515000Y-99416260D01*
X161572068Y-99703158D01*
X161684010Y-99973411D01*
X161846525Y-100216632D01*
X162053368Y-100423475D01*
X162227760Y-100540000D01*
X162053368Y-100656525D01*
X161846525Y-100863368D01*
X161684010Y-101106589D01*
X161572068Y-101376842D01*
X161515000Y-101663740D01*
X161515000Y-101956260D01*
X161572068Y-102243158D01*
X161684010Y-102513411D01*
X161846525Y-102756632D01*
X162053368Y-102963475D01*
X162227760Y-103080000D01*
X162053368Y-103196525D01*
X161846525Y-103403368D01*
X161684010Y-103646589D01*
X161572068Y-103916842D01*
X161515000Y-104203740D01*
X161515000Y-104496260D01*
X161572068Y-104783158D01*
X161684010Y-105053411D01*
X161846525Y-105296632D01*
X162053368Y-105503475D01*
X162227760Y-105620000D01*
X162053368Y-105736525D01*
X161846525Y-105943368D01*
X161684010Y-106186589D01*
X161572068Y-106456842D01*
X161515000Y-106743740D01*
X161515000Y-107036260D01*
X161572068Y-107323158D01*
X161684010Y-107593411D01*
X161846525Y-107836632D01*
X162053368Y-108043475D01*
X162227760Y-108160000D01*
X162053368Y-108276525D01*
X161846525Y-108483368D01*
X161684010Y-108726589D01*
X161572068Y-108996842D01*
X161515000Y-109283740D01*
X161515000Y-109576260D01*
X161572068Y-109863158D01*
X161684010Y-110133411D01*
X161846525Y-110376632D01*
X162053368Y-110583475D01*
X162296589Y-110745990D01*
X162566842Y-110857932D01*
X162853740Y-110915000D01*
X163146260Y-110915000D01*
X163433158Y-110857932D01*
X163703411Y-110745990D01*
X163946632Y-110583475D01*
X164153475Y-110376632D01*
X164271100Y-110200594D01*
X164442412Y-110430269D01*
X164658645Y-110625178D01*
X164908748Y-110774157D01*
X165183109Y-110871481D01*
X165413000Y-110750814D01*
X165413000Y-109557000D01*
X165667000Y-109557000D01*
X165667000Y-110750814D01*
X165896891Y-110871481D01*
X166171252Y-110774157D01*
X166421355Y-110625178D01*
X166637588Y-110430269D01*
X166811641Y-110196920D01*
X166936825Y-109934099D01*
X166981476Y-109786890D01*
X166860155Y-109557000D01*
X165667000Y-109557000D01*
X165413000Y-109557000D01*
X165393000Y-109557000D01*
X165393000Y-109303000D01*
X165413000Y-109303000D01*
X165413000Y-109283000D01*
X165667000Y-109283000D01*
X165667000Y-109303000D01*
X166860155Y-109303000D01*
X166981476Y-109073110D01*
X166936825Y-108925901D01*
X166811641Y-108663080D01*
X166637588Y-108429731D01*
X166421355Y-108234822D01*
X166304466Y-108165195D01*
X166486632Y-108043475D01*
X166693475Y-107836632D01*
X166855990Y-107593411D01*
X166967932Y-107323158D01*
X167025000Y-107036260D01*
X167025000Y-106743740D01*
X166967932Y-106456842D01*
X166855990Y-106186589D01*
X166693475Y-105943368D01*
X166486632Y-105736525D01*
X166312240Y-105620000D01*
X166486632Y-105503475D01*
X166693475Y-105296632D01*
X166855990Y-105053411D01*
X166967932Y-104783158D01*
X167025000Y-104496260D01*
X167025000Y-104203740D01*
X166967932Y-103916842D01*
X166949415Y-103872138D01*
X167066276Y-103809674D01*
X167182001Y-103714701D01*
X167205804Y-103685697D01*
X171033002Y-99858500D01*
X171095139Y-99858500D01*
X171295098Y-99818726D01*
X171483456Y-99740705D01*
X171652974Y-99627437D01*
X171797137Y-99483274D01*
X171910405Y-99313756D01*
X171988426Y-99125398D01*
X172028200Y-98925439D01*
X172028200Y-98721561D01*
X171988426Y-98521602D01*
X171910405Y-98333244D01*
X171797137Y-98163726D01*
X171652974Y-98019563D01*
X171483456Y-97906295D01*
X171295098Y-97828274D01*
X171095139Y-97788500D01*
X170891261Y-97788500D01*
X170691302Y-97828274D01*
X170502944Y-97906295D01*
X170333426Y-98019563D01*
X170189263Y-98163726D01*
X170075995Y-98333244D01*
X169997974Y-98521602D01*
X169958200Y-98721561D01*
X169958200Y-98783698D01*
X167025000Y-101716899D01*
X167025000Y-101682998D01*
X166860156Y-101682998D01*
X166981476Y-101453110D01*
X166936825Y-101305901D01*
X166811641Y-101043080D01*
X166637588Y-100809731D01*
X166421355Y-100614822D01*
X166304466Y-100545195D01*
X166486632Y-100423475D01*
X166693475Y-100216632D01*
X166855990Y-99973411D01*
X166967932Y-99703158D01*
X167025000Y-99416260D01*
X167025000Y-99123740D01*
X166967932Y-98836842D01*
X166953753Y-98802610D01*
X166961547Y-98800246D01*
X167093576Y-98729674D01*
X167209301Y-98634701D01*
X167233104Y-98605697D01*
X170035502Y-95803300D01*
X170097639Y-95803300D01*
X170297598Y-95763526D01*
X170485956Y-95685505D01*
X170655474Y-95572237D01*
X170799637Y-95428074D01*
X170912905Y-95258556D01*
X170990926Y-95070198D01*
X171030700Y-94870239D01*
X171030700Y-94666361D01*
X170990926Y-94466402D01*
X170912905Y-94278044D01*
X170799637Y-94108526D01*
X170655474Y-93964363D01*
X170485956Y-93851095D01*
X170297598Y-93773074D01*
X170097639Y-93733300D01*
X169893761Y-93733300D01*
X169693802Y-93773074D01*
X169505444Y-93851095D01*
X169335926Y-93964363D01*
X169191763Y-94108526D01*
X169078495Y-94278044D01*
X169000474Y-94466402D01*
X168960700Y-94666361D01*
X168960700Y-94728498D01*
X167025000Y-96664199D01*
X167025000Y-96583740D01*
X166967932Y-96296842D01*
X166855990Y-96026589D01*
X166693475Y-95783368D01*
X166486632Y-95576525D01*
X166312240Y-95460000D01*
X166486632Y-95343475D01*
X166693475Y-95136632D01*
X166855990Y-94893411D01*
X166967932Y-94623158D01*
X167025000Y-94336260D01*
X167025000Y-94043740D01*
X166967932Y-93756842D01*
X166896877Y-93585300D01*
X176505378Y-93585300D01*
X176542700Y-93588976D01*
X176580022Y-93585300D01*
X176580033Y-93585300D01*
X176691686Y-93574303D01*
X176834947Y-93530846D01*
X176966976Y-93460274D01*
X177082701Y-93365301D01*
X177106504Y-93336298D01*
X177508729Y-92934072D01*
X177747000Y-92934072D01*
X177910500Y-92917969D01*
X178067716Y-92870278D01*
X178212608Y-92792831D01*
X178339606Y-92688606D01*
X178372000Y-92649134D01*
X178404394Y-92688606D01*
X178531392Y-92792831D01*
X178676284Y-92870278D01*
X178833500Y-92917969D01*
X178997000Y-92934072D01*
X179397000Y-92934072D01*
X179560500Y-92917969D01*
X179717716Y-92870278D01*
X179862608Y-92792831D01*
X179989606Y-92688606D01*
X180093831Y-92561608D01*
X180171278Y-92416716D01*
X180218969Y-92259500D01*
X180235072Y-92096000D01*
X180235072Y-91546000D01*
X180218969Y-91382500D01*
X180171278Y-91225284D01*
X180093831Y-91080392D01*
X179989606Y-90953394D01*
X179957000Y-90926635D01*
X179957000Y-90414701D01*
X181027902Y-89343800D01*
X184636928Y-89343800D01*
X184636928Y-89683000D01*
X184653031Y-89846500D01*
X184700722Y-90003716D01*
X184778169Y-90148608D01*
X184882394Y-90275606D01*
X184915001Y-90302366D01*
X184915000Y-118208678D01*
X184911324Y-118246000D01*
X184915000Y-118283322D01*
X184915000Y-118283332D01*
X184925997Y-118394985D01*
X184969454Y-118538246D01*
X185040026Y-118670276D01*
X185075275Y-118713226D01*
X185134999Y-118786001D01*
X185164003Y-118809804D01*
X186579823Y-120225625D01*
X186573832Y-120240088D01*
X186511000Y-120555967D01*
X186511000Y-120878033D01*
X186573832Y-121193912D01*
X186579823Y-121208376D01*
X186505799Y-121282400D01*
X186188023Y-121282400D01*
X186268384Y-120975892D01*
X186287718Y-120654405D01*
X186243961Y-120335325D01*
X186138795Y-120030912D01*
X186045814Y-119856956D01*
X185781413Y-119761192D01*
X184825605Y-120717000D01*
X184839748Y-120731143D01*
X184660143Y-120910748D01*
X184646000Y-120896605D01*
X184631858Y-120910748D01*
X184452253Y-120731143D01*
X184466395Y-120717000D01*
X183510587Y-119761192D01*
X183246186Y-119856956D01*
X183105296Y-120146571D01*
X183023616Y-120458108D01*
X183004282Y-120779595D01*
X183048039Y-121098675D01*
X183111511Y-121282400D01*
X182786202Y-121282400D01*
X182712177Y-121208375D01*
X182718168Y-121193912D01*
X182781000Y-120878033D01*
X182781000Y-120555967D01*
X182718168Y-120240088D01*
X182594918Y-119942537D01*
X182415987Y-119674748D01*
X182322826Y-119581587D01*
X183690192Y-119581587D01*
X184646000Y-120537395D01*
X185601808Y-119581587D01*
X185506044Y-119317186D01*
X185216429Y-119176296D01*
X184904892Y-119094616D01*
X184583405Y-119075282D01*
X184264325Y-119119039D01*
X183959912Y-119224205D01*
X183785956Y-119317186D01*
X183690192Y-119581587D01*
X182322826Y-119581587D01*
X182188252Y-119447013D01*
X181920463Y-119268082D01*
X181622912Y-119144832D01*
X181307033Y-119082000D01*
X180984967Y-119082000D01*
X180669088Y-119144832D01*
X180371537Y-119268082D01*
X180103748Y-119447013D01*
X179876013Y-119674748D01*
X179697082Y-119942537D01*
X179573832Y-120240088D01*
X179511000Y-120555967D01*
X179511000Y-120878033D01*
X179573832Y-121193912D01*
X179697082Y-121491463D01*
X179876013Y-121759252D01*
X180103748Y-121986987D01*
X180371537Y-122165918D01*
X180669088Y-122289168D01*
X180984967Y-122352000D01*
X181307033Y-122352000D01*
X181622912Y-122289168D01*
X181637375Y-122283177D01*
X181907601Y-122553403D01*
X181931399Y-122582401D01*
X182047124Y-122677374D01*
X182179153Y-122747946D01*
X182322414Y-122791403D01*
X182434067Y-122802400D01*
X182434075Y-122802400D01*
X182471400Y-122806076D01*
X182508725Y-122802400D01*
X186783278Y-122802400D01*
X186820600Y-122806076D01*
X186857922Y-122802400D01*
X186857933Y-122802400D01*
X186969586Y-122791403D01*
X187112847Y-122747946D01*
X187244876Y-122677374D01*
X187360601Y-122582401D01*
X187384404Y-122553397D01*
X187654624Y-122283177D01*
X187669088Y-122289168D01*
X187984967Y-122352000D01*
X188307033Y-122352000D01*
X188622912Y-122289168D01*
X188637375Y-122283177D01*
X188907601Y-122553403D01*
X188931399Y-122582401D01*
X189047124Y-122677374D01*
X189179153Y-122747946D01*
X189322414Y-122791403D01*
X189434067Y-122802400D01*
X189434075Y-122802400D01*
X189471400Y-122806076D01*
X189508725Y-122802400D01*
X197403278Y-122802400D01*
X197440600Y-122806076D01*
X197477922Y-122802400D01*
X197477933Y-122802400D01*
X197589586Y-122791403D01*
X197732847Y-122747946D01*
X197864876Y-122677374D01*
X197980601Y-122582401D01*
X198004404Y-122553397D01*
X198274624Y-122283177D01*
X198289088Y-122289168D01*
X198604967Y-122352000D01*
X198927033Y-122352000D01*
X199242912Y-122289168D01*
X199540463Y-122165918D01*
X199808252Y-121986987D01*
X199942826Y-121852413D01*
X201310192Y-121852413D01*
X201405956Y-122116814D01*
X201695571Y-122257704D01*
X202007108Y-122339384D01*
X202328595Y-122358718D01*
X202647675Y-122314961D01*
X202952088Y-122209795D01*
X203126044Y-122116814D01*
X203221808Y-121852413D01*
X202266000Y-120896605D01*
X201310192Y-121852413D01*
X199942826Y-121852413D01*
X200035987Y-121759252D01*
X200214918Y-121491463D01*
X200338168Y-121193912D01*
X200401000Y-120878033D01*
X200401000Y-120555967D01*
X200338168Y-120240088D01*
X200332177Y-120225625D01*
X200449602Y-120108200D01*
X200743962Y-120108200D01*
X200725296Y-120146571D01*
X200643616Y-120458108D01*
X200624282Y-120779595D01*
X200668039Y-121098675D01*
X200773205Y-121403088D01*
X200866186Y-121577044D01*
X201130587Y-121672808D01*
X202086395Y-120717000D01*
X202072253Y-120702858D01*
X202251858Y-120523253D01*
X202266000Y-120537395D01*
X202280143Y-120523253D01*
X202459748Y-120702858D01*
X202445605Y-120717000D01*
X203401413Y-121672808D01*
X203665814Y-121577044D01*
X203806704Y-121287429D01*
X203888384Y-120975892D01*
X203907718Y-120654405D01*
X203863961Y-120335325D01*
X203785496Y-120108200D01*
X204082399Y-120108200D01*
X204199823Y-120225624D01*
X204193832Y-120240088D01*
X204131000Y-120555967D01*
X204131000Y-120878033D01*
X204193832Y-121193912D01*
X204317082Y-121491463D01*
X204496013Y-121759252D01*
X204723748Y-121986987D01*
X204991537Y-122165918D01*
X205289088Y-122289168D01*
X205604967Y-122352000D01*
X205927033Y-122352000D01*
X206242912Y-122289168D01*
X206540463Y-122165918D01*
X206808252Y-121986987D01*
X206942826Y-121852413D01*
X208310192Y-121852413D01*
X208405956Y-122116814D01*
X208695571Y-122257704D01*
X209007108Y-122339384D01*
X209328595Y-122358718D01*
X209647675Y-122314961D01*
X209952088Y-122209795D01*
X210126044Y-122116814D01*
X210221808Y-121852413D01*
X209266000Y-120896605D01*
X208310192Y-121852413D01*
X206942826Y-121852413D01*
X207035987Y-121759252D01*
X207214918Y-121491463D01*
X207338168Y-121193912D01*
X207401000Y-120878033D01*
X207401000Y-120779595D01*
X207624282Y-120779595D01*
X207668039Y-121098675D01*
X207773205Y-121403088D01*
X207866186Y-121577044D01*
X208130587Y-121672808D01*
X209086395Y-120717000D01*
X209445605Y-120717000D01*
X210401413Y-121672808D01*
X210665814Y-121577044D01*
X210806704Y-121287429D01*
X210888384Y-120975892D01*
X210907718Y-120654405D01*
X210863961Y-120335325D01*
X210758795Y-120030912D01*
X210665814Y-119856956D01*
X210401413Y-119761192D01*
X209445605Y-120717000D01*
X209086395Y-120717000D01*
X208130587Y-119761192D01*
X207866186Y-119856956D01*
X207725296Y-120146571D01*
X207643616Y-120458108D01*
X207624282Y-120779595D01*
X207401000Y-120779595D01*
X207401000Y-120555967D01*
X207338168Y-120240088D01*
X207214918Y-119942537D01*
X207035987Y-119674748D01*
X206942826Y-119581587D01*
X208310192Y-119581587D01*
X209266000Y-120537395D01*
X210221808Y-119581587D01*
X210126044Y-119317186D01*
X209836429Y-119176296D01*
X209524892Y-119094616D01*
X209203405Y-119075282D01*
X208884325Y-119119039D01*
X208579912Y-119224205D01*
X208405956Y-119317186D01*
X208310192Y-119581587D01*
X206942826Y-119581587D01*
X206808252Y-119447013D01*
X206540463Y-119268082D01*
X206242912Y-119144832D01*
X205927033Y-119082000D01*
X205604967Y-119082000D01*
X205289088Y-119144832D01*
X205274624Y-119150823D01*
X204961004Y-118837203D01*
X204937201Y-118808199D01*
X204821476Y-118713226D01*
X204689447Y-118642654D01*
X204546186Y-118599197D01*
X204434533Y-118588200D01*
X204434522Y-118588200D01*
X204397200Y-118584524D01*
X204359878Y-118588200D01*
X200172133Y-118588200D01*
X200134800Y-118584523D01*
X200097467Y-118588200D01*
X199985814Y-118599197D01*
X199842553Y-118642654D01*
X199710524Y-118713226D01*
X199594799Y-118808199D01*
X199571001Y-118837197D01*
X199257375Y-119150823D01*
X199242912Y-119144832D01*
X198927033Y-119082000D01*
X198604967Y-119082000D01*
X198289088Y-119144832D01*
X197991537Y-119268082D01*
X197723748Y-119447013D01*
X197496013Y-119674748D01*
X197317082Y-119942537D01*
X197193832Y-120240088D01*
X197131000Y-120555967D01*
X197131000Y-120878033D01*
X197193832Y-121193912D01*
X197199823Y-121208376D01*
X197125799Y-121282400D01*
X193188023Y-121282400D01*
X193268384Y-120975892D01*
X193287718Y-120654405D01*
X193243961Y-120335325D01*
X193138795Y-120030912D01*
X193045814Y-119856956D01*
X192781413Y-119761192D01*
X191825605Y-120717000D01*
X191839748Y-120731143D01*
X191660143Y-120910748D01*
X191646000Y-120896605D01*
X191631858Y-120910748D01*
X191452253Y-120731143D01*
X191466395Y-120717000D01*
X190510587Y-119761192D01*
X190246186Y-119856956D01*
X190105296Y-120146571D01*
X190023616Y-120458108D01*
X190004282Y-120779595D01*
X190048039Y-121098675D01*
X190111511Y-121282400D01*
X189786202Y-121282400D01*
X189712177Y-121208375D01*
X189718168Y-121193912D01*
X189781000Y-120878033D01*
X189781000Y-120555967D01*
X189718168Y-120240088D01*
X189594918Y-119942537D01*
X189415987Y-119674748D01*
X189322826Y-119581587D01*
X190690192Y-119581587D01*
X191646000Y-120537395D01*
X192601808Y-119581587D01*
X192506044Y-119317186D01*
X192216429Y-119176296D01*
X191904892Y-119094616D01*
X191583405Y-119075282D01*
X191264325Y-119119039D01*
X190959912Y-119224205D01*
X190785956Y-119317186D01*
X190690192Y-119581587D01*
X189322826Y-119581587D01*
X189188252Y-119447013D01*
X188920463Y-119268082D01*
X188622912Y-119144832D01*
X188307033Y-119082000D01*
X187984967Y-119082000D01*
X187669088Y-119144832D01*
X187654625Y-119150823D01*
X186435000Y-117931199D01*
X186435000Y-90302365D01*
X186467606Y-90275606D01*
X186500000Y-90236134D01*
X186532394Y-90275606D01*
X186659392Y-90379831D01*
X186804284Y-90457278D01*
X186961500Y-90504969D01*
X187125000Y-90521072D01*
X187363271Y-90521072D01*
X206632800Y-109790602D01*
X206656599Y-109819601D01*
X206772324Y-109914574D01*
X206904353Y-109985146D01*
X207047614Y-110028603D01*
X207159267Y-110039600D01*
X207159276Y-110039600D01*
X207196599Y-110043276D01*
X207233922Y-110039600D01*
X221865799Y-110039600D01*
X233605474Y-121779276D01*
X233482000Y-121902750D01*
X233482000Y-123127000D01*
X234456250Y-123127000D01*
X234615000Y-122968250D01*
X234615931Y-122789733D01*
X234891928Y-123065730D01*
X234891928Y-123879000D01*
X234908992Y-124052254D01*
X234959528Y-124218850D01*
X235041595Y-124372386D01*
X235152038Y-124506962D01*
X235286614Y-124617405D01*
X235440150Y-124699472D01*
X235606746Y-124750008D01*
X235780000Y-124767072D01*
X236530000Y-124767072D01*
X236703254Y-124750008D01*
X236869850Y-124699472D01*
X237023386Y-124617405D01*
X237157962Y-124506962D01*
X237268405Y-124372386D01*
X237350472Y-124218850D01*
X237401008Y-124052254D01*
X237418072Y-123879000D01*
X237418072Y-122629000D01*
X237401008Y-122455746D01*
X237350472Y-122289150D01*
X237268405Y-122135614D01*
X237157962Y-122001038D01*
X237023386Y-121890595D01*
X236869850Y-121808528D01*
X236703254Y-121757992D01*
X236530000Y-121740928D01*
X235780000Y-121740928D01*
X235722403Y-121746601D01*
X222744404Y-108768603D01*
X222720601Y-108739599D01*
X222604876Y-108644626D01*
X222472847Y-108574054D01*
X222329586Y-108530597D01*
X222217933Y-108519600D01*
X222217922Y-108519600D01*
X222180600Y-108515924D01*
X222143278Y-108519600D01*
X207511402Y-108519600D01*
X196641802Y-97650000D01*
X199448000Y-97650000D01*
X199448000Y-98375000D01*
X199450466Y-98399907D01*
X199525466Y-98774907D01*
X199527886Y-98784890D01*
X199577886Y-98959890D01*
X199582083Y-98972167D01*
X199631575Y-99095897D01*
X199706086Y-99294593D01*
X199716098Y-99315341D01*
X199788593Y-99436166D01*
X199836408Y-99531796D01*
X199841098Y-99540341D01*
X199916098Y-99665341D01*
X199923400Y-99676200D01*
X199998400Y-99776200D01*
X200003050Y-99782035D01*
X200278050Y-100107035D01*
X200285197Y-100114803D01*
X200535197Y-100364803D01*
X200543697Y-100372564D01*
X200693697Y-100497564D01*
X200708440Y-100508161D01*
X201033440Y-100708161D01*
X201043204Y-100713592D01*
X201293204Y-100838592D01*
X201309839Y-100845483D01*
X201609839Y-100945483D01*
X201615110Y-100947114D01*
X201790110Y-100997114D01*
X201800093Y-100999534D01*
X202050093Y-101049534D01*
X202068325Y-101051824D01*
X202543325Y-101076824D01*
X202559740Y-101076626D01*
X202884740Y-101051626D01*
X202894311Y-101050523D01*
X203219311Y-101000523D01*
X203240161Y-100995483D01*
X203390161Y-100945483D01*
X203393401Y-100944354D01*
X203668401Y-100844354D01*
X203676580Y-100841054D01*
X203901580Y-100741054D01*
X203906796Y-100738592D01*
X204106796Y-100638592D01*
X204120447Y-100630670D01*
X204345447Y-100480670D01*
X204351200Y-100476600D01*
X204451200Y-100401600D01*
X204464803Y-100389803D01*
X204739803Y-100114803D01*
X204747564Y-100106303D01*
X204997564Y-99806303D01*
X205005670Y-99795447D01*
X205155670Y-99570447D01*
X205160267Y-99563010D01*
X205260267Y-99388010D01*
X205266731Y-99375028D01*
X205341731Y-99200028D01*
X205345483Y-99190161D01*
X205394739Y-99042393D01*
X205468914Y-98844593D01*
X205474181Y-98826610D01*
X205549181Y-98476610D01*
X205551223Y-98464025D01*
X205576223Y-98239025D01*
X205577000Y-98225000D01*
X205577000Y-97850000D01*
X205576370Y-97837363D01*
X205551370Y-97587363D01*
X205550272Y-97579121D01*
X205525272Y-97429121D01*
X205522525Y-97416584D01*
X205447525Y-97141584D01*
X205444601Y-97132285D01*
X205319601Y-96782285D01*
X205316731Y-96774972D01*
X205241731Y-96599972D01*
X205233902Y-96584659D01*
X205083902Y-96334659D01*
X205078344Y-96326183D01*
X204953344Y-96151183D01*
X204947564Y-96143697D01*
X204822564Y-95993697D01*
X204820577Y-95991370D01*
X204645577Y-95791370D01*
X204633630Y-95779423D01*
X204433630Y-95604423D01*
X204421715Y-95595186D01*
X203946715Y-95270186D01*
X203926580Y-95258946D01*
X203701580Y-95158946D01*
X203694593Y-95156086D01*
X203494593Y-95081086D01*
X203480802Y-95076792D01*
X203180802Y-95001792D01*
X203174907Y-95000466D01*
X202924907Y-94950466D01*
X202912637Y-94948630D01*
X202662637Y-94923630D01*
X202650000Y-94923000D01*
X202300000Y-94923000D01*
X202282039Y-94924276D01*
X201932039Y-94974276D01*
X201919198Y-94976792D01*
X201719198Y-95026792D01*
X201709839Y-95029517D01*
X201559839Y-95079517D01*
X201555407Y-95081086D01*
X201155407Y-95231086D01*
X201136990Y-95239733D01*
X200961990Y-95339733D01*
X200954553Y-95344330D01*
X200654553Y-95544330D01*
X200645664Y-95550830D01*
X200520664Y-95650830D01*
X200510197Y-95660197D01*
X200235197Y-95935197D01*
X200225830Y-95945664D01*
X200025830Y-96195664D01*
X200020582Y-96202710D01*
X199795582Y-96527710D01*
X199786408Y-96543204D01*
X199736408Y-96643204D01*
X199732083Y-96652833D01*
X199682083Y-96777833D01*
X199681086Y-96780407D01*
X199606575Y-96979103D01*
X199557083Y-97102833D01*
X199551792Y-97119198D01*
X199526792Y-97219198D01*
X199526024Y-97222450D01*
X199476024Y-97447450D01*
X199474276Y-97457039D01*
X199449276Y-97632039D01*
X199448000Y-97650000D01*
X196641802Y-97650000D01*
X188363072Y-89371271D01*
X188363072Y-89343800D01*
X201417699Y-89343800D01*
X210628901Y-98555003D01*
X210652699Y-98584001D01*
X210681697Y-98607799D01*
X210768423Y-98678974D01*
X210879928Y-98738575D01*
X210879928Y-103212900D01*
X210892188Y-103337382D01*
X210928498Y-103457080D01*
X210987463Y-103567394D01*
X211066815Y-103664085D01*
X211163506Y-103743437D01*
X211273820Y-103802402D01*
X211393518Y-103838712D01*
X211518000Y-103850972D01*
X220230200Y-103850972D01*
X220354682Y-103838712D01*
X220474380Y-103802402D01*
X220584694Y-103743437D01*
X220681385Y-103664085D01*
X220760737Y-103567394D01*
X220819702Y-103457080D01*
X220856012Y-103337382D01*
X220868272Y-103212900D01*
X220868272Y-100088700D01*
X224748328Y-100088700D01*
X224748328Y-101079300D01*
X224760588Y-101203782D01*
X224796898Y-101323480D01*
X224855863Y-101433794D01*
X224935215Y-101530485D01*
X225031906Y-101609837D01*
X225142220Y-101668802D01*
X225261918Y-101705112D01*
X225386400Y-101717372D01*
X228383600Y-101717372D01*
X228508082Y-101705112D01*
X228627780Y-101668802D01*
X228738094Y-101609837D01*
X228834785Y-101530485D01*
X228883603Y-101471000D01*
X232495415Y-101471000D01*
X232577716Y-101571284D01*
X232708503Y-101678618D01*
X232857717Y-101758375D01*
X233019623Y-101807488D01*
X233188000Y-101824072D01*
X233638000Y-101824072D01*
X233806377Y-101807488D01*
X233968283Y-101758375D01*
X234114351Y-101680300D01*
X234158506Y-101716537D01*
X234268820Y-101775502D01*
X234388518Y-101811812D01*
X234513000Y-101824072D01*
X234677250Y-101821000D01*
X234836000Y-101662250D01*
X234836000Y-100838000D01*
X235090000Y-100838000D01*
X235090000Y-101662250D01*
X235248750Y-101821000D01*
X235413000Y-101824072D01*
X235537482Y-101811812D01*
X235657180Y-101775502D01*
X235767494Y-101716537D01*
X235864185Y-101637185D01*
X235943537Y-101540494D01*
X236002502Y-101430180D01*
X236038812Y-101310482D01*
X236051072Y-101186000D01*
X236048000Y-100996750D01*
X235889250Y-100838000D01*
X235090000Y-100838000D01*
X234836000Y-100838000D01*
X234816000Y-100838000D01*
X234816000Y-100584000D01*
X234836000Y-100584000D01*
X234836000Y-99759750D01*
X235090000Y-99759750D01*
X235090000Y-100584000D01*
X235889250Y-100584000D01*
X236048000Y-100425250D01*
X236051072Y-100236000D01*
X236038812Y-100111518D01*
X236002502Y-99991820D01*
X235943537Y-99881506D01*
X235864185Y-99784815D01*
X235767494Y-99705463D01*
X235657180Y-99646498D01*
X235537482Y-99610188D01*
X235413000Y-99597928D01*
X235248750Y-99601000D01*
X235090000Y-99759750D01*
X234836000Y-99759750D01*
X234677250Y-99601000D01*
X234513000Y-99597928D01*
X234388518Y-99610188D01*
X234268820Y-99646498D01*
X234158506Y-99705463D01*
X234114351Y-99741700D01*
X233968283Y-99663625D01*
X233806377Y-99614512D01*
X233638000Y-99597928D01*
X233188000Y-99597928D01*
X233019623Y-99614512D01*
X232857717Y-99663625D01*
X232708503Y-99743382D01*
X232577716Y-99850716D01*
X232495415Y-99951000D01*
X229135581Y-99951000D01*
X229133176Y-99949026D01*
X229001147Y-99878454D01*
X228981597Y-99872524D01*
X228973102Y-99844520D01*
X228914137Y-99734206D01*
X228834785Y-99637515D01*
X228738094Y-99558163D01*
X228627780Y-99499198D01*
X228508082Y-99462888D01*
X228383600Y-99450628D01*
X225386400Y-99450628D01*
X225261918Y-99462888D01*
X225142220Y-99499198D01*
X225031906Y-99558163D01*
X224935215Y-99637515D01*
X224855863Y-99734206D01*
X224796898Y-99844520D01*
X224760588Y-99964218D01*
X224748328Y-100088700D01*
X220868272Y-100088700D01*
X220868272Y-98804000D01*
X230772678Y-98804000D01*
X230810000Y-98807676D01*
X230847322Y-98804000D01*
X230847333Y-98804000D01*
X230958986Y-98793003D01*
X231102247Y-98749546D01*
X231234276Y-98678974D01*
X231350001Y-98584001D01*
X231373804Y-98554997D01*
X233184730Y-96744072D01*
X233448000Y-96744072D01*
X233616377Y-96727488D01*
X233778283Y-96678375D01*
X233924351Y-96600300D01*
X233968506Y-96636537D01*
X234078820Y-96695502D01*
X234198518Y-96731812D01*
X234323000Y-96744072D01*
X234487250Y-96741000D01*
X234646000Y-96582250D01*
X234646000Y-95758000D01*
X234900000Y-95758000D01*
X234900000Y-96582250D01*
X235058750Y-96741000D01*
X235223000Y-96744072D01*
X235347482Y-96731812D01*
X235467180Y-96695502D01*
X235577494Y-96636537D01*
X235674185Y-96557185D01*
X235753537Y-96460494D01*
X235812502Y-96350180D01*
X235848812Y-96230482D01*
X235861072Y-96106000D01*
X235858000Y-95916750D01*
X235699250Y-95758000D01*
X234900000Y-95758000D01*
X234646000Y-95758000D01*
X234626000Y-95758000D01*
X234626000Y-95504000D01*
X234646000Y-95504000D01*
X234646000Y-94679750D01*
X234487250Y-94521000D01*
X234323000Y-94517928D01*
X234198518Y-94530188D01*
X234078820Y-94566498D01*
X233968506Y-94625463D01*
X233924351Y-94661700D01*
X233778283Y-94583625D01*
X233616377Y-94534512D01*
X233448000Y-94517928D01*
X232998000Y-94517928D01*
X232829623Y-94534512D01*
X232667717Y-94583625D01*
X232518503Y-94663382D01*
X232387716Y-94770716D01*
X232280382Y-94901503D01*
X232200625Y-95050717D01*
X232151512Y-95212623D01*
X232134928Y-95381000D01*
X232134928Y-95644270D01*
X230495199Y-97284000D01*
X220868272Y-97284000D01*
X220868272Y-95999300D01*
X224748328Y-95999300D01*
X224760588Y-96123782D01*
X224796898Y-96243480D01*
X224855863Y-96353794D01*
X224935215Y-96450485D01*
X225031906Y-96529837D01*
X225142220Y-96588802D01*
X225261918Y-96625112D01*
X225386400Y-96637372D01*
X226599250Y-96634300D01*
X226758000Y-96475550D01*
X226758000Y-95631000D01*
X227012000Y-95631000D01*
X227012000Y-96475550D01*
X227170750Y-96634300D01*
X228383600Y-96637372D01*
X228508082Y-96625112D01*
X228627780Y-96588802D01*
X228738094Y-96529837D01*
X228834785Y-96450485D01*
X228914137Y-96353794D01*
X228973102Y-96243480D01*
X229009412Y-96123782D01*
X229021672Y-95999300D01*
X229018600Y-95789750D01*
X228859850Y-95631000D01*
X227012000Y-95631000D01*
X226758000Y-95631000D01*
X224910150Y-95631000D01*
X224751400Y-95789750D01*
X224748328Y-95999300D01*
X220868272Y-95999300D01*
X220868272Y-95008700D01*
X224748328Y-95008700D01*
X224751400Y-95218250D01*
X224910150Y-95377000D01*
X226758000Y-95377000D01*
X226758000Y-94532450D01*
X227012000Y-94532450D01*
X227012000Y-95377000D01*
X228859850Y-95377000D01*
X229018600Y-95218250D01*
X229021672Y-95008700D01*
X229009412Y-94884218D01*
X228973102Y-94764520D01*
X228914137Y-94654206D01*
X228834785Y-94557515D01*
X228738094Y-94478163D01*
X228627780Y-94419198D01*
X228508082Y-94382888D01*
X228383600Y-94370628D01*
X227170750Y-94373700D01*
X227012000Y-94532450D01*
X226758000Y-94532450D01*
X226599250Y-94373700D01*
X225386400Y-94370628D01*
X225261918Y-94382888D01*
X225142220Y-94419198D01*
X225031906Y-94478163D01*
X224935215Y-94557515D01*
X224855863Y-94654206D01*
X224796898Y-94764520D01*
X224760588Y-94884218D01*
X224748328Y-95008700D01*
X220868272Y-95008700D01*
X220868272Y-92875100D01*
X220856012Y-92750618D01*
X220819702Y-92630920D01*
X220760737Y-92520606D01*
X220681385Y-92423915D01*
X220584694Y-92344563D01*
X220474380Y-92285598D01*
X220354682Y-92249288D01*
X220230200Y-92237028D01*
X211518000Y-92237028D01*
X211393518Y-92249288D01*
X211273820Y-92285598D01*
X211163506Y-92344563D01*
X211066815Y-92423915D01*
X210987463Y-92520606D01*
X210928498Y-92630920D01*
X210892188Y-92750618D01*
X210879928Y-92875100D01*
X210879928Y-96656426D01*
X202296304Y-88072803D01*
X202272501Y-88043799D01*
X202156776Y-87948826D01*
X202024747Y-87878254D01*
X201881486Y-87834797D01*
X201769833Y-87823800D01*
X201769822Y-87823800D01*
X201732500Y-87820124D01*
X201695178Y-87823800D01*
X180750422Y-87823800D01*
X180713099Y-87820124D01*
X180675776Y-87823800D01*
X180675767Y-87823800D01*
X180564114Y-87834797D01*
X180420853Y-87878254D01*
X180288824Y-87948826D01*
X180173099Y-88043799D01*
X180149301Y-88072797D01*
X179197000Y-89025098D01*
X178302000Y-88130099D01*
X178302000Y-87969365D01*
X178334606Y-87942606D01*
X178367000Y-87903134D01*
X178399394Y-87942606D01*
X178526392Y-88046831D01*
X178671284Y-88124278D01*
X178828500Y-88171969D01*
X178992000Y-88188072D01*
X179392000Y-88188072D01*
X179555500Y-88171969D01*
X179712716Y-88124278D01*
X179857608Y-88046831D01*
X179984606Y-87942606D01*
X180088831Y-87815608D01*
X180166278Y-87670716D01*
X180213969Y-87513500D01*
X180230072Y-87350000D01*
X180230072Y-86800000D01*
X180213969Y-86636500D01*
X180166278Y-86479284D01*
X180088831Y-86334392D01*
X179984606Y-86207394D01*
X179857608Y-86103169D01*
X179712716Y-86025722D01*
X179555500Y-85978031D01*
X179392000Y-85961928D01*
X179153729Y-85961928D01*
X178946503Y-85754702D01*
X178922701Y-85725699D01*
X178806976Y-85630726D01*
X178674947Y-85560154D01*
X178531686Y-85516697D01*
X178420033Y-85505700D01*
X178420022Y-85505700D01*
X178382700Y-85502024D01*
X178345378Y-85505700D01*
X169816622Y-85505700D01*
X169779299Y-85502024D01*
X169741976Y-85505700D01*
X169741967Y-85505700D01*
X169630314Y-85516697D01*
X169487053Y-85560154D01*
X169355024Y-85630726D01*
X169355022Y-85630727D01*
X169355023Y-85630727D01*
X169268296Y-85701901D01*
X169268292Y-85701905D01*
X169239299Y-85725699D01*
X169215505Y-85754692D01*
X167890199Y-87080000D01*
X166936103Y-87080000D01*
X166967932Y-87003158D01*
X167025000Y-86716260D01*
X167025000Y-86423740D01*
X166967932Y-86136842D01*
X166855990Y-85866589D01*
X166693475Y-85623368D01*
X166486632Y-85416525D01*
X166254429Y-85261372D01*
X175325703Y-76190099D01*
X175354701Y-76166301D01*
X175386610Y-76127420D01*
X175556842Y-76197932D01*
X175843740Y-76255000D01*
X176136260Y-76255000D01*
X176423158Y-76197932D01*
X176693411Y-76085990D01*
X176936632Y-75923475D01*
X177143475Y-75716632D01*
X177265195Y-75534466D01*
X177334822Y-75651355D01*
X177529731Y-75867588D01*
X177763080Y-76041641D01*
X178025901Y-76166825D01*
X178173110Y-76211476D01*
X178403000Y-76090155D01*
X178403000Y-74897000D01*
X178383000Y-74897000D01*
X178383000Y-74643000D01*
X178403000Y-74643000D01*
X178403000Y-74623000D01*
X178657000Y-74623000D01*
X178657000Y-74643000D01*
X178677000Y-74643000D01*
X178677000Y-74897000D01*
X178657000Y-74897000D01*
X178657000Y-76090155D01*
X178886890Y-76211476D01*
X179034099Y-76166825D01*
X179296920Y-76041641D01*
X179530269Y-75867588D01*
X179725178Y-75651355D01*
X179794805Y-75534466D01*
X179916525Y-75716632D01*
X180123368Y-75923475D01*
X180366589Y-76085990D01*
X180636842Y-76197932D01*
X180923740Y-76255000D01*
X181216260Y-76255000D01*
X181503158Y-76197932D01*
X181773411Y-76085990D01*
X182016632Y-75923475D01*
X182223475Y-75716632D01*
X182340000Y-75542240D01*
X182456525Y-75716632D01*
X182663368Y-75923475D01*
X182906589Y-76085990D01*
X183176842Y-76197932D01*
X183463740Y-76255000D01*
X183756260Y-76255000D01*
X184043158Y-76197932D01*
X184313411Y-76085990D01*
X184556632Y-75923475D01*
X184763475Y-75716632D01*
X184880000Y-75542240D01*
X184996525Y-75716632D01*
X185203368Y-75923475D01*
X185446589Y-76085990D01*
X185716842Y-76197932D01*
X186003740Y-76255000D01*
X186296260Y-76255000D01*
X186583158Y-76197932D01*
X186853411Y-76085990D01*
X187096632Y-75923475D01*
X187303475Y-75716632D01*
X187420000Y-75542240D01*
X187536525Y-75716632D01*
X187743368Y-75923475D01*
X187986589Y-76085990D01*
X188256842Y-76197932D01*
X188543740Y-76255000D01*
X188836260Y-76255000D01*
X189123158Y-76197932D01*
X189393411Y-76085990D01*
X189636632Y-75923475D01*
X189843475Y-75716632D01*
X189960000Y-75542240D01*
X190076525Y-75716632D01*
X190283368Y-75923475D01*
X190526589Y-76085990D01*
X190796842Y-76197932D01*
X191083740Y-76255000D01*
X191376260Y-76255000D01*
X191663158Y-76197932D01*
X191933411Y-76085990D01*
X192176632Y-75923475D01*
X192383475Y-75716632D01*
X192500000Y-75542240D01*
X192616525Y-75716632D01*
X192823368Y-75923475D01*
X193066589Y-76085990D01*
X193336842Y-76197932D01*
X193623740Y-76255000D01*
X193916260Y-76255000D01*
X194203158Y-76197932D01*
X194473411Y-76085990D01*
X194716632Y-75923475D01*
X194923475Y-75716632D01*
X195040000Y-75542240D01*
X195156525Y-75716632D01*
X195363368Y-75923475D01*
X195606589Y-76085990D01*
X195876842Y-76197932D01*
X196163740Y-76255000D01*
X196456260Y-76255000D01*
X196743158Y-76197932D01*
X197013411Y-76085990D01*
X197242690Y-75932791D01*
X207493300Y-86183402D01*
X207517099Y-86212401D01*
X207546097Y-86236199D01*
X207632823Y-86307374D01*
X207720082Y-86354015D01*
X207764853Y-86377946D01*
X207908114Y-86421403D01*
X208019767Y-86432400D01*
X208019777Y-86432400D01*
X208057100Y-86436076D01*
X208094423Y-86432400D01*
X213823700Y-86432400D01*
X213823700Y-86604939D01*
X213863474Y-86804898D01*
X213941495Y-86993256D01*
X214054763Y-87162774D01*
X214198926Y-87306937D01*
X214368444Y-87420205D01*
X214556802Y-87498226D01*
X214756761Y-87538000D01*
X214819948Y-87538000D01*
X214851574Y-87696998D01*
X214929595Y-87885356D01*
X215042863Y-88054874D01*
X215187026Y-88199037D01*
X215356544Y-88312305D01*
X215544902Y-88390326D01*
X215620200Y-88405304D01*
X215620200Y-88591739D01*
X215659974Y-88791698D01*
X215737995Y-88980056D01*
X215851263Y-89149574D01*
X215995426Y-89293737D01*
X216164944Y-89407005D01*
X216353302Y-89485026D01*
X216553261Y-89524800D01*
X216757139Y-89524800D01*
X216957098Y-89485026D01*
X217145456Y-89407005D01*
X217314974Y-89293737D01*
X217358911Y-89249800D01*
X229769699Y-89249800D01*
X235049824Y-94529926D01*
X234900000Y-94679750D01*
X234900000Y-95504000D01*
X235699250Y-95504000D01*
X235858000Y-95345250D01*
X235858114Y-95338216D01*
X237760901Y-97241003D01*
X237784699Y-97270001D01*
X237813697Y-97293799D01*
X237900424Y-97364974D01*
X238032453Y-97435546D01*
X238175714Y-97479003D01*
X238217204Y-97483089D01*
X238346525Y-97676632D01*
X238553368Y-97883475D01*
X238727760Y-98000000D01*
X238553368Y-98116525D01*
X238346525Y-98323368D01*
X238184010Y-98566589D01*
X238072068Y-98836842D01*
X238015000Y-99123740D01*
X238015000Y-99416260D01*
X238072068Y-99703158D01*
X238184010Y-99973411D01*
X238346525Y-100216632D01*
X238553368Y-100423475D01*
X238727760Y-100540000D01*
X238553368Y-100656525D01*
X238346525Y-100863368D01*
X238184010Y-101106589D01*
X238072068Y-101376842D01*
X238015000Y-101663740D01*
X238015000Y-101956260D01*
X238072068Y-102243158D01*
X238184010Y-102513411D01*
X238346525Y-102756632D01*
X238553368Y-102963475D01*
X238727760Y-103080000D01*
X238553368Y-103196525D01*
X238346525Y-103403368D01*
X238184010Y-103646589D01*
X238072068Y-103916842D01*
X238015000Y-104203740D01*
X238015000Y-104496260D01*
X238072068Y-104783158D01*
X238184010Y-105053411D01*
X238346525Y-105296632D01*
X238553368Y-105503475D01*
X238735534Y-105625195D01*
X238618645Y-105694822D01*
X238402412Y-105889731D01*
X238228359Y-106123080D01*
X238103175Y-106385901D01*
X238058524Y-106533110D01*
X238179845Y-106763000D01*
X239373000Y-106763000D01*
X239373000Y-106743000D01*
X239627000Y-106743000D01*
X239627000Y-106763000D01*
X239647000Y-106763000D01*
X239647000Y-107017000D01*
X239627000Y-107017000D01*
X239627000Y-107037000D01*
X239373000Y-107037000D01*
X239373000Y-107017000D01*
X238179845Y-107017000D01*
X238058524Y-107246890D01*
X238103175Y-107394099D01*
X238228359Y-107656920D01*
X238402412Y-107890269D01*
X238618645Y-108085178D01*
X238735534Y-108154805D01*
X238553368Y-108276525D01*
X238346525Y-108483368D01*
X238184010Y-108726589D01*
X238072068Y-108996842D01*
X238015000Y-109283740D01*
X238015000Y-109576260D01*
X238072068Y-109863158D01*
X238184010Y-110133411D01*
X238346525Y-110376632D01*
X238553368Y-110583475D01*
X238727760Y-110700000D01*
X238553368Y-110816525D01*
X238346525Y-111023368D01*
X238184010Y-111266589D01*
X238072068Y-111536842D01*
X238015000Y-111823740D01*
X238015000Y-112116260D01*
X238072068Y-112403158D01*
X238184010Y-112673411D01*
X238346525Y-112916632D01*
X238553368Y-113123475D01*
X238796589Y-113285990D01*
X239066842Y-113397932D01*
X239353740Y-113455000D01*
X239646260Y-113455000D01*
X239933158Y-113397932D01*
X240203411Y-113285990D01*
X240446632Y-113123475D01*
X240653475Y-112916632D01*
X240770000Y-112742240D01*
X240886525Y-112916632D01*
X241093368Y-113123475D01*
X241336589Y-113285990D01*
X241606842Y-113397932D01*
X241893740Y-113455000D01*
X242186260Y-113455000D01*
X242473158Y-113397932D01*
X242743411Y-113285990D01*
X242986632Y-113123475D01*
X243193475Y-112916632D01*
X243355990Y-112673411D01*
X243467932Y-112403158D01*
X243525000Y-112116260D01*
X243525000Y-111823740D01*
X243467932Y-111536842D01*
X243355990Y-111266589D01*
X243193475Y-111023368D01*
X242986632Y-110816525D01*
X242812240Y-110700000D01*
X242986632Y-110583475D01*
X243193475Y-110376632D01*
X243355990Y-110133411D01*
X243467932Y-109863158D01*
X243525000Y-109576260D01*
X243525000Y-109283740D01*
X243467932Y-108996842D01*
X243355990Y-108726589D01*
X243193475Y-108483368D01*
X242986632Y-108276525D01*
X242812240Y-108160000D01*
X242986632Y-108043475D01*
X243193475Y-107836632D01*
X243355990Y-107593411D01*
X243467932Y-107323158D01*
X243525000Y-107036260D01*
X243525000Y-106743740D01*
X243467932Y-106456842D01*
X243355990Y-106186589D01*
X243193475Y-105943368D01*
X242986632Y-105736525D01*
X242812240Y-105620000D01*
X242986632Y-105503475D01*
X243193475Y-105296632D01*
X243355990Y-105053411D01*
X243467932Y-104783158D01*
X243525000Y-104496260D01*
X243525000Y-104203740D01*
X243467932Y-103916842D01*
X243355990Y-103646589D01*
X243193475Y-103403368D01*
X242986632Y-103196525D01*
X242812240Y-103080000D01*
X242986632Y-102963475D01*
X243193475Y-102756632D01*
X243355990Y-102513411D01*
X243467932Y-102243158D01*
X243525000Y-101956260D01*
X243525000Y-101663740D01*
X243467932Y-101376842D01*
X243355990Y-101106589D01*
X243217531Y-100899370D01*
X243726302Y-100390599D01*
X243755301Y-100366801D01*
X243789606Y-100325000D01*
X243850274Y-100251077D01*
X243920846Y-100119047D01*
X243928232Y-100094699D01*
X243964303Y-99975786D01*
X243975300Y-99864133D01*
X243975300Y-99864124D01*
X243978976Y-99826801D01*
X243975300Y-99789478D01*
X243975300Y-83577322D01*
X243978976Y-83539999D01*
X243975300Y-83502676D01*
X243975300Y-83502667D01*
X243964303Y-83391014D01*
X243920846Y-83247753D01*
X243887126Y-83184668D01*
X243850274Y-83115723D01*
X243779099Y-83028997D01*
X243755301Y-82999999D01*
X243726304Y-82976202D01*
X237014504Y-76264403D01*
X236990701Y-76235399D01*
X236874976Y-76140426D01*
X236742947Y-76069854D01*
X236599686Y-76026397D01*
X236488033Y-76015400D01*
X236488022Y-76015400D01*
X236450700Y-76011724D01*
X236413378Y-76015400D01*
X223326852Y-76015400D01*
X223395447Y-75969670D01*
X223401200Y-75965600D01*
X223501200Y-75890600D01*
X223514803Y-75878803D01*
X223789803Y-75603803D01*
X223797564Y-75595303D01*
X224047564Y-75295303D01*
X224055670Y-75284447D01*
X224205670Y-75059447D01*
X224210267Y-75052010D01*
X224310267Y-74877010D01*
X224316731Y-74864028D01*
X224391731Y-74689028D01*
X224395483Y-74679161D01*
X224444739Y-74531393D01*
X224518914Y-74333593D01*
X224524181Y-74315610D01*
X224599181Y-73965610D01*
X224601223Y-73953025D01*
X224626223Y-73728025D01*
X224627000Y-73714000D01*
X224627000Y-73339000D01*
X224626370Y-73326363D01*
X224601370Y-73076363D01*
X224600272Y-73068121D01*
X224575272Y-72918121D01*
X224572525Y-72905584D01*
X224497525Y-72630584D01*
X224494601Y-72621285D01*
X224369601Y-72271285D01*
X224366731Y-72263972D01*
X224291731Y-72088972D01*
X224283902Y-72073659D01*
X224133902Y-71823659D01*
X224128344Y-71815183D01*
X224003344Y-71640183D01*
X223997564Y-71632697D01*
X223872564Y-71482697D01*
X223870577Y-71480370D01*
X223695577Y-71280370D01*
X223683630Y-71268423D01*
X223483630Y-71093423D01*
X223471715Y-71084186D01*
X222996715Y-70759186D01*
X222976580Y-70747946D01*
X222778701Y-70660000D01*
X238433000Y-70660000D01*
X238433000Y-73760000D01*
X238434276Y-73777961D01*
X238454276Y-73917961D01*
X238455049Y-73922718D01*
X238474613Y-74030320D01*
X238484276Y-74097961D01*
X238486024Y-74107550D01*
X238505287Y-74194235D01*
X238524728Y-74310879D01*
X238531465Y-74335590D01*
X238580428Y-74462893D01*
X238619517Y-74580161D01*
X238622083Y-74587167D01*
X238662083Y-74687167D01*
X238663269Y-74690028D01*
X238723269Y-74830028D01*
X238729439Y-74842491D01*
X238859439Y-75072491D01*
X238863170Y-75078676D01*
X238953170Y-75218676D01*
X238955958Y-75222830D01*
X239024054Y-75320110D01*
X239072304Y-75397310D01*
X239080830Y-75409336D01*
X239120830Y-75459336D01*
X239126381Y-75465817D01*
X239236381Y-75585817D01*
X239240197Y-75589803D01*
X239360197Y-75709803D01*
X239367349Y-75716426D01*
X239433646Y-75773252D01*
X239490197Y-75829803D01*
X239498697Y-75837564D01*
X239558697Y-75887564D01*
X239565302Y-75892709D01*
X239674532Y-75972149D01*
X239793800Y-76061600D01*
X239807737Y-76070690D01*
X239967737Y-76160690D01*
X239968323Y-76161018D01*
X240148323Y-76261018D01*
X240161154Y-76267231D01*
X240281154Y-76317231D01*
X240286095Y-76319170D01*
X240476095Y-76389170D01*
X240479839Y-76390483D01*
X240629839Y-76440483D01*
X240637679Y-76442818D01*
X240827679Y-76492818D01*
X240831443Y-76493748D01*
X240961443Y-76523748D01*
X240974248Y-76526019D01*
X241214248Y-76556019D01*
X241222078Y-76556753D01*
X241382078Y-76566753D01*
X241390000Y-76567000D01*
X241509717Y-76567000D01*
X244340000Y-76573304D01*
X244340001Y-119413000D01*
X241230000Y-119413000D01*
X241212039Y-119414276D01*
X241072039Y-119434276D01*
X241067282Y-119435049D01*
X240959680Y-119454613D01*
X240892039Y-119464276D01*
X240882450Y-119466024D01*
X240795765Y-119485287D01*
X240679121Y-119504728D01*
X240654410Y-119511465D01*
X240527107Y-119560428D01*
X240409839Y-119599517D01*
X240402833Y-119602083D01*
X240302833Y-119642083D01*
X240299972Y-119643269D01*
X240159972Y-119703269D01*
X240147509Y-119709439D01*
X239917509Y-119839439D01*
X239911324Y-119843170D01*
X239771324Y-119933170D01*
X239767170Y-119935958D01*
X239669890Y-120004054D01*
X239592690Y-120052304D01*
X239580664Y-120060830D01*
X239530664Y-120100830D01*
X239524183Y-120106381D01*
X239404183Y-120216381D01*
X239400197Y-120220197D01*
X239280197Y-120340197D01*
X239273574Y-120347349D01*
X239216748Y-120413646D01*
X239160197Y-120470197D01*
X239152436Y-120478697D01*
X239102436Y-120538697D01*
X239097291Y-120545302D01*
X239017851Y-120654532D01*
X238928400Y-120773800D01*
X238919310Y-120787737D01*
X238829310Y-120947737D01*
X238828982Y-120948323D01*
X238728982Y-121128323D01*
X238722769Y-121141154D01*
X238672769Y-121261154D01*
X238670830Y-121266095D01*
X238600830Y-121456095D01*
X238599517Y-121459839D01*
X238549517Y-121609839D01*
X238547182Y-121617679D01*
X238497182Y-121807679D01*
X238496252Y-121811443D01*
X238466252Y-121941443D01*
X238463981Y-121954248D01*
X238433981Y-122194248D01*
X238433247Y-122202078D01*
X238423247Y-122362078D01*
X238423000Y-122370000D01*
X238423000Y-122489717D01*
X238416652Y-125340000D01*
X222753702Y-125340000D01*
X222951580Y-125252054D01*
X222956796Y-125249592D01*
X223156796Y-125149592D01*
X223170447Y-125141670D01*
X223395447Y-124991670D01*
X223401200Y-124987600D01*
X223501200Y-124912600D01*
X223514803Y-124900803D01*
X223789803Y-124625803D01*
X223797564Y-124617303D01*
X224047564Y-124317303D01*
X224055670Y-124306447D01*
X224173968Y-124129000D01*
X232091928Y-124129000D01*
X232104188Y-124253482D01*
X232140498Y-124373180D01*
X232199463Y-124483494D01*
X232278815Y-124580185D01*
X232375506Y-124659537D01*
X232485820Y-124718502D01*
X232605518Y-124754812D01*
X232730000Y-124767072D01*
X233069250Y-124764000D01*
X233228000Y-124605250D01*
X233228000Y-123381000D01*
X233482000Y-123381000D01*
X233482000Y-124605250D01*
X233640750Y-124764000D01*
X233980000Y-124767072D01*
X234104482Y-124754812D01*
X234224180Y-124718502D01*
X234334494Y-124659537D01*
X234431185Y-124580185D01*
X234510537Y-124483494D01*
X234569502Y-124373180D01*
X234605812Y-124253482D01*
X234618072Y-124129000D01*
X234615000Y-123539750D01*
X234456250Y-123381000D01*
X233482000Y-123381000D01*
X233228000Y-123381000D01*
X232253750Y-123381000D01*
X232095000Y-123539750D01*
X232091928Y-124129000D01*
X224173968Y-124129000D01*
X224205670Y-124081447D01*
X224210267Y-124074010D01*
X224310267Y-123899010D01*
X224316731Y-123886028D01*
X224391731Y-123711028D01*
X224395483Y-123701161D01*
X224444739Y-123553393D01*
X224518914Y-123355593D01*
X224524181Y-123337610D01*
X224599181Y-122987610D01*
X224601223Y-122975025D01*
X224626223Y-122750025D01*
X224627000Y-122736000D01*
X224627000Y-122379000D01*
X232091928Y-122379000D01*
X232095000Y-122968250D01*
X232253750Y-123127000D01*
X233228000Y-123127000D01*
X233228000Y-121902750D01*
X233069250Y-121744000D01*
X232730000Y-121740928D01*
X232605518Y-121753188D01*
X232485820Y-121789498D01*
X232375506Y-121848463D01*
X232278815Y-121927815D01*
X232199463Y-122024506D01*
X232140498Y-122134820D01*
X232104188Y-122254518D01*
X232091928Y-122379000D01*
X224627000Y-122379000D01*
X224627000Y-122361000D01*
X224626370Y-122348363D01*
X224601370Y-122098363D01*
X224600272Y-122090121D01*
X224575272Y-121940121D01*
X224572525Y-121927584D01*
X224497525Y-121652584D01*
X224494601Y-121643285D01*
X224369601Y-121293285D01*
X224366731Y-121285972D01*
X224291731Y-121110972D01*
X224283902Y-121095659D01*
X224133902Y-120845659D01*
X224128344Y-120837183D01*
X224003344Y-120662183D01*
X223997564Y-120654697D01*
X223872564Y-120504697D01*
X223870577Y-120502370D01*
X223695577Y-120302370D01*
X223683630Y-120290423D01*
X223483630Y-120115423D01*
X223471715Y-120106186D01*
X222996715Y-119781186D01*
X222976580Y-119769946D01*
X222751580Y-119669946D01*
X222744593Y-119667086D01*
X222544593Y-119592086D01*
X222530802Y-119587792D01*
X222230802Y-119512792D01*
X222224907Y-119511466D01*
X221974907Y-119461466D01*
X221962637Y-119459630D01*
X221712637Y-119434630D01*
X221700000Y-119434000D01*
X221350000Y-119434000D01*
X221332039Y-119435276D01*
X220982039Y-119485276D01*
X220969198Y-119487792D01*
X220769198Y-119537792D01*
X220759839Y-119540517D01*
X220609839Y-119590517D01*
X220605407Y-119592086D01*
X220205407Y-119742086D01*
X220186990Y-119750733D01*
X220011990Y-119850733D01*
X220004553Y-119855330D01*
X219704553Y-120055330D01*
X219695664Y-120061830D01*
X219570664Y-120161830D01*
X219560197Y-120171197D01*
X219285197Y-120446197D01*
X219275830Y-120456664D01*
X219075830Y-120706664D01*
X219070582Y-120713710D01*
X218845582Y-121038710D01*
X218836408Y-121054204D01*
X218786408Y-121154204D01*
X218782083Y-121163833D01*
X218732083Y-121288833D01*
X218731086Y-121291407D01*
X218656575Y-121490103D01*
X218607083Y-121613833D01*
X218601792Y-121630198D01*
X218576792Y-121730198D01*
X218576024Y-121733450D01*
X218526024Y-121958450D01*
X218524276Y-121968039D01*
X218499276Y-122143039D01*
X218498000Y-122161000D01*
X218498000Y-122886000D01*
X218500466Y-122910907D01*
X218575466Y-123285907D01*
X218577886Y-123295890D01*
X218627886Y-123470890D01*
X218632083Y-123483167D01*
X218681575Y-123606897D01*
X218756086Y-123805593D01*
X218766098Y-123826341D01*
X218838593Y-123947166D01*
X218886408Y-124042796D01*
X218891098Y-124051341D01*
X218966098Y-124176341D01*
X218973400Y-124187200D01*
X219048400Y-124287200D01*
X219053050Y-124293035D01*
X219328050Y-124618035D01*
X219335197Y-124625803D01*
X219585197Y-124875803D01*
X219593697Y-124883564D01*
X219743697Y-125008564D01*
X219758440Y-125019161D01*
X220083440Y-125219161D01*
X220093204Y-125224592D01*
X220324020Y-125340000D01*
X166577000Y-125340000D01*
X166577000Y-122467000D01*
X169326928Y-122467000D01*
X169326928Y-124167000D01*
X169339188Y-124291482D01*
X169375498Y-124411180D01*
X169434463Y-124521494D01*
X169513815Y-124618185D01*
X169610506Y-124697537D01*
X169720820Y-124756502D01*
X169840518Y-124792812D01*
X169965000Y-124805072D01*
X171665000Y-124805072D01*
X171789482Y-124792812D01*
X171909180Y-124756502D01*
X172019494Y-124697537D01*
X172116185Y-124618185D01*
X172195537Y-124521494D01*
X172254502Y-124411180D01*
X172276513Y-124338620D01*
X172408368Y-124470475D01*
X172651589Y-124632990D01*
X172921842Y-124744932D01*
X173208740Y-124802000D01*
X173501260Y-124802000D01*
X173788158Y-124744932D01*
X174058411Y-124632990D01*
X174301632Y-124470475D01*
X174508475Y-124263632D01*
X174670990Y-124020411D01*
X174782932Y-123750158D01*
X174840000Y-123463260D01*
X174840000Y-123170740D01*
X174782932Y-122883842D01*
X174670990Y-122613589D01*
X174508475Y-122370368D01*
X174301632Y-122163525D01*
X174127240Y-122047000D01*
X174301632Y-121930475D01*
X174508475Y-121723632D01*
X174670990Y-121480411D01*
X174782932Y-121210158D01*
X174840000Y-120923260D01*
X174840000Y-120630740D01*
X174782932Y-120343842D01*
X174670990Y-120073589D01*
X174508475Y-119830368D01*
X174301632Y-119623525D01*
X174058411Y-119461010D01*
X173788158Y-119349068D01*
X173501260Y-119292000D01*
X173208740Y-119292000D01*
X172921842Y-119349068D01*
X172651589Y-119461010D01*
X172408368Y-119623525D01*
X172201525Y-119830368D01*
X172085000Y-120004760D01*
X171968475Y-119830368D01*
X171761632Y-119623525D01*
X171518411Y-119461010D01*
X171248158Y-119349068D01*
X170961260Y-119292000D01*
X170668740Y-119292000D01*
X170381842Y-119349068D01*
X170111589Y-119461010D01*
X169868368Y-119623525D01*
X169661525Y-119830368D01*
X169499010Y-120073589D01*
X169387068Y-120343842D01*
X169330000Y-120630740D01*
X169330000Y-120923260D01*
X169387068Y-121210158D01*
X169499010Y-121480411D01*
X169661525Y-121723632D01*
X169793380Y-121855487D01*
X169720820Y-121877498D01*
X169610506Y-121936463D01*
X169513815Y-122015815D01*
X169434463Y-122112506D01*
X169375498Y-122222820D01*
X169339188Y-122342518D01*
X169326928Y-122467000D01*
X166577000Y-122467000D01*
X166577000Y-122230000D01*
X166575724Y-122212039D01*
X166555724Y-122072039D01*
X166554951Y-122067282D01*
X166535387Y-121959680D01*
X166525724Y-121892039D01*
X166523976Y-121882450D01*
X166504713Y-121795765D01*
X166485272Y-121679121D01*
X166478535Y-121654410D01*
X166429573Y-121527108D01*
X166390483Y-121409839D01*
X166387917Y-121402833D01*
X166347917Y-121302833D01*
X166346731Y-121299972D01*
X166286731Y-121159972D01*
X166280561Y-121147509D01*
X166150561Y-120917509D01*
X166146830Y-120911324D01*
X166056830Y-120771324D01*
X166054042Y-120767170D01*
X165985946Y-120669890D01*
X165937696Y-120592690D01*
X165929170Y-120580664D01*
X165889170Y-120530664D01*
X165883619Y-120524183D01*
X165773619Y-120404183D01*
X165769803Y-120400197D01*
X165649803Y-120280197D01*
X165642651Y-120273574D01*
X165576354Y-120216748D01*
X165519803Y-120160197D01*
X165511303Y-120152436D01*
X165451303Y-120102436D01*
X165444698Y-120097291D01*
X165335468Y-120017851D01*
X165216200Y-119928400D01*
X165202263Y-119919310D01*
X165042263Y-119829310D01*
X165041677Y-119828982D01*
X164861677Y-119728982D01*
X164848846Y-119722769D01*
X164728846Y-119672769D01*
X164723905Y-119670830D01*
X164533905Y-119600830D01*
X164530161Y-119599517D01*
X164380161Y-119549517D01*
X164372321Y-119547182D01*
X164182321Y-119497182D01*
X164178557Y-119496252D01*
X164048557Y-119466252D01*
X164035752Y-119463981D01*
X163795752Y-119433981D01*
X163787922Y-119433247D01*
X163627922Y-119423247D01*
X163620000Y-119423000D01*
X163500283Y-119423000D01*
X160660000Y-119416674D01*
X160660000Y-76577000D01*
X163760000Y-76577000D01*
X163777961Y-76575724D01*
X163917961Y-76555724D01*
X163922718Y-76554951D01*
X164030320Y-76535387D01*
X164097961Y-76525724D01*
X164107550Y-76523976D01*
X164194235Y-76504713D01*
X164310879Y-76485272D01*
X164335590Y-76478535D01*
X164462892Y-76429573D01*
X164580161Y-76390483D01*
X164587167Y-76387917D01*
X164687167Y-76347917D01*
X164690028Y-76346731D01*
X164830028Y-76286731D01*
X164842491Y-76280561D01*
X165072491Y-76150561D01*
X165078676Y-76146830D01*
X165218676Y-76056830D01*
X165222830Y-76054042D01*
X165320110Y-75985946D01*
X165397310Y-75937696D01*
X165409336Y-75929170D01*
X165459336Y-75889170D01*
X165465817Y-75883619D01*
X165585817Y-75773619D01*
X165589803Y-75769803D01*
X165709803Y-75649803D01*
X165716426Y-75642651D01*
X165773252Y-75576354D01*
X165829803Y-75519803D01*
X165837564Y-75511303D01*
X165887564Y-75451303D01*
X165892709Y-75444698D01*
X165972149Y-75335468D01*
X166061600Y-75216200D01*
X166070690Y-75202263D01*
X166160690Y-75042263D01*
X166161018Y-75041677D01*
X166261018Y-74861677D01*
X166267231Y-74848846D01*
X166317231Y-74728846D01*
X166319170Y-74723905D01*
X166389170Y-74533905D01*
X166390483Y-74530161D01*
X166440483Y-74380161D01*
X166442818Y-74372321D01*
X166492818Y-74182321D01*
X166493748Y-74178557D01*
X166523748Y-74048557D01*
X166526019Y-74035752D01*
X166556019Y-73795752D01*
X166556753Y-73787922D01*
X166566753Y-73627922D01*
X166567000Y-73620000D01*
X166567000Y-73500283D01*
X166573326Y-70660000D01*
X195073198Y-70660000D01*
X194680690Y-71052509D01*
G37*
%TD.AperFunction*%
D17*
X165667000Y-101683000D02*
X165687000Y-101683000D01*
X165687000Y-101937000D01*
X165667000Y-101937000D01*
X165667000Y-101957000D01*
X165413000Y-101957000D01*
X165413000Y-101937000D01*
X165393000Y-101937000D01*
X165393000Y-101683000D01*
X165413000Y-101683000D01*
X165413000Y-101663000D01*
X165667000Y-101663000D01*
X165667000Y-101683000D01*
%TA.AperFunction,Conductor*%
D18*
G36*
X165667000Y-101683000D02*
G01*
X165687000Y-101683000D01*
X165687000Y-101937000D01*
X165667000Y-101937000D01*
X165667000Y-101957000D01*
X165413000Y-101957000D01*
X165413000Y-101937000D01*
X165393000Y-101937000D01*
X165393000Y-101683000D01*
X165413000Y-101683000D01*
X165413000Y-101663000D01*
X165667000Y-101663000D01*
X165667000Y-101683000D01*
G37*
%TD.AperFunction*%
D17*
X242167000Y-99143000D02*
X242187000Y-99143000D01*
X242187000Y-99397000D01*
X242167000Y-99397000D01*
X242167000Y-99417000D01*
X241913000Y-99417000D01*
X241913000Y-99397000D01*
X241893000Y-99397000D01*
X241893000Y-99143000D01*
X241913000Y-99143000D01*
X241913000Y-99123000D01*
X242167000Y-99123000D01*
X242167000Y-99143000D01*
%TA.AperFunction,Conductor*%
D18*
G36*
X242167000Y-99143000D02*
G01*
X242187000Y-99143000D01*
X242187000Y-99397000D01*
X242167000Y-99397000D01*
X242167000Y-99417000D01*
X241913000Y-99417000D01*
X241913000Y-99397000D01*
X241893000Y-99397000D01*
X241893000Y-99143000D01*
X241913000Y-99143000D01*
X241913000Y-99123000D01*
X242167000Y-99123000D01*
X242167000Y-99143000D01*
G37*
%TD.AperFunction*%
D17*
X242167000Y-94063000D02*
X242187000Y-94063000D01*
X242187000Y-94317000D01*
X242167000Y-94317000D01*
X242167000Y-94337000D01*
X241913000Y-94337000D01*
X241913000Y-94317000D01*
X241893000Y-94317000D01*
X241893000Y-94063000D01*
X241913000Y-94063000D01*
X241913000Y-94043000D01*
X242167000Y-94043000D01*
X242167000Y-94063000D01*
%TA.AperFunction,Conductor*%
D18*
G36*
X242167000Y-94063000D02*
G01*
X242187000Y-94063000D01*
X242187000Y-94317000D01*
X242167000Y-94317000D01*
X242167000Y-94337000D01*
X241913000Y-94337000D01*
X241913000Y-94317000D01*
X241893000Y-94317000D01*
X241893000Y-94063000D01*
X241913000Y-94063000D01*
X241913000Y-94043000D01*
X242167000Y-94043000D01*
X242167000Y-94063000D01*
G37*
%TD.AperFunction*%
D17*
X178437001Y-90414704D02*
X178437001Y-90926634D01*
X178404394Y-90953394D01*
X178372000Y-90992866D01*
X178339606Y-90953394D01*
X178212608Y-90849169D01*
X178067716Y-90771722D01*
X177910500Y-90724031D01*
X177747000Y-90707928D01*
X177347000Y-90707928D01*
X177183500Y-90724031D01*
X177026284Y-90771722D01*
X176881392Y-90849169D01*
X176754394Y-90953394D01*
X176650169Y-91080392D01*
X176572722Y-91225284D01*
X176525031Y-91382500D01*
X176508928Y-91546000D01*
X176508928Y-91784270D01*
X176227899Y-92065300D01*
X166963759Y-92065300D01*
X166981476Y-92006890D01*
X166860155Y-91777000D01*
X165667000Y-91777000D01*
X165667000Y-91797000D01*
X165413000Y-91797000D01*
X165413000Y-91777000D01*
X165393000Y-91777000D01*
X165393000Y-91523000D01*
X165413000Y-91523000D01*
X165413000Y-91503000D01*
X165667000Y-91503000D01*
X165667000Y-91523000D01*
X166860155Y-91523000D01*
X166981476Y-91293110D01*
X166936825Y-91145901D01*
X166811641Y-90883080D01*
X166637588Y-90649731D01*
X166421355Y-90454822D01*
X166304466Y-90385195D01*
X166486632Y-90263475D01*
X166693475Y-90056632D01*
X166822796Y-89863089D01*
X166864286Y-89859003D01*
X167007547Y-89815546D01*
X167139576Y-89744974D01*
X167255301Y-89650001D01*
X167279103Y-89620998D01*
X167695202Y-89204900D01*
X177227199Y-89204900D01*
X178437001Y-90414704D01*
%TA.AperFunction,Conductor*%
D18*
G36*
X178437001Y-90414704D02*
G01*
X178437001Y-90926634D01*
X178404394Y-90953394D01*
X178372000Y-90992866D01*
X178339606Y-90953394D01*
X178212608Y-90849169D01*
X178067716Y-90771722D01*
X177910500Y-90724031D01*
X177747000Y-90707928D01*
X177347000Y-90707928D01*
X177183500Y-90724031D01*
X177026284Y-90771722D01*
X176881392Y-90849169D01*
X176754394Y-90953394D01*
X176650169Y-91080392D01*
X176572722Y-91225284D01*
X176525031Y-91382500D01*
X176508928Y-91546000D01*
X176508928Y-91784270D01*
X176227899Y-92065300D01*
X166963759Y-92065300D01*
X166981476Y-92006890D01*
X166860155Y-91777000D01*
X165667000Y-91777000D01*
X165667000Y-91797000D01*
X165413000Y-91797000D01*
X165413000Y-91777000D01*
X165393000Y-91777000D01*
X165393000Y-91523000D01*
X165413000Y-91523000D01*
X165413000Y-91503000D01*
X165667000Y-91503000D01*
X165667000Y-91523000D01*
X166860155Y-91523000D01*
X166981476Y-91293110D01*
X166936825Y-91145901D01*
X166811641Y-90883080D01*
X166637588Y-90649731D01*
X166421355Y-90454822D01*
X166304466Y-90385195D01*
X166486632Y-90263475D01*
X166693475Y-90056632D01*
X166822796Y-89863089D01*
X166864286Y-89859003D01*
X167007547Y-89815546D01*
X167139576Y-89744974D01*
X167255301Y-89650001D01*
X167279103Y-89620998D01*
X167695202Y-89204900D01*
X177227199Y-89204900D01*
X178437001Y-90414704D01*
G37*
%TD.AperFunction*%
D17*
X237760901Y-87081002D02*
X237784699Y-87110001D01*
X237900424Y-87204974D01*
X238032453Y-87275546D01*
X238175714Y-87319003D01*
X238217204Y-87323089D01*
X238346525Y-87516632D01*
X238553368Y-87723475D01*
X238735534Y-87845195D01*
X238618645Y-87914822D01*
X238402412Y-88109731D01*
X238228359Y-88343080D01*
X238103175Y-88605901D01*
X238058524Y-88753110D01*
X238179845Y-88983000D01*
X239373000Y-88983000D01*
X239373000Y-88963000D01*
X239627000Y-88963000D01*
X239627000Y-88983000D01*
X239647000Y-88983000D01*
X239647000Y-89237000D01*
X239627000Y-89237000D01*
X239627000Y-89257000D01*
X239373000Y-89257000D01*
X239373000Y-89237000D01*
X238179845Y-89237000D01*
X238058524Y-89466890D01*
X238103175Y-89614099D01*
X238151092Y-89714700D01*
X238004302Y-89714700D01*
X234881301Y-86591700D01*
X237271599Y-86591700D01*
X237760901Y-87081002D01*
%TA.AperFunction,Conductor*%
D18*
G36*
X237760901Y-87081002D02*
G01*
X237784699Y-87110001D01*
X237900424Y-87204974D01*
X238032453Y-87275546D01*
X238175714Y-87319003D01*
X238217204Y-87323089D01*
X238346525Y-87516632D01*
X238553368Y-87723475D01*
X238735534Y-87845195D01*
X238618645Y-87914822D01*
X238402412Y-88109731D01*
X238228359Y-88343080D01*
X238103175Y-88605901D01*
X238058524Y-88753110D01*
X238179845Y-88983000D01*
X239373000Y-88983000D01*
X239373000Y-88963000D01*
X239627000Y-88963000D01*
X239627000Y-88983000D01*
X239647000Y-88983000D01*
X239647000Y-89237000D01*
X239627000Y-89237000D01*
X239627000Y-89257000D01*
X239373000Y-89257000D01*
X239373000Y-89237000D01*
X238179845Y-89237000D01*
X238058524Y-89466890D01*
X238103175Y-89614099D01*
X238151092Y-89714700D01*
X238004302Y-89714700D01*
X234881301Y-86591700D01*
X237271599Y-86591700D01*
X237760901Y-87081002D01*
G37*
%TD.AperFunction*%
D17*
X219348645Y-78444822D02*
X219132412Y-78639731D01*
X218958359Y-78873080D01*
X218833175Y-79135901D01*
X218788524Y-79283110D01*
X218909845Y-79513000D01*
X220103000Y-79513000D01*
X220103000Y-79493000D01*
X220357000Y-79493000D01*
X220357000Y-79513000D01*
X220377000Y-79513000D01*
X220377000Y-79767000D01*
X220357000Y-79767000D01*
X220357000Y-82053000D01*
X220377000Y-82053000D01*
X220377000Y-82307000D01*
X220357000Y-82307000D01*
X220357000Y-82327000D01*
X220103000Y-82327000D01*
X220103000Y-82307000D01*
X218909845Y-82307000D01*
X218788524Y-82536890D01*
X218806271Y-82595400D01*
X218709802Y-82595400D01*
X216111292Y-79996890D01*
X218788524Y-79996890D01*
X218833175Y-80144099D01*
X218958359Y-80406920D01*
X219132412Y-80640269D01*
X219348645Y-80835178D01*
X219474255Y-80910000D01*
X219348645Y-80984822D01*
X219132412Y-81179731D01*
X218958359Y-81413080D01*
X218833175Y-81675901D01*
X218788524Y-81823110D01*
X218909845Y-82053000D01*
X220103000Y-82053000D01*
X220103000Y-79767000D01*
X218909845Y-79767000D01*
X218788524Y-79996890D01*
X216111292Y-79996890D01*
X214550601Y-78436200D01*
X219363119Y-78436200D01*
X219348645Y-78444822D01*
%TA.AperFunction,Conductor*%
D18*
G36*
X219348645Y-78444822D02*
G01*
X219132412Y-78639731D01*
X218958359Y-78873080D01*
X218833175Y-79135901D01*
X218788524Y-79283110D01*
X218909845Y-79513000D01*
X220103000Y-79513000D01*
X220103000Y-79493000D01*
X220357000Y-79493000D01*
X220357000Y-79513000D01*
X220377000Y-79513000D01*
X220377000Y-79767000D01*
X220357000Y-79767000D01*
X220357000Y-82053000D01*
X220377000Y-82053000D01*
X220377000Y-82307000D01*
X220357000Y-82307000D01*
X220357000Y-82327000D01*
X220103000Y-82327000D01*
X220103000Y-82307000D01*
X218909845Y-82307000D01*
X218788524Y-82536890D01*
X218806271Y-82595400D01*
X218709802Y-82595400D01*
X216111292Y-79996890D01*
X218788524Y-79996890D01*
X218833175Y-80144099D01*
X218958359Y-80406920D01*
X219132412Y-80640269D01*
X219348645Y-80835178D01*
X219474255Y-80910000D01*
X219348645Y-80984822D01*
X219132412Y-81179731D01*
X218958359Y-81413080D01*
X218833175Y-81675901D01*
X218788524Y-81823110D01*
X218909845Y-82053000D01*
X220103000Y-82053000D01*
X220103000Y-79767000D01*
X218909845Y-79767000D01*
X218788524Y-79996890D01*
X216111292Y-79996890D01*
X214550601Y-78436200D01*
X219363119Y-78436200D01*
X219348645Y-78444822D01*
G37*
%TD.AperFunction*%
D17*
X216757000Y-74643000D02*
X216777000Y-74643000D01*
X216777000Y-74897000D01*
X216757000Y-74897000D01*
X216757000Y-74917000D01*
X216503000Y-74917000D01*
X216503000Y-74897000D01*
X216483000Y-74897000D01*
X216483000Y-74643000D01*
X216503000Y-74643000D01*
X216503000Y-74623000D01*
X216757000Y-74623000D01*
X216757000Y-74643000D01*
%TA.AperFunction,Conductor*%
D18*
G36*
X216757000Y-74643000D02*
G01*
X216777000Y-74643000D01*
X216777000Y-74897000D01*
X216757000Y-74897000D01*
X216757000Y-74917000D01*
X216503000Y-74917000D01*
X216503000Y-74897000D01*
X216483000Y-74897000D01*
X216483000Y-74643000D01*
X216503000Y-74643000D01*
X216503000Y-74623000D01*
X216757000Y-74623000D01*
X216757000Y-74643000D01*
G37*
%TD.AperFunction*%
D17*
X198977000Y-74643000D02*
X198997000Y-74643000D01*
X198997000Y-74897000D01*
X198977000Y-74897000D01*
X198977000Y-74917000D01*
X198723000Y-74917000D01*
X198723000Y-74897000D01*
X198703000Y-74897000D01*
X198703000Y-74643000D01*
X198723000Y-74643000D01*
X198723000Y-74623000D01*
X198977000Y-74623000D01*
X198977000Y-74643000D01*
%TA.AperFunction,Conductor*%
D18*
G36*
X198977000Y-74643000D02*
G01*
X198997000Y-74643000D01*
X198997000Y-74897000D01*
X198977000Y-74897000D01*
X198977000Y-74917000D01*
X198723000Y-74917000D01*
X198723000Y-74897000D01*
X198703000Y-74897000D01*
X198703000Y-74643000D01*
X198723000Y-74643000D01*
X198723000Y-74623000D01*
X198977000Y-74623000D01*
X198977000Y-74643000D01*
G37*
%TD.AperFunction*%
D17*
X212460690Y-71052509D02*
X212253411Y-70914010D01*
X211983158Y-70802068D01*
X211696260Y-70745000D01*
X211403740Y-70745000D01*
X211116842Y-70802068D01*
X210846589Y-70914010D01*
X210603368Y-71076525D01*
X210396525Y-71283368D01*
X210274805Y-71465534D01*
X210205178Y-71348645D01*
X210010269Y-71132412D01*
X209776920Y-70958359D01*
X209514099Y-70833175D01*
X209366890Y-70788524D01*
X209137000Y-70909845D01*
X209137000Y-72103000D01*
X209157000Y-72103000D01*
X209157000Y-72357000D01*
X209137000Y-72357000D01*
X209137000Y-72377000D01*
X208883000Y-72377000D01*
X208883000Y-72357000D01*
X208863000Y-72357000D01*
X208863000Y-72103000D01*
X208883000Y-72103000D01*
X208883000Y-70909845D01*
X208653110Y-70788524D01*
X208505901Y-70833175D01*
X208243080Y-70958359D01*
X208009731Y-71132412D01*
X207814822Y-71348645D01*
X207745195Y-71465534D01*
X207623475Y-71283368D01*
X207416632Y-71076525D01*
X207173411Y-70914010D01*
X206903158Y-70802068D01*
X206616260Y-70745000D01*
X206323740Y-70745000D01*
X206036842Y-70802068D01*
X205766589Y-70914010D01*
X205524542Y-71075740D01*
X205108801Y-70660000D01*
X212853198Y-70660000D01*
X212460690Y-71052509D01*
%TA.AperFunction,Conductor*%
D18*
G36*
X212460690Y-71052509D02*
G01*
X212253411Y-70914010D01*
X211983158Y-70802068D01*
X211696260Y-70745000D01*
X211403740Y-70745000D01*
X211116842Y-70802068D01*
X210846589Y-70914010D01*
X210603368Y-71076525D01*
X210396525Y-71283368D01*
X210274805Y-71465534D01*
X210205178Y-71348645D01*
X210010269Y-71132412D01*
X209776920Y-70958359D01*
X209514099Y-70833175D01*
X209366890Y-70788524D01*
X209137000Y-70909845D01*
X209137000Y-72103000D01*
X209157000Y-72103000D01*
X209157000Y-72357000D01*
X209137000Y-72357000D01*
X209137000Y-72377000D01*
X208883000Y-72377000D01*
X208883000Y-72357000D01*
X208863000Y-72357000D01*
X208863000Y-72103000D01*
X208883000Y-72103000D01*
X208883000Y-70909845D01*
X208653110Y-70788524D01*
X208505901Y-70833175D01*
X208243080Y-70958359D01*
X208009731Y-71132412D01*
X207814822Y-71348645D01*
X207745195Y-71465534D01*
X207623475Y-71283368D01*
X207416632Y-71076525D01*
X207173411Y-70914010D01*
X206903158Y-70802068D01*
X206616260Y-70745000D01*
X206323740Y-70745000D01*
X206036842Y-70802068D01*
X205766589Y-70914010D01*
X205524542Y-71075740D01*
X205108801Y-70660000D01*
X212853198Y-70660000D01*
X212460690Y-71052509D01*
G37*
%TD.AperFunction*%
D17*
X204057000Y-72103000D02*
X204077000Y-72103000D01*
X204077000Y-72357000D01*
X204057000Y-72357000D01*
X204057000Y-72377000D01*
X203803000Y-72377000D01*
X203803000Y-72357000D01*
X203783000Y-72357000D01*
X203783000Y-72103000D01*
X203803000Y-72103000D01*
X203803000Y-72083000D01*
X204057000Y-72083000D01*
X204057000Y-72103000D01*
%TA.AperFunction,Conductor*%
D18*
G36*
X204057000Y-72103000D02*
G01*
X204077000Y-72103000D01*
X204077000Y-72357000D01*
X204057000Y-72357000D01*
X204057000Y-72377000D01*
X203803000Y-72377000D01*
X203803000Y-72357000D01*
X203783000Y-72357000D01*
X203783000Y-72103000D01*
X203803000Y-72103000D01*
X203803000Y-72083000D01*
X204057000Y-72083000D01*
X204057000Y-72103000D01*
G37*
%TD.AperFunction*%
%TD*%
M02*
