%TF.GenerationSoftware,KiCad,Pcbnew,(5.1.9)-1*%
%TF.CreationDate,2022-04-01T16:36:08-04:00*%
%TF.ProjectId,Baja_Pi_Expansion,42616a61-5f50-4695-9f45-7870616e7369,rev?*%
%TF.SameCoordinates,Original*%
%TF.FileFunction,Soldermask,Bot*%
%TF.FilePolarity,Negative*%
%FSLAX46Y46*%
G04 Gerber Fmt 4.6, Leading zero omitted, Abs format (unit mm)*
G04 Created by KiCad (PCBNEW (5.1.9)-1) date 2022-04-01 16:36:08*
%MOMM*%
%LPD*%
G01*
G04 APERTURE LIST*
%ADD10C,0.150000*%
%ADD11C,2.700000*%
%ADD12R,1.700000X1.700000*%
%ADD13O,1.700000X1.700000*%
%ADD14C,2.000000*%
G04 APERTURE END LIST*
%TO.C,CR1*%
D10*
X218479142Y-97377333D02*
X218526761Y-97329714D01*
X218574380Y-97186857D01*
X218574380Y-97091619D01*
X218526761Y-96948761D01*
X218431523Y-96853523D01*
X218336285Y-96805904D01*
X218145809Y-96758285D01*
X218002952Y-96758285D01*
X217812476Y-96805904D01*
X217717238Y-96853523D01*
X217622000Y-96948761D01*
X217574380Y-97091619D01*
X217574380Y-97186857D01*
X217622000Y-97329714D01*
X217669619Y-97377333D01*
X218574380Y-98377333D02*
X218098190Y-98044000D01*
X218574380Y-97805904D02*
X217574380Y-97805904D01*
X217574380Y-98186857D01*
X217622000Y-98282095D01*
X217669619Y-98329714D01*
X217764857Y-98377333D01*
X217907714Y-98377333D01*
X218002952Y-98329714D01*
X218050571Y-98282095D01*
X218098190Y-98186857D01*
X218098190Y-97805904D01*
X218574380Y-99329714D02*
X218574380Y-98758285D01*
X218574380Y-99044000D02*
X217574380Y-99044000D01*
X217717238Y-98948761D01*
X217812476Y-98853523D01*
X217860095Y-98758285D01*
%TD*%
D11*
%TO.C,H1*%
X202500000Y-98000000D03*
%TD*%
%TO.C,H2*%
X163500000Y-73500000D03*
%TD*%
%TO.C,H3*%
X241500000Y-122500000D03*
%TD*%
%TO.C,H4*%
X221500000Y-122500000D03*
%TD*%
%TO.C,H5*%
X241500000Y-73500000D03*
%TD*%
D12*
%TO.C,J1*%
X163000000Y-86570000D03*
D13*
X165540000Y-86570000D03*
X163000000Y-89110000D03*
X165540000Y-89110000D03*
X163000000Y-91650000D03*
X165540000Y-91650000D03*
X163000000Y-94190000D03*
X165540000Y-94190000D03*
X163000000Y-96730000D03*
X165540000Y-96730000D03*
X163000000Y-99270000D03*
X165540000Y-99270000D03*
X163000000Y-101810000D03*
X165540000Y-101810000D03*
X163000000Y-104350000D03*
X165540000Y-104350000D03*
X163000000Y-106890000D03*
X165540000Y-106890000D03*
X163000000Y-109430000D03*
X165540000Y-109430000D03*
%TD*%
D12*
%TO.C,J2*%
X239500000Y-84030000D03*
D13*
X242040000Y-84030000D03*
X239500000Y-86570000D03*
X242040000Y-86570000D03*
X239500000Y-89110000D03*
X242040000Y-89110000D03*
X239500000Y-91650000D03*
X242040000Y-91650000D03*
X239500000Y-94190000D03*
X242040000Y-94190000D03*
X239500000Y-96730000D03*
X242040000Y-96730000D03*
X239500000Y-99270000D03*
X242040000Y-99270000D03*
X239500000Y-101810000D03*
X242040000Y-101810000D03*
X239500000Y-104350000D03*
X242040000Y-104350000D03*
X239500000Y-106890000D03*
X242040000Y-106890000D03*
X239500000Y-109430000D03*
X242040000Y-109430000D03*
X239500000Y-111970000D03*
X242040000Y-111970000D03*
%TD*%
D12*
%TO.C,J4*%
X168370000Y-74770000D03*
D13*
X168370000Y-72230000D03*
X170910000Y-74770000D03*
X170910000Y-72230000D03*
X173450000Y-74770000D03*
X173450000Y-72230000D03*
X175990000Y-74770000D03*
X175990000Y-72230000D03*
X178530000Y-74770000D03*
X178530000Y-72230000D03*
X181070000Y-74770000D03*
X181070000Y-72230000D03*
X183610000Y-74770000D03*
X183610000Y-72230000D03*
X186150000Y-74770000D03*
X186150000Y-72230000D03*
X188690000Y-74770000D03*
X188690000Y-72230000D03*
X191230000Y-74770000D03*
X191230000Y-72230000D03*
X193770000Y-74770000D03*
X193770000Y-72230000D03*
X196310000Y-74770000D03*
X196310000Y-72230000D03*
X198850000Y-74770000D03*
X198850000Y-72230000D03*
X201390000Y-74770000D03*
X201390000Y-72230000D03*
X203930000Y-74770000D03*
X203930000Y-72230000D03*
X206470000Y-74770000D03*
X206470000Y-72230000D03*
X209010000Y-74770000D03*
X209010000Y-72230000D03*
X211550000Y-74770000D03*
X211550000Y-72230000D03*
X214090000Y-74770000D03*
X214090000Y-72230000D03*
X216630000Y-74770000D03*
X216630000Y-72230000D03*
%TD*%
D11*
%TO.C,H6*%
X221500000Y-73500000D03*
%TD*%
%TO.C,H7*%
X163500000Y-122500000D03*
%TD*%
D14*
%TO.C,J3*%
X191646000Y-120717000D03*
X188146000Y-120717000D03*
X184646000Y-120717000D03*
X181146000Y-120717000D03*
%TD*%
%TO.C,J5*%
X198766000Y-120717000D03*
X202266000Y-120717000D03*
X205766000Y-120717000D03*
X209266000Y-120717000D03*
%TD*%
D13*
%TO.C,J6*%
X173355000Y-120777000D03*
X173355000Y-123317000D03*
X170815000Y-120777000D03*
D12*
X170815000Y-123317000D03*
%TD*%
%TO.C,J7*%
X222770000Y-79640000D03*
D13*
X220230000Y-79640000D03*
X222770000Y-82180000D03*
X220230000Y-82180000D03*
%TD*%
M02*
