%TF.GenerationSoftware,KiCad,Pcbnew,(5.1.9)-1*%
%TF.CreationDate,2022-04-01T16:36:08-04:00*%
%TF.ProjectId,Baja_Pi_Expansion,42616a61-5f50-4695-9f45-7870616e7369,rev?*%
%TF.SameCoordinates,Original*%
%TF.FileFunction,Paste,Top*%
%TF.FilePolarity,Positive*%
%FSLAX46Y46*%
G04 Gerber Fmt 4.6, Leading zero omitted, Abs format (unit mm)*
G04 Created by KiCad (PCBNEW (5.1.9)-1) date 2022-04-01 16:36:08*
%MOMM*%
%LPD*%
G01*
G04 APERTURE LIST*
%ADD10R,2.997200X0.990600*%
%ADD11R,8.712200X10.337800*%
G04 APERTURE END LIST*
%TO.C,R1*%
G36*
G01*
X177142000Y-87350000D02*
X177142000Y-86800000D01*
G75*
G02*
X177342000Y-86600000I200000J0D01*
G01*
X177742000Y-86600000D01*
G75*
G02*
X177942000Y-86800000I0J-200000D01*
G01*
X177942000Y-87350000D01*
G75*
G02*
X177742000Y-87550000I-200000J0D01*
G01*
X177342000Y-87550000D01*
G75*
G02*
X177142000Y-87350000I0J200000D01*
G01*
G37*
G36*
G01*
X178792000Y-87350000D02*
X178792000Y-86800000D01*
G75*
G02*
X178992000Y-86600000I200000J0D01*
G01*
X179392000Y-86600000D01*
G75*
G02*
X179592000Y-86800000I0J-200000D01*
G01*
X179592000Y-87350000D01*
G75*
G02*
X179392000Y-87550000I-200000J0D01*
G01*
X178992000Y-87550000D01*
G75*
G02*
X178792000Y-87350000I0J200000D01*
G01*
G37*
%TD*%
%TO.C,R2*%
G36*
G01*
X178797000Y-92096000D02*
X178797000Y-91546000D01*
G75*
G02*
X178997000Y-91346000I200000J0D01*
G01*
X179397000Y-91346000D01*
G75*
G02*
X179597000Y-91546000I0J-200000D01*
G01*
X179597000Y-92096000D01*
G75*
G02*
X179397000Y-92296000I-200000J0D01*
G01*
X178997000Y-92296000D01*
G75*
G02*
X178797000Y-92096000I0J200000D01*
G01*
G37*
G36*
G01*
X177147000Y-92096000D02*
X177147000Y-91546000D01*
G75*
G02*
X177347000Y-91346000I200000J0D01*
G01*
X177747000Y-91346000D01*
G75*
G02*
X177947000Y-91546000I0J-200000D01*
G01*
X177947000Y-92096000D01*
G75*
G02*
X177747000Y-92296000I-200000J0D01*
G01*
X177347000Y-92296000D01*
G75*
G02*
X177147000Y-92096000I0J200000D01*
G01*
G37*
%TD*%
%TO.C,R5*%
G36*
G01*
X185275000Y-89683000D02*
X185275000Y-89133000D01*
G75*
G02*
X185475000Y-88933000I200000J0D01*
G01*
X185875000Y-88933000D01*
G75*
G02*
X186075000Y-89133000I0J-200000D01*
G01*
X186075000Y-89683000D01*
G75*
G02*
X185875000Y-89883000I-200000J0D01*
G01*
X185475000Y-89883000D01*
G75*
G02*
X185275000Y-89683000I0J200000D01*
G01*
G37*
G36*
G01*
X186925000Y-89683000D02*
X186925000Y-89133000D01*
G75*
G02*
X187125000Y-88933000I200000J0D01*
G01*
X187525000Y-88933000D01*
G75*
G02*
X187725000Y-89133000I0J-200000D01*
G01*
X187725000Y-89683000D01*
G75*
G02*
X187525000Y-89883000I-200000J0D01*
G01*
X187125000Y-89883000D01*
G75*
G02*
X186925000Y-89683000I0J200000D01*
G01*
G37*
%TD*%
%TO.C,D1*%
G36*
G01*
X232730000Y-123879000D02*
X232730000Y-122629000D01*
G75*
G02*
X232980000Y-122379000I250000J0D01*
G01*
X233730000Y-122379000D01*
G75*
G02*
X233980000Y-122629000I0J-250000D01*
G01*
X233980000Y-123879000D01*
G75*
G02*
X233730000Y-124129000I-250000J0D01*
G01*
X232980000Y-124129000D01*
G75*
G02*
X232730000Y-123879000I0J250000D01*
G01*
G37*
G36*
G01*
X235530000Y-123879000D02*
X235530000Y-122629000D01*
G75*
G02*
X235780000Y-122379000I250000J0D01*
G01*
X236530000Y-122379000D01*
G75*
G02*
X236780000Y-122629000I0J-250000D01*
G01*
X236780000Y-123879000D01*
G75*
G02*
X236530000Y-124129000I-250000J0D01*
G01*
X235780000Y-124129000D01*
G75*
G02*
X235530000Y-123879000I0J250000D01*
G01*
G37*
%TD*%
%TO.C,C1*%
G36*
G01*
X234513000Y-100961000D02*
X234513000Y-100461000D01*
G75*
G02*
X234738000Y-100236000I225000J0D01*
G01*
X235188000Y-100236000D01*
G75*
G02*
X235413000Y-100461000I0J-225000D01*
G01*
X235413000Y-100961000D01*
G75*
G02*
X235188000Y-101186000I-225000J0D01*
G01*
X234738000Y-101186000D01*
G75*
G02*
X234513000Y-100961000I0J225000D01*
G01*
G37*
G36*
G01*
X232963000Y-100961000D02*
X232963000Y-100461000D01*
G75*
G02*
X233188000Y-100236000I225000J0D01*
G01*
X233638000Y-100236000D01*
G75*
G02*
X233863000Y-100461000I0J-225000D01*
G01*
X233863000Y-100961000D01*
G75*
G02*
X233638000Y-101186000I-225000J0D01*
G01*
X233188000Y-101186000D01*
G75*
G02*
X232963000Y-100961000I0J225000D01*
G01*
G37*
%TD*%
%TO.C,C2*%
G36*
G01*
X232773000Y-95881000D02*
X232773000Y-95381000D01*
G75*
G02*
X232998000Y-95156000I225000J0D01*
G01*
X233448000Y-95156000D01*
G75*
G02*
X233673000Y-95381000I0J-225000D01*
G01*
X233673000Y-95881000D01*
G75*
G02*
X233448000Y-96106000I-225000J0D01*
G01*
X232998000Y-96106000D01*
G75*
G02*
X232773000Y-95881000I0J225000D01*
G01*
G37*
G36*
G01*
X234323000Y-95881000D02*
X234323000Y-95381000D01*
G75*
G02*
X234548000Y-95156000I225000J0D01*
G01*
X234998000Y-95156000D01*
G75*
G02*
X235223000Y-95381000I0J-225000D01*
G01*
X235223000Y-95881000D01*
G75*
G02*
X234998000Y-96106000I-225000J0D01*
G01*
X234548000Y-96106000D01*
G75*
G02*
X234323000Y-95881000I0J225000D01*
G01*
G37*
%TD*%
D10*
%TO.C,CR1*%
X226885000Y-100584000D03*
X226885000Y-95504000D03*
D11*
X215874100Y-98044000D03*
%TD*%
M02*
