M48
; DRILL file {KiCad (5.1.9)-1} date 04/01/22 16:36:11
; FORMAT={-:-/ absolute / inch / decimal}
; #@! TF.CreationDate,2022-04-01T16:36:11-04:00
; #@! TF.GenerationSoftware,Kicad,Pcbnew,(5.1.9)-1
; #@! TF.FileFunction,Plated,1,2,PTH
FMAT,2
INCH
T1C0.0157
T2C0.0394
%
G90
G05
T1
X6.6927Y-3.731
X6.732Y-3.8907
X7.9451Y-3.0139
X8.459Y-3.4056
X8.4979Y-3.4408
X8.5297Y-3.4839
X8.5853Y-2.9919
X8.5992Y-3.4192
X8.8508Y-3.1551
X8.8734Y-3.2749
X9.0259Y-3.3318
T2
X6.4173Y-3.4083
X6.4173Y-3.5083
X6.4173Y-3.6083
X6.4173Y-3.7083
X6.4173Y-3.8083
X6.4173Y-3.9083
X6.4173Y-4.0083
X6.4173Y-4.1083
X6.4173Y-4.2083
X6.4173Y-4.3083
X6.5173Y-3.4083
X6.5173Y-3.5083
X6.5173Y-3.6083
X6.5173Y-3.7083
X6.5173Y-3.8083
X6.5173Y-3.9083
X6.5173Y-4.0083
X6.5173Y-4.1083
X6.5173Y-4.2083
X6.5173Y-4.3083
X6.6287Y-2.8437
X6.6287Y-2.9437
X6.725Y-4.755
X6.725Y-4.855
X6.7287Y-2.8437
X6.7287Y-2.9437
X6.825Y-4.755
X6.825Y-4.855
X6.8287Y-2.8437
X6.8287Y-2.9437
X6.9287Y-2.8437
X6.9287Y-2.9437
X7.0287Y-2.8437
X7.0287Y-2.9437
X7.1287Y-2.8437
X7.1287Y-2.9437
X7.1317Y-4.7526
X7.2287Y-2.8437
X7.2287Y-2.9437
X7.2695Y-4.7526
X7.3287Y-2.8437
X7.3287Y-2.9437
X7.4073Y-4.7526
X7.4287Y-2.8437
X7.4287Y-2.9437
X7.5287Y-2.8437
X7.5287Y-2.9437
X7.5451Y-4.7526
X7.6287Y-2.8437
X7.6287Y-2.9437
X7.7287Y-2.8437
X7.7287Y-2.9437
X7.8254Y-4.7526
X7.8287Y-2.8437
X7.8287Y-2.9437
X7.9287Y-2.8437
X7.9287Y-2.9437
X7.9632Y-4.7526
X8.0287Y-2.8437
X8.0287Y-2.9437
X8.101Y-4.7526
X8.1287Y-2.8437
X8.1287Y-2.9437
X8.2287Y-2.8437
X8.2287Y-2.9437
X8.2388Y-4.7526
X8.3287Y-2.8437
X8.3287Y-2.9437
X8.4287Y-2.8437
X8.4287Y-2.9437
X8.5287Y-2.8437
X8.5287Y-2.9437
X8.6705Y-3.1354
X8.6705Y-3.2354
X8.7705Y-3.1354
X8.7705Y-3.2354
X9.4291Y-3.3083
X9.4291Y-3.4083
X9.4291Y-3.5083
X9.4291Y-3.6083
X9.4291Y-3.7083
X9.4291Y-3.8083
X9.4291Y-3.9083
X9.4291Y-4.0083
X9.4291Y-4.1083
X9.4291Y-4.2083
X9.4291Y-4.3083
X9.4291Y-4.4083
X9.5291Y-3.3083
X9.5291Y-3.4083
X9.5291Y-3.5083
X9.5291Y-3.6083
X9.5291Y-3.7083
X9.5291Y-3.8083
X9.5291Y-3.9083
X9.5291Y-4.0083
X9.5291Y-4.1083
X9.5291Y-4.2083
X9.5291Y-4.3083
X9.5291Y-4.4083
T0
M30
