%TF.GenerationSoftware,KiCad,Pcbnew,(5.1.10)-1*%
%TF.CreationDate,2022-03-21T18:44:11-04:00*%
%TF.ProjectId,RevA,52657641-2e6b-4696-9361-645f70636258,rev?*%
%TF.SameCoordinates,Original*%
%TF.FileFunction,Legend,Top*%
%TF.FilePolarity,Positive*%
%FSLAX46Y46*%
G04 Gerber Fmt 4.6, Leading zero omitted, Abs format (unit mm)*
G04 Created by KiCad (PCBNEW (5.1.10)-1) date 2022-03-21 18:44:11*
%MOMM*%
%LPD*%
G01*
G04 APERTURE LIST*
%ADD10C,0.150000*%
%ADD11C,0.100000*%
%ADD12C,0.120000*%
%ADD13C,0.040000*%
G04 APERTURE END LIST*
D10*
X208994761Y-108007476D02*
X208994761Y-106757476D01*
X209292380Y-106757476D01*
X209470952Y-106817000D01*
X209590000Y-106936047D01*
X209649523Y-107055095D01*
X209709047Y-107293190D01*
X209709047Y-107471761D01*
X209649523Y-107709857D01*
X209590000Y-107828904D01*
X209470952Y-107947952D01*
X209292380Y-108007476D01*
X208994761Y-108007476D01*
X210899523Y-108007476D02*
X210185238Y-108007476D01*
X210542380Y-108007476D02*
X210542380Y-106757476D01*
X210423333Y-106936047D01*
X210304285Y-107055095D01*
X210185238Y-107114619D01*
X213340000Y-108007476D02*
X213340000Y-106757476D01*
X213637619Y-106757476D01*
X213816190Y-106817000D01*
X213935238Y-106936047D01*
X213994761Y-107055095D01*
X214054285Y-107293190D01*
X214054285Y-107471761D01*
X213994761Y-107709857D01*
X213935238Y-107828904D01*
X213816190Y-107947952D01*
X213637619Y-108007476D01*
X213340000Y-108007476D01*
X214828095Y-106757476D02*
X214947142Y-106757476D01*
X215066190Y-106817000D01*
X215125714Y-106876523D01*
X215185238Y-106995571D01*
X215244761Y-107233666D01*
X215244761Y-107531285D01*
X215185238Y-107769380D01*
X215125714Y-107888428D01*
X215066190Y-107947952D01*
X214947142Y-108007476D01*
X214828095Y-108007476D01*
X214709047Y-107947952D01*
X214649523Y-107888428D01*
X214590000Y-107769380D01*
X214530476Y-107531285D01*
X214530476Y-107233666D01*
X214590000Y-106995571D01*
X214649523Y-106876523D01*
X214709047Y-106817000D01*
X214828095Y-106757476D01*
X170173476Y-90378333D02*
X170768714Y-90378333D01*
X170054428Y-90735476D02*
X170471095Y-89485476D01*
X170887761Y-90735476D01*
X171542523Y-89485476D02*
X171661571Y-89485476D01*
X171780619Y-89545000D01*
X171840142Y-89604523D01*
X171899666Y-89723571D01*
X171959190Y-89961666D01*
X171959190Y-90259285D01*
X171899666Y-90497380D01*
X171840142Y-90616428D01*
X171780619Y-90675952D01*
X171661571Y-90735476D01*
X171542523Y-90735476D01*
X171423476Y-90675952D01*
X171363952Y-90616428D01*
X171304428Y-90497380D01*
X171244904Y-90259285D01*
X171244904Y-89961666D01*
X171304428Y-89723571D01*
X171363952Y-89604523D01*
X171423476Y-89545000D01*
X171542523Y-89485476D01*
X174340142Y-90378333D02*
X174935380Y-90378333D01*
X174221095Y-90735476D02*
X174637761Y-89485476D01*
X175054428Y-90735476D01*
X176125857Y-90735476D02*
X175411571Y-90735476D01*
X175768714Y-90735476D02*
X175768714Y-89485476D01*
X175649666Y-89664047D01*
X175530619Y-89783095D01*
X175411571Y-89842619D01*
X178506809Y-90378333D02*
X179102047Y-90378333D01*
X178387761Y-90735476D02*
X178804428Y-89485476D01*
X179221095Y-90735476D01*
X179578238Y-89604523D02*
X179637761Y-89545000D01*
X179756809Y-89485476D01*
X180054428Y-89485476D01*
X180173476Y-89545000D01*
X180233000Y-89604523D01*
X180292523Y-89723571D01*
X180292523Y-89842619D01*
X180233000Y-90021190D01*
X179518714Y-90735476D01*
X180292523Y-90735476D01*
X182673476Y-90378333D02*
X183268714Y-90378333D01*
X182554428Y-90735476D02*
X182971095Y-89485476D01*
X183387761Y-90735476D01*
X183685380Y-89485476D02*
X184459190Y-89485476D01*
X184042523Y-89961666D01*
X184221095Y-89961666D01*
X184340142Y-90021190D01*
X184399666Y-90080714D01*
X184459190Y-90199761D01*
X184459190Y-90497380D01*
X184399666Y-90616428D01*
X184340142Y-90675952D01*
X184221095Y-90735476D01*
X183863952Y-90735476D01*
X183744904Y-90675952D01*
X183685380Y-90616428D01*
X186840142Y-90378333D02*
X187435380Y-90378333D01*
X186721095Y-90735476D02*
X187137761Y-89485476D01*
X187554428Y-90735476D01*
X188506809Y-89902142D02*
X188506809Y-90735476D01*
X188209190Y-89425952D02*
X187911571Y-90318809D01*
X188685380Y-90318809D01*
X191006809Y-90378333D02*
X191602047Y-90378333D01*
X190887761Y-90735476D02*
X191304428Y-89485476D01*
X191721095Y-90735476D01*
X192733000Y-89485476D02*
X192137761Y-89485476D01*
X192078238Y-90080714D01*
X192137761Y-90021190D01*
X192256809Y-89961666D01*
X192554428Y-89961666D01*
X192673476Y-90021190D01*
X192733000Y-90080714D01*
X192792523Y-90199761D01*
X192792523Y-90497380D01*
X192733000Y-90616428D01*
X192673476Y-90675952D01*
X192554428Y-90735476D01*
X192256809Y-90735476D01*
X192137761Y-90675952D01*
X192078238Y-90616428D01*
X232926619Y-78287571D02*
X233259952Y-78287571D01*
X233402809Y-78811380D02*
X232926619Y-78811380D01*
X232926619Y-77811380D01*
X233402809Y-77811380D01*
X233736142Y-78811380D02*
X234259952Y-78144714D01*
X233736142Y-78144714D02*
X234259952Y-78811380D01*
X234640904Y-78144714D02*
X234640904Y-79144714D01*
X234640904Y-78192333D02*
X234736142Y-78144714D01*
X234926619Y-78144714D01*
X235021857Y-78192333D01*
X235069476Y-78239952D01*
X235117095Y-78335190D01*
X235117095Y-78620904D01*
X235069476Y-78716142D01*
X235021857Y-78763761D01*
X234926619Y-78811380D01*
X234736142Y-78811380D01*
X234640904Y-78763761D01*
X235974238Y-78811380D02*
X235974238Y-78287571D01*
X235926619Y-78192333D01*
X235831380Y-78144714D01*
X235640904Y-78144714D01*
X235545666Y-78192333D01*
X235974238Y-78763761D02*
X235879000Y-78811380D01*
X235640904Y-78811380D01*
X235545666Y-78763761D01*
X235498047Y-78668523D01*
X235498047Y-78573285D01*
X235545666Y-78478047D01*
X235640904Y-78430428D01*
X235879000Y-78430428D01*
X235974238Y-78382809D01*
X236450428Y-78144714D02*
X236450428Y-78811380D01*
X236450428Y-78239952D02*
X236498047Y-78192333D01*
X236593285Y-78144714D01*
X236736142Y-78144714D01*
X236831380Y-78192333D01*
X236879000Y-78287571D01*
X236879000Y-78811380D01*
X237307571Y-78763761D02*
X237402809Y-78811380D01*
X237593285Y-78811380D01*
X237688523Y-78763761D01*
X237736142Y-78668523D01*
X237736142Y-78620904D01*
X237688523Y-78525666D01*
X237593285Y-78478047D01*
X237450428Y-78478047D01*
X237355190Y-78430428D01*
X237307571Y-78335190D01*
X237307571Y-78287571D01*
X237355190Y-78192333D01*
X237450428Y-78144714D01*
X237593285Y-78144714D01*
X237688523Y-78192333D01*
X238164714Y-78811380D02*
X238164714Y-78144714D01*
X238164714Y-77811380D02*
X238117095Y-77859000D01*
X238164714Y-77906619D01*
X238212333Y-77859000D01*
X238164714Y-77811380D01*
X238164714Y-77906619D01*
X238783761Y-78811380D02*
X238688523Y-78763761D01*
X238640904Y-78716142D01*
X238593285Y-78620904D01*
X238593285Y-78335190D01*
X238640904Y-78239952D01*
X238688523Y-78192333D01*
X238783761Y-78144714D01*
X238926619Y-78144714D01*
X239021857Y-78192333D01*
X239069476Y-78239952D01*
X239117095Y-78335190D01*
X239117095Y-78620904D01*
X239069476Y-78716142D01*
X239021857Y-78763761D01*
X238926619Y-78811380D01*
X238783761Y-78811380D01*
X239545666Y-78144714D02*
X239545666Y-78811380D01*
X239545666Y-78239952D02*
X239593285Y-78192333D01*
X239688523Y-78144714D01*
X239831380Y-78144714D01*
X239926619Y-78192333D01*
X239974238Y-78287571D01*
X239974238Y-78811380D01*
X241212333Y-78811380D02*
X241212333Y-77811380D01*
X241593285Y-77811380D01*
X241688523Y-77859000D01*
X241736142Y-77906619D01*
X241783761Y-78001857D01*
X241783761Y-78144714D01*
X241736142Y-78239952D01*
X241688523Y-78287571D01*
X241593285Y-78335190D01*
X241212333Y-78335190D01*
X242355190Y-78811380D02*
X242259952Y-78763761D01*
X242212333Y-78716142D01*
X242164714Y-78620904D01*
X242164714Y-78335190D01*
X242212333Y-78239952D01*
X242259952Y-78192333D01*
X242355190Y-78144714D01*
X242498047Y-78144714D01*
X242593285Y-78192333D01*
X242640904Y-78239952D01*
X242688523Y-78335190D01*
X242688523Y-78620904D01*
X242640904Y-78716142D01*
X242593285Y-78763761D01*
X242498047Y-78811380D01*
X242355190Y-78811380D01*
X243117095Y-78811380D02*
X243117095Y-78144714D01*
X243117095Y-78335190D02*
X243164714Y-78239952D01*
X243212333Y-78192333D01*
X243307571Y-78144714D01*
X243402809Y-78144714D01*
X243593285Y-78144714D02*
X243974238Y-78144714D01*
X243736142Y-77811380D02*
X243736142Y-78668523D01*
X243783761Y-78763761D01*
X243879000Y-78811380D01*
X243974238Y-78811380D01*
X220179190Y-89114380D02*
X220274428Y-89114380D01*
X220369666Y-89162000D01*
X220417285Y-89209619D01*
X220464904Y-89304857D01*
X220512523Y-89495333D01*
X220512523Y-89733428D01*
X220464904Y-89923904D01*
X220417285Y-90019142D01*
X220369666Y-90066761D01*
X220274428Y-90114380D01*
X220179190Y-90114380D01*
X220083952Y-90066761D01*
X220036333Y-90019142D01*
X219988714Y-89923904D01*
X219941095Y-89733428D01*
X219941095Y-89495333D01*
X219988714Y-89304857D01*
X220036333Y-89209619D01*
X220083952Y-89162000D01*
X220179190Y-89114380D01*
X220845857Y-90114380D02*
X221369666Y-89447714D01*
X220845857Y-89447714D02*
X221369666Y-90114380D01*
X223036333Y-90114380D02*
X222464904Y-90114380D01*
X222750619Y-90114380D02*
X222750619Y-89114380D01*
X222655380Y-89257238D01*
X222560142Y-89352476D01*
X222464904Y-89400095D01*
X225512523Y-90114380D02*
X224941095Y-90114380D01*
X225226809Y-90114380D02*
X225226809Y-89114380D01*
X225131571Y-89257238D01*
X225036333Y-89352476D01*
X224941095Y-89400095D01*
X227988714Y-90114380D02*
X227417285Y-90114380D01*
X227703000Y-90114380D02*
X227703000Y-89114380D01*
X227607761Y-89257238D01*
X227512523Y-89352476D01*
X227417285Y-89400095D01*
X230464904Y-90114380D02*
X229893476Y-90114380D01*
X230179190Y-90114380D02*
X230179190Y-89114380D01*
X230083952Y-89257238D01*
X229988714Y-89352476D01*
X229893476Y-89400095D01*
X220433190Y-95845380D02*
X220528428Y-95845380D01*
X220623666Y-95893000D01*
X220671285Y-95940619D01*
X220718904Y-96035857D01*
X220766523Y-96226333D01*
X220766523Y-96464428D01*
X220718904Y-96654904D01*
X220671285Y-96750142D01*
X220623666Y-96797761D01*
X220528428Y-96845380D01*
X220433190Y-96845380D01*
X220337952Y-96797761D01*
X220290333Y-96750142D01*
X220242714Y-96654904D01*
X220195095Y-96464428D01*
X220195095Y-96226333D01*
X220242714Y-96035857D01*
X220290333Y-95940619D01*
X220337952Y-95893000D01*
X220433190Y-95845380D01*
X221099857Y-96845380D02*
X221623666Y-96178714D01*
X221099857Y-96178714D02*
X221623666Y-96845380D01*
X222957000Y-95845380D02*
X223052238Y-95845380D01*
X223147476Y-95893000D01*
X223195095Y-95940619D01*
X223242714Y-96035857D01*
X223290333Y-96226333D01*
X223290333Y-96464428D01*
X223242714Y-96654904D01*
X223195095Y-96750142D01*
X223147476Y-96797761D01*
X223052238Y-96845380D01*
X222957000Y-96845380D01*
X222861761Y-96797761D01*
X222814142Y-96750142D01*
X222766523Y-96654904D01*
X222718904Y-96464428D01*
X222718904Y-96226333D01*
X222766523Y-96035857D01*
X222814142Y-95940619D01*
X222861761Y-95893000D01*
X222957000Y-95845380D01*
X225433190Y-95845380D02*
X225528428Y-95845380D01*
X225623666Y-95893000D01*
X225671285Y-95940619D01*
X225718904Y-96035857D01*
X225766523Y-96226333D01*
X225766523Y-96464428D01*
X225718904Y-96654904D01*
X225671285Y-96750142D01*
X225623666Y-96797761D01*
X225528428Y-96845380D01*
X225433190Y-96845380D01*
X225337952Y-96797761D01*
X225290333Y-96750142D01*
X225242714Y-96654904D01*
X225195095Y-96464428D01*
X225195095Y-96226333D01*
X225242714Y-96035857D01*
X225290333Y-95940619D01*
X225337952Y-95893000D01*
X225433190Y-95845380D01*
X227909380Y-95845380D02*
X228004619Y-95845380D01*
X228099857Y-95893000D01*
X228147476Y-95940619D01*
X228195095Y-96035857D01*
X228242714Y-96226333D01*
X228242714Y-96464428D01*
X228195095Y-96654904D01*
X228147476Y-96750142D01*
X228099857Y-96797761D01*
X228004619Y-96845380D01*
X227909380Y-96845380D01*
X227814142Y-96797761D01*
X227766523Y-96750142D01*
X227718904Y-96654904D01*
X227671285Y-96464428D01*
X227671285Y-96226333D01*
X227718904Y-96035857D01*
X227766523Y-95940619D01*
X227814142Y-95893000D01*
X227909380Y-95845380D01*
X230385571Y-95845380D02*
X230480809Y-95845380D01*
X230576047Y-95893000D01*
X230623666Y-95940619D01*
X230671285Y-96035857D01*
X230718904Y-96226333D01*
X230718904Y-96464428D01*
X230671285Y-96654904D01*
X230623666Y-96750142D01*
X230576047Y-96797761D01*
X230480809Y-96845380D01*
X230385571Y-96845380D01*
X230290333Y-96797761D01*
X230242714Y-96750142D01*
X230195095Y-96654904D01*
X230147476Y-96464428D01*
X230147476Y-96226333D01*
X230195095Y-96035857D01*
X230242714Y-95940619D01*
X230290333Y-95893000D01*
X230385571Y-95845380D01*
D11*
X233727057Y-118601685D02*
X233727057Y-117851685D01*
X234012771Y-117851685D01*
X234084200Y-117887400D01*
X234119914Y-117923114D01*
X234155628Y-117994542D01*
X234155628Y-118101685D01*
X234119914Y-118173114D01*
X234084200Y-118208828D01*
X234012771Y-118244542D01*
X233727057Y-118244542D01*
X234477057Y-118601685D02*
X234477057Y-118101685D01*
X234477057Y-118244542D02*
X234512771Y-118173114D01*
X234548485Y-118137400D01*
X234619914Y-118101685D01*
X234691342Y-118101685D01*
X235048485Y-118601685D02*
X234977057Y-118565971D01*
X234941342Y-118530257D01*
X234905628Y-118458828D01*
X234905628Y-118244542D01*
X234941342Y-118173114D01*
X234977057Y-118137400D01*
X235048485Y-118101685D01*
X235155628Y-118101685D01*
X235227057Y-118137400D01*
X235262771Y-118173114D01*
X235298485Y-118244542D01*
X235298485Y-118458828D01*
X235262771Y-118530257D01*
X235227057Y-118565971D01*
X235155628Y-118601685D01*
X235048485Y-118601685D01*
X235941342Y-118101685D02*
X235941342Y-118708828D01*
X235905628Y-118780257D01*
X235869914Y-118815971D01*
X235798485Y-118851685D01*
X235691342Y-118851685D01*
X235619914Y-118815971D01*
X235941342Y-118565971D02*
X235869914Y-118601685D01*
X235727057Y-118601685D01*
X235655628Y-118565971D01*
X235619914Y-118530257D01*
X235584200Y-118458828D01*
X235584200Y-118244542D01*
X235619914Y-118173114D01*
X235655628Y-118137400D01*
X235727057Y-118101685D01*
X235869914Y-118101685D01*
X235941342Y-118137400D01*
X236298485Y-118601685D02*
X236298485Y-118101685D01*
X236298485Y-118244542D02*
X236334200Y-118173114D01*
X236369914Y-118137400D01*
X236441342Y-118101685D01*
X236512771Y-118101685D01*
X237084200Y-118601685D02*
X237084200Y-118208828D01*
X237048485Y-118137400D01*
X236977057Y-118101685D01*
X236834200Y-118101685D01*
X236762771Y-118137400D01*
X237084200Y-118565971D02*
X237012771Y-118601685D01*
X236834200Y-118601685D01*
X236762771Y-118565971D01*
X236727057Y-118494542D01*
X236727057Y-118423114D01*
X236762771Y-118351685D01*
X236834200Y-118315971D01*
X237012771Y-118315971D01*
X237084200Y-118280257D01*
X237441342Y-118601685D02*
X237441342Y-118101685D01*
X237441342Y-118173114D02*
X237477057Y-118137400D01*
X237548485Y-118101685D01*
X237655628Y-118101685D01*
X237727057Y-118137400D01*
X237762771Y-118208828D01*
X237762771Y-118601685D01*
X237762771Y-118208828D02*
X237798485Y-118137400D01*
X237869914Y-118101685D01*
X237977057Y-118101685D01*
X238048485Y-118137400D01*
X238084200Y-118208828D01*
X238084200Y-118601685D01*
X238441342Y-118601685D02*
X238441342Y-118101685D01*
X238441342Y-118173114D02*
X238477057Y-118137400D01*
X238548485Y-118101685D01*
X238655628Y-118101685D01*
X238727057Y-118137400D01*
X238762771Y-118208828D01*
X238762771Y-118601685D01*
X238762771Y-118208828D02*
X238798485Y-118137400D01*
X238869914Y-118101685D01*
X238977057Y-118101685D01*
X239048485Y-118137400D01*
X239084200Y-118208828D01*
X239084200Y-118601685D01*
X239441342Y-118601685D02*
X239441342Y-118101685D01*
X239441342Y-117851685D02*
X239405628Y-117887400D01*
X239441342Y-117923114D01*
X239477057Y-117887400D01*
X239441342Y-117851685D01*
X239441342Y-117923114D01*
X239798485Y-118101685D02*
X239798485Y-118601685D01*
X239798485Y-118173114D02*
X239834200Y-118137400D01*
X239905628Y-118101685D01*
X240012771Y-118101685D01*
X240084200Y-118137400D01*
X240119914Y-118208828D01*
X240119914Y-118601685D01*
X240798485Y-118101685D02*
X240798485Y-118708828D01*
X240762771Y-118780257D01*
X240727057Y-118815971D01*
X240655628Y-118851685D01*
X240548485Y-118851685D01*
X240477057Y-118815971D01*
X240798485Y-118565971D02*
X240727057Y-118601685D01*
X240584200Y-118601685D01*
X240512771Y-118565971D01*
X240477057Y-118530257D01*
X240441342Y-118458828D01*
X240441342Y-118244542D01*
X240477057Y-118173114D01*
X240512771Y-118137400D01*
X240584200Y-118101685D01*
X240727057Y-118101685D01*
X240798485Y-118137400D01*
X241727057Y-118601685D02*
X241727057Y-117851685D01*
X242012771Y-117851685D01*
X242084200Y-117887400D01*
X242119914Y-117923114D01*
X242155628Y-117994542D01*
X242155628Y-118101685D01*
X242119914Y-118173114D01*
X242084200Y-118208828D01*
X242012771Y-118244542D01*
X241727057Y-118244542D01*
X242584200Y-118601685D02*
X242512771Y-118565971D01*
X242477057Y-118530257D01*
X242441342Y-118458828D01*
X242441342Y-118244542D01*
X242477057Y-118173114D01*
X242512771Y-118137400D01*
X242584200Y-118101685D01*
X242691342Y-118101685D01*
X242762771Y-118137400D01*
X242798485Y-118173114D01*
X242834200Y-118244542D01*
X242834200Y-118458828D01*
X242798485Y-118530257D01*
X242762771Y-118565971D01*
X242691342Y-118601685D01*
X242584200Y-118601685D01*
X243155628Y-118601685D02*
X243155628Y-118101685D01*
X243155628Y-118244542D02*
X243191342Y-118173114D01*
X243227057Y-118137400D01*
X243298485Y-118101685D01*
X243369914Y-118101685D01*
X243512771Y-118101685D02*
X243798485Y-118101685D01*
X243619914Y-117851685D02*
X243619914Y-118494542D01*
X243655628Y-118565971D01*
X243727057Y-118601685D01*
X243798485Y-118601685D01*
D10*
X233005571Y-95551285D02*
X233053190Y-95408428D01*
X233100809Y-95360809D01*
X233196047Y-95313190D01*
X233338904Y-95313190D01*
X233434142Y-95360809D01*
X233481761Y-95408428D01*
X233529380Y-95503666D01*
X233529380Y-95884619D01*
X232529380Y-95884619D01*
X232529380Y-95551285D01*
X232577000Y-95456047D01*
X232624619Y-95408428D01*
X232719857Y-95360809D01*
X232815095Y-95360809D01*
X232910333Y-95408428D01*
X232957952Y-95456047D01*
X233005571Y-95551285D01*
X233005571Y-95884619D01*
X233529380Y-94741761D02*
X233481761Y-94837000D01*
X233434142Y-94884619D01*
X233338904Y-94932238D01*
X233053190Y-94932238D01*
X232957952Y-94884619D01*
X232910333Y-94837000D01*
X232862714Y-94741761D01*
X232862714Y-94598904D01*
X232910333Y-94503666D01*
X232957952Y-94456047D01*
X233053190Y-94408428D01*
X233338904Y-94408428D01*
X233434142Y-94456047D01*
X233481761Y-94503666D01*
X233529380Y-94598904D01*
X233529380Y-94741761D01*
X233529380Y-93551285D02*
X233005571Y-93551285D01*
X232910333Y-93598904D01*
X232862714Y-93694142D01*
X232862714Y-93884619D01*
X232910333Y-93979857D01*
X233481761Y-93551285D02*
X233529380Y-93646523D01*
X233529380Y-93884619D01*
X233481761Y-93979857D01*
X233386523Y-94027476D01*
X233291285Y-94027476D01*
X233196047Y-93979857D01*
X233148428Y-93884619D01*
X233148428Y-93646523D01*
X233100809Y-93551285D01*
X233529380Y-93075095D02*
X232862714Y-93075095D01*
X233053190Y-93075095D02*
X232957952Y-93027476D01*
X232910333Y-92979857D01*
X232862714Y-92884619D01*
X232862714Y-92789380D01*
X233529380Y-92027476D02*
X232529380Y-92027476D01*
X233481761Y-92027476D02*
X233529380Y-92122714D01*
X233529380Y-92313190D01*
X233481761Y-92408428D01*
X233434142Y-92456047D01*
X233338904Y-92503666D01*
X233053190Y-92503666D01*
X232957952Y-92456047D01*
X232910333Y-92408428D01*
X232862714Y-92313190D01*
X232862714Y-92122714D01*
X232910333Y-92027476D01*
X233529380Y-90789380D02*
X232529380Y-90789380D01*
X233529380Y-90313190D02*
X232529380Y-90313190D01*
X232529380Y-90075095D01*
X232577000Y-89932238D01*
X232672238Y-89837000D01*
X232767476Y-89789380D01*
X232957952Y-89741761D01*
X233100809Y-89741761D01*
X233291285Y-89789380D01*
X233386523Y-89837000D01*
X233481761Y-89932238D01*
X233529380Y-90075095D01*
X233529380Y-90313190D01*
X216440095Y-100020380D02*
X216440095Y-99020380D01*
X216821047Y-99020380D01*
X216916285Y-99068000D01*
X216963904Y-99115619D01*
X217011523Y-99210857D01*
X217011523Y-99353714D01*
X216963904Y-99448952D01*
X216916285Y-99496571D01*
X216821047Y-99544190D01*
X216440095Y-99544190D01*
X217868666Y-99353714D02*
X217868666Y-100020380D01*
X217440095Y-99353714D02*
X217440095Y-99877523D01*
X217487714Y-99972761D01*
X217582952Y-100020380D01*
X217725809Y-100020380D01*
X217821047Y-99972761D01*
X217868666Y-99925142D01*
X218487714Y-100020380D02*
X218392476Y-99972761D01*
X218344857Y-99877523D01*
X218344857Y-99020380D01*
X219011523Y-100020380D02*
X218916285Y-99972761D01*
X218868666Y-99877523D01*
X218868666Y-99020380D01*
X219392476Y-99639428D02*
X220154380Y-99639428D01*
X221059142Y-99353714D02*
X221059142Y-100020380D01*
X220630571Y-99353714D02*
X220630571Y-99877523D01*
X220678190Y-99972761D01*
X220773428Y-100020380D01*
X220916285Y-100020380D01*
X221011523Y-99972761D01*
X221059142Y-99925142D01*
X221535333Y-99353714D02*
X221535333Y-100353714D01*
X221535333Y-99401333D02*
X221630571Y-99353714D01*
X221821047Y-99353714D01*
X221916285Y-99401333D01*
X221963904Y-99448952D01*
X222011523Y-99544190D01*
X222011523Y-99829904D01*
X221963904Y-99925142D01*
X221916285Y-99972761D01*
X221821047Y-100020380D01*
X221630571Y-100020380D01*
X221535333Y-99972761D01*
X216479904Y-105100380D02*
X216479904Y-104100380D01*
X216860857Y-104100380D01*
X216956095Y-104148000D01*
X217003714Y-104195619D01*
X217051333Y-104290857D01*
X217051333Y-104433714D01*
X217003714Y-104528952D01*
X216956095Y-104576571D01*
X216860857Y-104624190D01*
X216479904Y-104624190D01*
X217908476Y-104433714D02*
X217908476Y-105100380D01*
X217479904Y-104433714D02*
X217479904Y-104957523D01*
X217527523Y-105052761D01*
X217622761Y-105100380D01*
X217765619Y-105100380D01*
X217860857Y-105052761D01*
X217908476Y-105005142D01*
X218527523Y-105100380D02*
X218432285Y-105052761D01*
X218384666Y-104957523D01*
X218384666Y-104100380D01*
X219051333Y-105100380D02*
X218956095Y-105052761D01*
X218908476Y-104957523D01*
X218908476Y-104100380D01*
X219432285Y-104719428D02*
X220194190Y-104719428D01*
X221098952Y-105100380D02*
X221098952Y-104100380D01*
X221098952Y-105052761D02*
X221003714Y-105100380D01*
X220813238Y-105100380D01*
X220718000Y-105052761D01*
X220670380Y-105005142D01*
X220622761Y-104909904D01*
X220622761Y-104624190D01*
X220670380Y-104528952D01*
X220718000Y-104481333D01*
X220813238Y-104433714D01*
X221003714Y-104433714D01*
X221098952Y-104481333D01*
X221718000Y-105100380D02*
X221622761Y-105052761D01*
X221575142Y-105005142D01*
X221527523Y-104909904D01*
X221527523Y-104624190D01*
X221575142Y-104528952D01*
X221622761Y-104481333D01*
X221718000Y-104433714D01*
X221860857Y-104433714D01*
X221956095Y-104481333D01*
X222003714Y-104528952D01*
X222051333Y-104624190D01*
X222051333Y-104909904D01*
X222003714Y-105005142D01*
X221956095Y-105052761D01*
X221860857Y-105100380D01*
X221718000Y-105100380D01*
X222384666Y-104433714D02*
X222575142Y-105100380D01*
X222765619Y-104624190D01*
X222956095Y-105100380D01*
X223146571Y-104433714D01*
X223527523Y-104433714D02*
X223527523Y-105100380D01*
X223527523Y-104528952D02*
X223575142Y-104481333D01*
X223670380Y-104433714D01*
X223813238Y-104433714D01*
X223908476Y-104481333D01*
X223956095Y-104576571D01*
X223956095Y-105100380D01*
X193580095Y-98242380D02*
X193580095Y-97242380D01*
X193961047Y-97242380D01*
X194056285Y-97290000D01*
X194103904Y-97337619D01*
X194151523Y-97432857D01*
X194151523Y-97575714D01*
X194103904Y-97670952D01*
X194056285Y-97718571D01*
X193961047Y-97766190D01*
X193580095Y-97766190D01*
X195008666Y-97575714D02*
X195008666Y-98242380D01*
X194580095Y-97575714D02*
X194580095Y-98099523D01*
X194627714Y-98194761D01*
X194722952Y-98242380D01*
X194865809Y-98242380D01*
X194961047Y-98194761D01*
X195008666Y-98147142D01*
X195627714Y-98242380D02*
X195532476Y-98194761D01*
X195484857Y-98099523D01*
X195484857Y-97242380D01*
X196151523Y-98242380D02*
X196056285Y-98194761D01*
X196008666Y-98099523D01*
X196008666Y-97242380D01*
X196532476Y-97861428D02*
X197294380Y-97861428D01*
X198199142Y-97575714D02*
X198199142Y-98242380D01*
X197770571Y-97575714D02*
X197770571Y-98099523D01*
X197818190Y-98194761D01*
X197913428Y-98242380D01*
X198056285Y-98242380D01*
X198151523Y-98194761D01*
X198199142Y-98147142D01*
X198675333Y-97575714D02*
X198675333Y-98575714D01*
X198675333Y-97623333D02*
X198770571Y-97575714D01*
X198961047Y-97575714D01*
X199056285Y-97623333D01*
X199103904Y-97670952D01*
X199151523Y-97766190D01*
X199151523Y-98051904D01*
X199103904Y-98147142D01*
X199056285Y-98194761D01*
X198961047Y-98242380D01*
X198770571Y-98242380D01*
X198675333Y-98194761D01*
X193619904Y-93162380D02*
X193619904Y-92162380D01*
X194000857Y-92162380D01*
X194096095Y-92210000D01*
X194143714Y-92257619D01*
X194191333Y-92352857D01*
X194191333Y-92495714D01*
X194143714Y-92590952D01*
X194096095Y-92638571D01*
X194000857Y-92686190D01*
X193619904Y-92686190D01*
X195048476Y-92495714D02*
X195048476Y-93162380D01*
X194619904Y-92495714D02*
X194619904Y-93019523D01*
X194667523Y-93114761D01*
X194762761Y-93162380D01*
X194905619Y-93162380D01*
X195000857Y-93114761D01*
X195048476Y-93067142D01*
X195667523Y-93162380D02*
X195572285Y-93114761D01*
X195524666Y-93019523D01*
X195524666Y-92162380D01*
X196191333Y-93162380D02*
X196096095Y-93114761D01*
X196048476Y-93019523D01*
X196048476Y-92162380D01*
X196572285Y-92781428D02*
X197334190Y-92781428D01*
X198238952Y-93162380D02*
X198238952Y-92162380D01*
X198238952Y-93114761D02*
X198143714Y-93162380D01*
X197953238Y-93162380D01*
X197858000Y-93114761D01*
X197810380Y-93067142D01*
X197762761Y-92971904D01*
X197762761Y-92686190D01*
X197810380Y-92590952D01*
X197858000Y-92543333D01*
X197953238Y-92495714D01*
X198143714Y-92495714D01*
X198238952Y-92543333D01*
X198858000Y-93162380D02*
X198762761Y-93114761D01*
X198715142Y-93067142D01*
X198667523Y-92971904D01*
X198667523Y-92686190D01*
X198715142Y-92590952D01*
X198762761Y-92543333D01*
X198858000Y-92495714D01*
X199000857Y-92495714D01*
X199096095Y-92543333D01*
X199143714Y-92590952D01*
X199191333Y-92686190D01*
X199191333Y-92971904D01*
X199143714Y-93067142D01*
X199096095Y-93114761D01*
X199000857Y-93162380D01*
X198858000Y-93162380D01*
X199524666Y-92495714D02*
X199715142Y-93162380D01*
X199905619Y-92686190D01*
X200096095Y-93162380D01*
X200286571Y-92495714D01*
X200667523Y-92495714D02*
X200667523Y-93162380D01*
X200667523Y-92590952D02*
X200715142Y-92543333D01*
X200810380Y-92495714D01*
X200953238Y-92495714D01*
X201048476Y-92543333D01*
X201096095Y-92638571D01*
X201096095Y-93162380D01*
X199538761Y-85502714D02*
X199538761Y-86217000D01*
X200491142Y-86288428D01*
X200395904Y-86217000D01*
X200300666Y-86074142D01*
X200300666Y-85717000D01*
X200395904Y-85574142D01*
X200491142Y-85502714D01*
X200681619Y-85431285D01*
X201157809Y-85431285D01*
X201348285Y-85502714D01*
X201443523Y-85574142D01*
X201538761Y-85717000D01*
X201538761Y-86074142D01*
X201443523Y-86217000D01*
X201348285Y-86288428D01*
X199538761Y-85002714D02*
X201538761Y-84502714D01*
X199538761Y-84002714D01*
X202784000Y-86359857D02*
X202688761Y-86502714D01*
X202688761Y-86717000D01*
X202784000Y-86931285D01*
X202974476Y-87074142D01*
X203164952Y-87145571D01*
X203545904Y-87217000D01*
X203831619Y-87217000D01*
X204212571Y-87145571D01*
X204403047Y-87074142D01*
X204593523Y-86931285D01*
X204688761Y-86717000D01*
X204688761Y-86574142D01*
X204593523Y-86359857D01*
X204498285Y-86288428D01*
X203831619Y-86288428D01*
X203831619Y-86574142D01*
X204688761Y-85645571D02*
X202688761Y-85645571D01*
X204688761Y-84788428D01*
X202688761Y-84788428D01*
X204688761Y-84074142D02*
X202688761Y-84074142D01*
X202688761Y-83717000D01*
X202784000Y-83502714D01*
X202974476Y-83359857D01*
X203164952Y-83288428D01*
X203545904Y-83217000D01*
X203831619Y-83217000D01*
X204212571Y-83288428D01*
X204403047Y-83359857D01*
X204593523Y-83502714D01*
X204688761Y-83717000D01*
X204688761Y-84074142D01*
X207267333Y-86288428D02*
X207267333Y-85574142D01*
X207838761Y-86431285D02*
X205838761Y-85931285D01*
X207838761Y-85431285D01*
X205838761Y-84645571D02*
X205838761Y-84502714D01*
X205934000Y-84359857D01*
X206029238Y-84288428D01*
X206219714Y-84217000D01*
X206600666Y-84145571D01*
X207076857Y-84145571D01*
X207457809Y-84217000D01*
X207648285Y-84288428D01*
X207743523Y-84359857D01*
X207838761Y-84502714D01*
X207838761Y-84645571D01*
X207743523Y-84788428D01*
X207648285Y-84859857D01*
X207457809Y-84931285D01*
X207076857Y-85002714D01*
X206600666Y-85002714D01*
X206219714Y-84931285D01*
X206029238Y-84859857D01*
X205934000Y-84788428D01*
X205838761Y-84645571D01*
X208988761Y-85502714D02*
X208988761Y-86217000D01*
X209941142Y-86288428D01*
X209845904Y-86217000D01*
X209750666Y-86074142D01*
X209750666Y-85717000D01*
X209845904Y-85574142D01*
X209941142Y-85502714D01*
X210131619Y-85431285D01*
X210607809Y-85431285D01*
X210798285Y-85502714D01*
X210893523Y-85574142D01*
X210988761Y-85717000D01*
X210988761Y-86074142D01*
X210893523Y-86217000D01*
X210798285Y-86288428D01*
X208988761Y-85002714D02*
X210988761Y-84502714D01*
X208988761Y-84002714D01*
X184203333Y-86288428D02*
X184203333Y-85574142D01*
X184774761Y-86431285D02*
X182774761Y-85931285D01*
X184774761Y-85431285D01*
X182965238Y-85002714D02*
X182870000Y-84931285D01*
X182774761Y-84788428D01*
X182774761Y-84431285D01*
X182870000Y-84288428D01*
X182965238Y-84217000D01*
X183155714Y-84145571D01*
X183346190Y-84145571D01*
X183631904Y-84217000D01*
X184774761Y-85074142D01*
X184774761Y-84145571D01*
X185924761Y-85502714D02*
X185924761Y-86217000D01*
X186877142Y-86288428D01*
X186781904Y-86217000D01*
X186686666Y-86074142D01*
X186686666Y-85717000D01*
X186781904Y-85574142D01*
X186877142Y-85502714D01*
X187067619Y-85431285D01*
X187543809Y-85431285D01*
X187734285Y-85502714D01*
X187829523Y-85574142D01*
X187924761Y-85717000D01*
X187924761Y-86074142D01*
X187829523Y-86217000D01*
X187734285Y-86288428D01*
X185924761Y-85002714D02*
X187924761Y-84502714D01*
X185924761Y-84002714D01*
X189170000Y-86359857D02*
X189074761Y-86502714D01*
X189074761Y-86717000D01*
X189170000Y-86931285D01*
X189360476Y-87074142D01*
X189550952Y-87145571D01*
X189931904Y-87217000D01*
X190217619Y-87217000D01*
X190598571Y-87145571D01*
X190789047Y-87074142D01*
X190979523Y-86931285D01*
X191074761Y-86717000D01*
X191074761Y-86574142D01*
X190979523Y-86359857D01*
X190884285Y-86288428D01*
X190217619Y-86288428D01*
X190217619Y-86574142D01*
X191074761Y-85645571D02*
X189074761Y-85645571D01*
X191074761Y-84788428D01*
X189074761Y-84788428D01*
X191074761Y-84074142D02*
X189074761Y-84074142D01*
X189074761Y-83717000D01*
X189170000Y-83502714D01*
X189360476Y-83359857D01*
X189550952Y-83288428D01*
X189931904Y-83217000D01*
X190217619Y-83217000D01*
X190598571Y-83288428D01*
X190789047Y-83359857D01*
X190979523Y-83502714D01*
X191074761Y-83717000D01*
X191074761Y-84074142D01*
X193653333Y-86288428D02*
X193653333Y-85574142D01*
X194224761Y-86431285D02*
X192224761Y-85931285D01*
X194224761Y-85431285D01*
X194224761Y-84145571D02*
X194224761Y-85002714D01*
X194224761Y-84574142D02*
X192224761Y-84574142D01*
X192510476Y-84717000D01*
X192700952Y-84859857D01*
X192796190Y-85002714D01*
X167757000Y-86359857D02*
X167661761Y-86502714D01*
X167661761Y-86717000D01*
X167757000Y-86931285D01*
X167947476Y-87074142D01*
X168137952Y-87145571D01*
X168518904Y-87217000D01*
X168804619Y-87217000D01*
X169185571Y-87145571D01*
X169376047Y-87074142D01*
X169566523Y-86931285D01*
X169661761Y-86717000D01*
X169661761Y-86574142D01*
X169566523Y-86359857D01*
X169471285Y-86288428D01*
X168804619Y-86288428D01*
X168804619Y-86574142D01*
X169661761Y-85645571D02*
X167661761Y-85645571D01*
X169661761Y-84788428D01*
X167661761Y-84788428D01*
X169661761Y-84074142D02*
X167661761Y-84074142D01*
X167661761Y-83717000D01*
X167757000Y-83502714D01*
X167947476Y-83359857D01*
X168137952Y-83288428D01*
X168518904Y-83217000D01*
X168804619Y-83217000D01*
X169185571Y-83288428D01*
X169376047Y-83359857D01*
X169566523Y-83502714D01*
X169661761Y-83717000D01*
X169661761Y-84074142D01*
X172240333Y-86288428D02*
X172240333Y-85574142D01*
X172811761Y-86431285D02*
X170811761Y-85931285D01*
X172811761Y-85431285D01*
X170811761Y-85074142D02*
X170811761Y-84145571D01*
X171573666Y-84645571D01*
X171573666Y-84431285D01*
X171668904Y-84288428D01*
X171764142Y-84217000D01*
X171954619Y-84145571D01*
X172430809Y-84145571D01*
X172621285Y-84217000D01*
X172716523Y-84288428D01*
X172811761Y-84431285D01*
X172811761Y-84859857D01*
X172716523Y-85002714D01*
X172621285Y-85074142D01*
X173961761Y-85502714D02*
X173961761Y-86217000D01*
X174914142Y-86288428D01*
X174818904Y-86217000D01*
X174723666Y-86074142D01*
X174723666Y-85717000D01*
X174818904Y-85574142D01*
X174914142Y-85502714D01*
X175104619Y-85431285D01*
X175580809Y-85431285D01*
X175771285Y-85502714D01*
X175866523Y-85574142D01*
X175961761Y-85717000D01*
X175961761Y-86074142D01*
X175866523Y-86217000D01*
X175771285Y-86288428D01*
X173961761Y-85002714D02*
X175961761Y-84502714D01*
X173961761Y-84002714D01*
X177207000Y-86359857D02*
X177111761Y-86502714D01*
X177111761Y-86717000D01*
X177207000Y-86931285D01*
X177397476Y-87074142D01*
X177587952Y-87145571D01*
X177968904Y-87217000D01*
X178254619Y-87217000D01*
X178635571Y-87145571D01*
X178826047Y-87074142D01*
X179016523Y-86931285D01*
X179111761Y-86717000D01*
X179111761Y-86574142D01*
X179016523Y-86359857D01*
X178921285Y-86288428D01*
X178254619Y-86288428D01*
X178254619Y-86574142D01*
X179111761Y-85645571D02*
X177111761Y-85645571D01*
X179111761Y-84788428D01*
X177111761Y-84788428D01*
X179111761Y-84074142D02*
X177111761Y-84074142D01*
X177111761Y-83717000D01*
X177207000Y-83502714D01*
X177397476Y-83359857D01*
X177587952Y-83288428D01*
X177968904Y-83217000D01*
X178254619Y-83217000D01*
X178635571Y-83288428D01*
X178826047Y-83359857D01*
X179016523Y-83502714D01*
X179111761Y-83717000D01*
X179111761Y-84074142D01*
X199761000Y-111886857D02*
X199665761Y-112029714D01*
X199665761Y-112244000D01*
X199761000Y-112458285D01*
X199951476Y-112601142D01*
X200141952Y-112672571D01*
X200522904Y-112744000D01*
X200808619Y-112744000D01*
X201189571Y-112672571D01*
X201380047Y-112601142D01*
X201570523Y-112458285D01*
X201665761Y-112244000D01*
X201665761Y-112101142D01*
X201570523Y-111886857D01*
X201475285Y-111815428D01*
X200808619Y-111815428D01*
X200808619Y-112101142D01*
X201665761Y-111172571D02*
X199665761Y-111172571D01*
X201665761Y-110315428D01*
X199665761Y-110315428D01*
X201665761Y-109601142D02*
X199665761Y-109601142D01*
X199665761Y-109244000D01*
X199761000Y-109029714D01*
X199951476Y-108886857D01*
X200141952Y-108815428D01*
X200522904Y-108744000D01*
X200808619Y-108744000D01*
X201189571Y-108815428D01*
X201380047Y-108886857D01*
X201570523Y-109029714D01*
X201665761Y-109244000D01*
X201665761Y-109601142D01*
X202815761Y-111029714D02*
X202815761Y-111744000D01*
X203768142Y-111815428D01*
X203672904Y-111744000D01*
X203577666Y-111601142D01*
X203577666Y-111244000D01*
X203672904Y-111101142D01*
X203768142Y-111029714D01*
X203958619Y-110958285D01*
X204434809Y-110958285D01*
X204625285Y-111029714D01*
X204720523Y-111101142D01*
X204815761Y-111244000D01*
X204815761Y-111601142D01*
X204720523Y-111744000D01*
X204625285Y-111815428D01*
X202815761Y-110529714D02*
X204815761Y-110029714D01*
X202815761Y-109529714D01*
X207965761Y-111851142D02*
X205965761Y-111851142D01*
X205965761Y-111494000D01*
X206061000Y-111279714D01*
X206251476Y-111136857D01*
X206441952Y-111065428D01*
X206822904Y-110994000D01*
X207108619Y-110994000D01*
X207489571Y-111065428D01*
X207680047Y-111136857D01*
X207870523Y-111279714D01*
X207965761Y-111494000D01*
X207965761Y-111851142D01*
X207965761Y-109565428D02*
X207965761Y-110422571D01*
X207965761Y-109994000D02*
X205965761Y-109994000D01*
X206251476Y-110136857D01*
X206441952Y-110279714D01*
X206537190Y-110422571D01*
X209211000Y-111886857D02*
X209115761Y-112029714D01*
X209115761Y-112244000D01*
X209211000Y-112458285D01*
X209401476Y-112601142D01*
X209591952Y-112672571D01*
X209972904Y-112744000D01*
X210258619Y-112744000D01*
X210639571Y-112672571D01*
X210830047Y-112601142D01*
X211020523Y-112458285D01*
X211115761Y-112244000D01*
X211115761Y-112101142D01*
X211020523Y-111886857D01*
X210925285Y-111815428D01*
X210258619Y-111815428D01*
X210258619Y-112101142D01*
X211115761Y-111172571D02*
X209115761Y-111172571D01*
X211115761Y-110315428D01*
X209115761Y-110315428D01*
X211115761Y-109601142D02*
X209115761Y-109601142D01*
X209115761Y-109244000D01*
X209211000Y-109029714D01*
X209401476Y-108886857D01*
X209591952Y-108815428D01*
X209972904Y-108744000D01*
X210258619Y-108744000D01*
X210639571Y-108815428D01*
X210830047Y-108886857D01*
X211020523Y-109029714D01*
X211115761Y-109244000D01*
X211115761Y-109601142D01*
X183822333Y-111815428D02*
X183822333Y-111101142D01*
X184393761Y-111958285D02*
X182393761Y-111458285D01*
X184393761Y-110958285D01*
X182393761Y-109744000D02*
X182393761Y-110458285D01*
X183346142Y-110529714D01*
X183250904Y-110458285D01*
X183155666Y-110315428D01*
X183155666Y-109958285D01*
X183250904Y-109815428D01*
X183346142Y-109744000D01*
X183536619Y-109672571D01*
X184012809Y-109672571D01*
X184203285Y-109744000D01*
X184298523Y-109815428D01*
X184393761Y-109958285D01*
X184393761Y-110315428D01*
X184298523Y-110458285D01*
X184203285Y-110529714D01*
X185639000Y-111886857D02*
X185543761Y-112029714D01*
X185543761Y-112244000D01*
X185639000Y-112458285D01*
X185829476Y-112601142D01*
X186019952Y-112672571D01*
X186400904Y-112744000D01*
X186686619Y-112744000D01*
X187067571Y-112672571D01*
X187258047Y-112601142D01*
X187448523Y-112458285D01*
X187543761Y-112244000D01*
X187543761Y-112101142D01*
X187448523Y-111886857D01*
X187353285Y-111815428D01*
X186686619Y-111815428D01*
X186686619Y-112101142D01*
X187543761Y-111172571D02*
X185543761Y-111172571D01*
X187543761Y-110315428D01*
X185543761Y-110315428D01*
X187543761Y-109601142D02*
X185543761Y-109601142D01*
X185543761Y-109244000D01*
X185639000Y-109029714D01*
X185829476Y-108886857D01*
X186019952Y-108815428D01*
X186400904Y-108744000D01*
X186686619Y-108744000D01*
X187067571Y-108815428D01*
X187258047Y-108886857D01*
X187448523Y-109029714D01*
X187543761Y-109244000D01*
X187543761Y-109601142D01*
X188693761Y-111029714D02*
X188693761Y-111744000D01*
X189646142Y-111815428D01*
X189550904Y-111744000D01*
X189455666Y-111601142D01*
X189455666Y-111244000D01*
X189550904Y-111101142D01*
X189646142Y-111029714D01*
X189836619Y-110958285D01*
X190312809Y-110958285D01*
X190503285Y-111029714D01*
X190598523Y-111101142D01*
X190693761Y-111244000D01*
X190693761Y-111601142D01*
X190598523Y-111744000D01*
X190503285Y-111815428D01*
X188693761Y-110529714D02*
X190693761Y-110029714D01*
X188693761Y-109529714D01*
X193843761Y-111851142D02*
X191843761Y-111851142D01*
X191843761Y-111494000D01*
X191939000Y-111279714D01*
X192129476Y-111136857D01*
X192319952Y-111065428D01*
X192700904Y-110994000D01*
X192986619Y-110994000D01*
X193367571Y-111065428D01*
X193558047Y-111136857D01*
X193748523Y-111279714D01*
X193843761Y-111494000D01*
X193843761Y-111851142D01*
X191843761Y-110065428D02*
X191843761Y-109922571D01*
X191939000Y-109779714D01*
X192034238Y-109708285D01*
X192224714Y-109636857D01*
X192605666Y-109565428D01*
X193081857Y-109565428D01*
X193462809Y-109636857D01*
X193653285Y-109708285D01*
X193748523Y-109779714D01*
X193843761Y-109922571D01*
X193843761Y-110065428D01*
X193748523Y-110208285D01*
X193653285Y-110279714D01*
X193462809Y-110351142D01*
X193081857Y-110422571D01*
X192605666Y-110422571D01*
X192224714Y-110351142D01*
X192034238Y-110279714D01*
X191939000Y-110208285D01*
X191843761Y-110065428D01*
X167661761Y-111029714D02*
X167661761Y-111744000D01*
X168614142Y-111815428D01*
X168518904Y-111744000D01*
X168423666Y-111601142D01*
X168423666Y-111244000D01*
X168518904Y-111101142D01*
X168614142Y-111029714D01*
X168804619Y-110958285D01*
X169280809Y-110958285D01*
X169471285Y-111029714D01*
X169566523Y-111101142D01*
X169661761Y-111244000D01*
X169661761Y-111601142D01*
X169566523Y-111744000D01*
X169471285Y-111815428D01*
X167661761Y-110529714D02*
X169661761Y-110029714D01*
X167661761Y-109529714D01*
X172240333Y-111815428D02*
X172240333Y-111101142D01*
X172811761Y-111958285D02*
X170811761Y-111458285D01*
X172811761Y-110958285D01*
X171478428Y-109815428D02*
X172811761Y-109815428D01*
X170716523Y-110172571D02*
X172145095Y-110529714D01*
X172145095Y-109601142D01*
X174057000Y-111886857D02*
X173961761Y-112029714D01*
X173961761Y-112244000D01*
X174057000Y-112458285D01*
X174247476Y-112601142D01*
X174437952Y-112672571D01*
X174818904Y-112744000D01*
X175104619Y-112744000D01*
X175485571Y-112672571D01*
X175676047Y-112601142D01*
X175866523Y-112458285D01*
X175961761Y-112244000D01*
X175961761Y-112101142D01*
X175866523Y-111886857D01*
X175771285Y-111815428D01*
X175104619Y-111815428D01*
X175104619Y-112101142D01*
X175961761Y-111172571D02*
X173961761Y-111172571D01*
X175961761Y-110315428D01*
X173961761Y-110315428D01*
X175961761Y-109601142D02*
X173961761Y-109601142D01*
X173961761Y-109244000D01*
X174057000Y-109029714D01*
X174247476Y-108886857D01*
X174437952Y-108815428D01*
X174818904Y-108744000D01*
X175104619Y-108744000D01*
X175485571Y-108815428D01*
X175676047Y-108886857D01*
X175866523Y-109029714D01*
X175961761Y-109244000D01*
X175961761Y-109601142D01*
X177111761Y-111029714D02*
X177111761Y-111744000D01*
X178064142Y-111815428D01*
X177968904Y-111744000D01*
X177873666Y-111601142D01*
X177873666Y-111244000D01*
X177968904Y-111101142D01*
X178064142Y-111029714D01*
X178254619Y-110958285D01*
X178730809Y-110958285D01*
X178921285Y-111029714D01*
X179016523Y-111101142D01*
X179111761Y-111244000D01*
X179111761Y-111601142D01*
X179016523Y-111744000D01*
X178921285Y-111815428D01*
X177111761Y-110529714D02*
X179111761Y-110029714D01*
X177111761Y-109529714D01*
D12*
%TO.C,C1*%
X233010000Y-82477020D02*
X233010000Y-82758180D01*
X234030000Y-82477020D02*
X234030000Y-82758180D01*
%TO.C,C2*%
X221100580Y-80177600D02*
X220819420Y-80177600D01*
X221100580Y-79157600D02*
X220819420Y-79157600D01*
%TO.C,C3*%
X221100580Y-85157600D02*
X220819420Y-85157600D01*
X221100580Y-86177600D02*
X220819420Y-86177600D01*
%TO.C,C4*%
X218360000Y-83602600D02*
X222270000Y-83602600D01*
X222270000Y-83602600D02*
X222270000Y-81732600D01*
X222270000Y-81732600D02*
X218360000Y-81732600D01*
%TO.C,D1*%
X223519000Y-70493000D02*
X219634000Y-70493000D01*
X223519000Y-72763000D02*
X223519000Y-70493000D01*
X219634000Y-72763000D02*
X223519000Y-72763000D01*
%TO.C,J1*%
X161670000Y-85240000D02*
X163000000Y-85240000D01*
X161670000Y-86570000D02*
X161670000Y-85240000D01*
X164270000Y-85240000D02*
X166870000Y-85240000D01*
X164270000Y-87840000D02*
X164270000Y-85240000D01*
X161670000Y-87840000D02*
X164270000Y-87840000D01*
X166870000Y-85240000D02*
X166870000Y-110760000D01*
X161670000Y-87840000D02*
X161670000Y-110760000D01*
X161670000Y-110760000D02*
X166870000Y-110760000D01*
%TO.C,J2*%
X238170000Y-82700000D02*
X239500000Y-82700000D01*
X238170000Y-84030000D02*
X238170000Y-82700000D01*
X240770000Y-82700000D02*
X243370000Y-82700000D01*
X240770000Y-85300000D02*
X240770000Y-82700000D01*
X238170000Y-85300000D02*
X240770000Y-85300000D01*
X243370000Y-82700000D02*
X243370000Y-113300000D01*
X238170000Y-85300000D02*
X238170000Y-113300000D01*
X238170000Y-113300000D02*
X243370000Y-113300000D01*
%TO.C,R9*%
X220359500Y-76056258D02*
X220359500Y-75581742D01*
X219314500Y-76056258D02*
X219314500Y-75581742D01*
%TO.C,C5*%
X228606000Y-112052580D02*
X228606000Y-111771420D01*
X229626000Y-112052580D02*
X229626000Y-111771420D01*
%TO.C,D2*%
X230259000Y-120828000D02*
X230259000Y-124713000D01*
X230259000Y-124713000D02*
X232529000Y-124713000D01*
X232529000Y-124713000D02*
X232529000Y-120828000D01*
%TO.C,D3*%
X229264000Y-100966000D02*
X229264000Y-104266000D01*
X229264000Y-104266000D02*
X234664000Y-104266000D01*
X229264000Y-100966000D02*
X234664000Y-100966000D01*
%TO.C,J3*%
X229300000Y-90934000D02*
X230410000Y-90934000D01*
X229300000Y-91694000D02*
X229300000Y-90934000D01*
X230973471Y-92454000D02*
X231520000Y-92454000D01*
X229300000Y-92454000D02*
X229846529Y-92454000D01*
X231520000Y-92454000D02*
X231520000Y-94929000D01*
X229300000Y-92454000D02*
X229300000Y-94929000D01*
X230717530Y-94929000D02*
X231520000Y-94929000D01*
X229300000Y-94929000D02*
X230102470Y-94929000D01*
%TO.C,J4*%
X226760000Y-94929000D02*
X227562470Y-94929000D01*
X228177530Y-94929000D02*
X228980000Y-94929000D01*
X226760000Y-92454000D02*
X226760000Y-94929000D01*
X228980000Y-92454000D02*
X228980000Y-94929000D01*
X226760000Y-92454000D02*
X227306529Y-92454000D01*
X228433471Y-92454000D02*
X228980000Y-92454000D01*
X226760000Y-91694000D02*
X226760000Y-90934000D01*
X226760000Y-90934000D02*
X227870000Y-90934000D01*
%TO.C,J5*%
X224220000Y-90934000D02*
X225330000Y-90934000D01*
X224220000Y-91694000D02*
X224220000Y-90934000D01*
X225893471Y-92454000D02*
X226440000Y-92454000D01*
X224220000Y-92454000D02*
X224766529Y-92454000D01*
X226440000Y-92454000D02*
X226440000Y-94929000D01*
X224220000Y-92454000D02*
X224220000Y-94929000D01*
X225637530Y-94929000D02*
X226440000Y-94929000D01*
X224220000Y-94929000D02*
X225022470Y-94929000D01*
%TO.C,J6*%
X214367000Y-75180000D02*
G75*
G03*
X214367000Y-75180000I-381000J0D01*
G01*
X213351000Y-82607001D02*
X213351000Y-70353002D01*
X197597000Y-82607001D02*
X213351000Y-82607001D01*
X197597000Y-70353002D02*
X197597000Y-82607001D01*
X213351000Y-70353002D02*
X197597000Y-70353002D01*
%TO.C,J7*%
X197367000Y-75180000D02*
G75*
G03*
X197367000Y-75180000I-381000J0D01*
G01*
X196351000Y-82607001D02*
X196351000Y-70353002D01*
X180597000Y-82607001D02*
X196351000Y-82607001D01*
X180597000Y-70353002D02*
X180597000Y-82607001D01*
X196351000Y-70353002D02*
X180597000Y-70353002D01*
%TO.C,J8*%
X179351000Y-70353002D02*
X163597000Y-70353002D01*
X163597000Y-70353002D02*
X163597000Y-82607001D01*
X163597000Y-82607001D02*
X179351000Y-82607001D01*
X179351000Y-82607001D02*
X179351000Y-70353002D01*
X180367000Y-75180000D02*
G75*
G03*
X180367000Y-75180000I-381000J0D01*
G01*
%TO.C,J9*%
X162981000Y-125857998D02*
X178735000Y-125857998D01*
X178735000Y-125857998D02*
X178735000Y-113603999D01*
X178735000Y-113603999D02*
X162981000Y-113603999D01*
X162981000Y-113603999D02*
X162981000Y-125857998D01*
X162727000Y-121031000D02*
G75*
G03*
X162727000Y-121031000I-381000J0D01*
G01*
%TO.C,J10*%
X179999000Y-125857998D02*
X195753000Y-125857998D01*
X195753000Y-125857998D02*
X195753000Y-113603999D01*
X195753000Y-113603999D02*
X179999000Y-113603999D01*
X179999000Y-113603999D02*
X179999000Y-125857998D01*
X179745000Y-121031000D02*
G75*
G03*
X179745000Y-121031000I-381000J0D01*
G01*
%TO.C,J11*%
X197017000Y-121031000D02*
G75*
G03*
X197017000Y-121031000I-381000J0D01*
G01*
X197271000Y-113603999D02*
X197271000Y-125857998D01*
X213025000Y-113603999D02*
X197271000Y-113603999D01*
X213025000Y-125857998D02*
X213025000Y-113603999D01*
X197271000Y-125857998D02*
X213025000Y-125857998D01*
%TO.C,J12*%
X242490000Y-76930000D02*
X242490000Y-71730000D01*
X232270000Y-76930000D02*
X242490000Y-76930000D01*
X229670000Y-71730000D02*
X242490000Y-71730000D01*
X232270000Y-76930000D02*
X232270000Y-74330000D01*
X232270000Y-74330000D02*
X229670000Y-74330000D01*
X229670000Y-74330000D02*
X229670000Y-71730000D01*
X231000000Y-76930000D02*
X229670000Y-76930000D01*
X229670000Y-76930000D02*
X229670000Y-75600000D01*
%TO.C,J13*%
X170167000Y-91503000D02*
X171497000Y-91503000D01*
X170167000Y-92833000D02*
X170167000Y-91503000D01*
X170167000Y-94103000D02*
X172827000Y-94103000D01*
X172827000Y-94103000D02*
X172827000Y-99243000D01*
X170167000Y-94103000D02*
X170167000Y-99243000D01*
X170167000Y-99243000D02*
X172827000Y-99243000D01*
%TO.C,J14*%
X174167000Y-99243000D02*
X176827000Y-99243000D01*
X174167000Y-94103000D02*
X174167000Y-99243000D01*
X176827000Y-94103000D02*
X176827000Y-99243000D01*
X174167000Y-94103000D02*
X176827000Y-94103000D01*
X174167000Y-92833000D02*
X174167000Y-91503000D01*
X174167000Y-91503000D02*
X175497000Y-91503000D01*
%TO.C,J15*%
X178167000Y-91503000D02*
X179497000Y-91503000D01*
X178167000Y-92833000D02*
X178167000Y-91503000D01*
X178167000Y-94103000D02*
X180827000Y-94103000D01*
X180827000Y-94103000D02*
X180827000Y-99243000D01*
X178167000Y-94103000D02*
X178167000Y-99243000D01*
X178167000Y-99243000D02*
X180827000Y-99243000D01*
%TO.C,J16*%
X182167000Y-99243000D02*
X184827000Y-99243000D01*
X182167000Y-94103000D02*
X182167000Y-99243000D01*
X184827000Y-94103000D02*
X184827000Y-99243000D01*
X182167000Y-94103000D02*
X184827000Y-94103000D01*
X182167000Y-92833000D02*
X182167000Y-91503000D01*
X182167000Y-91503000D02*
X183497000Y-91503000D01*
%TO.C,J17*%
X186167000Y-91503000D02*
X187497000Y-91503000D01*
X186167000Y-92833000D02*
X186167000Y-91503000D01*
X186167000Y-94103000D02*
X188827000Y-94103000D01*
X188827000Y-94103000D02*
X188827000Y-99243000D01*
X186167000Y-94103000D02*
X186167000Y-99243000D01*
X186167000Y-99243000D02*
X188827000Y-99243000D01*
%TO.C,J18*%
X190167000Y-99243000D02*
X192827000Y-99243000D01*
X190167000Y-94103000D02*
X190167000Y-99243000D01*
X192827000Y-94103000D02*
X192827000Y-99243000D01*
X190167000Y-94103000D02*
X192827000Y-94103000D01*
X190167000Y-92833000D02*
X190167000Y-91503000D01*
X190167000Y-91503000D02*
X191497000Y-91503000D01*
%TO.C,J19*%
X215473000Y-106109000D02*
X214143000Y-106109000D01*
X215473000Y-104779000D02*
X215473000Y-106109000D01*
X215473000Y-103509000D02*
X212813000Y-103509000D01*
X212813000Y-103509000D02*
X212813000Y-98369000D01*
X215473000Y-103509000D02*
X215473000Y-98369000D01*
X215473000Y-98369000D02*
X212813000Y-98369000D01*
%TO.C,J20*%
X211473000Y-98369000D02*
X208813000Y-98369000D01*
X211473000Y-103509000D02*
X211473000Y-98369000D01*
X208813000Y-103509000D02*
X208813000Y-98369000D01*
X211473000Y-103509000D02*
X208813000Y-103509000D01*
X211473000Y-104779000D02*
X211473000Y-106109000D01*
X211473000Y-106109000D02*
X210143000Y-106109000D01*
%TO.C,J21*%
X242503000Y-124799000D02*
X242503000Y-119599000D01*
X237363000Y-124799000D02*
X242503000Y-124799000D01*
X234763000Y-119599000D02*
X242503000Y-119599000D01*
X237363000Y-124799000D02*
X237363000Y-122199000D01*
X237363000Y-122199000D02*
X234763000Y-122199000D01*
X234763000Y-122199000D02*
X234763000Y-119599000D01*
X236093000Y-124799000D02*
X234763000Y-124799000D01*
X234763000Y-124799000D02*
X234763000Y-123469000D01*
%TO.C,J22*%
X221680000Y-94929000D02*
X222482470Y-94929000D01*
X223097530Y-94929000D02*
X223900000Y-94929000D01*
X221680000Y-92454000D02*
X221680000Y-94929000D01*
X223900000Y-92454000D02*
X223900000Y-94929000D01*
X221680000Y-92454000D02*
X222226529Y-92454000D01*
X223353471Y-92454000D02*
X223900000Y-92454000D01*
X221680000Y-91694000D02*
X221680000Y-90934000D01*
X221680000Y-90934000D02*
X222790000Y-90934000D01*
%TO.C,R1*%
X171259742Y-100310500D02*
X171734258Y-100310500D01*
X171259742Y-101355500D02*
X171734258Y-101355500D01*
%TO.C,R2*%
X171259742Y-103355500D02*
X171734258Y-103355500D01*
X171259742Y-102310500D02*
X171734258Y-102310500D01*
%TO.C,R3*%
X175259742Y-101355500D02*
X175734258Y-101355500D01*
X175259742Y-100310500D02*
X175734258Y-100310500D01*
%TO.C,R4*%
X175259742Y-102310500D02*
X175734258Y-102310500D01*
X175259742Y-103355500D02*
X175734258Y-103355500D01*
%TO.C,R5*%
X179259742Y-100310500D02*
X179734258Y-100310500D01*
X179259742Y-101355500D02*
X179734258Y-101355500D01*
%TO.C,R6*%
X179259742Y-103355500D02*
X179734258Y-103355500D01*
X179259742Y-102310500D02*
X179734258Y-102310500D01*
%TO.C,R7*%
X183259742Y-101355500D02*
X183734258Y-101355500D01*
X183259742Y-100310500D02*
X183734258Y-100310500D01*
%TO.C,R8*%
X183259742Y-102310500D02*
X183734258Y-102310500D01*
X183259742Y-103355500D02*
X183734258Y-103355500D01*
%TO.C,R10*%
X187259742Y-100310500D02*
X187734258Y-100310500D01*
X187259742Y-101355500D02*
X187734258Y-101355500D01*
%TO.C,R11*%
X187259742Y-102310500D02*
X187734258Y-102310500D01*
X187259742Y-103355500D02*
X187734258Y-103355500D01*
%TO.C,R12*%
X191259742Y-101355500D02*
X191734258Y-101355500D01*
X191259742Y-100310500D02*
X191734258Y-100310500D01*
%TO.C,R13*%
X191259742Y-102310500D02*
X191734258Y-102310500D01*
X191259742Y-103355500D02*
X191734258Y-103355500D01*
%TO.C,R14*%
X214380258Y-96002500D02*
X213905742Y-96002500D01*
X214380258Y-97047500D02*
X213905742Y-97047500D01*
%TO.C,R15*%
X214380258Y-95047500D02*
X213905742Y-95047500D01*
X214380258Y-94002500D02*
X213905742Y-94002500D01*
%TO.C,R16*%
X210380258Y-96002500D02*
X209905742Y-96002500D01*
X210380258Y-97047500D02*
X209905742Y-97047500D01*
%TO.C,R17*%
X210380258Y-94002500D02*
X209905742Y-94002500D01*
X210380258Y-95047500D02*
X209905742Y-95047500D01*
%TO.C,SW1*%
X217681000Y-120008000D02*
X227581000Y-120008000D01*
X217681000Y-124848000D02*
X227581000Y-124848000D01*
X217681000Y-120008000D02*
X217681000Y-121628000D01*
X217681000Y-123228000D02*
X217681000Y-124848000D01*
X227581000Y-120008000D02*
X227581000Y-121628000D01*
X227581000Y-123228000D02*
X227581000Y-124848000D01*
X217441000Y-119768000D02*
X218825000Y-119768000D01*
X217441000Y-119768000D02*
X217441000Y-121151000D01*
X220601000Y-121793000D02*
X220601000Y-123063000D01*
X220601000Y-123063000D02*
X224661000Y-123063000D01*
X224661000Y-123063000D02*
X224661000Y-121793000D01*
X224661000Y-121793000D02*
X220601000Y-121793000D01*
X220601000Y-121913000D02*
X221954333Y-121913000D01*
X220601000Y-122033000D02*
X221954333Y-122033000D01*
X220601000Y-122153000D02*
X221954333Y-122153000D01*
X220601000Y-122273000D02*
X221954333Y-122273000D01*
X220601000Y-122393000D02*
X221954333Y-122393000D01*
X220601000Y-122513000D02*
X221954333Y-122513000D01*
X220601000Y-122633000D02*
X221954333Y-122633000D01*
X220601000Y-122753000D02*
X221954333Y-122753000D01*
X220601000Y-122873000D02*
X221954333Y-122873000D01*
X220601000Y-122993000D02*
X221954333Y-122993000D01*
X221954333Y-121793000D02*
X221954333Y-123063000D01*
%TO.C,R18*%
X233569742Y-107554500D02*
X234044258Y-107554500D01*
X233569742Y-108599500D02*
X234044258Y-108599500D01*
%TO.C,C1*%
D10*
X235307142Y-82784266D02*
X235354761Y-82831885D01*
X235402380Y-82974742D01*
X235402380Y-83069980D01*
X235354761Y-83212838D01*
X235259523Y-83308076D01*
X235164285Y-83355695D01*
X234973809Y-83403314D01*
X234830952Y-83403314D01*
X234640476Y-83355695D01*
X234545238Y-83308076D01*
X234450000Y-83212838D01*
X234402380Y-83069980D01*
X234402380Y-82974742D01*
X234450000Y-82831885D01*
X234497619Y-82784266D01*
X235402380Y-81831885D02*
X235402380Y-82403314D01*
X235402380Y-82117600D02*
X234402380Y-82117600D01*
X234545238Y-82212838D01*
X234640476Y-82308076D01*
X234688095Y-82403314D01*
%TO.C,C2*%
X218027333Y-79960742D02*
X217979714Y-80008361D01*
X217836857Y-80055980D01*
X217741619Y-80055980D01*
X217598761Y-80008361D01*
X217503523Y-79913123D01*
X217455904Y-79817885D01*
X217408285Y-79627409D01*
X217408285Y-79484552D01*
X217455904Y-79294076D01*
X217503523Y-79198838D01*
X217598761Y-79103600D01*
X217741619Y-79055980D01*
X217836857Y-79055980D01*
X217979714Y-79103600D01*
X218027333Y-79151219D01*
X218408285Y-79151219D02*
X218455904Y-79103600D01*
X218551142Y-79055980D01*
X218789238Y-79055980D01*
X218884476Y-79103600D01*
X218932095Y-79151219D01*
X218979714Y-79246457D01*
X218979714Y-79341695D01*
X218932095Y-79484552D01*
X218360666Y-80055980D01*
X218979714Y-80055980D01*
%TO.C,C3*%
X218027333Y-86056742D02*
X217979714Y-86104361D01*
X217836857Y-86151980D01*
X217741619Y-86151980D01*
X217598761Y-86104361D01*
X217503523Y-86009123D01*
X217455904Y-85913885D01*
X217408285Y-85723409D01*
X217408285Y-85580552D01*
X217455904Y-85390076D01*
X217503523Y-85294838D01*
X217598761Y-85199600D01*
X217741619Y-85151980D01*
X217836857Y-85151980D01*
X217979714Y-85199600D01*
X218027333Y-85247219D01*
X218360666Y-85151980D02*
X218979714Y-85151980D01*
X218646380Y-85532933D01*
X218789238Y-85532933D01*
X218884476Y-85580552D01*
X218932095Y-85628171D01*
X218979714Y-85723409D01*
X218979714Y-85961504D01*
X218932095Y-86056742D01*
X218884476Y-86104361D01*
X218789238Y-86151980D01*
X218503523Y-86151980D01*
X218408285Y-86104361D01*
X218360666Y-86056742D01*
%TO.C,C4*%
X216249333Y-83008742D02*
X216201714Y-83056361D01*
X216058857Y-83103980D01*
X215963619Y-83103980D01*
X215820761Y-83056361D01*
X215725523Y-82961123D01*
X215677904Y-82865885D01*
X215630285Y-82675409D01*
X215630285Y-82532552D01*
X215677904Y-82342076D01*
X215725523Y-82246838D01*
X215820761Y-82151600D01*
X215963619Y-82103980D01*
X216058857Y-82103980D01*
X216201714Y-82151600D01*
X216249333Y-82199219D01*
X217106476Y-82437314D02*
X217106476Y-83103980D01*
X216868380Y-82056361D02*
X216630285Y-82770647D01*
X217249333Y-82770647D01*
%TO.C,D1*%
X218638380Y-72366095D02*
X217638380Y-72366095D01*
X217638380Y-72128000D01*
X217686000Y-71985142D01*
X217781238Y-71889904D01*
X217876476Y-71842285D01*
X218066952Y-71794666D01*
X218209809Y-71794666D01*
X218400285Y-71842285D01*
X218495523Y-71889904D01*
X218590761Y-71985142D01*
X218638380Y-72128000D01*
X218638380Y-72366095D01*
X218638380Y-70842285D02*
X218638380Y-71413714D01*
X218638380Y-71128000D02*
X217638380Y-71128000D01*
X217781238Y-71223238D01*
X217876476Y-71318476D01*
X217924095Y-71413714D01*
%TO.C,J1*%
X163936666Y-83692380D02*
X163936666Y-84406666D01*
X163889047Y-84549523D01*
X163793809Y-84644761D01*
X163650952Y-84692380D01*
X163555714Y-84692380D01*
X164936666Y-84692380D02*
X164365238Y-84692380D01*
X164650952Y-84692380D02*
X164650952Y-83692380D01*
X164555714Y-83835238D01*
X164460476Y-83930476D01*
X164365238Y-83978095D01*
%TO.C,J2*%
X240436666Y-81152380D02*
X240436666Y-81866666D01*
X240389047Y-82009523D01*
X240293809Y-82104761D01*
X240150952Y-82152380D01*
X240055714Y-82152380D01*
X240865238Y-81247619D02*
X240912857Y-81200000D01*
X241008095Y-81152380D01*
X241246190Y-81152380D01*
X241341428Y-81200000D01*
X241389047Y-81247619D01*
X241436666Y-81342857D01*
X241436666Y-81438095D01*
X241389047Y-81580952D01*
X240817619Y-82152380D01*
X241436666Y-82152380D01*
%TO.C,R9*%
X218859380Y-75985666D02*
X218383190Y-76319000D01*
X218859380Y-76557095D02*
X217859380Y-76557095D01*
X217859380Y-76176142D01*
X217907000Y-76080904D01*
X217954619Y-76033285D01*
X218049857Y-75985666D01*
X218192714Y-75985666D01*
X218287952Y-76033285D01*
X218335571Y-76080904D01*
X218383190Y-76176142D01*
X218383190Y-76557095D01*
X218859380Y-75509476D02*
X218859380Y-75319000D01*
X218811761Y-75223761D01*
X218764142Y-75176142D01*
X218621285Y-75080904D01*
X218430809Y-75033285D01*
X218049857Y-75033285D01*
X217954619Y-75080904D01*
X217907000Y-75128523D01*
X217859380Y-75223761D01*
X217859380Y-75414238D01*
X217907000Y-75509476D01*
X217954619Y-75557095D01*
X218049857Y-75604714D01*
X218287952Y-75604714D01*
X218383190Y-75557095D01*
X218430809Y-75509476D01*
X218478428Y-75414238D01*
X218478428Y-75223761D01*
X218430809Y-75128523D01*
X218383190Y-75080904D01*
X218287952Y-75033285D01*
%TO.C,C5*%
X230346357Y-111745333D02*
X230298738Y-111697714D01*
X230251119Y-111554857D01*
X230251119Y-111459619D01*
X230298738Y-111316761D01*
X230393976Y-111221523D01*
X230489214Y-111173904D01*
X230679690Y-111126285D01*
X230822547Y-111126285D01*
X231013023Y-111173904D01*
X231108261Y-111221523D01*
X231203500Y-111316761D01*
X231251119Y-111459619D01*
X231251119Y-111554857D01*
X231203500Y-111697714D01*
X231155880Y-111745333D01*
X231251119Y-112650095D02*
X231251119Y-112173904D01*
X230774928Y-112126285D01*
X230822547Y-112173904D01*
X230870166Y-112269142D01*
X230870166Y-112507238D01*
X230822547Y-112602476D01*
X230774928Y-112650095D01*
X230679690Y-112697714D01*
X230441595Y-112697714D01*
X230346357Y-112650095D01*
X230298738Y-112602476D01*
X230251119Y-112507238D01*
X230251119Y-112269142D01*
X230298738Y-112173904D01*
X230346357Y-112126285D01*
%TO.C,D2*%
X230026380Y-123166095D02*
X229026380Y-123166095D01*
X229026380Y-122928000D01*
X229074000Y-122785142D01*
X229169238Y-122689904D01*
X229264476Y-122642285D01*
X229454952Y-122594666D01*
X229597809Y-122594666D01*
X229788285Y-122642285D01*
X229883523Y-122689904D01*
X229978761Y-122785142D01*
X230026380Y-122928000D01*
X230026380Y-123166095D01*
X229121619Y-122213714D02*
X229074000Y-122166095D01*
X229026380Y-122070857D01*
X229026380Y-121832761D01*
X229074000Y-121737523D01*
X229121619Y-121689904D01*
X229216857Y-121642285D01*
X229312095Y-121642285D01*
X229454952Y-121689904D01*
X230026380Y-122261333D01*
X230026380Y-121642285D01*
%TO.C,D3*%
X231925904Y-100568380D02*
X231925904Y-99568380D01*
X232164000Y-99568380D01*
X232306857Y-99616000D01*
X232402095Y-99711238D01*
X232449714Y-99806476D01*
X232497333Y-99996952D01*
X232497333Y-100139809D01*
X232449714Y-100330285D01*
X232402095Y-100425523D01*
X232306857Y-100520761D01*
X232164000Y-100568380D01*
X231925904Y-100568380D01*
X232830666Y-99568380D02*
X233449714Y-99568380D01*
X233116380Y-99949333D01*
X233259238Y-99949333D01*
X233354476Y-99996952D01*
X233402095Y-100044571D01*
X233449714Y-100139809D01*
X233449714Y-100377904D01*
X233402095Y-100473142D01*
X233354476Y-100520761D01*
X233259238Y-100568380D01*
X232973523Y-100568380D01*
X232878285Y-100520761D01*
X232830666Y-100473142D01*
%TO.C,J6*%
X210724000Y-74632380D02*
X210724000Y-74870476D01*
X210485904Y-74775238D02*
X210724000Y-74870476D01*
X210962095Y-74775238D01*
X210581142Y-75060952D02*
X210724000Y-74870476D01*
X210866857Y-75060952D01*
%TO.C,J7*%
X193724000Y-74632380D02*
X193724000Y-74870476D01*
X193485904Y-74775238D02*
X193724000Y-74870476D01*
X193962095Y-74775238D01*
X193581142Y-75060952D02*
X193724000Y-74870476D01*
X193866857Y-75060952D01*
%TO.C,J8*%
X176724000Y-74632380D02*
X176724000Y-74870476D01*
X176485904Y-74775238D02*
X176724000Y-74870476D01*
X176962095Y-74775238D01*
X176581142Y-75060952D02*
X176724000Y-74870476D01*
X176866857Y-75060952D01*
%TO.C,J9*%
X165608000Y-120483380D02*
X165608000Y-120721476D01*
X165369904Y-120626238D02*
X165608000Y-120721476D01*
X165846095Y-120626238D01*
X165465142Y-120911952D02*
X165608000Y-120721476D01*
X165750857Y-120911952D01*
%TO.C,J10*%
X182626000Y-120483380D02*
X182626000Y-120721476D01*
X182387904Y-120626238D02*
X182626000Y-120721476D01*
X182864095Y-120626238D01*
X182483142Y-120911952D02*
X182626000Y-120721476D01*
X182768857Y-120911952D01*
%TO.C,J11*%
X199898000Y-120483380D02*
X199898000Y-120721476D01*
X199659904Y-120626238D02*
X199898000Y-120721476D01*
X200136095Y-120626238D01*
X199755142Y-120911952D02*
X199898000Y-120721476D01*
X200040857Y-120911952D01*
%TO.C,J12*%
X228122380Y-75139523D02*
X228836666Y-75139523D01*
X228979523Y-75187142D01*
X229074761Y-75282380D01*
X229122380Y-75425238D01*
X229122380Y-75520476D01*
X229122380Y-74139523D02*
X229122380Y-74710952D01*
X229122380Y-74425238D02*
X228122380Y-74425238D01*
X228265238Y-74520476D01*
X228360476Y-74615714D01*
X228408095Y-74710952D01*
X228217619Y-73758571D02*
X228170000Y-73710952D01*
X228122380Y-73615714D01*
X228122380Y-73377619D01*
X228170000Y-73282380D01*
X228217619Y-73234761D01*
X228312857Y-73187142D01*
X228408095Y-73187142D01*
X228550952Y-73234761D01*
X229122380Y-73806190D01*
X229122380Y-73187142D01*
%TO.C,U1*%
D13*
X222930714Y-110143714D02*
X222759285Y-110143714D01*
X222845000Y-110143714D02*
X222845000Y-109843714D01*
X222816428Y-109886571D01*
X222787857Y-109915142D01*
X222759285Y-109929428D01*
%TO.C,R18*%
D10*
X233164142Y-107099380D02*
X232830809Y-106623190D01*
X232592714Y-107099380D02*
X232592714Y-106099380D01*
X232973666Y-106099380D01*
X233068904Y-106147000D01*
X233116523Y-106194619D01*
X233164142Y-106289857D01*
X233164142Y-106432714D01*
X233116523Y-106527952D01*
X233068904Y-106575571D01*
X232973666Y-106623190D01*
X232592714Y-106623190D01*
X234116523Y-107099380D02*
X233545095Y-107099380D01*
X233830809Y-107099380D02*
X233830809Y-106099380D01*
X233735571Y-106242238D01*
X233640333Y-106337476D01*
X233545095Y-106385095D01*
X234687952Y-106527952D02*
X234592714Y-106480333D01*
X234545095Y-106432714D01*
X234497476Y-106337476D01*
X234497476Y-106289857D01*
X234545095Y-106194619D01*
X234592714Y-106147000D01*
X234687952Y-106099380D01*
X234878428Y-106099380D01*
X234973666Y-106147000D01*
X235021285Y-106194619D01*
X235068904Y-106289857D01*
X235068904Y-106337476D01*
X235021285Y-106432714D01*
X234973666Y-106480333D01*
X234878428Y-106527952D01*
X234687952Y-106527952D01*
X234592714Y-106575571D01*
X234545095Y-106623190D01*
X234497476Y-106718428D01*
X234497476Y-106908904D01*
X234545095Y-107004142D01*
X234592714Y-107051761D01*
X234687952Y-107099380D01*
X234878428Y-107099380D01*
X234973666Y-107051761D01*
X235021285Y-107004142D01*
X235068904Y-106908904D01*
X235068904Y-106718428D01*
X235021285Y-106623190D01*
X234973666Y-106575571D01*
X234878428Y-106527952D01*
%TD*%
M02*
