%TF.GenerationSoftware,KiCad,Pcbnew,(5.1.10)-1*%
%TF.CreationDate,2022-03-21T18:44:11-04:00*%
%TF.ProjectId,RevA,52657641-2e6b-4696-9361-645f70636258,rev?*%
%TF.SameCoordinates,Original*%
%TF.FileFunction,Copper,L4,Bot*%
%TF.FilePolarity,Positive*%
%FSLAX46Y46*%
G04 Gerber Fmt 4.6, Leading zero omitted, Abs format (unit mm)*
G04 Created by KiCad (PCBNEW (5.1.10)-1) date 2022-03-21 18:44:11*
%MOMM*%
%LPD*%
G01*
G04 APERTURE LIST*
%TA.AperFunction,ComponentPad*%
%ADD10R,1.700000X1.700000*%
%TD*%
%TA.AperFunction,ComponentPad*%
%ADD11O,1.700000X1.700000*%
%TD*%
%TA.AperFunction,ComponentPad*%
%ADD12O,1.000000X1.000000*%
%TD*%
%TA.AperFunction,ComponentPad*%
%ADD13R,1.000000X1.000000*%
%TD*%
%TA.AperFunction,ComponentPad*%
%ADD14C,1.498600*%
%TD*%
%TA.AperFunction,ViaPad*%
%ADD15C,0.800000*%
%TD*%
%TA.AperFunction,Conductor*%
%ADD16C,0.250000*%
%TD*%
%TA.AperFunction,Conductor*%
%ADD17C,0.254000*%
%TD*%
%TA.AperFunction,Conductor*%
%ADD18C,0.100000*%
%TD*%
G04 APERTURE END LIST*
D10*
%TO.P,J1,1*%
%TO.N,/3.3V*%
X163000000Y-86570000D03*
D11*
%TO.P,J1,2*%
%TO.N,Net-(J1-Pad2)*%
X165540000Y-86570000D03*
%TO.P,J1,3*%
%TO.N,/I2C_Data*%
X163000000Y-89110000D03*
%TO.P,J1,4*%
%TO.N,Net-(J1-Pad4)*%
X165540000Y-89110000D03*
%TO.P,J1,5*%
%TO.N,/I2C_Clock*%
X163000000Y-91650000D03*
%TO.P,J1,6*%
%TO.N,/GND*%
X165540000Y-91650000D03*
%TO.P,J1,7*%
%TO.N,Net-(J1-Pad7)*%
X163000000Y-94190000D03*
%TO.P,J1,8*%
%TO.N,Net-(J1-Pad8)*%
X165540000Y-94190000D03*
%TO.P,J1,9*%
%TO.N,/GND*%
X163000000Y-96730000D03*
%TO.P,J1,10*%
%TO.N,Net-(J1-Pad10)*%
X165540000Y-96730000D03*
%TO.P,J1,11*%
%TO.N,Net-(J1-Pad11)*%
X163000000Y-99270000D03*
%TO.P,J1,12*%
%TO.N,Net-(J1-Pad12)*%
X165540000Y-99270000D03*
%TO.P,J1,13*%
%TO.N,Net-(J1-Pad13)*%
X163000000Y-101810000D03*
%TO.P,J1,14*%
%TO.N,/GND*%
X165540000Y-101810000D03*
%TO.P,J1,15*%
%TO.N,Net-(J1-Pad15)*%
X163000000Y-104350000D03*
%TO.P,J1,16*%
%TO.N,Net-(J1-Pad16)*%
X165540000Y-104350000D03*
%TO.P,J1,17*%
%TO.N,/3.3V*%
X163000000Y-106890000D03*
%TO.P,J1,18*%
%TO.N,Net-(J1-Pad18)*%
X165540000Y-106890000D03*
%TO.P,J1,19*%
%TO.N,Net-(J1-Pad19)*%
X163000000Y-109430000D03*
%TO.P,J1,20*%
%TO.N,/GND*%
X165540000Y-109430000D03*
%TD*%
D10*
%TO.P,J2,1*%
%TO.N,Net-(J2-Pad1)*%
X239500000Y-84030000D03*
D11*
%TO.P,J2,2*%
%TO.N,Net-(J2-Pad2)*%
X242040000Y-84030000D03*
%TO.P,J2,3*%
%TO.N,Net-(J2-Pad3)*%
X239500000Y-86570000D03*
%TO.P,J2,4*%
%TO.N,Net-(J2-Pad4)*%
X242040000Y-86570000D03*
%TO.P,J2,5*%
%TO.N,/GND*%
X239500000Y-89110000D03*
%TO.P,J2,6*%
%TO.N,Net-(J2-Pad6)*%
X242040000Y-89110000D03*
%TO.P,J2,7*%
%TO.N,Net-(J2-Pad7)*%
X239500000Y-91650000D03*
%TO.P,J2,8*%
%TO.N,Net-(J2-Pad8)*%
X242040000Y-91650000D03*
%TO.P,J2,9*%
%TO.N,Net-(J2-Pad9)*%
X239500000Y-94190000D03*
%TO.P,J2,10*%
%TO.N,/GND*%
X242040000Y-94190000D03*
%TO.P,J2,11*%
%TO.N,Net-(J2-Pad11)*%
X239500000Y-96730000D03*
%TO.P,J2,12*%
%TO.N,Net-(J2-Pad12)*%
X242040000Y-96730000D03*
%TO.P,J2,13*%
%TO.N,Net-(J2-Pad13)*%
X239500000Y-99270000D03*
%TO.P,J2,14*%
%TO.N,/GND*%
X242040000Y-99270000D03*
%TO.P,J2,15*%
%TO.N,Net-(J2-Pad15)*%
X239500000Y-101810000D03*
%TO.P,J2,16*%
%TO.N,Net-(J2-Pad16)*%
X242040000Y-101810000D03*
%TO.P,J2,17*%
%TO.N,Net-(J2-Pad17)*%
X239500000Y-104350000D03*
%TO.P,J2,18*%
%TO.N,Net-(J2-Pad18)*%
X242040000Y-104350000D03*
%TO.P,J2,19*%
%TO.N,/GND*%
X239500000Y-106890000D03*
%TO.P,J2,20*%
%TO.N,Net-(J2-Pad20)*%
X242040000Y-106890000D03*
%TO.P,J2,21*%
%TO.N,/Interconnect*%
X239500000Y-109430000D03*
%TO.P,J2,22*%
%TO.N,Net-(D3-Pad1)*%
X242040000Y-109430000D03*
%TO.P,J2,23*%
%TO.N,/VCC*%
X239500000Y-111970000D03*
%TO.P,J2,24*%
X242040000Y-111970000D03*
%TD*%
D12*
%TO.P,J3,3*%
%TO.N,/GND*%
X230410000Y-94234000D03*
%TO.P,J3,2*%
%TO.N,/Arduino/D0*%
X230410000Y-92964000D03*
D13*
%TO.P,J3,1*%
%TO.N,/5V*%
X230410000Y-91694000D03*
%TD*%
%TO.P,J4,1*%
%TO.N,/5V*%
X227870000Y-91694000D03*
D12*
%TO.P,J4,2*%
%TO.N,/Arduino/D1*%
X227870000Y-92964000D03*
%TO.P,J4,3*%
%TO.N,/GND*%
X227870000Y-94234000D03*
%TD*%
%TO.P,J5,3*%
%TO.N,/GND*%
X225330000Y-94234000D03*
%TO.P,J5,2*%
%TO.N,/Arduino/D2*%
X225330000Y-92964000D03*
D13*
%TO.P,J5,1*%
%TO.N,/5V*%
X225330000Y-91694000D03*
%TD*%
D14*
%TO.P,J6,4*%
%TO.N,/5V*%
X200223998Y-75180000D03*
%TO.P,J6,3*%
%TO.N,/GND*%
X203723999Y-75180000D03*
%TO.P,J6,2*%
%TO.N,/A0*%
X207223999Y-75180000D03*
%TO.P,J6,1*%
%TO.N,/5V*%
X210724000Y-75180000D03*
%TD*%
%TO.P,J7,4*%
%TO.N,/A2*%
X183223998Y-75180000D03*
%TO.P,J7,3*%
%TO.N,/5V*%
X186723999Y-75180000D03*
%TO.P,J7,2*%
%TO.N,/GND*%
X190223999Y-75180000D03*
%TO.P,J7,1*%
%TO.N,/A1*%
X193724000Y-75180000D03*
%TD*%
%TO.P,J8,1*%
%TO.N,/GND*%
X176724000Y-75180000D03*
%TO.P,J8,2*%
%TO.N,/5V*%
X173223999Y-75180000D03*
%TO.P,J8,3*%
%TO.N,/A3*%
X169723999Y-75180000D03*
%TO.P,J8,4*%
%TO.N,/GND*%
X166223998Y-75180000D03*
%TD*%
%TO.P,J9,1*%
%TO.N,/5V*%
X165608000Y-121031000D03*
%TO.P,J9,2*%
%TO.N,/A4*%
X169108001Y-121031000D03*
%TO.P,J9,3*%
%TO.N,/GND*%
X172608001Y-121031000D03*
%TO.P,J9,4*%
%TO.N,/5V*%
X176108002Y-121031000D03*
%TD*%
%TO.P,J10,1*%
%TO.N,/A5*%
X182626000Y-121031000D03*
%TO.P,J10,2*%
%TO.N,/GND*%
X186126001Y-121031000D03*
%TO.P,J10,3*%
%TO.N,/5V*%
X189626001Y-121031000D03*
%TO.P,J10,4*%
%TO.N,/A6*%
X193126002Y-121031000D03*
%TD*%
%TO.P,J11,4*%
%TO.N,/GND*%
X210398002Y-121031000D03*
%TO.P,J11,3*%
%TO.N,/A7*%
X206898001Y-121031000D03*
%TO.P,J11,2*%
%TO.N,/5V*%
X203398001Y-121031000D03*
%TO.P,J11,1*%
%TO.N,/GND*%
X199898000Y-121031000D03*
%TD*%
D10*
%TO.P,J12,1*%
%TO.N,/5V*%
X231000000Y-75600000D03*
D11*
%TO.P,J12,2*%
%TO.N,/A0*%
X231000000Y-73060000D03*
%TO.P,J12,3*%
%TO.N,/A1*%
X233540000Y-75600000D03*
%TO.P,J12,4*%
%TO.N,/A2*%
X233540000Y-73060000D03*
%TO.P,J12,5*%
%TO.N,/A3*%
X236080000Y-75600000D03*
%TO.P,J12,6*%
%TO.N,/A4*%
X236080000Y-73060000D03*
%TO.P,J12,7*%
%TO.N,/A5*%
X238620000Y-75600000D03*
%TO.P,J12,8*%
%TO.N,/A6*%
X238620000Y-73060000D03*
%TO.P,J12,9*%
%TO.N,/A7*%
X241160000Y-75600000D03*
%TO.P,J12,10*%
%TO.N,/GND*%
X241160000Y-73060000D03*
%TD*%
%TO.P,J13,3*%
%TO.N,Net-(J13-Pad3)*%
X171497000Y-97913000D03*
%TO.P,J13,2*%
%TO.N,/A0*%
X171497000Y-95373000D03*
D10*
%TO.P,J13,1*%
%TO.N,Net-(J13-Pad1)*%
X171497000Y-92833000D03*
%TD*%
%TO.P,J14,1*%
%TO.N,Net-(J14-Pad1)*%
X175497000Y-92833000D03*
D11*
%TO.P,J14,2*%
%TO.N,/A1*%
X175497000Y-95373000D03*
%TO.P,J14,3*%
%TO.N,Net-(J14-Pad3)*%
X175497000Y-97913000D03*
%TD*%
%TO.P,J15,3*%
%TO.N,Net-(J15-Pad3)*%
X179497000Y-97913000D03*
%TO.P,J15,2*%
%TO.N,/A2*%
X179497000Y-95373000D03*
D10*
%TO.P,J15,1*%
%TO.N,Net-(J15-Pad1)*%
X179497000Y-92833000D03*
%TD*%
%TO.P,J16,1*%
%TO.N,Net-(J16-Pad1)*%
X183497000Y-92833000D03*
D11*
%TO.P,J16,2*%
%TO.N,/A3*%
X183497000Y-95373000D03*
%TO.P,J16,3*%
%TO.N,Net-(J16-Pad3)*%
X183497000Y-97913000D03*
%TD*%
%TO.P,J17,3*%
%TO.N,Net-(J17-Pad3)*%
X187497000Y-97913000D03*
%TO.P,J17,2*%
%TO.N,/A4*%
X187497000Y-95373000D03*
D10*
%TO.P,J17,1*%
%TO.N,Net-(J17-Pad1)*%
X187497000Y-92833000D03*
%TD*%
%TO.P,J18,1*%
%TO.N,Net-(J18-Pad1)*%
X191497000Y-92833000D03*
D11*
%TO.P,J18,2*%
%TO.N,/A5*%
X191497000Y-95373000D03*
%TO.P,J18,3*%
%TO.N,Net-(J18-Pad3)*%
X191497000Y-97913000D03*
%TD*%
%TO.P,J19,3*%
%TO.N,Net-(J19-Pad3)*%
X214143000Y-99699000D03*
%TO.P,J19,2*%
%TO.N,/A6*%
X214143000Y-102239000D03*
D10*
%TO.P,J19,1*%
%TO.N,Net-(J19-Pad1)*%
X214143000Y-104779000D03*
%TD*%
%TO.P,J20,1*%
%TO.N,Net-(J20-Pad1)*%
X210143000Y-104779000D03*
D11*
%TO.P,J20,2*%
%TO.N,/A7*%
X210143000Y-102239000D03*
%TO.P,J20,3*%
%TO.N,Net-(J20-Pad3)*%
X210143000Y-99699000D03*
%TD*%
D10*
%TO.P,J21,1*%
%TO.N,/Arduino/MISO*%
X236093000Y-123469000D03*
D11*
%TO.P,J21,2*%
%TO.N,/5V*%
X236093000Y-120929000D03*
%TO.P,J21,3*%
%TO.N,/Arduino/SCK*%
X238633000Y-123469000D03*
%TO.P,J21,4*%
%TO.N,/Arduino/MOSI*%
X238633000Y-120929000D03*
%TO.P,J21,5*%
%TO.N,/Reset*%
X241173000Y-123469000D03*
%TO.P,J21,6*%
%TO.N,/GND*%
X241173000Y-120929000D03*
%TD*%
D13*
%TO.P,J22,1*%
%TO.N,/5V*%
X222790000Y-91694000D03*
D12*
%TO.P,J22,2*%
%TO.N,/Arduino/D3*%
X222790000Y-92964000D03*
%TO.P,J22,3*%
%TO.N,/GND*%
X222790000Y-94234000D03*
%TD*%
D15*
%TO.N,/VCC*%
X233068000Y-80260300D03*
%TO.N,/GND*%
X185293000Y-104394000D03*
X181483000Y-103378000D03*
X237617000Y-105029000D03*
X231648000Y-108839000D03*
X219837000Y-108839000D03*
X218059000Y-111760000D03*
%TO.N,/5V*%
X228854000Y-114300000D03*
X233033450Y-113549550D03*
%TO.N,/I2C_Data*%
X226041268Y-106504289D03*
%TO.N,/I2C_Clock*%
X224657073Y-107547097D03*
%TO.N,/Reset*%
X231426500Y-104806600D03*
%TO.N,/5v_regulator/5V*%
X222561400Y-86494000D03*
X225817200Y-121238500D03*
%TO.N,/A0*%
X228509000Y-105900400D03*
%TO.N,/A2*%
X227711000Y-108204000D03*
%TO.N,/A1*%
X227790338Y-109327859D03*
%TO.N,/A3*%
X228473000Y-104775000D03*
%TO.N,/A4*%
X229266900Y-77501000D03*
X228330200Y-115913100D03*
%TO.N,/A5*%
X233574900Y-100911600D03*
%TO.N,/A6*%
X223345000Y-115167600D03*
%TO.N,/A7*%
X224094100Y-115866100D03*
%TO.N,/Arduino/SCK*%
X227576590Y-114174910D03*
%TD*%
D16*
%TO.N,/A3*%
X183497000Y-95373000D02*
X183497000Y-94197700D01*
X183497000Y-94197700D02*
X182688900Y-94197700D01*
X182688900Y-94197700D02*
X182321700Y-93830500D01*
X182321700Y-93830500D02*
X182321700Y-87777700D01*
X182321700Y-87777700D02*
X169724000Y-75180000D01*
X236080000Y-97168000D02*
X236080000Y-75600000D01*
X228473000Y-104775000D02*
X236080000Y-97168000D01*
%TD*%
D17*
%TO.N,/GND*%
X242046131Y-70741834D02*
X242571462Y-70900441D01*
X243055980Y-71158064D01*
X243481231Y-71504889D01*
X243831020Y-71927711D01*
X244092016Y-72410414D01*
X244254287Y-72934628D01*
X244315000Y-73512271D01*
X244315001Y-122466486D01*
X244258166Y-123046131D01*
X244099559Y-123571462D01*
X243841937Y-124055978D01*
X243495111Y-124481231D01*
X243072292Y-124831017D01*
X242589588Y-125092015D01*
X242065371Y-125254287D01*
X241487729Y-125315000D01*
X163533504Y-125315000D01*
X162953869Y-125258166D01*
X162428538Y-125099559D01*
X161944022Y-124841937D01*
X161518769Y-124495111D01*
X161168983Y-124072292D01*
X160907985Y-123589588D01*
X160745713Y-123065371D01*
X160698798Y-122619000D01*
X234604928Y-122619000D01*
X234604928Y-124319000D01*
X234617188Y-124443482D01*
X234653498Y-124563180D01*
X234712463Y-124673494D01*
X234791815Y-124770185D01*
X234888506Y-124849537D01*
X234998820Y-124908502D01*
X235118518Y-124944812D01*
X235243000Y-124957072D01*
X236943000Y-124957072D01*
X237067482Y-124944812D01*
X237187180Y-124908502D01*
X237297494Y-124849537D01*
X237394185Y-124770185D01*
X237473537Y-124673494D01*
X237532502Y-124563180D01*
X237554513Y-124490620D01*
X237686368Y-124622475D01*
X237929589Y-124784990D01*
X238199842Y-124896932D01*
X238486740Y-124954000D01*
X238779260Y-124954000D01*
X239066158Y-124896932D01*
X239336411Y-124784990D01*
X239579632Y-124622475D01*
X239786475Y-124415632D01*
X239903000Y-124241240D01*
X240019525Y-124415632D01*
X240226368Y-124622475D01*
X240469589Y-124784990D01*
X240739842Y-124896932D01*
X241026740Y-124954000D01*
X241319260Y-124954000D01*
X241606158Y-124896932D01*
X241876411Y-124784990D01*
X242119632Y-124622475D01*
X242326475Y-124415632D01*
X242488990Y-124172411D01*
X242600932Y-123902158D01*
X242658000Y-123615260D01*
X242658000Y-123322740D01*
X242600932Y-123035842D01*
X242488990Y-122765589D01*
X242326475Y-122522368D01*
X242119632Y-122315525D01*
X241943594Y-122197900D01*
X242173269Y-122026588D01*
X242368178Y-121810355D01*
X242517157Y-121560252D01*
X242614481Y-121285891D01*
X242493814Y-121056000D01*
X241300000Y-121056000D01*
X241300000Y-121076000D01*
X241046000Y-121076000D01*
X241046000Y-121056000D01*
X241026000Y-121056000D01*
X241026000Y-120802000D01*
X241046000Y-120802000D01*
X241046000Y-119608845D01*
X241300000Y-119608845D01*
X241300000Y-120802000D01*
X242493814Y-120802000D01*
X242614481Y-120572109D01*
X242517157Y-120297748D01*
X242368178Y-120047645D01*
X242173269Y-119831412D01*
X241939920Y-119657359D01*
X241677099Y-119532175D01*
X241529890Y-119487524D01*
X241300000Y-119608845D01*
X241046000Y-119608845D01*
X240816110Y-119487524D01*
X240668901Y-119532175D01*
X240406080Y-119657359D01*
X240172731Y-119831412D01*
X239977822Y-120047645D01*
X239908195Y-120164534D01*
X239786475Y-119982368D01*
X239579632Y-119775525D01*
X239336411Y-119613010D01*
X239066158Y-119501068D01*
X238779260Y-119444000D01*
X238486740Y-119444000D01*
X238199842Y-119501068D01*
X237929589Y-119613010D01*
X237686368Y-119775525D01*
X237479525Y-119982368D01*
X237363000Y-120156760D01*
X237246475Y-119982368D01*
X237039632Y-119775525D01*
X236796411Y-119613010D01*
X236526158Y-119501068D01*
X236239260Y-119444000D01*
X235946740Y-119444000D01*
X235659842Y-119501068D01*
X235389589Y-119613010D01*
X235146368Y-119775525D01*
X234939525Y-119982368D01*
X234777010Y-120225589D01*
X234665068Y-120495842D01*
X234608000Y-120782740D01*
X234608000Y-121075260D01*
X234665068Y-121362158D01*
X234777010Y-121632411D01*
X234939525Y-121875632D01*
X235071380Y-122007487D01*
X234998820Y-122029498D01*
X234888506Y-122088463D01*
X234791815Y-122167815D01*
X234712463Y-122264506D01*
X234653498Y-122374820D01*
X234617188Y-122494518D01*
X234604928Y-122619000D01*
X160698798Y-122619000D01*
X160685000Y-122487729D01*
X160685000Y-120894658D01*
X164223700Y-120894658D01*
X164223700Y-121167342D01*
X164276898Y-121434785D01*
X164381249Y-121686712D01*
X164532744Y-121913440D01*
X164725560Y-122106256D01*
X164952288Y-122257751D01*
X165204215Y-122362102D01*
X165471658Y-122415300D01*
X165744342Y-122415300D01*
X166011785Y-122362102D01*
X166263712Y-122257751D01*
X166490440Y-122106256D01*
X166683256Y-121913440D01*
X166834751Y-121686712D01*
X166939102Y-121434785D01*
X166992300Y-121167342D01*
X166992300Y-120894658D01*
X167723701Y-120894658D01*
X167723701Y-121167342D01*
X167776899Y-121434785D01*
X167881250Y-121686712D01*
X168032745Y-121913440D01*
X168225561Y-122106256D01*
X168452289Y-122257751D01*
X168704216Y-122362102D01*
X168971659Y-122415300D01*
X169244343Y-122415300D01*
X169511786Y-122362102D01*
X169763713Y-122257751D01*
X169990441Y-122106256D01*
X170109204Y-121987493D01*
X171831113Y-121987493D01*
X171896553Y-122226290D01*
X172143413Y-122342120D01*
X172408127Y-122407564D01*
X172680522Y-122420107D01*
X172950130Y-122379268D01*
X173206590Y-122286615D01*
X173319449Y-122226290D01*
X173384889Y-121987493D01*
X172608001Y-121210605D01*
X171831113Y-121987493D01*
X170109204Y-121987493D01*
X170183257Y-121913440D01*
X170334752Y-121686712D01*
X170439103Y-121434785D01*
X170492301Y-121167342D01*
X170492301Y-121103521D01*
X171218894Y-121103521D01*
X171259733Y-121373129D01*
X171352386Y-121629589D01*
X171412711Y-121742448D01*
X171651508Y-121807888D01*
X172428396Y-121031000D01*
X172787606Y-121031000D01*
X173564494Y-121807888D01*
X173803291Y-121742448D01*
X173919121Y-121495588D01*
X173984565Y-121230874D01*
X173997108Y-120958479D01*
X173987441Y-120894658D01*
X174723702Y-120894658D01*
X174723702Y-121167342D01*
X174776900Y-121434785D01*
X174881251Y-121686712D01*
X175032746Y-121913440D01*
X175225562Y-122106256D01*
X175452290Y-122257751D01*
X175704217Y-122362102D01*
X175971660Y-122415300D01*
X176244344Y-122415300D01*
X176511787Y-122362102D01*
X176763714Y-122257751D01*
X176990442Y-122106256D01*
X177183258Y-121913440D01*
X177334753Y-121686712D01*
X177439104Y-121434785D01*
X177492302Y-121167342D01*
X177492302Y-120894658D01*
X181241700Y-120894658D01*
X181241700Y-121167342D01*
X181294898Y-121434785D01*
X181399249Y-121686712D01*
X181550744Y-121913440D01*
X181743560Y-122106256D01*
X181970288Y-122257751D01*
X182222215Y-122362102D01*
X182489658Y-122415300D01*
X182762342Y-122415300D01*
X183029785Y-122362102D01*
X183281712Y-122257751D01*
X183508440Y-122106256D01*
X183627203Y-121987493D01*
X185349113Y-121987493D01*
X185414553Y-122226290D01*
X185661413Y-122342120D01*
X185926127Y-122407564D01*
X186198522Y-122420107D01*
X186468130Y-122379268D01*
X186724590Y-122286615D01*
X186837449Y-122226290D01*
X186902889Y-121987493D01*
X186126001Y-121210605D01*
X185349113Y-121987493D01*
X183627203Y-121987493D01*
X183701256Y-121913440D01*
X183852751Y-121686712D01*
X183957102Y-121434785D01*
X184010300Y-121167342D01*
X184010300Y-121103521D01*
X184736894Y-121103521D01*
X184777733Y-121373129D01*
X184870386Y-121629589D01*
X184930711Y-121742448D01*
X185169508Y-121807888D01*
X185946396Y-121031000D01*
X186305606Y-121031000D01*
X187082494Y-121807888D01*
X187321291Y-121742448D01*
X187437121Y-121495588D01*
X187502565Y-121230874D01*
X187515108Y-120958479D01*
X187505441Y-120894658D01*
X188241701Y-120894658D01*
X188241701Y-121167342D01*
X188294899Y-121434785D01*
X188399250Y-121686712D01*
X188550745Y-121913440D01*
X188743561Y-122106256D01*
X188970289Y-122257751D01*
X189222216Y-122362102D01*
X189489659Y-122415300D01*
X189762343Y-122415300D01*
X190029786Y-122362102D01*
X190281713Y-122257751D01*
X190508441Y-122106256D01*
X190701257Y-121913440D01*
X190852752Y-121686712D01*
X190957103Y-121434785D01*
X191010301Y-121167342D01*
X191010301Y-120894658D01*
X191741702Y-120894658D01*
X191741702Y-121167342D01*
X191794900Y-121434785D01*
X191899251Y-121686712D01*
X192050746Y-121913440D01*
X192243562Y-122106256D01*
X192470290Y-122257751D01*
X192722217Y-122362102D01*
X192989660Y-122415300D01*
X193262344Y-122415300D01*
X193529787Y-122362102D01*
X193781714Y-122257751D01*
X194008442Y-122106256D01*
X194127205Y-121987493D01*
X199121112Y-121987493D01*
X199186552Y-122226290D01*
X199433412Y-122342120D01*
X199698126Y-122407564D01*
X199970521Y-122420107D01*
X200240129Y-122379268D01*
X200496589Y-122286615D01*
X200609448Y-122226290D01*
X200674888Y-121987493D01*
X199898000Y-121210605D01*
X199121112Y-121987493D01*
X194127205Y-121987493D01*
X194201258Y-121913440D01*
X194352753Y-121686712D01*
X194457104Y-121434785D01*
X194510302Y-121167342D01*
X194510302Y-121103521D01*
X198508893Y-121103521D01*
X198549732Y-121373129D01*
X198642385Y-121629589D01*
X198702710Y-121742448D01*
X198941507Y-121807888D01*
X199718395Y-121031000D01*
X200077605Y-121031000D01*
X200854493Y-121807888D01*
X201093290Y-121742448D01*
X201209120Y-121495588D01*
X201274564Y-121230874D01*
X201287107Y-120958479D01*
X201277440Y-120894658D01*
X202013701Y-120894658D01*
X202013701Y-121167342D01*
X202066899Y-121434785D01*
X202171250Y-121686712D01*
X202322745Y-121913440D01*
X202515561Y-122106256D01*
X202742289Y-122257751D01*
X202994216Y-122362102D01*
X203261659Y-122415300D01*
X203534343Y-122415300D01*
X203801786Y-122362102D01*
X204053713Y-122257751D01*
X204280441Y-122106256D01*
X204473257Y-121913440D01*
X204624752Y-121686712D01*
X204729103Y-121434785D01*
X204782301Y-121167342D01*
X204782301Y-120894658D01*
X205513701Y-120894658D01*
X205513701Y-121167342D01*
X205566899Y-121434785D01*
X205671250Y-121686712D01*
X205822745Y-121913440D01*
X206015561Y-122106256D01*
X206242289Y-122257751D01*
X206494216Y-122362102D01*
X206761659Y-122415300D01*
X207034343Y-122415300D01*
X207301786Y-122362102D01*
X207553713Y-122257751D01*
X207780441Y-122106256D01*
X207899204Y-121987493D01*
X209621114Y-121987493D01*
X209686554Y-122226290D01*
X209933414Y-122342120D01*
X210198128Y-122407564D01*
X210470523Y-122420107D01*
X210740131Y-122379268D01*
X210996591Y-122286615D01*
X211109450Y-122226290D01*
X211174890Y-121987493D01*
X210398002Y-121210605D01*
X209621114Y-121987493D01*
X207899204Y-121987493D01*
X207973257Y-121913440D01*
X208124752Y-121686712D01*
X208229103Y-121434785D01*
X208282301Y-121167342D01*
X208282301Y-121103521D01*
X209008895Y-121103521D01*
X209049734Y-121373129D01*
X209142387Y-121629589D01*
X209202712Y-121742448D01*
X209441509Y-121807888D01*
X210218397Y-121031000D01*
X210577607Y-121031000D01*
X211354495Y-121807888D01*
X211593292Y-121742448D01*
X211709122Y-121495588D01*
X211774566Y-121230874D01*
X211778908Y-121136561D01*
X224782200Y-121136561D01*
X224782200Y-121340439D01*
X224821974Y-121540398D01*
X224899995Y-121728756D01*
X225013263Y-121898274D01*
X225157426Y-122042437D01*
X225326944Y-122155705D01*
X225515302Y-122233726D01*
X225715261Y-122273500D01*
X225919139Y-122273500D01*
X226119098Y-122233726D01*
X226307456Y-122155705D01*
X226476974Y-122042437D01*
X226621137Y-121898274D01*
X226734405Y-121728756D01*
X226812426Y-121540398D01*
X226852200Y-121340439D01*
X226852200Y-121136561D01*
X226812426Y-120936602D01*
X226734405Y-120748244D01*
X226621137Y-120578726D01*
X226476974Y-120434563D01*
X226307456Y-120321295D01*
X226119098Y-120243274D01*
X225919139Y-120203500D01*
X225715261Y-120203500D01*
X225515302Y-120243274D01*
X225326944Y-120321295D01*
X225157426Y-120434563D01*
X225013263Y-120578726D01*
X224899995Y-120748244D01*
X224821974Y-120936602D01*
X224782200Y-121136561D01*
X211778908Y-121136561D01*
X211787109Y-120958479D01*
X211746270Y-120688871D01*
X211653617Y-120432411D01*
X211593292Y-120319552D01*
X211354495Y-120254112D01*
X210577607Y-121031000D01*
X210218397Y-121031000D01*
X209441509Y-120254112D01*
X209202712Y-120319552D01*
X209086882Y-120566412D01*
X209021438Y-120831126D01*
X209008895Y-121103521D01*
X208282301Y-121103521D01*
X208282301Y-120894658D01*
X208229103Y-120627215D01*
X208124752Y-120375288D01*
X207973257Y-120148560D01*
X207899204Y-120074507D01*
X209621114Y-120074507D01*
X210398002Y-120851395D01*
X211174890Y-120074507D01*
X211109450Y-119835710D01*
X210862590Y-119719880D01*
X210597876Y-119654436D01*
X210325481Y-119641893D01*
X210055873Y-119682732D01*
X209799413Y-119775385D01*
X209686554Y-119835710D01*
X209621114Y-120074507D01*
X207899204Y-120074507D01*
X207780441Y-119955744D01*
X207553713Y-119804249D01*
X207301786Y-119699898D01*
X207034343Y-119646700D01*
X206761659Y-119646700D01*
X206494216Y-119699898D01*
X206242289Y-119804249D01*
X206015561Y-119955744D01*
X205822745Y-120148560D01*
X205671250Y-120375288D01*
X205566899Y-120627215D01*
X205513701Y-120894658D01*
X204782301Y-120894658D01*
X204729103Y-120627215D01*
X204624752Y-120375288D01*
X204473257Y-120148560D01*
X204280441Y-119955744D01*
X204053713Y-119804249D01*
X203801786Y-119699898D01*
X203534343Y-119646700D01*
X203261659Y-119646700D01*
X202994216Y-119699898D01*
X202742289Y-119804249D01*
X202515561Y-119955744D01*
X202322745Y-120148560D01*
X202171250Y-120375288D01*
X202066899Y-120627215D01*
X202013701Y-120894658D01*
X201277440Y-120894658D01*
X201246268Y-120688871D01*
X201153615Y-120432411D01*
X201093290Y-120319552D01*
X200854493Y-120254112D01*
X200077605Y-121031000D01*
X199718395Y-121031000D01*
X198941507Y-120254112D01*
X198702710Y-120319552D01*
X198586880Y-120566412D01*
X198521436Y-120831126D01*
X198508893Y-121103521D01*
X194510302Y-121103521D01*
X194510302Y-120894658D01*
X194457104Y-120627215D01*
X194352753Y-120375288D01*
X194201258Y-120148560D01*
X194127205Y-120074507D01*
X199121112Y-120074507D01*
X199898000Y-120851395D01*
X200674888Y-120074507D01*
X200609448Y-119835710D01*
X200362588Y-119719880D01*
X200097874Y-119654436D01*
X199825479Y-119641893D01*
X199555871Y-119682732D01*
X199299411Y-119775385D01*
X199186552Y-119835710D01*
X199121112Y-120074507D01*
X194127205Y-120074507D01*
X194008442Y-119955744D01*
X193781714Y-119804249D01*
X193529787Y-119699898D01*
X193262344Y-119646700D01*
X192989660Y-119646700D01*
X192722217Y-119699898D01*
X192470290Y-119804249D01*
X192243562Y-119955744D01*
X192050746Y-120148560D01*
X191899251Y-120375288D01*
X191794900Y-120627215D01*
X191741702Y-120894658D01*
X191010301Y-120894658D01*
X190957103Y-120627215D01*
X190852752Y-120375288D01*
X190701257Y-120148560D01*
X190508441Y-119955744D01*
X190281713Y-119804249D01*
X190029786Y-119699898D01*
X189762343Y-119646700D01*
X189489659Y-119646700D01*
X189222216Y-119699898D01*
X188970289Y-119804249D01*
X188743561Y-119955744D01*
X188550745Y-120148560D01*
X188399250Y-120375288D01*
X188294899Y-120627215D01*
X188241701Y-120894658D01*
X187505441Y-120894658D01*
X187474269Y-120688871D01*
X187381616Y-120432411D01*
X187321291Y-120319552D01*
X187082494Y-120254112D01*
X186305606Y-121031000D01*
X185946396Y-121031000D01*
X185169508Y-120254112D01*
X184930711Y-120319552D01*
X184814881Y-120566412D01*
X184749437Y-120831126D01*
X184736894Y-121103521D01*
X184010300Y-121103521D01*
X184010300Y-120894658D01*
X183957102Y-120627215D01*
X183852751Y-120375288D01*
X183701256Y-120148560D01*
X183627203Y-120074507D01*
X185349113Y-120074507D01*
X186126001Y-120851395D01*
X186902889Y-120074507D01*
X186837449Y-119835710D01*
X186590589Y-119719880D01*
X186325875Y-119654436D01*
X186053480Y-119641893D01*
X185783872Y-119682732D01*
X185527412Y-119775385D01*
X185414553Y-119835710D01*
X185349113Y-120074507D01*
X183627203Y-120074507D01*
X183508440Y-119955744D01*
X183281712Y-119804249D01*
X183029785Y-119699898D01*
X182762342Y-119646700D01*
X182489658Y-119646700D01*
X182222215Y-119699898D01*
X181970288Y-119804249D01*
X181743560Y-119955744D01*
X181550744Y-120148560D01*
X181399249Y-120375288D01*
X181294898Y-120627215D01*
X181241700Y-120894658D01*
X177492302Y-120894658D01*
X177439104Y-120627215D01*
X177334753Y-120375288D01*
X177183258Y-120148560D01*
X176990442Y-119955744D01*
X176763714Y-119804249D01*
X176511787Y-119699898D01*
X176244344Y-119646700D01*
X175971660Y-119646700D01*
X175704217Y-119699898D01*
X175452290Y-119804249D01*
X175225562Y-119955744D01*
X175032746Y-120148560D01*
X174881251Y-120375288D01*
X174776900Y-120627215D01*
X174723702Y-120894658D01*
X173987441Y-120894658D01*
X173956269Y-120688871D01*
X173863616Y-120432411D01*
X173803291Y-120319552D01*
X173564494Y-120254112D01*
X172787606Y-121031000D01*
X172428396Y-121031000D01*
X171651508Y-120254112D01*
X171412711Y-120319552D01*
X171296881Y-120566412D01*
X171231437Y-120831126D01*
X171218894Y-121103521D01*
X170492301Y-121103521D01*
X170492301Y-120894658D01*
X170439103Y-120627215D01*
X170334752Y-120375288D01*
X170183257Y-120148560D01*
X170109204Y-120074507D01*
X171831113Y-120074507D01*
X172608001Y-120851395D01*
X173384889Y-120074507D01*
X173319449Y-119835710D01*
X173072589Y-119719880D01*
X172807875Y-119654436D01*
X172535480Y-119641893D01*
X172265872Y-119682732D01*
X172009412Y-119775385D01*
X171896553Y-119835710D01*
X171831113Y-120074507D01*
X170109204Y-120074507D01*
X169990441Y-119955744D01*
X169763713Y-119804249D01*
X169511786Y-119699898D01*
X169244343Y-119646700D01*
X168971659Y-119646700D01*
X168704216Y-119699898D01*
X168452289Y-119804249D01*
X168225561Y-119955744D01*
X168032745Y-120148560D01*
X167881250Y-120375288D01*
X167776899Y-120627215D01*
X167723701Y-120894658D01*
X166992300Y-120894658D01*
X166939102Y-120627215D01*
X166834751Y-120375288D01*
X166683256Y-120148560D01*
X166490440Y-119955744D01*
X166263712Y-119804249D01*
X166011785Y-119699898D01*
X165744342Y-119646700D01*
X165471658Y-119646700D01*
X165204215Y-119699898D01*
X164952288Y-119804249D01*
X164725560Y-119955744D01*
X164532744Y-120148560D01*
X164381249Y-120375288D01*
X164276898Y-120627215D01*
X164223700Y-120894658D01*
X160685000Y-120894658D01*
X160685000Y-115065661D01*
X222310000Y-115065661D01*
X222310000Y-115269539D01*
X222349774Y-115469498D01*
X222427795Y-115657856D01*
X222541063Y-115827374D01*
X222685226Y-115971537D01*
X222854744Y-116084805D01*
X223043102Y-116162826D01*
X223101547Y-116174451D01*
X223176895Y-116356356D01*
X223290163Y-116525874D01*
X223434326Y-116670037D01*
X223603844Y-116783305D01*
X223792202Y-116861326D01*
X223992161Y-116901100D01*
X224196039Y-116901100D01*
X224395998Y-116861326D01*
X224584356Y-116783305D01*
X224753874Y-116670037D01*
X224898037Y-116525874D01*
X225011305Y-116356356D01*
X225089326Y-116167998D01*
X225129100Y-115968039D01*
X225129100Y-115764161D01*
X225089326Y-115564202D01*
X225011305Y-115375844D01*
X224898037Y-115206326D01*
X224753874Y-115062163D01*
X224584356Y-114948895D01*
X224395998Y-114870874D01*
X224337553Y-114859249D01*
X224262205Y-114677344D01*
X224148937Y-114507826D01*
X224004774Y-114363663D01*
X223835256Y-114250395D01*
X223646898Y-114172374D01*
X223446939Y-114132600D01*
X223243061Y-114132600D01*
X223043102Y-114172374D01*
X222854744Y-114250395D01*
X222685226Y-114363663D01*
X222541063Y-114507826D01*
X222427795Y-114677344D01*
X222349774Y-114865702D01*
X222310000Y-115065661D01*
X160685000Y-115065661D01*
X160685000Y-114072971D01*
X226541590Y-114072971D01*
X226541590Y-114276849D01*
X226581364Y-114476808D01*
X226659385Y-114665166D01*
X226772653Y-114834684D01*
X226916816Y-114978847D01*
X227086334Y-115092115D01*
X227274692Y-115170136D01*
X227474651Y-115209910D01*
X227569679Y-115209910D01*
X227526263Y-115253326D01*
X227412995Y-115422844D01*
X227334974Y-115611202D01*
X227295200Y-115811161D01*
X227295200Y-116015039D01*
X227334974Y-116214998D01*
X227412995Y-116403356D01*
X227526263Y-116572874D01*
X227670426Y-116717037D01*
X227839944Y-116830305D01*
X228028302Y-116908326D01*
X228228261Y-116948100D01*
X228432139Y-116948100D01*
X228632098Y-116908326D01*
X228820456Y-116830305D01*
X228989974Y-116717037D01*
X229134137Y-116572874D01*
X229247405Y-116403356D01*
X229325426Y-116214998D01*
X229365200Y-116015039D01*
X229365200Y-115811161D01*
X229325426Y-115611202D01*
X229247405Y-115422844D01*
X229160782Y-115293203D01*
X229344256Y-115217205D01*
X229513774Y-115103937D01*
X229657937Y-114959774D01*
X229771205Y-114790256D01*
X229849226Y-114601898D01*
X229889000Y-114401939D01*
X229889000Y-114198061D01*
X229849226Y-113998102D01*
X229771205Y-113809744D01*
X229657937Y-113640226D01*
X229513774Y-113496063D01*
X229441261Y-113447611D01*
X231998450Y-113447611D01*
X231998450Y-113651489D01*
X232038224Y-113851448D01*
X232116245Y-114039806D01*
X232229513Y-114209324D01*
X232373676Y-114353487D01*
X232543194Y-114466755D01*
X232731552Y-114544776D01*
X232931511Y-114584550D01*
X233135389Y-114584550D01*
X233335348Y-114544776D01*
X233523706Y-114466755D01*
X233693224Y-114353487D01*
X233837387Y-114209324D01*
X233950655Y-114039806D01*
X234028676Y-113851448D01*
X234068450Y-113651489D01*
X234068450Y-113447611D01*
X234028676Y-113247652D01*
X233950655Y-113059294D01*
X233837387Y-112889776D01*
X233693224Y-112745613D01*
X233523706Y-112632345D01*
X233335348Y-112554324D01*
X233135389Y-112514550D01*
X232931511Y-112514550D01*
X232731552Y-112554324D01*
X232543194Y-112632345D01*
X232373676Y-112745613D01*
X232229513Y-112889776D01*
X232116245Y-113059294D01*
X232038224Y-113247652D01*
X231998450Y-113447611D01*
X229441261Y-113447611D01*
X229344256Y-113382795D01*
X229155898Y-113304774D01*
X228955939Y-113265000D01*
X228752061Y-113265000D01*
X228552102Y-113304774D01*
X228363744Y-113382795D01*
X228294472Y-113429081D01*
X228236364Y-113370973D01*
X228066846Y-113257705D01*
X227878488Y-113179684D01*
X227678529Y-113139910D01*
X227474651Y-113139910D01*
X227274692Y-113179684D01*
X227086334Y-113257705D01*
X226916816Y-113370973D01*
X226772653Y-113515136D01*
X226659385Y-113684654D01*
X226581364Y-113873012D01*
X226541590Y-114072971D01*
X160685000Y-114072971D01*
X160685000Y-85720000D01*
X161511928Y-85720000D01*
X161511928Y-87420000D01*
X161524188Y-87544482D01*
X161560498Y-87664180D01*
X161619463Y-87774494D01*
X161698815Y-87871185D01*
X161795506Y-87950537D01*
X161905820Y-88009502D01*
X161978380Y-88031513D01*
X161846525Y-88163368D01*
X161684010Y-88406589D01*
X161572068Y-88676842D01*
X161515000Y-88963740D01*
X161515000Y-89256260D01*
X161572068Y-89543158D01*
X161684010Y-89813411D01*
X161846525Y-90056632D01*
X162053368Y-90263475D01*
X162227760Y-90380000D01*
X162053368Y-90496525D01*
X161846525Y-90703368D01*
X161684010Y-90946589D01*
X161572068Y-91216842D01*
X161515000Y-91503740D01*
X161515000Y-91796260D01*
X161572068Y-92083158D01*
X161684010Y-92353411D01*
X161846525Y-92596632D01*
X162053368Y-92803475D01*
X162227760Y-92920000D01*
X162053368Y-93036525D01*
X161846525Y-93243368D01*
X161684010Y-93486589D01*
X161572068Y-93756842D01*
X161515000Y-94043740D01*
X161515000Y-94336260D01*
X161572068Y-94623158D01*
X161684010Y-94893411D01*
X161846525Y-95136632D01*
X162053368Y-95343475D01*
X162235534Y-95465195D01*
X162118645Y-95534822D01*
X161902412Y-95729731D01*
X161728359Y-95963080D01*
X161603175Y-96225901D01*
X161558524Y-96373110D01*
X161679845Y-96603000D01*
X162873000Y-96603000D01*
X162873000Y-96583000D01*
X163127000Y-96583000D01*
X163127000Y-96603000D01*
X163147000Y-96603000D01*
X163147000Y-96857000D01*
X163127000Y-96857000D01*
X163127000Y-96877000D01*
X162873000Y-96877000D01*
X162873000Y-96857000D01*
X161679845Y-96857000D01*
X161558524Y-97086890D01*
X161603175Y-97234099D01*
X161728359Y-97496920D01*
X161902412Y-97730269D01*
X162118645Y-97925178D01*
X162235534Y-97994805D01*
X162053368Y-98116525D01*
X161846525Y-98323368D01*
X161684010Y-98566589D01*
X161572068Y-98836842D01*
X161515000Y-99123740D01*
X161515000Y-99416260D01*
X161572068Y-99703158D01*
X161684010Y-99973411D01*
X161846525Y-100216632D01*
X162053368Y-100423475D01*
X162227760Y-100540000D01*
X162053368Y-100656525D01*
X161846525Y-100863368D01*
X161684010Y-101106589D01*
X161572068Y-101376842D01*
X161515000Y-101663740D01*
X161515000Y-101956260D01*
X161572068Y-102243158D01*
X161684010Y-102513411D01*
X161846525Y-102756632D01*
X162053368Y-102963475D01*
X162227760Y-103080000D01*
X162053368Y-103196525D01*
X161846525Y-103403368D01*
X161684010Y-103646589D01*
X161572068Y-103916842D01*
X161515000Y-104203740D01*
X161515000Y-104496260D01*
X161572068Y-104783158D01*
X161684010Y-105053411D01*
X161846525Y-105296632D01*
X162053368Y-105503475D01*
X162227760Y-105620000D01*
X162053368Y-105736525D01*
X161846525Y-105943368D01*
X161684010Y-106186589D01*
X161572068Y-106456842D01*
X161515000Y-106743740D01*
X161515000Y-107036260D01*
X161572068Y-107323158D01*
X161684010Y-107593411D01*
X161846525Y-107836632D01*
X162053368Y-108043475D01*
X162227760Y-108160000D01*
X162053368Y-108276525D01*
X161846525Y-108483368D01*
X161684010Y-108726589D01*
X161572068Y-108996842D01*
X161515000Y-109283740D01*
X161515000Y-109576260D01*
X161572068Y-109863158D01*
X161684010Y-110133411D01*
X161846525Y-110376632D01*
X162053368Y-110583475D01*
X162296589Y-110745990D01*
X162566842Y-110857932D01*
X162853740Y-110915000D01*
X163146260Y-110915000D01*
X163433158Y-110857932D01*
X163703411Y-110745990D01*
X163946632Y-110583475D01*
X164153475Y-110376632D01*
X164271100Y-110200594D01*
X164442412Y-110430269D01*
X164658645Y-110625178D01*
X164908748Y-110774157D01*
X165183109Y-110871481D01*
X165413000Y-110750814D01*
X165413000Y-109557000D01*
X165667000Y-109557000D01*
X165667000Y-110750814D01*
X165896891Y-110871481D01*
X166171252Y-110774157D01*
X166421355Y-110625178D01*
X166637588Y-110430269D01*
X166811641Y-110196920D01*
X166936825Y-109934099D01*
X166981476Y-109786890D01*
X166860155Y-109557000D01*
X165667000Y-109557000D01*
X165413000Y-109557000D01*
X165393000Y-109557000D01*
X165393000Y-109303000D01*
X165413000Y-109303000D01*
X165413000Y-109283000D01*
X165667000Y-109283000D01*
X165667000Y-109303000D01*
X166860155Y-109303000D01*
X166981476Y-109073110D01*
X166936825Y-108925901D01*
X166811641Y-108663080D01*
X166637588Y-108429731D01*
X166421355Y-108234822D01*
X166304466Y-108165195D01*
X166486632Y-108043475D01*
X166693475Y-107836632D01*
X166855990Y-107593411D01*
X166917398Y-107445158D01*
X223622073Y-107445158D01*
X223622073Y-107649036D01*
X223661847Y-107848995D01*
X223739868Y-108037353D01*
X223853136Y-108206871D01*
X223997299Y-108351034D01*
X224166817Y-108464302D01*
X224355175Y-108542323D01*
X224555134Y-108582097D01*
X224759012Y-108582097D01*
X224958971Y-108542323D01*
X225147329Y-108464302D01*
X225316847Y-108351034D01*
X225461010Y-108206871D01*
X225531041Y-108102061D01*
X226676000Y-108102061D01*
X226676000Y-108305939D01*
X226715774Y-108505898D01*
X226793795Y-108694256D01*
X226881355Y-108825299D01*
X226873133Y-108837603D01*
X226795112Y-109025961D01*
X226755338Y-109225920D01*
X226755338Y-109429798D01*
X226795112Y-109629757D01*
X226873133Y-109818115D01*
X226986401Y-109987633D01*
X227130564Y-110131796D01*
X227300082Y-110245064D01*
X227488440Y-110323085D01*
X227688399Y-110362859D01*
X227892277Y-110362859D01*
X228092236Y-110323085D01*
X228280594Y-110245064D01*
X228450112Y-110131796D01*
X228594275Y-109987633D01*
X228707543Y-109818115D01*
X228785564Y-109629757D01*
X228825338Y-109429798D01*
X228825338Y-109225920D01*
X228785564Y-109025961D01*
X228707543Y-108837603D01*
X228619983Y-108706560D01*
X228628205Y-108694256D01*
X228706226Y-108505898D01*
X228746000Y-108305939D01*
X228746000Y-108102061D01*
X228706226Y-107902102D01*
X228628205Y-107713744D01*
X228514937Y-107544226D01*
X228370774Y-107400063D01*
X228201256Y-107286795D01*
X228012898Y-107208774D01*
X227812939Y-107169000D01*
X227609061Y-107169000D01*
X227409102Y-107208774D01*
X227220744Y-107286795D01*
X227051226Y-107400063D01*
X226907063Y-107544226D01*
X226793795Y-107713744D01*
X226715774Y-107902102D01*
X226676000Y-108102061D01*
X225531041Y-108102061D01*
X225574278Y-108037353D01*
X225652299Y-107848995D01*
X225692073Y-107649036D01*
X225692073Y-107479924D01*
X225739370Y-107499515D01*
X225939329Y-107539289D01*
X226143207Y-107539289D01*
X226343166Y-107499515D01*
X226531524Y-107421494D01*
X226701042Y-107308226D01*
X226845205Y-107164063D01*
X226958473Y-106994545D01*
X227036494Y-106806187D01*
X227076268Y-106606228D01*
X227076268Y-106402350D01*
X227036494Y-106202391D01*
X226958473Y-106014033D01*
X226845205Y-105844515D01*
X226701042Y-105700352D01*
X226531524Y-105587084D01*
X226343166Y-105509063D01*
X226143207Y-105469289D01*
X225939329Y-105469289D01*
X225739370Y-105509063D01*
X225551012Y-105587084D01*
X225381494Y-105700352D01*
X225237331Y-105844515D01*
X225124063Y-106014033D01*
X225046042Y-106202391D01*
X225006268Y-106402350D01*
X225006268Y-106571462D01*
X224958971Y-106551871D01*
X224759012Y-106512097D01*
X224555134Y-106512097D01*
X224355175Y-106551871D01*
X224166817Y-106629892D01*
X223997299Y-106743160D01*
X223853136Y-106887323D01*
X223739868Y-107056841D01*
X223661847Y-107245199D01*
X223622073Y-107445158D01*
X166917398Y-107445158D01*
X166967932Y-107323158D01*
X167025000Y-107036260D01*
X167025000Y-106743740D01*
X166967932Y-106456842D01*
X166855990Y-106186589D01*
X166693475Y-105943368D01*
X166486632Y-105736525D01*
X166312240Y-105620000D01*
X166486632Y-105503475D01*
X166693475Y-105296632D01*
X166855990Y-105053411D01*
X166967932Y-104783158D01*
X167025000Y-104496260D01*
X167025000Y-104203740D01*
X166970351Y-103929000D01*
X208654928Y-103929000D01*
X208654928Y-105629000D01*
X208667188Y-105753482D01*
X208703498Y-105873180D01*
X208762463Y-105983494D01*
X208841815Y-106080185D01*
X208938506Y-106159537D01*
X209048820Y-106218502D01*
X209168518Y-106254812D01*
X209293000Y-106267072D01*
X210993000Y-106267072D01*
X211117482Y-106254812D01*
X211237180Y-106218502D01*
X211347494Y-106159537D01*
X211444185Y-106080185D01*
X211523537Y-105983494D01*
X211582502Y-105873180D01*
X211618812Y-105753482D01*
X211631072Y-105629000D01*
X211631072Y-103929000D01*
X212654928Y-103929000D01*
X212654928Y-105629000D01*
X212667188Y-105753482D01*
X212703498Y-105873180D01*
X212762463Y-105983494D01*
X212841815Y-106080185D01*
X212938506Y-106159537D01*
X213048820Y-106218502D01*
X213168518Y-106254812D01*
X213293000Y-106267072D01*
X214993000Y-106267072D01*
X215117482Y-106254812D01*
X215237180Y-106218502D01*
X215347494Y-106159537D01*
X215444185Y-106080185D01*
X215523537Y-105983494D01*
X215582502Y-105873180D01*
X215618812Y-105753482D01*
X215631072Y-105629000D01*
X215631072Y-104673061D01*
X227438000Y-104673061D01*
X227438000Y-104876939D01*
X227477774Y-105076898D01*
X227555795Y-105265256D01*
X227622200Y-105364639D01*
X227591795Y-105410144D01*
X227513774Y-105598502D01*
X227474000Y-105798461D01*
X227474000Y-106002339D01*
X227513774Y-106202298D01*
X227591795Y-106390656D01*
X227705063Y-106560174D01*
X227849226Y-106704337D01*
X228018744Y-106817605D01*
X228207102Y-106895626D01*
X228407061Y-106935400D01*
X228610939Y-106935400D01*
X228810898Y-106895626D01*
X228999256Y-106817605D01*
X229168774Y-106704337D01*
X229312937Y-106560174D01*
X229426205Y-106390656D01*
X229504226Y-106202298D01*
X229544000Y-106002339D01*
X229544000Y-105798461D01*
X229504226Y-105598502D01*
X229426205Y-105410144D01*
X229359800Y-105310761D01*
X229390205Y-105265256D01*
X229468226Y-105076898D01*
X229508000Y-104876939D01*
X229508000Y-104814801D01*
X229618140Y-104704661D01*
X230391500Y-104704661D01*
X230391500Y-104908539D01*
X230431274Y-105108498D01*
X230509295Y-105296856D01*
X230622563Y-105466374D01*
X230766726Y-105610537D01*
X230936244Y-105723805D01*
X231124602Y-105801826D01*
X231324561Y-105841600D01*
X231528439Y-105841600D01*
X231728398Y-105801826D01*
X231916756Y-105723805D01*
X232086274Y-105610537D01*
X232230437Y-105466374D01*
X232343705Y-105296856D01*
X232421726Y-105108498D01*
X232461500Y-104908539D01*
X232461500Y-104704661D01*
X232421726Y-104504702D01*
X232343705Y-104316344D01*
X232230437Y-104146826D01*
X232086274Y-104002663D01*
X231916756Y-103889395D01*
X231728398Y-103811374D01*
X231528439Y-103771600D01*
X231324561Y-103771600D01*
X231124602Y-103811374D01*
X230936244Y-103889395D01*
X230766726Y-104002663D01*
X230622563Y-104146826D01*
X230509295Y-104316344D01*
X230431274Y-104504702D01*
X230391500Y-104704661D01*
X229618140Y-104704661D01*
X232763138Y-101559663D01*
X232770963Y-101571374D01*
X232915126Y-101715537D01*
X233084644Y-101828805D01*
X233273002Y-101906826D01*
X233472961Y-101946600D01*
X233676839Y-101946600D01*
X233876798Y-101906826D01*
X234065156Y-101828805D01*
X234234674Y-101715537D01*
X234378837Y-101571374D01*
X234492105Y-101401856D01*
X234570126Y-101213498D01*
X234609900Y-101013539D01*
X234609900Y-100809661D01*
X234570126Y-100609702D01*
X234492105Y-100421344D01*
X234378837Y-100251826D01*
X234234674Y-100107663D01*
X234222963Y-100099838D01*
X236591004Y-97731798D01*
X236620001Y-97708001D01*
X236714974Y-97592276D01*
X236785546Y-97460247D01*
X236829003Y-97316986D01*
X236840000Y-97205333D01*
X236840000Y-97205332D01*
X236843677Y-97168000D01*
X236840000Y-97130667D01*
X236840000Y-83180000D01*
X238011928Y-83180000D01*
X238011928Y-84880000D01*
X238024188Y-85004482D01*
X238060498Y-85124180D01*
X238119463Y-85234494D01*
X238198815Y-85331185D01*
X238295506Y-85410537D01*
X238405820Y-85469502D01*
X238478380Y-85491513D01*
X238346525Y-85623368D01*
X238184010Y-85866589D01*
X238072068Y-86136842D01*
X238015000Y-86423740D01*
X238015000Y-86716260D01*
X238072068Y-87003158D01*
X238184010Y-87273411D01*
X238346525Y-87516632D01*
X238553368Y-87723475D01*
X238735534Y-87845195D01*
X238618645Y-87914822D01*
X238402412Y-88109731D01*
X238228359Y-88343080D01*
X238103175Y-88605901D01*
X238058524Y-88753110D01*
X238179845Y-88983000D01*
X239373000Y-88983000D01*
X239373000Y-88963000D01*
X239627000Y-88963000D01*
X239627000Y-88983000D01*
X239647000Y-88983000D01*
X239647000Y-89237000D01*
X239627000Y-89237000D01*
X239627000Y-89257000D01*
X239373000Y-89257000D01*
X239373000Y-89237000D01*
X238179845Y-89237000D01*
X238058524Y-89466890D01*
X238103175Y-89614099D01*
X238228359Y-89876920D01*
X238402412Y-90110269D01*
X238618645Y-90305178D01*
X238735534Y-90374805D01*
X238553368Y-90496525D01*
X238346525Y-90703368D01*
X238184010Y-90946589D01*
X238072068Y-91216842D01*
X238015000Y-91503740D01*
X238015000Y-91796260D01*
X238072068Y-92083158D01*
X238184010Y-92353411D01*
X238346525Y-92596632D01*
X238553368Y-92803475D01*
X238727760Y-92920000D01*
X238553368Y-93036525D01*
X238346525Y-93243368D01*
X238184010Y-93486589D01*
X238072068Y-93756842D01*
X238015000Y-94043740D01*
X238015000Y-94336260D01*
X238072068Y-94623158D01*
X238184010Y-94893411D01*
X238346525Y-95136632D01*
X238553368Y-95343475D01*
X238727760Y-95460000D01*
X238553368Y-95576525D01*
X238346525Y-95783368D01*
X238184010Y-96026589D01*
X238072068Y-96296842D01*
X238015000Y-96583740D01*
X238015000Y-96876260D01*
X238072068Y-97163158D01*
X238184010Y-97433411D01*
X238346525Y-97676632D01*
X238553368Y-97883475D01*
X238727760Y-98000000D01*
X238553368Y-98116525D01*
X238346525Y-98323368D01*
X238184010Y-98566589D01*
X238072068Y-98836842D01*
X238015000Y-99123740D01*
X238015000Y-99416260D01*
X238072068Y-99703158D01*
X238184010Y-99973411D01*
X238346525Y-100216632D01*
X238553368Y-100423475D01*
X238727760Y-100540000D01*
X238553368Y-100656525D01*
X238346525Y-100863368D01*
X238184010Y-101106589D01*
X238072068Y-101376842D01*
X238015000Y-101663740D01*
X238015000Y-101956260D01*
X238072068Y-102243158D01*
X238184010Y-102513411D01*
X238346525Y-102756632D01*
X238553368Y-102963475D01*
X238727760Y-103080000D01*
X238553368Y-103196525D01*
X238346525Y-103403368D01*
X238184010Y-103646589D01*
X238072068Y-103916842D01*
X238015000Y-104203740D01*
X238015000Y-104496260D01*
X238072068Y-104783158D01*
X238184010Y-105053411D01*
X238346525Y-105296632D01*
X238553368Y-105503475D01*
X238735534Y-105625195D01*
X238618645Y-105694822D01*
X238402412Y-105889731D01*
X238228359Y-106123080D01*
X238103175Y-106385901D01*
X238058524Y-106533110D01*
X238179845Y-106763000D01*
X239373000Y-106763000D01*
X239373000Y-106743000D01*
X239627000Y-106743000D01*
X239627000Y-106763000D01*
X239647000Y-106763000D01*
X239647000Y-107017000D01*
X239627000Y-107017000D01*
X239627000Y-107037000D01*
X239373000Y-107037000D01*
X239373000Y-107017000D01*
X238179845Y-107017000D01*
X238058524Y-107246890D01*
X238103175Y-107394099D01*
X238228359Y-107656920D01*
X238402412Y-107890269D01*
X238618645Y-108085178D01*
X238735534Y-108154805D01*
X238553368Y-108276525D01*
X238346525Y-108483368D01*
X238184010Y-108726589D01*
X238072068Y-108996842D01*
X238015000Y-109283740D01*
X238015000Y-109576260D01*
X238072068Y-109863158D01*
X238184010Y-110133411D01*
X238346525Y-110376632D01*
X238553368Y-110583475D01*
X238727760Y-110700000D01*
X238553368Y-110816525D01*
X238346525Y-111023368D01*
X238184010Y-111266589D01*
X238072068Y-111536842D01*
X238015000Y-111823740D01*
X238015000Y-112116260D01*
X238072068Y-112403158D01*
X238184010Y-112673411D01*
X238346525Y-112916632D01*
X238553368Y-113123475D01*
X238796589Y-113285990D01*
X239066842Y-113397932D01*
X239353740Y-113455000D01*
X239646260Y-113455000D01*
X239933158Y-113397932D01*
X240203411Y-113285990D01*
X240446632Y-113123475D01*
X240653475Y-112916632D01*
X240770000Y-112742240D01*
X240886525Y-112916632D01*
X241093368Y-113123475D01*
X241336589Y-113285990D01*
X241606842Y-113397932D01*
X241893740Y-113455000D01*
X242186260Y-113455000D01*
X242473158Y-113397932D01*
X242743411Y-113285990D01*
X242986632Y-113123475D01*
X243193475Y-112916632D01*
X243355990Y-112673411D01*
X243467932Y-112403158D01*
X243525000Y-112116260D01*
X243525000Y-111823740D01*
X243467932Y-111536842D01*
X243355990Y-111266589D01*
X243193475Y-111023368D01*
X242986632Y-110816525D01*
X242812240Y-110700000D01*
X242986632Y-110583475D01*
X243193475Y-110376632D01*
X243355990Y-110133411D01*
X243467932Y-109863158D01*
X243525000Y-109576260D01*
X243525000Y-109283740D01*
X243467932Y-108996842D01*
X243355990Y-108726589D01*
X243193475Y-108483368D01*
X242986632Y-108276525D01*
X242812240Y-108160000D01*
X242986632Y-108043475D01*
X243193475Y-107836632D01*
X243355990Y-107593411D01*
X243467932Y-107323158D01*
X243525000Y-107036260D01*
X243525000Y-106743740D01*
X243467932Y-106456842D01*
X243355990Y-106186589D01*
X243193475Y-105943368D01*
X242986632Y-105736525D01*
X242812240Y-105620000D01*
X242986632Y-105503475D01*
X243193475Y-105296632D01*
X243355990Y-105053411D01*
X243467932Y-104783158D01*
X243525000Y-104496260D01*
X243525000Y-104203740D01*
X243467932Y-103916842D01*
X243355990Y-103646589D01*
X243193475Y-103403368D01*
X242986632Y-103196525D01*
X242812240Y-103080000D01*
X242986632Y-102963475D01*
X243193475Y-102756632D01*
X243355990Y-102513411D01*
X243467932Y-102243158D01*
X243525000Y-101956260D01*
X243525000Y-101663740D01*
X243467932Y-101376842D01*
X243355990Y-101106589D01*
X243193475Y-100863368D01*
X242986632Y-100656525D01*
X242804466Y-100534805D01*
X242921355Y-100465178D01*
X243137588Y-100270269D01*
X243311641Y-100036920D01*
X243436825Y-99774099D01*
X243481476Y-99626890D01*
X243360155Y-99397000D01*
X242167000Y-99397000D01*
X242167000Y-99417000D01*
X241913000Y-99417000D01*
X241913000Y-99397000D01*
X241893000Y-99397000D01*
X241893000Y-99143000D01*
X241913000Y-99143000D01*
X241913000Y-99123000D01*
X242167000Y-99123000D01*
X242167000Y-99143000D01*
X243360155Y-99143000D01*
X243481476Y-98913110D01*
X243436825Y-98765901D01*
X243311641Y-98503080D01*
X243137588Y-98269731D01*
X242921355Y-98074822D01*
X242804466Y-98005195D01*
X242986632Y-97883475D01*
X243193475Y-97676632D01*
X243355990Y-97433411D01*
X243467932Y-97163158D01*
X243525000Y-96876260D01*
X243525000Y-96583740D01*
X243467932Y-96296842D01*
X243355990Y-96026589D01*
X243193475Y-95783368D01*
X242986632Y-95576525D01*
X242804466Y-95454805D01*
X242921355Y-95385178D01*
X243137588Y-95190269D01*
X243311641Y-94956920D01*
X243436825Y-94694099D01*
X243481476Y-94546890D01*
X243360155Y-94317000D01*
X242167000Y-94317000D01*
X242167000Y-94337000D01*
X241913000Y-94337000D01*
X241913000Y-94317000D01*
X241893000Y-94317000D01*
X241893000Y-94063000D01*
X241913000Y-94063000D01*
X241913000Y-94043000D01*
X242167000Y-94043000D01*
X242167000Y-94063000D01*
X243360155Y-94063000D01*
X243481476Y-93833110D01*
X243436825Y-93685901D01*
X243311641Y-93423080D01*
X243137588Y-93189731D01*
X242921355Y-92994822D01*
X242804466Y-92925195D01*
X242986632Y-92803475D01*
X243193475Y-92596632D01*
X243355990Y-92353411D01*
X243467932Y-92083158D01*
X243525000Y-91796260D01*
X243525000Y-91503740D01*
X243467932Y-91216842D01*
X243355990Y-90946589D01*
X243193475Y-90703368D01*
X242986632Y-90496525D01*
X242812240Y-90380000D01*
X242986632Y-90263475D01*
X243193475Y-90056632D01*
X243355990Y-89813411D01*
X243467932Y-89543158D01*
X243525000Y-89256260D01*
X243525000Y-88963740D01*
X243467932Y-88676842D01*
X243355990Y-88406589D01*
X243193475Y-88163368D01*
X242986632Y-87956525D01*
X242812240Y-87840000D01*
X242986632Y-87723475D01*
X243193475Y-87516632D01*
X243355990Y-87273411D01*
X243467932Y-87003158D01*
X243525000Y-86716260D01*
X243525000Y-86423740D01*
X243467932Y-86136842D01*
X243355990Y-85866589D01*
X243193475Y-85623368D01*
X242986632Y-85416525D01*
X242812240Y-85300000D01*
X242986632Y-85183475D01*
X243193475Y-84976632D01*
X243355990Y-84733411D01*
X243467932Y-84463158D01*
X243525000Y-84176260D01*
X243525000Y-83883740D01*
X243467932Y-83596842D01*
X243355990Y-83326589D01*
X243193475Y-83083368D01*
X242986632Y-82876525D01*
X242743411Y-82714010D01*
X242473158Y-82602068D01*
X242186260Y-82545000D01*
X241893740Y-82545000D01*
X241606842Y-82602068D01*
X241336589Y-82714010D01*
X241093368Y-82876525D01*
X240961513Y-83008380D01*
X240939502Y-82935820D01*
X240880537Y-82825506D01*
X240801185Y-82728815D01*
X240704494Y-82649463D01*
X240594180Y-82590498D01*
X240474482Y-82554188D01*
X240350000Y-82541928D01*
X238650000Y-82541928D01*
X238525518Y-82554188D01*
X238405820Y-82590498D01*
X238295506Y-82649463D01*
X238198815Y-82728815D01*
X238119463Y-82825506D01*
X238060498Y-82935820D01*
X238024188Y-83055518D01*
X238011928Y-83180000D01*
X236840000Y-83180000D01*
X236840000Y-76878178D01*
X237026632Y-76753475D01*
X237233475Y-76546632D01*
X237350000Y-76372240D01*
X237466525Y-76546632D01*
X237673368Y-76753475D01*
X237916589Y-76915990D01*
X238186842Y-77027932D01*
X238473740Y-77085000D01*
X238766260Y-77085000D01*
X239053158Y-77027932D01*
X239323411Y-76915990D01*
X239566632Y-76753475D01*
X239773475Y-76546632D01*
X239890000Y-76372240D01*
X240006525Y-76546632D01*
X240213368Y-76753475D01*
X240456589Y-76915990D01*
X240726842Y-77027932D01*
X241013740Y-77085000D01*
X241306260Y-77085000D01*
X241593158Y-77027932D01*
X241863411Y-76915990D01*
X242106632Y-76753475D01*
X242313475Y-76546632D01*
X242475990Y-76303411D01*
X242587932Y-76033158D01*
X242645000Y-75746260D01*
X242645000Y-75453740D01*
X242587932Y-75166842D01*
X242475990Y-74896589D01*
X242313475Y-74653368D01*
X242106632Y-74446525D01*
X241930594Y-74328900D01*
X242160269Y-74157588D01*
X242355178Y-73941355D01*
X242504157Y-73691252D01*
X242601481Y-73416891D01*
X242480814Y-73187000D01*
X241287000Y-73187000D01*
X241287000Y-73207000D01*
X241033000Y-73207000D01*
X241033000Y-73187000D01*
X241013000Y-73187000D01*
X241013000Y-72933000D01*
X241033000Y-72933000D01*
X241033000Y-71739845D01*
X241287000Y-71739845D01*
X241287000Y-72933000D01*
X242480814Y-72933000D01*
X242601481Y-72703109D01*
X242504157Y-72428748D01*
X242355178Y-72178645D01*
X242160269Y-71962412D01*
X241926920Y-71788359D01*
X241664099Y-71663175D01*
X241516890Y-71618524D01*
X241287000Y-71739845D01*
X241033000Y-71739845D01*
X240803110Y-71618524D01*
X240655901Y-71663175D01*
X240393080Y-71788359D01*
X240159731Y-71962412D01*
X239964822Y-72178645D01*
X239895195Y-72295534D01*
X239773475Y-72113368D01*
X239566632Y-71906525D01*
X239323411Y-71744010D01*
X239053158Y-71632068D01*
X238766260Y-71575000D01*
X238473740Y-71575000D01*
X238186842Y-71632068D01*
X237916589Y-71744010D01*
X237673368Y-71906525D01*
X237466525Y-72113368D01*
X237350000Y-72287760D01*
X237233475Y-72113368D01*
X237026632Y-71906525D01*
X236783411Y-71744010D01*
X236513158Y-71632068D01*
X236226260Y-71575000D01*
X235933740Y-71575000D01*
X235646842Y-71632068D01*
X235376589Y-71744010D01*
X235133368Y-71906525D01*
X234926525Y-72113368D01*
X234810000Y-72287760D01*
X234693475Y-72113368D01*
X234486632Y-71906525D01*
X234243411Y-71744010D01*
X233973158Y-71632068D01*
X233686260Y-71575000D01*
X233393740Y-71575000D01*
X233106842Y-71632068D01*
X232836589Y-71744010D01*
X232593368Y-71906525D01*
X232386525Y-72113368D01*
X232270000Y-72287760D01*
X232153475Y-72113368D01*
X231946632Y-71906525D01*
X231703411Y-71744010D01*
X231433158Y-71632068D01*
X231146260Y-71575000D01*
X230853740Y-71575000D01*
X230566842Y-71632068D01*
X230296589Y-71744010D01*
X230053368Y-71906525D01*
X229846525Y-72113368D01*
X229684010Y-72356589D01*
X229572068Y-72626842D01*
X229515000Y-72913740D01*
X229515000Y-73206260D01*
X229572068Y-73493158D01*
X229684010Y-73763411D01*
X229846525Y-74006632D01*
X229978380Y-74138487D01*
X229905820Y-74160498D01*
X229795506Y-74219463D01*
X229698815Y-74298815D01*
X229619463Y-74395506D01*
X229560498Y-74505820D01*
X229524188Y-74625518D01*
X229511928Y-74750000D01*
X229511928Y-76450000D01*
X229516394Y-76495350D01*
X229368839Y-76466000D01*
X229164961Y-76466000D01*
X228965002Y-76505774D01*
X228776644Y-76583795D01*
X228607126Y-76697063D01*
X228462963Y-76841226D01*
X228349695Y-77010744D01*
X228271674Y-77199102D01*
X228231900Y-77399061D01*
X228231900Y-77602939D01*
X228271674Y-77802898D01*
X228349695Y-77991256D01*
X228462963Y-78160774D01*
X228607126Y-78304937D01*
X228776644Y-78418205D01*
X228965002Y-78496226D01*
X229164961Y-78536000D01*
X229368839Y-78536000D01*
X229568798Y-78496226D01*
X229757156Y-78418205D01*
X229926674Y-78304937D01*
X230070837Y-78160774D01*
X230184105Y-77991256D01*
X230262126Y-77802898D01*
X230301900Y-77602939D01*
X230301900Y-77399061D01*
X230262126Y-77199102D01*
X230216136Y-77088072D01*
X231850000Y-77088072D01*
X231974482Y-77075812D01*
X232094180Y-77039502D01*
X232204494Y-76980537D01*
X232301185Y-76901185D01*
X232380537Y-76804494D01*
X232439502Y-76694180D01*
X232461513Y-76621620D01*
X232593368Y-76753475D01*
X232836589Y-76915990D01*
X233106842Y-77027932D01*
X233393740Y-77085000D01*
X233686260Y-77085000D01*
X233973158Y-77027932D01*
X234243411Y-76915990D01*
X234486632Y-76753475D01*
X234693475Y-76546632D01*
X234810000Y-76372240D01*
X234926525Y-76546632D01*
X235133368Y-76753475D01*
X235320001Y-76878179D01*
X235320000Y-96853198D01*
X228433199Y-103740000D01*
X228371061Y-103740000D01*
X228171102Y-103779774D01*
X227982744Y-103857795D01*
X227813226Y-103971063D01*
X227669063Y-104115226D01*
X227555795Y-104284744D01*
X227477774Y-104473102D01*
X227438000Y-104673061D01*
X215631072Y-104673061D01*
X215631072Y-103929000D01*
X215618812Y-103804518D01*
X215582502Y-103684820D01*
X215523537Y-103574506D01*
X215444185Y-103477815D01*
X215347494Y-103398463D01*
X215237180Y-103339498D01*
X215164620Y-103317487D01*
X215296475Y-103185632D01*
X215458990Y-102942411D01*
X215570932Y-102672158D01*
X215628000Y-102385260D01*
X215628000Y-102092740D01*
X215570932Y-101805842D01*
X215458990Y-101535589D01*
X215296475Y-101292368D01*
X215089632Y-101085525D01*
X214915240Y-100969000D01*
X215089632Y-100852475D01*
X215296475Y-100645632D01*
X215458990Y-100402411D01*
X215570932Y-100132158D01*
X215628000Y-99845260D01*
X215628000Y-99552740D01*
X215570932Y-99265842D01*
X215458990Y-98995589D01*
X215296475Y-98752368D01*
X215089632Y-98545525D01*
X214846411Y-98383010D01*
X214576158Y-98271068D01*
X214289260Y-98214000D01*
X213996740Y-98214000D01*
X213709842Y-98271068D01*
X213439589Y-98383010D01*
X213196368Y-98545525D01*
X212989525Y-98752368D01*
X212827010Y-98995589D01*
X212715068Y-99265842D01*
X212658000Y-99552740D01*
X212658000Y-99845260D01*
X212715068Y-100132158D01*
X212827010Y-100402411D01*
X212989525Y-100645632D01*
X213196368Y-100852475D01*
X213370760Y-100969000D01*
X213196368Y-101085525D01*
X212989525Y-101292368D01*
X212827010Y-101535589D01*
X212715068Y-101805842D01*
X212658000Y-102092740D01*
X212658000Y-102385260D01*
X212715068Y-102672158D01*
X212827010Y-102942411D01*
X212989525Y-103185632D01*
X213121380Y-103317487D01*
X213048820Y-103339498D01*
X212938506Y-103398463D01*
X212841815Y-103477815D01*
X212762463Y-103574506D01*
X212703498Y-103684820D01*
X212667188Y-103804518D01*
X212654928Y-103929000D01*
X211631072Y-103929000D01*
X211618812Y-103804518D01*
X211582502Y-103684820D01*
X211523537Y-103574506D01*
X211444185Y-103477815D01*
X211347494Y-103398463D01*
X211237180Y-103339498D01*
X211164620Y-103317487D01*
X211296475Y-103185632D01*
X211458990Y-102942411D01*
X211570932Y-102672158D01*
X211628000Y-102385260D01*
X211628000Y-102092740D01*
X211570932Y-101805842D01*
X211458990Y-101535589D01*
X211296475Y-101292368D01*
X211089632Y-101085525D01*
X210915240Y-100969000D01*
X211089632Y-100852475D01*
X211296475Y-100645632D01*
X211458990Y-100402411D01*
X211570932Y-100132158D01*
X211628000Y-99845260D01*
X211628000Y-99552740D01*
X211570932Y-99265842D01*
X211458990Y-98995589D01*
X211296475Y-98752368D01*
X211089632Y-98545525D01*
X210846411Y-98383010D01*
X210576158Y-98271068D01*
X210289260Y-98214000D01*
X209996740Y-98214000D01*
X209709842Y-98271068D01*
X209439589Y-98383010D01*
X209196368Y-98545525D01*
X208989525Y-98752368D01*
X208827010Y-98995589D01*
X208715068Y-99265842D01*
X208658000Y-99552740D01*
X208658000Y-99845260D01*
X208715068Y-100132158D01*
X208827010Y-100402411D01*
X208989525Y-100645632D01*
X209196368Y-100852475D01*
X209370760Y-100969000D01*
X209196368Y-101085525D01*
X208989525Y-101292368D01*
X208827010Y-101535589D01*
X208715068Y-101805842D01*
X208658000Y-102092740D01*
X208658000Y-102385260D01*
X208715068Y-102672158D01*
X208827010Y-102942411D01*
X208989525Y-103185632D01*
X209121380Y-103317487D01*
X209048820Y-103339498D01*
X208938506Y-103398463D01*
X208841815Y-103477815D01*
X208762463Y-103574506D01*
X208703498Y-103684820D01*
X208667188Y-103804518D01*
X208654928Y-103929000D01*
X166970351Y-103929000D01*
X166967932Y-103916842D01*
X166855990Y-103646589D01*
X166693475Y-103403368D01*
X166486632Y-103196525D01*
X166304466Y-103074805D01*
X166421355Y-103005178D01*
X166637588Y-102810269D01*
X166811641Y-102576920D01*
X166936825Y-102314099D01*
X166981476Y-102166890D01*
X166860155Y-101937000D01*
X165667000Y-101937000D01*
X165667000Y-101957000D01*
X165413000Y-101957000D01*
X165413000Y-101937000D01*
X165393000Y-101937000D01*
X165393000Y-101683000D01*
X165413000Y-101683000D01*
X165413000Y-101663000D01*
X165667000Y-101663000D01*
X165667000Y-101683000D01*
X166860155Y-101683000D01*
X166981476Y-101453110D01*
X166936825Y-101305901D01*
X166811641Y-101043080D01*
X166637588Y-100809731D01*
X166421355Y-100614822D01*
X166304466Y-100545195D01*
X166486632Y-100423475D01*
X166693475Y-100216632D01*
X166855990Y-99973411D01*
X166967932Y-99703158D01*
X167025000Y-99416260D01*
X167025000Y-99123740D01*
X166967932Y-98836842D01*
X166855990Y-98566589D01*
X166693475Y-98323368D01*
X166486632Y-98116525D01*
X166312240Y-98000000D01*
X166486632Y-97883475D01*
X166693475Y-97676632D01*
X166855990Y-97433411D01*
X166967932Y-97163158D01*
X167025000Y-96876260D01*
X167025000Y-96583740D01*
X166967932Y-96296842D01*
X166855990Y-96026589D01*
X166693475Y-95783368D01*
X166486632Y-95576525D01*
X166312240Y-95460000D01*
X166486632Y-95343475D01*
X166693475Y-95136632D01*
X166855990Y-94893411D01*
X166967932Y-94623158D01*
X167025000Y-94336260D01*
X167025000Y-94043740D01*
X166967932Y-93756842D01*
X166855990Y-93486589D01*
X166693475Y-93243368D01*
X166486632Y-93036525D01*
X166304466Y-92914805D01*
X166421355Y-92845178D01*
X166637588Y-92650269D01*
X166811641Y-92416920D01*
X166936825Y-92154099D01*
X166981476Y-92006890D01*
X166968869Y-91983000D01*
X170008928Y-91983000D01*
X170008928Y-93683000D01*
X170021188Y-93807482D01*
X170057498Y-93927180D01*
X170116463Y-94037494D01*
X170195815Y-94134185D01*
X170292506Y-94213537D01*
X170402820Y-94272502D01*
X170475380Y-94294513D01*
X170343525Y-94426368D01*
X170181010Y-94669589D01*
X170069068Y-94939842D01*
X170012000Y-95226740D01*
X170012000Y-95519260D01*
X170069068Y-95806158D01*
X170181010Y-96076411D01*
X170343525Y-96319632D01*
X170550368Y-96526475D01*
X170724760Y-96643000D01*
X170550368Y-96759525D01*
X170343525Y-96966368D01*
X170181010Y-97209589D01*
X170069068Y-97479842D01*
X170012000Y-97766740D01*
X170012000Y-98059260D01*
X170069068Y-98346158D01*
X170181010Y-98616411D01*
X170343525Y-98859632D01*
X170550368Y-99066475D01*
X170793589Y-99228990D01*
X171063842Y-99340932D01*
X171350740Y-99398000D01*
X171643260Y-99398000D01*
X171930158Y-99340932D01*
X172200411Y-99228990D01*
X172443632Y-99066475D01*
X172650475Y-98859632D01*
X172812990Y-98616411D01*
X172924932Y-98346158D01*
X172982000Y-98059260D01*
X172982000Y-97766740D01*
X172924932Y-97479842D01*
X172812990Y-97209589D01*
X172650475Y-96966368D01*
X172443632Y-96759525D01*
X172269240Y-96643000D01*
X172443632Y-96526475D01*
X172650475Y-96319632D01*
X172812990Y-96076411D01*
X172924932Y-95806158D01*
X172982000Y-95519260D01*
X172982000Y-95226740D01*
X172924932Y-94939842D01*
X172812990Y-94669589D01*
X172650475Y-94426368D01*
X172518620Y-94294513D01*
X172591180Y-94272502D01*
X172701494Y-94213537D01*
X172798185Y-94134185D01*
X172877537Y-94037494D01*
X172936502Y-93927180D01*
X172972812Y-93807482D01*
X172985072Y-93683000D01*
X172985072Y-91983000D01*
X174008928Y-91983000D01*
X174008928Y-93683000D01*
X174021188Y-93807482D01*
X174057498Y-93927180D01*
X174116463Y-94037494D01*
X174195815Y-94134185D01*
X174292506Y-94213537D01*
X174402820Y-94272502D01*
X174475380Y-94294513D01*
X174343525Y-94426368D01*
X174181010Y-94669589D01*
X174069068Y-94939842D01*
X174012000Y-95226740D01*
X174012000Y-95519260D01*
X174069068Y-95806158D01*
X174181010Y-96076411D01*
X174343525Y-96319632D01*
X174550368Y-96526475D01*
X174724760Y-96643000D01*
X174550368Y-96759525D01*
X174343525Y-96966368D01*
X174181010Y-97209589D01*
X174069068Y-97479842D01*
X174012000Y-97766740D01*
X174012000Y-98059260D01*
X174069068Y-98346158D01*
X174181010Y-98616411D01*
X174343525Y-98859632D01*
X174550368Y-99066475D01*
X174793589Y-99228990D01*
X175063842Y-99340932D01*
X175350740Y-99398000D01*
X175643260Y-99398000D01*
X175930158Y-99340932D01*
X176200411Y-99228990D01*
X176443632Y-99066475D01*
X176650475Y-98859632D01*
X176812990Y-98616411D01*
X176924932Y-98346158D01*
X176982000Y-98059260D01*
X176982000Y-97766740D01*
X176924932Y-97479842D01*
X176812990Y-97209589D01*
X176650475Y-96966368D01*
X176443632Y-96759525D01*
X176269240Y-96643000D01*
X176443632Y-96526475D01*
X176650475Y-96319632D01*
X176812990Y-96076411D01*
X176924932Y-95806158D01*
X176982000Y-95519260D01*
X176982000Y-95226740D01*
X176924932Y-94939842D01*
X176812990Y-94669589D01*
X176650475Y-94426368D01*
X176518620Y-94294513D01*
X176591180Y-94272502D01*
X176701494Y-94213537D01*
X176798185Y-94134185D01*
X176877537Y-94037494D01*
X176936502Y-93927180D01*
X176972812Y-93807482D01*
X176985072Y-93683000D01*
X176985072Y-91983000D01*
X178008928Y-91983000D01*
X178008928Y-93683000D01*
X178021188Y-93807482D01*
X178057498Y-93927180D01*
X178116463Y-94037494D01*
X178195815Y-94134185D01*
X178292506Y-94213537D01*
X178402820Y-94272502D01*
X178475380Y-94294513D01*
X178343525Y-94426368D01*
X178181010Y-94669589D01*
X178069068Y-94939842D01*
X178012000Y-95226740D01*
X178012000Y-95519260D01*
X178069068Y-95806158D01*
X178181010Y-96076411D01*
X178343525Y-96319632D01*
X178550368Y-96526475D01*
X178724760Y-96643000D01*
X178550368Y-96759525D01*
X178343525Y-96966368D01*
X178181010Y-97209589D01*
X178069068Y-97479842D01*
X178012000Y-97766740D01*
X178012000Y-98059260D01*
X178069068Y-98346158D01*
X178181010Y-98616411D01*
X178343525Y-98859632D01*
X178550368Y-99066475D01*
X178793589Y-99228990D01*
X179063842Y-99340932D01*
X179350740Y-99398000D01*
X179643260Y-99398000D01*
X179930158Y-99340932D01*
X180200411Y-99228990D01*
X180443632Y-99066475D01*
X180650475Y-98859632D01*
X180812990Y-98616411D01*
X180924932Y-98346158D01*
X180982000Y-98059260D01*
X180982000Y-97766740D01*
X180924932Y-97479842D01*
X180812990Y-97209589D01*
X180650475Y-96966368D01*
X180443632Y-96759525D01*
X180269240Y-96643000D01*
X180443632Y-96526475D01*
X180650475Y-96319632D01*
X180812990Y-96076411D01*
X180924932Y-95806158D01*
X180982000Y-95519260D01*
X180982000Y-95226740D01*
X180924932Y-94939842D01*
X180812990Y-94669589D01*
X180650475Y-94426368D01*
X180518620Y-94294513D01*
X180591180Y-94272502D01*
X180701494Y-94213537D01*
X180798185Y-94134185D01*
X180877537Y-94037494D01*
X180936502Y-93927180D01*
X180972812Y-93807482D01*
X180985072Y-93683000D01*
X180985072Y-91983000D01*
X180972812Y-91858518D01*
X180936502Y-91738820D01*
X180877537Y-91628506D01*
X180798185Y-91531815D01*
X180701494Y-91452463D01*
X180591180Y-91393498D01*
X180471482Y-91357188D01*
X180347000Y-91344928D01*
X178647000Y-91344928D01*
X178522518Y-91357188D01*
X178402820Y-91393498D01*
X178292506Y-91452463D01*
X178195815Y-91531815D01*
X178116463Y-91628506D01*
X178057498Y-91738820D01*
X178021188Y-91858518D01*
X178008928Y-91983000D01*
X176985072Y-91983000D01*
X176972812Y-91858518D01*
X176936502Y-91738820D01*
X176877537Y-91628506D01*
X176798185Y-91531815D01*
X176701494Y-91452463D01*
X176591180Y-91393498D01*
X176471482Y-91357188D01*
X176347000Y-91344928D01*
X174647000Y-91344928D01*
X174522518Y-91357188D01*
X174402820Y-91393498D01*
X174292506Y-91452463D01*
X174195815Y-91531815D01*
X174116463Y-91628506D01*
X174057498Y-91738820D01*
X174021188Y-91858518D01*
X174008928Y-91983000D01*
X172985072Y-91983000D01*
X172972812Y-91858518D01*
X172936502Y-91738820D01*
X172877537Y-91628506D01*
X172798185Y-91531815D01*
X172701494Y-91452463D01*
X172591180Y-91393498D01*
X172471482Y-91357188D01*
X172347000Y-91344928D01*
X170647000Y-91344928D01*
X170522518Y-91357188D01*
X170402820Y-91393498D01*
X170292506Y-91452463D01*
X170195815Y-91531815D01*
X170116463Y-91628506D01*
X170057498Y-91738820D01*
X170021188Y-91858518D01*
X170008928Y-91983000D01*
X166968869Y-91983000D01*
X166860155Y-91777000D01*
X165667000Y-91777000D01*
X165667000Y-91797000D01*
X165413000Y-91797000D01*
X165413000Y-91777000D01*
X165393000Y-91777000D01*
X165393000Y-91523000D01*
X165413000Y-91523000D01*
X165413000Y-91503000D01*
X165667000Y-91503000D01*
X165667000Y-91523000D01*
X166860155Y-91523000D01*
X166981476Y-91293110D01*
X166936825Y-91145901D01*
X166811641Y-90883080D01*
X166637588Y-90649731D01*
X166421355Y-90454822D01*
X166304466Y-90385195D01*
X166486632Y-90263475D01*
X166693475Y-90056632D01*
X166855990Y-89813411D01*
X166967932Y-89543158D01*
X167025000Y-89256260D01*
X167025000Y-88963740D01*
X166967932Y-88676842D01*
X166855990Y-88406589D01*
X166693475Y-88163368D01*
X166486632Y-87956525D01*
X166312240Y-87840000D01*
X166486632Y-87723475D01*
X166693475Y-87516632D01*
X166855990Y-87273411D01*
X166967932Y-87003158D01*
X167025000Y-86716260D01*
X167025000Y-86423740D01*
X166967932Y-86136842D01*
X166855990Y-85866589D01*
X166693475Y-85623368D01*
X166486632Y-85416525D01*
X166243411Y-85254010D01*
X165973158Y-85142068D01*
X165686260Y-85085000D01*
X165393740Y-85085000D01*
X165106842Y-85142068D01*
X164836589Y-85254010D01*
X164593368Y-85416525D01*
X164461513Y-85548380D01*
X164439502Y-85475820D01*
X164380537Y-85365506D01*
X164301185Y-85268815D01*
X164204494Y-85189463D01*
X164094180Y-85130498D01*
X163974482Y-85094188D01*
X163850000Y-85081928D01*
X162150000Y-85081928D01*
X162025518Y-85094188D01*
X161905820Y-85130498D01*
X161795506Y-85189463D01*
X161698815Y-85268815D01*
X161619463Y-85365506D01*
X161560498Y-85475820D01*
X161524188Y-85595518D01*
X161511928Y-85720000D01*
X160685000Y-85720000D01*
X160685000Y-76136493D01*
X165447110Y-76136493D01*
X165512550Y-76375290D01*
X165759410Y-76491120D01*
X166024124Y-76556564D01*
X166296519Y-76569107D01*
X166566127Y-76528268D01*
X166822587Y-76435615D01*
X166935446Y-76375290D01*
X167000886Y-76136493D01*
X166223998Y-75359605D01*
X165447110Y-76136493D01*
X160685000Y-76136493D01*
X160685000Y-75252521D01*
X164834891Y-75252521D01*
X164875730Y-75522129D01*
X164968383Y-75778589D01*
X165028708Y-75891448D01*
X165267505Y-75956888D01*
X166044393Y-75180000D01*
X166403603Y-75180000D01*
X167180491Y-75956888D01*
X167419288Y-75891448D01*
X167535118Y-75644588D01*
X167600562Y-75379874D01*
X167613105Y-75107479D01*
X167603438Y-75043658D01*
X168339699Y-75043658D01*
X168339699Y-75316342D01*
X168392897Y-75583785D01*
X168497248Y-75835712D01*
X168648743Y-76062440D01*
X168841559Y-76255256D01*
X169068287Y-76406751D01*
X169320214Y-76511102D01*
X169587657Y-76564300D01*
X169860341Y-76564300D01*
X170004770Y-76535571D01*
X181561701Y-88092503D01*
X181561700Y-93793177D01*
X181558024Y-93830500D01*
X181561700Y-93867822D01*
X181561700Y-93867832D01*
X181572697Y-93979485D01*
X181595720Y-94055383D01*
X181616154Y-94122746D01*
X181686726Y-94254776D01*
X181701274Y-94272502D01*
X181781699Y-94370501D01*
X181810703Y-94394304D01*
X182125096Y-94708697D01*
X182148899Y-94737701D01*
X182151808Y-94740089D01*
X182069068Y-94939842D01*
X182012000Y-95226740D01*
X182012000Y-95519260D01*
X182069068Y-95806158D01*
X182181010Y-96076411D01*
X182343525Y-96319632D01*
X182550368Y-96526475D01*
X182724760Y-96643000D01*
X182550368Y-96759525D01*
X182343525Y-96966368D01*
X182181010Y-97209589D01*
X182069068Y-97479842D01*
X182012000Y-97766740D01*
X182012000Y-98059260D01*
X182069068Y-98346158D01*
X182181010Y-98616411D01*
X182343525Y-98859632D01*
X182550368Y-99066475D01*
X182793589Y-99228990D01*
X183063842Y-99340932D01*
X183350740Y-99398000D01*
X183643260Y-99398000D01*
X183930158Y-99340932D01*
X184200411Y-99228990D01*
X184443632Y-99066475D01*
X184650475Y-98859632D01*
X184812990Y-98616411D01*
X184924932Y-98346158D01*
X184982000Y-98059260D01*
X184982000Y-97766740D01*
X184924932Y-97479842D01*
X184812990Y-97209589D01*
X184650475Y-96966368D01*
X184443632Y-96759525D01*
X184269240Y-96643000D01*
X184443632Y-96526475D01*
X184650475Y-96319632D01*
X184812990Y-96076411D01*
X184924932Y-95806158D01*
X184982000Y-95519260D01*
X184982000Y-95226740D01*
X184924932Y-94939842D01*
X184812990Y-94669589D01*
X184650475Y-94426368D01*
X184518620Y-94294513D01*
X184591180Y-94272502D01*
X184701494Y-94213537D01*
X184798185Y-94134185D01*
X184877537Y-94037494D01*
X184936502Y-93927180D01*
X184972812Y-93807482D01*
X184985072Y-93683000D01*
X184985072Y-91983000D01*
X186008928Y-91983000D01*
X186008928Y-93683000D01*
X186021188Y-93807482D01*
X186057498Y-93927180D01*
X186116463Y-94037494D01*
X186195815Y-94134185D01*
X186292506Y-94213537D01*
X186402820Y-94272502D01*
X186475380Y-94294513D01*
X186343525Y-94426368D01*
X186181010Y-94669589D01*
X186069068Y-94939842D01*
X186012000Y-95226740D01*
X186012000Y-95519260D01*
X186069068Y-95806158D01*
X186181010Y-96076411D01*
X186343525Y-96319632D01*
X186550368Y-96526475D01*
X186724760Y-96643000D01*
X186550368Y-96759525D01*
X186343525Y-96966368D01*
X186181010Y-97209589D01*
X186069068Y-97479842D01*
X186012000Y-97766740D01*
X186012000Y-98059260D01*
X186069068Y-98346158D01*
X186181010Y-98616411D01*
X186343525Y-98859632D01*
X186550368Y-99066475D01*
X186793589Y-99228990D01*
X187063842Y-99340932D01*
X187350740Y-99398000D01*
X187643260Y-99398000D01*
X187930158Y-99340932D01*
X188200411Y-99228990D01*
X188443632Y-99066475D01*
X188650475Y-98859632D01*
X188812990Y-98616411D01*
X188924932Y-98346158D01*
X188982000Y-98059260D01*
X188982000Y-97766740D01*
X188924932Y-97479842D01*
X188812990Y-97209589D01*
X188650475Y-96966368D01*
X188443632Y-96759525D01*
X188269240Y-96643000D01*
X188443632Y-96526475D01*
X188650475Y-96319632D01*
X188812990Y-96076411D01*
X188924932Y-95806158D01*
X188982000Y-95519260D01*
X188982000Y-95226740D01*
X188924932Y-94939842D01*
X188812990Y-94669589D01*
X188650475Y-94426368D01*
X188518620Y-94294513D01*
X188591180Y-94272502D01*
X188701494Y-94213537D01*
X188798185Y-94134185D01*
X188877537Y-94037494D01*
X188936502Y-93927180D01*
X188972812Y-93807482D01*
X188985072Y-93683000D01*
X188985072Y-91983000D01*
X190008928Y-91983000D01*
X190008928Y-93683000D01*
X190021188Y-93807482D01*
X190057498Y-93927180D01*
X190116463Y-94037494D01*
X190195815Y-94134185D01*
X190292506Y-94213537D01*
X190402820Y-94272502D01*
X190475380Y-94294513D01*
X190343525Y-94426368D01*
X190181010Y-94669589D01*
X190069068Y-94939842D01*
X190012000Y-95226740D01*
X190012000Y-95519260D01*
X190069068Y-95806158D01*
X190181010Y-96076411D01*
X190343525Y-96319632D01*
X190550368Y-96526475D01*
X190724760Y-96643000D01*
X190550368Y-96759525D01*
X190343525Y-96966368D01*
X190181010Y-97209589D01*
X190069068Y-97479842D01*
X190012000Y-97766740D01*
X190012000Y-98059260D01*
X190069068Y-98346158D01*
X190181010Y-98616411D01*
X190343525Y-98859632D01*
X190550368Y-99066475D01*
X190793589Y-99228990D01*
X191063842Y-99340932D01*
X191350740Y-99398000D01*
X191643260Y-99398000D01*
X191930158Y-99340932D01*
X192200411Y-99228990D01*
X192443632Y-99066475D01*
X192650475Y-98859632D01*
X192812990Y-98616411D01*
X192924932Y-98346158D01*
X192964980Y-98144821D01*
X199673106Y-98144821D01*
X199674207Y-98167471D01*
X199724207Y-98527471D01*
X199726792Y-98540802D01*
X199806792Y-98860802D01*
X199812339Y-98877800D01*
X199942339Y-99197800D01*
X199949550Y-99212688D01*
X200159550Y-99582688D01*
X200168820Y-99596757D01*
X200388820Y-99886757D01*
X200404304Y-99903730D01*
X200754304Y-100223730D01*
X200771324Y-100236830D01*
X201191324Y-100506830D01*
X201211914Y-100517544D01*
X201651914Y-100697544D01*
X201671854Y-100703842D01*
X202111854Y-100803842D01*
X202137178Y-100806969D01*
X202587178Y-100816969D01*
X202602332Y-100816400D01*
X203012332Y-100776400D01*
X203032177Y-100772856D01*
X203452177Y-100662856D01*
X203473220Y-100655311D01*
X203863220Y-100475311D01*
X203878183Y-100467145D01*
X204208183Y-100257145D01*
X204225283Y-100244105D01*
X204545283Y-99954105D01*
X204558293Y-99940421D01*
X204828293Y-99610421D01*
X204839700Y-99593992D01*
X205049700Y-99233992D01*
X205058465Y-99215771D01*
X205228465Y-98775771D01*
X205234757Y-98753763D01*
X205314757Y-98333763D01*
X205316971Y-98312702D01*
X205326971Y-97842702D01*
X205325523Y-97820689D01*
X205265523Y-97430689D01*
X205263425Y-97420079D01*
X205183425Y-97090079D01*
X205176352Y-97069096D01*
X205036352Y-96749096D01*
X205030864Y-96738047D01*
X204840864Y-96398047D01*
X204827564Y-96378697D01*
X204577564Y-96078697D01*
X204566761Y-96067256D01*
X204256761Y-95777256D01*
X204239214Y-95763518D01*
X203839214Y-95503518D01*
X203820747Y-95493580D01*
X203430747Y-95323580D01*
X203410802Y-95316792D01*
X202930802Y-95196792D01*
X202906041Y-95193144D01*
X202486041Y-95173144D01*
X202470732Y-95173339D01*
X202060732Y-95203339D01*
X202037942Y-95207113D01*
X201577942Y-95327113D01*
X201556440Y-95334846D01*
X201126440Y-95534846D01*
X201109553Y-95544330D01*
X200992728Y-95622213D01*
X200876008Y-95690300D01*
X200867170Y-95695958D01*
X200767170Y-95765958D01*
X200754571Y-95776028D01*
X200649010Y-95871992D01*
X200573800Y-95928400D01*
X200560197Y-95940197D01*
X200440197Y-96060197D01*
X200430830Y-96070664D01*
X200353140Y-96167777D01*
X200265602Y-96265041D01*
X200261707Y-96269579D01*
X200171707Y-96379579D01*
X200158982Y-96398323D01*
X200108982Y-96488323D01*
X200106408Y-96493204D01*
X200018593Y-96668834D01*
X199931098Y-96814659D01*
X199919517Y-96839839D01*
X199879939Y-96958573D01*
X199780399Y-97237285D01*
X199775724Y-97253837D01*
X199695724Y-97633837D01*
X199693106Y-97654821D01*
X199673106Y-98144821D01*
X192964980Y-98144821D01*
X192982000Y-98059260D01*
X192982000Y-97766740D01*
X192924932Y-97479842D01*
X192812990Y-97209589D01*
X192650475Y-96966368D01*
X192443632Y-96759525D01*
X192269240Y-96643000D01*
X192443632Y-96526475D01*
X192650475Y-96319632D01*
X192812990Y-96076411D01*
X192924932Y-95806158D01*
X192982000Y-95519260D01*
X192982000Y-95226740D01*
X192924932Y-94939842D01*
X192812990Y-94669589D01*
X192723645Y-94535874D01*
X221695881Y-94535874D01*
X221712554Y-94590864D01*
X221802877Y-94794206D01*
X221931135Y-94976020D01*
X222092399Y-95129318D01*
X222280471Y-95248210D01*
X222488124Y-95328126D01*
X222663000Y-95203129D01*
X222663000Y-94361000D01*
X222917000Y-94361000D01*
X222917000Y-95203129D01*
X223091876Y-95328126D01*
X223299529Y-95248210D01*
X223487601Y-95129318D01*
X223648865Y-94976020D01*
X223777123Y-94794206D01*
X223867446Y-94590864D01*
X223884119Y-94535874D01*
X224235881Y-94535874D01*
X224252554Y-94590864D01*
X224342877Y-94794206D01*
X224471135Y-94976020D01*
X224632399Y-95129318D01*
X224820471Y-95248210D01*
X225028124Y-95328126D01*
X225203000Y-95203129D01*
X225203000Y-94361000D01*
X225457000Y-94361000D01*
X225457000Y-95203129D01*
X225631876Y-95328126D01*
X225839529Y-95248210D01*
X226027601Y-95129318D01*
X226188865Y-94976020D01*
X226317123Y-94794206D01*
X226407446Y-94590864D01*
X226424119Y-94535874D01*
X226775881Y-94535874D01*
X226792554Y-94590864D01*
X226882877Y-94794206D01*
X227011135Y-94976020D01*
X227172399Y-95129318D01*
X227360471Y-95248210D01*
X227568124Y-95328126D01*
X227743000Y-95203129D01*
X227743000Y-94361000D01*
X227997000Y-94361000D01*
X227997000Y-95203129D01*
X228171876Y-95328126D01*
X228379529Y-95248210D01*
X228567601Y-95129318D01*
X228728865Y-94976020D01*
X228857123Y-94794206D01*
X228947446Y-94590864D01*
X228964119Y-94535874D01*
X229315881Y-94535874D01*
X229332554Y-94590864D01*
X229422877Y-94794206D01*
X229551135Y-94976020D01*
X229712399Y-95129318D01*
X229900471Y-95248210D01*
X230108124Y-95328126D01*
X230283000Y-95203129D01*
X230283000Y-94361000D01*
X230537000Y-94361000D01*
X230537000Y-95203129D01*
X230711876Y-95328126D01*
X230919529Y-95248210D01*
X231107601Y-95129318D01*
X231268865Y-94976020D01*
X231397123Y-94794206D01*
X231487446Y-94590864D01*
X231504119Y-94535874D01*
X231377954Y-94361000D01*
X230537000Y-94361000D01*
X230283000Y-94361000D01*
X229442046Y-94361000D01*
X229315881Y-94535874D01*
X228964119Y-94535874D01*
X228837954Y-94361000D01*
X227997000Y-94361000D01*
X227743000Y-94361000D01*
X226902046Y-94361000D01*
X226775881Y-94535874D01*
X226424119Y-94535874D01*
X226297954Y-94361000D01*
X225457000Y-94361000D01*
X225203000Y-94361000D01*
X224362046Y-94361000D01*
X224235881Y-94535874D01*
X223884119Y-94535874D01*
X223757954Y-94361000D01*
X222917000Y-94361000D01*
X222663000Y-94361000D01*
X221822046Y-94361000D01*
X221695881Y-94535874D01*
X192723645Y-94535874D01*
X192650475Y-94426368D01*
X192518620Y-94294513D01*
X192591180Y-94272502D01*
X192701494Y-94213537D01*
X192798185Y-94134185D01*
X192877537Y-94037494D01*
X192936502Y-93927180D01*
X192972812Y-93807482D01*
X192985072Y-93683000D01*
X192985072Y-91983000D01*
X192972812Y-91858518D01*
X192936502Y-91738820D01*
X192877537Y-91628506D01*
X192798185Y-91531815D01*
X192701494Y-91452463D01*
X192591180Y-91393498D01*
X192471482Y-91357188D01*
X192347000Y-91344928D01*
X190647000Y-91344928D01*
X190522518Y-91357188D01*
X190402820Y-91393498D01*
X190292506Y-91452463D01*
X190195815Y-91531815D01*
X190116463Y-91628506D01*
X190057498Y-91738820D01*
X190021188Y-91858518D01*
X190008928Y-91983000D01*
X188985072Y-91983000D01*
X188972812Y-91858518D01*
X188936502Y-91738820D01*
X188877537Y-91628506D01*
X188798185Y-91531815D01*
X188701494Y-91452463D01*
X188591180Y-91393498D01*
X188471482Y-91357188D01*
X188347000Y-91344928D01*
X186647000Y-91344928D01*
X186522518Y-91357188D01*
X186402820Y-91393498D01*
X186292506Y-91452463D01*
X186195815Y-91531815D01*
X186116463Y-91628506D01*
X186057498Y-91738820D01*
X186021188Y-91858518D01*
X186008928Y-91983000D01*
X184985072Y-91983000D01*
X184972812Y-91858518D01*
X184936502Y-91738820D01*
X184877537Y-91628506D01*
X184798185Y-91531815D01*
X184701494Y-91452463D01*
X184591180Y-91393498D01*
X184471482Y-91357188D01*
X184347000Y-91344928D01*
X183081700Y-91344928D01*
X183081700Y-91194000D01*
X221651928Y-91194000D01*
X221651928Y-92194000D01*
X221664188Y-92318482D01*
X221700498Y-92438180D01*
X221744888Y-92521226D01*
X221698617Y-92632933D01*
X221655000Y-92852212D01*
X221655000Y-93075788D01*
X221698617Y-93295067D01*
X221784176Y-93501624D01*
X221852353Y-93603658D01*
X221802877Y-93673794D01*
X221712554Y-93877136D01*
X221695881Y-93932126D01*
X221822046Y-94107000D01*
X222663000Y-94107000D01*
X222663000Y-94095974D01*
X222678212Y-94099000D01*
X222901788Y-94099000D01*
X222917000Y-94095974D01*
X222917000Y-94107000D01*
X223757954Y-94107000D01*
X223884119Y-93932126D01*
X223867446Y-93877136D01*
X223777123Y-93673794D01*
X223727647Y-93603658D01*
X223795824Y-93501624D01*
X223881383Y-93295067D01*
X223925000Y-93075788D01*
X223925000Y-92852212D01*
X223881383Y-92632933D01*
X223835112Y-92521226D01*
X223879502Y-92438180D01*
X223915812Y-92318482D01*
X223928072Y-92194000D01*
X223928072Y-91194000D01*
X224191928Y-91194000D01*
X224191928Y-92194000D01*
X224204188Y-92318482D01*
X224240498Y-92438180D01*
X224284888Y-92521226D01*
X224238617Y-92632933D01*
X224195000Y-92852212D01*
X224195000Y-93075788D01*
X224238617Y-93295067D01*
X224324176Y-93501624D01*
X224392353Y-93603658D01*
X224342877Y-93673794D01*
X224252554Y-93877136D01*
X224235881Y-93932126D01*
X224362046Y-94107000D01*
X225203000Y-94107000D01*
X225203000Y-94095974D01*
X225218212Y-94099000D01*
X225441788Y-94099000D01*
X225457000Y-94095974D01*
X225457000Y-94107000D01*
X226297954Y-94107000D01*
X226424119Y-93932126D01*
X226407446Y-93877136D01*
X226317123Y-93673794D01*
X226267647Y-93603658D01*
X226335824Y-93501624D01*
X226421383Y-93295067D01*
X226465000Y-93075788D01*
X226465000Y-92852212D01*
X226421383Y-92632933D01*
X226375112Y-92521226D01*
X226419502Y-92438180D01*
X226455812Y-92318482D01*
X226468072Y-92194000D01*
X226468072Y-91194000D01*
X226731928Y-91194000D01*
X226731928Y-92194000D01*
X226744188Y-92318482D01*
X226780498Y-92438180D01*
X226824888Y-92521226D01*
X226778617Y-92632933D01*
X226735000Y-92852212D01*
X226735000Y-93075788D01*
X226778617Y-93295067D01*
X226864176Y-93501624D01*
X226932353Y-93603658D01*
X226882877Y-93673794D01*
X226792554Y-93877136D01*
X226775881Y-93932126D01*
X226902046Y-94107000D01*
X227743000Y-94107000D01*
X227743000Y-94095974D01*
X227758212Y-94099000D01*
X227981788Y-94099000D01*
X227997000Y-94095974D01*
X227997000Y-94107000D01*
X228837954Y-94107000D01*
X228964119Y-93932126D01*
X228947446Y-93877136D01*
X228857123Y-93673794D01*
X228807647Y-93603658D01*
X228875824Y-93501624D01*
X228961383Y-93295067D01*
X229005000Y-93075788D01*
X229005000Y-92852212D01*
X228961383Y-92632933D01*
X228915112Y-92521226D01*
X228959502Y-92438180D01*
X228995812Y-92318482D01*
X229008072Y-92194000D01*
X229008072Y-91194000D01*
X229271928Y-91194000D01*
X229271928Y-92194000D01*
X229284188Y-92318482D01*
X229320498Y-92438180D01*
X229364888Y-92521226D01*
X229318617Y-92632933D01*
X229275000Y-92852212D01*
X229275000Y-93075788D01*
X229318617Y-93295067D01*
X229404176Y-93501624D01*
X229472353Y-93603658D01*
X229422877Y-93673794D01*
X229332554Y-93877136D01*
X229315881Y-93932126D01*
X229442046Y-94107000D01*
X230283000Y-94107000D01*
X230283000Y-94095974D01*
X230298212Y-94099000D01*
X230521788Y-94099000D01*
X230537000Y-94095974D01*
X230537000Y-94107000D01*
X231377954Y-94107000D01*
X231504119Y-93932126D01*
X231487446Y-93877136D01*
X231397123Y-93673794D01*
X231347647Y-93603658D01*
X231415824Y-93501624D01*
X231501383Y-93295067D01*
X231545000Y-93075788D01*
X231545000Y-92852212D01*
X231501383Y-92632933D01*
X231455112Y-92521226D01*
X231499502Y-92438180D01*
X231535812Y-92318482D01*
X231548072Y-92194000D01*
X231548072Y-91194000D01*
X231535812Y-91069518D01*
X231499502Y-90949820D01*
X231440537Y-90839506D01*
X231361185Y-90742815D01*
X231264494Y-90663463D01*
X231154180Y-90604498D01*
X231034482Y-90568188D01*
X230910000Y-90555928D01*
X229910000Y-90555928D01*
X229785518Y-90568188D01*
X229665820Y-90604498D01*
X229555506Y-90663463D01*
X229458815Y-90742815D01*
X229379463Y-90839506D01*
X229320498Y-90949820D01*
X229284188Y-91069518D01*
X229271928Y-91194000D01*
X229008072Y-91194000D01*
X228995812Y-91069518D01*
X228959502Y-90949820D01*
X228900537Y-90839506D01*
X228821185Y-90742815D01*
X228724494Y-90663463D01*
X228614180Y-90604498D01*
X228494482Y-90568188D01*
X228370000Y-90555928D01*
X227370000Y-90555928D01*
X227245518Y-90568188D01*
X227125820Y-90604498D01*
X227015506Y-90663463D01*
X226918815Y-90742815D01*
X226839463Y-90839506D01*
X226780498Y-90949820D01*
X226744188Y-91069518D01*
X226731928Y-91194000D01*
X226468072Y-91194000D01*
X226455812Y-91069518D01*
X226419502Y-90949820D01*
X226360537Y-90839506D01*
X226281185Y-90742815D01*
X226184494Y-90663463D01*
X226074180Y-90604498D01*
X225954482Y-90568188D01*
X225830000Y-90555928D01*
X224830000Y-90555928D01*
X224705518Y-90568188D01*
X224585820Y-90604498D01*
X224475506Y-90663463D01*
X224378815Y-90742815D01*
X224299463Y-90839506D01*
X224240498Y-90949820D01*
X224204188Y-91069518D01*
X224191928Y-91194000D01*
X223928072Y-91194000D01*
X223915812Y-91069518D01*
X223879502Y-90949820D01*
X223820537Y-90839506D01*
X223741185Y-90742815D01*
X223644494Y-90663463D01*
X223534180Y-90604498D01*
X223414482Y-90568188D01*
X223290000Y-90555928D01*
X222290000Y-90555928D01*
X222165518Y-90568188D01*
X222045820Y-90604498D01*
X221935506Y-90663463D01*
X221838815Y-90742815D01*
X221759463Y-90839506D01*
X221700498Y-90949820D01*
X221664188Y-91069518D01*
X221651928Y-91194000D01*
X183081700Y-91194000D01*
X183081700Y-87815022D01*
X183085376Y-87777699D01*
X183081700Y-87740376D01*
X183081700Y-87740367D01*
X183070703Y-87628714D01*
X183027246Y-87485453D01*
X182956674Y-87353424D01*
X182861701Y-87237699D01*
X182832703Y-87213901D01*
X182010863Y-86392061D01*
X221526400Y-86392061D01*
X221526400Y-86595939D01*
X221566174Y-86795898D01*
X221644195Y-86984256D01*
X221757463Y-87153774D01*
X221901626Y-87297937D01*
X222071144Y-87411205D01*
X222259502Y-87489226D01*
X222459461Y-87529000D01*
X222663339Y-87529000D01*
X222863298Y-87489226D01*
X223051656Y-87411205D01*
X223221174Y-87297937D01*
X223365337Y-87153774D01*
X223478605Y-86984256D01*
X223556626Y-86795898D01*
X223596400Y-86595939D01*
X223596400Y-86392061D01*
X223556626Y-86192102D01*
X223478605Y-86003744D01*
X223365337Y-85834226D01*
X223221174Y-85690063D01*
X223051656Y-85576795D01*
X222863298Y-85498774D01*
X222663339Y-85459000D01*
X222459461Y-85459000D01*
X222259502Y-85498774D01*
X222071144Y-85576795D01*
X221901626Y-85690063D01*
X221757463Y-85834226D01*
X221644195Y-86003744D01*
X221566174Y-86192102D01*
X221526400Y-86392061D01*
X182010863Y-86392061D01*
X175777163Y-80158361D01*
X232033000Y-80158361D01*
X232033000Y-80362239D01*
X232072774Y-80562198D01*
X232150795Y-80750556D01*
X232264063Y-80920074D01*
X232408226Y-81064237D01*
X232577744Y-81177505D01*
X232766102Y-81255526D01*
X232966061Y-81295300D01*
X233169939Y-81295300D01*
X233369898Y-81255526D01*
X233558256Y-81177505D01*
X233727774Y-81064237D01*
X233871937Y-80920074D01*
X233985205Y-80750556D01*
X234063226Y-80562198D01*
X234103000Y-80362239D01*
X234103000Y-80158361D01*
X234063226Y-79958402D01*
X233985205Y-79770044D01*
X233871937Y-79600526D01*
X233727774Y-79456363D01*
X233558256Y-79343095D01*
X233369898Y-79265074D01*
X233169939Y-79225300D01*
X232966061Y-79225300D01*
X232766102Y-79265074D01*
X232577744Y-79343095D01*
X232408226Y-79456363D01*
X232264063Y-79600526D01*
X232150795Y-79770044D01*
X232072774Y-79958402D01*
X232033000Y-80158361D01*
X175777163Y-80158361D01*
X171079570Y-75460769D01*
X171108299Y-75316342D01*
X171108299Y-75043658D01*
X171839699Y-75043658D01*
X171839699Y-75316342D01*
X171892897Y-75583785D01*
X171997248Y-75835712D01*
X172148743Y-76062440D01*
X172341559Y-76255256D01*
X172568287Y-76406751D01*
X172820214Y-76511102D01*
X173087657Y-76564300D01*
X173360341Y-76564300D01*
X173627784Y-76511102D01*
X173879711Y-76406751D01*
X174106439Y-76255256D01*
X174225202Y-76136493D01*
X175947112Y-76136493D01*
X176012552Y-76375290D01*
X176259412Y-76491120D01*
X176524126Y-76556564D01*
X176796521Y-76569107D01*
X177066129Y-76528268D01*
X177322589Y-76435615D01*
X177435448Y-76375290D01*
X177500888Y-76136493D01*
X176724000Y-75359605D01*
X175947112Y-76136493D01*
X174225202Y-76136493D01*
X174299255Y-76062440D01*
X174450750Y-75835712D01*
X174555101Y-75583785D01*
X174608299Y-75316342D01*
X174608299Y-75252521D01*
X175334893Y-75252521D01*
X175375732Y-75522129D01*
X175468385Y-75778589D01*
X175528710Y-75891448D01*
X175767507Y-75956888D01*
X176544395Y-75180000D01*
X176903605Y-75180000D01*
X177680493Y-75956888D01*
X177919290Y-75891448D01*
X178035120Y-75644588D01*
X178100564Y-75379874D01*
X178113107Y-75107479D01*
X178103440Y-75043658D01*
X181839698Y-75043658D01*
X181839698Y-75316342D01*
X181892896Y-75583785D01*
X181997247Y-75835712D01*
X182148742Y-76062440D01*
X182341558Y-76255256D01*
X182568286Y-76406751D01*
X182820213Y-76511102D01*
X183087656Y-76564300D01*
X183360340Y-76564300D01*
X183627783Y-76511102D01*
X183879710Y-76406751D01*
X184106438Y-76255256D01*
X184299254Y-76062440D01*
X184450749Y-75835712D01*
X184555100Y-75583785D01*
X184608298Y-75316342D01*
X184608298Y-75043658D01*
X185339699Y-75043658D01*
X185339699Y-75316342D01*
X185392897Y-75583785D01*
X185497248Y-75835712D01*
X185648743Y-76062440D01*
X185841559Y-76255256D01*
X186068287Y-76406751D01*
X186320214Y-76511102D01*
X186587657Y-76564300D01*
X186860341Y-76564300D01*
X187127784Y-76511102D01*
X187379711Y-76406751D01*
X187606439Y-76255256D01*
X187725202Y-76136493D01*
X189447111Y-76136493D01*
X189512551Y-76375290D01*
X189759411Y-76491120D01*
X190024125Y-76556564D01*
X190296520Y-76569107D01*
X190566128Y-76528268D01*
X190822588Y-76435615D01*
X190935447Y-76375290D01*
X191000887Y-76136493D01*
X190223999Y-75359605D01*
X189447111Y-76136493D01*
X187725202Y-76136493D01*
X187799255Y-76062440D01*
X187950750Y-75835712D01*
X188055101Y-75583785D01*
X188108299Y-75316342D01*
X188108299Y-75252521D01*
X188834892Y-75252521D01*
X188875731Y-75522129D01*
X188968384Y-75778589D01*
X189028709Y-75891448D01*
X189267506Y-75956888D01*
X190044394Y-75180000D01*
X190403604Y-75180000D01*
X191180492Y-75956888D01*
X191419289Y-75891448D01*
X191535119Y-75644588D01*
X191600563Y-75379874D01*
X191613106Y-75107479D01*
X191603439Y-75043658D01*
X192339700Y-75043658D01*
X192339700Y-75316342D01*
X192392898Y-75583785D01*
X192497249Y-75835712D01*
X192648744Y-76062440D01*
X192841560Y-76255256D01*
X193068288Y-76406751D01*
X193320215Y-76511102D01*
X193587658Y-76564300D01*
X193860342Y-76564300D01*
X194127785Y-76511102D01*
X194379712Y-76406751D01*
X194606440Y-76255256D01*
X194799256Y-76062440D01*
X194950751Y-75835712D01*
X195055102Y-75583785D01*
X195108300Y-75316342D01*
X195108300Y-75043658D01*
X198839698Y-75043658D01*
X198839698Y-75316342D01*
X198892896Y-75583785D01*
X198997247Y-75835712D01*
X199148742Y-76062440D01*
X199341558Y-76255256D01*
X199568286Y-76406751D01*
X199820213Y-76511102D01*
X200087656Y-76564300D01*
X200360340Y-76564300D01*
X200627783Y-76511102D01*
X200879710Y-76406751D01*
X201106438Y-76255256D01*
X201225201Y-76136493D01*
X202947111Y-76136493D01*
X203012551Y-76375290D01*
X203259411Y-76491120D01*
X203524125Y-76556564D01*
X203796520Y-76569107D01*
X204066128Y-76528268D01*
X204322588Y-76435615D01*
X204435447Y-76375290D01*
X204500887Y-76136493D01*
X203723999Y-75359605D01*
X202947111Y-76136493D01*
X201225201Y-76136493D01*
X201299254Y-76062440D01*
X201450749Y-75835712D01*
X201555100Y-75583785D01*
X201608298Y-75316342D01*
X201608298Y-75252521D01*
X202334892Y-75252521D01*
X202375731Y-75522129D01*
X202468384Y-75778589D01*
X202528709Y-75891448D01*
X202767506Y-75956888D01*
X203544394Y-75180000D01*
X203903604Y-75180000D01*
X204680492Y-75956888D01*
X204919289Y-75891448D01*
X205035119Y-75644588D01*
X205100563Y-75379874D01*
X205113106Y-75107479D01*
X205103439Y-75043658D01*
X205839699Y-75043658D01*
X205839699Y-75316342D01*
X205892897Y-75583785D01*
X205997248Y-75835712D01*
X206148743Y-76062440D01*
X206341559Y-76255256D01*
X206568287Y-76406751D01*
X206820214Y-76511102D01*
X207087657Y-76564300D01*
X207360341Y-76564300D01*
X207627784Y-76511102D01*
X207879711Y-76406751D01*
X208106439Y-76255256D01*
X208299255Y-76062440D01*
X208450750Y-75835712D01*
X208555101Y-75583785D01*
X208608299Y-75316342D01*
X208608299Y-75043658D01*
X209339700Y-75043658D01*
X209339700Y-75316342D01*
X209392898Y-75583785D01*
X209497249Y-75835712D01*
X209648744Y-76062440D01*
X209841560Y-76255256D01*
X210068288Y-76406751D01*
X210320215Y-76511102D01*
X210587658Y-76564300D01*
X210860342Y-76564300D01*
X211127785Y-76511102D01*
X211379712Y-76406751D01*
X211606440Y-76255256D01*
X211799256Y-76062440D01*
X211950751Y-75835712D01*
X212055102Y-75583785D01*
X212108300Y-75316342D01*
X212108300Y-75043658D01*
X212055102Y-74776215D01*
X211950751Y-74524288D01*
X211799256Y-74297560D01*
X211606440Y-74104744D01*
X211379712Y-73953249D01*
X211127785Y-73848898D01*
X210860342Y-73795700D01*
X210587658Y-73795700D01*
X210320215Y-73848898D01*
X210068288Y-73953249D01*
X209841560Y-74104744D01*
X209648744Y-74297560D01*
X209497249Y-74524288D01*
X209392898Y-74776215D01*
X209339700Y-75043658D01*
X208608299Y-75043658D01*
X208555101Y-74776215D01*
X208450750Y-74524288D01*
X208299255Y-74297560D01*
X208106439Y-74104744D01*
X207879711Y-73953249D01*
X207627784Y-73848898D01*
X207360341Y-73795700D01*
X207087657Y-73795700D01*
X206820214Y-73848898D01*
X206568287Y-73953249D01*
X206341559Y-74104744D01*
X206148743Y-74297560D01*
X205997248Y-74524288D01*
X205892897Y-74776215D01*
X205839699Y-75043658D01*
X205103439Y-75043658D01*
X205072267Y-74837871D01*
X204979614Y-74581411D01*
X204919289Y-74468552D01*
X204680492Y-74403112D01*
X203903604Y-75180000D01*
X203544394Y-75180000D01*
X202767506Y-74403112D01*
X202528709Y-74468552D01*
X202412879Y-74715412D01*
X202347435Y-74980126D01*
X202334892Y-75252521D01*
X201608298Y-75252521D01*
X201608298Y-75043658D01*
X201555100Y-74776215D01*
X201450749Y-74524288D01*
X201299254Y-74297560D01*
X201225201Y-74223507D01*
X202947111Y-74223507D01*
X203723999Y-75000395D01*
X204500887Y-74223507D01*
X204435447Y-73984710D01*
X204188587Y-73868880D01*
X203923873Y-73803436D01*
X203651478Y-73790893D01*
X203381870Y-73831732D01*
X203125410Y-73924385D01*
X203012551Y-73984710D01*
X202947111Y-74223507D01*
X201225201Y-74223507D01*
X201106438Y-74104744D01*
X200879710Y-73953249D01*
X200627783Y-73848898D01*
X200360340Y-73795700D01*
X200087656Y-73795700D01*
X199820213Y-73848898D01*
X199568286Y-73953249D01*
X199341558Y-74104744D01*
X199148742Y-74297560D01*
X198997247Y-74524288D01*
X198892896Y-74776215D01*
X198839698Y-75043658D01*
X195108300Y-75043658D01*
X195055102Y-74776215D01*
X194950751Y-74524288D01*
X194799256Y-74297560D01*
X194606440Y-74104744D01*
X194379712Y-73953249D01*
X194127785Y-73848898D01*
X193860342Y-73795700D01*
X193587658Y-73795700D01*
X193320215Y-73848898D01*
X193068288Y-73953249D01*
X192841560Y-74104744D01*
X192648744Y-74297560D01*
X192497249Y-74524288D01*
X192392898Y-74776215D01*
X192339700Y-75043658D01*
X191603439Y-75043658D01*
X191572267Y-74837871D01*
X191479614Y-74581411D01*
X191419289Y-74468552D01*
X191180492Y-74403112D01*
X190403604Y-75180000D01*
X190044394Y-75180000D01*
X189267506Y-74403112D01*
X189028709Y-74468552D01*
X188912879Y-74715412D01*
X188847435Y-74980126D01*
X188834892Y-75252521D01*
X188108299Y-75252521D01*
X188108299Y-75043658D01*
X188055101Y-74776215D01*
X187950750Y-74524288D01*
X187799255Y-74297560D01*
X187725202Y-74223507D01*
X189447111Y-74223507D01*
X190223999Y-75000395D01*
X191000887Y-74223507D01*
X190935447Y-73984710D01*
X190688587Y-73868880D01*
X190423873Y-73803436D01*
X190151478Y-73790893D01*
X189881870Y-73831732D01*
X189625410Y-73924385D01*
X189512551Y-73984710D01*
X189447111Y-74223507D01*
X187725202Y-74223507D01*
X187606439Y-74104744D01*
X187379711Y-73953249D01*
X187127784Y-73848898D01*
X186860341Y-73795700D01*
X186587657Y-73795700D01*
X186320214Y-73848898D01*
X186068287Y-73953249D01*
X185841559Y-74104744D01*
X185648743Y-74297560D01*
X185497248Y-74524288D01*
X185392897Y-74776215D01*
X185339699Y-75043658D01*
X184608298Y-75043658D01*
X184555100Y-74776215D01*
X184450749Y-74524288D01*
X184299254Y-74297560D01*
X184106438Y-74104744D01*
X183879710Y-73953249D01*
X183627783Y-73848898D01*
X183360340Y-73795700D01*
X183087656Y-73795700D01*
X182820213Y-73848898D01*
X182568286Y-73953249D01*
X182341558Y-74104744D01*
X182148742Y-74297560D01*
X181997247Y-74524288D01*
X181892896Y-74776215D01*
X181839698Y-75043658D01*
X178103440Y-75043658D01*
X178072268Y-74837871D01*
X177979615Y-74581411D01*
X177919290Y-74468552D01*
X177680493Y-74403112D01*
X176903605Y-75180000D01*
X176544395Y-75180000D01*
X175767507Y-74403112D01*
X175528710Y-74468552D01*
X175412880Y-74715412D01*
X175347436Y-74980126D01*
X175334893Y-75252521D01*
X174608299Y-75252521D01*
X174608299Y-75043658D01*
X174555101Y-74776215D01*
X174450750Y-74524288D01*
X174299255Y-74297560D01*
X174225202Y-74223507D01*
X175947112Y-74223507D01*
X176724000Y-75000395D01*
X177500888Y-74223507D01*
X177435448Y-73984710D01*
X177188588Y-73868880D01*
X176923874Y-73803436D01*
X176651479Y-73790893D01*
X176381871Y-73831732D01*
X176125411Y-73924385D01*
X176012552Y-73984710D01*
X175947112Y-74223507D01*
X174225202Y-74223507D01*
X174106439Y-74104744D01*
X173879711Y-73953249D01*
X173627784Y-73848898D01*
X173360341Y-73795700D01*
X173087657Y-73795700D01*
X172820214Y-73848898D01*
X172568287Y-73953249D01*
X172341559Y-74104744D01*
X172148743Y-74297560D01*
X171997248Y-74524288D01*
X171892897Y-74776215D01*
X171839699Y-75043658D01*
X171108299Y-75043658D01*
X171055101Y-74776215D01*
X170950750Y-74524288D01*
X170799255Y-74297560D01*
X170606439Y-74104744D01*
X170379711Y-73953249D01*
X170127784Y-73848898D01*
X169860341Y-73795700D01*
X169587657Y-73795700D01*
X169320214Y-73848898D01*
X169068287Y-73953249D01*
X168841559Y-74104744D01*
X168648743Y-74297560D01*
X168497248Y-74524288D01*
X168392897Y-74776215D01*
X168339699Y-75043658D01*
X167603438Y-75043658D01*
X167572266Y-74837871D01*
X167479613Y-74581411D01*
X167419288Y-74468552D01*
X167180491Y-74403112D01*
X166403603Y-75180000D01*
X166044393Y-75180000D01*
X165267505Y-74403112D01*
X165028708Y-74468552D01*
X164912878Y-74715412D01*
X164847434Y-74980126D01*
X164834891Y-75252521D01*
X160685000Y-75252521D01*
X160685000Y-74223507D01*
X165447110Y-74223507D01*
X166223998Y-75000395D01*
X167000886Y-74223507D01*
X166935446Y-73984710D01*
X166688586Y-73868880D01*
X166423872Y-73803436D01*
X166151477Y-73790893D01*
X165881869Y-73831732D01*
X165625409Y-73924385D01*
X165512550Y-73984710D01*
X165447110Y-74223507D01*
X160685000Y-74223507D01*
X160685000Y-73533504D01*
X160741834Y-72953869D01*
X160900441Y-72428538D01*
X161158064Y-71944020D01*
X161504889Y-71518769D01*
X161927711Y-71168980D01*
X162410414Y-70907984D01*
X162934628Y-70745713D01*
X163512271Y-70685000D01*
X241466496Y-70685000D01*
X242046131Y-70741834D01*
%TA.AperFunction,Conductor*%
D18*
G36*
X242046131Y-70741834D02*
G01*
X242571462Y-70900441D01*
X243055980Y-71158064D01*
X243481231Y-71504889D01*
X243831020Y-71927711D01*
X244092016Y-72410414D01*
X244254287Y-72934628D01*
X244315000Y-73512271D01*
X244315001Y-122466486D01*
X244258166Y-123046131D01*
X244099559Y-123571462D01*
X243841937Y-124055978D01*
X243495111Y-124481231D01*
X243072292Y-124831017D01*
X242589588Y-125092015D01*
X242065371Y-125254287D01*
X241487729Y-125315000D01*
X163533504Y-125315000D01*
X162953869Y-125258166D01*
X162428538Y-125099559D01*
X161944022Y-124841937D01*
X161518769Y-124495111D01*
X161168983Y-124072292D01*
X160907985Y-123589588D01*
X160745713Y-123065371D01*
X160698798Y-122619000D01*
X234604928Y-122619000D01*
X234604928Y-124319000D01*
X234617188Y-124443482D01*
X234653498Y-124563180D01*
X234712463Y-124673494D01*
X234791815Y-124770185D01*
X234888506Y-124849537D01*
X234998820Y-124908502D01*
X235118518Y-124944812D01*
X235243000Y-124957072D01*
X236943000Y-124957072D01*
X237067482Y-124944812D01*
X237187180Y-124908502D01*
X237297494Y-124849537D01*
X237394185Y-124770185D01*
X237473537Y-124673494D01*
X237532502Y-124563180D01*
X237554513Y-124490620D01*
X237686368Y-124622475D01*
X237929589Y-124784990D01*
X238199842Y-124896932D01*
X238486740Y-124954000D01*
X238779260Y-124954000D01*
X239066158Y-124896932D01*
X239336411Y-124784990D01*
X239579632Y-124622475D01*
X239786475Y-124415632D01*
X239903000Y-124241240D01*
X240019525Y-124415632D01*
X240226368Y-124622475D01*
X240469589Y-124784990D01*
X240739842Y-124896932D01*
X241026740Y-124954000D01*
X241319260Y-124954000D01*
X241606158Y-124896932D01*
X241876411Y-124784990D01*
X242119632Y-124622475D01*
X242326475Y-124415632D01*
X242488990Y-124172411D01*
X242600932Y-123902158D01*
X242658000Y-123615260D01*
X242658000Y-123322740D01*
X242600932Y-123035842D01*
X242488990Y-122765589D01*
X242326475Y-122522368D01*
X242119632Y-122315525D01*
X241943594Y-122197900D01*
X242173269Y-122026588D01*
X242368178Y-121810355D01*
X242517157Y-121560252D01*
X242614481Y-121285891D01*
X242493814Y-121056000D01*
X241300000Y-121056000D01*
X241300000Y-121076000D01*
X241046000Y-121076000D01*
X241046000Y-121056000D01*
X241026000Y-121056000D01*
X241026000Y-120802000D01*
X241046000Y-120802000D01*
X241046000Y-119608845D01*
X241300000Y-119608845D01*
X241300000Y-120802000D01*
X242493814Y-120802000D01*
X242614481Y-120572109D01*
X242517157Y-120297748D01*
X242368178Y-120047645D01*
X242173269Y-119831412D01*
X241939920Y-119657359D01*
X241677099Y-119532175D01*
X241529890Y-119487524D01*
X241300000Y-119608845D01*
X241046000Y-119608845D01*
X240816110Y-119487524D01*
X240668901Y-119532175D01*
X240406080Y-119657359D01*
X240172731Y-119831412D01*
X239977822Y-120047645D01*
X239908195Y-120164534D01*
X239786475Y-119982368D01*
X239579632Y-119775525D01*
X239336411Y-119613010D01*
X239066158Y-119501068D01*
X238779260Y-119444000D01*
X238486740Y-119444000D01*
X238199842Y-119501068D01*
X237929589Y-119613010D01*
X237686368Y-119775525D01*
X237479525Y-119982368D01*
X237363000Y-120156760D01*
X237246475Y-119982368D01*
X237039632Y-119775525D01*
X236796411Y-119613010D01*
X236526158Y-119501068D01*
X236239260Y-119444000D01*
X235946740Y-119444000D01*
X235659842Y-119501068D01*
X235389589Y-119613010D01*
X235146368Y-119775525D01*
X234939525Y-119982368D01*
X234777010Y-120225589D01*
X234665068Y-120495842D01*
X234608000Y-120782740D01*
X234608000Y-121075260D01*
X234665068Y-121362158D01*
X234777010Y-121632411D01*
X234939525Y-121875632D01*
X235071380Y-122007487D01*
X234998820Y-122029498D01*
X234888506Y-122088463D01*
X234791815Y-122167815D01*
X234712463Y-122264506D01*
X234653498Y-122374820D01*
X234617188Y-122494518D01*
X234604928Y-122619000D01*
X160698798Y-122619000D01*
X160685000Y-122487729D01*
X160685000Y-120894658D01*
X164223700Y-120894658D01*
X164223700Y-121167342D01*
X164276898Y-121434785D01*
X164381249Y-121686712D01*
X164532744Y-121913440D01*
X164725560Y-122106256D01*
X164952288Y-122257751D01*
X165204215Y-122362102D01*
X165471658Y-122415300D01*
X165744342Y-122415300D01*
X166011785Y-122362102D01*
X166263712Y-122257751D01*
X166490440Y-122106256D01*
X166683256Y-121913440D01*
X166834751Y-121686712D01*
X166939102Y-121434785D01*
X166992300Y-121167342D01*
X166992300Y-120894658D01*
X167723701Y-120894658D01*
X167723701Y-121167342D01*
X167776899Y-121434785D01*
X167881250Y-121686712D01*
X168032745Y-121913440D01*
X168225561Y-122106256D01*
X168452289Y-122257751D01*
X168704216Y-122362102D01*
X168971659Y-122415300D01*
X169244343Y-122415300D01*
X169511786Y-122362102D01*
X169763713Y-122257751D01*
X169990441Y-122106256D01*
X170109204Y-121987493D01*
X171831113Y-121987493D01*
X171896553Y-122226290D01*
X172143413Y-122342120D01*
X172408127Y-122407564D01*
X172680522Y-122420107D01*
X172950130Y-122379268D01*
X173206590Y-122286615D01*
X173319449Y-122226290D01*
X173384889Y-121987493D01*
X172608001Y-121210605D01*
X171831113Y-121987493D01*
X170109204Y-121987493D01*
X170183257Y-121913440D01*
X170334752Y-121686712D01*
X170439103Y-121434785D01*
X170492301Y-121167342D01*
X170492301Y-121103521D01*
X171218894Y-121103521D01*
X171259733Y-121373129D01*
X171352386Y-121629589D01*
X171412711Y-121742448D01*
X171651508Y-121807888D01*
X172428396Y-121031000D01*
X172787606Y-121031000D01*
X173564494Y-121807888D01*
X173803291Y-121742448D01*
X173919121Y-121495588D01*
X173984565Y-121230874D01*
X173997108Y-120958479D01*
X173987441Y-120894658D01*
X174723702Y-120894658D01*
X174723702Y-121167342D01*
X174776900Y-121434785D01*
X174881251Y-121686712D01*
X175032746Y-121913440D01*
X175225562Y-122106256D01*
X175452290Y-122257751D01*
X175704217Y-122362102D01*
X175971660Y-122415300D01*
X176244344Y-122415300D01*
X176511787Y-122362102D01*
X176763714Y-122257751D01*
X176990442Y-122106256D01*
X177183258Y-121913440D01*
X177334753Y-121686712D01*
X177439104Y-121434785D01*
X177492302Y-121167342D01*
X177492302Y-120894658D01*
X181241700Y-120894658D01*
X181241700Y-121167342D01*
X181294898Y-121434785D01*
X181399249Y-121686712D01*
X181550744Y-121913440D01*
X181743560Y-122106256D01*
X181970288Y-122257751D01*
X182222215Y-122362102D01*
X182489658Y-122415300D01*
X182762342Y-122415300D01*
X183029785Y-122362102D01*
X183281712Y-122257751D01*
X183508440Y-122106256D01*
X183627203Y-121987493D01*
X185349113Y-121987493D01*
X185414553Y-122226290D01*
X185661413Y-122342120D01*
X185926127Y-122407564D01*
X186198522Y-122420107D01*
X186468130Y-122379268D01*
X186724590Y-122286615D01*
X186837449Y-122226290D01*
X186902889Y-121987493D01*
X186126001Y-121210605D01*
X185349113Y-121987493D01*
X183627203Y-121987493D01*
X183701256Y-121913440D01*
X183852751Y-121686712D01*
X183957102Y-121434785D01*
X184010300Y-121167342D01*
X184010300Y-121103521D01*
X184736894Y-121103521D01*
X184777733Y-121373129D01*
X184870386Y-121629589D01*
X184930711Y-121742448D01*
X185169508Y-121807888D01*
X185946396Y-121031000D01*
X186305606Y-121031000D01*
X187082494Y-121807888D01*
X187321291Y-121742448D01*
X187437121Y-121495588D01*
X187502565Y-121230874D01*
X187515108Y-120958479D01*
X187505441Y-120894658D01*
X188241701Y-120894658D01*
X188241701Y-121167342D01*
X188294899Y-121434785D01*
X188399250Y-121686712D01*
X188550745Y-121913440D01*
X188743561Y-122106256D01*
X188970289Y-122257751D01*
X189222216Y-122362102D01*
X189489659Y-122415300D01*
X189762343Y-122415300D01*
X190029786Y-122362102D01*
X190281713Y-122257751D01*
X190508441Y-122106256D01*
X190701257Y-121913440D01*
X190852752Y-121686712D01*
X190957103Y-121434785D01*
X191010301Y-121167342D01*
X191010301Y-120894658D01*
X191741702Y-120894658D01*
X191741702Y-121167342D01*
X191794900Y-121434785D01*
X191899251Y-121686712D01*
X192050746Y-121913440D01*
X192243562Y-122106256D01*
X192470290Y-122257751D01*
X192722217Y-122362102D01*
X192989660Y-122415300D01*
X193262344Y-122415300D01*
X193529787Y-122362102D01*
X193781714Y-122257751D01*
X194008442Y-122106256D01*
X194127205Y-121987493D01*
X199121112Y-121987493D01*
X199186552Y-122226290D01*
X199433412Y-122342120D01*
X199698126Y-122407564D01*
X199970521Y-122420107D01*
X200240129Y-122379268D01*
X200496589Y-122286615D01*
X200609448Y-122226290D01*
X200674888Y-121987493D01*
X199898000Y-121210605D01*
X199121112Y-121987493D01*
X194127205Y-121987493D01*
X194201258Y-121913440D01*
X194352753Y-121686712D01*
X194457104Y-121434785D01*
X194510302Y-121167342D01*
X194510302Y-121103521D01*
X198508893Y-121103521D01*
X198549732Y-121373129D01*
X198642385Y-121629589D01*
X198702710Y-121742448D01*
X198941507Y-121807888D01*
X199718395Y-121031000D01*
X200077605Y-121031000D01*
X200854493Y-121807888D01*
X201093290Y-121742448D01*
X201209120Y-121495588D01*
X201274564Y-121230874D01*
X201287107Y-120958479D01*
X201277440Y-120894658D01*
X202013701Y-120894658D01*
X202013701Y-121167342D01*
X202066899Y-121434785D01*
X202171250Y-121686712D01*
X202322745Y-121913440D01*
X202515561Y-122106256D01*
X202742289Y-122257751D01*
X202994216Y-122362102D01*
X203261659Y-122415300D01*
X203534343Y-122415300D01*
X203801786Y-122362102D01*
X204053713Y-122257751D01*
X204280441Y-122106256D01*
X204473257Y-121913440D01*
X204624752Y-121686712D01*
X204729103Y-121434785D01*
X204782301Y-121167342D01*
X204782301Y-120894658D01*
X205513701Y-120894658D01*
X205513701Y-121167342D01*
X205566899Y-121434785D01*
X205671250Y-121686712D01*
X205822745Y-121913440D01*
X206015561Y-122106256D01*
X206242289Y-122257751D01*
X206494216Y-122362102D01*
X206761659Y-122415300D01*
X207034343Y-122415300D01*
X207301786Y-122362102D01*
X207553713Y-122257751D01*
X207780441Y-122106256D01*
X207899204Y-121987493D01*
X209621114Y-121987493D01*
X209686554Y-122226290D01*
X209933414Y-122342120D01*
X210198128Y-122407564D01*
X210470523Y-122420107D01*
X210740131Y-122379268D01*
X210996591Y-122286615D01*
X211109450Y-122226290D01*
X211174890Y-121987493D01*
X210398002Y-121210605D01*
X209621114Y-121987493D01*
X207899204Y-121987493D01*
X207973257Y-121913440D01*
X208124752Y-121686712D01*
X208229103Y-121434785D01*
X208282301Y-121167342D01*
X208282301Y-121103521D01*
X209008895Y-121103521D01*
X209049734Y-121373129D01*
X209142387Y-121629589D01*
X209202712Y-121742448D01*
X209441509Y-121807888D01*
X210218397Y-121031000D01*
X210577607Y-121031000D01*
X211354495Y-121807888D01*
X211593292Y-121742448D01*
X211709122Y-121495588D01*
X211774566Y-121230874D01*
X211778908Y-121136561D01*
X224782200Y-121136561D01*
X224782200Y-121340439D01*
X224821974Y-121540398D01*
X224899995Y-121728756D01*
X225013263Y-121898274D01*
X225157426Y-122042437D01*
X225326944Y-122155705D01*
X225515302Y-122233726D01*
X225715261Y-122273500D01*
X225919139Y-122273500D01*
X226119098Y-122233726D01*
X226307456Y-122155705D01*
X226476974Y-122042437D01*
X226621137Y-121898274D01*
X226734405Y-121728756D01*
X226812426Y-121540398D01*
X226852200Y-121340439D01*
X226852200Y-121136561D01*
X226812426Y-120936602D01*
X226734405Y-120748244D01*
X226621137Y-120578726D01*
X226476974Y-120434563D01*
X226307456Y-120321295D01*
X226119098Y-120243274D01*
X225919139Y-120203500D01*
X225715261Y-120203500D01*
X225515302Y-120243274D01*
X225326944Y-120321295D01*
X225157426Y-120434563D01*
X225013263Y-120578726D01*
X224899995Y-120748244D01*
X224821974Y-120936602D01*
X224782200Y-121136561D01*
X211778908Y-121136561D01*
X211787109Y-120958479D01*
X211746270Y-120688871D01*
X211653617Y-120432411D01*
X211593292Y-120319552D01*
X211354495Y-120254112D01*
X210577607Y-121031000D01*
X210218397Y-121031000D01*
X209441509Y-120254112D01*
X209202712Y-120319552D01*
X209086882Y-120566412D01*
X209021438Y-120831126D01*
X209008895Y-121103521D01*
X208282301Y-121103521D01*
X208282301Y-120894658D01*
X208229103Y-120627215D01*
X208124752Y-120375288D01*
X207973257Y-120148560D01*
X207899204Y-120074507D01*
X209621114Y-120074507D01*
X210398002Y-120851395D01*
X211174890Y-120074507D01*
X211109450Y-119835710D01*
X210862590Y-119719880D01*
X210597876Y-119654436D01*
X210325481Y-119641893D01*
X210055873Y-119682732D01*
X209799413Y-119775385D01*
X209686554Y-119835710D01*
X209621114Y-120074507D01*
X207899204Y-120074507D01*
X207780441Y-119955744D01*
X207553713Y-119804249D01*
X207301786Y-119699898D01*
X207034343Y-119646700D01*
X206761659Y-119646700D01*
X206494216Y-119699898D01*
X206242289Y-119804249D01*
X206015561Y-119955744D01*
X205822745Y-120148560D01*
X205671250Y-120375288D01*
X205566899Y-120627215D01*
X205513701Y-120894658D01*
X204782301Y-120894658D01*
X204729103Y-120627215D01*
X204624752Y-120375288D01*
X204473257Y-120148560D01*
X204280441Y-119955744D01*
X204053713Y-119804249D01*
X203801786Y-119699898D01*
X203534343Y-119646700D01*
X203261659Y-119646700D01*
X202994216Y-119699898D01*
X202742289Y-119804249D01*
X202515561Y-119955744D01*
X202322745Y-120148560D01*
X202171250Y-120375288D01*
X202066899Y-120627215D01*
X202013701Y-120894658D01*
X201277440Y-120894658D01*
X201246268Y-120688871D01*
X201153615Y-120432411D01*
X201093290Y-120319552D01*
X200854493Y-120254112D01*
X200077605Y-121031000D01*
X199718395Y-121031000D01*
X198941507Y-120254112D01*
X198702710Y-120319552D01*
X198586880Y-120566412D01*
X198521436Y-120831126D01*
X198508893Y-121103521D01*
X194510302Y-121103521D01*
X194510302Y-120894658D01*
X194457104Y-120627215D01*
X194352753Y-120375288D01*
X194201258Y-120148560D01*
X194127205Y-120074507D01*
X199121112Y-120074507D01*
X199898000Y-120851395D01*
X200674888Y-120074507D01*
X200609448Y-119835710D01*
X200362588Y-119719880D01*
X200097874Y-119654436D01*
X199825479Y-119641893D01*
X199555871Y-119682732D01*
X199299411Y-119775385D01*
X199186552Y-119835710D01*
X199121112Y-120074507D01*
X194127205Y-120074507D01*
X194008442Y-119955744D01*
X193781714Y-119804249D01*
X193529787Y-119699898D01*
X193262344Y-119646700D01*
X192989660Y-119646700D01*
X192722217Y-119699898D01*
X192470290Y-119804249D01*
X192243562Y-119955744D01*
X192050746Y-120148560D01*
X191899251Y-120375288D01*
X191794900Y-120627215D01*
X191741702Y-120894658D01*
X191010301Y-120894658D01*
X190957103Y-120627215D01*
X190852752Y-120375288D01*
X190701257Y-120148560D01*
X190508441Y-119955744D01*
X190281713Y-119804249D01*
X190029786Y-119699898D01*
X189762343Y-119646700D01*
X189489659Y-119646700D01*
X189222216Y-119699898D01*
X188970289Y-119804249D01*
X188743561Y-119955744D01*
X188550745Y-120148560D01*
X188399250Y-120375288D01*
X188294899Y-120627215D01*
X188241701Y-120894658D01*
X187505441Y-120894658D01*
X187474269Y-120688871D01*
X187381616Y-120432411D01*
X187321291Y-120319552D01*
X187082494Y-120254112D01*
X186305606Y-121031000D01*
X185946396Y-121031000D01*
X185169508Y-120254112D01*
X184930711Y-120319552D01*
X184814881Y-120566412D01*
X184749437Y-120831126D01*
X184736894Y-121103521D01*
X184010300Y-121103521D01*
X184010300Y-120894658D01*
X183957102Y-120627215D01*
X183852751Y-120375288D01*
X183701256Y-120148560D01*
X183627203Y-120074507D01*
X185349113Y-120074507D01*
X186126001Y-120851395D01*
X186902889Y-120074507D01*
X186837449Y-119835710D01*
X186590589Y-119719880D01*
X186325875Y-119654436D01*
X186053480Y-119641893D01*
X185783872Y-119682732D01*
X185527412Y-119775385D01*
X185414553Y-119835710D01*
X185349113Y-120074507D01*
X183627203Y-120074507D01*
X183508440Y-119955744D01*
X183281712Y-119804249D01*
X183029785Y-119699898D01*
X182762342Y-119646700D01*
X182489658Y-119646700D01*
X182222215Y-119699898D01*
X181970288Y-119804249D01*
X181743560Y-119955744D01*
X181550744Y-120148560D01*
X181399249Y-120375288D01*
X181294898Y-120627215D01*
X181241700Y-120894658D01*
X177492302Y-120894658D01*
X177439104Y-120627215D01*
X177334753Y-120375288D01*
X177183258Y-120148560D01*
X176990442Y-119955744D01*
X176763714Y-119804249D01*
X176511787Y-119699898D01*
X176244344Y-119646700D01*
X175971660Y-119646700D01*
X175704217Y-119699898D01*
X175452290Y-119804249D01*
X175225562Y-119955744D01*
X175032746Y-120148560D01*
X174881251Y-120375288D01*
X174776900Y-120627215D01*
X174723702Y-120894658D01*
X173987441Y-120894658D01*
X173956269Y-120688871D01*
X173863616Y-120432411D01*
X173803291Y-120319552D01*
X173564494Y-120254112D01*
X172787606Y-121031000D01*
X172428396Y-121031000D01*
X171651508Y-120254112D01*
X171412711Y-120319552D01*
X171296881Y-120566412D01*
X171231437Y-120831126D01*
X171218894Y-121103521D01*
X170492301Y-121103521D01*
X170492301Y-120894658D01*
X170439103Y-120627215D01*
X170334752Y-120375288D01*
X170183257Y-120148560D01*
X170109204Y-120074507D01*
X171831113Y-120074507D01*
X172608001Y-120851395D01*
X173384889Y-120074507D01*
X173319449Y-119835710D01*
X173072589Y-119719880D01*
X172807875Y-119654436D01*
X172535480Y-119641893D01*
X172265872Y-119682732D01*
X172009412Y-119775385D01*
X171896553Y-119835710D01*
X171831113Y-120074507D01*
X170109204Y-120074507D01*
X169990441Y-119955744D01*
X169763713Y-119804249D01*
X169511786Y-119699898D01*
X169244343Y-119646700D01*
X168971659Y-119646700D01*
X168704216Y-119699898D01*
X168452289Y-119804249D01*
X168225561Y-119955744D01*
X168032745Y-120148560D01*
X167881250Y-120375288D01*
X167776899Y-120627215D01*
X167723701Y-120894658D01*
X166992300Y-120894658D01*
X166939102Y-120627215D01*
X166834751Y-120375288D01*
X166683256Y-120148560D01*
X166490440Y-119955744D01*
X166263712Y-119804249D01*
X166011785Y-119699898D01*
X165744342Y-119646700D01*
X165471658Y-119646700D01*
X165204215Y-119699898D01*
X164952288Y-119804249D01*
X164725560Y-119955744D01*
X164532744Y-120148560D01*
X164381249Y-120375288D01*
X164276898Y-120627215D01*
X164223700Y-120894658D01*
X160685000Y-120894658D01*
X160685000Y-115065661D01*
X222310000Y-115065661D01*
X222310000Y-115269539D01*
X222349774Y-115469498D01*
X222427795Y-115657856D01*
X222541063Y-115827374D01*
X222685226Y-115971537D01*
X222854744Y-116084805D01*
X223043102Y-116162826D01*
X223101547Y-116174451D01*
X223176895Y-116356356D01*
X223290163Y-116525874D01*
X223434326Y-116670037D01*
X223603844Y-116783305D01*
X223792202Y-116861326D01*
X223992161Y-116901100D01*
X224196039Y-116901100D01*
X224395998Y-116861326D01*
X224584356Y-116783305D01*
X224753874Y-116670037D01*
X224898037Y-116525874D01*
X225011305Y-116356356D01*
X225089326Y-116167998D01*
X225129100Y-115968039D01*
X225129100Y-115764161D01*
X225089326Y-115564202D01*
X225011305Y-115375844D01*
X224898037Y-115206326D01*
X224753874Y-115062163D01*
X224584356Y-114948895D01*
X224395998Y-114870874D01*
X224337553Y-114859249D01*
X224262205Y-114677344D01*
X224148937Y-114507826D01*
X224004774Y-114363663D01*
X223835256Y-114250395D01*
X223646898Y-114172374D01*
X223446939Y-114132600D01*
X223243061Y-114132600D01*
X223043102Y-114172374D01*
X222854744Y-114250395D01*
X222685226Y-114363663D01*
X222541063Y-114507826D01*
X222427795Y-114677344D01*
X222349774Y-114865702D01*
X222310000Y-115065661D01*
X160685000Y-115065661D01*
X160685000Y-114072971D01*
X226541590Y-114072971D01*
X226541590Y-114276849D01*
X226581364Y-114476808D01*
X226659385Y-114665166D01*
X226772653Y-114834684D01*
X226916816Y-114978847D01*
X227086334Y-115092115D01*
X227274692Y-115170136D01*
X227474651Y-115209910D01*
X227569679Y-115209910D01*
X227526263Y-115253326D01*
X227412995Y-115422844D01*
X227334974Y-115611202D01*
X227295200Y-115811161D01*
X227295200Y-116015039D01*
X227334974Y-116214998D01*
X227412995Y-116403356D01*
X227526263Y-116572874D01*
X227670426Y-116717037D01*
X227839944Y-116830305D01*
X228028302Y-116908326D01*
X228228261Y-116948100D01*
X228432139Y-116948100D01*
X228632098Y-116908326D01*
X228820456Y-116830305D01*
X228989974Y-116717037D01*
X229134137Y-116572874D01*
X229247405Y-116403356D01*
X229325426Y-116214998D01*
X229365200Y-116015039D01*
X229365200Y-115811161D01*
X229325426Y-115611202D01*
X229247405Y-115422844D01*
X229160782Y-115293203D01*
X229344256Y-115217205D01*
X229513774Y-115103937D01*
X229657937Y-114959774D01*
X229771205Y-114790256D01*
X229849226Y-114601898D01*
X229889000Y-114401939D01*
X229889000Y-114198061D01*
X229849226Y-113998102D01*
X229771205Y-113809744D01*
X229657937Y-113640226D01*
X229513774Y-113496063D01*
X229441261Y-113447611D01*
X231998450Y-113447611D01*
X231998450Y-113651489D01*
X232038224Y-113851448D01*
X232116245Y-114039806D01*
X232229513Y-114209324D01*
X232373676Y-114353487D01*
X232543194Y-114466755D01*
X232731552Y-114544776D01*
X232931511Y-114584550D01*
X233135389Y-114584550D01*
X233335348Y-114544776D01*
X233523706Y-114466755D01*
X233693224Y-114353487D01*
X233837387Y-114209324D01*
X233950655Y-114039806D01*
X234028676Y-113851448D01*
X234068450Y-113651489D01*
X234068450Y-113447611D01*
X234028676Y-113247652D01*
X233950655Y-113059294D01*
X233837387Y-112889776D01*
X233693224Y-112745613D01*
X233523706Y-112632345D01*
X233335348Y-112554324D01*
X233135389Y-112514550D01*
X232931511Y-112514550D01*
X232731552Y-112554324D01*
X232543194Y-112632345D01*
X232373676Y-112745613D01*
X232229513Y-112889776D01*
X232116245Y-113059294D01*
X232038224Y-113247652D01*
X231998450Y-113447611D01*
X229441261Y-113447611D01*
X229344256Y-113382795D01*
X229155898Y-113304774D01*
X228955939Y-113265000D01*
X228752061Y-113265000D01*
X228552102Y-113304774D01*
X228363744Y-113382795D01*
X228294472Y-113429081D01*
X228236364Y-113370973D01*
X228066846Y-113257705D01*
X227878488Y-113179684D01*
X227678529Y-113139910D01*
X227474651Y-113139910D01*
X227274692Y-113179684D01*
X227086334Y-113257705D01*
X226916816Y-113370973D01*
X226772653Y-113515136D01*
X226659385Y-113684654D01*
X226581364Y-113873012D01*
X226541590Y-114072971D01*
X160685000Y-114072971D01*
X160685000Y-85720000D01*
X161511928Y-85720000D01*
X161511928Y-87420000D01*
X161524188Y-87544482D01*
X161560498Y-87664180D01*
X161619463Y-87774494D01*
X161698815Y-87871185D01*
X161795506Y-87950537D01*
X161905820Y-88009502D01*
X161978380Y-88031513D01*
X161846525Y-88163368D01*
X161684010Y-88406589D01*
X161572068Y-88676842D01*
X161515000Y-88963740D01*
X161515000Y-89256260D01*
X161572068Y-89543158D01*
X161684010Y-89813411D01*
X161846525Y-90056632D01*
X162053368Y-90263475D01*
X162227760Y-90380000D01*
X162053368Y-90496525D01*
X161846525Y-90703368D01*
X161684010Y-90946589D01*
X161572068Y-91216842D01*
X161515000Y-91503740D01*
X161515000Y-91796260D01*
X161572068Y-92083158D01*
X161684010Y-92353411D01*
X161846525Y-92596632D01*
X162053368Y-92803475D01*
X162227760Y-92920000D01*
X162053368Y-93036525D01*
X161846525Y-93243368D01*
X161684010Y-93486589D01*
X161572068Y-93756842D01*
X161515000Y-94043740D01*
X161515000Y-94336260D01*
X161572068Y-94623158D01*
X161684010Y-94893411D01*
X161846525Y-95136632D01*
X162053368Y-95343475D01*
X162235534Y-95465195D01*
X162118645Y-95534822D01*
X161902412Y-95729731D01*
X161728359Y-95963080D01*
X161603175Y-96225901D01*
X161558524Y-96373110D01*
X161679845Y-96603000D01*
X162873000Y-96603000D01*
X162873000Y-96583000D01*
X163127000Y-96583000D01*
X163127000Y-96603000D01*
X163147000Y-96603000D01*
X163147000Y-96857000D01*
X163127000Y-96857000D01*
X163127000Y-96877000D01*
X162873000Y-96877000D01*
X162873000Y-96857000D01*
X161679845Y-96857000D01*
X161558524Y-97086890D01*
X161603175Y-97234099D01*
X161728359Y-97496920D01*
X161902412Y-97730269D01*
X162118645Y-97925178D01*
X162235534Y-97994805D01*
X162053368Y-98116525D01*
X161846525Y-98323368D01*
X161684010Y-98566589D01*
X161572068Y-98836842D01*
X161515000Y-99123740D01*
X161515000Y-99416260D01*
X161572068Y-99703158D01*
X161684010Y-99973411D01*
X161846525Y-100216632D01*
X162053368Y-100423475D01*
X162227760Y-100540000D01*
X162053368Y-100656525D01*
X161846525Y-100863368D01*
X161684010Y-101106589D01*
X161572068Y-101376842D01*
X161515000Y-101663740D01*
X161515000Y-101956260D01*
X161572068Y-102243158D01*
X161684010Y-102513411D01*
X161846525Y-102756632D01*
X162053368Y-102963475D01*
X162227760Y-103080000D01*
X162053368Y-103196525D01*
X161846525Y-103403368D01*
X161684010Y-103646589D01*
X161572068Y-103916842D01*
X161515000Y-104203740D01*
X161515000Y-104496260D01*
X161572068Y-104783158D01*
X161684010Y-105053411D01*
X161846525Y-105296632D01*
X162053368Y-105503475D01*
X162227760Y-105620000D01*
X162053368Y-105736525D01*
X161846525Y-105943368D01*
X161684010Y-106186589D01*
X161572068Y-106456842D01*
X161515000Y-106743740D01*
X161515000Y-107036260D01*
X161572068Y-107323158D01*
X161684010Y-107593411D01*
X161846525Y-107836632D01*
X162053368Y-108043475D01*
X162227760Y-108160000D01*
X162053368Y-108276525D01*
X161846525Y-108483368D01*
X161684010Y-108726589D01*
X161572068Y-108996842D01*
X161515000Y-109283740D01*
X161515000Y-109576260D01*
X161572068Y-109863158D01*
X161684010Y-110133411D01*
X161846525Y-110376632D01*
X162053368Y-110583475D01*
X162296589Y-110745990D01*
X162566842Y-110857932D01*
X162853740Y-110915000D01*
X163146260Y-110915000D01*
X163433158Y-110857932D01*
X163703411Y-110745990D01*
X163946632Y-110583475D01*
X164153475Y-110376632D01*
X164271100Y-110200594D01*
X164442412Y-110430269D01*
X164658645Y-110625178D01*
X164908748Y-110774157D01*
X165183109Y-110871481D01*
X165413000Y-110750814D01*
X165413000Y-109557000D01*
X165667000Y-109557000D01*
X165667000Y-110750814D01*
X165896891Y-110871481D01*
X166171252Y-110774157D01*
X166421355Y-110625178D01*
X166637588Y-110430269D01*
X166811641Y-110196920D01*
X166936825Y-109934099D01*
X166981476Y-109786890D01*
X166860155Y-109557000D01*
X165667000Y-109557000D01*
X165413000Y-109557000D01*
X165393000Y-109557000D01*
X165393000Y-109303000D01*
X165413000Y-109303000D01*
X165413000Y-109283000D01*
X165667000Y-109283000D01*
X165667000Y-109303000D01*
X166860155Y-109303000D01*
X166981476Y-109073110D01*
X166936825Y-108925901D01*
X166811641Y-108663080D01*
X166637588Y-108429731D01*
X166421355Y-108234822D01*
X166304466Y-108165195D01*
X166486632Y-108043475D01*
X166693475Y-107836632D01*
X166855990Y-107593411D01*
X166917398Y-107445158D01*
X223622073Y-107445158D01*
X223622073Y-107649036D01*
X223661847Y-107848995D01*
X223739868Y-108037353D01*
X223853136Y-108206871D01*
X223997299Y-108351034D01*
X224166817Y-108464302D01*
X224355175Y-108542323D01*
X224555134Y-108582097D01*
X224759012Y-108582097D01*
X224958971Y-108542323D01*
X225147329Y-108464302D01*
X225316847Y-108351034D01*
X225461010Y-108206871D01*
X225531041Y-108102061D01*
X226676000Y-108102061D01*
X226676000Y-108305939D01*
X226715774Y-108505898D01*
X226793795Y-108694256D01*
X226881355Y-108825299D01*
X226873133Y-108837603D01*
X226795112Y-109025961D01*
X226755338Y-109225920D01*
X226755338Y-109429798D01*
X226795112Y-109629757D01*
X226873133Y-109818115D01*
X226986401Y-109987633D01*
X227130564Y-110131796D01*
X227300082Y-110245064D01*
X227488440Y-110323085D01*
X227688399Y-110362859D01*
X227892277Y-110362859D01*
X228092236Y-110323085D01*
X228280594Y-110245064D01*
X228450112Y-110131796D01*
X228594275Y-109987633D01*
X228707543Y-109818115D01*
X228785564Y-109629757D01*
X228825338Y-109429798D01*
X228825338Y-109225920D01*
X228785564Y-109025961D01*
X228707543Y-108837603D01*
X228619983Y-108706560D01*
X228628205Y-108694256D01*
X228706226Y-108505898D01*
X228746000Y-108305939D01*
X228746000Y-108102061D01*
X228706226Y-107902102D01*
X228628205Y-107713744D01*
X228514937Y-107544226D01*
X228370774Y-107400063D01*
X228201256Y-107286795D01*
X228012898Y-107208774D01*
X227812939Y-107169000D01*
X227609061Y-107169000D01*
X227409102Y-107208774D01*
X227220744Y-107286795D01*
X227051226Y-107400063D01*
X226907063Y-107544226D01*
X226793795Y-107713744D01*
X226715774Y-107902102D01*
X226676000Y-108102061D01*
X225531041Y-108102061D01*
X225574278Y-108037353D01*
X225652299Y-107848995D01*
X225692073Y-107649036D01*
X225692073Y-107479924D01*
X225739370Y-107499515D01*
X225939329Y-107539289D01*
X226143207Y-107539289D01*
X226343166Y-107499515D01*
X226531524Y-107421494D01*
X226701042Y-107308226D01*
X226845205Y-107164063D01*
X226958473Y-106994545D01*
X227036494Y-106806187D01*
X227076268Y-106606228D01*
X227076268Y-106402350D01*
X227036494Y-106202391D01*
X226958473Y-106014033D01*
X226845205Y-105844515D01*
X226701042Y-105700352D01*
X226531524Y-105587084D01*
X226343166Y-105509063D01*
X226143207Y-105469289D01*
X225939329Y-105469289D01*
X225739370Y-105509063D01*
X225551012Y-105587084D01*
X225381494Y-105700352D01*
X225237331Y-105844515D01*
X225124063Y-106014033D01*
X225046042Y-106202391D01*
X225006268Y-106402350D01*
X225006268Y-106571462D01*
X224958971Y-106551871D01*
X224759012Y-106512097D01*
X224555134Y-106512097D01*
X224355175Y-106551871D01*
X224166817Y-106629892D01*
X223997299Y-106743160D01*
X223853136Y-106887323D01*
X223739868Y-107056841D01*
X223661847Y-107245199D01*
X223622073Y-107445158D01*
X166917398Y-107445158D01*
X166967932Y-107323158D01*
X167025000Y-107036260D01*
X167025000Y-106743740D01*
X166967932Y-106456842D01*
X166855990Y-106186589D01*
X166693475Y-105943368D01*
X166486632Y-105736525D01*
X166312240Y-105620000D01*
X166486632Y-105503475D01*
X166693475Y-105296632D01*
X166855990Y-105053411D01*
X166967932Y-104783158D01*
X167025000Y-104496260D01*
X167025000Y-104203740D01*
X166970351Y-103929000D01*
X208654928Y-103929000D01*
X208654928Y-105629000D01*
X208667188Y-105753482D01*
X208703498Y-105873180D01*
X208762463Y-105983494D01*
X208841815Y-106080185D01*
X208938506Y-106159537D01*
X209048820Y-106218502D01*
X209168518Y-106254812D01*
X209293000Y-106267072D01*
X210993000Y-106267072D01*
X211117482Y-106254812D01*
X211237180Y-106218502D01*
X211347494Y-106159537D01*
X211444185Y-106080185D01*
X211523537Y-105983494D01*
X211582502Y-105873180D01*
X211618812Y-105753482D01*
X211631072Y-105629000D01*
X211631072Y-103929000D01*
X212654928Y-103929000D01*
X212654928Y-105629000D01*
X212667188Y-105753482D01*
X212703498Y-105873180D01*
X212762463Y-105983494D01*
X212841815Y-106080185D01*
X212938506Y-106159537D01*
X213048820Y-106218502D01*
X213168518Y-106254812D01*
X213293000Y-106267072D01*
X214993000Y-106267072D01*
X215117482Y-106254812D01*
X215237180Y-106218502D01*
X215347494Y-106159537D01*
X215444185Y-106080185D01*
X215523537Y-105983494D01*
X215582502Y-105873180D01*
X215618812Y-105753482D01*
X215631072Y-105629000D01*
X215631072Y-104673061D01*
X227438000Y-104673061D01*
X227438000Y-104876939D01*
X227477774Y-105076898D01*
X227555795Y-105265256D01*
X227622200Y-105364639D01*
X227591795Y-105410144D01*
X227513774Y-105598502D01*
X227474000Y-105798461D01*
X227474000Y-106002339D01*
X227513774Y-106202298D01*
X227591795Y-106390656D01*
X227705063Y-106560174D01*
X227849226Y-106704337D01*
X228018744Y-106817605D01*
X228207102Y-106895626D01*
X228407061Y-106935400D01*
X228610939Y-106935400D01*
X228810898Y-106895626D01*
X228999256Y-106817605D01*
X229168774Y-106704337D01*
X229312937Y-106560174D01*
X229426205Y-106390656D01*
X229504226Y-106202298D01*
X229544000Y-106002339D01*
X229544000Y-105798461D01*
X229504226Y-105598502D01*
X229426205Y-105410144D01*
X229359800Y-105310761D01*
X229390205Y-105265256D01*
X229468226Y-105076898D01*
X229508000Y-104876939D01*
X229508000Y-104814801D01*
X229618140Y-104704661D01*
X230391500Y-104704661D01*
X230391500Y-104908539D01*
X230431274Y-105108498D01*
X230509295Y-105296856D01*
X230622563Y-105466374D01*
X230766726Y-105610537D01*
X230936244Y-105723805D01*
X231124602Y-105801826D01*
X231324561Y-105841600D01*
X231528439Y-105841600D01*
X231728398Y-105801826D01*
X231916756Y-105723805D01*
X232086274Y-105610537D01*
X232230437Y-105466374D01*
X232343705Y-105296856D01*
X232421726Y-105108498D01*
X232461500Y-104908539D01*
X232461500Y-104704661D01*
X232421726Y-104504702D01*
X232343705Y-104316344D01*
X232230437Y-104146826D01*
X232086274Y-104002663D01*
X231916756Y-103889395D01*
X231728398Y-103811374D01*
X231528439Y-103771600D01*
X231324561Y-103771600D01*
X231124602Y-103811374D01*
X230936244Y-103889395D01*
X230766726Y-104002663D01*
X230622563Y-104146826D01*
X230509295Y-104316344D01*
X230431274Y-104504702D01*
X230391500Y-104704661D01*
X229618140Y-104704661D01*
X232763138Y-101559663D01*
X232770963Y-101571374D01*
X232915126Y-101715537D01*
X233084644Y-101828805D01*
X233273002Y-101906826D01*
X233472961Y-101946600D01*
X233676839Y-101946600D01*
X233876798Y-101906826D01*
X234065156Y-101828805D01*
X234234674Y-101715537D01*
X234378837Y-101571374D01*
X234492105Y-101401856D01*
X234570126Y-101213498D01*
X234609900Y-101013539D01*
X234609900Y-100809661D01*
X234570126Y-100609702D01*
X234492105Y-100421344D01*
X234378837Y-100251826D01*
X234234674Y-100107663D01*
X234222963Y-100099838D01*
X236591004Y-97731798D01*
X236620001Y-97708001D01*
X236714974Y-97592276D01*
X236785546Y-97460247D01*
X236829003Y-97316986D01*
X236840000Y-97205333D01*
X236840000Y-97205332D01*
X236843677Y-97168000D01*
X236840000Y-97130667D01*
X236840000Y-83180000D01*
X238011928Y-83180000D01*
X238011928Y-84880000D01*
X238024188Y-85004482D01*
X238060498Y-85124180D01*
X238119463Y-85234494D01*
X238198815Y-85331185D01*
X238295506Y-85410537D01*
X238405820Y-85469502D01*
X238478380Y-85491513D01*
X238346525Y-85623368D01*
X238184010Y-85866589D01*
X238072068Y-86136842D01*
X238015000Y-86423740D01*
X238015000Y-86716260D01*
X238072068Y-87003158D01*
X238184010Y-87273411D01*
X238346525Y-87516632D01*
X238553368Y-87723475D01*
X238735534Y-87845195D01*
X238618645Y-87914822D01*
X238402412Y-88109731D01*
X238228359Y-88343080D01*
X238103175Y-88605901D01*
X238058524Y-88753110D01*
X238179845Y-88983000D01*
X239373000Y-88983000D01*
X239373000Y-88963000D01*
X239627000Y-88963000D01*
X239627000Y-88983000D01*
X239647000Y-88983000D01*
X239647000Y-89237000D01*
X239627000Y-89237000D01*
X239627000Y-89257000D01*
X239373000Y-89257000D01*
X239373000Y-89237000D01*
X238179845Y-89237000D01*
X238058524Y-89466890D01*
X238103175Y-89614099D01*
X238228359Y-89876920D01*
X238402412Y-90110269D01*
X238618645Y-90305178D01*
X238735534Y-90374805D01*
X238553368Y-90496525D01*
X238346525Y-90703368D01*
X238184010Y-90946589D01*
X238072068Y-91216842D01*
X238015000Y-91503740D01*
X238015000Y-91796260D01*
X238072068Y-92083158D01*
X238184010Y-92353411D01*
X238346525Y-92596632D01*
X238553368Y-92803475D01*
X238727760Y-92920000D01*
X238553368Y-93036525D01*
X238346525Y-93243368D01*
X238184010Y-93486589D01*
X238072068Y-93756842D01*
X238015000Y-94043740D01*
X238015000Y-94336260D01*
X238072068Y-94623158D01*
X238184010Y-94893411D01*
X238346525Y-95136632D01*
X238553368Y-95343475D01*
X238727760Y-95460000D01*
X238553368Y-95576525D01*
X238346525Y-95783368D01*
X238184010Y-96026589D01*
X238072068Y-96296842D01*
X238015000Y-96583740D01*
X238015000Y-96876260D01*
X238072068Y-97163158D01*
X238184010Y-97433411D01*
X238346525Y-97676632D01*
X238553368Y-97883475D01*
X238727760Y-98000000D01*
X238553368Y-98116525D01*
X238346525Y-98323368D01*
X238184010Y-98566589D01*
X238072068Y-98836842D01*
X238015000Y-99123740D01*
X238015000Y-99416260D01*
X238072068Y-99703158D01*
X238184010Y-99973411D01*
X238346525Y-100216632D01*
X238553368Y-100423475D01*
X238727760Y-100540000D01*
X238553368Y-100656525D01*
X238346525Y-100863368D01*
X238184010Y-101106589D01*
X238072068Y-101376842D01*
X238015000Y-101663740D01*
X238015000Y-101956260D01*
X238072068Y-102243158D01*
X238184010Y-102513411D01*
X238346525Y-102756632D01*
X238553368Y-102963475D01*
X238727760Y-103080000D01*
X238553368Y-103196525D01*
X238346525Y-103403368D01*
X238184010Y-103646589D01*
X238072068Y-103916842D01*
X238015000Y-104203740D01*
X238015000Y-104496260D01*
X238072068Y-104783158D01*
X238184010Y-105053411D01*
X238346525Y-105296632D01*
X238553368Y-105503475D01*
X238735534Y-105625195D01*
X238618645Y-105694822D01*
X238402412Y-105889731D01*
X238228359Y-106123080D01*
X238103175Y-106385901D01*
X238058524Y-106533110D01*
X238179845Y-106763000D01*
X239373000Y-106763000D01*
X239373000Y-106743000D01*
X239627000Y-106743000D01*
X239627000Y-106763000D01*
X239647000Y-106763000D01*
X239647000Y-107017000D01*
X239627000Y-107017000D01*
X239627000Y-107037000D01*
X239373000Y-107037000D01*
X239373000Y-107017000D01*
X238179845Y-107017000D01*
X238058524Y-107246890D01*
X238103175Y-107394099D01*
X238228359Y-107656920D01*
X238402412Y-107890269D01*
X238618645Y-108085178D01*
X238735534Y-108154805D01*
X238553368Y-108276525D01*
X238346525Y-108483368D01*
X238184010Y-108726589D01*
X238072068Y-108996842D01*
X238015000Y-109283740D01*
X238015000Y-109576260D01*
X238072068Y-109863158D01*
X238184010Y-110133411D01*
X238346525Y-110376632D01*
X238553368Y-110583475D01*
X238727760Y-110700000D01*
X238553368Y-110816525D01*
X238346525Y-111023368D01*
X238184010Y-111266589D01*
X238072068Y-111536842D01*
X238015000Y-111823740D01*
X238015000Y-112116260D01*
X238072068Y-112403158D01*
X238184010Y-112673411D01*
X238346525Y-112916632D01*
X238553368Y-113123475D01*
X238796589Y-113285990D01*
X239066842Y-113397932D01*
X239353740Y-113455000D01*
X239646260Y-113455000D01*
X239933158Y-113397932D01*
X240203411Y-113285990D01*
X240446632Y-113123475D01*
X240653475Y-112916632D01*
X240770000Y-112742240D01*
X240886525Y-112916632D01*
X241093368Y-113123475D01*
X241336589Y-113285990D01*
X241606842Y-113397932D01*
X241893740Y-113455000D01*
X242186260Y-113455000D01*
X242473158Y-113397932D01*
X242743411Y-113285990D01*
X242986632Y-113123475D01*
X243193475Y-112916632D01*
X243355990Y-112673411D01*
X243467932Y-112403158D01*
X243525000Y-112116260D01*
X243525000Y-111823740D01*
X243467932Y-111536842D01*
X243355990Y-111266589D01*
X243193475Y-111023368D01*
X242986632Y-110816525D01*
X242812240Y-110700000D01*
X242986632Y-110583475D01*
X243193475Y-110376632D01*
X243355990Y-110133411D01*
X243467932Y-109863158D01*
X243525000Y-109576260D01*
X243525000Y-109283740D01*
X243467932Y-108996842D01*
X243355990Y-108726589D01*
X243193475Y-108483368D01*
X242986632Y-108276525D01*
X242812240Y-108160000D01*
X242986632Y-108043475D01*
X243193475Y-107836632D01*
X243355990Y-107593411D01*
X243467932Y-107323158D01*
X243525000Y-107036260D01*
X243525000Y-106743740D01*
X243467932Y-106456842D01*
X243355990Y-106186589D01*
X243193475Y-105943368D01*
X242986632Y-105736525D01*
X242812240Y-105620000D01*
X242986632Y-105503475D01*
X243193475Y-105296632D01*
X243355990Y-105053411D01*
X243467932Y-104783158D01*
X243525000Y-104496260D01*
X243525000Y-104203740D01*
X243467932Y-103916842D01*
X243355990Y-103646589D01*
X243193475Y-103403368D01*
X242986632Y-103196525D01*
X242812240Y-103080000D01*
X242986632Y-102963475D01*
X243193475Y-102756632D01*
X243355990Y-102513411D01*
X243467932Y-102243158D01*
X243525000Y-101956260D01*
X243525000Y-101663740D01*
X243467932Y-101376842D01*
X243355990Y-101106589D01*
X243193475Y-100863368D01*
X242986632Y-100656525D01*
X242804466Y-100534805D01*
X242921355Y-100465178D01*
X243137588Y-100270269D01*
X243311641Y-100036920D01*
X243436825Y-99774099D01*
X243481476Y-99626890D01*
X243360155Y-99397000D01*
X242167000Y-99397000D01*
X242167000Y-99417000D01*
X241913000Y-99417000D01*
X241913000Y-99397000D01*
X241893000Y-99397000D01*
X241893000Y-99143000D01*
X241913000Y-99143000D01*
X241913000Y-99123000D01*
X242167000Y-99123000D01*
X242167000Y-99143000D01*
X243360155Y-99143000D01*
X243481476Y-98913110D01*
X243436825Y-98765901D01*
X243311641Y-98503080D01*
X243137588Y-98269731D01*
X242921355Y-98074822D01*
X242804466Y-98005195D01*
X242986632Y-97883475D01*
X243193475Y-97676632D01*
X243355990Y-97433411D01*
X243467932Y-97163158D01*
X243525000Y-96876260D01*
X243525000Y-96583740D01*
X243467932Y-96296842D01*
X243355990Y-96026589D01*
X243193475Y-95783368D01*
X242986632Y-95576525D01*
X242804466Y-95454805D01*
X242921355Y-95385178D01*
X243137588Y-95190269D01*
X243311641Y-94956920D01*
X243436825Y-94694099D01*
X243481476Y-94546890D01*
X243360155Y-94317000D01*
X242167000Y-94317000D01*
X242167000Y-94337000D01*
X241913000Y-94337000D01*
X241913000Y-94317000D01*
X241893000Y-94317000D01*
X241893000Y-94063000D01*
X241913000Y-94063000D01*
X241913000Y-94043000D01*
X242167000Y-94043000D01*
X242167000Y-94063000D01*
X243360155Y-94063000D01*
X243481476Y-93833110D01*
X243436825Y-93685901D01*
X243311641Y-93423080D01*
X243137588Y-93189731D01*
X242921355Y-92994822D01*
X242804466Y-92925195D01*
X242986632Y-92803475D01*
X243193475Y-92596632D01*
X243355990Y-92353411D01*
X243467932Y-92083158D01*
X243525000Y-91796260D01*
X243525000Y-91503740D01*
X243467932Y-91216842D01*
X243355990Y-90946589D01*
X243193475Y-90703368D01*
X242986632Y-90496525D01*
X242812240Y-90380000D01*
X242986632Y-90263475D01*
X243193475Y-90056632D01*
X243355990Y-89813411D01*
X243467932Y-89543158D01*
X243525000Y-89256260D01*
X243525000Y-88963740D01*
X243467932Y-88676842D01*
X243355990Y-88406589D01*
X243193475Y-88163368D01*
X242986632Y-87956525D01*
X242812240Y-87840000D01*
X242986632Y-87723475D01*
X243193475Y-87516632D01*
X243355990Y-87273411D01*
X243467932Y-87003158D01*
X243525000Y-86716260D01*
X243525000Y-86423740D01*
X243467932Y-86136842D01*
X243355990Y-85866589D01*
X243193475Y-85623368D01*
X242986632Y-85416525D01*
X242812240Y-85300000D01*
X242986632Y-85183475D01*
X243193475Y-84976632D01*
X243355990Y-84733411D01*
X243467932Y-84463158D01*
X243525000Y-84176260D01*
X243525000Y-83883740D01*
X243467932Y-83596842D01*
X243355990Y-83326589D01*
X243193475Y-83083368D01*
X242986632Y-82876525D01*
X242743411Y-82714010D01*
X242473158Y-82602068D01*
X242186260Y-82545000D01*
X241893740Y-82545000D01*
X241606842Y-82602068D01*
X241336589Y-82714010D01*
X241093368Y-82876525D01*
X240961513Y-83008380D01*
X240939502Y-82935820D01*
X240880537Y-82825506D01*
X240801185Y-82728815D01*
X240704494Y-82649463D01*
X240594180Y-82590498D01*
X240474482Y-82554188D01*
X240350000Y-82541928D01*
X238650000Y-82541928D01*
X238525518Y-82554188D01*
X238405820Y-82590498D01*
X238295506Y-82649463D01*
X238198815Y-82728815D01*
X238119463Y-82825506D01*
X238060498Y-82935820D01*
X238024188Y-83055518D01*
X238011928Y-83180000D01*
X236840000Y-83180000D01*
X236840000Y-76878178D01*
X237026632Y-76753475D01*
X237233475Y-76546632D01*
X237350000Y-76372240D01*
X237466525Y-76546632D01*
X237673368Y-76753475D01*
X237916589Y-76915990D01*
X238186842Y-77027932D01*
X238473740Y-77085000D01*
X238766260Y-77085000D01*
X239053158Y-77027932D01*
X239323411Y-76915990D01*
X239566632Y-76753475D01*
X239773475Y-76546632D01*
X239890000Y-76372240D01*
X240006525Y-76546632D01*
X240213368Y-76753475D01*
X240456589Y-76915990D01*
X240726842Y-77027932D01*
X241013740Y-77085000D01*
X241306260Y-77085000D01*
X241593158Y-77027932D01*
X241863411Y-76915990D01*
X242106632Y-76753475D01*
X242313475Y-76546632D01*
X242475990Y-76303411D01*
X242587932Y-76033158D01*
X242645000Y-75746260D01*
X242645000Y-75453740D01*
X242587932Y-75166842D01*
X242475990Y-74896589D01*
X242313475Y-74653368D01*
X242106632Y-74446525D01*
X241930594Y-74328900D01*
X242160269Y-74157588D01*
X242355178Y-73941355D01*
X242504157Y-73691252D01*
X242601481Y-73416891D01*
X242480814Y-73187000D01*
X241287000Y-73187000D01*
X241287000Y-73207000D01*
X241033000Y-73207000D01*
X241033000Y-73187000D01*
X241013000Y-73187000D01*
X241013000Y-72933000D01*
X241033000Y-72933000D01*
X241033000Y-71739845D01*
X241287000Y-71739845D01*
X241287000Y-72933000D01*
X242480814Y-72933000D01*
X242601481Y-72703109D01*
X242504157Y-72428748D01*
X242355178Y-72178645D01*
X242160269Y-71962412D01*
X241926920Y-71788359D01*
X241664099Y-71663175D01*
X241516890Y-71618524D01*
X241287000Y-71739845D01*
X241033000Y-71739845D01*
X240803110Y-71618524D01*
X240655901Y-71663175D01*
X240393080Y-71788359D01*
X240159731Y-71962412D01*
X239964822Y-72178645D01*
X239895195Y-72295534D01*
X239773475Y-72113368D01*
X239566632Y-71906525D01*
X239323411Y-71744010D01*
X239053158Y-71632068D01*
X238766260Y-71575000D01*
X238473740Y-71575000D01*
X238186842Y-71632068D01*
X237916589Y-71744010D01*
X237673368Y-71906525D01*
X237466525Y-72113368D01*
X237350000Y-72287760D01*
X237233475Y-72113368D01*
X237026632Y-71906525D01*
X236783411Y-71744010D01*
X236513158Y-71632068D01*
X236226260Y-71575000D01*
X235933740Y-71575000D01*
X235646842Y-71632068D01*
X235376589Y-71744010D01*
X235133368Y-71906525D01*
X234926525Y-72113368D01*
X234810000Y-72287760D01*
X234693475Y-72113368D01*
X234486632Y-71906525D01*
X234243411Y-71744010D01*
X233973158Y-71632068D01*
X233686260Y-71575000D01*
X233393740Y-71575000D01*
X233106842Y-71632068D01*
X232836589Y-71744010D01*
X232593368Y-71906525D01*
X232386525Y-72113368D01*
X232270000Y-72287760D01*
X232153475Y-72113368D01*
X231946632Y-71906525D01*
X231703411Y-71744010D01*
X231433158Y-71632068D01*
X231146260Y-71575000D01*
X230853740Y-71575000D01*
X230566842Y-71632068D01*
X230296589Y-71744010D01*
X230053368Y-71906525D01*
X229846525Y-72113368D01*
X229684010Y-72356589D01*
X229572068Y-72626842D01*
X229515000Y-72913740D01*
X229515000Y-73206260D01*
X229572068Y-73493158D01*
X229684010Y-73763411D01*
X229846525Y-74006632D01*
X229978380Y-74138487D01*
X229905820Y-74160498D01*
X229795506Y-74219463D01*
X229698815Y-74298815D01*
X229619463Y-74395506D01*
X229560498Y-74505820D01*
X229524188Y-74625518D01*
X229511928Y-74750000D01*
X229511928Y-76450000D01*
X229516394Y-76495350D01*
X229368839Y-76466000D01*
X229164961Y-76466000D01*
X228965002Y-76505774D01*
X228776644Y-76583795D01*
X228607126Y-76697063D01*
X228462963Y-76841226D01*
X228349695Y-77010744D01*
X228271674Y-77199102D01*
X228231900Y-77399061D01*
X228231900Y-77602939D01*
X228271674Y-77802898D01*
X228349695Y-77991256D01*
X228462963Y-78160774D01*
X228607126Y-78304937D01*
X228776644Y-78418205D01*
X228965002Y-78496226D01*
X229164961Y-78536000D01*
X229368839Y-78536000D01*
X229568798Y-78496226D01*
X229757156Y-78418205D01*
X229926674Y-78304937D01*
X230070837Y-78160774D01*
X230184105Y-77991256D01*
X230262126Y-77802898D01*
X230301900Y-77602939D01*
X230301900Y-77399061D01*
X230262126Y-77199102D01*
X230216136Y-77088072D01*
X231850000Y-77088072D01*
X231974482Y-77075812D01*
X232094180Y-77039502D01*
X232204494Y-76980537D01*
X232301185Y-76901185D01*
X232380537Y-76804494D01*
X232439502Y-76694180D01*
X232461513Y-76621620D01*
X232593368Y-76753475D01*
X232836589Y-76915990D01*
X233106842Y-77027932D01*
X233393740Y-77085000D01*
X233686260Y-77085000D01*
X233973158Y-77027932D01*
X234243411Y-76915990D01*
X234486632Y-76753475D01*
X234693475Y-76546632D01*
X234810000Y-76372240D01*
X234926525Y-76546632D01*
X235133368Y-76753475D01*
X235320001Y-76878179D01*
X235320000Y-96853198D01*
X228433199Y-103740000D01*
X228371061Y-103740000D01*
X228171102Y-103779774D01*
X227982744Y-103857795D01*
X227813226Y-103971063D01*
X227669063Y-104115226D01*
X227555795Y-104284744D01*
X227477774Y-104473102D01*
X227438000Y-104673061D01*
X215631072Y-104673061D01*
X215631072Y-103929000D01*
X215618812Y-103804518D01*
X215582502Y-103684820D01*
X215523537Y-103574506D01*
X215444185Y-103477815D01*
X215347494Y-103398463D01*
X215237180Y-103339498D01*
X215164620Y-103317487D01*
X215296475Y-103185632D01*
X215458990Y-102942411D01*
X215570932Y-102672158D01*
X215628000Y-102385260D01*
X215628000Y-102092740D01*
X215570932Y-101805842D01*
X215458990Y-101535589D01*
X215296475Y-101292368D01*
X215089632Y-101085525D01*
X214915240Y-100969000D01*
X215089632Y-100852475D01*
X215296475Y-100645632D01*
X215458990Y-100402411D01*
X215570932Y-100132158D01*
X215628000Y-99845260D01*
X215628000Y-99552740D01*
X215570932Y-99265842D01*
X215458990Y-98995589D01*
X215296475Y-98752368D01*
X215089632Y-98545525D01*
X214846411Y-98383010D01*
X214576158Y-98271068D01*
X214289260Y-98214000D01*
X213996740Y-98214000D01*
X213709842Y-98271068D01*
X213439589Y-98383010D01*
X213196368Y-98545525D01*
X212989525Y-98752368D01*
X212827010Y-98995589D01*
X212715068Y-99265842D01*
X212658000Y-99552740D01*
X212658000Y-99845260D01*
X212715068Y-100132158D01*
X212827010Y-100402411D01*
X212989525Y-100645632D01*
X213196368Y-100852475D01*
X213370760Y-100969000D01*
X213196368Y-101085525D01*
X212989525Y-101292368D01*
X212827010Y-101535589D01*
X212715068Y-101805842D01*
X212658000Y-102092740D01*
X212658000Y-102385260D01*
X212715068Y-102672158D01*
X212827010Y-102942411D01*
X212989525Y-103185632D01*
X213121380Y-103317487D01*
X213048820Y-103339498D01*
X212938506Y-103398463D01*
X212841815Y-103477815D01*
X212762463Y-103574506D01*
X212703498Y-103684820D01*
X212667188Y-103804518D01*
X212654928Y-103929000D01*
X211631072Y-103929000D01*
X211618812Y-103804518D01*
X211582502Y-103684820D01*
X211523537Y-103574506D01*
X211444185Y-103477815D01*
X211347494Y-103398463D01*
X211237180Y-103339498D01*
X211164620Y-103317487D01*
X211296475Y-103185632D01*
X211458990Y-102942411D01*
X211570932Y-102672158D01*
X211628000Y-102385260D01*
X211628000Y-102092740D01*
X211570932Y-101805842D01*
X211458990Y-101535589D01*
X211296475Y-101292368D01*
X211089632Y-101085525D01*
X210915240Y-100969000D01*
X211089632Y-100852475D01*
X211296475Y-100645632D01*
X211458990Y-100402411D01*
X211570932Y-100132158D01*
X211628000Y-99845260D01*
X211628000Y-99552740D01*
X211570932Y-99265842D01*
X211458990Y-98995589D01*
X211296475Y-98752368D01*
X211089632Y-98545525D01*
X210846411Y-98383010D01*
X210576158Y-98271068D01*
X210289260Y-98214000D01*
X209996740Y-98214000D01*
X209709842Y-98271068D01*
X209439589Y-98383010D01*
X209196368Y-98545525D01*
X208989525Y-98752368D01*
X208827010Y-98995589D01*
X208715068Y-99265842D01*
X208658000Y-99552740D01*
X208658000Y-99845260D01*
X208715068Y-100132158D01*
X208827010Y-100402411D01*
X208989525Y-100645632D01*
X209196368Y-100852475D01*
X209370760Y-100969000D01*
X209196368Y-101085525D01*
X208989525Y-101292368D01*
X208827010Y-101535589D01*
X208715068Y-101805842D01*
X208658000Y-102092740D01*
X208658000Y-102385260D01*
X208715068Y-102672158D01*
X208827010Y-102942411D01*
X208989525Y-103185632D01*
X209121380Y-103317487D01*
X209048820Y-103339498D01*
X208938506Y-103398463D01*
X208841815Y-103477815D01*
X208762463Y-103574506D01*
X208703498Y-103684820D01*
X208667188Y-103804518D01*
X208654928Y-103929000D01*
X166970351Y-103929000D01*
X166967932Y-103916842D01*
X166855990Y-103646589D01*
X166693475Y-103403368D01*
X166486632Y-103196525D01*
X166304466Y-103074805D01*
X166421355Y-103005178D01*
X166637588Y-102810269D01*
X166811641Y-102576920D01*
X166936825Y-102314099D01*
X166981476Y-102166890D01*
X166860155Y-101937000D01*
X165667000Y-101937000D01*
X165667000Y-101957000D01*
X165413000Y-101957000D01*
X165413000Y-101937000D01*
X165393000Y-101937000D01*
X165393000Y-101683000D01*
X165413000Y-101683000D01*
X165413000Y-101663000D01*
X165667000Y-101663000D01*
X165667000Y-101683000D01*
X166860155Y-101683000D01*
X166981476Y-101453110D01*
X166936825Y-101305901D01*
X166811641Y-101043080D01*
X166637588Y-100809731D01*
X166421355Y-100614822D01*
X166304466Y-100545195D01*
X166486632Y-100423475D01*
X166693475Y-100216632D01*
X166855990Y-99973411D01*
X166967932Y-99703158D01*
X167025000Y-99416260D01*
X167025000Y-99123740D01*
X166967932Y-98836842D01*
X166855990Y-98566589D01*
X166693475Y-98323368D01*
X166486632Y-98116525D01*
X166312240Y-98000000D01*
X166486632Y-97883475D01*
X166693475Y-97676632D01*
X166855990Y-97433411D01*
X166967932Y-97163158D01*
X167025000Y-96876260D01*
X167025000Y-96583740D01*
X166967932Y-96296842D01*
X166855990Y-96026589D01*
X166693475Y-95783368D01*
X166486632Y-95576525D01*
X166312240Y-95460000D01*
X166486632Y-95343475D01*
X166693475Y-95136632D01*
X166855990Y-94893411D01*
X166967932Y-94623158D01*
X167025000Y-94336260D01*
X167025000Y-94043740D01*
X166967932Y-93756842D01*
X166855990Y-93486589D01*
X166693475Y-93243368D01*
X166486632Y-93036525D01*
X166304466Y-92914805D01*
X166421355Y-92845178D01*
X166637588Y-92650269D01*
X166811641Y-92416920D01*
X166936825Y-92154099D01*
X166981476Y-92006890D01*
X166968869Y-91983000D01*
X170008928Y-91983000D01*
X170008928Y-93683000D01*
X170021188Y-93807482D01*
X170057498Y-93927180D01*
X170116463Y-94037494D01*
X170195815Y-94134185D01*
X170292506Y-94213537D01*
X170402820Y-94272502D01*
X170475380Y-94294513D01*
X170343525Y-94426368D01*
X170181010Y-94669589D01*
X170069068Y-94939842D01*
X170012000Y-95226740D01*
X170012000Y-95519260D01*
X170069068Y-95806158D01*
X170181010Y-96076411D01*
X170343525Y-96319632D01*
X170550368Y-96526475D01*
X170724760Y-96643000D01*
X170550368Y-96759525D01*
X170343525Y-96966368D01*
X170181010Y-97209589D01*
X170069068Y-97479842D01*
X170012000Y-97766740D01*
X170012000Y-98059260D01*
X170069068Y-98346158D01*
X170181010Y-98616411D01*
X170343525Y-98859632D01*
X170550368Y-99066475D01*
X170793589Y-99228990D01*
X171063842Y-99340932D01*
X171350740Y-99398000D01*
X171643260Y-99398000D01*
X171930158Y-99340932D01*
X172200411Y-99228990D01*
X172443632Y-99066475D01*
X172650475Y-98859632D01*
X172812990Y-98616411D01*
X172924932Y-98346158D01*
X172982000Y-98059260D01*
X172982000Y-97766740D01*
X172924932Y-97479842D01*
X172812990Y-97209589D01*
X172650475Y-96966368D01*
X172443632Y-96759525D01*
X172269240Y-96643000D01*
X172443632Y-96526475D01*
X172650475Y-96319632D01*
X172812990Y-96076411D01*
X172924932Y-95806158D01*
X172982000Y-95519260D01*
X172982000Y-95226740D01*
X172924932Y-94939842D01*
X172812990Y-94669589D01*
X172650475Y-94426368D01*
X172518620Y-94294513D01*
X172591180Y-94272502D01*
X172701494Y-94213537D01*
X172798185Y-94134185D01*
X172877537Y-94037494D01*
X172936502Y-93927180D01*
X172972812Y-93807482D01*
X172985072Y-93683000D01*
X172985072Y-91983000D01*
X174008928Y-91983000D01*
X174008928Y-93683000D01*
X174021188Y-93807482D01*
X174057498Y-93927180D01*
X174116463Y-94037494D01*
X174195815Y-94134185D01*
X174292506Y-94213537D01*
X174402820Y-94272502D01*
X174475380Y-94294513D01*
X174343525Y-94426368D01*
X174181010Y-94669589D01*
X174069068Y-94939842D01*
X174012000Y-95226740D01*
X174012000Y-95519260D01*
X174069068Y-95806158D01*
X174181010Y-96076411D01*
X174343525Y-96319632D01*
X174550368Y-96526475D01*
X174724760Y-96643000D01*
X174550368Y-96759525D01*
X174343525Y-96966368D01*
X174181010Y-97209589D01*
X174069068Y-97479842D01*
X174012000Y-97766740D01*
X174012000Y-98059260D01*
X174069068Y-98346158D01*
X174181010Y-98616411D01*
X174343525Y-98859632D01*
X174550368Y-99066475D01*
X174793589Y-99228990D01*
X175063842Y-99340932D01*
X175350740Y-99398000D01*
X175643260Y-99398000D01*
X175930158Y-99340932D01*
X176200411Y-99228990D01*
X176443632Y-99066475D01*
X176650475Y-98859632D01*
X176812990Y-98616411D01*
X176924932Y-98346158D01*
X176982000Y-98059260D01*
X176982000Y-97766740D01*
X176924932Y-97479842D01*
X176812990Y-97209589D01*
X176650475Y-96966368D01*
X176443632Y-96759525D01*
X176269240Y-96643000D01*
X176443632Y-96526475D01*
X176650475Y-96319632D01*
X176812990Y-96076411D01*
X176924932Y-95806158D01*
X176982000Y-95519260D01*
X176982000Y-95226740D01*
X176924932Y-94939842D01*
X176812990Y-94669589D01*
X176650475Y-94426368D01*
X176518620Y-94294513D01*
X176591180Y-94272502D01*
X176701494Y-94213537D01*
X176798185Y-94134185D01*
X176877537Y-94037494D01*
X176936502Y-93927180D01*
X176972812Y-93807482D01*
X176985072Y-93683000D01*
X176985072Y-91983000D01*
X178008928Y-91983000D01*
X178008928Y-93683000D01*
X178021188Y-93807482D01*
X178057498Y-93927180D01*
X178116463Y-94037494D01*
X178195815Y-94134185D01*
X178292506Y-94213537D01*
X178402820Y-94272502D01*
X178475380Y-94294513D01*
X178343525Y-94426368D01*
X178181010Y-94669589D01*
X178069068Y-94939842D01*
X178012000Y-95226740D01*
X178012000Y-95519260D01*
X178069068Y-95806158D01*
X178181010Y-96076411D01*
X178343525Y-96319632D01*
X178550368Y-96526475D01*
X178724760Y-96643000D01*
X178550368Y-96759525D01*
X178343525Y-96966368D01*
X178181010Y-97209589D01*
X178069068Y-97479842D01*
X178012000Y-97766740D01*
X178012000Y-98059260D01*
X178069068Y-98346158D01*
X178181010Y-98616411D01*
X178343525Y-98859632D01*
X178550368Y-99066475D01*
X178793589Y-99228990D01*
X179063842Y-99340932D01*
X179350740Y-99398000D01*
X179643260Y-99398000D01*
X179930158Y-99340932D01*
X180200411Y-99228990D01*
X180443632Y-99066475D01*
X180650475Y-98859632D01*
X180812990Y-98616411D01*
X180924932Y-98346158D01*
X180982000Y-98059260D01*
X180982000Y-97766740D01*
X180924932Y-97479842D01*
X180812990Y-97209589D01*
X180650475Y-96966368D01*
X180443632Y-96759525D01*
X180269240Y-96643000D01*
X180443632Y-96526475D01*
X180650475Y-96319632D01*
X180812990Y-96076411D01*
X180924932Y-95806158D01*
X180982000Y-95519260D01*
X180982000Y-95226740D01*
X180924932Y-94939842D01*
X180812990Y-94669589D01*
X180650475Y-94426368D01*
X180518620Y-94294513D01*
X180591180Y-94272502D01*
X180701494Y-94213537D01*
X180798185Y-94134185D01*
X180877537Y-94037494D01*
X180936502Y-93927180D01*
X180972812Y-93807482D01*
X180985072Y-93683000D01*
X180985072Y-91983000D01*
X180972812Y-91858518D01*
X180936502Y-91738820D01*
X180877537Y-91628506D01*
X180798185Y-91531815D01*
X180701494Y-91452463D01*
X180591180Y-91393498D01*
X180471482Y-91357188D01*
X180347000Y-91344928D01*
X178647000Y-91344928D01*
X178522518Y-91357188D01*
X178402820Y-91393498D01*
X178292506Y-91452463D01*
X178195815Y-91531815D01*
X178116463Y-91628506D01*
X178057498Y-91738820D01*
X178021188Y-91858518D01*
X178008928Y-91983000D01*
X176985072Y-91983000D01*
X176972812Y-91858518D01*
X176936502Y-91738820D01*
X176877537Y-91628506D01*
X176798185Y-91531815D01*
X176701494Y-91452463D01*
X176591180Y-91393498D01*
X176471482Y-91357188D01*
X176347000Y-91344928D01*
X174647000Y-91344928D01*
X174522518Y-91357188D01*
X174402820Y-91393498D01*
X174292506Y-91452463D01*
X174195815Y-91531815D01*
X174116463Y-91628506D01*
X174057498Y-91738820D01*
X174021188Y-91858518D01*
X174008928Y-91983000D01*
X172985072Y-91983000D01*
X172972812Y-91858518D01*
X172936502Y-91738820D01*
X172877537Y-91628506D01*
X172798185Y-91531815D01*
X172701494Y-91452463D01*
X172591180Y-91393498D01*
X172471482Y-91357188D01*
X172347000Y-91344928D01*
X170647000Y-91344928D01*
X170522518Y-91357188D01*
X170402820Y-91393498D01*
X170292506Y-91452463D01*
X170195815Y-91531815D01*
X170116463Y-91628506D01*
X170057498Y-91738820D01*
X170021188Y-91858518D01*
X170008928Y-91983000D01*
X166968869Y-91983000D01*
X166860155Y-91777000D01*
X165667000Y-91777000D01*
X165667000Y-91797000D01*
X165413000Y-91797000D01*
X165413000Y-91777000D01*
X165393000Y-91777000D01*
X165393000Y-91523000D01*
X165413000Y-91523000D01*
X165413000Y-91503000D01*
X165667000Y-91503000D01*
X165667000Y-91523000D01*
X166860155Y-91523000D01*
X166981476Y-91293110D01*
X166936825Y-91145901D01*
X166811641Y-90883080D01*
X166637588Y-90649731D01*
X166421355Y-90454822D01*
X166304466Y-90385195D01*
X166486632Y-90263475D01*
X166693475Y-90056632D01*
X166855990Y-89813411D01*
X166967932Y-89543158D01*
X167025000Y-89256260D01*
X167025000Y-88963740D01*
X166967932Y-88676842D01*
X166855990Y-88406589D01*
X166693475Y-88163368D01*
X166486632Y-87956525D01*
X166312240Y-87840000D01*
X166486632Y-87723475D01*
X166693475Y-87516632D01*
X166855990Y-87273411D01*
X166967932Y-87003158D01*
X167025000Y-86716260D01*
X167025000Y-86423740D01*
X166967932Y-86136842D01*
X166855990Y-85866589D01*
X166693475Y-85623368D01*
X166486632Y-85416525D01*
X166243411Y-85254010D01*
X165973158Y-85142068D01*
X165686260Y-85085000D01*
X165393740Y-85085000D01*
X165106842Y-85142068D01*
X164836589Y-85254010D01*
X164593368Y-85416525D01*
X164461513Y-85548380D01*
X164439502Y-85475820D01*
X164380537Y-85365506D01*
X164301185Y-85268815D01*
X164204494Y-85189463D01*
X164094180Y-85130498D01*
X163974482Y-85094188D01*
X163850000Y-85081928D01*
X162150000Y-85081928D01*
X162025518Y-85094188D01*
X161905820Y-85130498D01*
X161795506Y-85189463D01*
X161698815Y-85268815D01*
X161619463Y-85365506D01*
X161560498Y-85475820D01*
X161524188Y-85595518D01*
X161511928Y-85720000D01*
X160685000Y-85720000D01*
X160685000Y-76136493D01*
X165447110Y-76136493D01*
X165512550Y-76375290D01*
X165759410Y-76491120D01*
X166024124Y-76556564D01*
X166296519Y-76569107D01*
X166566127Y-76528268D01*
X166822587Y-76435615D01*
X166935446Y-76375290D01*
X167000886Y-76136493D01*
X166223998Y-75359605D01*
X165447110Y-76136493D01*
X160685000Y-76136493D01*
X160685000Y-75252521D01*
X164834891Y-75252521D01*
X164875730Y-75522129D01*
X164968383Y-75778589D01*
X165028708Y-75891448D01*
X165267505Y-75956888D01*
X166044393Y-75180000D01*
X166403603Y-75180000D01*
X167180491Y-75956888D01*
X167419288Y-75891448D01*
X167535118Y-75644588D01*
X167600562Y-75379874D01*
X167613105Y-75107479D01*
X167603438Y-75043658D01*
X168339699Y-75043658D01*
X168339699Y-75316342D01*
X168392897Y-75583785D01*
X168497248Y-75835712D01*
X168648743Y-76062440D01*
X168841559Y-76255256D01*
X169068287Y-76406751D01*
X169320214Y-76511102D01*
X169587657Y-76564300D01*
X169860341Y-76564300D01*
X170004770Y-76535571D01*
X181561701Y-88092503D01*
X181561700Y-93793177D01*
X181558024Y-93830500D01*
X181561700Y-93867822D01*
X181561700Y-93867832D01*
X181572697Y-93979485D01*
X181595720Y-94055383D01*
X181616154Y-94122746D01*
X181686726Y-94254776D01*
X181701274Y-94272502D01*
X181781699Y-94370501D01*
X181810703Y-94394304D01*
X182125096Y-94708697D01*
X182148899Y-94737701D01*
X182151808Y-94740089D01*
X182069068Y-94939842D01*
X182012000Y-95226740D01*
X182012000Y-95519260D01*
X182069068Y-95806158D01*
X182181010Y-96076411D01*
X182343525Y-96319632D01*
X182550368Y-96526475D01*
X182724760Y-96643000D01*
X182550368Y-96759525D01*
X182343525Y-96966368D01*
X182181010Y-97209589D01*
X182069068Y-97479842D01*
X182012000Y-97766740D01*
X182012000Y-98059260D01*
X182069068Y-98346158D01*
X182181010Y-98616411D01*
X182343525Y-98859632D01*
X182550368Y-99066475D01*
X182793589Y-99228990D01*
X183063842Y-99340932D01*
X183350740Y-99398000D01*
X183643260Y-99398000D01*
X183930158Y-99340932D01*
X184200411Y-99228990D01*
X184443632Y-99066475D01*
X184650475Y-98859632D01*
X184812990Y-98616411D01*
X184924932Y-98346158D01*
X184982000Y-98059260D01*
X184982000Y-97766740D01*
X184924932Y-97479842D01*
X184812990Y-97209589D01*
X184650475Y-96966368D01*
X184443632Y-96759525D01*
X184269240Y-96643000D01*
X184443632Y-96526475D01*
X184650475Y-96319632D01*
X184812990Y-96076411D01*
X184924932Y-95806158D01*
X184982000Y-95519260D01*
X184982000Y-95226740D01*
X184924932Y-94939842D01*
X184812990Y-94669589D01*
X184650475Y-94426368D01*
X184518620Y-94294513D01*
X184591180Y-94272502D01*
X184701494Y-94213537D01*
X184798185Y-94134185D01*
X184877537Y-94037494D01*
X184936502Y-93927180D01*
X184972812Y-93807482D01*
X184985072Y-93683000D01*
X184985072Y-91983000D01*
X186008928Y-91983000D01*
X186008928Y-93683000D01*
X186021188Y-93807482D01*
X186057498Y-93927180D01*
X186116463Y-94037494D01*
X186195815Y-94134185D01*
X186292506Y-94213537D01*
X186402820Y-94272502D01*
X186475380Y-94294513D01*
X186343525Y-94426368D01*
X186181010Y-94669589D01*
X186069068Y-94939842D01*
X186012000Y-95226740D01*
X186012000Y-95519260D01*
X186069068Y-95806158D01*
X186181010Y-96076411D01*
X186343525Y-96319632D01*
X186550368Y-96526475D01*
X186724760Y-96643000D01*
X186550368Y-96759525D01*
X186343525Y-96966368D01*
X186181010Y-97209589D01*
X186069068Y-97479842D01*
X186012000Y-97766740D01*
X186012000Y-98059260D01*
X186069068Y-98346158D01*
X186181010Y-98616411D01*
X186343525Y-98859632D01*
X186550368Y-99066475D01*
X186793589Y-99228990D01*
X187063842Y-99340932D01*
X187350740Y-99398000D01*
X187643260Y-99398000D01*
X187930158Y-99340932D01*
X188200411Y-99228990D01*
X188443632Y-99066475D01*
X188650475Y-98859632D01*
X188812990Y-98616411D01*
X188924932Y-98346158D01*
X188982000Y-98059260D01*
X188982000Y-97766740D01*
X188924932Y-97479842D01*
X188812990Y-97209589D01*
X188650475Y-96966368D01*
X188443632Y-96759525D01*
X188269240Y-96643000D01*
X188443632Y-96526475D01*
X188650475Y-96319632D01*
X188812990Y-96076411D01*
X188924932Y-95806158D01*
X188982000Y-95519260D01*
X188982000Y-95226740D01*
X188924932Y-94939842D01*
X188812990Y-94669589D01*
X188650475Y-94426368D01*
X188518620Y-94294513D01*
X188591180Y-94272502D01*
X188701494Y-94213537D01*
X188798185Y-94134185D01*
X188877537Y-94037494D01*
X188936502Y-93927180D01*
X188972812Y-93807482D01*
X188985072Y-93683000D01*
X188985072Y-91983000D01*
X190008928Y-91983000D01*
X190008928Y-93683000D01*
X190021188Y-93807482D01*
X190057498Y-93927180D01*
X190116463Y-94037494D01*
X190195815Y-94134185D01*
X190292506Y-94213537D01*
X190402820Y-94272502D01*
X190475380Y-94294513D01*
X190343525Y-94426368D01*
X190181010Y-94669589D01*
X190069068Y-94939842D01*
X190012000Y-95226740D01*
X190012000Y-95519260D01*
X190069068Y-95806158D01*
X190181010Y-96076411D01*
X190343525Y-96319632D01*
X190550368Y-96526475D01*
X190724760Y-96643000D01*
X190550368Y-96759525D01*
X190343525Y-96966368D01*
X190181010Y-97209589D01*
X190069068Y-97479842D01*
X190012000Y-97766740D01*
X190012000Y-98059260D01*
X190069068Y-98346158D01*
X190181010Y-98616411D01*
X190343525Y-98859632D01*
X190550368Y-99066475D01*
X190793589Y-99228990D01*
X191063842Y-99340932D01*
X191350740Y-99398000D01*
X191643260Y-99398000D01*
X191930158Y-99340932D01*
X192200411Y-99228990D01*
X192443632Y-99066475D01*
X192650475Y-98859632D01*
X192812990Y-98616411D01*
X192924932Y-98346158D01*
X192964980Y-98144821D01*
X199673106Y-98144821D01*
X199674207Y-98167471D01*
X199724207Y-98527471D01*
X199726792Y-98540802D01*
X199806792Y-98860802D01*
X199812339Y-98877800D01*
X199942339Y-99197800D01*
X199949550Y-99212688D01*
X200159550Y-99582688D01*
X200168820Y-99596757D01*
X200388820Y-99886757D01*
X200404304Y-99903730D01*
X200754304Y-100223730D01*
X200771324Y-100236830D01*
X201191324Y-100506830D01*
X201211914Y-100517544D01*
X201651914Y-100697544D01*
X201671854Y-100703842D01*
X202111854Y-100803842D01*
X202137178Y-100806969D01*
X202587178Y-100816969D01*
X202602332Y-100816400D01*
X203012332Y-100776400D01*
X203032177Y-100772856D01*
X203452177Y-100662856D01*
X203473220Y-100655311D01*
X203863220Y-100475311D01*
X203878183Y-100467145D01*
X204208183Y-100257145D01*
X204225283Y-100244105D01*
X204545283Y-99954105D01*
X204558293Y-99940421D01*
X204828293Y-99610421D01*
X204839700Y-99593992D01*
X205049700Y-99233992D01*
X205058465Y-99215771D01*
X205228465Y-98775771D01*
X205234757Y-98753763D01*
X205314757Y-98333763D01*
X205316971Y-98312702D01*
X205326971Y-97842702D01*
X205325523Y-97820689D01*
X205265523Y-97430689D01*
X205263425Y-97420079D01*
X205183425Y-97090079D01*
X205176352Y-97069096D01*
X205036352Y-96749096D01*
X205030864Y-96738047D01*
X204840864Y-96398047D01*
X204827564Y-96378697D01*
X204577564Y-96078697D01*
X204566761Y-96067256D01*
X204256761Y-95777256D01*
X204239214Y-95763518D01*
X203839214Y-95503518D01*
X203820747Y-95493580D01*
X203430747Y-95323580D01*
X203410802Y-95316792D01*
X202930802Y-95196792D01*
X202906041Y-95193144D01*
X202486041Y-95173144D01*
X202470732Y-95173339D01*
X202060732Y-95203339D01*
X202037942Y-95207113D01*
X201577942Y-95327113D01*
X201556440Y-95334846D01*
X201126440Y-95534846D01*
X201109553Y-95544330D01*
X200992728Y-95622213D01*
X200876008Y-95690300D01*
X200867170Y-95695958D01*
X200767170Y-95765958D01*
X200754571Y-95776028D01*
X200649010Y-95871992D01*
X200573800Y-95928400D01*
X200560197Y-95940197D01*
X200440197Y-96060197D01*
X200430830Y-96070664D01*
X200353140Y-96167777D01*
X200265602Y-96265041D01*
X200261707Y-96269579D01*
X200171707Y-96379579D01*
X200158982Y-96398323D01*
X200108982Y-96488323D01*
X200106408Y-96493204D01*
X200018593Y-96668834D01*
X199931098Y-96814659D01*
X199919517Y-96839839D01*
X199879939Y-96958573D01*
X199780399Y-97237285D01*
X199775724Y-97253837D01*
X199695724Y-97633837D01*
X199693106Y-97654821D01*
X199673106Y-98144821D01*
X192964980Y-98144821D01*
X192982000Y-98059260D01*
X192982000Y-97766740D01*
X192924932Y-97479842D01*
X192812990Y-97209589D01*
X192650475Y-96966368D01*
X192443632Y-96759525D01*
X192269240Y-96643000D01*
X192443632Y-96526475D01*
X192650475Y-96319632D01*
X192812990Y-96076411D01*
X192924932Y-95806158D01*
X192982000Y-95519260D01*
X192982000Y-95226740D01*
X192924932Y-94939842D01*
X192812990Y-94669589D01*
X192723645Y-94535874D01*
X221695881Y-94535874D01*
X221712554Y-94590864D01*
X221802877Y-94794206D01*
X221931135Y-94976020D01*
X222092399Y-95129318D01*
X222280471Y-95248210D01*
X222488124Y-95328126D01*
X222663000Y-95203129D01*
X222663000Y-94361000D01*
X222917000Y-94361000D01*
X222917000Y-95203129D01*
X223091876Y-95328126D01*
X223299529Y-95248210D01*
X223487601Y-95129318D01*
X223648865Y-94976020D01*
X223777123Y-94794206D01*
X223867446Y-94590864D01*
X223884119Y-94535874D01*
X224235881Y-94535874D01*
X224252554Y-94590864D01*
X224342877Y-94794206D01*
X224471135Y-94976020D01*
X224632399Y-95129318D01*
X224820471Y-95248210D01*
X225028124Y-95328126D01*
X225203000Y-95203129D01*
X225203000Y-94361000D01*
X225457000Y-94361000D01*
X225457000Y-95203129D01*
X225631876Y-95328126D01*
X225839529Y-95248210D01*
X226027601Y-95129318D01*
X226188865Y-94976020D01*
X226317123Y-94794206D01*
X226407446Y-94590864D01*
X226424119Y-94535874D01*
X226775881Y-94535874D01*
X226792554Y-94590864D01*
X226882877Y-94794206D01*
X227011135Y-94976020D01*
X227172399Y-95129318D01*
X227360471Y-95248210D01*
X227568124Y-95328126D01*
X227743000Y-95203129D01*
X227743000Y-94361000D01*
X227997000Y-94361000D01*
X227997000Y-95203129D01*
X228171876Y-95328126D01*
X228379529Y-95248210D01*
X228567601Y-95129318D01*
X228728865Y-94976020D01*
X228857123Y-94794206D01*
X228947446Y-94590864D01*
X228964119Y-94535874D01*
X229315881Y-94535874D01*
X229332554Y-94590864D01*
X229422877Y-94794206D01*
X229551135Y-94976020D01*
X229712399Y-95129318D01*
X229900471Y-95248210D01*
X230108124Y-95328126D01*
X230283000Y-95203129D01*
X230283000Y-94361000D01*
X230537000Y-94361000D01*
X230537000Y-95203129D01*
X230711876Y-95328126D01*
X230919529Y-95248210D01*
X231107601Y-95129318D01*
X231268865Y-94976020D01*
X231397123Y-94794206D01*
X231487446Y-94590864D01*
X231504119Y-94535874D01*
X231377954Y-94361000D01*
X230537000Y-94361000D01*
X230283000Y-94361000D01*
X229442046Y-94361000D01*
X229315881Y-94535874D01*
X228964119Y-94535874D01*
X228837954Y-94361000D01*
X227997000Y-94361000D01*
X227743000Y-94361000D01*
X226902046Y-94361000D01*
X226775881Y-94535874D01*
X226424119Y-94535874D01*
X226297954Y-94361000D01*
X225457000Y-94361000D01*
X225203000Y-94361000D01*
X224362046Y-94361000D01*
X224235881Y-94535874D01*
X223884119Y-94535874D01*
X223757954Y-94361000D01*
X222917000Y-94361000D01*
X222663000Y-94361000D01*
X221822046Y-94361000D01*
X221695881Y-94535874D01*
X192723645Y-94535874D01*
X192650475Y-94426368D01*
X192518620Y-94294513D01*
X192591180Y-94272502D01*
X192701494Y-94213537D01*
X192798185Y-94134185D01*
X192877537Y-94037494D01*
X192936502Y-93927180D01*
X192972812Y-93807482D01*
X192985072Y-93683000D01*
X192985072Y-91983000D01*
X192972812Y-91858518D01*
X192936502Y-91738820D01*
X192877537Y-91628506D01*
X192798185Y-91531815D01*
X192701494Y-91452463D01*
X192591180Y-91393498D01*
X192471482Y-91357188D01*
X192347000Y-91344928D01*
X190647000Y-91344928D01*
X190522518Y-91357188D01*
X190402820Y-91393498D01*
X190292506Y-91452463D01*
X190195815Y-91531815D01*
X190116463Y-91628506D01*
X190057498Y-91738820D01*
X190021188Y-91858518D01*
X190008928Y-91983000D01*
X188985072Y-91983000D01*
X188972812Y-91858518D01*
X188936502Y-91738820D01*
X188877537Y-91628506D01*
X188798185Y-91531815D01*
X188701494Y-91452463D01*
X188591180Y-91393498D01*
X188471482Y-91357188D01*
X188347000Y-91344928D01*
X186647000Y-91344928D01*
X186522518Y-91357188D01*
X186402820Y-91393498D01*
X186292506Y-91452463D01*
X186195815Y-91531815D01*
X186116463Y-91628506D01*
X186057498Y-91738820D01*
X186021188Y-91858518D01*
X186008928Y-91983000D01*
X184985072Y-91983000D01*
X184972812Y-91858518D01*
X184936502Y-91738820D01*
X184877537Y-91628506D01*
X184798185Y-91531815D01*
X184701494Y-91452463D01*
X184591180Y-91393498D01*
X184471482Y-91357188D01*
X184347000Y-91344928D01*
X183081700Y-91344928D01*
X183081700Y-91194000D01*
X221651928Y-91194000D01*
X221651928Y-92194000D01*
X221664188Y-92318482D01*
X221700498Y-92438180D01*
X221744888Y-92521226D01*
X221698617Y-92632933D01*
X221655000Y-92852212D01*
X221655000Y-93075788D01*
X221698617Y-93295067D01*
X221784176Y-93501624D01*
X221852353Y-93603658D01*
X221802877Y-93673794D01*
X221712554Y-93877136D01*
X221695881Y-93932126D01*
X221822046Y-94107000D01*
X222663000Y-94107000D01*
X222663000Y-94095974D01*
X222678212Y-94099000D01*
X222901788Y-94099000D01*
X222917000Y-94095974D01*
X222917000Y-94107000D01*
X223757954Y-94107000D01*
X223884119Y-93932126D01*
X223867446Y-93877136D01*
X223777123Y-93673794D01*
X223727647Y-93603658D01*
X223795824Y-93501624D01*
X223881383Y-93295067D01*
X223925000Y-93075788D01*
X223925000Y-92852212D01*
X223881383Y-92632933D01*
X223835112Y-92521226D01*
X223879502Y-92438180D01*
X223915812Y-92318482D01*
X223928072Y-92194000D01*
X223928072Y-91194000D01*
X224191928Y-91194000D01*
X224191928Y-92194000D01*
X224204188Y-92318482D01*
X224240498Y-92438180D01*
X224284888Y-92521226D01*
X224238617Y-92632933D01*
X224195000Y-92852212D01*
X224195000Y-93075788D01*
X224238617Y-93295067D01*
X224324176Y-93501624D01*
X224392353Y-93603658D01*
X224342877Y-93673794D01*
X224252554Y-93877136D01*
X224235881Y-93932126D01*
X224362046Y-94107000D01*
X225203000Y-94107000D01*
X225203000Y-94095974D01*
X225218212Y-94099000D01*
X225441788Y-94099000D01*
X225457000Y-94095974D01*
X225457000Y-94107000D01*
X226297954Y-94107000D01*
X226424119Y-93932126D01*
X226407446Y-93877136D01*
X226317123Y-93673794D01*
X226267647Y-93603658D01*
X226335824Y-93501624D01*
X226421383Y-93295067D01*
X226465000Y-93075788D01*
X226465000Y-92852212D01*
X226421383Y-92632933D01*
X226375112Y-92521226D01*
X226419502Y-92438180D01*
X226455812Y-92318482D01*
X226468072Y-92194000D01*
X226468072Y-91194000D01*
X226731928Y-91194000D01*
X226731928Y-92194000D01*
X226744188Y-92318482D01*
X226780498Y-92438180D01*
X226824888Y-92521226D01*
X226778617Y-92632933D01*
X226735000Y-92852212D01*
X226735000Y-93075788D01*
X226778617Y-93295067D01*
X226864176Y-93501624D01*
X226932353Y-93603658D01*
X226882877Y-93673794D01*
X226792554Y-93877136D01*
X226775881Y-93932126D01*
X226902046Y-94107000D01*
X227743000Y-94107000D01*
X227743000Y-94095974D01*
X227758212Y-94099000D01*
X227981788Y-94099000D01*
X227997000Y-94095974D01*
X227997000Y-94107000D01*
X228837954Y-94107000D01*
X228964119Y-93932126D01*
X228947446Y-93877136D01*
X228857123Y-93673794D01*
X228807647Y-93603658D01*
X228875824Y-93501624D01*
X228961383Y-93295067D01*
X229005000Y-93075788D01*
X229005000Y-92852212D01*
X228961383Y-92632933D01*
X228915112Y-92521226D01*
X228959502Y-92438180D01*
X228995812Y-92318482D01*
X229008072Y-92194000D01*
X229008072Y-91194000D01*
X229271928Y-91194000D01*
X229271928Y-92194000D01*
X229284188Y-92318482D01*
X229320498Y-92438180D01*
X229364888Y-92521226D01*
X229318617Y-92632933D01*
X229275000Y-92852212D01*
X229275000Y-93075788D01*
X229318617Y-93295067D01*
X229404176Y-93501624D01*
X229472353Y-93603658D01*
X229422877Y-93673794D01*
X229332554Y-93877136D01*
X229315881Y-93932126D01*
X229442046Y-94107000D01*
X230283000Y-94107000D01*
X230283000Y-94095974D01*
X230298212Y-94099000D01*
X230521788Y-94099000D01*
X230537000Y-94095974D01*
X230537000Y-94107000D01*
X231377954Y-94107000D01*
X231504119Y-93932126D01*
X231487446Y-93877136D01*
X231397123Y-93673794D01*
X231347647Y-93603658D01*
X231415824Y-93501624D01*
X231501383Y-93295067D01*
X231545000Y-93075788D01*
X231545000Y-92852212D01*
X231501383Y-92632933D01*
X231455112Y-92521226D01*
X231499502Y-92438180D01*
X231535812Y-92318482D01*
X231548072Y-92194000D01*
X231548072Y-91194000D01*
X231535812Y-91069518D01*
X231499502Y-90949820D01*
X231440537Y-90839506D01*
X231361185Y-90742815D01*
X231264494Y-90663463D01*
X231154180Y-90604498D01*
X231034482Y-90568188D01*
X230910000Y-90555928D01*
X229910000Y-90555928D01*
X229785518Y-90568188D01*
X229665820Y-90604498D01*
X229555506Y-90663463D01*
X229458815Y-90742815D01*
X229379463Y-90839506D01*
X229320498Y-90949820D01*
X229284188Y-91069518D01*
X229271928Y-91194000D01*
X229008072Y-91194000D01*
X228995812Y-91069518D01*
X228959502Y-90949820D01*
X228900537Y-90839506D01*
X228821185Y-90742815D01*
X228724494Y-90663463D01*
X228614180Y-90604498D01*
X228494482Y-90568188D01*
X228370000Y-90555928D01*
X227370000Y-90555928D01*
X227245518Y-90568188D01*
X227125820Y-90604498D01*
X227015506Y-90663463D01*
X226918815Y-90742815D01*
X226839463Y-90839506D01*
X226780498Y-90949820D01*
X226744188Y-91069518D01*
X226731928Y-91194000D01*
X226468072Y-91194000D01*
X226455812Y-91069518D01*
X226419502Y-90949820D01*
X226360537Y-90839506D01*
X226281185Y-90742815D01*
X226184494Y-90663463D01*
X226074180Y-90604498D01*
X225954482Y-90568188D01*
X225830000Y-90555928D01*
X224830000Y-90555928D01*
X224705518Y-90568188D01*
X224585820Y-90604498D01*
X224475506Y-90663463D01*
X224378815Y-90742815D01*
X224299463Y-90839506D01*
X224240498Y-90949820D01*
X224204188Y-91069518D01*
X224191928Y-91194000D01*
X223928072Y-91194000D01*
X223915812Y-91069518D01*
X223879502Y-90949820D01*
X223820537Y-90839506D01*
X223741185Y-90742815D01*
X223644494Y-90663463D01*
X223534180Y-90604498D01*
X223414482Y-90568188D01*
X223290000Y-90555928D01*
X222290000Y-90555928D01*
X222165518Y-90568188D01*
X222045820Y-90604498D01*
X221935506Y-90663463D01*
X221838815Y-90742815D01*
X221759463Y-90839506D01*
X221700498Y-90949820D01*
X221664188Y-91069518D01*
X221651928Y-91194000D01*
X183081700Y-91194000D01*
X183081700Y-87815022D01*
X183085376Y-87777699D01*
X183081700Y-87740376D01*
X183081700Y-87740367D01*
X183070703Y-87628714D01*
X183027246Y-87485453D01*
X182956674Y-87353424D01*
X182861701Y-87237699D01*
X182832703Y-87213901D01*
X182010863Y-86392061D01*
X221526400Y-86392061D01*
X221526400Y-86595939D01*
X221566174Y-86795898D01*
X221644195Y-86984256D01*
X221757463Y-87153774D01*
X221901626Y-87297937D01*
X222071144Y-87411205D01*
X222259502Y-87489226D01*
X222459461Y-87529000D01*
X222663339Y-87529000D01*
X222863298Y-87489226D01*
X223051656Y-87411205D01*
X223221174Y-87297937D01*
X223365337Y-87153774D01*
X223478605Y-86984256D01*
X223556626Y-86795898D01*
X223596400Y-86595939D01*
X223596400Y-86392061D01*
X223556626Y-86192102D01*
X223478605Y-86003744D01*
X223365337Y-85834226D01*
X223221174Y-85690063D01*
X223051656Y-85576795D01*
X222863298Y-85498774D01*
X222663339Y-85459000D01*
X222459461Y-85459000D01*
X222259502Y-85498774D01*
X222071144Y-85576795D01*
X221901626Y-85690063D01*
X221757463Y-85834226D01*
X221644195Y-86003744D01*
X221566174Y-86192102D01*
X221526400Y-86392061D01*
X182010863Y-86392061D01*
X175777163Y-80158361D01*
X232033000Y-80158361D01*
X232033000Y-80362239D01*
X232072774Y-80562198D01*
X232150795Y-80750556D01*
X232264063Y-80920074D01*
X232408226Y-81064237D01*
X232577744Y-81177505D01*
X232766102Y-81255526D01*
X232966061Y-81295300D01*
X233169939Y-81295300D01*
X233369898Y-81255526D01*
X233558256Y-81177505D01*
X233727774Y-81064237D01*
X233871937Y-80920074D01*
X233985205Y-80750556D01*
X234063226Y-80562198D01*
X234103000Y-80362239D01*
X234103000Y-80158361D01*
X234063226Y-79958402D01*
X233985205Y-79770044D01*
X233871937Y-79600526D01*
X233727774Y-79456363D01*
X233558256Y-79343095D01*
X233369898Y-79265074D01*
X233169939Y-79225300D01*
X232966061Y-79225300D01*
X232766102Y-79265074D01*
X232577744Y-79343095D01*
X232408226Y-79456363D01*
X232264063Y-79600526D01*
X232150795Y-79770044D01*
X232072774Y-79958402D01*
X232033000Y-80158361D01*
X175777163Y-80158361D01*
X171079570Y-75460769D01*
X171108299Y-75316342D01*
X171108299Y-75043658D01*
X171839699Y-75043658D01*
X171839699Y-75316342D01*
X171892897Y-75583785D01*
X171997248Y-75835712D01*
X172148743Y-76062440D01*
X172341559Y-76255256D01*
X172568287Y-76406751D01*
X172820214Y-76511102D01*
X173087657Y-76564300D01*
X173360341Y-76564300D01*
X173627784Y-76511102D01*
X173879711Y-76406751D01*
X174106439Y-76255256D01*
X174225202Y-76136493D01*
X175947112Y-76136493D01*
X176012552Y-76375290D01*
X176259412Y-76491120D01*
X176524126Y-76556564D01*
X176796521Y-76569107D01*
X177066129Y-76528268D01*
X177322589Y-76435615D01*
X177435448Y-76375290D01*
X177500888Y-76136493D01*
X176724000Y-75359605D01*
X175947112Y-76136493D01*
X174225202Y-76136493D01*
X174299255Y-76062440D01*
X174450750Y-75835712D01*
X174555101Y-75583785D01*
X174608299Y-75316342D01*
X174608299Y-75252521D01*
X175334893Y-75252521D01*
X175375732Y-75522129D01*
X175468385Y-75778589D01*
X175528710Y-75891448D01*
X175767507Y-75956888D01*
X176544395Y-75180000D01*
X176903605Y-75180000D01*
X177680493Y-75956888D01*
X177919290Y-75891448D01*
X178035120Y-75644588D01*
X178100564Y-75379874D01*
X178113107Y-75107479D01*
X178103440Y-75043658D01*
X181839698Y-75043658D01*
X181839698Y-75316342D01*
X181892896Y-75583785D01*
X181997247Y-75835712D01*
X182148742Y-76062440D01*
X182341558Y-76255256D01*
X182568286Y-76406751D01*
X182820213Y-76511102D01*
X183087656Y-76564300D01*
X183360340Y-76564300D01*
X183627783Y-76511102D01*
X183879710Y-76406751D01*
X184106438Y-76255256D01*
X184299254Y-76062440D01*
X184450749Y-75835712D01*
X184555100Y-75583785D01*
X184608298Y-75316342D01*
X184608298Y-75043658D01*
X185339699Y-75043658D01*
X185339699Y-75316342D01*
X185392897Y-75583785D01*
X185497248Y-75835712D01*
X185648743Y-76062440D01*
X185841559Y-76255256D01*
X186068287Y-76406751D01*
X186320214Y-76511102D01*
X186587657Y-76564300D01*
X186860341Y-76564300D01*
X187127784Y-76511102D01*
X187379711Y-76406751D01*
X187606439Y-76255256D01*
X187725202Y-76136493D01*
X189447111Y-76136493D01*
X189512551Y-76375290D01*
X189759411Y-76491120D01*
X190024125Y-76556564D01*
X190296520Y-76569107D01*
X190566128Y-76528268D01*
X190822588Y-76435615D01*
X190935447Y-76375290D01*
X191000887Y-76136493D01*
X190223999Y-75359605D01*
X189447111Y-76136493D01*
X187725202Y-76136493D01*
X187799255Y-76062440D01*
X187950750Y-75835712D01*
X188055101Y-75583785D01*
X188108299Y-75316342D01*
X188108299Y-75252521D01*
X188834892Y-75252521D01*
X188875731Y-75522129D01*
X188968384Y-75778589D01*
X189028709Y-75891448D01*
X189267506Y-75956888D01*
X190044394Y-75180000D01*
X190403604Y-75180000D01*
X191180492Y-75956888D01*
X191419289Y-75891448D01*
X191535119Y-75644588D01*
X191600563Y-75379874D01*
X191613106Y-75107479D01*
X191603439Y-75043658D01*
X192339700Y-75043658D01*
X192339700Y-75316342D01*
X192392898Y-75583785D01*
X192497249Y-75835712D01*
X192648744Y-76062440D01*
X192841560Y-76255256D01*
X193068288Y-76406751D01*
X193320215Y-76511102D01*
X193587658Y-76564300D01*
X193860342Y-76564300D01*
X194127785Y-76511102D01*
X194379712Y-76406751D01*
X194606440Y-76255256D01*
X194799256Y-76062440D01*
X194950751Y-75835712D01*
X195055102Y-75583785D01*
X195108300Y-75316342D01*
X195108300Y-75043658D01*
X198839698Y-75043658D01*
X198839698Y-75316342D01*
X198892896Y-75583785D01*
X198997247Y-75835712D01*
X199148742Y-76062440D01*
X199341558Y-76255256D01*
X199568286Y-76406751D01*
X199820213Y-76511102D01*
X200087656Y-76564300D01*
X200360340Y-76564300D01*
X200627783Y-76511102D01*
X200879710Y-76406751D01*
X201106438Y-76255256D01*
X201225201Y-76136493D01*
X202947111Y-76136493D01*
X203012551Y-76375290D01*
X203259411Y-76491120D01*
X203524125Y-76556564D01*
X203796520Y-76569107D01*
X204066128Y-76528268D01*
X204322588Y-76435615D01*
X204435447Y-76375290D01*
X204500887Y-76136493D01*
X203723999Y-75359605D01*
X202947111Y-76136493D01*
X201225201Y-76136493D01*
X201299254Y-76062440D01*
X201450749Y-75835712D01*
X201555100Y-75583785D01*
X201608298Y-75316342D01*
X201608298Y-75252521D01*
X202334892Y-75252521D01*
X202375731Y-75522129D01*
X202468384Y-75778589D01*
X202528709Y-75891448D01*
X202767506Y-75956888D01*
X203544394Y-75180000D01*
X203903604Y-75180000D01*
X204680492Y-75956888D01*
X204919289Y-75891448D01*
X205035119Y-75644588D01*
X205100563Y-75379874D01*
X205113106Y-75107479D01*
X205103439Y-75043658D01*
X205839699Y-75043658D01*
X205839699Y-75316342D01*
X205892897Y-75583785D01*
X205997248Y-75835712D01*
X206148743Y-76062440D01*
X206341559Y-76255256D01*
X206568287Y-76406751D01*
X206820214Y-76511102D01*
X207087657Y-76564300D01*
X207360341Y-76564300D01*
X207627784Y-76511102D01*
X207879711Y-76406751D01*
X208106439Y-76255256D01*
X208299255Y-76062440D01*
X208450750Y-75835712D01*
X208555101Y-75583785D01*
X208608299Y-75316342D01*
X208608299Y-75043658D01*
X209339700Y-75043658D01*
X209339700Y-75316342D01*
X209392898Y-75583785D01*
X209497249Y-75835712D01*
X209648744Y-76062440D01*
X209841560Y-76255256D01*
X210068288Y-76406751D01*
X210320215Y-76511102D01*
X210587658Y-76564300D01*
X210860342Y-76564300D01*
X211127785Y-76511102D01*
X211379712Y-76406751D01*
X211606440Y-76255256D01*
X211799256Y-76062440D01*
X211950751Y-75835712D01*
X212055102Y-75583785D01*
X212108300Y-75316342D01*
X212108300Y-75043658D01*
X212055102Y-74776215D01*
X211950751Y-74524288D01*
X211799256Y-74297560D01*
X211606440Y-74104744D01*
X211379712Y-73953249D01*
X211127785Y-73848898D01*
X210860342Y-73795700D01*
X210587658Y-73795700D01*
X210320215Y-73848898D01*
X210068288Y-73953249D01*
X209841560Y-74104744D01*
X209648744Y-74297560D01*
X209497249Y-74524288D01*
X209392898Y-74776215D01*
X209339700Y-75043658D01*
X208608299Y-75043658D01*
X208555101Y-74776215D01*
X208450750Y-74524288D01*
X208299255Y-74297560D01*
X208106439Y-74104744D01*
X207879711Y-73953249D01*
X207627784Y-73848898D01*
X207360341Y-73795700D01*
X207087657Y-73795700D01*
X206820214Y-73848898D01*
X206568287Y-73953249D01*
X206341559Y-74104744D01*
X206148743Y-74297560D01*
X205997248Y-74524288D01*
X205892897Y-74776215D01*
X205839699Y-75043658D01*
X205103439Y-75043658D01*
X205072267Y-74837871D01*
X204979614Y-74581411D01*
X204919289Y-74468552D01*
X204680492Y-74403112D01*
X203903604Y-75180000D01*
X203544394Y-75180000D01*
X202767506Y-74403112D01*
X202528709Y-74468552D01*
X202412879Y-74715412D01*
X202347435Y-74980126D01*
X202334892Y-75252521D01*
X201608298Y-75252521D01*
X201608298Y-75043658D01*
X201555100Y-74776215D01*
X201450749Y-74524288D01*
X201299254Y-74297560D01*
X201225201Y-74223507D01*
X202947111Y-74223507D01*
X203723999Y-75000395D01*
X204500887Y-74223507D01*
X204435447Y-73984710D01*
X204188587Y-73868880D01*
X203923873Y-73803436D01*
X203651478Y-73790893D01*
X203381870Y-73831732D01*
X203125410Y-73924385D01*
X203012551Y-73984710D01*
X202947111Y-74223507D01*
X201225201Y-74223507D01*
X201106438Y-74104744D01*
X200879710Y-73953249D01*
X200627783Y-73848898D01*
X200360340Y-73795700D01*
X200087656Y-73795700D01*
X199820213Y-73848898D01*
X199568286Y-73953249D01*
X199341558Y-74104744D01*
X199148742Y-74297560D01*
X198997247Y-74524288D01*
X198892896Y-74776215D01*
X198839698Y-75043658D01*
X195108300Y-75043658D01*
X195055102Y-74776215D01*
X194950751Y-74524288D01*
X194799256Y-74297560D01*
X194606440Y-74104744D01*
X194379712Y-73953249D01*
X194127785Y-73848898D01*
X193860342Y-73795700D01*
X193587658Y-73795700D01*
X193320215Y-73848898D01*
X193068288Y-73953249D01*
X192841560Y-74104744D01*
X192648744Y-74297560D01*
X192497249Y-74524288D01*
X192392898Y-74776215D01*
X192339700Y-75043658D01*
X191603439Y-75043658D01*
X191572267Y-74837871D01*
X191479614Y-74581411D01*
X191419289Y-74468552D01*
X191180492Y-74403112D01*
X190403604Y-75180000D01*
X190044394Y-75180000D01*
X189267506Y-74403112D01*
X189028709Y-74468552D01*
X188912879Y-74715412D01*
X188847435Y-74980126D01*
X188834892Y-75252521D01*
X188108299Y-75252521D01*
X188108299Y-75043658D01*
X188055101Y-74776215D01*
X187950750Y-74524288D01*
X187799255Y-74297560D01*
X187725202Y-74223507D01*
X189447111Y-74223507D01*
X190223999Y-75000395D01*
X191000887Y-74223507D01*
X190935447Y-73984710D01*
X190688587Y-73868880D01*
X190423873Y-73803436D01*
X190151478Y-73790893D01*
X189881870Y-73831732D01*
X189625410Y-73924385D01*
X189512551Y-73984710D01*
X189447111Y-74223507D01*
X187725202Y-74223507D01*
X187606439Y-74104744D01*
X187379711Y-73953249D01*
X187127784Y-73848898D01*
X186860341Y-73795700D01*
X186587657Y-73795700D01*
X186320214Y-73848898D01*
X186068287Y-73953249D01*
X185841559Y-74104744D01*
X185648743Y-74297560D01*
X185497248Y-74524288D01*
X185392897Y-74776215D01*
X185339699Y-75043658D01*
X184608298Y-75043658D01*
X184555100Y-74776215D01*
X184450749Y-74524288D01*
X184299254Y-74297560D01*
X184106438Y-74104744D01*
X183879710Y-73953249D01*
X183627783Y-73848898D01*
X183360340Y-73795700D01*
X183087656Y-73795700D01*
X182820213Y-73848898D01*
X182568286Y-73953249D01*
X182341558Y-74104744D01*
X182148742Y-74297560D01*
X181997247Y-74524288D01*
X181892896Y-74776215D01*
X181839698Y-75043658D01*
X178103440Y-75043658D01*
X178072268Y-74837871D01*
X177979615Y-74581411D01*
X177919290Y-74468552D01*
X177680493Y-74403112D01*
X176903605Y-75180000D01*
X176544395Y-75180000D01*
X175767507Y-74403112D01*
X175528710Y-74468552D01*
X175412880Y-74715412D01*
X175347436Y-74980126D01*
X175334893Y-75252521D01*
X174608299Y-75252521D01*
X174608299Y-75043658D01*
X174555101Y-74776215D01*
X174450750Y-74524288D01*
X174299255Y-74297560D01*
X174225202Y-74223507D01*
X175947112Y-74223507D01*
X176724000Y-75000395D01*
X177500888Y-74223507D01*
X177435448Y-73984710D01*
X177188588Y-73868880D01*
X176923874Y-73803436D01*
X176651479Y-73790893D01*
X176381871Y-73831732D01*
X176125411Y-73924385D01*
X176012552Y-73984710D01*
X175947112Y-74223507D01*
X174225202Y-74223507D01*
X174106439Y-74104744D01*
X173879711Y-73953249D01*
X173627784Y-73848898D01*
X173360341Y-73795700D01*
X173087657Y-73795700D01*
X172820214Y-73848898D01*
X172568287Y-73953249D01*
X172341559Y-74104744D01*
X172148743Y-74297560D01*
X171997248Y-74524288D01*
X171892897Y-74776215D01*
X171839699Y-75043658D01*
X171108299Y-75043658D01*
X171055101Y-74776215D01*
X170950750Y-74524288D01*
X170799255Y-74297560D01*
X170606439Y-74104744D01*
X170379711Y-73953249D01*
X170127784Y-73848898D01*
X169860341Y-73795700D01*
X169587657Y-73795700D01*
X169320214Y-73848898D01*
X169068287Y-73953249D01*
X168841559Y-74104744D01*
X168648743Y-74297560D01*
X168497248Y-74524288D01*
X168392897Y-74776215D01*
X168339699Y-75043658D01*
X167603438Y-75043658D01*
X167572266Y-74837871D01*
X167479613Y-74581411D01*
X167419288Y-74468552D01*
X167180491Y-74403112D01*
X166403603Y-75180000D01*
X166044393Y-75180000D01*
X165267505Y-74403112D01*
X165028708Y-74468552D01*
X164912878Y-74715412D01*
X164847434Y-74980126D01*
X164834891Y-75252521D01*
X160685000Y-75252521D01*
X160685000Y-74223507D01*
X165447110Y-74223507D01*
X166223998Y-75000395D01*
X167000886Y-74223507D01*
X166935446Y-73984710D01*
X166688586Y-73868880D01*
X166423872Y-73803436D01*
X166151477Y-73790893D01*
X165881869Y-73831732D01*
X165625409Y-73924385D01*
X165512550Y-73984710D01*
X165447110Y-74223507D01*
X160685000Y-74223507D01*
X160685000Y-73533504D01*
X160741834Y-72953869D01*
X160900441Y-72428538D01*
X161158064Y-71944020D01*
X161504889Y-71518769D01*
X161927711Y-71168980D01*
X162410414Y-70907984D01*
X162934628Y-70745713D01*
X163512271Y-70685000D01*
X241466496Y-70685000D01*
X242046131Y-70741834D01*
G37*
%TD.AperFunction*%
%TD*%
M02*
