%TF.GenerationSoftware,KiCad,Pcbnew,(5.1.10)-1*%
%TF.CreationDate,2022-02-05T10:08:01-05:00*%
%TF.ProjectId,RevA,52657641-2e6b-4696-9361-645f70636258,rev?*%
%TF.SameCoordinates,Original*%
%TF.FileFunction,Copper,L2,Bot*%
%TF.FilePolarity,Positive*%
%FSLAX46Y46*%
G04 Gerber Fmt 4.6, Leading zero omitted, Abs format (unit mm)*
G04 Created by KiCad (PCBNEW (5.1.10)-1) date 2022-02-05 10:08:01*
%MOMM*%
%LPD*%
G01*
G04 APERTURE LIST*
%TA.AperFunction,ComponentPad*%
%ADD10R,1.700000X1.700000*%
%TD*%
%TA.AperFunction,ComponentPad*%
%ADD11O,1.700000X1.700000*%
%TD*%
%TA.AperFunction,ComponentPad*%
%ADD12C,1.498600*%
%TD*%
%TA.AperFunction,Conductor*%
%ADD13C,0.250000*%
%TD*%
%TA.AperFunction,Conductor*%
%ADD14C,0.254000*%
%TD*%
%TA.AperFunction,Conductor*%
%ADD15C,0.100000*%
%TD*%
G04 APERTURE END LIST*
D10*
%TO.P,J1,1*%
%TO.N,/3.3V*%
X163000000Y-86570000D03*
D11*
%TO.P,J1,2*%
%TO.N,Net-(J1-Pad2)*%
X165540000Y-86570000D03*
%TO.P,J1,3*%
%TO.N,/I2C_Data*%
X163000000Y-89110000D03*
%TO.P,J1,4*%
%TO.N,Net-(J1-Pad4)*%
X165540000Y-89110000D03*
%TO.P,J1,5*%
%TO.N,/I2C_Clock*%
X163000000Y-91650000D03*
%TO.P,J1,6*%
%TO.N,/GND*%
X165540000Y-91650000D03*
%TO.P,J1,7*%
%TO.N,Net-(J1-Pad7)*%
X163000000Y-94190000D03*
%TO.P,J1,8*%
%TO.N,Net-(J1-Pad8)*%
X165540000Y-94190000D03*
%TO.P,J1,9*%
%TO.N,/GND*%
X163000000Y-96730000D03*
%TO.P,J1,10*%
%TO.N,Net-(J1-Pad10)*%
X165540000Y-96730000D03*
%TO.P,J1,11*%
%TO.N,Net-(J1-Pad11)*%
X163000000Y-99270000D03*
%TO.P,J1,12*%
%TO.N,Net-(J1-Pad12)*%
X165540000Y-99270000D03*
%TO.P,J1,13*%
%TO.N,Net-(J1-Pad13)*%
X163000000Y-101810000D03*
%TO.P,J1,14*%
%TO.N,/GND*%
X165540000Y-101810000D03*
%TO.P,J1,15*%
%TO.N,Net-(J1-Pad15)*%
X163000000Y-104350000D03*
%TO.P,J1,16*%
%TO.N,Net-(J1-Pad16)*%
X165540000Y-104350000D03*
%TO.P,J1,17*%
%TO.N,/3.3V*%
X163000000Y-106890000D03*
%TO.P,J1,18*%
%TO.N,Net-(J1-Pad18)*%
X165540000Y-106890000D03*
%TO.P,J1,19*%
%TO.N,Net-(J1-Pad19)*%
X163000000Y-109430000D03*
%TO.P,J1,20*%
%TO.N,/GND*%
X165540000Y-109430000D03*
%TD*%
D10*
%TO.P,J2,1*%
%TO.N,Net-(J2-Pad1)*%
X239500000Y-84030000D03*
D11*
%TO.P,J2,2*%
%TO.N,Net-(J2-Pad2)*%
X242040000Y-84030000D03*
%TO.P,J2,3*%
%TO.N,Net-(J2-Pad3)*%
X239500000Y-86570000D03*
%TO.P,J2,4*%
%TO.N,Net-(J2-Pad4)*%
X242040000Y-86570000D03*
%TO.P,J2,5*%
%TO.N,/GND*%
X239500000Y-89110000D03*
%TO.P,J2,6*%
%TO.N,Net-(J2-Pad6)*%
X242040000Y-89110000D03*
%TO.P,J2,7*%
%TO.N,Net-(J2-Pad7)*%
X239500000Y-91650000D03*
%TO.P,J2,8*%
%TO.N,Net-(J2-Pad8)*%
X242040000Y-91650000D03*
%TO.P,J2,9*%
%TO.N,Net-(J2-Pad9)*%
X239500000Y-94190000D03*
%TO.P,J2,10*%
%TO.N,/GND*%
X242040000Y-94190000D03*
%TO.P,J2,11*%
%TO.N,Net-(J2-Pad11)*%
X239500000Y-96730000D03*
%TO.P,J2,12*%
%TO.N,Net-(J2-Pad12)*%
X242040000Y-96730000D03*
%TO.P,J2,13*%
%TO.N,Net-(J2-Pad13)*%
X239500000Y-99270000D03*
%TO.P,J2,14*%
%TO.N,/GND*%
X242040000Y-99270000D03*
%TO.P,J2,15*%
%TO.N,Net-(J2-Pad15)*%
X239500000Y-101810000D03*
%TO.P,J2,16*%
%TO.N,Net-(J2-Pad16)*%
X242040000Y-101810000D03*
%TO.P,J2,17*%
%TO.N,Net-(J2-Pad17)*%
X239500000Y-104350000D03*
%TO.P,J2,18*%
%TO.N,Net-(J2-Pad18)*%
X242040000Y-104350000D03*
%TO.P,J2,19*%
%TO.N,/GND*%
X239500000Y-106890000D03*
%TO.P,J2,20*%
%TO.N,Net-(J2-Pad20)*%
X242040000Y-106890000D03*
%TO.P,J2,21*%
%TO.N,/Interconnect*%
X239500000Y-109430000D03*
%TO.P,J2,22*%
%TO.N,/Reset*%
X242040000Y-109430000D03*
%TO.P,J2,23*%
%TO.N,/VCC*%
X239500000Y-111970000D03*
%TO.P,J2,24*%
X242040000Y-111970000D03*
%TD*%
%TO.P,J4,3*%
%TO.N,Net-(J4-Pad3)*%
X177250000Y-97620000D03*
%TO.P,J4,2*%
%TO.N,/Digital_0*%
X177250000Y-95080000D03*
D10*
%TO.P,J4,1*%
%TO.N,Net-(J4-Pad1)*%
X177250000Y-92540000D03*
%TD*%
D11*
%TO.P,J6,3*%
%TO.N,Net-(J6-Pad3)*%
X182250000Y-97620000D03*
%TO.P,J6,2*%
%TO.N,/Digital_1*%
X182250000Y-95080000D03*
D10*
%TO.P,J6,1*%
%TO.N,Net-(J6-Pad1)*%
X182250000Y-92540000D03*
%TD*%
D11*
%TO.P,J8,3*%
%TO.N,Net-(J8-Pad3)*%
X187250000Y-97620000D03*
%TO.P,J8,2*%
%TO.N,/Digital_2*%
X187250000Y-95080000D03*
D10*
%TO.P,J8,1*%
%TO.N,Net-(J8-Pad1)*%
X187250000Y-92540000D03*
%TD*%
D11*
%TO.P,J10,3*%
%TO.N,Net-(J10-Pad3)*%
X192250000Y-97620000D03*
%TO.P,J10,2*%
%TO.N,/Digital_3*%
X192250000Y-95080000D03*
D10*
%TO.P,J10,1*%
%TO.N,Net-(J10-Pad1)*%
X192250000Y-92540000D03*
%TD*%
%TO.P,J11,1*%
%TO.N,Net-(J11-Pad1)*%
X217760000Y-77000000D03*
D11*
%TO.P,J11,2*%
%TO.N,Net-(J11-Pad2)*%
X217760000Y-79540000D03*
%TO.P,J11,3*%
%TO.N,/Reset*%
X217760000Y-82080000D03*
%TO.P,J11,4*%
%TO.N,/GND*%
X217760000Y-84620000D03*
%TO.P,J11,5*%
%TO.N,/Digital_0*%
X217760000Y-87160000D03*
%TO.P,J11,6*%
%TO.N,/Digital_1*%
X217760000Y-89700000D03*
%TO.P,J11,7*%
%TO.N,/Digital_2*%
X217760000Y-92240000D03*
%TO.P,J11,8*%
%TO.N,/Digital_3*%
X217760000Y-94780000D03*
%TO.P,J11,9*%
%TO.N,/Controller/D6*%
X217760000Y-97320000D03*
%TO.P,J11,10*%
%TO.N,/Controller/D7*%
X217760000Y-99860000D03*
%TO.P,J11,11*%
%TO.N,/Controller/D8*%
X217760000Y-102400000D03*
%TO.P,J11,12*%
%TO.N,/Controller/D9*%
X217760000Y-104940000D03*
%TO.P,J11,13*%
%TO.N,/Controller/D10*%
X217760000Y-107480000D03*
%TO.P,J11,14*%
%TO.N,/Controller/D11*%
X217760000Y-110020000D03*
%TO.P,J11,15*%
%TO.N,/Controller/D12*%
X217760000Y-112560000D03*
%TD*%
%TO.P,J12,15*%
%TO.N,/Controller/D13*%
X233000000Y-112560000D03*
%TO.P,J12,14*%
%TO.N,Net-(J12-Pad14)*%
X233000000Y-110020000D03*
%TO.P,J12,13*%
%TO.N,Net-(J12-Pad13)*%
X233000000Y-107480000D03*
%TO.P,J12,12*%
%TO.N,/Analog_0*%
X233000000Y-104940000D03*
%TO.P,J12,11*%
%TO.N,/Analog_1*%
X233000000Y-102400000D03*
%TO.P,J12,10*%
%TO.N,/Analog_2*%
X233000000Y-99860000D03*
%TO.P,J12,9*%
%TO.N,/Analog_3*%
X233000000Y-97320000D03*
%TO.P,J12,8*%
%TO.N,/I2C_Data*%
X233000000Y-94780000D03*
%TO.P,J12,7*%
%TO.N,/I2C_Clock*%
X233000000Y-92240000D03*
%TO.P,J12,6*%
%TO.N,/Controller/A6*%
X233000000Y-89700000D03*
%TO.P,J12,5*%
%TO.N,/Controller/A7*%
X233000000Y-87160000D03*
%TO.P,J12,4*%
%TO.N,Net-(J12-Pad4)*%
X233000000Y-84620000D03*
%TO.P,J12,3*%
%TO.N,Net-(J12-Pad3)*%
X233000000Y-82080000D03*
%TO.P,J12,2*%
%TO.N,/GND*%
X233000000Y-79540000D03*
D10*
%TO.P,J12,1*%
%TO.N,/5V*%
X233000000Y-77000000D03*
%TD*%
%TO.P,J13,1*%
%TO.N,/5V*%
X226822000Y-101600000D03*
D11*
%TO.P,J13,2*%
%TO.N,/Controller/A7*%
X224282000Y-101600000D03*
%TO.P,J13,3*%
%TO.N,/Controller/A6*%
X226822000Y-99060000D03*
%TO.P,J13,4*%
%TO.N,/Controller/D11*%
X224282000Y-99060000D03*
%TO.P,J13,5*%
%TO.N,/Controller/D12*%
X226822000Y-96520000D03*
%TO.P,J13,6*%
%TO.N,/GND*%
X224282000Y-96520000D03*
%TD*%
D12*
%TO.P,J3,4*%
%TO.N,/Digital_1*%
X181323998Y-75946000D03*
%TO.P,J3,3*%
%TO.N,/GND*%
X184823999Y-75946000D03*
%TO.P,J3,2*%
%TO.N,/5V*%
X188323999Y-75946000D03*
%TO.P,J3,1*%
%TO.N,/Digital_2*%
X191824000Y-75946000D03*
%TD*%
%TO.P,J5,1*%
%TO.N,/5V*%
X174824000Y-75946000D03*
%TO.P,J5,2*%
%TO.N,/GND*%
X171323999Y-75946000D03*
%TO.P,J5,3*%
%TO.N,/Digital_0*%
X167823999Y-75946000D03*
%TO.P,J5,4*%
%TO.N,/5V*%
X164323998Y-75946000D03*
%TD*%
%TO.P,J7,4*%
%TO.N,/GND*%
X198323998Y-75946000D03*
%TO.P,J7,3*%
%TO.N,/5V*%
X201823999Y-75946000D03*
%TO.P,J7,2*%
%TO.N,/Digital_3*%
X205323999Y-75946000D03*
%TO.P,J7,1*%
%TO.N,/GND*%
X208824000Y-75946000D03*
%TD*%
%TO.P,J9,1*%
%TO.N,/5V*%
X164628000Y-120142000D03*
%TO.P,J9,2*%
%TO.N,/Analog_0*%
X168128001Y-120142000D03*
%TO.P,J9,3*%
%TO.N,/GND*%
X171628001Y-120142000D03*
%TO.P,J9,4*%
%TO.N,/5V*%
X175128002Y-120142000D03*
%TD*%
%TO.P,J14,1*%
%TO.N,/GND*%
X198628000Y-120142000D03*
%TO.P,J14,2*%
%TO.N,/5V*%
X202128001Y-120142000D03*
%TO.P,J14,3*%
%TO.N,/Analog_3*%
X205628001Y-120142000D03*
%TO.P,J14,4*%
%TO.N,/GND*%
X209128002Y-120142000D03*
%TD*%
%TO.P,J16,1*%
%TO.N,/Analog_1*%
X181628000Y-120142000D03*
%TO.P,J16,2*%
%TO.N,/GND*%
X185128001Y-120142000D03*
%TO.P,J16,3*%
%TO.N,/5V*%
X188628001Y-120142000D03*
%TO.P,J16,4*%
%TO.N,/Analog_2*%
X192128002Y-120142000D03*
%TD*%
D13*
%TO.N,/3.3V*%
X163000000Y-86570000D02*
X163000000Y-87745300D01*
X163000000Y-106890000D02*
X163000000Y-105714700D01*
X163000000Y-105714700D02*
X163367300Y-105714700D01*
X163367300Y-105714700D02*
X164175300Y-104906700D01*
X164175300Y-104906700D02*
X164175300Y-88553200D01*
X164175300Y-88553200D02*
X163367400Y-87745300D01*
X163367400Y-87745300D02*
X163000000Y-87745300D01*
%TO.N,/Reset*%
X242040000Y-109430000D02*
X242040000Y-108254700D01*
X217760000Y-82080000D02*
X218935300Y-82080000D01*
X218935300Y-82080000D02*
X222745300Y-85890000D01*
X222745300Y-85890000D02*
X233392900Y-85890000D01*
X233392900Y-85890000D02*
X237931000Y-90428100D01*
X237931000Y-90428100D02*
X237931000Y-104443500D01*
X237931000Y-104443500D02*
X239202100Y-105714600D01*
X239202100Y-105714600D02*
X240025600Y-105714600D01*
X240025600Y-105714600D02*
X240864700Y-106553700D01*
X240864700Y-106553700D02*
X240864700Y-107446800D01*
X240864700Y-107446800D02*
X241672600Y-108254700D01*
X241672600Y-108254700D02*
X242040000Y-108254700D01*
%TO.N,/Digital_0*%
X177250000Y-95080000D02*
X178425300Y-95080000D01*
X217760000Y-87160000D02*
X208900000Y-87160000D01*
X208900000Y-87160000D02*
X199804700Y-96255300D01*
X199804700Y-96255300D02*
X179600600Y-96255300D01*
X179600600Y-96255300D02*
X178425300Y-95080000D01*
X177250000Y-95080000D02*
X177250000Y-93904700D01*
X167824000Y-75946000D02*
X167824000Y-85286700D01*
X167824000Y-85286700D02*
X176442000Y-93904700D01*
X176442000Y-93904700D02*
X177250000Y-93904700D01*
%TO.N,/Digital_1*%
X182250000Y-95080000D02*
X182250000Y-93904700D01*
X181324000Y-75946000D02*
X181074700Y-76195300D01*
X181074700Y-76195300D02*
X181074700Y-93537500D01*
X181074700Y-93537500D02*
X181441900Y-93904700D01*
X181441900Y-93904700D02*
X182250000Y-93904700D01*
%TO.N,/Digital_2*%
X187250000Y-95080000D02*
X187250000Y-93904700D01*
X191824000Y-75946000D02*
X191824000Y-90138700D01*
X191824000Y-90138700D02*
X188058000Y-93904700D01*
X188058000Y-93904700D02*
X187250000Y-93904700D01*
%TO.N,/Digital_3*%
X205324000Y-81638700D02*
X193058000Y-93904700D01*
X193058000Y-93904700D02*
X192250000Y-93904700D01*
X205324000Y-75946000D02*
X205324000Y-81638700D01*
X205324000Y-81638700D02*
X209575300Y-85890000D01*
X209575300Y-85890000D02*
X218166400Y-85890000D01*
X218166400Y-85890000D02*
X218935300Y-86658900D01*
X218935300Y-86658900D02*
X218935300Y-92796800D01*
X218935300Y-92796800D02*
X218127400Y-93604700D01*
X218127400Y-93604700D02*
X217760000Y-93604700D01*
X217760000Y-94780000D02*
X217760000Y-93604700D01*
X192250000Y-95080000D02*
X192250000Y-93904700D01*
%TO.N,/Controller/D11*%
X217760000Y-110020000D02*
X217760000Y-108844700D01*
X224282000Y-99060000D02*
X224282000Y-100235300D01*
X224282000Y-100235300D02*
X223914600Y-100235300D01*
X223914600Y-100235300D02*
X218935300Y-105214600D01*
X218935300Y-105214600D02*
X218935300Y-108036800D01*
X218935300Y-108036800D02*
X218127400Y-108844700D01*
X218127400Y-108844700D02*
X217760000Y-108844700D01*
%TO.N,/Controller/D12*%
X226822000Y-96520000D02*
X226822000Y-97695300D01*
X226822000Y-97695300D02*
X227189300Y-97695300D01*
X227189300Y-97695300D02*
X227997400Y-98503400D01*
X227997400Y-98503400D02*
X227997400Y-102632200D01*
X227997400Y-102632200D02*
X218069600Y-112560000D01*
X218069600Y-112560000D02*
X217760000Y-112560000D01*
%TO.N,/Analog_0*%
X233000000Y-104940000D02*
X231824700Y-104940000D01*
X168128000Y-120142000D02*
X169719000Y-121733000D01*
X169719000Y-121733000D02*
X215031700Y-121733000D01*
X215031700Y-121733000D02*
X231824700Y-104940000D01*
%TO.N,/Analog_1*%
X233000000Y-102400000D02*
X231824700Y-102400000D01*
X181628000Y-120142000D02*
X182702700Y-121216700D01*
X182702700Y-121216700D02*
X213008000Y-121216700D01*
X213008000Y-121216700D02*
X231824700Y-102400000D01*
%TO.N,/Analog_3*%
X233000000Y-97320000D02*
X233000000Y-98495300D01*
X205628000Y-120142000D02*
X211695100Y-114074900D01*
X211695100Y-114074900D02*
X217912800Y-114074900D01*
X217912800Y-114074900D02*
X231824700Y-100163000D01*
X231824700Y-100163000D02*
X231824700Y-99303200D01*
X231824700Y-99303200D02*
X232632600Y-98495300D01*
X232632600Y-98495300D02*
X233000000Y-98495300D01*
%TO.N,/Controller/A7*%
X233000000Y-87160000D02*
X233000000Y-88335300D01*
X224282000Y-101600000D02*
X225551700Y-100330300D01*
X225551700Y-100330300D02*
X225551700Y-95416300D01*
X225551700Y-95416300D02*
X232632700Y-88335300D01*
X232632700Y-88335300D02*
X233000000Y-88335300D01*
%TD*%
D14*
%TO.N,/GND*%
X242046131Y-70741834D02*
X242571462Y-70900441D01*
X243055980Y-71158064D01*
X243481231Y-71504889D01*
X243831020Y-71927711D01*
X244092016Y-72410414D01*
X244254287Y-72934628D01*
X244315000Y-73512271D01*
X244315001Y-122466486D01*
X244258166Y-123046131D01*
X244099559Y-123571462D01*
X243841937Y-124055978D01*
X243495111Y-124481231D01*
X243072292Y-124831017D01*
X242589588Y-125092015D01*
X242065371Y-125254287D01*
X241487729Y-125315000D01*
X163533504Y-125315000D01*
X162953869Y-125258166D01*
X162428538Y-125099559D01*
X161944022Y-124841937D01*
X161518769Y-124495111D01*
X161168983Y-124072292D01*
X160907985Y-123589588D01*
X160745713Y-123065371D01*
X160685000Y-122487729D01*
X160685000Y-120005658D01*
X163243700Y-120005658D01*
X163243700Y-120278342D01*
X163296898Y-120545785D01*
X163401249Y-120797712D01*
X163552744Y-121024440D01*
X163745560Y-121217256D01*
X163972288Y-121368751D01*
X164224215Y-121473102D01*
X164491658Y-121526300D01*
X164764342Y-121526300D01*
X165031785Y-121473102D01*
X165283712Y-121368751D01*
X165510440Y-121217256D01*
X165703256Y-121024440D01*
X165854751Y-120797712D01*
X165959102Y-120545785D01*
X166012300Y-120278342D01*
X166012300Y-120005658D01*
X165959102Y-119738215D01*
X165854751Y-119486288D01*
X165703256Y-119259560D01*
X165510440Y-119066744D01*
X165283712Y-118915249D01*
X165031785Y-118810898D01*
X164764342Y-118757700D01*
X164491658Y-118757700D01*
X164224215Y-118810898D01*
X163972288Y-118915249D01*
X163745560Y-119066744D01*
X163552744Y-119259560D01*
X163401249Y-119486288D01*
X163296898Y-119738215D01*
X163243700Y-120005658D01*
X160685000Y-120005658D01*
X160685000Y-85720000D01*
X161511928Y-85720000D01*
X161511928Y-87420000D01*
X161524188Y-87544482D01*
X161560498Y-87664180D01*
X161619463Y-87774494D01*
X161698815Y-87871185D01*
X161795506Y-87950537D01*
X161905820Y-88009502D01*
X161978380Y-88031513D01*
X161846525Y-88163368D01*
X161684010Y-88406589D01*
X161572068Y-88676842D01*
X161515000Y-88963740D01*
X161515000Y-89256260D01*
X161572068Y-89543158D01*
X161684010Y-89813411D01*
X161846525Y-90056632D01*
X162053368Y-90263475D01*
X162227760Y-90380000D01*
X162053368Y-90496525D01*
X161846525Y-90703368D01*
X161684010Y-90946589D01*
X161572068Y-91216842D01*
X161515000Y-91503740D01*
X161515000Y-91796260D01*
X161572068Y-92083158D01*
X161684010Y-92353411D01*
X161846525Y-92596632D01*
X162053368Y-92803475D01*
X162227760Y-92920000D01*
X162053368Y-93036525D01*
X161846525Y-93243368D01*
X161684010Y-93486589D01*
X161572068Y-93756842D01*
X161515000Y-94043740D01*
X161515000Y-94336260D01*
X161572068Y-94623158D01*
X161684010Y-94893411D01*
X161846525Y-95136632D01*
X162053368Y-95343475D01*
X162235534Y-95465195D01*
X162118645Y-95534822D01*
X161902412Y-95729731D01*
X161728359Y-95963080D01*
X161603175Y-96225901D01*
X161558524Y-96373110D01*
X161679845Y-96603000D01*
X162873000Y-96603000D01*
X162873000Y-96583000D01*
X163127000Y-96583000D01*
X163127000Y-96603000D01*
X163147000Y-96603000D01*
X163147000Y-96857000D01*
X163127000Y-96857000D01*
X163127000Y-96877000D01*
X162873000Y-96877000D01*
X162873000Y-96857000D01*
X161679845Y-96857000D01*
X161558524Y-97086890D01*
X161603175Y-97234099D01*
X161728359Y-97496920D01*
X161902412Y-97730269D01*
X162118645Y-97925178D01*
X162235534Y-97994805D01*
X162053368Y-98116525D01*
X161846525Y-98323368D01*
X161684010Y-98566589D01*
X161572068Y-98836842D01*
X161515000Y-99123740D01*
X161515000Y-99416260D01*
X161572068Y-99703158D01*
X161684010Y-99973411D01*
X161846525Y-100216632D01*
X162053368Y-100423475D01*
X162227760Y-100540000D01*
X162053368Y-100656525D01*
X161846525Y-100863368D01*
X161684010Y-101106589D01*
X161572068Y-101376842D01*
X161515000Y-101663740D01*
X161515000Y-101956260D01*
X161572068Y-102243158D01*
X161684010Y-102513411D01*
X161846525Y-102756632D01*
X162053368Y-102963475D01*
X162227760Y-103080000D01*
X162053368Y-103196525D01*
X161846525Y-103403368D01*
X161684010Y-103646589D01*
X161572068Y-103916842D01*
X161515000Y-104203740D01*
X161515000Y-104496260D01*
X161572068Y-104783158D01*
X161684010Y-105053411D01*
X161846525Y-105296632D01*
X162053368Y-105503475D01*
X162227760Y-105620000D01*
X162053368Y-105736525D01*
X161846525Y-105943368D01*
X161684010Y-106186589D01*
X161572068Y-106456842D01*
X161515000Y-106743740D01*
X161515000Y-107036260D01*
X161572068Y-107323158D01*
X161684010Y-107593411D01*
X161846525Y-107836632D01*
X162053368Y-108043475D01*
X162227760Y-108160000D01*
X162053368Y-108276525D01*
X161846525Y-108483368D01*
X161684010Y-108726589D01*
X161572068Y-108996842D01*
X161515000Y-109283740D01*
X161515000Y-109576260D01*
X161572068Y-109863158D01*
X161684010Y-110133411D01*
X161846525Y-110376632D01*
X162053368Y-110583475D01*
X162296589Y-110745990D01*
X162566842Y-110857932D01*
X162853740Y-110915000D01*
X163146260Y-110915000D01*
X163433158Y-110857932D01*
X163703411Y-110745990D01*
X163946632Y-110583475D01*
X164153475Y-110376632D01*
X164271100Y-110200594D01*
X164442412Y-110430269D01*
X164658645Y-110625178D01*
X164908748Y-110774157D01*
X165183109Y-110871481D01*
X165413000Y-110750814D01*
X165413000Y-109557000D01*
X165667000Y-109557000D01*
X165667000Y-110750814D01*
X165896891Y-110871481D01*
X166171252Y-110774157D01*
X166421355Y-110625178D01*
X166637588Y-110430269D01*
X166811641Y-110196920D01*
X166936825Y-109934099D01*
X166981476Y-109786890D01*
X166860155Y-109557000D01*
X165667000Y-109557000D01*
X165413000Y-109557000D01*
X165393000Y-109557000D01*
X165393000Y-109303000D01*
X165413000Y-109303000D01*
X165413000Y-109283000D01*
X165667000Y-109283000D01*
X165667000Y-109303000D01*
X166860155Y-109303000D01*
X166981476Y-109073110D01*
X166936825Y-108925901D01*
X166811641Y-108663080D01*
X166637588Y-108429731D01*
X166421355Y-108234822D01*
X166304466Y-108165195D01*
X166486632Y-108043475D01*
X166693475Y-107836632D01*
X166855990Y-107593411D01*
X166967932Y-107323158D01*
X167025000Y-107036260D01*
X167025000Y-106743740D01*
X166967932Y-106456842D01*
X166855990Y-106186589D01*
X166693475Y-105943368D01*
X166486632Y-105736525D01*
X166312240Y-105620000D01*
X166486632Y-105503475D01*
X166693475Y-105296632D01*
X166855990Y-105053411D01*
X166967932Y-104783158D01*
X167025000Y-104496260D01*
X167025000Y-104203740D01*
X166967932Y-103916842D01*
X166855990Y-103646589D01*
X166693475Y-103403368D01*
X166486632Y-103196525D01*
X166304466Y-103074805D01*
X166421355Y-103005178D01*
X166637588Y-102810269D01*
X166811641Y-102576920D01*
X166936825Y-102314099D01*
X166981476Y-102166890D01*
X166860155Y-101937000D01*
X165667000Y-101937000D01*
X165667000Y-101957000D01*
X165413000Y-101957000D01*
X165413000Y-101937000D01*
X165393000Y-101937000D01*
X165393000Y-101683000D01*
X165413000Y-101683000D01*
X165413000Y-101663000D01*
X165667000Y-101663000D01*
X165667000Y-101683000D01*
X166860155Y-101683000D01*
X166981476Y-101453110D01*
X166936825Y-101305901D01*
X166811641Y-101043080D01*
X166637588Y-100809731D01*
X166421355Y-100614822D01*
X166304466Y-100545195D01*
X166486632Y-100423475D01*
X166693475Y-100216632D01*
X166855990Y-99973411D01*
X166967932Y-99703158D01*
X167025000Y-99416260D01*
X167025000Y-99123740D01*
X166967932Y-98836842D01*
X166855990Y-98566589D01*
X166693475Y-98323368D01*
X166486632Y-98116525D01*
X166312240Y-98000000D01*
X166486632Y-97883475D01*
X166693475Y-97676632D01*
X166855990Y-97433411D01*
X166967932Y-97163158D01*
X167025000Y-96876260D01*
X167025000Y-96583740D01*
X166967932Y-96296842D01*
X166855990Y-96026589D01*
X166693475Y-95783368D01*
X166486632Y-95576525D01*
X166312240Y-95460000D01*
X166486632Y-95343475D01*
X166693475Y-95136632D01*
X166855990Y-94893411D01*
X166967932Y-94623158D01*
X167025000Y-94336260D01*
X167025000Y-94043740D01*
X166967932Y-93756842D01*
X166855990Y-93486589D01*
X166693475Y-93243368D01*
X166486632Y-93036525D01*
X166304466Y-92914805D01*
X166421355Y-92845178D01*
X166637588Y-92650269D01*
X166811641Y-92416920D01*
X166936825Y-92154099D01*
X166981476Y-92006890D01*
X166860155Y-91777000D01*
X165667000Y-91777000D01*
X165667000Y-91797000D01*
X165413000Y-91797000D01*
X165413000Y-91777000D01*
X165393000Y-91777000D01*
X165393000Y-91523000D01*
X165413000Y-91523000D01*
X165413000Y-91503000D01*
X165667000Y-91503000D01*
X165667000Y-91523000D01*
X166860155Y-91523000D01*
X166981476Y-91293110D01*
X166936825Y-91145901D01*
X166811641Y-90883080D01*
X166637588Y-90649731D01*
X166421355Y-90454822D01*
X166304466Y-90385195D01*
X166486632Y-90263475D01*
X166693475Y-90056632D01*
X166855990Y-89813411D01*
X166967932Y-89543158D01*
X167025000Y-89256260D01*
X167025000Y-88963740D01*
X166967932Y-88676842D01*
X166855990Y-88406589D01*
X166693475Y-88163368D01*
X166486632Y-87956525D01*
X166312240Y-87840000D01*
X166486632Y-87723475D01*
X166693475Y-87516632D01*
X166855990Y-87273411D01*
X166967932Y-87003158D01*
X167025000Y-86716260D01*
X167025000Y-86423740D01*
X166967932Y-86136842D01*
X166855990Y-85866589D01*
X166693475Y-85623368D01*
X166486632Y-85416525D01*
X166243411Y-85254010D01*
X165973158Y-85142068D01*
X165686260Y-85085000D01*
X165393740Y-85085000D01*
X165106842Y-85142068D01*
X164836589Y-85254010D01*
X164593368Y-85416525D01*
X164461513Y-85548380D01*
X164439502Y-85475820D01*
X164380537Y-85365506D01*
X164301185Y-85268815D01*
X164204494Y-85189463D01*
X164094180Y-85130498D01*
X163974482Y-85094188D01*
X163850000Y-85081928D01*
X162150000Y-85081928D01*
X162025518Y-85094188D01*
X161905820Y-85130498D01*
X161795506Y-85189463D01*
X161698815Y-85268815D01*
X161619463Y-85365506D01*
X161560498Y-85475820D01*
X161524188Y-85595518D01*
X161511928Y-85720000D01*
X160685000Y-85720000D01*
X160685000Y-75809658D01*
X162939698Y-75809658D01*
X162939698Y-76082342D01*
X162992896Y-76349785D01*
X163097247Y-76601712D01*
X163248742Y-76828440D01*
X163441558Y-77021256D01*
X163668286Y-77172751D01*
X163920213Y-77277102D01*
X164187656Y-77330300D01*
X164460340Y-77330300D01*
X164727783Y-77277102D01*
X164979710Y-77172751D01*
X165206438Y-77021256D01*
X165399254Y-76828440D01*
X165550749Y-76601712D01*
X165655100Y-76349785D01*
X165708298Y-76082342D01*
X165708298Y-75809658D01*
X166439699Y-75809658D01*
X166439699Y-76082342D01*
X166492897Y-76349785D01*
X166597248Y-76601712D01*
X166748743Y-76828440D01*
X166941559Y-77021256D01*
X167064000Y-77103069D01*
X167064001Y-85249368D01*
X167060324Y-85286700D01*
X167064001Y-85324033D01*
X167074998Y-85435686D01*
X167084110Y-85465724D01*
X167118454Y-85578946D01*
X167189026Y-85710976D01*
X167260201Y-85797702D01*
X167284000Y-85826701D01*
X167312998Y-85850499D01*
X175878205Y-94415708D01*
X175901999Y-94444701D01*
X175904834Y-94447027D01*
X175822068Y-94646842D01*
X175765000Y-94933740D01*
X175765000Y-95226260D01*
X175822068Y-95513158D01*
X175934010Y-95783411D01*
X176096525Y-96026632D01*
X176303368Y-96233475D01*
X176477760Y-96350000D01*
X176303368Y-96466525D01*
X176096525Y-96673368D01*
X175934010Y-96916589D01*
X175822068Y-97186842D01*
X175765000Y-97473740D01*
X175765000Y-97766260D01*
X175822068Y-98053158D01*
X175934010Y-98323411D01*
X176096525Y-98566632D01*
X176303368Y-98773475D01*
X176546589Y-98935990D01*
X176816842Y-99047932D01*
X177103740Y-99105000D01*
X177396260Y-99105000D01*
X177683158Y-99047932D01*
X177953411Y-98935990D01*
X178196632Y-98773475D01*
X178403475Y-98566632D01*
X178565990Y-98323411D01*
X178677932Y-98053158D01*
X178735000Y-97766260D01*
X178735000Y-97473740D01*
X178677932Y-97186842D01*
X178565990Y-96916589D01*
X178403475Y-96673368D01*
X178196632Y-96466525D01*
X178022240Y-96350000D01*
X178196632Y-96233475D01*
X178350303Y-96079804D01*
X179036801Y-96766303D01*
X179060599Y-96795301D01*
X179176324Y-96890274D01*
X179308353Y-96960846D01*
X179451614Y-97004303D01*
X179563267Y-97015300D01*
X179563276Y-97015300D01*
X179600599Y-97018976D01*
X179637922Y-97015300D01*
X180893123Y-97015300D01*
X180822068Y-97186842D01*
X180765000Y-97473740D01*
X180765000Y-97766260D01*
X180822068Y-98053158D01*
X180934010Y-98323411D01*
X181096525Y-98566632D01*
X181303368Y-98773475D01*
X181546589Y-98935990D01*
X181816842Y-99047932D01*
X182103740Y-99105000D01*
X182396260Y-99105000D01*
X182683158Y-99047932D01*
X182953411Y-98935990D01*
X183196632Y-98773475D01*
X183403475Y-98566632D01*
X183565990Y-98323411D01*
X183677932Y-98053158D01*
X183735000Y-97766260D01*
X183735000Y-97473740D01*
X183677932Y-97186842D01*
X183606877Y-97015300D01*
X185893123Y-97015300D01*
X185822068Y-97186842D01*
X185765000Y-97473740D01*
X185765000Y-97766260D01*
X185822068Y-98053158D01*
X185934010Y-98323411D01*
X186096525Y-98566632D01*
X186303368Y-98773475D01*
X186546589Y-98935990D01*
X186816842Y-99047932D01*
X187103740Y-99105000D01*
X187396260Y-99105000D01*
X187683158Y-99047932D01*
X187953411Y-98935990D01*
X188196632Y-98773475D01*
X188403475Y-98566632D01*
X188565990Y-98323411D01*
X188677932Y-98053158D01*
X188735000Y-97766260D01*
X188735000Y-97473740D01*
X188677932Y-97186842D01*
X188606877Y-97015300D01*
X190893123Y-97015300D01*
X190822068Y-97186842D01*
X190765000Y-97473740D01*
X190765000Y-97766260D01*
X190822068Y-98053158D01*
X190934010Y-98323411D01*
X191096525Y-98566632D01*
X191303368Y-98773475D01*
X191546589Y-98935990D01*
X191816842Y-99047932D01*
X192103740Y-99105000D01*
X192396260Y-99105000D01*
X192683158Y-99047932D01*
X192953411Y-98935990D01*
X193196632Y-98773475D01*
X193403475Y-98566632D01*
X193565990Y-98323411D01*
X193677932Y-98053158D01*
X193735000Y-97766260D01*
X193735000Y-97473740D01*
X193677932Y-97186842D01*
X193606877Y-97015300D01*
X199767378Y-97015300D01*
X199804700Y-97018976D01*
X199842022Y-97015300D01*
X199842033Y-97015300D01*
X199860323Y-97013499D01*
X199780399Y-97237285D01*
X199775724Y-97253837D01*
X199695724Y-97633837D01*
X199693106Y-97654821D01*
X199673106Y-98144821D01*
X199674207Y-98167471D01*
X199724207Y-98527471D01*
X199726792Y-98540802D01*
X199806792Y-98860802D01*
X199812339Y-98877800D01*
X199942339Y-99197800D01*
X199949550Y-99212688D01*
X200159550Y-99582688D01*
X200168820Y-99596757D01*
X200388820Y-99886757D01*
X200404304Y-99903730D01*
X200754304Y-100223730D01*
X200771324Y-100236830D01*
X201191324Y-100506830D01*
X201211914Y-100517544D01*
X201651914Y-100697544D01*
X201671854Y-100703842D01*
X202111854Y-100803842D01*
X202137178Y-100806969D01*
X202587178Y-100816969D01*
X202602332Y-100816400D01*
X203012332Y-100776400D01*
X203032177Y-100772856D01*
X203452177Y-100662856D01*
X203473220Y-100655311D01*
X203863220Y-100475311D01*
X203878183Y-100467145D01*
X204208183Y-100257145D01*
X204225283Y-100244105D01*
X204545283Y-99954105D01*
X204558293Y-99940421D01*
X204828293Y-99610421D01*
X204839700Y-99593992D01*
X205049700Y-99233992D01*
X205058465Y-99215771D01*
X205228465Y-98775771D01*
X205234757Y-98753763D01*
X205314757Y-98333763D01*
X205316971Y-98312702D01*
X205326971Y-97842702D01*
X205325523Y-97820689D01*
X205265523Y-97430689D01*
X205263425Y-97420079D01*
X205183425Y-97090079D01*
X205176352Y-97069096D01*
X205036352Y-96749096D01*
X205030864Y-96738047D01*
X204840864Y-96398047D01*
X204827564Y-96378697D01*
X204577564Y-96078697D01*
X204566761Y-96067256D01*
X204256761Y-95777256D01*
X204239214Y-95763518D01*
X203839214Y-95503518D01*
X203820747Y-95493580D01*
X203430747Y-95323580D01*
X203410802Y-95316792D01*
X202930802Y-95196792D01*
X202906041Y-95193144D01*
X202486041Y-95173144D01*
X202470732Y-95173339D01*
X202060732Y-95203339D01*
X202037942Y-95207113D01*
X201888775Y-95246026D01*
X209214802Y-87920000D01*
X216481822Y-87920000D01*
X216606525Y-88106632D01*
X216813368Y-88313475D01*
X216987760Y-88430000D01*
X216813368Y-88546525D01*
X216606525Y-88753368D01*
X216444010Y-88996589D01*
X216332068Y-89266842D01*
X216275000Y-89553740D01*
X216275000Y-89846260D01*
X216332068Y-90133158D01*
X216444010Y-90403411D01*
X216606525Y-90646632D01*
X216813368Y-90853475D01*
X216987760Y-90970000D01*
X216813368Y-91086525D01*
X216606525Y-91293368D01*
X216444010Y-91536589D01*
X216332068Y-91806842D01*
X216275000Y-92093740D01*
X216275000Y-92386260D01*
X216332068Y-92673158D01*
X216444010Y-92943411D01*
X216606525Y-93186632D01*
X216813368Y-93393475D01*
X216987760Y-93510000D01*
X216813368Y-93626525D01*
X216606525Y-93833368D01*
X216444010Y-94076589D01*
X216332068Y-94346842D01*
X216275000Y-94633740D01*
X216275000Y-94926260D01*
X216332068Y-95213158D01*
X216444010Y-95483411D01*
X216606525Y-95726632D01*
X216813368Y-95933475D01*
X216987760Y-96050000D01*
X216813368Y-96166525D01*
X216606525Y-96373368D01*
X216444010Y-96616589D01*
X216332068Y-96886842D01*
X216275000Y-97173740D01*
X216275000Y-97466260D01*
X216332068Y-97753158D01*
X216444010Y-98023411D01*
X216606525Y-98266632D01*
X216813368Y-98473475D01*
X216987760Y-98590000D01*
X216813368Y-98706525D01*
X216606525Y-98913368D01*
X216444010Y-99156589D01*
X216332068Y-99426842D01*
X216275000Y-99713740D01*
X216275000Y-100006260D01*
X216332068Y-100293158D01*
X216444010Y-100563411D01*
X216606525Y-100806632D01*
X216813368Y-101013475D01*
X216987760Y-101130000D01*
X216813368Y-101246525D01*
X216606525Y-101453368D01*
X216444010Y-101696589D01*
X216332068Y-101966842D01*
X216275000Y-102253740D01*
X216275000Y-102546260D01*
X216332068Y-102833158D01*
X216444010Y-103103411D01*
X216606525Y-103346632D01*
X216813368Y-103553475D01*
X216987760Y-103670000D01*
X216813368Y-103786525D01*
X216606525Y-103993368D01*
X216444010Y-104236589D01*
X216332068Y-104506842D01*
X216275000Y-104793740D01*
X216275000Y-105086260D01*
X216332068Y-105373158D01*
X216444010Y-105643411D01*
X216606525Y-105886632D01*
X216813368Y-106093475D01*
X216987760Y-106210000D01*
X216813368Y-106326525D01*
X216606525Y-106533368D01*
X216444010Y-106776589D01*
X216332068Y-107046842D01*
X216275000Y-107333740D01*
X216275000Y-107626260D01*
X216332068Y-107913158D01*
X216444010Y-108183411D01*
X216606525Y-108426632D01*
X216813368Y-108633475D01*
X216987760Y-108750000D01*
X216813368Y-108866525D01*
X216606525Y-109073368D01*
X216444010Y-109316589D01*
X216332068Y-109586842D01*
X216275000Y-109873740D01*
X216275000Y-110166260D01*
X216332068Y-110453158D01*
X216444010Y-110723411D01*
X216606525Y-110966632D01*
X216813368Y-111173475D01*
X216987760Y-111290000D01*
X216813368Y-111406525D01*
X216606525Y-111613368D01*
X216444010Y-111856589D01*
X216332068Y-112126842D01*
X216275000Y-112413740D01*
X216275000Y-112706260D01*
X216332068Y-112993158D01*
X216444010Y-113263411D01*
X216478414Y-113314900D01*
X211732422Y-113314900D01*
X211695099Y-113311224D01*
X211657776Y-113314900D01*
X211657767Y-113314900D01*
X211546114Y-113325897D01*
X211402853Y-113369354D01*
X211270823Y-113439926D01*
X211189542Y-113506632D01*
X211155099Y-113534899D01*
X211131301Y-113563897D01*
X205908770Y-118786429D01*
X205764343Y-118757700D01*
X205491659Y-118757700D01*
X205224216Y-118810898D01*
X204972289Y-118915249D01*
X204745561Y-119066744D01*
X204552745Y-119259560D01*
X204401250Y-119486288D01*
X204296899Y-119738215D01*
X204243701Y-120005658D01*
X204243701Y-120278342D01*
X204279179Y-120456700D01*
X203476823Y-120456700D01*
X203512301Y-120278342D01*
X203512301Y-120005658D01*
X203459103Y-119738215D01*
X203354752Y-119486288D01*
X203203257Y-119259560D01*
X203010441Y-119066744D01*
X202783713Y-118915249D01*
X202531786Y-118810898D01*
X202264343Y-118757700D01*
X201991659Y-118757700D01*
X201724216Y-118810898D01*
X201472289Y-118915249D01*
X201245561Y-119066744D01*
X201052745Y-119259560D01*
X200901250Y-119486288D01*
X200796899Y-119738215D01*
X200743701Y-120005658D01*
X200743701Y-120278342D01*
X200779179Y-120456700D01*
X199976176Y-120456700D01*
X200004564Y-120341874D01*
X200017107Y-120069479D01*
X199976268Y-119799871D01*
X199883615Y-119543411D01*
X199823290Y-119430552D01*
X199584493Y-119365112D01*
X198807605Y-120142000D01*
X198821748Y-120156143D01*
X198642143Y-120335748D01*
X198628000Y-120321605D01*
X198613858Y-120335748D01*
X198434253Y-120156143D01*
X198448395Y-120142000D01*
X197671507Y-119365112D01*
X197432710Y-119430552D01*
X197316880Y-119677412D01*
X197251436Y-119942126D01*
X197238893Y-120214521D01*
X197275577Y-120456700D01*
X193476824Y-120456700D01*
X193512302Y-120278342D01*
X193512302Y-120005658D01*
X193459104Y-119738215D01*
X193354753Y-119486288D01*
X193203258Y-119259560D01*
X193129205Y-119185507D01*
X197851112Y-119185507D01*
X198628000Y-119962395D01*
X199404888Y-119185507D01*
X199339448Y-118946710D01*
X199092588Y-118830880D01*
X198827874Y-118765436D01*
X198555479Y-118752893D01*
X198285871Y-118793732D01*
X198029411Y-118886385D01*
X197916552Y-118946710D01*
X197851112Y-119185507D01*
X193129205Y-119185507D01*
X193010442Y-119066744D01*
X192783714Y-118915249D01*
X192531787Y-118810898D01*
X192264344Y-118757700D01*
X191991660Y-118757700D01*
X191724217Y-118810898D01*
X191472290Y-118915249D01*
X191245562Y-119066744D01*
X191052746Y-119259560D01*
X190901251Y-119486288D01*
X190796900Y-119738215D01*
X190743702Y-120005658D01*
X190743702Y-120278342D01*
X190779180Y-120456700D01*
X189976823Y-120456700D01*
X190012301Y-120278342D01*
X190012301Y-120005658D01*
X189959103Y-119738215D01*
X189854752Y-119486288D01*
X189703257Y-119259560D01*
X189510441Y-119066744D01*
X189283713Y-118915249D01*
X189031786Y-118810898D01*
X188764343Y-118757700D01*
X188491659Y-118757700D01*
X188224216Y-118810898D01*
X187972289Y-118915249D01*
X187745561Y-119066744D01*
X187552745Y-119259560D01*
X187401250Y-119486288D01*
X187296899Y-119738215D01*
X187243701Y-120005658D01*
X187243701Y-120278342D01*
X187279179Y-120456700D01*
X186476177Y-120456700D01*
X186504565Y-120341874D01*
X186517108Y-120069479D01*
X186476269Y-119799871D01*
X186383616Y-119543411D01*
X186323291Y-119430552D01*
X186084494Y-119365112D01*
X185307606Y-120142000D01*
X185321749Y-120156143D01*
X185142144Y-120335748D01*
X185128001Y-120321605D01*
X185113859Y-120335748D01*
X184934254Y-120156143D01*
X184948396Y-120142000D01*
X184171508Y-119365112D01*
X183932711Y-119430552D01*
X183816881Y-119677412D01*
X183751437Y-119942126D01*
X183738894Y-120214521D01*
X183775578Y-120456700D01*
X183017502Y-120456700D01*
X182983571Y-120422770D01*
X183012300Y-120278342D01*
X183012300Y-120005658D01*
X182959102Y-119738215D01*
X182854751Y-119486288D01*
X182703256Y-119259560D01*
X182629203Y-119185507D01*
X184351113Y-119185507D01*
X185128001Y-119962395D01*
X185904889Y-119185507D01*
X185839449Y-118946710D01*
X185592589Y-118830880D01*
X185327875Y-118765436D01*
X185055480Y-118752893D01*
X184785872Y-118793732D01*
X184529412Y-118886385D01*
X184416553Y-118946710D01*
X184351113Y-119185507D01*
X182629203Y-119185507D01*
X182510440Y-119066744D01*
X182283712Y-118915249D01*
X182031785Y-118810898D01*
X181764342Y-118757700D01*
X181491658Y-118757700D01*
X181224215Y-118810898D01*
X180972288Y-118915249D01*
X180745560Y-119066744D01*
X180552744Y-119259560D01*
X180401249Y-119486288D01*
X180296898Y-119738215D01*
X180243700Y-120005658D01*
X180243700Y-120278342D01*
X180296898Y-120545785D01*
X180401249Y-120797712D01*
X180518373Y-120973000D01*
X176237629Y-120973000D01*
X176354753Y-120797712D01*
X176459104Y-120545785D01*
X176512302Y-120278342D01*
X176512302Y-120005658D01*
X176459104Y-119738215D01*
X176354753Y-119486288D01*
X176203258Y-119259560D01*
X176010442Y-119066744D01*
X175783714Y-118915249D01*
X175531787Y-118810898D01*
X175264344Y-118757700D01*
X174991660Y-118757700D01*
X174724217Y-118810898D01*
X174472290Y-118915249D01*
X174245562Y-119066744D01*
X174052746Y-119259560D01*
X173901251Y-119486288D01*
X173796900Y-119738215D01*
X173743702Y-120005658D01*
X173743702Y-120278342D01*
X173796900Y-120545785D01*
X173901251Y-120797712D01*
X174018375Y-120973000D01*
X172638609Y-120973000D01*
X172584496Y-120918887D01*
X172823291Y-120853448D01*
X172939121Y-120606588D01*
X173004565Y-120341874D01*
X173017108Y-120069479D01*
X172976269Y-119799871D01*
X172883616Y-119543411D01*
X172823291Y-119430552D01*
X172584494Y-119365112D01*
X171807606Y-120142000D01*
X171821749Y-120156143D01*
X171642144Y-120335748D01*
X171628001Y-120321605D01*
X171613859Y-120335748D01*
X171434254Y-120156143D01*
X171448396Y-120142000D01*
X170671508Y-119365112D01*
X170432711Y-119430552D01*
X170316881Y-119677412D01*
X170251437Y-119942126D01*
X170238894Y-120214521D01*
X170279733Y-120484129D01*
X170372386Y-120740589D01*
X170432711Y-120853448D01*
X170671506Y-120918887D01*
X170617393Y-120973000D01*
X170033802Y-120973000D01*
X169483572Y-120422771D01*
X169512301Y-120278342D01*
X169512301Y-120005658D01*
X169459103Y-119738215D01*
X169354752Y-119486288D01*
X169203257Y-119259560D01*
X169129204Y-119185507D01*
X170851113Y-119185507D01*
X171628001Y-119962395D01*
X172404889Y-119185507D01*
X172339449Y-118946710D01*
X172092589Y-118830880D01*
X171827875Y-118765436D01*
X171555480Y-118752893D01*
X171285872Y-118793732D01*
X171029412Y-118886385D01*
X170916553Y-118946710D01*
X170851113Y-119185507D01*
X169129204Y-119185507D01*
X169010441Y-119066744D01*
X168783713Y-118915249D01*
X168531786Y-118810898D01*
X168264343Y-118757700D01*
X167991659Y-118757700D01*
X167724216Y-118810898D01*
X167472289Y-118915249D01*
X167245561Y-119066744D01*
X167052745Y-119259560D01*
X166901250Y-119486288D01*
X166796899Y-119738215D01*
X166743701Y-120005658D01*
X166743701Y-120278342D01*
X166796899Y-120545785D01*
X166901250Y-120797712D01*
X167052745Y-121024440D01*
X167245561Y-121217256D01*
X167472289Y-121368751D01*
X167724216Y-121473102D01*
X167991659Y-121526300D01*
X168264343Y-121526300D01*
X168408770Y-121497572D01*
X169155201Y-122244003D01*
X169178999Y-122273001D01*
X169294724Y-122367974D01*
X169426753Y-122438546D01*
X169570014Y-122482003D01*
X169681667Y-122493000D01*
X169681675Y-122493000D01*
X169719000Y-122496676D01*
X169756325Y-122493000D01*
X214994378Y-122493000D01*
X215031700Y-122496676D01*
X215069022Y-122493000D01*
X215069033Y-122493000D01*
X215180686Y-122482003D01*
X215323947Y-122438546D01*
X215455976Y-122367974D01*
X215571701Y-122273001D01*
X215595504Y-122243997D01*
X231899697Y-105939804D01*
X232053368Y-106093475D01*
X232227760Y-106210000D01*
X232053368Y-106326525D01*
X231846525Y-106533368D01*
X231684010Y-106776589D01*
X231572068Y-107046842D01*
X231515000Y-107333740D01*
X231515000Y-107626260D01*
X231572068Y-107913158D01*
X231684010Y-108183411D01*
X231846525Y-108426632D01*
X232053368Y-108633475D01*
X232227760Y-108750000D01*
X232053368Y-108866525D01*
X231846525Y-109073368D01*
X231684010Y-109316589D01*
X231572068Y-109586842D01*
X231515000Y-109873740D01*
X231515000Y-110166260D01*
X231572068Y-110453158D01*
X231684010Y-110723411D01*
X231846525Y-110966632D01*
X232053368Y-111173475D01*
X232227760Y-111290000D01*
X232053368Y-111406525D01*
X231846525Y-111613368D01*
X231684010Y-111856589D01*
X231572068Y-112126842D01*
X231515000Y-112413740D01*
X231515000Y-112706260D01*
X231572068Y-112993158D01*
X231684010Y-113263411D01*
X231846525Y-113506632D01*
X232053368Y-113713475D01*
X232296589Y-113875990D01*
X232566842Y-113987932D01*
X232853740Y-114045000D01*
X233146260Y-114045000D01*
X233433158Y-113987932D01*
X233703411Y-113875990D01*
X233946632Y-113713475D01*
X234153475Y-113506632D01*
X234315990Y-113263411D01*
X234427932Y-112993158D01*
X234485000Y-112706260D01*
X234485000Y-112413740D01*
X234427932Y-112126842D01*
X234315990Y-111856589D01*
X234153475Y-111613368D01*
X233946632Y-111406525D01*
X233772240Y-111290000D01*
X233946632Y-111173475D01*
X234153475Y-110966632D01*
X234315990Y-110723411D01*
X234427932Y-110453158D01*
X234485000Y-110166260D01*
X234485000Y-109873740D01*
X234427932Y-109586842D01*
X234315990Y-109316589D01*
X234153475Y-109073368D01*
X233946632Y-108866525D01*
X233772240Y-108750000D01*
X233946632Y-108633475D01*
X234153475Y-108426632D01*
X234315990Y-108183411D01*
X234427932Y-107913158D01*
X234485000Y-107626260D01*
X234485000Y-107333740D01*
X234427932Y-107046842D01*
X234315990Y-106776589D01*
X234153475Y-106533368D01*
X233946632Y-106326525D01*
X233772240Y-106210000D01*
X233946632Y-106093475D01*
X234153475Y-105886632D01*
X234315990Y-105643411D01*
X234427932Y-105373158D01*
X234485000Y-105086260D01*
X234485000Y-104793740D01*
X234427932Y-104506842D01*
X234315990Y-104236589D01*
X234153475Y-103993368D01*
X233946632Y-103786525D01*
X233772240Y-103670000D01*
X233946632Y-103553475D01*
X234153475Y-103346632D01*
X234315990Y-103103411D01*
X234427932Y-102833158D01*
X234485000Y-102546260D01*
X234485000Y-102253740D01*
X234427932Y-101966842D01*
X234315990Y-101696589D01*
X234153475Y-101453368D01*
X233946632Y-101246525D01*
X233772240Y-101130000D01*
X233946632Y-101013475D01*
X234153475Y-100806632D01*
X234315990Y-100563411D01*
X234427932Y-100293158D01*
X234485000Y-100006260D01*
X234485000Y-99713740D01*
X234427932Y-99426842D01*
X234315990Y-99156589D01*
X234153475Y-98913368D01*
X233946632Y-98706525D01*
X233772240Y-98590000D01*
X233946632Y-98473475D01*
X234153475Y-98266632D01*
X234315990Y-98023411D01*
X234427932Y-97753158D01*
X234485000Y-97466260D01*
X234485000Y-97173740D01*
X234427932Y-96886842D01*
X234315990Y-96616589D01*
X234153475Y-96373368D01*
X233946632Y-96166525D01*
X233772240Y-96050000D01*
X233946632Y-95933475D01*
X234153475Y-95726632D01*
X234315990Y-95483411D01*
X234427932Y-95213158D01*
X234485000Y-94926260D01*
X234485000Y-94633740D01*
X234427932Y-94346842D01*
X234315990Y-94076589D01*
X234153475Y-93833368D01*
X233946632Y-93626525D01*
X233772240Y-93510000D01*
X233946632Y-93393475D01*
X234153475Y-93186632D01*
X234315990Y-92943411D01*
X234427932Y-92673158D01*
X234485000Y-92386260D01*
X234485000Y-92093740D01*
X234427932Y-91806842D01*
X234315990Y-91536589D01*
X234153475Y-91293368D01*
X233946632Y-91086525D01*
X233772240Y-90970000D01*
X233946632Y-90853475D01*
X234153475Y-90646632D01*
X234315990Y-90403411D01*
X234427932Y-90133158D01*
X234485000Y-89846260D01*
X234485000Y-89553740D01*
X234427932Y-89266842D01*
X234315990Y-88996589D01*
X234153475Y-88753368D01*
X233946632Y-88546525D01*
X233772240Y-88430000D01*
X233946632Y-88313475D01*
X234153475Y-88106632D01*
X234306185Y-87878086D01*
X237171000Y-90742902D01*
X237171001Y-104406168D01*
X237167324Y-104443500D01*
X237181998Y-104592485D01*
X237225454Y-104735746D01*
X237296026Y-104867776D01*
X237358609Y-104944033D01*
X237391000Y-104983501D01*
X237419998Y-105007299D01*
X238359697Y-105946998D01*
X238228359Y-106123080D01*
X238103175Y-106385901D01*
X238058524Y-106533110D01*
X238179845Y-106763000D01*
X239373000Y-106763000D01*
X239373000Y-106743000D01*
X239627000Y-106743000D01*
X239627000Y-106763000D01*
X239647000Y-106763000D01*
X239647000Y-107017000D01*
X239627000Y-107017000D01*
X239627000Y-107037000D01*
X239373000Y-107037000D01*
X239373000Y-107017000D01*
X238179845Y-107017000D01*
X238058524Y-107246890D01*
X238103175Y-107394099D01*
X238228359Y-107656920D01*
X238402412Y-107890269D01*
X238618645Y-108085178D01*
X238735534Y-108154805D01*
X238553368Y-108276525D01*
X238346525Y-108483368D01*
X238184010Y-108726589D01*
X238072068Y-108996842D01*
X238015000Y-109283740D01*
X238015000Y-109576260D01*
X238072068Y-109863158D01*
X238184010Y-110133411D01*
X238346525Y-110376632D01*
X238553368Y-110583475D01*
X238727760Y-110700000D01*
X238553368Y-110816525D01*
X238346525Y-111023368D01*
X238184010Y-111266589D01*
X238072068Y-111536842D01*
X238015000Y-111823740D01*
X238015000Y-112116260D01*
X238072068Y-112403158D01*
X238184010Y-112673411D01*
X238346525Y-112916632D01*
X238553368Y-113123475D01*
X238796589Y-113285990D01*
X239066842Y-113397932D01*
X239353740Y-113455000D01*
X239646260Y-113455000D01*
X239933158Y-113397932D01*
X240203411Y-113285990D01*
X240446632Y-113123475D01*
X240653475Y-112916632D01*
X240770000Y-112742240D01*
X240886525Y-112916632D01*
X241093368Y-113123475D01*
X241336589Y-113285990D01*
X241606842Y-113397932D01*
X241893740Y-113455000D01*
X242186260Y-113455000D01*
X242473158Y-113397932D01*
X242743411Y-113285990D01*
X242986632Y-113123475D01*
X243193475Y-112916632D01*
X243355990Y-112673411D01*
X243467932Y-112403158D01*
X243525000Y-112116260D01*
X243525000Y-111823740D01*
X243467932Y-111536842D01*
X243355990Y-111266589D01*
X243193475Y-111023368D01*
X242986632Y-110816525D01*
X242812240Y-110700000D01*
X242986632Y-110583475D01*
X243193475Y-110376632D01*
X243355990Y-110133411D01*
X243467932Y-109863158D01*
X243525000Y-109576260D01*
X243525000Y-109283740D01*
X243467932Y-108996842D01*
X243355990Y-108726589D01*
X243193475Y-108483368D01*
X242986632Y-108276525D01*
X242812240Y-108160000D01*
X242986632Y-108043475D01*
X243193475Y-107836632D01*
X243355990Y-107593411D01*
X243467932Y-107323158D01*
X243525000Y-107036260D01*
X243525000Y-106743740D01*
X243467932Y-106456842D01*
X243355990Y-106186589D01*
X243193475Y-105943368D01*
X242986632Y-105736525D01*
X242812240Y-105620000D01*
X242986632Y-105503475D01*
X243193475Y-105296632D01*
X243355990Y-105053411D01*
X243467932Y-104783158D01*
X243525000Y-104496260D01*
X243525000Y-104203740D01*
X243467932Y-103916842D01*
X243355990Y-103646589D01*
X243193475Y-103403368D01*
X242986632Y-103196525D01*
X242812240Y-103080000D01*
X242986632Y-102963475D01*
X243193475Y-102756632D01*
X243355990Y-102513411D01*
X243467932Y-102243158D01*
X243525000Y-101956260D01*
X243525000Y-101663740D01*
X243467932Y-101376842D01*
X243355990Y-101106589D01*
X243193475Y-100863368D01*
X242986632Y-100656525D01*
X242804466Y-100534805D01*
X242921355Y-100465178D01*
X243137588Y-100270269D01*
X243311641Y-100036920D01*
X243436825Y-99774099D01*
X243481476Y-99626890D01*
X243360155Y-99397000D01*
X242167000Y-99397000D01*
X242167000Y-99417000D01*
X241913000Y-99417000D01*
X241913000Y-99397000D01*
X241893000Y-99397000D01*
X241893000Y-99143000D01*
X241913000Y-99143000D01*
X241913000Y-99123000D01*
X242167000Y-99123000D01*
X242167000Y-99143000D01*
X243360155Y-99143000D01*
X243481476Y-98913110D01*
X243436825Y-98765901D01*
X243311641Y-98503080D01*
X243137588Y-98269731D01*
X242921355Y-98074822D01*
X242804466Y-98005195D01*
X242986632Y-97883475D01*
X243193475Y-97676632D01*
X243355990Y-97433411D01*
X243467932Y-97163158D01*
X243525000Y-96876260D01*
X243525000Y-96583740D01*
X243467932Y-96296842D01*
X243355990Y-96026589D01*
X243193475Y-95783368D01*
X242986632Y-95576525D01*
X242804466Y-95454805D01*
X242921355Y-95385178D01*
X243137588Y-95190269D01*
X243311641Y-94956920D01*
X243436825Y-94694099D01*
X243481476Y-94546890D01*
X243360155Y-94317000D01*
X242167000Y-94317000D01*
X242167000Y-94337000D01*
X241913000Y-94337000D01*
X241913000Y-94317000D01*
X241893000Y-94317000D01*
X241893000Y-94063000D01*
X241913000Y-94063000D01*
X241913000Y-94043000D01*
X242167000Y-94043000D01*
X242167000Y-94063000D01*
X243360155Y-94063000D01*
X243481476Y-93833110D01*
X243436825Y-93685901D01*
X243311641Y-93423080D01*
X243137588Y-93189731D01*
X242921355Y-92994822D01*
X242804466Y-92925195D01*
X242986632Y-92803475D01*
X243193475Y-92596632D01*
X243355990Y-92353411D01*
X243467932Y-92083158D01*
X243525000Y-91796260D01*
X243525000Y-91503740D01*
X243467932Y-91216842D01*
X243355990Y-90946589D01*
X243193475Y-90703368D01*
X242986632Y-90496525D01*
X242812240Y-90380000D01*
X242986632Y-90263475D01*
X243193475Y-90056632D01*
X243355990Y-89813411D01*
X243467932Y-89543158D01*
X243525000Y-89256260D01*
X243525000Y-88963740D01*
X243467932Y-88676842D01*
X243355990Y-88406589D01*
X243193475Y-88163368D01*
X242986632Y-87956525D01*
X242812240Y-87840000D01*
X242986632Y-87723475D01*
X243193475Y-87516632D01*
X243355990Y-87273411D01*
X243467932Y-87003158D01*
X243525000Y-86716260D01*
X243525000Y-86423740D01*
X243467932Y-86136842D01*
X243355990Y-85866589D01*
X243193475Y-85623368D01*
X242986632Y-85416525D01*
X242812240Y-85300000D01*
X242986632Y-85183475D01*
X243193475Y-84976632D01*
X243355990Y-84733411D01*
X243467932Y-84463158D01*
X243525000Y-84176260D01*
X243525000Y-83883740D01*
X243467932Y-83596842D01*
X243355990Y-83326589D01*
X243193475Y-83083368D01*
X242986632Y-82876525D01*
X242743411Y-82714010D01*
X242473158Y-82602068D01*
X242186260Y-82545000D01*
X241893740Y-82545000D01*
X241606842Y-82602068D01*
X241336589Y-82714010D01*
X241093368Y-82876525D01*
X240961513Y-83008380D01*
X240939502Y-82935820D01*
X240880537Y-82825506D01*
X240801185Y-82728815D01*
X240704494Y-82649463D01*
X240594180Y-82590498D01*
X240474482Y-82554188D01*
X240350000Y-82541928D01*
X238650000Y-82541928D01*
X238525518Y-82554188D01*
X238405820Y-82590498D01*
X238295506Y-82649463D01*
X238198815Y-82728815D01*
X238119463Y-82825506D01*
X238060498Y-82935820D01*
X238024188Y-83055518D01*
X238011928Y-83180000D01*
X238011928Y-84880000D01*
X238024188Y-85004482D01*
X238060498Y-85124180D01*
X238119463Y-85234494D01*
X238198815Y-85331185D01*
X238295506Y-85410537D01*
X238405820Y-85469502D01*
X238478380Y-85491513D01*
X238346525Y-85623368D01*
X238184010Y-85866589D01*
X238072068Y-86136842D01*
X238015000Y-86423740D01*
X238015000Y-86716260D01*
X238072068Y-87003158D01*
X238184010Y-87273411D01*
X238346525Y-87516632D01*
X238553368Y-87723475D01*
X238735534Y-87845195D01*
X238618645Y-87914822D01*
X238402412Y-88109731D01*
X238228359Y-88343080D01*
X238103175Y-88605901D01*
X238058524Y-88753110D01*
X238179845Y-88983000D01*
X239373000Y-88983000D01*
X239373000Y-88963000D01*
X239627000Y-88963000D01*
X239627000Y-88983000D01*
X239647000Y-88983000D01*
X239647000Y-89237000D01*
X239627000Y-89237000D01*
X239627000Y-89257000D01*
X239373000Y-89257000D01*
X239373000Y-89237000D01*
X238179845Y-89237000D01*
X238058524Y-89466890D01*
X238064590Y-89486888D01*
X234148904Y-85571203D01*
X234153475Y-85566632D01*
X234315990Y-85323411D01*
X234427932Y-85053158D01*
X234485000Y-84766260D01*
X234485000Y-84473740D01*
X234427932Y-84186842D01*
X234315990Y-83916589D01*
X234153475Y-83673368D01*
X233946632Y-83466525D01*
X233772240Y-83350000D01*
X233946632Y-83233475D01*
X234153475Y-83026632D01*
X234315990Y-82783411D01*
X234427932Y-82513158D01*
X234485000Y-82226260D01*
X234485000Y-81933740D01*
X234427932Y-81646842D01*
X234315990Y-81376589D01*
X234153475Y-81133368D01*
X233946632Y-80926525D01*
X233764466Y-80804805D01*
X233881355Y-80735178D01*
X234097588Y-80540269D01*
X234271641Y-80306920D01*
X234396825Y-80044099D01*
X234441476Y-79896890D01*
X234320155Y-79667000D01*
X233127000Y-79667000D01*
X233127000Y-79687000D01*
X232873000Y-79687000D01*
X232873000Y-79667000D01*
X231679845Y-79667000D01*
X231558524Y-79896890D01*
X231603175Y-80044099D01*
X231728359Y-80306920D01*
X231902412Y-80540269D01*
X232118645Y-80735178D01*
X232235534Y-80804805D01*
X232053368Y-80926525D01*
X231846525Y-81133368D01*
X231684010Y-81376589D01*
X231572068Y-81646842D01*
X231515000Y-81933740D01*
X231515000Y-82226260D01*
X231572068Y-82513158D01*
X231684010Y-82783411D01*
X231846525Y-83026632D01*
X232053368Y-83233475D01*
X232227760Y-83350000D01*
X232053368Y-83466525D01*
X231846525Y-83673368D01*
X231684010Y-83916589D01*
X231572068Y-84186842D01*
X231515000Y-84473740D01*
X231515000Y-84766260D01*
X231572068Y-85053158D01*
X231603897Y-85130000D01*
X223060102Y-85130000D01*
X219499104Y-81569003D01*
X219475301Y-81539999D01*
X219359576Y-81445026D01*
X219227547Y-81374454D01*
X219084286Y-81330997D01*
X219042796Y-81326911D01*
X218913475Y-81133368D01*
X218706632Y-80926525D01*
X218532240Y-80810000D01*
X218706632Y-80693475D01*
X218913475Y-80486632D01*
X219075990Y-80243411D01*
X219187932Y-79973158D01*
X219245000Y-79686260D01*
X219245000Y-79393740D01*
X219187932Y-79106842D01*
X219075990Y-78836589D01*
X218913475Y-78593368D01*
X218781620Y-78461513D01*
X218854180Y-78439502D01*
X218964494Y-78380537D01*
X219061185Y-78301185D01*
X219140537Y-78204494D01*
X219199502Y-78094180D01*
X219235812Y-77974482D01*
X219248072Y-77850000D01*
X219248072Y-76150000D01*
X231511928Y-76150000D01*
X231511928Y-77850000D01*
X231524188Y-77974482D01*
X231560498Y-78094180D01*
X231619463Y-78204494D01*
X231698815Y-78301185D01*
X231795506Y-78380537D01*
X231905820Y-78439502D01*
X231986466Y-78463966D01*
X231902412Y-78539731D01*
X231728359Y-78773080D01*
X231603175Y-79035901D01*
X231558524Y-79183110D01*
X231679845Y-79413000D01*
X232873000Y-79413000D01*
X232873000Y-79393000D01*
X233127000Y-79393000D01*
X233127000Y-79413000D01*
X234320155Y-79413000D01*
X234441476Y-79183110D01*
X234396825Y-79035901D01*
X234271641Y-78773080D01*
X234097588Y-78539731D01*
X234013534Y-78463966D01*
X234094180Y-78439502D01*
X234204494Y-78380537D01*
X234301185Y-78301185D01*
X234380537Y-78204494D01*
X234439502Y-78094180D01*
X234475812Y-77974482D01*
X234488072Y-77850000D01*
X234488072Y-76150000D01*
X234475812Y-76025518D01*
X234439502Y-75905820D01*
X234380537Y-75795506D01*
X234301185Y-75698815D01*
X234204494Y-75619463D01*
X234094180Y-75560498D01*
X233974482Y-75524188D01*
X233850000Y-75511928D01*
X232150000Y-75511928D01*
X232025518Y-75524188D01*
X231905820Y-75560498D01*
X231795506Y-75619463D01*
X231698815Y-75698815D01*
X231619463Y-75795506D01*
X231560498Y-75905820D01*
X231524188Y-76025518D01*
X231511928Y-76150000D01*
X219248072Y-76150000D01*
X219235812Y-76025518D01*
X219199502Y-75905820D01*
X219140537Y-75795506D01*
X219061185Y-75698815D01*
X218964494Y-75619463D01*
X218854180Y-75560498D01*
X218734482Y-75524188D01*
X218610000Y-75511928D01*
X216910000Y-75511928D01*
X216785518Y-75524188D01*
X216665820Y-75560498D01*
X216555506Y-75619463D01*
X216458815Y-75698815D01*
X216379463Y-75795506D01*
X216320498Y-75905820D01*
X216284188Y-76025518D01*
X216271928Y-76150000D01*
X216271928Y-77850000D01*
X216284188Y-77974482D01*
X216320498Y-78094180D01*
X216379463Y-78204494D01*
X216458815Y-78301185D01*
X216555506Y-78380537D01*
X216665820Y-78439502D01*
X216738380Y-78461513D01*
X216606525Y-78593368D01*
X216444010Y-78836589D01*
X216332068Y-79106842D01*
X216275000Y-79393740D01*
X216275000Y-79686260D01*
X216332068Y-79973158D01*
X216444010Y-80243411D01*
X216606525Y-80486632D01*
X216813368Y-80693475D01*
X216987760Y-80810000D01*
X216813368Y-80926525D01*
X216606525Y-81133368D01*
X216444010Y-81376589D01*
X216332068Y-81646842D01*
X216275000Y-81933740D01*
X216275000Y-82226260D01*
X216332068Y-82513158D01*
X216444010Y-82783411D01*
X216606525Y-83026632D01*
X216813368Y-83233475D01*
X216995534Y-83355195D01*
X216878645Y-83424822D01*
X216662412Y-83619731D01*
X216488359Y-83853080D01*
X216363175Y-84115901D01*
X216318524Y-84263110D01*
X216439845Y-84493000D01*
X217633000Y-84493000D01*
X217633000Y-84473000D01*
X217887000Y-84473000D01*
X217887000Y-84493000D01*
X219080155Y-84493000D01*
X219201476Y-84263110D01*
X219156825Y-84115901D01*
X219031641Y-83853080D01*
X218857588Y-83619731D01*
X218641355Y-83424822D01*
X218524466Y-83355195D01*
X218706632Y-83233475D01*
X218860303Y-83079804D01*
X222181500Y-86401002D01*
X222205299Y-86430001D01*
X222321024Y-86524974D01*
X222453053Y-86595546D01*
X222596314Y-86639003D01*
X222707967Y-86650000D01*
X222707975Y-86650000D01*
X222745300Y-86653676D01*
X222782625Y-86650000D01*
X231603897Y-86650000D01*
X231572068Y-86726842D01*
X231515000Y-87013740D01*
X231515000Y-87306260D01*
X231572068Y-87593158D01*
X231684010Y-87863411D01*
X231822509Y-88070689D01*
X225040698Y-94852501D01*
X225011700Y-94876299D01*
X224987902Y-94905297D01*
X224987901Y-94905298D01*
X224916726Y-94992024D01*
X224846154Y-95124054D01*
X224838489Y-95149322D01*
X224638891Y-95078519D01*
X224409000Y-95199186D01*
X224409000Y-96393000D01*
X224429000Y-96393000D01*
X224429000Y-96647000D01*
X224409000Y-96647000D01*
X224409000Y-96667000D01*
X224155000Y-96667000D01*
X224155000Y-96647000D01*
X222961845Y-96647000D01*
X222840524Y-96876890D01*
X222885175Y-97024099D01*
X223010359Y-97286920D01*
X223184412Y-97520269D01*
X223400645Y-97715178D01*
X223517534Y-97784805D01*
X223335368Y-97906525D01*
X223128525Y-98113368D01*
X222966010Y-98356589D01*
X222854068Y-98626842D01*
X222797000Y-98913740D01*
X222797000Y-99206260D01*
X222854068Y-99493158D01*
X222966010Y-99763411D01*
X223104469Y-99970629D01*
X218980869Y-104094230D01*
X218913475Y-103993368D01*
X218706632Y-103786525D01*
X218532240Y-103670000D01*
X218706632Y-103553475D01*
X218913475Y-103346632D01*
X219075990Y-103103411D01*
X219187932Y-102833158D01*
X219245000Y-102546260D01*
X219245000Y-102253740D01*
X219187932Y-101966842D01*
X219075990Y-101696589D01*
X218913475Y-101453368D01*
X218706632Y-101246525D01*
X218532240Y-101130000D01*
X218706632Y-101013475D01*
X218913475Y-100806632D01*
X219075990Y-100563411D01*
X219187932Y-100293158D01*
X219245000Y-100006260D01*
X219245000Y-99713740D01*
X219187932Y-99426842D01*
X219075990Y-99156589D01*
X218913475Y-98913368D01*
X218706632Y-98706525D01*
X218532240Y-98590000D01*
X218706632Y-98473475D01*
X218913475Y-98266632D01*
X219075990Y-98023411D01*
X219187932Y-97753158D01*
X219245000Y-97466260D01*
X219245000Y-97173740D01*
X219187932Y-96886842D01*
X219075990Y-96616589D01*
X218913475Y-96373368D01*
X218706632Y-96166525D01*
X218701522Y-96163110D01*
X222840524Y-96163110D01*
X222961845Y-96393000D01*
X224155000Y-96393000D01*
X224155000Y-95199186D01*
X223925109Y-95078519D01*
X223650748Y-95175843D01*
X223400645Y-95324822D01*
X223184412Y-95519731D01*
X223010359Y-95753080D01*
X222885175Y-96015901D01*
X222840524Y-96163110D01*
X218701522Y-96163110D01*
X218532240Y-96050000D01*
X218706632Y-95933475D01*
X218913475Y-95726632D01*
X219075990Y-95483411D01*
X219187932Y-95213158D01*
X219245000Y-94926260D01*
X219245000Y-94633740D01*
X219187932Y-94346842D01*
X219075990Y-94076589D01*
X218937531Y-93869370D01*
X219446302Y-93360599D01*
X219475301Y-93336801D01*
X219550432Y-93245254D01*
X219570274Y-93221077D01*
X219640846Y-93089047D01*
X219675835Y-92973701D01*
X219684303Y-92945786D01*
X219695300Y-92834133D01*
X219695300Y-92834124D01*
X219698976Y-92796801D01*
X219695300Y-92759478D01*
X219695300Y-86696223D01*
X219698976Y-86658900D01*
X219695300Y-86621577D01*
X219695300Y-86621567D01*
X219684303Y-86509914D01*
X219640846Y-86366653D01*
X219570274Y-86234624D01*
X219475301Y-86118899D01*
X219446304Y-86095102D01*
X218906242Y-85555040D01*
X219031641Y-85386920D01*
X219156825Y-85124099D01*
X219201476Y-84976890D01*
X219080155Y-84747000D01*
X217887000Y-84747000D01*
X217887000Y-84767000D01*
X217633000Y-84767000D01*
X217633000Y-84747000D01*
X216439845Y-84747000D01*
X216318524Y-84976890D01*
X216363175Y-85124099D01*
X216365986Y-85130000D01*
X209890102Y-85130000D01*
X206084000Y-81323899D01*
X206084000Y-77103067D01*
X206206439Y-77021256D01*
X206325202Y-76902493D01*
X208047112Y-76902493D01*
X208112552Y-77141290D01*
X208359412Y-77257120D01*
X208624126Y-77322564D01*
X208896521Y-77335107D01*
X209166129Y-77294268D01*
X209422589Y-77201615D01*
X209535448Y-77141290D01*
X209600888Y-76902493D01*
X208824000Y-76125605D01*
X208047112Y-76902493D01*
X206325202Y-76902493D01*
X206399255Y-76828440D01*
X206550750Y-76601712D01*
X206655101Y-76349785D01*
X206708299Y-76082342D01*
X206708299Y-76018521D01*
X207434893Y-76018521D01*
X207475732Y-76288129D01*
X207568385Y-76544589D01*
X207628710Y-76657448D01*
X207867507Y-76722888D01*
X208644395Y-75946000D01*
X209003605Y-75946000D01*
X209780493Y-76722888D01*
X210019290Y-76657448D01*
X210135120Y-76410588D01*
X210200564Y-76145874D01*
X210213107Y-75873479D01*
X210172268Y-75603871D01*
X210079615Y-75347411D01*
X210019290Y-75234552D01*
X209780493Y-75169112D01*
X209003605Y-75946000D01*
X208644395Y-75946000D01*
X207867507Y-75169112D01*
X207628710Y-75234552D01*
X207512880Y-75481412D01*
X207447436Y-75746126D01*
X207434893Y-76018521D01*
X206708299Y-76018521D01*
X206708299Y-75809658D01*
X206655101Y-75542215D01*
X206550750Y-75290288D01*
X206399255Y-75063560D01*
X206325202Y-74989507D01*
X208047112Y-74989507D01*
X208824000Y-75766395D01*
X209600888Y-74989507D01*
X209535448Y-74750710D01*
X209288588Y-74634880D01*
X209023874Y-74569436D01*
X208751479Y-74556893D01*
X208481871Y-74597732D01*
X208225411Y-74690385D01*
X208112552Y-74750710D01*
X208047112Y-74989507D01*
X206325202Y-74989507D01*
X206206439Y-74870744D01*
X205979711Y-74719249D01*
X205727784Y-74614898D01*
X205460341Y-74561700D01*
X205187657Y-74561700D01*
X204920214Y-74614898D01*
X204668287Y-74719249D01*
X204441559Y-74870744D01*
X204248743Y-75063560D01*
X204097248Y-75290288D01*
X203992897Y-75542215D01*
X203939699Y-75809658D01*
X203939699Y-76082342D01*
X203992897Y-76349785D01*
X204097248Y-76601712D01*
X204248743Y-76828440D01*
X204441559Y-77021256D01*
X204564000Y-77103069D01*
X204564001Y-81323897D01*
X193738072Y-92149827D01*
X193738072Y-91690000D01*
X193725812Y-91565518D01*
X193689502Y-91445820D01*
X193630537Y-91335506D01*
X193551185Y-91238815D01*
X193454494Y-91159463D01*
X193344180Y-91100498D01*
X193224482Y-91064188D01*
X193100000Y-91051928D01*
X191985574Y-91051928D01*
X192335003Y-90702499D01*
X192364001Y-90678701D01*
X192458974Y-90562976D01*
X192529546Y-90430947D01*
X192573003Y-90287686D01*
X192584000Y-90176033D01*
X192584000Y-90176024D01*
X192587676Y-90138701D01*
X192584000Y-90101378D01*
X192584000Y-77103068D01*
X192706440Y-77021256D01*
X192825203Y-76902493D01*
X197547110Y-76902493D01*
X197612550Y-77141290D01*
X197859410Y-77257120D01*
X198124124Y-77322564D01*
X198396519Y-77335107D01*
X198666127Y-77294268D01*
X198922587Y-77201615D01*
X199035446Y-77141290D01*
X199100886Y-76902493D01*
X198323998Y-76125605D01*
X197547110Y-76902493D01*
X192825203Y-76902493D01*
X192899256Y-76828440D01*
X193050751Y-76601712D01*
X193155102Y-76349785D01*
X193208300Y-76082342D01*
X193208300Y-76018521D01*
X196934891Y-76018521D01*
X196975730Y-76288129D01*
X197068383Y-76544589D01*
X197128708Y-76657448D01*
X197367505Y-76722888D01*
X198144393Y-75946000D01*
X198503603Y-75946000D01*
X199280491Y-76722888D01*
X199519288Y-76657448D01*
X199635118Y-76410588D01*
X199700562Y-76145874D01*
X199713105Y-75873479D01*
X199703438Y-75809658D01*
X200439699Y-75809658D01*
X200439699Y-76082342D01*
X200492897Y-76349785D01*
X200597248Y-76601712D01*
X200748743Y-76828440D01*
X200941559Y-77021256D01*
X201168287Y-77172751D01*
X201420214Y-77277102D01*
X201687657Y-77330300D01*
X201960341Y-77330300D01*
X202227784Y-77277102D01*
X202479711Y-77172751D01*
X202706439Y-77021256D01*
X202899255Y-76828440D01*
X203050750Y-76601712D01*
X203155101Y-76349785D01*
X203208299Y-76082342D01*
X203208299Y-75809658D01*
X203155101Y-75542215D01*
X203050750Y-75290288D01*
X202899255Y-75063560D01*
X202706439Y-74870744D01*
X202479711Y-74719249D01*
X202227784Y-74614898D01*
X201960341Y-74561700D01*
X201687657Y-74561700D01*
X201420214Y-74614898D01*
X201168287Y-74719249D01*
X200941559Y-74870744D01*
X200748743Y-75063560D01*
X200597248Y-75290288D01*
X200492897Y-75542215D01*
X200439699Y-75809658D01*
X199703438Y-75809658D01*
X199672266Y-75603871D01*
X199579613Y-75347411D01*
X199519288Y-75234552D01*
X199280491Y-75169112D01*
X198503603Y-75946000D01*
X198144393Y-75946000D01*
X197367505Y-75169112D01*
X197128708Y-75234552D01*
X197012878Y-75481412D01*
X196947434Y-75746126D01*
X196934891Y-76018521D01*
X193208300Y-76018521D01*
X193208300Y-75809658D01*
X193155102Y-75542215D01*
X193050751Y-75290288D01*
X192899256Y-75063560D01*
X192825203Y-74989507D01*
X197547110Y-74989507D01*
X198323998Y-75766395D01*
X199100886Y-74989507D01*
X199035446Y-74750710D01*
X198788586Y-74634880D01*
X198523872Y-74569436D01*
X198251477Y-74556893D01*
X197981869Y-74597732D01*
X197725409Y-74690385D01*
X197612550Y-74750710D01*
X197547110Y-74989507D01*
X192825203Y-74989507D01*
X192706440Y-74870744D01*
X192479712Y-74719249D01*
X192227785Y-74614898D01*
X191960342Y-74561700D01*
X191687658Y-74561700D01*
X191420215Y-74614898D01*
X191168288Y-74719249D01*
X190941560Y-74870744D01*
X190748744Y-75063560D01*
X190597249Y-75290288D01*
X190492898Y-75542215D01*
X190439700Y-75809658D01*
X190439700Y-76082342D01*
X190492898Y-76349785D01*
X190597249Y-76601712D01*
X190748744Y-76828440D01*
X190941560Y-77021256D01*
X191064000Y-77103068D01*
X191064001Y-89823897D01*
X188738072Y-92149827D01*
X188738072Y-91690000D01*
X188725812Y-91565518D01*
X188689502Y-91445820D01*
X188630537Y-91335506D01*
X188551185Y-91238815D01*
X188454494Y-91159463D01*
X188344180Y-91100498D01*
X188224482Y-91064188D01*
X188100000Y-91051928D01*
X186400000Y-91051928D01*
X186275518Y-91064188D01*
X186155820Y-91100498D01*
X186045506Y-91159463D01*
X185948815Y-91238815D01*
X185869463Y-91335506D01*
X185810498Y-91445820D01*
X185774188Y-91565518D01*
X185761928Y-91690000D01*
X185761928Y-93390000D01*
X185774188Y-93514482D01*
X185810498Y-93634180D01*
X185869463Y-93744494D01*
X185948815Y-93841185D01*
X186045506Y-93920537D01*
X186155820Y-93979502D01*
X186228380Y-94001513D01*
X186096525Y-94133368D01*
X185934010Y-94376589D01*
X185822068Y-94646842D01*
X185765000Y-94933740D01*
X185765000Y-95226260D01*
X185818516Y-95495300D01*
X183681484Y-95495300D01*
X183735000Y-95226260D01*
X183735000Y-94933740D01*
X183677932Y-94646842D01*
X183565990Y-94376589D01*
X183403475Y-94133368D01*
X183271620Y-94001513D01*
X183344180Y-93979502D01*
X183454494Y-93920537D01*
X183551185Y-93841185D01*
X183630537Y-93744494D01*
X183689502Y-93634180D01*
X183725812Y-93514482D01*
X183738072Y-93390000D01*
X183738072Y-91690000D01*
X183725812Y-91565518D01*
X183689502Y-91445820D01*
X183630537Y-91335506D01*
X183551185Y-91238815D01*
X183454494Y-91159463D01*
X183344180Y-91100498D01*
X183224482Y-91064188D01*
X183100000Y-91051928D01*
X181834700Y-91051928D01*
X181834700Y-77232816D01*
X181979710Y-77172751D01*
X182206438Y-77021256D01*
X182325201Y-76902493D01*
X184047111Y-76902493D01*
X184112551Y-77141290D01*
X184359411Y-77257120D01*
X184624125Y-77322564D01*
X184896520Y-77335107D01*
X185166128Y-77294268D01*
X185422588Y-77201615D01*
X185535447Y-77141290D01*
X185600887Y-76902493D01*
X184823999Y-76125605D01*
X184047111Y-76902493D01*
X182325201Y-76902493D01*
X182399254Y-76828440D01*
X182550749Y-76601712D01*
X182655100Y-76349785D01*
X182708298Y-76082342D01*
X182708298Y-76018521D01*
X183434892Y-76018521D01*
X183475731Y-76288129D01*
X183568384Y-76544589D01*
X183628709Y-76657448D01*
X183867506Y-76722888D01*
X184644394Y-75946000D01*
X185003604Y-75946000D01*
X185780492Y-76722888D01*
X186019289Y-76657448D01*
X186135119Y-76410588D01*
X186200563Y-76145874D01*
X186213106Y-75873479D01*
X186203439Y-75809658D01*
X186939699Y-75809658D01*
X186939699Y-76082342D01*
X186992897Y-76349785D01*
X187097248Y-76601712D01*
X187248743Y-76828440D01*
X187441559Y-77021256D01*
X187668287Y-77172751D01*
X187920214Y-77277102D01*
X188187657Y-77330300D01*
X188460341Y-77330300D01*
X188727784Y-77277102D01*
X188979711Y-77172751D01*
X189206439Y-77021256D01*
X189399255Y-76828440D01*
X189550750Y-76601712D01*
X189655101Y-76349785D01*
X189708299Y-76082342D01*
X189708299Y-75809658D01*
X189655101Y-75542215D01*
X189550750Y-75290288D01*
X189399255Y-75063560D01*
X189206439Y-74870744D01*
X188979711Y-74719249D01*
X188727784Y-74614898D01*
X188460341Y-74561700D01*
X188187657Y-74561700D01*
X187920214Y-74614898D01*
X187668287Y-74719249D01*
X187441559Y-74870744D01*
X187248743Y-75063560D01*
X187097248Y-75290288D01*
X186992897Y-75542215D01*
X186939699Y-75809658D01*
X186203439Y-75809658D01*
X186172267Y-75603871D01*
X186079614Y-75347411D01*
X186019289Y-75234552D01*
X185780492Y-75169112D01*
X185003604Y-75946000D01*
X184644394Y-75946000D01*
X183867506Y-75169112D01*
X183628709Y-75234552D01*
X183512879Y-75481412D01*
X183447435Y-75746126D01*
X183434892Y-76018521D01*
X182708298Y-76018521D01*
X182708298Y-75809658D01*
X182655100Y-75542215D01*
X182550749Y-75290288D01*
X182399254Y-75063560D01*
X182325201Y-74989507D01*
X184047111Y-74989507D01*
X184823999Y-75766395D01*
X185600887Y-74989507D01*
X185535447Y-74750710D01*
X185288587Y-74634880D01*
X185023873Y-74569436D01*
X184751478Y-74556893D01*
X184481870Y-74597732D01*
X184225410Y-74690385D01*
X184112551Y-74750710D01*
X184047111Y-74989507D01*
X182325201Y-74989507D01*
X182206438Y-74870744D01*
X181979710Y-74719249D01*
X181727783Y-74614898D01*
X181460340Y-74561700D01*
X181187656Y-74561700D01*
X180920213Y-74614898D01*
X180668286Y-74719249D01*
X180441558Y-74870744D01*
X180248742Y-75063560D01*
X180097247Y-75290288D01*
X179992896Y-75542215D01*
X179939698Y-75809658D01*
X179939698Y-76082342D01*
X179992896Y-76349785D01*
X180097247Y-76601712D01*
X180248742Y-76828440D01*
X180314700Y-76894398D01*
X180314701Y-93500167D01*
X180311024Y-93537500D01*
X180325698Y-93686485D01*
X180369154Y-93829746D01*
X180439726Y-93961776D01*
X180506993Y-94043740D01*
X180534700Y-94077501D01*
X180563698Y-94101299D01*
X180878096Y-94415697D01*
X180901899Y-94444701D01*
X180904808Y-94447089D01*
X180822068Y-94646842D01*
X180765000Y-94933740D01*
X180765000Y-95226260D01*
X180818516Y-95495300D01*
X179915402Y-95495300D01*
X178989104Y-94569003D01*
X178965301Y-94539999D01*
X178849576Y-94445026D01*
X178717547Y-94374454D01*
X178574286Y-94330997D01*
X178532796Y-94326911D01*
X178403475Y-94133368D01*
X178271620Y-94001513D01*
X178344180Y-93979502D01*
X178454494Y-93920537D01*
X178551185Y-93841185D01*
X178630537Y-93744494D01*
X178689502Y-93634180D01*
X178725812Y-93514482D01*
X178738072Y-93390000D01*
X178738072Y-91690000D01*
X178725812Y-91565518D01*
X178689502Y-91445820D01*
X178630537Y-91335506D01*
X178551185Y-91238815D01*
X178454494Y-91159463D01*
X178344180Y-91100498D01*
X178224482Y-91064188D01*
X178100000Y-91051928D01*
X176400000Y-91051928D01*
X176275518Y-91064188D01*
X176155820Y-91100498D01*
X176045506Y-91159463D01*
X175948815Y-91238815D01*
X175869463Y-91335506D01*
X175810498Y-91445820D01*
X175774188Y-91565518D01*
X175761928Y-91690000D01*
X175761928Y-92149825D01*
X168584000Y-84971899D01*
X168584000Y-77103067D01*
X168706439Y-77021256D01*
X168825202Y-76902493D01*
X170547111Y-76902493D01*
X170612551Y-77141290D01*
X170859411Y-77257120D01*
X171124125Y-77322564D01*
X171396520Y-77335107D01*
X171666128Y-77294268D01*
X171922588Y-77201615D01*
X172035447Y-77141290D01*
X172100887Y-76902493D01*
X171323999Y-76125605D01*
X170547111Y-76902493D01*
X168825202Y-76902493D01*
X168899255Y-76828440D01*
X169050750Y-76601712D01*
X169155101Y-76349785D01*
X169208299Y-76082342D01*
X169208299Y-76018521D01*
X169934892Y-76018521D01*
X169975731Y-76288129D01*
X170068384Y-76544589D01*
X170128709Y-76657448D01*
X170367506Y-76722888D01*
X171144394Y-75946000D01*
X171503604Y-75946000D01*
X172280492Y-76722888D01*
X172519289Y-76657448D01*
X172635119Y-76410588D01*
X172700563Y-76145874D01*
X172713106Y-75873479D01*
X172703439Y-75809658D01*
X173439700Y-75809658D01*
X173439700Y-76082342D01*
X173492898Y-76349785D01*
X173597249Y-76601712D01*
X173748744Y-76828440D01*
X173941560Y-77021256D01*
X174168288Y-77172751D01*
X174420215Y-77277102D01*
X174687658Y-77330300D01*
X174960342Y-77330300D01*
X175227785Y-77277102D01*
X175479712Y-77172751D01*
X175706440Y-77021256D01*
X175899256Y-76828440D01*
X176050751Y-76601712D01*
X176155102Y-76349785D01*
X176208300Y-76082342D01*
X176208300Y-75809658D01*
X176155102Y-75542215D01*
X176050751Y-75290288D01*
X175899256Y-75063560D01*
X175706440Y-74870744D01*
X175479712Y-74719249D01*
X175227785Y-74614898D01*
X174960342Y-74561700D01*
X174687658Y-74561700D01*
X174420215Y-74614898D01*
X174168288Y-74719249D01*
X173941560Y-74870744D01*
X173748744Y-75063560D01*
X173597249Y-75290288D01*
X173492898Y-75542215D01*
X173439700Y-75809658D01*
X172703439Y-75809658D01*
X172672267Y-75603871D01*
X172579614Y-75347411D01*
X172519289Y-75234552D01*
X172280492Y-75169112D01*
X171503604Y-75946000D01*
X171144394Y-75946000D01*
X170367506Y-75169112D01*
X170128709Y-75234552D01*
X170012879Y-75481412D01*
X169947435Y-75746126D01*
X169934892Y-76018521D01*
X169208299Y-76018521D01*
X169208299Y-75809658D01*
X169155101Y-75542215D01*
X169050750Y-75290288D01*
X168899255Y-75063560D01*
X168825202Y-74989507D01*
X170547111Y-74989507D01*
X171323999Y-75766395D01*
X172100887Y-74989507D01*
X172035447Y-74750710D01*
X171788587Y-74634880D01*
X171523873Y-74569436D01*
X171251478Y-74556893D01*
X170981870Y-74597732D01*
X170725410Y-74690385D01*
X170612551Y-74750710D01*
X170547111Y-74989507D01*
X168825202Y-74989507D01*
X168706439Y-74870744D01*
X168479711Y-74719249D01*
X168227784Y-74614898D01*
X167960341Y-74561700D01*
X167687657Y-74561700D01*
X167420214Y-74614898D01*
X167168287Y-74719249D01*
X166941559Y-74870744D01*
X166748743Y-75063560D01*
X166597248Y-75290288D01*
X166492897Y-75542215D01*
X166439699Y-75809658D01*
X165708298Y-75809658D01*
X165655100Y-75542215D01*
X165550749Y-75290288D01*
X165399254Y-75063560D01*
X165206438Y-74870744D01*
X164979710Y-74719249D01*
X164727783Y-74614898D01*
X164460340Y-74561700D01*
X164187656Y-74561700D01*
X163920213Y-74614898D01*
X163668286Y-74719249D01*
X163441558Y-74870744D01*
X163248742Y-75063560D01*
X163097247Y-75290288D01*
X162992896Y-75542215D01*
X162939698Y-75809658D01*
X160685000Y-75809658D01*
X160685000Y-73533504D01*
X160741834Y-72953869D01*
X160900441Y-72428538D01*
X161158064Y-71944020D01*
X161504889Y-71518769D01*
X161927711Y-71168980D01*
X162410414Y-70907984D01*
X162934628Y-70745713D01*
X163512271Y-70685000D01*
X241466496Y-70685000D01*
X242046131Y-70741834D01*
%TA.AperFunction,Conductor*%
D15*
G36*
X242046131Y-70741834D02*
G01*
X242571462Y-70900441D01*
X243055980Y-71158064D01*
X243481231Y-71504889D01*
X243831020Y-71927711D01*
X244092016Y-72410414D01*
X244254287Y-72934628D01*
X244315000Y-73512271D01*
X244315001Y-122466486D01*
X244258166Y-123046131D01*
X244099559Y-123571462D01*
X243841937Y-124055978D01*
X243495111Y-124481231D01*
X243072292Y-124831017D01*
X242589588Y-125092015D01*
X242065371Y-125254287D01*
X241487729Y-125315000D01*
X163533504Y-125315000D01*
X162953869Y-125258166D01*
X162428538Y-125099559D01*
X161944022Y-124841937D01*
X161518769Y-124495111D01*
X161168983Y-124072292D01*
X160907985Y-123589588D01*
X160745713Y-123065371D01*
X160685000Y-122487729D01*
X160685000Y-120005658D01*
X163243700Y-120005658D01*
X163243700Y-120278342D01*
X163296898Y-120545785D01*
X163401249Y-120797712D01*
X163552744Y-121024440D01*
X163745560Y-121217256D01*
X163972288Y-121368751D01*
X164224215Y-121473102D01*
X164491658Y-121526300D01*
X164764342Y-121526300D01*
X165031785Y-121473102D01*
X165283712Y-121368751D01*
X165510440Y-121217256D01*
X165703256Y-121024440D01*
X165854751Y-120797712D01*
X165959102Y-120545785D01*
X166012300Y-120278342D01*
X166012300Y-120005658D01*
X165959102Y-119738215D01*
X165854751Y-119486288D01*
X165703256Y-119259560D01*
X165510440Y-119066744D01*
X165283712Y-118915249D01*
X165031785Y-118810898D01*
X164764342Y-118757700D01*
X164491658Y-118757700D01*
X164224215Y-118810898D01*
X163972288Y-118915249D01*
X163745560Y-119066744D01*
X163552744Y-119259560D01*
X163401249Y-119486288D01*
X163296898Y-119738215D01*
X163243700Y-120005658D01*
X160685000Y-120005658D01*
X160685000Y-85720000D01*
X161511928Y-85720000D01*
X161511928Y-87420000D01*
X161524188Y-87544482D01*
X161560498Y-87664180D01*
X161619463Y-87774494D01*
X161698815Y-87871185D01*
X161795506Y-87950537D01*
X161905820Y-88009502D01*
X161978380Y-88031513D01*
X161846525Y-88163368D01*
X161684010Y-88406589D01*
X161572068Y-88676842D01*
X161515000Y-88963740D01*
X161515000Y-89256260D01*
X161572068Y-89543158D01*
X161684010Y-89813411D01*
X161846525Y-90056632D01*
X162053368Y-90263475D01*
X162227760Y-90380000D01*
X162053368Y-90496525D01*
X161846525Y-90703368D01*
X161684010Y-90946589D01*
X161572068Y-91216842D01*
X161515000Y-91503740D01*
X161515000Y-91796260D01*
X161572068Y-92083158D01*
X161684010Y-92353411D01*
X161846525Y-92596632D01*
X162053368Y-92803475D01*
X162227760Y-92920000D01*
X162053368Y-93036525D01*
X161846525Y-93243368D01*
X161684010Y-93486589D01*
X161572068Y-93756842D01*
X161515000Y-94043740D01*
X161515000Y-94336260D01*
X161572068Y-94623158D01*
X161684010Y-94893411D01*
X161846525Y-95136632D01*
X162053368Y-95343475D01*
X162235534Y-95465195D01*
X162118645Y-95534822D01*
X161902412Y-95729731D01*
X161728359Y-95963080D01*
X161603175Y-96225901D01*
X161558524Y-96373110D01*
X161679845Y-96603000D01*
X162873000Y-96603000D01*
X162873000Y-96583000D01*
X163127000Y-96583000D01*
X163127000Y-96603000D01*
X163147000Y-96603000D01*
X163147000Y-96857000D01*
X163127000Y-96857000D01*
X163127000Y-96877000D01*
X162873000Y-96877000D01*
X162873000Y-96857000D01*
X161679845Y-96857000D01*
X161558524Y-97086890D01*
X161603175Y-97234099D01*
X161728359Y-97496920D01*
X161902412Y-97730269D01*
X162118645Y-97925178D01*
X162235534Y-97994805D01*
X162053368Y-98116525D01*
X161846525Y-98323368D01*
X161684010Y-98566589D01*
X161572068Y-98836842D01*
X161515000Y-99123740D01*
X161515000Y-99416260D01*
X161572068Y-99703158D01*
X161684010Y-99973411D01*
X161846525Y-100216632D01*
X162053368Y-100423475D01*
X162227760Y-100540000D01*
X162053368Y-100656525D01*
X161846525Y-100863368D01*
X161684010Y-101106589D01*
X161572068Y-101376842D01*
X161515000Y-101663740D01*
X161515000Y-101956260D01*
X161572068Y-102243158D01*
X161684010Y-102513411D01*
X161846525Y-102756632D01*
X162053368Y-102963475D01*
X162227760Y-103080000D01*
X162053368Y-103196525D01*
X161846525Y-103403368D01*
X161684010Y-103646589D01*
X161572068Y-103916842D01*
X161515000Y-104203740D01*
X161515000Y-104496260D01*
X161572068Y-104783158D01*
X161684010Y-105053411D01*
X161846525Y-105296632D01*
X162053368Y-105503475D01*
X162227760Y-105620000D01*
X162053368Y-105736525D01*
X161846525Y-105943368D01*
X161684010Y-106186589D01*
X161572068Y-106456842D01*
X161515000Y-106743740D01*
X161515000Y-107036260D01*
X161572068Y-107323158D01*
X161684010Y-107593411D01*
X161846525Y-107836632D01*
X162053368Y-108043475D01*
X162227760Y-108160000D01*
X162053368Y-108276525D01*
X161846525Y-108483368D01*
X161684010Y-108726589D01*
X161572068Y-108996842D01*
X161515000Y-109283740D01*
X161515000Y-109576260D01*
X161572068Y-109863158D01*
X161684010Y-110133411D01*
X161846525Y-110376632D01*
X162053368Y-110583475D01*
X162296589Y-110745990D01*
X162566842Y-110857932D01*
X162853740Y-110915000D01*
X163146260Y-110915000D01*
X163433158Y-110857932D01*
X163703411Y-110745990D01*
X163946632Y-110583475D01*
X164153475Y-110376632D01*
X164271100Y-110200594D01*
X164442412Y-110430269D01*
X164658645Y-110625178D01*
X164908748Y-110774157D01*
X165183109Y-110871481D01*
X165413000Y-110750814D01*
X165413000Y-109557000D01*
X165667000Y-109557000D01*
X165667000Y-110750814D01*
X165896891Y-110871481D01*
X166171252Y-110774157D01*
X166421355Y-110625178D01*
X166637588Y-110430269D01*
X166811641Y-110196920D01*
X166936825Y-109934099D01*
X166981476Y-109786890D01*
X166860155Y-109557000D01*
X165667000Y-109557000D01*
X165413000Y-109557000D01*
X165393000Y-109557000D01*
X165393000Y-109303000D01*
X165413000Y-109303000D01*
X165413000Y-109283000D01*
X165667000Y-109283000D01*
X165667000Y-109303000D01*
X166860155Y-109303000D01*
X166981476Y-109073110D01*
X166936825Y-108925901D01*
X166811641Y-108663080D01*
X166637588Y-108429731D01*
X166421355Y-108234822D01*
X166304466Y-108165195D01*
X166486632Y-108043475D01*
X166693475Y-107836632D01*
X166855990Y-107593411D01*
X166967932Y-107323158D01*
X167025000Y-107036260D01*
X167025000Y-106743740D01*
X166967932Y-106456842D01*
X166855990Y-106186589D01*
X166693475Y-105943368D01*
X166486632Y-105736525D01*
X166312240Y-105620000D01*
X166486632Y-105503475D01*
X166693475Y-105296632D01*
X166855990Y-105053411D01*
X166967932Y-104783158D01*
X167025000Y-104496260D01*
X167025000Y-104203740D01*
X166967932Y-103916842D01*
X166855990Y-103646589D01*
X166693475Y-103403368D01*
X166486632Y-103196525D01*
X166304466Y-103074805D01*
X166421355Y-103005178D01*
X166637588Y-102810269D01*
X166811641Y-102576920D01*
X166936825Y-102314099D01*
X166981476Y-102166890D01*
X166860155Y-101937000D01*
X165667000Y-101937000D01*
X165667000Y-101957000D01*
X165413000Y-101957000D01*
X165413000Y-101937000D01*
X165393000Y-101937000D01*
X165393000Y-101683000D01*
X165413000Y-101683000D01*
X165413000Y-101663000D01*
X165667000Y-101663000D01*
X165667000Y-101683000D01*
X166860155Y-101683000D01*
X166981476Y-101453110D01*
X166936825Y-101305901D01*
X166811641Y-101043080D01*
X166637588Y-100809731D01*
X166421355Y-100614822D01*
X166304466Y-100545195D01*
X166486632Y-100423475D01*
X166693475Y-100216632D01*
X166855990Y-99973411D01*
X166967932Y-99703158D01*
X167025000Y-99416260D01*
X167025000Y-99123740D01*
X166967932Y-98836842D01*
X166855990Y-98566589D01*
X166693475Y-98323368D01*
X166486632Y-98116525D01*
X166312240Y-98000000D01*
X166486632Y-97883475D01*
X166693475Y-97676632D01*
X166855990Y-97433411D01*
X166967932Y-97163158D01*
X167025000Y-96876260D01*
X167025000Y-96583740D01*
X166967932Y-96296842D01*
X166855990Y-96026589D01*
X166693475Y-95783368D01*
X166486632Y-95576525D01*
X166312240Y-95460000D01*
X166486632Y-95343475D01*
X166693475Y-95136632D01*
X166855990Y-94893411D01*
X166967932Y-94623158D01*
X167025000Y-94336260D01*
X167025000Y-94043740D01*
X166967932Y-93756842D01*
X166855990Y-93486589D01*
X166693475Y-93243368D01*
X166486632Y-93036525D01*
X166304466Y-92914805D01*
X166421355Y-92845178D01*
X166637588Y-92650269D01*
X166811641Y-92416920D01*
X166936825Y-92154099D01*
X166981476Y-92006890D01*
X166860155Y-91777000D01*
X165667000Y-91777000D01*
X165667000Y-91797000D01*
X165413000Y-91797000D01*
X165413000Y-91777000D01*
X165393000Y-91777000D01*
X165393000Y-91523000D01*
X165413000Y-91523000D01*
X165413000Y-91503000D01*
X165667000Y-91503000D01*
X165667000Y-91523000D01*
X166860155Y-91523000D01*
X166981476Y-91293110D01*
X166936825Y-91145901D01*
X166811641Y-90883080D01*
X166637588Y-90649731D01*
X166421355Y-90454822D01*
X166304466Y-90385195D01*
X166486632Y-90263475D01*
X166693475Y-90056632D01*
X166855990Y-89813411D01*
X166967932Y-89543158D01*
X167025000Y-89256260D01*
X167025000Y-88963740D01*
X166967932Y-88676842D01*
X166855990Y-88406589D01*
X166693475Y-88163368D01*
X166486632Y-87956525D01*
X166312240Y-87840000D01*
X166486632Y-87723475D01*
X166693475Y-87516632D01*
X166855990Y-87273411D01*
X166967932Y-87003158D01*
X167025000Y-86716260D01*
X167025000Y-86423740D01*
X166967932Y-86136842D01*
X166855990Y-85866589D01*
X166693475Y-85623368D01*
X166486632Y-85416525D01*
X166243411Y-85254010D01*
X165973158Y-85142068D01*
X165686260Y-85085000D01*
X165393740Y-85085000D01*
X165106842Y-85142068D01*
X164836589Y-85254010D01*
X164593368Y-85416525D01*
X164461513Y-85548380D01*
X164439502Y-85475820D01*
X164380537Y-85365506D01*
X164301185Y-85268815D01*
X164204494Y-85189463D01*
X164094180Y-85130498D01*
X163974482Y-85094188D01*
X163850000Y-85081928D01*
X162150000Y-85081928D01*
X162025518Y-85094188D01*
X161905820Y-85130498D01*
X161795506Y-85189463D01*
X161698815Y-85268815D01*
X161619463Y-85365506D01*
X161560498Y-85475820D01*
X161524188Y-85595518D01*
X161511928Y-85720000D01*
X160685000Y-85720000D01*
X160685000Y-75809658D01*
X162939698Y-75809658D01*
X162939698Y-76082342D01*
X162992896Y-76349785D01*
X163097247Y-76601712D01*
X163248742Y-76828440D01*
X163441558Y-77021256D01*
X163668286Y-77172751D01*
X163920213Y-77277102D01*
X164187656Y-77330300D01*
X164460340Y-77330300D01*
X164727783Y-77277102D01*
X164979710Y-77172751D01*
X165206438Y-77021256D01*
X165399254Y-76828440D01*
X165550749Y-76601712D01*
X165655100Y-76349785D01*
X165708298Y-76082342D01*
X165708298Y-75809658D01*
X166439699Y-75809658D01*
X166439699Y-76082342D01*
X166492897Y-76349785D01*
X166597248Y-76601712D01*
X166748743Y-76828440D01*
X166941559Y-77021256D01*
X167064000Y-77103069D01*
X167064001Y-85249368D01*
X167060324Y-85286700D01*
X167064001Y-85324033D01*
X167074998Y-85435686D01*
X167084110Y-85465724D01*
X167118454Y-85578946D01*
X167189026Y-85710976D01*
X167260201Y-85797702D01*
X167284000Y-85826701D01*
X167312998Y-85850499D01*
X175878205Y-94415708D01*
X175901999Y-94444701D01*
X175904834Y-94447027D01*
X175822068Y-94646842D01*
X175765000Y-94933740D01*
X175765000Y-95226260D01*
X175822068Y-95513158D01*
X175934010Y-95783411D01*
X176096525Y-96026632D01*
X176303368Y-96233475D01*
X176477760Y-96350000D01*
X176303368Y-96466525D01*
X176096525Y-96673368D01*
X175934010Y-96916589D01*
X175822068Y-97186842D01*
X175765000Y-97473740D01*
X175765000Y-97766260D01*
X175822068Y-98053158D01*
X175934010Y-98323411D01*
X176096525Y-98566632D01*
X176303368Y-98773475D01*
X176546589Y-98935990D01*
X176816842Y-99047932D01*
X177103740Y-99105000D01*
X177396260Y-99105000D01*
X177683158Y-99047932D01*
X177953411Y-98935990D01*
X178196632Y-98773475D01*
X178403475Y-98566632D01*
X178565990Y-98323411D01*
X178677932Y-98053158D01*
X178735000Y-97766260D01*
X178735000Y-97473740D01*
X178677932Y-97186842D01*
X178565990Y-96916589D01*
X178403475Y-96673368D01*
X178196632Y-96466525D01*
X178022240Y-96350000D01*
X178196632Y-96233475D01*
X178350303Y-96079804D01*
X179036801Y-96766303D01*
X179060599Y-96795301D01*
X179176324Y-96890274D01*
X179308353Y-96960846D01*
X179451614Y-97004303D01*
X179563267Y-97015300D01*
X179563276Y-97015300D01*
X179600599Y-97018976D01*
X179637922Y-97015300D01*
X180893123Y-97015300D01*
X180822068Y-97186842D01*
X180765000Y-97473740D01*
X180765000Y-97766260D01*
X180822068Y-98053158D01*
X180934010Y-98323411D01*
X181096525Y-98566632D01*
X181303368Y-98773475D01*
X181546589Y-98935990D01*
X181816842Y-99047932D01*
X182103740Y-99105000D01*
X182396260Y-99105000D01*
X182683158Y-99047932D01*
X182953411Y-98935990D01*
X183196632Y-98773475D01*
X183403475Y-98566632D01*
X183565990Y-98323411D01*
X183677932Y-98053158D01*
X183735000Y-97766260D01*
X183735000Y-97473740D01*
X183677932Y-97186842D01*
X183606877Y-97015300D01*
X185893123Y-97015300D01*
X185822068Y-97186842D01*
X185765000Y-97473740D01*
X185765000Y-97766260D01*
X185822068Y-98053158D01*
X185934010Y-98323411D01*
X186096525Y-98566632D01*
X186303368Y-98773475D01*
X186546589Y-98935990D01*
X186816842Y-99047932D01*
X187103740Y-99105000D01*
X187396260Y-99105000D01*
X187683158Y-99047932D01*
X187953411Y-98935990D01*
X188196632Y-98773475D01*
X188403475Y-98566632D01*
X188565990Y-98323411D01*
X188677932Y-98053158D01*
X188735000Y-97766260D01*
X188735000Y-97473740D01*
X188677932Y-97186842D01*
X188606877Y-97015300D01*
X190893123Y-97015300D01*
X190822068Y-97186842D01*
X190765000Y-97473740D01*
X190765000Y-97766260D01*
X190822068Y-98053158D01*
X190934010Y-98323411D01*
X191096525Y-98566632D01*
X191303368Y-98773475D01*
X191546589Y-98935990D01*
X191816842Y-99047932D01*
X192103740Y-99105000D01*
X192396260Y-99105000D01*
X192683158Y-99047932D01*
X192953411Y-98935990D01*
X193196632Y-98773475D01*
X193403475Y-98566632D01*
X193565990Y-98323411D01*
X193677932Y-98053158D01*
X193735000Y-97766260D01*
X193735000Y-97473740D01*
X193677932Y-97186842D01*
X193606877Y-97015300D01*
X199767378Y-97015300D01*
X199804700Y-97018976D01*
X199842022Y-97015300D01*
X199842033Y-97015300D01*
X199860323Y-97013499D01*
X199780399Y-97237285D01*
X199775724Y-97253837D01*
X199695724Y-97633837D01*
X199693106Y-97654821D01*
X199673106Y-98144821D01*
X199674207Y-98167471D01*
X199724207Y-98527471D01*
X199726792Y-98540802D01*
X199806792Y-98860802D01*
X199812339Y-98877800D01*
X199942339Y-99197800D01*
X199949550Y-99212688D01*
X200159550Y-99582688D01*
X200168820Y-99596757D01*
X200388820Y-99886757D01*
X200404304Y-99903730D01*
X200754304Y-100223730D01*
X200771324Y-100236830D01*
X201191324Y-100506830D01*
X201211914Y-100517544D01*
X201651914Y-100697544D01*
X201671854Y-100703842D01*
X202111854Y-100803842D01*
X202137178Y-100806969D01*
X202587178Y-100816969D01*
X202602332Y-100816400D01*
X203012332Y-100776400D01*
X203032177Y-100772856D01*
X203452177Y-100662856D01*
X203473220Y-100655311D01*
X203863220Y-100475311D01*
X203878183Y-100467145D01*
X204208183Y-100257145D01*
X204225283Y-100244105D01*
X204545283Y-99954105D01*
X204558293Y-99940421D01*
X204828293Y-99610421D01*
X204839700Y-99593992D01*
X205049700Y-99233992D01*
X205058465Y-99215771D01*
X205228465Y-98775771D01*
X205234757Y-98753763D01*
X205314757Y-98333763D01*
X205316971Y-98312702D01*
X205326971Y-97842702D01*
X205325523Y-97820689D01*
X205265523Y-97430689D01*
X205263425Y-97420079D01*
X205183425Y-97090079D01*
X205176352Y-97069096D01*
X205036352Y-96749096D01*
X205030864Y-96738047D01*
X204840864Y-96398047D01*
X204827564Y-96378697D01*
X204577564Y-96078697D01*
X204566761Y-96067256D01*
X204256761Y-95777256D01*
X204239214Y-95763518D01*
X203839214Y-95503518D01*
X203820747Y-95493580D01*
X203430747Y-95323580D01*
X203410802Y-95316792D01*
X202930802Y-95196792D01*
X202906041Y-95193144D01*
X202486041Y-95173144D01*
X202470732Y-95173339D01*
X202060732Y-95203339D01*
X202037942Y-95207113D01*
X201888775Y-95246026D01*
X209214802Y-87920000D01*
X216481822Y-87920000D01*
X216606525Y-88106632D01*
X216813368Y-88313475D01*
X216987760Y-88430000D01*
X216813368Y-88546525D01*
X216606525Y-88753368D01*
X216444010Y-88996589D01*
X216332068Y-89266842D01*
X216275000Y-89553740D01*
X216275000Y-89846260D01*
X216332068Y-90133158D01*
X216444010Y-90403411D01*
X216606525Y-90646632D01*
X216813368Y-90853475D01*
X216987760Y-90970000D01*
X216813368Y-91086525D01*
X216606525Y-91293368D01*
X216444010Y-91536589D01*
X216332068Y-91806842D01*
X216275000Y-92093740D01*
X216275000Y-92386260D01*
X216332068Y-92673158D01*
X216444010Y-92943411D01*
X216606525Y-93186632D01*
X216813368Y-93393475D01*
X216987760Y-93510000D01*
X216813368Y-93626525D01*
X216606525Y-93833368D01*
X216444010Y-94076589D01*
X216332068Y-94346842D01*
X216275000Y-94633740D01*
X216275000Y-94926260D01*
X216332068Y-95213158D01*
X216444010Y-95483411D01*
X216606525Y-95726632D01*
X216813368Y-95933475D01*
X216987760Y-96050000D01*
X216813368Y-96166525D01*
X216606525Y-96373368D01*
X216444010Y-96616589D01*
X216332068Y-96886842D01*
X216275000Y-97173740D01*
X216275000Y-97466260D01*
X216332068Y-97753158D01*
X216444010Y-98023411D01*
X216606525Y-98266632D01*
X216813368Y-98473475D01*
X216987760Y-98590000D01*
X216813368Y-98706525D01*
X216606525Y-98913368D01*
X216444010Y-99156589D01*
X216332068Y-99426842D01*
X216275000Y-99713740D01*
X216275000Y-100006260D01*
X216332068Y-100293158D01*
X216444010Y-100563411D01*
X216606525Y-100806632D01*
X216813368Y-101013475D01*
X216987760Y-101130000D01*
X216813368Y-101246525D01*
X216606525Y-101453368D01*
X216444010Y-101696589D01*
X216332068Y-101966842D01*
X216275000Y-102253740D01*
X216275000Y-102546260D01*
X216332068Y-102833158D01*
X216444010Y-103103411D01*
X216606525Y-103346632D01*
X216813368Y-103553475D01*
X216987760Y-103670000D01*
X216813368Y-103786525D01*
X216606525Y-103993368D01*
X216444010Y-104236589D01*
X216332068Y-104506842D01*
X216275000Y-104793740D01*
X216275000Y-105086260D01*
X216332068Y-105373158D01*
X216444010Y-105643411D01*
X216606525Y-105886632D01*
X216813368Y-106093475D01*
X216987760Y-106210000D01*
X216813368Y-106326525D01*
X216606525Y-106533368D01*
X216444010Y-106776589D01*
X216332068Y-107046842D01*
X216275000Y-107333740D01*
X216275000Y-107626260D01*
X216332068Y-107913158D01*
X216444010Y-108183411D01*
X216606525Y-108426632D01*
X216813368Y-108633475D01*
X216987760Y-108750000D01*
X216813368Y-108866525D01*
X216606525Y-109073368D01*
X216444010Y-109316589D01*
X216332068Y-109586842D01*
X216275000Y-109873740D01*
X216275000Y-110166260D01*
X216332068Y-110453158D01*
X216444010Y-110723411D01*
X216606525Y-110966632D01*
X216813368Y-111173475D01*
X216987760Y-111290000D01*
X216813368Y-111406525D01*
X216606525Y-111613368D01*
X216444010Y-111856589D01*
X216332068Y-112126842D01*
X216275000Y-112413740D01*
X216275000Y-112706260D01*
X216332068Y-112993158D01*
X216444010Y-113263411D01*
X216478414Y-113314900D01*
X211732422Y-113314900D01*
X211695099Y-113311224D01*
X211657776Y-113314900D01*
X211657767Y-113314900D01*
X211546114Y-113325897D01*
X211402853Y-113369354D01*
X211270823Y-113439926D01*
X211189542Y-113506632D01*
X211155099Y-113534899D01*
X211131301Y-113563897D01*
X205908770Y-118786429D01*
X205764343Y-118757700D01*
X205491659Y-118757700D01*
X205224216Y-118810898D01*
X204972289Y-118915249D01*
X204745561Y-119066744D01*
X204552745Y-119259560D01*
X204401250Y-119486288D01*
X204296899Y-119738215D01*
X204243701Y-120005658D01*
X204243701Y-120278342D01*
X204279179Y-120456700D01*
X203476823Y-120456700D01*
X203512301Y-120278342D01*
X203512301Y-120005658D01*
X203459103Y-119738215D01*
X203354752Y-119486288D01*
X203203257Y-119259560D01*
X203010441Y-119066744D01*
X202783713Y-118915249D01*
X202531786Y-118810898D01*
X202264343Y-118757700D01*
X201991659Y-118757700D01*
X201724216Y-118810898D01*
X201472289Y-118915249D01*
X201245561Y-119066744D01*
X201052745Y-119259560D01*
X200901250Y-119486288D01*
X200796899Y-119738215D01*
X200743701Y-120005658D01*
X200743701Y-120278342D01*
X200779179Y-120456700D01*
X199976176Y-120456700D01*
X200004564Y-120341874D01*
X200017107Y-120069479D01*
X199976268Y-119799871D01*
X199883615Y-119543411D01*
X199823290Y-119430552D01*
X199584493Y-119365112D01*
X198807605Y-120142000D01*
X198821748Y-120156143D01*
X198642143Y-120335748D01*
X198628000Y-120321605D01*
X198613858Y-120335748D01*
X198434253Y-120156143D01*
X198448395Y-120142000D01*
X197671507Y-119365112D01*
X197432710Y-119430552D01*
X197316880Y-119677412D01*
X197251436Y-119942126D01*
X197238893Y-120214521D01*
X197275577Y-120456700D01*
X193476824Y-120456700D01*
X193512302Y-120278342D01*
X193512302Y-120005658D01*
X193459104Y-119738215D01*
X193354753Y-119486288D01*
X193203258Y-119259560D01*
X193129205Y-119185507D01*
X197851112Y-119185507D01*
X198628000Y-119962395D01*
X199404888Y-119185507D01*
X199339448Y-118946710D01*
X199092588Y-118830880D01*
X198827874Y-118765436D01*
X198555479Y-118752893D01*
X198285871Y-118793732D01*
X198029411Y-118886385D01*
X197916552Y-118946710D01*
X197851112Y-119185507D01*
X193129205Y-119185507D01*
X193010442Y-119066744D01*
X192783714Y-118915249D01*
X192531787Y-118810898D01*
X192264344Y-118757700D01*
X191991660Y-118757700D01*
X191724217Y-118810898D01*
X191472290Y-118915249D01*
X191245562Y-119066744D01*
X191052746Y-119259560D01*
X190901251Y-119486288D01*
X190796900Y-119738215D01*
X190743702Y-120005658D01*
X190743702Y-120278342D01*
X190779180Y-120456700D01*
X189976823Y-120456700D01*
X190012301Y-120278342D01*
X190012301Y-120005658D01*
X189959103Y-119738215D01*
X189854752Y-119486288D01*
X189703257Y-119259560D01*
X189510441Y-119066744D01*
X189283713Y-118915249D01*
X189031786Y-118810898D01*
X188764343Y-118757700D01*
X188491659Y-118757700D01*
X188224216Y-118810898D01*
X187972289Y-118915249D01*
X187745561Y-119066744D01*
X187552745Y-119259560D01*
X187401250Y-119486288D01*
X187296899Y-119738215D01*
X187243701Y-120005658D01*
X187243701Y-120278342D01*
X187279179Y-120456700D01*
X186476177Y-120456700D01*
X186504565Y-120341874D01*
X186517108Y-120069479D01*
X186476269Y-119799871D01*
X186383616Y-119543411D01*
X186323291Y-119430552D01*
X186084494Y-119365112D01*
X185307606Y-120142000D01*
X185321749Y-120156143D01*
X185142144Y-120335748D01*
X185128001Y-120321605D01*
X185113859Y-120335748D01*
X184934254Y-120156143D01*
X184948396Y-120142000D01*
X184171508Y-119365112D01*
X183932711Y-119430552D01*
X183816881Y-119677412D01*
X183751437Y-119942126D01*
X183738894Y-120214521D01*
X183775578Y-120456700D01*
X183017502Y-120456700D01*
X182983571Y-120422770D01*
X183012300Y-120278342D01*
X183012300Y-120005658D01*
X182959102Y-119738215D01*
X182854751Y-119486288D01*
X182703256Y-119259560D01*
X182629203Y-119185507D01*
X184351113Y-119185507D01*
X185128001Y-119962395D01*
X185904889Y-119185507D01*
X185839449Y-118946710D01*
X185592589Y-118830880D01*
X185327875Y-118765436D01*
X185055480Y-118752893D01*
X184785872Y-118793732D01*
X184529412Y-118886385D01*
X184416553Y-118946710D01*
X184351113Y-119185507D01*
X182629203Y-119185507D01*
X182510440Y-119066744D01*
X182283712Y-118915249D01*
X182031785Y-118810898D01*
X181764342Y-118757700D01*
X181491658Y-118757700D01*
X181224215Y-118810898D01*
X180972288Y-118915249D01*
X180745560Y-119066744D01*
X180552744Y-119259560D01*
X180401249Y-119486288D01*
X180296898Y-119738215D01*
X180243700Y-120005658D01*
X180243700Y-120278342D01*
X180296898Y-120545785D01*
X180401249Y-120797712D01*
X180518373Y-120973000D01*
X176237629Y-120973000D01*
X176354753Y-120797712D01*
X176459104Y-120545785D01*
X176512302Y-120278342D01*
X176512302Y-120005658D01*
X176459104Y-119738215D01*
X176354753Y-119486288D01*
X176203258Y-119259560D01*
X176010442Y-119066744D01*
X175783714Y-118915249D01*
X175531787Y-118810898D01*
X175264344Y-118757700D01*
X174991660Y-118757700D01*
X174724217Y-118810898D01*
X174472290Y-118915249D01*
X174245562Y-119066744D01*
X174052746Y-119259560D01*
X173901251Y-119486288D01*
X173796900Y-119738215D01*
X173743702Y-120005658D01*
X173743702Y-120278342D01*
X173796900Y-120545785D01*
X173901251Y-120797712D01*
X174018375Y-120973000D01*
X172638609Y-120973000D01*
X172584496Y-120918887D01*
X172823291Y-120853448D01*
X172939121Y-120606588D01*
X173004565Y-120341874D01*
X173017108Y-120069479D01*
X172976269Y-119799871D01*
X172883616Y-119543411D01*
X172823291Y-119430552D01*
X172584494Y-119365112D01*
X171807606Y-120142000D01*
X171821749Y-120156143D01*
X171642144Y-120335748D01*
X171628001Y-120321605D01*
X171613859Y-120335748D01*
X171434254Y-120156143D01*
X171448396Y-120142000D01*
X170671508Y-119365112D01*
X170432711Y-119430552D01*
X170316881Y-119677412D01*
X170251437Y-119942126D01*
X170238894Y-120214521D01*
X170279733Y-120484129D01*
X170372386Y-120740589D01*
X170432711Y-120853448D01*
X170671506Y-120918887D01*
X170617393Y-120973000D01*
X170033802Y-120973000D01*
X169483572Y-120422771D01*
X169512301Y-120278342D01*
X169512301Y-120005658D01*
X169459103Y-119738215D01*
X169354752Y-119486288D01*
X169203257Y-119259560D01*
X169129204Y-119185507D01*
X170851113Y-119185507D01*
X171628001Y-119962395D01*
X172404889Y-119185507D01*
X172339449Y-118946710D01*
X172092589Y-118830880D01*
X171827875Y-118765436D01*
X171555480Y-118752893D01*
X171285872Y-118793732D01*
X171029412Y-118886385D01*
X170916553Y-118946710D01*
X170851113Y-119185507D01*
X169129204Y-119185507D01*
X169010441Y-119066744D01*
X168783713Y-118915249D01*
X168531786Y-118810898D01*
X168264343Y-118757700D01*
X167991659Y-118757700D01*
X167724216Y-118810898D01*
X167472289Y-118915249D01*
X167245561Y-119066744D01*
X167052745Y-119259560D01*
X166901250Y-119486288D01*
X166796899Y-119738215D01*
X166743701Y-120005658D01*
X166743701Y-120278342D01*
X166796899Y-120545785D01*
X166901250Y-120797712D01*
X167052745Y-121024440D01*
X167245561Y-121217256D01*
X167472289Y-121368751D01*
X167724216Y-121473102D01*
X167991659Y-121526300D01*
X168264343Y-121526300D01*
X168408770Y-121497572D01*
X169155201Y-122244003D01*
X169178999Y-122273001D01*
X169294724Y-122367974D01*
X169426753Y-122438546D01*
X169570014Y-122482003D01*
X169681667Y-122493000D01*
X169681675Y-122493000D01*
X169719000Y-122496676D01*
X169756325Y-122493000D01*
X214994378Y-122493000D01*
X215031700Y-122496676D01*
X215069022Y-122493000D01*
X215069033Y-122493000D01*
X215180686Y-122482003D01*
X215323947Y-122438546D01*
X215455976Y-122367974D01*
X215571701Y-122273001D01*
X215595504Y-122243997D01*
X231899697Y-105939804D01*
X232053368Y-106093475D01*
X232227760Y-106210000D01*
X232053368Y-106326525D01*
X231846525Y-106533368D01*
X231684010Y-106776589D01*
X231572068Y-107046842D01*
X231515000Y-107333740D01*
X231515000Y-107626260D01*
X231572068Y-107913158D01*
X231684010Y-108183411D01*
X231846525Y-108426632D01*
X232053368Y-108633475D01*
X232227760Y-108750000D01*
X232053368Y-108866525D01*
X231846525Y-109073368D01*
X231684010Y-109316589D01*
X231572068Y-109586842D01*
X231515000Y-109873740D01*
X231515000Y-110166260D01*
X231572068Y-110453158D01*
X231684010Y-110723411D01*
X231846525Y-110966632D01*
X232053368Y-111173475D01*
X232227760Y-111290000D01*
X232053368Y-111406525D01*
X231846525Y-111613368D01*
X231684010Y-111856589D01*
X231572068Y-112126842D01*
X231515000Y-112413740D01*
X231515000Y-112706260D01*
X231572068Y-112993158D01*
X231684010Y-113263411D01*
X231846525Y-113506632D01*
X232053368Y-113713475D01*
X232296589Y-113875990D01*
X232566842Y-113987932D01*
X232853740Y-114045000D01*
X233146260Y-114045000D01*
X233433158Y-113987932D01*
X233703411Y-113875990D01*
X233946632Y-113713475D01*
X234153475Y-113506632D01*
X234315990Y-113263411D01*
X234427932Y-112993158D01*
X234485000Y-112706260D01*
X234485000Y-112413740D01*
X234427932Y-112126842D01*
X234315990Y-111856589D01*
X234153475Y-111613368D01*
X233946632Y-111406525D01*
X233772240Y-111290000D01*
X233946632Y-111173475D01*
X234153475Y-110966632D01*
X234315990Y-110723411D01*
X234427932Y-110453158D01*
X234485000Y-110166260D01*
X234485000Y-109873740D01*
X234427932Y-109586842D01*
X234315990Y-109316589D01*
X234153475Y-109073368D01*
X233946632Y-108866525D01*
X233772240Y-108750000D01*
X233946632Y-108633475D01*
X234153475Y-108426632D01*
X234315990Y-108183411D01*
X234427932Y-107913158D01*
X234485000Y-107626260D01*
X234485000Y-107333740D01*
X234427932Y-107046842D01*
X234315990Y-106776589D01*
X234153475Y-106533368D01*
X233946632Y-106326525D01*
X233772240Y-106210000D01*
X233946632Y-106093475D01*
X234153475Y-105886632D01*
X234315990Y-105643411D01*
X234427932Y-105373158D01*
X234485000Y-105086260D01*
X234485000Y-104793740D01*
X234427932Y-104506842D01*
X234315990Y-104236589D01*
X234153475Y-103993368D01*
X233946632Y-103786525D01*
X233772240Y-103670000D01*
X233946632Y-103553475D01*
X234153475Y-103346632D01*
X234315990Y-103103411D01*
X234427932Y-102833158D01*
X234485000Y-102546260D01*
X234485000Y-102253740D01*
X234427932Y-101966842D01*
X234315990Y-101696589D01*
X234153475Y-101453368D01*
X233946632Y-101246525D01*
X233772240Y-101130000D01*
X233946632Y-101013475D01*
X234153475Y-100806632D01*
X234315990Y-100563411D01*
X234427932Y-100293158D01*
X234485000Y-100006260D01*
X234485000Y-99713740D01*
X234427932Y-99426842D01*
X234315990Y-99156589D01*
X234153475Y-98913368D01*
X233946632Y-98706525D01*
X233772240Y-98590000D01*
X233946632Y-98473475D01*
X234153475Y-98266632D01*
X234315990Y-98023411D01*
X234427932Y-97753158D01*
X234485000Y-97466260D01*
X234485000Y-97173740D01*
X234427932Y-96886842D01*
X234315990Y-96616589D01*
X234153475Y-96373368D01*
X233946632Y-96166525D01*
X233772240Y-96050000D01*
X233946632Y-95933475D01*
X234153475Y-95726632D01*
X234315990Y-95483411D01*
X234427932Y-95213158D01*
X234485000Y-94926260D01*
X234485000Y-94633740D01*
X234427932Y-94346842D01*
X234315990Y-94076589D01*
X234153475Y-93833368D01*
X233946632Y-93626525D01*
X233772240Y-93510000D01*
X233946632Y-93393475D01*
X234153475Y-93186632D01*
X234315990Y-92943411D01*
X234427932Y-92673158D01*
X234485000Y-92386260D01*
X234485000Y-92093740D01*
X234427932Y-91806842D01*
X234315990Y-91536589D01*
X234153475Y-91293368D01*
X233946632Y-91086525D01*
X233772240Y-90970000D01*
X233946632Y-90853475D01*
X234153475Y-90646632D01*
X234315990Y-90403411D01*
X234427932Y-90133158D01*
X234485000Y-89846260D01*
X234485000Y-89553740D01*
X234427932Y-89266842D01*
X234315990Y-88996589D01*
X234153475Y-88753368D01*
X233946632Y-88546525D01*
X233772240Y-88430000D01*
X233946632Y-88313475D01*
X234153475Y-88106632D01*
X234306185Y-87878086D01*
X237171000Y-90742902D01*
X237171001Y-104406168D01*
X237167324Y-104443500D01*
X237181998Y-104592485D01*
X237225454Y-104735746D01*
X237296026Y-104867776D01*
X237358609Y-104944033D01*
X237391000Y-104983501D01*
X237419998Y-105007299D01*
X238359697Y-105946998D01*
X238228359Y-106123080D01*
X238103175Y-106385901D01*
X238058524Y-106533110D01*
X238179845Y-106763000D01*
X239373000Y-106763000D01*
X239373000Y-106743000D01*
X239627000Y-106743000D01*
X239627000Y-106763000D01*
X239647000Y-106763000D01*
X239647000Y-107017000D01*
X239627000Y-107017000D01*
X239627000Y-107037000D01*
X239373000Y-107037000D01*
X239373000Y-107017000D01*
X238179845Y-107017000D01*
X238058524Y-107246890D01*
X238103175Y-107394099D01*
X238228359Y-107656920D01*
X238402412Y-107890269D01*
X238618645Y-108085178D01*
X238735534Y-108154805D01*
X238553368Y-108276525D01*
X238346525Y-108483368D01*
X238184010Y-108726589D01*
X238072068Y-108996842D01*
X238015000Y-109283740D01*
X238015000Y-109576260D01*
X238072068Y-109863158D01*
X238184010Y-110133411D01*
X238346525Y-110376632D01*
X238553368Y-110583475D01*
X238727760Y-110700000D01*
X238553368Y-110816525D01*
X238346525Y-111023368D01*
X238184010Y-111266589D01*
X238072068Y-111536842D01*
X238015000Y-111823740D01*
X238015000Y-112116260D01*
X238072068Y-112403158D01*
X238184010Y-112673411D01*
X238346525Y-112916632D01*
X238553368Y-113123475D01*
X238796589Y-113285990D01*
X239066842Y-113397932D01*
X239353740Y-113455000D01*
X239646260Y-113455000D01*
X239933158Y-113397932D01*
X240203411Y-113285990D01*
X240446632Y-113123475D01*
X240653475Y-112916632D01*
X240770000Y-112742240D01*
X240886525Y-112916632D01*
X241093368Y-113123475D01*
X241336589Y-113285990D01*
X241606842Y-113397932D01*
X241893740Y-113455000D01*
X242186260Y-113455000D01*
X242473158Y-113397932D01*
X242743411Y-113285990D01*
X242986632Y-113123475D01*
X243193475Y-112916632D01*
X243355990Y-112673411D01*
X243467932Y-112403158D01*
X243525000Y-112116260D01*
X243525000Y-111823740D01*
X243467932Y-111536842D01*
X243355990Y-111266589D01*
X243193475Y-111023368D01*
X242986632Y-110816525D01*
X242812240Y-110700000D01*
X242986632Y-110583475D01*
X243193475Y-110376632D01*
X243355990Y-110133411D01*
X243467932Y-109863158D01*
X243525000Y-109576260D01*
X243525000Y-109283740D01*
X243467932Y-108996842D01*
X243355990Y-108726589D01*
X243193475Y-108483368D01*
X242986632Y-108276525D01*
X242812240Y-108160000D01*
X242986632Y-108043475D01*
X243193475Y-107836632D01*
X243355990Y-107593411D01*
X243467932Y-107323158D01*
X243525000Y-107036260D01*
X243525000Y-106743740D01*
X243467932Y-106456842D01*
X243355990Y-106186589D01*
X243193475Y-105943368D01*
X242986632Y-105736525D01*
X242812240Y-105620000D01*
X242986632Y-105503475D01*
X243193475Y-105296632D01*
X243355990Y-105053411D01*
X243467932Y-104783158D01*
X243525000Y-104496260D01*
X243525000Y-104203740D01*
X243467932Y-103916842D01*
X243355990Y-103646589D01*
X243193475Y-103403368D01*
X242986632Y-103196525D01*
X242812240Y-103080000D01*
X242986632Y-102963475D01*
X243193475Y-102756632D01*
X243355990Y-102513411D01*
X243467932Y-102243158D01*
X243525000Y-101956260D01*
X243525000Y-101663740D01*
X243467932Y-101376842D01*
X243355990Y-101106589D01*
X243193475Y-100863368D01*
X242986632Y-100656525D01*
X242804466Y-100534805D01*
X242921355Y-100465178D01*
X243137588Y-100270269D01*
X243311641Y-100036920D01*
X243436825Y-99774099D01*
X243481476Y-99626890D01*
X243360155Y-99397000D01*
X242167000Y-99397000D01*
X242167000Y-99417000D01*
X241913000Y-99417000D01*
X241913000Y-99397000D01*
X241893000Y-99397000D01*
X241893000Y-99143000D01*
X241913000Y-99143000D01*
X241913000Y-99123000D01*
X242167000Y-99123000D01*
X242167000Y-99143000D01*
X243360155Y-99143000D01*
X243481476Y-98913110D01*
X243436825Y-98765901D01*
X243311641Y-98503080D01*
X243137588Y-98269731D01*
X242921355Y-98074822D01*
X242804466Y-98005195D01*
X242986632Y-97883475D01*
X243193475Y-97676632D01*
X243355990Y-97433411D01*
X243467932Y-97163158D01*
X243525000Y-96876260D01*
X243525000Y-96583740D01*
X243467932Y-96296842D01*
X243355990Y-96026589D01*
X243193475Y-95783368D01*
X242986632Y-95576525D01*
X242804466Y-95454805D01*
X242921355Y-95385178D01*
X243137588Y-95190269D01*
X243311641Y-94956920D01*
X243436825Y-94694099D01*
X243481476Y-94546890D01*
X243360155Y-94317000D01*
X242167000Y-94317000D01*
X242167000Y-94337000D01*
X241913000Y-94337000D01*
X241913000Y-94317000D01*
X241893000Y-94317000D01*
X241893000Y-94063000D01*
X241913000Y-94063000D01*
X241913000Y-94043000D01*
X242167000Y-94043000D01*
X242167000Y-94063000D01*
X243360155Y-94063000D01*
X243481476Y-93833110D01*
X243436825Y-93685901D01*
X243311641Y-93423080D01*
X243137588Y-93189731D01*
X242921355Y-92994822D01*
X242804466Y-92925195D01*
X242986632Y-92803475D01*
X243193475Y-92596632D01*
X243355990Y-92353411D01*
X243467932Y-92083158D01*
X243525000Y-91796260D01*
X243525000Y-91503740D01*
X243467932Y-91216842D01*
X243355990Y-90946589D01*
X243193475Y-90703368D01*
X242986632Y-90496525D01*
X242812240Y-90380000D01*
X242986632Y-90263475D01*
X243193475Y-90056632D01*
X243355990Y-89813411D01*
X243467932Y-89543158D01*
X243525000Y-89256260D01*
X243525000Y-88963740D01*
X243467932Y-88676842D01*
X243355990Y-88406589D01*
X243193475Y-88163368D01*
X242986632Y-87956525D01*
X242812240Y-87840000D01*
X242986632Y-87723475D01*
X243193475Y-87516632D01*
X243355990Y-87273411D01*
X243467932Y-87003158D01*
X243525000Y-86716260D01*
X243525000Y-86423740D01*
X243467932Y-86136842D01*
X243355990Y-85866589D01*
X243193475Y-85623368D01*
X242986632Y-85416525D01*
X242812240Y-85300000D01*
X242986632Y-85183475D01*
X243193475Y-84976632D01*
X243355990Y-84733411D01*
X243467932Y-84463158D01*
X243525000Y-84176260D01*
X243525000Y-83883740D01*
X243467932Y-83596842D01*
X243355990Y-83326589D01*
X243193475Y-83083368D01*
X242986632Y-82876525D01*
X242743411Y-82714010D01*
X242473158Y-82602068D01*
X242186260Y-82545000D01*
X241893740Y-82545000D01*
X241606842Y-82602068D01*
X241336589Y-82714010D01*
X241093368Y-82876525D01*
X240961513Y-83008380D01*
X240939502Y-82935820D01*
X240880537Y-82825506D01*
X240801185Y-82728815D01*
X240704494Y-82649463D01*
X240594180Y-82590498D01*
X240474482Y-82554188D01*
X240350000Y-82541928D01*
X238650000Y-82541928D01*
X238525518Y-82554188D01*
X238405820Y-82590498D01*
X238295506Y-82649463D01*
X238198815Y-82728815D01*
X238119463Y-82825506D01*
X238060498Y-82935820D01*
X238024188Y-83055518D01*
X238011928Y-83180000D01*
X238011928Y-84880000D01*
X238024188Y-85004482D01*
X238060498Y-85124180D01*
X238119463Y-85234494D01*
X238198815Y-85331185D01*
X238295506Y-85410537D01*
X238405820Y-85469502D01*
X238478380Y-85491513D01*
X238346525Y-85623368D01*
X238184010Y-85866589D01*
X238072068Y-86136842D01*
X238015000Y-86423740D01*
X238015000Y-86716260D01*
X238072068Y-87003158D01*
X238184010Y-87273411D01*
X238346525Y-87516632D01*
X238553368Y-87723475D01*
X238735534Y-87845195D01*
X238618645Y-87914822D01*
X238402412Y-88109731D01*
X238228359Y-88343080D01*
X238103175Y-88605901D01*
X238058524Y-88753110D01*
X238179845Y-88983000D01*
X239373000Y-88983000D01*
X239373000Y-88963000D01*
X239627000Y-88963000D01*
X239627000Y-88983000D01*
X239647000Y-88983000D01*
X239647000Y-89237000D01*
X239627000Y-89237000D01*
X239627000Y-89257000D01*
X239373000Y-89257000D01*
X239373000Y-89237000D01*
X238179845Y-89237000D01*
X238058524Y-89466890D01*
X238064590Y-89486888D01*
X234148904Y-85571203D01*
X234153475Y-85566632D01*
X234315990Y-85323411D01*
X234427932Y-85053158D01*
X234485000Y-84766260D01*
X234485000Y-84473740D01*
X234427932Y-84186842D01*
X234315990Y-83916589D01*
X234153475Y-83673368D01*
X233946632Y-83466525D01*
X233772240Y-83350000D01*
X233946632Y-83233475D01*
X234153475Y-83026632D01*
X234315990Y-82783411D01*
X234427932Y-82513158D01*
X234485000Y-82226260D01*
X234485000Y-81933740D01*
X234427932Y-81646842D01*
X234315990Y-81376589D01*
X234153475Y-81133368D01*
X233946632Y-80926525D01*
X233764466Y-80804805D01*
X233881355Y-80735178D01*
X234097588Y-80540269D01*
X234271641Y-80306920D01*
X234396825Y-80044099D01*
X234441476Y-79896890D01*
X234320155Y-79667000D01*
X233127000Y-79667000D01*
X233127000Y-79687000D01*
X232873000Y-79687000D01*
X232873000Y-79667000D01*
X231679845Y-79667000D01*
X231558524Y-79896890D01*
X231603175Y-80044099D01*
X231728359Y-80306920D01*
X231902412Y-80540269D01*
X232118645Y-80735178D01*
X232235534Y-80804805D01*
X232053368Y-80926525D01*
X231846525Y-81133368D01*
X231684010Y-81376589D01*
X231572068Y-81646842D01*
X231515000Y-81933740D01*
X231515000Y-82226260D01*
X231572068Y-82513158D01*
X231684010Y-82783411D01*
X231846525Y-83026632D01*
X232053368Y-83233475D01*
X232227760Y-83350000D01*
X232053368Y-83466525D01*
X231846525Y-83673368D01*
X231684010Y-83916589D01*
X231572068Y-84186842D01*
X231515000Y-84473740D01*
X231515000Y-84766260D01*
X231572068Y-85053158D01*
X231603897Y-85130000D01*
X223060102Y-85130000D01*
X219499104Y-81569003D01*
X219475301Y-81539999D01*
X219359576Y-81445026D01*
X219227547Y-81374454D01*
X219084286Y-81330997D01*
X219042796Y-81326911D01*
X218913475Y-81133368D01*
X218706632Y-80926525D01*
X218532240Y-80810000D01*
X218706632Y-80693475D01*
X218913475Y-80486632D01*
X219075990Y-80243411D01*
X219187932Y-79973158D01*
X219245000Y-79686260D01*
X219245000Y-79393740D01*
X219187932Y-79106842D01*
X219075990Y-78836589D01*
X218913475Y-78593368D01*
X218781620Y-78461513D01*
X218854180Y-78439502D01*
X218964494Y-78380537D01*
X219061185Y-78301185D01*
X219140537Y-78204494D01*
X219199502Y-78094180D01*
X219235812Y-77974482D01*
X219248072Y-77850000D01*
X219248072Y-76150000D01*
X231511928Y-76150000D01*
X231511928Y-77850000D01*
X231524188Y-77974482D01*
X231560498Y-78094180D01*
X231619463Y-78204494D01*
X231698815Y-78301185D01*
X231795506Y-78380537D01*
X231905820Y-78439502D01*
X231986466Y-78463966D01*
X231902412Y-78539731D01*
X231728359Y-78773080D01*
X231603175Y-79035901D01*
X231558524Y-79183110D01*
X231679845Y-79413000D01*
X232873000Y-79413000D01*
X232873000Y-79393000D01*
X233127000Y-79393000D01*
X233127000Y-79413000D01*
X234320155Y-79413000D01*
X234441476Y-79183110D01*
X234396825Y-79035901D01*
X234271641Y-78773080D01*
X234097588Y-78539731D01*
X234013534Y-78463966D01*
X234094180Y-78439502D01*
X234204494Y-78380537D01*
X234301185Y-78301185D01*
X234380537Y-78204494D01*
X234439502Y-78094180D01*
X234475812Y-77974482D01*
X234488072Y-77850000D01*
X234488072Y-76150000D01*
X234475812Y-76025518D01*
X234439502Y-75905820D01*
X234380537Y-75795506D01*
X234301185Y-75698815D01*
X234204494Y-75619463D01*
X234094180Y-75560498D01*
X233974482Y-75524188D01*
X233850000Y-75511928D01*
X232150000Y-75511928D01*
X232025518Y-75524188D01*
X231905820Y-75560498D01*
X231795506Y-75619463D01*
X231698815Y-75698815D01*
X231619463Y-75795506D01*
X231560498Y-75905820D01*
X231524188Y-76025518D01*
X231511928Y-76150000D01*
X219248072Y-76150000D01*
X219235812Y-76025518D01*
X219199502Y-75905820D01*
X219140537Y-75795506D01*
X219061185Y-75698815D01*
X218964494Y-75619463D01*
X218854180Y-75560498D01*
X218734482Y-75524188D01*
X218610000Y-75511928D01*
X216910000Y-75511928D01*
X216785518Y-75524188D01*
X216665820Y-75560498D01*
X216555506Y-75619463D01*
X216458815Y-75698815D01*
X216379463Y-75795506D01*
X216320498Y-75905820D01*
X216284188Y-76025518D01*
X216271928Y-76150000D01*
X216271928Y-77850000D01*
X216284188Y-77974482D01*
X216320498Y-78094180D01*
X216379463Y-78204494D01*
X216458815Y-78301185D01*
X216555506Y-78380537D01*
X216665820Y-78439502D01*
X216738380Y-78461513D01*
X216606525Y-78593368D01*
X216444010Y-78836589D01*
X216332068Y-79106842D01*
X216275000Y-79393740D01*
X216275000Y-79686260D01*
X216332068Y-79973158D01*
X216444010Y-80243411D01*
X216606525Y-80486632D01*
X216813368Y-80693475D01*
X216987760Y-80810000D01*
X216813368Y-80926525D01*
X216606525Y-81133368D01*
X216444010Y-81376589D01*
X216332068Y-81646842D01*
X216275000Y-81933740D01*
X216275000Y-82226260D01*
X216332068Y-82513158D01*
X216444010Y-82783411D01*
X216606525Y-83026632D01*
X216813368Y-83233475D01*
X216995534Y-83355195D01*
X216878645Y-83424822D01*
X216662412Y-83619731D01*
X216488359Y-83853080D01*
X216363175Y-84115901D01*
X216318524Y-84263110D01*
X216439845Y-84493000D01*
X217633000Y-84493000D01*
X217633000Y-84473000D01*
X217887000Y-84473000D01*
X217887000Y-84493000D01*
X219080155Y-84493000D01*
X219201476Y-84263110D01*
X219156825Y-84115901D01*
X219031641Y-83853080D01*
X218857588Y-83619731D01*
X218641355Y-83424822D01*
X218524466Y-83355195D01*
X218706632Y-83233475D01*
X218860303Y-83079804D01*
X222181500Y-86401002D01*
X222205299Y-86430001D01*
X222321024Y-86524974D01*
X222453053Y-86595546D01*
X222596314Y-86639003D01*
X222707967Y-86650000D01*
X222707975Y-86650000D01*
X222745300Y-86653676D01*
X222782625Y-86650000D01*
X231603897Y-86650000D01*
X231572068Y-86726842D01*
X231515000Y-87013740D01*
X231515000Y-87306260D01*
X231572068Y-87593158D01*
X231684010Y-87863411D01*
X231822509Y-88070689D01*
X225040698Y-94852501D01*
X225011700Y-94876299D01*
X224987902Y-94905297D01*
X224987901Y-94905298D01*
X224916726Y-94992024D01*
X224846154Y-95124054D01*
X224838489Y-95149322D01*
X224638891Y-95078519D01*
X224409000Y-95199186D01*
X224409000Y-96393000D01*
X224429000Y-96393000D01*
X224429000Y-96647000D01*
X224409000Y-96647000D01*
X224409000Y-96667000D01*
X224155000Y-96667000D01*
X224155000Y-96647000D01*
X222961845Y-96647000D01*
X222840524Y-96876890D01*
X222885175Y-97024099D01*
X223010359Y-97286920D01*
X223184412Y-97520269D01*
X223400645Y-97715178D01*
X223517534Y-97784805D01*
X223335368Y-97906525D01*
X223128525Y-98113368D01*
X222966010Y-98356589D01*
X222854068Y-98626842D01*
X222797000Y-98913740D01*
X222797000Y-99206260D01*
X222854068Y-99493158D01*
X222966010Y-99763411D01*
X223104469Y-99970629D01*
X218980869Y-104094230D01*
X218913475Y-103993368D01*
X218706632Y-103786525D01*
X218532240Y-103670000D01*
X218706632Y-103553475D01*
X218913475Y-103346632D01*
X219075990Y-103103411D01*
X219187932Y-102833158D01*
X219245000Y-102546260D01*
X219245000Y-102253740D01*
X219187932Y-101966842D01*
X219075990Y-101696589D01*
X218913475Y-101453368D01*
X218706632Y-101246525D01*
X218532240Y-101130000D01*
X218706632Y-101013475D01*
X218913475Y-100806632D01*
X219075990Y-100563411D01*
X219187932Y-100293158D01*
X219245000Y-100006260D01*
X219245000Y-99713740D01*
X219187932Y-99426842D01*
X219075990Y-99156589D01*
X218913475Y-98913368D01*
X218706632Y-98706525D01*
X218532240Y-98590000D01*
X218706632Y-98473475D01*
X218913475Y-98266632D01*
X219075990Y-98023411D01*
X219187932Y-97753158D01*
X219245000Y-97466260D01*
X219245000Y-97173740D01*
X219187932Y-96886842D01*
X219075990Y-96616589D01*
X218913475Y-96373368D01*
X218706632Y-96166525D01*
X218701522Y-96163110D01*
X222840524Y-96163110D01*
X222961845Y-96393000D01*
X224155000Y-96393000D01*
X224155000Y-95199186D01*
X223925109Y-95078519D01*
X223650748Y-95175843D01*
X223400645Y-95324822D01*
X223184412Y-95519731D01*
X223010359Y-95753080D01*
X222885175Y-96015901D01*
X222840524Y-96163110D01*
X218701522Y-96163110D01*
X218532240Y-96050000D01*
X218706632Y-95933475D01*
X218913475Y-95726632D01*
X219075990Y-95483411D01*
X219187932Y-95213158D01*
X219245000Y-94926260D01*
X219245000Y-94633740D01*
X219187932Y-94346842D01*
X219075990Y-94076589D01*
X218937531Y-93869370D01*
X219446302Y-93360599D01*
X219475301Y-93336801D01*
X219550432Y-93245254D01*
X219570274Y-93221077D01*
X219640846Y-93089047D01*
X219675835Y-92973701D01*
X219684303Y-92945786D01*
X219695300Y-92834133D01*
X219695300Y-92834124D01*
X219698976Y-92796801D01*
X219695300Y-92759478D01*
X219695300Y-86696223D01*
X219698976Y-86658900D01*
X219695300Y-86621577D01*
X219695300Y-86621567D01*
X219684303Y-86509914D01*
X219640846Y-86366653D01*
X219570274Y-86234624D01*
X219475301Y-86118899D01*
X219446304Y-86095102D01*
X218906242Y-85555040D01*
X219031641Y-85386920D01*
X219156825Y-85124099D01*
X219201476Y-84976890D01*
X219080155Y-84747000D01*
X217887000Y-84747000D01*
X217887000Y-84767000D01*
X217633000Y-84767000D01*
X217633000Y-84747000D01*
X216439845Y-84747000D01*
X216318524Y-84976890D01*
X216363175Y-85124099D01*
X216365986Y-85130000D01*
X209890102Y-85130000D01*
X206084000Y-81323899D01*
X206084000Y-77103067D01*
X206206439Y-77021256D01*
X206325202Y-76902493D01*
X208047112Y-76902493D01*
X208112552Y-77141290D01*
X208359412Y-77257120D01*
X208624126Y-77322564D01*
X208896521Y-77335107D01*
X209166129Y-77294268D01*
X209422589Y-77201615D01*
X209535448Y-77141290D01*
X209600888Y-76902493D01*
X208824000Y-76125605D01*
X208047112Y-76902493D01*
X206325202Y-76902493D01*
X206399255Y-76828440D01*
X206550750Y-76601712D01*
X206655101Y-76349785D01*
X206708299Y-76082342D01*
X206708299Y-76018521D01*
X207434893Y-76018521D01*
X207475732Y-76288129D01*
X207568385Y-76544589D01*
X207628710Y-76657448D01*
X207867507Y-76722888D01*
X208644395Y-75946000D01*
X209003605Y-75946000D01*
X209780493Y-76722888D01*
X210019290Y-76657448D01*
X210135120Y-76410588D01*
X210200564Y-76145874D01*
X210213107Y-75873479D01*
X210172268Y-75603871D01*
X210079615Y-75347411D01*
X210019290Y-75234552D01*
X209780493Y-75169112D01*
X209003605Y-75946000D01*
X208644395Y-75946000D01*
X207867507Y-75169112D01*
X207628710Y-75234552D01*
X207512880Y-75481412D01*
X207447436Y-75746126D01*
X207434893Y-76018521D01*
X206708299Y-76018521D01*
X206708299Y-75809658D01*
X206655101Y-75542215D01*
X206550750Y-75290288D01*
X206399255Y-75063560D01*
X206325202Y-74989507D01*
X208047112Y-74989507D01*
X208824000Y-75766395D01*
X209600888Y-74989507D01*
X209535448Y-74750710D01*
X209288588Y-74634880D01*
X209023874Y-74569436D01*
X208751479Y-74556893D01*
X208481871Y-74597732D01*
X208225411Y-74690385D01*
X208112552Y-74750710D01*
X208047112Y-74989507D01*
X206325202Y-74989507D01*
X206206439Y-74870744D01*
X205979711Y-74719249D01*
X205727784Y-74614898D01*
X205460341Y-74561700D01*
X205187657Y-74561700D01*
X204920214Y-74614898D01*
X204668287Y-74719249D01*
X204441559Y-74870744D01*
X204248743Y-75063560D01*
X204097248Y-75290288D01*
X203992897Y-75542215D01*
X203939699Y-75809658D01*
X203939699Y-76082342D01*
X203992897Y-76349785D01*
X204097248Y-76601712D01*
X204248743Y-76828440D01*
X204441559Y-77021256D01*
X204564000Y-77103069D01*
X204564001Y-81323897D01*
X193738072Y-92149827D01*
X193738072Y-91690000D01*
X193725812Y-91565518D01*
X193689502Y-91445820D01*
X193630537Y-91335506D01*
X193551185Y-91238815D01*
X193454494Y-91159463D01*
X193344180Y-91100498D01*
X193224482Y-91064188D01*
X193100000Y-91051928D01*
X191985574Y-91051928D01*
X192335003Y-90702499D01*
X192364001Y-90678701D01*
X192458974Y-90562976D01*
X192529546Y-90430947D01*
X192573003Y-90287686D01*
X192584000Y-90176033D01*
X192584000Y-90176024D01*
X192587676Y-90138701D01*
X192584000Y-90101378D01*
X192584000Y-77103068D01*
X192706440Y-77021256D01*
X192825203Y-76902493D01*
X197547110Y-76902493D01*
X197612550Y-77141290D01*
X197859410Y-77257120D01*
X198124124Y-77322564D01*
X198396519Y-77335107D01*
X198666127Y-77294268D01*
X198922587Y-77201615D01*
X199035446Y-77141290D01*
X199100886Y-76902493D01*
X198323998Y-76125605D01*
X197547110Y-76902493D01*
X192825203Y-76902493D01*
X192899256Y-76828440D01*
X193050751Y-76601712D01*
X193155102Y-76349785D01*
X193208300Y-76082342D01*
X193208300Y-76018521D01*
X196934891Y-76018521D01*
X196975730Y-76288129D01*
X197068383Y-76544589D01*
X197128708Y-76657448D01*
X197367505Y-76722888D01*
X198144393Y-75946000D01*
X198503603Y-75946000D01*
X199280491Y-76722888D01*
X199519288Y-76657448D01*
X199635118Y-76410588D01*
X199700562Y-76145874D01*
X199713105Y-75873479D01*
X199703438Y-75809658D01*
X200439699Y-75809658D01*
X200439699Y-76082342D01*
X200492897Y-76349785D01*
X200597248Y-76601712D01*
X200748743Y-76828440D01*
X200941559Y-77021256D01*
X201168287Y-77172751D01*
X201420214Y-77277102D01*
X201687657Y-77330300D01*
X201960341Y-77330300D01*
X202227784Y-77277102D01*
X202479711Y-77172751D01*
X202706439Y-77021256D01*
X202899255Y-76828440D01*
X203050750Y-76601712D01*
X203155101Y-76349785D01*
X203208299Y-76082342D01*
X203208299Y-75809658D01*
X203155101Y-75542215D01*
X203050750Y-75290288D01*
X202899255Y-75063560D01*
X202706439Y-74870744D01*
X202479711Y-74719249D01*
X202227784Y-74614898D01*
X201960341Y-74561700D01*
X201687657Y-74561700D01*
X201420214Y-74614898D01*
X201168287Y-74719249D01*
X200941559Y-74870744D01*
X200748743Y-75063560D01*
X200597248Y-75290288D01*
X200492897Y-75542215D01*
X200439699Y-75809658D01*
X199703438Y-75809658D01*
X199672266Y-75603871D01*
X199579613Y-75347411D01*
X199519288Y-75234552D01*
X199280491Y-75169112D01*
X198503603Y-75946000D01*
X198144393Y-75946000D01*
X197367505Y-75169112D01*
X197128708Y-75234552D01*
X197012878Y-75481412D01*
X196947434Y-75746126D01*
X196934891Y-76018521D01*
X193208300Y-76018521D01*
X193208300Y-75809658D01*
X193155102Y-75542215D01*
X193050751Y-75290288D01*
X192899256Y-75063560D01*
X192825203Y-74989507D01*
X197547110Y-74989507D01*
X198323998Y-75766395D01*
X199100886Y-74989507D01*
X199035446Y-74750710D01*
X198788586Y-74634880D01*
X198523872Y-74569436D01*
X198251477Y-74556893D01*
X197981869Y-74597732D01*
X197725409Y-74690385D01*
X197612550Y-74750710D01*
X197547110Y-74989507D01*
X192825203Y-74989507D01*
X192706440Y-74870744D01*
X192479712Y-74719249D01*
X192227785Y-74614898D01*
X191960342Y-74561700D01*
X191687658Y-74561700D01*
X191420215Y-74614898D01*
X191168288Y-74719249D01*
X190941560Y-74870744D01*
X190748744Y-75063560D01*
X190597249Y-75290288D01*
X190492898Y-75542215D01*
X190439700Y-75809658D01*
X190439700Y-76082342D01*
X190492898Y-76349785D01*
X190597249Y-76601712D01*
X190748744Y-76828440D01*
X190941560Y-77021256D01*
X191064000Y-77103068D01*
X191064001Y-89823897D01*
X188738072Y-92149827D01*
X188738072Y-91690000D01*
X188725812Y-91565518D01*
X188689502Y-91445820D01*
X188630537Y-91335506D01*
X188551185Y-91238815D01*
X188454494Y-91159463D01*
X188344180Y-91100498D01*
X188224482Y-91064188D01*
X188100000Y-91051928D01*
X186400000Y-91051928D01*
X186275518Y-91064188D01*
X186155820Y-91100498D01*
X186045506Y-91159463D01*
X185948815Y-91238815D01*
X185869463Y-91335506D01*
X185810498Y-91445820D01*
X185774188Y-91565518D01*
X185761928Y-91690000D01*
X185761928Y-93390000D01*
X185774188Y-93514482D01*
X185810498Y-93634180D01*
X185869463Y-93744494D01*
X185948815Y-93841185D01*
X186045506Y-93920537D01*
X186155820Y-93979502D01*
X186228380Y-94001513D01*
X186096525Y-94133368D01*
X185934010Y-94376589D01*
X185822068Y-94646842D01*
X185765000Y-94933740D01*
X185765000Y-95226260D01*
X185818516Y-95495300D01*
X183681484Y-95495300D01*
X183735000Y-95226260D01*
X183735000Y-94933740D01*
X183677932Y-94646842D01*
X183565990Y-94376589D01*
X183403475Y-94133368D01*
X183271620Y-94001513D01*
X183344180Y-93979502D01*
X183454494Y-93920537D01*
X183551185Y-93841185D01*
X183630537Y-93744494D01*
X183689502Y-93634180D01*
X183725812Y-93514482D01*
X183738072Y-93390000D01*
X183738072Y-91690000D01*
X183725812Y-91565518D01*
X183689502Y-91445820D01*
X183630537Y-91335506D01*
X183551185Y-91238815D01*
X183454494Y-91159463D01*
X183344180Y-91100498D01*
X183224482Y-91064188D01*
X183100000Y-91051928D01*
X181834700Y-91051928D01*
X181834700Y-77232816D01*
X181979710Y-77172751D01*
X182206438Y-77021256D01*
X182325201Y-76902493D01*
X184047111Y-76902493D01*
X184112551Y-77141290D01*
X184359411Y-77257120D01*
X184624125Y-77322564D01*
X184896520Y-77335107D01*
X185166128Y-77294268D01*
X185422588Y-77201615D01*
X185535447Y-77141290D01*
X185600887Y-76902493D01*
X184823999Y-76125605D01*
X184047111Y-76902493D01*
X182325201Y-76902493D01*
X182399254Y-76828440D01*
X182550749Y-76601712D01*
X182655100Y-76349785D01*
X182708298Y-76082342D01*
X182708298Y-76018521D01*
X183434892Y-76018521D01*
X183475731Y-76288129D01*
X183568384Y-76544589D01*
X183628709Y-76657448D01*
X183867506Y-76722888D01*
X184644394Y-75946000D01*
X185003604Y-75946000D01*
X185780492Y-76722888D01*
X186019289Y-76657448D01*
X186135119Y-76410588D01*
X186200563Y-76145874D01*
X186213106Y-75873479D01*
X186203439Y-75809658D01*
X186939699Y-75809658D01*
X186939699Y-76082342D01*
X186992897Y-76349785D01*
X187097248Y-76601712D01*
X187248743Y-76828440D01*
X187441559Y-77021256D01*
X187668287Y-77172751D01*
X187920214Y-77277102D01*
X188187657Y-77330300D01*
X188460341Y-77330300D01*
X188727784Y-77277102D01*
X188979711Y-77172751D01*
X189206439Y-77021256D01*
X189399255Y-76828440D01*
X189550750Y-76601712D01*
X189655101Y-76349785D01*
X189708299Y-76082342D01*
X189708299Y-75809658D01*
X189655101Y-75542215D01*
X189550750Y-75290288D01*
X189399255Y-75063560D01*
X189206439Y-74870744D01*
X188979711Y-74719249D01*
X188727784Y-74614898D01*
X188460341Y-74561700D01*
X188187657Y-74561700D01*
X187920214Y-74614898D01*
X187668287Y-74719249D01*
X187441559Y-74870744D01*
X187248743Y-75063560D01*
X187097248Y-75290288D01*
X186992897Y-75542215D01*
X186939699Y-75809658D01*
X186203439Y-75809658D01*
X186172267Y-75603871D01*
X186079614Y-75347411D01*
X186019289Y-75234552D01*
X185780492Y-75169112D01*
X185003604Y-75946000D01*
X184644394Y-75946000D01*
X183867506Y-75169112D01*
X183628709Y-75234552D01*
X183512879Y-75481412D01*
X183447435Y-75746126D01*
X183434892Y-76018521D01*
X182708298Y-76018521D01*
X182708298Y-75809658D01*
X182655100Y-75542215D01*
X182550749Y-75290288D01*
X182399254Y-75063560D01*
X182325201Y-74989507D01*
X184047111Y-74989507D01*
X184823999Y-75766395D01*
X185600887Y-74989507D01*
X185535447Y-74750710D01*
X185288587Y-74634880D01*
X185023873Y-74569436D01*
X184751478Y-74556893D01*
X184481870Y-74597732D01*
X184225410Y-74690385D01*
X184112551Y-74750710D01*
X184047111Y-74989507D01*
X182325201Y-74989507D01*
X182206438Y-74870744D01*
X181979710Y-74719249D01*
X181727783Y-74614898D01*
X181460340Y-74561700D01*
X181187656Y-74561700D01*
X180920213Y-74614898D01*
X180668286Y-74719249D01*
X180441558Y-74870744D01*
X180248742Y-75063560D01*
X180097247Y-75290288D01*
X179992896Y-75542215D01*
X179939698Y-75809658D01*
X179939698Y-76082342D01*
X179992896Y-76349785D01*
X180097247Y-76601712D01*
X180248742Y-76828440D01*
X180314700Y-76894398D01*
X180314701Y-93500167D01*
X180311024Y-93537500D01*
X180325698Y-93686485D01*
X180369154Y-93829746D01*
X180439726Y-93961776D01*
X180506993Y-94043740D01*
X180534700Y-94077501D01*
X180563698Y-94101299D01*
X180878096Y-94415697D01*
X180901899Y-94444701D01*
X180904808Y-94447089D01*
X180822068Y-94646842D01*
X180765000Y-94933740D01*
X180765000Y-95226260D01*
X180818516Y-95495300D01*
X179915402Y-95495300D01*
X178989104Y-94569003D01*
X178965301Y-94539999D01*
X178849576Y-94445026D01*
X178717547Y-94374454D01*
X178574286Y-94330997D01*
X178532796Y-94326911D01*
X178403475Y-94133368D01*
X178271620Y-94001513D01*
X178344180Y-93979502D01*
X178454494Y-93920537D01*
X178551185Y-93841185D01*
X178630537Y-93744494D01*
X178689502Y-93634180D01*
X178725812Y-93514482D01*
X178738072Y-93390000D01*
X178738072Y-91690000D01*
X178725812Y-91565518D01*
X178689502Y-91445820D01*
X178630537Y-91335506D01*
X178551185Y-91238815D01*
X178454494Y-91159463D01*
X178344180Y-91100498D01*
X178224482Y-91064188D01*
X178100000Y-91051928D01*
X176400000Y-91051928D01*
X176275518Y-91064188D01*
X176155820Y-91100498D01*
X176045506Y-91159463D01*
X175948815Y-91238815D01*
X175869463Y-91335506D01*
X175810498Y-91445820D01*
X175774188Y-91565518D01*
X175761928Y-91690000D01*
X175761928Y-92149825D01*
X168584000Y-84971899D01*
X168584000Y-77103067D01*
X168706439Y-77021256D01*
X168825202Y-76902493D01*
X170547111Y-76902493D01*
X170612551Y-77141290D01*
X170859411Y-77257120D01*
X171124125Y-77322564D01*
X171396520Y-77335107D01*
X171666128Y-77294268D01*
X171922588Y-77201615D01*
X172035447Y-77141290D01*
X172100887Y-76902493D01*
X171323999Y-76125605D01*
X170547111Y-76902493D01*
X168825202Y-76902493D01*
X168899255Y-76828440D01*
X169050750Y-76601712D01*
X169155101Y-76349785D01*
X169208299Y-76082342D01*
X169208299Y-76018521D01*
X169934892Y-76018521D01*
X169975731Y-76288129D01*
X170068384Y-76544589D01*
X170128709Y-76657448D01*
X170367506Y-76722888D01*
X171144394Y-75946000D01*
X171503604Y-75946000D01*
X172280492Y-76722888D01*
X172519289Y-76657448D01*
X172635119Y-76410588D01*
X172700563Y-76145874D01*
X172713106Y-75873479D01*
X172703439Y-75809658D01*
X173439700Y-75809658D01*
X173439700Y-76082342D01*
X173492898Y-76349785D01*
X173597249Y-76601712D01*
X173748744Y-76828440D01*
X173941560Y-77021256D01*
X174168288Y-77172751D01*
X174420215Y-77277102D01*
X174687658Y-77330300D01*
X174960342Y-77330300D01*
X175227785Y-77277102D01*
X175479712Y-77172751D01*
X175706440Y-77021256D01*
X175899256Y-76828440D01*
X176050751Y-76601712D01*
X176155102Y-76349785D01*
X176208300Y-76082342D01*
X176208300Y-75809658D01*
X176155102Y-75542215D01*
X176050751Y-75290288D01*
X175899256Y-75063560D01*
X175706440Y-74870744D01*
X175479712Y-74719249D01*
X175227785Y-74614898D01*
X174960342Y-74561700D01*
X174687658Y-74561700D01*
X174420215Y-74614898D01*
X174168288Y-74719249D01*
X173941560Y-74870744D01*
X173748744Y-75063560D01*
X173597249Y-75290288D01*
X173492898Y-75542215D01*
X173439700Y-75809658D01*
X172703439Y-75809658D01*
X172672267Y-75603871D01*
X172579614Y-75347411D01*
X172519289Y-75234552D01*
X172280492Y-75169112D01*
X171503604Y-75946000D01*
X171144394Y-75946000D01*
X170367506Y-75169112D01*
X170128709Y-75234552D01*
X170012879Y-75481412D01*
X169947435Y-75746126D01*
X169934892Y-76018521D01*
X169208299Y-76018521D01*
X169208299Y-75809658D01*
X169155101Y-75542215D01*
X169050750Y-75290288D01*
X168899255Y-75063560D01*
X168825202Y-74989507D01*
X170547111Y-74989507D01*
X171323999Y-75766395D01*
X172100887Y-74989507D01*
X172035447Y-74750710D01*
X171788587Y-74634880D01*
X171523873Y-74569436D01*
X171251478Y-74556893D01*
X170981870Y-74597732D01*
X170725410Y-74690385D01*
X170612551Y-74750710D01*
X170547111Y-74989507D01*
X168825202Y-74989507D01*
X168706439Y-74870744D01*
X168479711Y-74719249D01*
X168227784Y-74614898D01*
X167960341Y-74561700D01*
X167687657Y-74561700D01*
X167420214Y-74614898D01*
X167168287Y-74719249D01*
X166941559Y-74870744D01*
X166748743Y-75063560D01*
X166597248Y-75290288D01*
X166492897Y-75542215D01*
X166439699Y-75809658D01*
X165708298Y-75809658D01*
X165655100Y-75542215D01*
X165550749Y-75290288D01*
X165399254Y-75063560D01*
X165206438Y-74870744D01*
X164979710Y-74719249D01*
X164727783Y-74614898D01*
X164460340Y-74561700D01*
X164187656Y-74561700D01*
X163920213Y-74614898D01*
X163668286Y-74719249D01*
X163441558Y-74870744D01*
X163248742Y-75063560D01*
X163097247Y-75290288D01*
X162992896Y-75542215D01*
X162939698Y-75809658D01*
X160685000Y-75809658D01*
X160685000Y-73533504D01*
X160741834Y-72953869D01*
X160900441Y-72428538D01*
X161158064Y-71944020D01*
X161504889Y-71518769D01*
X161927711Y-71168980D01*
X162410414Y-70907984D01*
X162934628Y-70745713D01*
X163512271Y-70685000D01*
X241466496Y-70685000D01*
X242046131Y-70741834D01*
G37*
%TD.AperFunction*%
D14*
X232053368Y-101013475D02*
X232227760Y-101130000D01*
X232053368Y-101246525D01*
X231846525Y-101453368D01*
X231717204Y-101646911D01*
X231675714Y-101650997D01*
X231532453Y-101694454D01*
X231400424Y-101765026D01*
X231284699Y-101859999D01*
X231260901Y-101888997D01*
X212693199Y-120456700D01*
X210476178Y-120456700D01*
X210504566Y-120341874D01*
X210517109Y-120069479D01*
X210476270Y-119799871D01*
X210383617Y-119543411D01*
X210323292Y-119430552D01*
X210084495Y-119365112D01*
X209307607Y-120142000D01*
X209321750Y-120156143D01*
X209142145Y-120335748D01*
X209128002Y-120321605D01*
X209113860Y-120335748D01*
X208934255Y-120156143D01*
X208948397Y-120142000D01*
X208171509Y-119365112D01*
X207932712Y-119430552D01*
X207816882Y-119677412D01*
X207751438Y-119942126D01*
X207738895Y-120214521D01*
X207775579Y-120456700D01*
X206976823Y-120456700D01*
X207012301Y-120278342D01*
X207012301Y-120005658D01*
X206983572Y-119861229D01*
X207659294Y-119185507D01*
X208351114Y-119185507D01*
X209128002Y-119962395D01*
X209904890Y-119185507D01*
X209839450Y-118946710D01*
X209592590Y-118830880D01*
X209327876Y-118765436D01*
X209055481Y-118752893D01*
X208785873Y-118793732D01*
X208529413Y-118886385D01*
X208416554Y-118946710D01*
X208351114Y-119185507D01*
X207659294Y-119185507D01*
X212009902Y-114834900D01*
X217875478Y-114834900D01*
X217912800Y-114838576D01*
X217950122Y-114834900D01*
X217950133Y-114834900D01*
X218061786Y-114823903D01*
X218205047Y-114780446D01*
X218337076Y-114709874D01*
X218452801Y-114614901D01*
X218476604Y-114585897D01*
X232051197Y-101011304D01*
X232053368Y-101013475D01*
%TA.AperFunction,Conductor*%
D15*
G36*
X232053368Y-101013475D02*
G01*
X232227760Y-101130000D01*
X232053368Y-101246525D01*
X231846525Y-101453368D01*
X231717204Y-101646911D01*
X231675714Y-101650997D01*
X231532453Y-101694454D01*
X231400424Y-101765026D01*
X231284699Y-101859999D01*
X231260901Y-101888997D01*
X212693199Y-120456700D01*
X210476178Y-120456700D01*
X210504566Y-120341874D01*
X210517109Y-120069479D01*
X210476270Y-119799871D01*
X210383617Y-119543411D01*
X210323292Y-119430552D01*
X210084495Y-119365112D01*
X209307607Y-120142000D01*
X209321750Y-120156143D01*
X209142145Y-120335748D01*
X209128002Y-120321605D01*
X209113860Y-120335748D01*
X208934255Y-120156143D01*
X208948397Y-120142000D01*
X208171509Y-119365112D01*
X207932712Y-119430552D01*
X207816882Y-119677412D01*
X207751438Y-119942126D01*
X207738895Y-120214521D01*
X207775579Y-120456700D01*
X206976823Y-120456700D01*
X207012301Y-120278342D01*
X207012301Y-120005658D01*
X206983572Y-119861229D01*
X207659294Y-119185507D01*
X208351114Y-119185507D01*
X209128002Y-119962395D01*
X209904890Y-119185507D01*
X209839450Y-118946710D01*
X209592590Y-118830880D01*
X209327876Y-118765436D01*
X209055481Y-118752893D01*
X208785873Y-118793732D01*
X208529413Y-118886385D01*
X208416554Y-118946710D01*
X208351114Y-119185507D01*
X207659294Y-119185507D01*
X212009902Y-114834900D01*
X217875478Y-114834900D01*
X217912800Y-114838576D01*
X217950122Y-114834900D01*
X217950133Y-114834900D01*
X218061786Y-114823903D01*
X218205047Y-114780446D01*
X218337076Y-114709874D01*
X218452801Y-114614901D01*
X218476604Y-114585897D01*
X232051197Y-101011304D01*
X232053368Y-101013475D01*
G37*
%TD.AperFunction*%
%TD*%
M02*
