%TF.GenerationSoftware,KiCad,Pcbnew,(5.1.10)-1*%
%TF.CreationDate,2022-03-21T18:44:11-04:00*%
%TF.ProjectId,RevA,52657641-2e6b-4696-9361-645f70636258,rev?*%
%TF.SameCoordinates,Original*%
%TF.FileFunction,Paste,Top*%
%TF.FilePolarity,Positive*%
%FSLAX46Y46*%
G04 Gerber Fmt 4.6, Leading zero omitted, Abs format (unit mm)*
G04 Created by KiCad (PCBNEW (5.1.10)-1) date 2022-03-21 18:44:11*
%MOMM*%
%LPD*%
G01*
G04 APERTURE LIST*
%ADD10R,1.840000X0.930000*%
%ADD11R,1.840000X3.190000*%
%ADD12R,2.500000X1.800000*%
%ADD13R,2.440000X1.120000*%
%ADD14R,1.600000X0.300000*%
%ADD15R,0.914400X0.254000*%
%ADD16R,0.254000X0.914400*%
%ADD17R,3.250000X3.250000*%
G04 APERTURE END LIST*
%TO.C,C1*%
G36*
G01*
X233270000Y-81392600D02*
X233770000Y-81392600D01*
G75*
G02*
X233995000Y-81617600I0J-225000D01*
G01*
X233995000Y-82067600D01*
G75*
G02*
X233770000Y-82292600I-225000J0D01*
G01*
X233270000Y-82292600D01*
G75*
G02*
X233045000Y-82067600I0J225000D01*
G01*
X233045000Y-81617600D01*
G75*
G02*
X233270000Y-81392600I225000J0D01*
G01*
G37*
G36*
G01*
X233270000Y-82942600D02*
X233770000Y-82942600D01*
G75*
G02*
X233995000Y-83167600I0J-225000D01*
G01*
X233995000Y-83617600D01*
G75*
G02*
X233770000Y-83842600I-225000J0D01*
G01*
X233270000Y-83842600D01*
G75*
G02*
X233045000Y-83617600I0J225000D01*
G01*
X233045000Y-83167600D01*
G75*
G02*
X233270000Y-82942600I225000J0D01*
G01*
G37*
%TD*%
%TO.C,C2*%
G36*
G01*
X220635000Y-79417600D02*
X220635000Y-79917600D01*
G75*
G02*
X220410000Y-80142600I-225000J0D01*
G01*
X219960000Y-80142600D01*
G75*
G02*
X219735000Y-79917600I0J225000D01*
G01*
X219735000Y-79417600D01*
G75*
G02*
X219960000Y-79192600I225000J0D01*
G01*
X220410000Y-79192600D01*
G75*
G02*
X220635000Y-79417600I0J-225000D01*
G01*
G37*
G36*
G01*
X222185000Y-79417600D02*
X222185000Y-79917600D01*
G75*
G02*
X221960000Y-80142600I-225000J0D01*
G01*
X221510000Y-80142600D01*
G75*
G02*
X221285000Y-79917600I0J225000D01*
G01*
X221285000Y-79417600D01*
G75*
G02*
X221510000Y-79192600I225000J0D01*
G01*
X221960000Y-79192600D01*
G75*
G02*
X222185000Y-79417600I0J-225000D01*
G01*
G37*
%TD*%
%TO.C,C3*%
G36*
G01*
X222185000Y-85417600D02*
X222185000Y-85917600D01*
G75*
G02*
X221960000Y-86142600I-225000J0D01*
G01*
X221510000Y-86142600D01*
G75*
G02*
X221285000Y-85917600I0J225000D01*
G01*
X221285000Y-85417600D01*
G75*
G02*
X221510000Y-85192600I225000J0D01*
G01*
X221960000Y-85192600D01*
G75*
G02*
X222185000Y-85417600I0J-225000D01*
G01*
G37*
G36*
G01*
X220635000Y-85417600D02*
X220635000Y-85917600D01*
G75*
G02*
X220410000Y-86142600I-225000J0D01*
G01*
X219960000Y-86142600D01*
G75*
G02*
X219735000Y-85917600I0J225000D01*
G01*
X219735000Y-85417600D01*
G75*
G02*
X219960000Y-85192600I225000J0D01*
G01*
X220410000Y-85192600D01*
G75*
G02*
X220635000Y-85417600I0J-225000D01*
G01*
G37*
%TD*%
%TO.C,C4*%
G36*
G01*
X219310000Y-82242599D02*
X219310000Y-83092601D01*
G75*
G02*
X219060001Y-83342600I-249999J0D01*
G01*
X218159999Y-83342600D01*
G75*
G02*
X217910000Y-83092601I0J249999D01*
G01*
X217910000Y-82242599D01*
G75*
G02*
X218159999Y-81992600I249999J0D01*
G01*
X219060001Y-81992600D01*
G75*
G02*
X219310000Y-82242599I0J-249999D01*
G01*
G37*
G36*
G01*
X222010000Y-82242599D02*
X222010000Y-83092601D01*
G75*
G02*
X221760001Y-83342600I-249999J0D01*
G01*
X220859999Y-83342600D01*
G75*
G02*
X220610000Y-83092601I0J249999D01*
G01*
X220610000Y-82242599D01*
G75*
G02*
X220859999Y-81992600I249999J0D01*
G01*
X221760001Y-81992600D01*
G75*
G02*
X222010000Y-82242599I0J-249999D01*
G01*
G37*
%TD*%
%TO.C,D1*%
G36*
G01*
X223259000Y-71003000D02*
X223259000Y-72253000D01*
G75*
G02*
X223009000Y-72503000I-250000J0D01*
G01*
X222259000Y-72503000D01*
G75*
G02*
X222009000Y-72253000I0J250000D01*
G01*
X222009000Y-71003000D01*
G75*
G02*
X222259000Y-70753000I250000J0D01*
G01*
X223009000Y-70753000D01*
G75*
G02*
X223259000Y-71003000I0J-250000D01*
G01*
G37*
G36*
G01*
X220459000Y-71003000D02*
X220459000Y-72253000D01*
G75*
G02*
X220209000Y-72503000I-250000J0D01*
G01*
X219459000Y-72503000D01*
G75*
G02*
X219209000Y-72253000I0J250000D01*
G01*
X219209000Y-71003000D01*
G75*
G02*
X219459000Y-70753000I250000J0D01*
G01*
X220209000Y-70753000D01*
G75*
G02*
X220459000Y-71003000I0J-250000D01*
G01*
G37*
%TD*%
%TO.C,R9*%
G36*
G01*
X220112000Y-77044000D02*
X219562000Y-77044000D01*
G75*
G02*
X219362000Y-76844000I0J200000D01*
G01*
X219362000Y-76444000D01*
G75*
G02*
X219562000Y-76244000I200000J0D01*
G01*
X220112000Y-76244000D01*
G75*
G02*
X220312000Y-76444000I0J-200000D01*
G01*
X220312000Y-76844000D01*
G75*
G02*
X220112000Y-77044000I-200000J0D01*
G01*
G37*
G36*
G01*
X220112000Y-75394000D02*
X219562000Y-75394000D01*
G75*
G02*
X219362000Y-75194000I0J200000D01*
G01*
X219362000Y-74794000D01*
G75*
G02*
X219562000Y-74594000I200000J0D01*
G01*
X220112000Y-74594000D01*
G75*
G02*
X220312000Y-74794000I0J-200000D01*
G01*
X220312000Y-75194000D01*
G75*
G02*
X220112000Y-75394000I-200000J0D01*
G01*
G37*
%TD*%
D10*
%TO.C,VR1*%
X231045000Y-84967600D03*
X231045000Y-82667600D03*
X231045000Y-80367600D03*
D11*
X224875000Y-82667600D03*
%TD*%
%TO.C,C5*%
G36*
G01*
X229366000Y-113137000D02*
X228866000Y-113137000D01*
G75*
G02*
X228641000Y-112912000I0J225000D01*
G01*
X228641000Y-112462000D01*
G75*
G02*
X228866000Y-112237000I225000J0D01*
G01*
X229366000Y-112237000D01*
G75*
G02*
X229591000Y-112462000I0J-225000D01*
G01*
X229591000Y-112912000D01*
G75*
G02*
X229366000Y-113137000I-225000J0D01*
G01*
G37*
G36*
G01*
X229366000Y-111587000D02*
X228866000Y-111587000D01*
G75*
G02*
X228641000Y-111362000I0J225000D01*
G01*
X228641000Y-110912000D01*
G75*
G02*
X228866000Y-110687000I225000J0D01*
G01*
X229366000Y-110687000D01*
G75*
G02*
X229591000Y-110912000I0J-225000D01*
G01*
X229591000Y-111362000D01*
G75*
G02*
X229366000Y-111587000I-225000J0D01*
G01*
G37*
%TD*%
%TO.C,D2*%
G36*
G01*
X232019000Y-124453000D02*
X230769000Y-124453000D01*
G75*
G02*
X230519000Y-124203000I0J250000D01*
G01*
X230519000Y-123453000D01*
G75*
G02*
X230769000Y-123203000I250000J0D01*
G01*
X232019000Y-123203000D01*
G75*
G02*
X232269000Y-123453000I0J-250000D01*
G01*
X232269000Y-124203000D01*
G75*
G02*
X232019000Y-124453000I-250000J0D01*
G01*
G37*
G36*
G01*
X232019000Y-121653000D02*
X230769000Y-121653000D01*
G75*
G02*
X230519000Y-121403000I0J250000D01*
G01*
X230519000Y-120653000D01*
G75*
G02*
X230769000Y-120403000I250000J0D01*
G01*
X232019000Y-120403000D01*
G75*
G02*
X232269000Y-120653000I0J-250000D01*
G01*
X232269000Y-121403000D01*
G75*
G02*
X232019000Y-121653000I-250000J0D01*
G01*
G37*
%TD*%
D12*
%TO.C,D3*%
X230664000Y-102616000D03*
X234664000Y-102616000D03*
%TD*%
%TO.C,R1*%
G36*
G01*
X170272000Y-101108000D02*
X170272000Y-100558000D01*
G75*
G02*
X170472000Y-100358000I200000J0D01*
G01*
X170872000Y-100358000D01*
G75*
G02*
X171072000Y-100558000I0J-200000D01*
G01*
X171072000Y-101108000D01*
G75*
G02*
X170872000Y-101308000I-200000J0D01*
G01*
X170472000Y-101308000D01*
G75*
G02*
X170272000Y-101108000I0J200000D01*
G01*
G37*
G36*
G01*
X171922000Y-101108000D02*
X171922000Y-100558000D01*
G75*
G02*
X172122000Y-100358000I200000J0D01*
G01*
X172522000Y-100358000D01*
G75*
G02*
X172722000Y-100558000I0J-200000D01*
G01*
X172722000Y-101108000D01*
G75*
G02*
X172522000Y-101308000I-200000J0D01*
G01*
X172122000Y-101308000D01*
G75*
G02*
X171922000Y-101108000I0J200000D01*
G01*
G37*
%TD*%
%TO.C,R2*%
G36*
G01*
X171922000Y-103108000D02*
X171922000Y-102558000D01*
G75*
G02*
X172122000Y-102358000I200000J0D01*
G01*
X172522000Y-102358000D01*
G75*
G02*
X172722000Y-102558000I0J-200000D01*
G01*
X172722000Y-103108000D01*
G75*
G02*
X172522000Y-103308000I-200000J0D01*
G01*
X172122000Y-103308000D01*
G75*
G02*
X171922000Y-103108000I0J200000D01*
G01*
G37*
G36*
G01*
X170272000Y-103108000D02*
X170272000Y-102558000D01*
G75*
G02*
X170472000Y-102358000I200000J0D01*
G01*
X170872000Y-102358000D01*
G75*
G02*
X171072000Y-102558000I0J-200000D01*
G01*
X171072000Y-103108000D01*
G75*
G02*
X170872000Y-103308000I-200000J0D01*
G01*
X170472000Y-103308000D01*
G75*
G02*
X170272000Y-103108000I0J200000D01*
G01*
G37*
%TD*%
%TO.C,R3*%
G36*
G01*
X175922000Y-101108000D02*
X175922000Y-100558000D01*
G75*
G02*
X176122000Y-100358000I200000J0D01*
G01*
X176522000Y-100358000D01*
G75*
G02*
X176722000Y-100558000I0J-200000D01*
G01*
X176722000Y-101108000D01*
G75*
G02*
X176522000Y-101308000I-200000J0D01*
G01*
X176122000Y-101308000D01*
G75*
G02*
X175922000Y-101108000I0J200000D01*
G01*
G37*
G36*
G01*
X174272000Y-101108000D02*
X174272000Y-100558000D01*
G75*
G02*
X174472000Y-100358000I200000J0D01*
G01*
X174872000Y-100358000D01*
G75*
G02*
X175072000Y-100558000I0J-200000D01*
G01*
X175072000Y-101108000D01*
G75*
G02*
X174872000Y-101308000I-200000J0D01*
G01*
X174472000Y-101308000D01*
G75*
G02*
X174272000Y-101108000I0J200000D01*
G01*
G37*
%TD*%
%TO.C,R4*%
G36*
G01*
X174272000Y-103108000D02*
X174272000Y-102558000D01*
G75*
G02*
X174472000Y-102358000I200000J0D01*
G01*
X174872000Y-102358000D01*
G75*
G02*
X175072000Y-102558000I0J-200000D01*
G01*
X175072000Y-103108000D01*
G75*
G02*
X174872000Y-103308000I-200000J0D01*
G01*
X174472000Y-103308000D01*
G75*
G02*
X174272000Y-103108000I0J200000D01*
G01*
G37*
G36*
G01*
X175922000Y-103108000D02*
X175922000Y-102558000D01*
G75*
G02*
X176122000Y-102358000I200000J0D01*
G01*
X176522000Y-102358000D01*
G75*
G02*
X176722000Y-102558000I0J-200000D01*
G01*
X176722000Y-103108000D01*
G75*
G02*
X176522000Y-103308000I-200000J0D01*
G01*
X176122000Y-103308000D01*
G75*
G02*
X175922000Y-103108000I0J200000D01*
G01*
G37*
%TD*%
%TO.C,R5*%
G36*
G01*
X178272000Y-101108000D02*
X178272000Y-100558000D01*
G75*
G02*
X178472000Y-100358000I200000J0D01*
G01*
X178872000Y-100358000D01*
G75*
G02*
X179072000Y-100558000I0J-200000D01*
G01*
X179072000Y-101108000D01*
G75*
G02*
X178872000Y-101308000I-200000J0D01*
G01*
X178472000Y-101308000D01*
G75*
G02*
X178272000Y-101108000I0J200000D01*
G01*
G37*
G36*
G01*
X179922000Y-101108000D02*
X179922000Y-100558000D01*
G75*
G02*
X180122000Y-100358000I200000J0D01*
G01*
X180522000Y-100358000D01*
G75*
G02*
X180722000Y-100558000I0J-200000D01*
G01*
X180722000Y-101108000D01*
G75*
G02*
X180522000Y-101308000I-200000J0D01*
G01*
X180122000Y-101308000D01*
G75*
G02*
X179922000Y-101108000I0J200000D01*
G01*
G37*
%TD*%
%TO.C,R6*%
G36*
G01*
X179922000Y-103108000D02*
X179922000Y-102558000D01*
G75*
G02*
X180122000Y-102358000I200000J0D01*
G01*
X180522000Y-102358000D01*
G75*
G02*
X180722000Y-102558000I0J-200000D01*
G01*
X180722000Y-103108000D01*
G75*
G02*
X180522000Y-103308000I-200000J0D01*
G01*
X180122000Y-103308000D01*
G75*
G02*
X179922000Y-103108000I0J200000D01*
G01*
G37*
G36*
G01*
X178272000Y-103108000D02*
X178272000Y-102558000D01*
G75*
G02*
X178472000Y-102358000I200000J0D01*
G01*
X178872000Y-102358000D01*
G75*
G02*
X179072000Y-102558000I0J-200000D01*
G01*
X179072000Y-103108000D01*
G75*
G02*
X178872000Y-103308000I-200000J0D01*
G01*
X178472000Y-103308000D01*
G75*
G02*
X178272000Y-103108000I0J200000D01*
G01*
G37*
%TD*%
%TO.C,R7*%
G36*
G01*
X183922000Y-101108000D02*
X183922000Y-100558000D01*
G75*
G02*
X184122000Y-100358000I200000J0D01*
G01*
X184522000Y-100358000D01*
G75*
G02*
X184722000Y-100558000I0J-200000D01*
G01*
X184722000Y-101108000D01*
G75*
G02*
X184522000Y-101308000I-200000J0D01*
G01*
X184122000Y-101308000D01*
G75*
G02*
X183922000Y-101108000I0J200000D01*
G01*
G37*
G36*
G01*
X182272000Y-101108000D02*
X182272000Y-100558000D01*
G75*
G02*
X182472000Y-100358000I200000J0D01*
G01*
X182872000Y-100358000D01*
G75*
G02*
X183072000Y-100558000I0J-200000D01*
G01*
X183072000Y-101108000D01*
G75*
G02*
X182872000Y-101308000I-200000J0D01*
G01*
X182472000Y-101308000D01*
G75*
G02*
X182272000Y-101108000I0J200000D01*
G01*
G37*
%TD*%
%TO.C,R8*%
G36*
G01*
X182272000Y-103108000D02*
X182272000Y-102558000D01*
G75*
G02*
X182472000Y-102358000I200000J0D01*
G01*
X182872000Y-102358000D01*
G75*
G02*
X183072000Y-102558000I0J-200000D01*
G01*
X183072000Y-103108000D01*
G75*
G02*
X182872000Y-103308000I-200000J0D01*
G01*
X182472000Y-103308000D01*
G75*
G02*
X182272000Y-103108000I0J200000D01*
G01*
G37*
G36*
G01*
X183922000Y-103108000D02*
X183922000Y-102558000D01*
G75*
G02*
X184122000Y-102358000I200000J0D01*
G01*
X184522000Y-102358000D01*
G75*
G02*
X184722000Y-102558000I0J-200000D01*
G01*
X184722000Y-103108000D01*
G75*
G02*
X184522000Y-103308000I-200000J0D01*
G01*
X184122000Y-103308000D01*
G75*
G02*
X183922000Y-103108000I0J200000D01*
G01*
G37*
%TD*%
%TO.C,R10*%
G36*
G01*
X186272000Y-101108000D02*
X186272000Y-100558000D01*
G75*
G02*
X186472000Y-100358000I200000J0D01*
G01*
X186872000Y-100358000D01*
G75*
G02*
X187072000Y-100558000I0J-200000D01*
G01*
X187072000Y-101108000D01*
G75*
G02*
X186872000Y-101308000I-200000J0D01*
G01*
X186472000Y-101308000D01*
G75*
G02*
X186272000Y-101108000I0J200000D01*
G01*
G37*
G36*
G01*
X187922000Y-101108000D02*
X187922000Y-100558000D01*
G75*
G02*
X188122000Y-100358000I200000J0D01*
G01*
X188522000Y-100358000D01*
G75*
G02*
X188722000Y-100558000I0J-200000D01*
G01*
X188722000Y-101108000D01*
G75*
G02*
X188522000Y-101308000I-200000J0D01*
G01*
X188122000Y-101308000D01*
G75*
G02*
X187922000Y-101108000I0J200000D01*
G01*
G37*
%TD*%
%TO.C,R11*%
G36*
G01*
X186272000Y-103108000D02*
X186272000Y-102558000D01*
G75*
G02*
X186472000Y-102358000I200000J0D01*
G01*
X186872000Y-102358000D01*
G75*
G02*
X187072000Y-102558000I0J-200000D01*
G01*
X187072000Y-103108000D01*
G75*
G02*
X186872000Y-103308000I-200000J0D01*
G01*
X186472000Y-103308000D01*
G75*
G02*
X186272000Y-103108000I0J200000D01*
G01*
G37*
G36*
G01*
X187922000Y-103108000D02*
X187922000Y-102558000D01*
G75*
G02*
X188122000Y-102358000I200000J0D01*
G01*
X188522000Y-102358000D01*
G75*
G02*
X188722000Y-102558000I0J-200000D01*
G01*
X188722000Y-103108000D01*
G75*
G02*
X188522000Y-103308000I-200000J0D01*
G01*
X188122000Y-103308000D01*
G75*
G02*
X187922000Y-103108000I0J200000D01*
G01*
G37*
%TD*%
%TO.C,R12*%
G36*
G01*
X191922000Y-101108000D02*
X191922000Y-100558000D01*
G75*
G02*
X192122000Y-100358000I200000J0D01*
G01*
X192522000Y-100358000D01*
G75*
G02*
X192722000Y-100558000I0J-200000D01*
G01*
X192722000Y-101108000D01*
G75*
G02*
X192522000Y-101308000I-200000J0D01*
G01*
X192122000Y-101308000D01*
G75*
G02*
X191922000Y-101108000I0J200000D01*
G01*
G37*
G36*
G01*
X190272000Y-101108000D02*
X190272000Y-100558000D01*
G75*
G02*
X190472000Y-100358000I200000J0D01*
G01*
X190872000Y-100358000D01*
G75*
G02*
X191072000Y-100558000I0J-200000D01*
G01*
X191072000Y-101108000D01*
G75*
G02*
X190872000Y-101308000I-200000J0D01*
G01*
X190472000Y-101308000D01*
G75*
G02*
X190272000Y-101108000I0J200000D01*
G01*
G37*
%TD*%
%TO.C,R13*%
G36*
G01*
X190272000Y-103108000D02*
X190272000Y-102558000D01*
G75*
G02*
X190472000Y-102358000I200000J0D01*
G01*
X190872000Y-102358000D01*
G75*
G02*
X191072000Y-102558000I0J-200000D01*
G01*
X191072000Y-103108000D01*
G75*
G02*
X190872000Y-103308000I-200000J0D01*
G01*
X190472000Y-103308000D01*
G75*
G02*
X190272000Y-103108000I0J200000D01*
G01*
G37*
G36*
G01*
X191922000Y-103108000D02*
X191922000Y-102558000D01*
G75*
G02*
X192122000Y-102358000I200000J0D01*
G01*
X192522000Y-102358000D01*
G75*
G02*
X192722000Y-102558000I0J-200000D01*
G01*
X192722000Y-103108000D01*
G75*
G02*
X192522000Y-103308000I-200000J0D01*
G01*
X192122000Y-103308000D01*
G75*
G02*
X191922000Y-103108000I0J200000D01*
G01*
G37*
%TD*%
%TO.C,R14*%
G36*
G01*
X213718000Y-96250000D02*
X213718000Y-96800000D01*
G75*
G02*
X213518000Y-97000000I-200000J0D01*
G01*
X213118000Y-97000000D01*
G75*
G02*
X212918000Y-96800000I0J200000D01*
G01*
X212918000Y-96250000D01*
G75*
G02*
X213118000Y-96050000I200000J0D01*
G01*
X213518000Y-96050000D01*
G75*
G02*
X213718000Y-96250000I0J-200000D01*
G01*
G37*
G36*
G01*
X215368000Y-96250000D02*
X215368000Y-96800000D01*
G75*
G02*
X215168000Y-97000000I-200000J0D01*
G01*
X214768000Y-97000000D01*
G75*
G02*
X214568000Y-96800000I0J200000D01*
G01*
X214568000Y-96250000D01*
G75*
G02*
X214768000Y-96050000I200000J0D01*
G01*
X215168000Y-96050000D01*
G75*
G02*
X215368000Y-96250000I0J-200000D01*
G01*
G37*
%TD*%
%TO.C,R15*%
G36*
G01*
X215368000Y-94250000D02*
X215368000Y-94800000D01*
G75*
G02*
X215168000Y-95000000I-200000J0D01*
G01*
X214768000Y-95000000D01*
G75*
G02*
X214568000Y-94800000I0J200000D01*
G01*
X214568000Y-94250000D01*
G75*
G02*
X214768000Y-94050000I200000J0D01*
G01*
X215168000Y-94050000D01*
G75*
G02*
X215368000Y-94250000I0J-200000D01*
G01*
G37*
G36*
G01*
X213718000Y-94250000D02*
X213718000Y-94800000D01*
G75*
G02*
X213518000Y-95000000I-200000J0D01*
G01*
X213118000Y-95000000D01*
G75*
G02*
X212918000Y-94800000I0J200000D01*
G01*
X212918000Y-94250000D01*
G75*
G02*
X213118000Y-94050000I200000J0D01*
G01*
X213518000Y-94050000D01*
G75*
G02*
X213718000Y-94250000I0J-200000D01*
G01*
G37*
%TD*%
%TO.C,R16*%
G36*
G01*
X209718000Y-96250000D02*
X209718000Y-96800000D01*
G75*
G02*
X209518000Y-97000000I-200000J0D01*
G01*
X209118000Y-97000000D01*
G75*
G02*
X208918000Y-96800000I0J200000D01*
G01*
X208918000Y-96250000D01*
G75*
G02*
X209118000Y-96050000I200000J0D01*
G01*
X209518000Y-96050000D01*
G75*
G02*
X209718000Y-96250000I0J-200000D01*
G01*
G37*
G36*
G01*
X211368000Y-96250000D02*
X211368000Y-96800000D01*
G75*
G02*
X211168000Y-97000000I-200000J0D01*
G01*
X210768000Y-97000000D01*
G75*
G02*
X210568000Y-96800000I0J200000D01*
G01*
X210568000Y-96250000D01*
G75*
G02*
X210768000Y-96050000I200000J0D01*
G01*
X211168000Y-96050000D01*
G75*
G02*
X211368000Y-96250000I0J-200000D01*
G01*
G37*
%TD*%
%TO.C,R17*%
G36*
G01*
X209718000Y-94250000D02*
X209718000Y-94800000D01*
G75*
G02*
X209518000Y-95000000I-200000J0D01*
G01*
X209118000Y-95000000D01*
G75*
G02*
X208918000Y-94800000I0J200000D01*
G01*
X208918000Y-94250000D01*
G75*
G02*
X209118000Y-94050000I200000J0D01*
G01*
X209518000Y-94050000D01*
G75*
G02*
X209718000Y-94250000I0J-200000D01*
G01*
G37*
G36*
G01*
X211368000Y-94250000D02*
X211368000Y-94800000D01*
G75*
G02*
X211168000Y-95000000I-200000J0D01*
G01*
X210768000Y-95000000D01*
G75*
G02*
X210568000Y-94800000I0J200000D01*
G01*
X210568000Y-94250000D01*
G75*
G02*
X210768000Y-94050000I200000J0D01*
G01*
X211168000Y-94050000D01*
G75*
G02*
X211368000Y-94250000I0J-200000D01*
G01*
G37*
%TD*%
D13*
%TO.C,SW1*%
X218326000Y-122428000D03*
X226936000Y-122428000D03*
%TD*%
D14*
%TO.C,Y1*%
X219464000Y-112862000D03*
X219464000Y-111912000D03*
X219464000Y-110962000D03*
%TD*%
D15*
%TO.C,U1*%
X222194700Y-109908001D03*
X222194700Y-110408000D03*
X222194700Y-110907999D03*
X222194700Y-111408000D03*
X222194700Y-111908000D03*
X222194700Y-112408001D03*
X222194700Y-112908000D03*
X222194700Y-113407999D03*
D16*
X222845001Y-114058300D03*
X223345000Y-114058300D03*
X223844999Y-114058300D03*
X224345000Y-114058300D03*
X224845000Y-114058300D03*
X225345001Y-114058300D03*
X225845000Y-114058300D03*
X226344999Y-114058300D03*
D15*
X226995300Y-113407999D03*
X226995300Y-112908000D03*
X226995300Y-112408001D03*
X226995300Y-111908000D03*
X226995300Y-111408000D03*
X226995300Y-110907999D03*
X226995300Y-110408000D03*
X226995300Y-109908001D03*
D16*
X226344999Y-109257700D03*
X225845000Y-109257700D03*
X225345001Y-109257700D03*
X224845000Y-109257700D03*
X224345000Y-109257700D03*
X223844999Y-109257700D03*
X223345000Y-109257700D03*
X222845001Y-109257700D03*
D17*
X224595000Y-111658000D03*
%TD*%
%TO.C,R18*%
G36*
G01*
X232582000Y-108352000D02*
X232582000Y-107802000D01*
G75*
G02*
X232782000Y-107602000I200000J0D01*
G01*
X233182000Y-107602000D01*
G75*
G02*
X233382000Y-107802000I0J-200000D01*
G01*
X233382000Y-108352000D01*
G75*
G02*
X233182000Y-108552000I-200000J0D01*
G01*
X232782000Y-108552000D01*
G75*
G02*
X232582000Y-108352000I0J200000D01*
G01*
G37*
G36*
G01*
X234232000Y-108352000D02*
X234232000Y-107802000D01*
G75*
G02*
X234432000Y-107602000I200000J0D01*
G01*
X234832000Y-107602000D01*
G75*
G02*
X235032000Y-107802000I0J-200000D01*
G01*
X235032000Y-108352000D01*
G75*
G02*
X234832000Y-108552000I-200000J0D01*
G01*
X234432000Y-108552000D01*
G75*
G02*
X234232000Y-108352000I0J200000D01*
G01*
G37*
%TD*%
M02*
