M48
; DRILL file {KiCad (5.1.10)-1} date 03/21/22 18:44:13
; FORMAT={-:-/ absolute / inch / decimal}
; #@! TF.CreationDate,2022-03-21T18:44:13-04:00
; #@! TF.GenerationSoftware,Kicad,Pcbnew,(5.1.10)-1
; #@! TF.FileFunction,Plated,1,4,PTH
FMAT,2
INCH
T1C0.0157
T2C0.0256
T3C0.0390
T4C0.0394
%
G90
G05
T1
X7.145Y-4.07
X7.295Y-4.11
X8.585Y-4.4
X8.655Y-4.285
X8.7623Y-3.4053
X8.7931Y-4.5342
X8.8226Y-4.5617
X8.8448Y-4.2341
X8.8904Y-4.7732
X8.8993Y-4.1931
X8.9597Y-4.4951
X8.965Y-4.26
X8.9681Y-4.3042
X8.9894Y-4.5635
X8.995Y-4.125
X8.9964Y-4.1693
X9.01Y-4.5
X9.0263Y-3.0512
X9.1113Y-4.1262
X9.12Y-4.285
X9.1745Y-4.4705
X9.1759Y-3.1599
X9.1959Y-3.9729
X9.355Y-4.135
T2
X8.7713Y-3.61
X8.7713Y-3.66
X8.7713Y-3.71
X8.8713Y-3.61
X8.8713Y-3.66
X8.8713Y-3.71
X8.9713Y-3.61
X8.9713Y-3.66
X8.9713Y-3.71
X9.0713Y-3.61
X9.0713Y-3.66
X9.0713Y-3.71
T3
X6.52Y-4.765
X6.5443Y-2.9598
X6.6578Y-4.765
X6.682Y-2.9598
X6.7956Y-4.765
X6.8198Y-2.9598
X6.9334Y-4.765
X6.9576Y-2.9598
X7.19Y-4.765
X7.2135Y-2.9598
X7.3278Y-4.765
X7.3513Y-2.9598
X7.4656Y-4.765
X7.4891Y-2.9598
X7.6034Y-4.765
X7.6269Y-2.9598
X7.87Y-4.765
X7.8828Y-2.9598
X8.0078Y-4.765
X8.0206Y-2.9598
X8.1456Y-4.765
X8.1584Y-2.9598
X8.2834Y-4.765
X8.2962Y-2.9598
T4
X6.4173Y-3.4083
X6.4173Y-3.5083
X6.4173Y-3.6083
X6.4173Y-3.7083
X6.4173Y-3.8083
X6.4173Y-3.9083
X6.4173Y-4.0083
X6.4173Y-4.1083
X6.4173Y-4.2083
X6.4173Y-4.3083
X6.5173Y-3.4083
X6.5173Y-3.5083
X6.5173Y-3.6083
X6.5173Y-3.7083
X6.5173Y-3.8083
X6.5173Y-3.9083
X6.5173Y-4.0083
X6.5173Y-4.1083
X6.5173Y-4.2083
X6.5173Y-4.3083
X6.7519Y-3.6548
X6.7519Y-3.7548
X6.7519Y-3.8548
X6.9093Y-3.6548
X6.9093Y-3.7548
X6.9093Y-3.8548
X7.0668Y-3.6548
X7.0668Y-3.7548
X7.0668Y-3.8548
X7.2243Y-3.6548
X7.2243Y-3.7548
X7.2243Y-3.8548
X7.3818Y-3.6548
X7.3818Y-3.7548
X7.3818Y-3.8548
X7.5393Y-3.6548
X7.5393Y-3.7548
X7.5393Y-3.8548
X8.2733Y-3.9252
X8.2733Y-4.0252
X8.2733Y-4.1252
X8.4308Y-3.9252
X8.4308Y-4.0252
X8.4308Y-4.1252
X9.0945Y-2.8764
X9.0945Y-2.9764
X9.1945Y-2.8764
X9.1945Y-2.9764
X9.2945Y-2.8764
X9.2945Y-2.9764
X9.295Y-4.761
X9.295Y-4.861
X9.3945Y-2.8764
X9.3945Y-2.9764
X9.395Y-4.761
X9.395Y-4.861
X9.4291Y-3.3083
X9.4291Y-3.4083
X9.4291Y-3.5083
X9.4291Y-3.6083
X9.4291Y-3.7083
X9.4291Y-3.8083
X9.4291Y-3.9083
X9.4291Y-4.0083
X9.4291Y-4.1083
X9.4291Y-4.2083
X9.4291Y-4.3083
X9.4291Y-4.4083
X9.4945Y-2.8764
X9.4945Y-2.9764
X9.495Y-4.761
X9.495Y-4.861
X9.5291Y-3.3083
X9.5291Y-3.4083
X9.5291Y-3.5083
X9.5291Y-3.6083
X9.5291Y-3.7083
X9.5291Y-3.8083
X9.5291Y-3.9083
X9.5291Y-4.0083
X9.5291Y-4.1083
X9.5291Y-4.2083
X9.5291Y-4.3083
X9.5291Y-4.4083
T0
M30
