%TF.GenerationSoftware,KiCad,Pcbnew,(5.1.10)-1*%
%TF.CreationDate,2022-03-21T18:44:11-04:00*%
%TF.ProjectId,RevA,52657641-2e6b-4696-9361-645f70636258,rev?*%
%TF.SameCoordinates,Original*%
%TF.FileFunction,Copper,L3,Inr*%
%TF.FilePolarity,Positive*%
%FSLAX46Y46*%
G04 Gerber Fmt 4.6, Leading zero omitted, Abs format (unit mm)*
G04 Created by KiCad (PCBNEW (5.1.10)-1) date 2022-03-21 18:44:11*
%MOMM*%
%LPD*%
G01*
G04 APERTURE LIST*
%TA.AperFunction,ComponentPad*%
%ADD10R,1.700000X1.700000*%
%TD*%
%TA.AperFunction,ComponentPad*%
%ADD11O,1.700000X1.700000*%
%TD*%
%TA.AperFunction,ComponentPad*%
%ADD12O,1.000000X1.000000*%
%TD*%
%TA.AperFunction,ComponentPad*%
%ADD13R,1.000000X1.000000*%
%TD*%
%TA.AperFunction,ComponentPad*%
%ADD14C,1.498600*%
%TD*%
%TA.AperFunction,ViaPad*%
%ADD15C,0.800000*%
%TD*%
%TA.AperFunction,Conductor*%
%ADD16C,0.250000*%
%TD*%
G04 APERTURE END LIST*
D10*
%TO.N,/3.3V*%
%TO.C,J1*%
X163000000Y-86570000D03*
D11*
%TO.N,Net-(J1-Pad2)*%
X165540000Y-86570000D03*
%TO.N,/I2C_Data*%
X163000000Y-89110000D03*
%TO.N,Net-(J1-Pad4)*%
X165540000Y-89110000D03*
%TO.N,/I2C_Clock*%
X163000000Y-91650000D03*
%TO.N,/GND*%
X165540000Y-91650000D03*
%TO.N,Net-(J1-Pad7)*%
X163000000Y-94190000D03*
%TO.N,Net-(J1-Pad8)*%
X165540000Y-94190000D03*
%TO.N,/GND*%
X163000000Y-96730000D03*
%TO.N,Net-(J1-Pad10)*%
X165540000Y-96730000D03*
%TO.N,Net-(J1-Pad11)*%
X163000000Y-99270000D03*
%TO.N,Net-(J1-Pad12)*%
X165540000Y-99270000D03*
%TO.N,Net-(J1-Pad13)*%
X163000000Y-101810000D03*
%TO.N,/GND*%
X165540000Y-101810000D03*
%TO.N,Net-(J1-Pad15)*%
X163000000Y-104350000D03*
%TO.N,Net-(J1-Pad16)*%
X165540000Y-104350000D03*
%TO.N,/3.3V*%
X163000000Y-106890000D03*
%TO.N,Net-(J1-Pad18)*%
X165540000Y-106890000D03*
%TO.N,Net-(J1-Pad19)*%
X163000000Y-109430000D03*
%TO.N,/GND*%
X165540000Y-109430000D03*
%TD*%
D10*
%TO.N,Net-(J2-Pad1)*%
%TO.C,J2*%
X239500000Y-84030000D03*
D11*
%TO.N,Net-(J2-Pad2)*%
X242040000Y-84030000D03*
%TO.N,Net-(J2-Pad3)*%
X239500000Y-86570000D03*
%TO.N,Net-(J2-Pad4)*%
X242040000Y-86570000D03*
%TO.N,/GND*%
X239500000Y-89110000D03*
%TO.N,Net-(J2-Pad6)*%
X242040000Y-89110000D03*
%TO.N,Net-(J2-Pad7)*%
X239500000Y-91650000D03*
%TO.N,Net-(J2-Pad8)*%
X242040000Y-91650000D03*
%TO.N,Net-(J2-Pad9)*%
X239500000Y-94190000D03*
%TO.N,/GND*%
X242040000Y-94190000D03*
%TO.N,Net-(J2-Pad11)*%
X239500000Y-96730000D03*
%TO.N,Net-(J2-Pad12)*%
X242040000Y-96730000D03*
%TO.N,Net-(J2-Pad13)*%
X239500000Y-99270000D03*
%TO.N,/GND*%
X242040000Y-99270000D03*
%TO.N,Net-(J2-Pad15)*%
X239500000Y-101810000D03*
%TO.N,Net-(J2-Pad16)*%
X242040000Y-101810000D03*
%TO.N,Net-(J2-Pad17)*%
X239500000Y-104350000D03*
%TO.N,Net-(J2-Pad18)*%
X242040000Y-104350000D03*
%TO.N,/GND*%
X239500000Y-106890000D03*
%TO.N,Net-(J2-Pad20)*%
X242040000Y-106890000D03*
%TO.N,/Interconnect*%
X239500000Y-109430000D03*
%TO.N,Net-(D3-Pad1)*%
X242040000Y-109430000D03*
%TO.N,/VCC*%
X239500000Y-111970000D03*
X242040000Y-111970000D03*
%TD*%
D12*
%TO.N,/GND*%
%TO.C,J3*%
X230410000Y-94234000D03*
%TO.N,/Arduino/D0*%
X230410000Y-92964000D03*
D13*
%TO.N,/5V*%
X230410000Y-91694000D03*
%TD*%
%TO.N,/5V*%
%TO.C,J4*%
X227870000Y-91694000D03*
D12*
%TO.N,/Arduino/D1*%
X227870000Y-92964000D03*
%TO.N,/GND*%
X227870000Y-94234000D03*
%TD*%
%TO.N,/GND*%
%TO.C,J5*%
X225330000Y-94234000D03*
%TO.N,/Arduino/D2*%
X225330000Y-92964000D03*
D13*
%TO.N,/5V*%
X225330000Y-91694000D03*
%TD*%
D14*
%TO.N,/5V*%
%TO.C,J6*%
X200223998Y-75180000D03*
%TO.N,/GND*%
X203723999Y-75180000D03*
%TO.N,/A0*%
X207223999Y-75180000D03*
%TO.N,/5V*%
X210724000Y-75180000D03*
%TD*%
%TO.N,/A2*%
%TO.C,J7*%
X183223998Y-75180000D03*
%TO.N,/5V*%
X186723999Y-75180000D03*
%TO.N,/GND*%
X190223999Y-75180000D03*
%TO.N,/A1*%
X193724000Y-75180000D03*
%TD*%
%TO.N,/GND*%
%TO.C,J8*%
X176724000Y-75180000D03*
%TO.N,/5V*%
X173223999Y-75180000D03*
%TO.N,/A3*%
X169723999Y-75180000D03*
%TO.N,/GND*%
X166223998Y-75180000D03*
%TD*%
%TO.N,/5V*%
%TO.C,J9*%
X165608000Y-121031000D03*
%TO.N,/A4*%
X169108001Y-121031000D03*
%TO.N,/GND*%
X172608001Y-121031000D03*
%TO.N,/5V*%
X176108002Y-121031000D03*
%TD*%
%TO.N,/A5*%
%TO.C,J10*%
X182626000Y-121031000D03*
%TO.N,/GND*%
X186126001Y-121031000D03*
%TO.N,/5V*%
X189626001Y-121031000D03*
%TO.N,/A6*%
X193126002Y-121031000D03*
%TD*%
%TO.N,/GND*%
%TO.C,J11*%
X210398002Y-121031000D03*
%TO.N,/A7*%
X206898001Y-121031000D03*
%TO.N,/5V*%
X203398001Y-121031000D03*
%TO.N,/GND*%
X199898000Y-121031000D03*
%TD*%
D10*
%TO.N,/5V*%
%TO.C,J12*%
X231000000Y-75600000D03*
D11*
%TO.N,/A0*%
X231000000Y-73060000D03*
%TO.N,/A1*%
X233540000Y-75600000D03*
%TO.N,/A2*%
X233540000Y-73060000D03*
%TO.N,/A3*%
X236080000Y-75600000D03*
%TO.N,/A4*%
X236080000Y-73060000D03*
%TO.N,/A5*%
X238620000Y-75600000D03*
%TO.N,/A6*%
X238620000Y-73060000D03*
%TO.N,/A7*%
X241160000Y-75600000D03*
%TO.N,/GND*%
X241160000Y-73060000D03*
%TD*%
%TO.N,Net-(J13-Pad3)*%
%TO.C,J13*%
X171497000Y-97913000D03*
%TO.N,/A0*%
X171497000Y-95373000D03*
D10*
%TO.N,Net-(J13-Pad1)*%
X171497000Y-92833000D03*
%TD*%
%TO.N,Net-(J14-Pad1)*%
%TO.C,J14*%
X175497000Y-92833000D03*
D11*
%TO.N,/A1*%
X175497000Y-95373000D03*
%TO.N,Net-(J14-Pad3)*%
X175497000Y-97913000D03*
%TD*%
%TO.N,Net-(J15-Pad3)*%
%TO.C,J15*%
X179497000Y-97913000D03*
%TO.N,/A2*%
X179497000Y-95373000D03*
D10*
%TO.N,Net-(J15-Pad1)*%
X179497000Y-92833000D03*
%TD*%
%TO.N,Net-(J16-Pad1)*%
%TO.C,J16*%
X183497000Y-92833000D03*
D11*
%TO.N,/A3*%
X183497000Y-95373000D03*
%TO.N,Net-(J16-Pad3)*%
X183497000Y-97913000D03*
%TD*%
%TO.N,Net-(J17-Pad3)*%
%TO.C,J17*%
X187497000Y-97913000D03*
%TO.N,/A4*%
X187497000Y-95373000D03*
D10*
%TO.N,Net-(J17-Pad1)*%
X187497000Y-92833000D03*
%TD*%
%TO.N,Net-(J18-Pad1)*%
%TO.C,J18*%
X191497000Y-92833000D03*
D11*
%TO.N,/A5*%
X191497000Y-95373000D03*
%TO.N,Net-(J18-Pad3)*%
X191497000Y-97913000D03*
%TD*%
%TO.N,Net-(J19-Pad3)*%
%TO.C,J19*%
X214143000Y-99699000D03*
%TO.N,/A6*%
X214143000Y-102239000D03*
D10*
%TO.N,Net-(J19-Pad1)*%
X214143000Y-104779000D03*
%TD*%
%TO.N,Net-(J20-Pad1)*%
%TO.C,J20*%
X210143000Y-104779000D03*
D11*
%TO.N,/A7*%
X210143000Y-102239000D03*
%TO.N,Net-(J20-Pad3)*%
X210143000Y-99699000D03*
%TD*%
D10*
%TO.N,/Arduino/MISO*%
%TO.C,J21*%
X236093000Y-123469000D03*
D11*
%TO.N,/5V*%
X236093000Y-120929000D03*
%TO.N,/Arduino/SCK*%
X238633000Y-123469000D03*
%TO.N,/Arduino/MOSI*%
X238633000Y-120929000D03*
%TO.N,/Reset*%
X241173000Y-123469000D03*
%TO.N,/GND*%
X241173000Y-120929000D03*
%TD*%
D13*
%TO.N,/5V*%
%TO.C,J22*%
X222790000Y-91694000D03*
D12*
%TO.N,/Arduino/D3*%
X222790000Y-92964000D03*
%TO.N,/GND*%
X222790000Y-94234000D03*
%TD*%
D15*
%TO.N,/VCC*%
X233068000Y-80260300D03*
%TO.N,/GND*%
X185293000Y-104394000D03*
X181483000Y-103378000D03*
X237617000Y-105029000D03*
X231648000Y-108839000D03*
X219837000Y-108839000D03*
X218059000Y-111760000D03*
%TO.N,/5V*%
X228854000Y-114300000D03*
X233033450Y-113549550D03*
%TO.N,/I2C_Data*%
X226041268Y-106504289D03*
%TO.N,/I2C_Clock*%
X224657073Y-107547097D03*
%TO.N,/Reset*%
X231426500Y-104806600D03*
%TO.N,/5v_regulator/5V*%
X222561400Y-86494000D03*
X225817200Y-121238500D03*
%TO.N,/A0*%
X228509000Y-105900400D03*
%TO.N,/A2*%
X227711000Y-108204000D03*
%TO.N,/A1*%
X227790338Y-109327859D03*
%TO.N,/A3*%
X228473000Y-104775000D03*
%TO.N,/A4*%
X229266900Y-77501000D03*
X228330200Y-115913100D03*
%TO.N,/A5*%
X233574900Y-100911600D03*
%TO.N,/A6*%
X223345000Y-115167600D03*
%TO.N,/A7*%
X224094100Y-115866100D03*
%TO.N,/Arduino/SCK*%
X227576590Y-114174910D03*
%TD*%
D16*
%TO.N,/VCC*%
X242040000Y-111970000D02*
X239500000Y-111970000D01*
%TO.N,/GND*%
X235458000Y-105029000D02*
X231648000Y-108839000D01*
X237617000Y-105029000D02*
X235458000Y-105029000D01*
%TO.N,/5V*%
X173224000Y-75180000D02*
X174348800Y-74055200D01*
X174348800Y-74055200D02*
X185599200Y-74055200D01*
X185599200Y-74055200D02*
X186724000Y-75180000D01*
X227870000Y-91694000D02*
X230410000Y-91694000D01*
X225330000Y-91694000D02*
X227870000Y-91694000D01*
X222790000Y-91694000D02*
X225330000Y-91694000D01*
X210724000Y-75600000D02*
X209999100Y-76324900D01*
X209999100Y-76324900D02*
X201368900Y-76324900D01*
X201368900Y-76324900D02*
X200224000Y-75180000D01*
X210724000Y-75180000D02*
X210724000Y-75600000D01*
X210724000Y-75600000D02*
X229824700Y-75600000D01*
X231000000Y-75600000D02*
X229824700Y-75600000D01*
X186724000Y-75180000D02*
X187837700Y-74066300D01*
X187837700Y-74066300D02*
X199110300Y-74066300D01*
X199110300Y-74066300D02*
X200224000Y-75180000D01*
X189626000Y-121031000D02*
X190700700Y-122105700D01*
X190700700Y-122105700D02*
X202323300Y-122105700D01*
X202323300Y-122105700D02*
X203398000Y-121031000D01*
X234917700Y-120929000D02*
X233730500Y-122116200D01*
X233730500Y-122116200D02*
X204483200Y-122116200D01*
X204483200Y-122116200D02*
X203398000Y-121031000D01*
X189626000Y-121031000D02*
X188551300Y-122105700D01*
X188551300Y-122105700D02*
X177182700Y-122105700D01*
X177182700Y-122105700D02*
X176108000Y-121031000D01*
X176108000Y-121031000D02*
X175033300Y-122105700D01*
X175033300Y-122105700D02*
X166682700Y-122105700D01*
X166682700Y-122105700D02*
X165608000Y-121031000D01*
X236093000Y-120929000D02*
X234917700Y-120929000D01*
%TO.N,/I2C_Data*%
X180232200Y-94008400D02*
X182866800Y-96643000D01*
X165923200Y-90285300D02*
X169646300Y-94008400D01*
X163000000Y-89110000D02*
X164175300Y-90285300D01*
X169646300Y-94008400D02*
X180232200Y-94008400D01*
X193784990Y-106104290D02*
X225641269Y-106104290D01*
X184323700Y-96643000D02*
X193784990Y-106104290D01*
X225641269Y-106104290D02*
X226041268Y-106504289D01*
X164175300Y-90285300D02*
X165923200Y-90285300D01*
X182866800Y-96643000D02*
X184323700Y-96643000D01*
%TO.N,/I2C_Clock*%
X167244600Y-92825300D02*
X171062300Y-96643000D01*
X186800597Y-107547097D02*
X224657073Y-107547097D01*
X175896500Y-96643000D02*
X186800597Y-107547097D01*
X171062300Y-96643000D02*
X175896500Y-96643000D01*
X164175300Y-92825300D02*
X167244600Y-92825300D01*
X163000000Y-91650000D02*
X164175300Y-92825300D01*
%TO.N,/A0*%
X231000000Y-73060000D02*
X209344000Y-73060000D01*
X209344000Y-73060000D02*
X207224000Y-75180000D01*
%TO.N,/A2*%
X225228515Y-106795200D02*
X226637315Y-108204000D01*
X226637315Y-108204000D02*
X227711000Y-108204000D01*
X190066700Y-106795200D02*
X225228515Y-106795200D01*
X179497000Y-95373000D02*
X180346999Y-96222999D01*
X180346999Y-97075499D02*
X190066700Y-106795200D01*
X180346999Y-96222999D02*
X180346999Y-97075499D01*
%TO.N,/A1*%
X232364700Y-75600000D02*
X232364700Y-76425100D01*
X232364700Y-76425100D02*
X232014500Y-76775300D01*
X232014500Y-76775300D02*
X195319300Y-76775300D01*
X195319300Y-76775300D02*
X193724000Y-75180000D01*
X233540000Y-75600000D02*
X232364700Y-75600000D01*
%TO.N,/A3*%
X169724000Y-75180000D02*
X173019300Y-71884700D01*
X173019300Y-71884700D02*
X236617000Y-71884700D01*
X236617000Y-71884700D02*
X237273200Y-72540900D01*
X237273200Y-72540900D02*
X237273200Y-74406800D01*
X237273200Y-74406800D02*
X236080000Y-75600000D01*
%TO.N,/A4*%
X187497000Y-94197700D02*
X188315200Y-94197700D01*
X188315200Y-94197700D02*
X188672300Y-93840600D01*
X188672300Y-93840600D02*
X188672300Y-93483300D01*
X188672300Y-93483300D02*
X204654600Y-77501000D01*
X204654600Y-77501000D02*
X229266900Y-77501000D01*
X236080000Y-74235300D02*
X235712600Y-74235300D01*
X235712600Y-74235300D02*
X234904700Y-75043200D01*
X234904700Y-75043200D02*
X234904700Y-75897600D01*
X234904700Y-75897600D02*
X233301300Y-77501000D01*
X233301300Y-77501000D02*
X229266900Y-77501000D01*
X236080000Y-73060000D02*
X236080000Y-74235300D01*
X187497000Y-95373000D02*
X187497000Y-94197700D01*
%TO.N,/A5*%
X237444700Y-75600000D02*
X237444700Y-75967400D01*
X237444700Y-75967400D02*
X236186500Y-77225600D01*
X236186500Y-77225600D02*
X234398500Y-77225600D01*
X234398500Y-77225600D02*
X220345500Y-91278600D01*
X220345500Y-91278600D02*
X196766700Y-91278600D01*
X196766700Y-91278600D02*
X192672300Y-95373000D01*
X191497000Y-95373000D02*
X192672300Y-95373000D01*
X238620000Y-75600000D02*
X237444700Y-75600000D01*
%TO.N,/A7*%
X206898000Y-121031000D02*
X208083200Y-119845800D01*
X208083200Y-119845800D02*
X220114400Y-119845800D01*
X220114400Y-119845800D02*
X224094100Y-115866100D01*
X210143000Y-101063700D02*
X211037900Y-101063700D01*
X211037900Y-101063700D02*
X219752700Y-92348900D01*
X219752700Y-92348900D02*
X219953700Y-92348900D01*
X219953700Y-92348900D02*
X232767600Y-79535000D01*
X232767600Y-79535000D02*
X236380300Y-79535000D01*
X236380300Y-79535000D02*
X239984700Y-75930600D01*
X239984700Y-75930600D02*
X239984700Y-75600000D01*
X241160000Y-75600000D02*
X239984700Y-75600000D01*
X210143000Y-102239000D02*
X210143000Y-101063700D01*
%TD*%
M02*
